<?xml version="1.0" encoding="utf-8" standalone="no"?>
<!DOCTYPE svg PUBLIC "-//W3C//DTD SVG 1.1//EN"
  "http://www.w3.org/Graphics/SVG/1.1/DTD/svg11.dtd">
<svg xmlns:xlink="http://www.w3.org/1999/xlink" width="572.4pt" height="347.04pt" viewBox="0 0 572.4 347.04" xmlns="http://www.w3.org/2000/svg" version="1.1">
 <metadata>
  <rdf:RDF xmlns:dc="http://purl.org/dc/elements/1.1/" xmlns:cc="http://creativecommons.org/ns#" xmlns:rdf="http://www.w3.org/1999/02/22-rdf-syntax-ns#">
   <cc:Work>
    <dc:type rdf:resource="http://purl.org/dc/dcmitype/StillImage"/>
    <dc:date>2024-07-02T10:31:54.670750</dc:date>
    <dc:format>image/svg+xml</dc:format>
    <dc:creator>
     <cc:Agent>
      <dc:title>Matplotlib v3.9.0, https://matplotlib.org/</dc:title>
     </cc:Agent>
    </dc:creator>
   </cc:Work>
  </rdf:RDF>
 </metadata>
 <defs>
  <style type="text/css">*{stroke-linejoin: round; stroke-linecap: butt}</style>
 </defs>
 <g id="figure_1">
  <g id="patch_1">
   <path d="M 0 347.04 
L 572.4 347.04 
L 572.4 -0 
L 0 -0 
L 0 347.04 
z
" style="fill: none"/>
  </g>
  <g id="axes_1">
   <g id="patch_2">
    <path d="M 7.2 339.84 
L 565.2 339.84 
L 565.2 7.2 
L 7.2 7.2 
L 7.2 339.84 
z
" style="fill: none"/>
   </g>
   <g id="matplotlib.axis_1"/>
   <g id="matplotlib.axis_2"/>
   <g id="line2d_1">
    <path d="M 32.563636 178.637652 
L 34.388358 165.582632 
L 36.21308 167.46947 
L 38.037802 167.089994 
L 39.862525 167.327167 
L 41.687247 164.312443 
L 43.511969 163.226721 
L 45.336691 161.339883 
L 47.161413 164.876386 
L 48.986135 161.529621 
L 50.810857 162.615343 
L 52.635579 162.847245 
L 54.460301 164.359877 
L 56.285023 167.374601 
L 58.109745 167.561704 
L 59.934467 170.954915 
L 61.759189 167.422036 
L 63.583911 175.103784 
L 65.408633 172.274845 
L 67.233355 175.480625 
L 69.058077 178.453185 
L 70.882799 175.670363 
L 72.707521 175.05635 
L 74.532243 173.452801 
L 76.356965 169.870181 
L 78.181687 174.916682 
L 80.006409 172.415831 
L 81.831131 176.424044 
L 83.655853 175.670363 
L 85.480576 178.121143 
L 87.305298 173.452801 
L 89.13002 176.566347 
L 90.954742 179.159431 
L 92.779464 172.415831 
L 94.604186 169.352355 
L 96.428908 170.530311 
L 98.25363 172.415831 
L 100.078352 167.374601 
L 101.903074 162.847245 
L 103.727796 161.861662 
L 105.552518 164.544345 
L 107.37724 161.482186 
L 109.201962 159.82725 
L 111.026684 154.314311 
L 112.851406 161.62449 
L 116.50085 168.175717 
L 118.325572 172.463265 
L 120.150294 171.237875 
L 121.975016 177.883971 
L 123.799738 178.495349 
L 125.62446 178.495349 
L 127.449182 186.601372 
L 129.273905 192.778394 
L 131.098627 199.514088 
L 132.923349 202.528812 
L 134.748071 208.326358 
L 136.572793 207.630653 
L 138.397515 213.280625 
L 140.222237 209.970753 
L 142.046959 210.919442 
L 143.871681 208.368522 
L 145.696403 212.901149 
L 149.345847 212.816821 
L 151.170569 209.043146 
L 152.995291 208.284194 
L 154.820013 206.11275 
L 156.644735 206.956029 
L 158.469457 208.178784 
L 160.294179 211.024852 
L 162.118901 207.989046 
L 163.943623 212.669247 
L 165.768345 211.341082 
L 167.593067 208.052292 
L 169.417789 206.028422 
L 171.242511 197.448054 
L 173.067233 200.926581 
L 174.891956 197.996185 
L 176.716678 197.996185 
L 178.5414 194.180346 
L 180.366122 195.845823 
L 182.190844 193.189492 
L 184.015566 197.30048 
L 185.840288 191.218327 
L 187.66501 189.521227 
L 189.489732 184.661829 
L 191.314454 184.661829 
L 193.139176 180.150284 
L 194.963898 181.610212 
L 196.78862 178.82739 
L 198.613342 174.112931 
L 200.438064 172.227411 
L 202.262786 167.089994 
L 204.087508 167.985979 
L 205.91223 168.644791 
L 209.561674 177.652069 
L 211.386396 172.604251 
L 213.211118 172.651686 
L 215.03584 166.760588 
L 216.860562 168.597356 
L 218.685284 167.327167 
L 220.510007 167.184863 
L 222.334729 168.833211 
L 224.159451 166.573486 
L 225.984173 162.046129 
L 227.808895 163.553491 
L 229.633617 161.62449 
L 231.458339 153.513196 
L 233.283061 153.175884 
L 235.107783 156.570084 
L 236.932505 153.081015 
L 238.757227 156.10628 
L 240.581949 154.219442 
L 242.406671 153.13372 
L 244.231393 139.556921 
L 246.056115 134.792393 
L 247.880837 132.684194 
L 249.705559 135.635672 
L 251.530281 138.186592 
L 253.355003 142.381907 
L 255.179725 141.201316 
L 257.004447 143.225187 
L 258.829169 122.164283 
L 260.653891 110.906503 
L 262.478613 100.660658 
L 264.303336 100.449838 
L 266.128058 99.943871 
L 267.95278 104.581907 
L 269.777502 119.423625 
L 271.602224 119.212805 
L 273.426946 111.412471 
L 275.251668 102.558037 
L 277.07639 103.44348 
L 278.901112 104.624071 
L 280.725834 110.274044 
L 284.375278 132.768522 
L 286.2 128.573207 
L 288.024722 125.326581 
L 289.849444 117.821394 
L 291.674166 121.658316 
L 293.498888 122.585923 
L 295.32361 131.124127 
L 297.148332 143.330597 
L 298.973054 149.275717 
L 300.797776 152.71208 
L 302.622498 149.697356 
L 304.44722 139.894233 
L 306.271942 143.478171 
L 308.096664 145.776107 
L 309.921387 152.754244 
L 311.746109 146.535059 
L 313.570831 145.881517 
L 315.395553 137.258985 
L 317.220275 137.764953 
L 319.044997 137.764953 
L 320.869719 134.750229 
L 322.694441 133.949113 
L 324.519163 136.310296 
L 326.343885 127.392616 
L 328.168607 126.5915 
L 329.993329 125.663893 
L 331.818051 137.006001 
L 333.642773 137.764953 
L 335.467495 149.697356 
L 337.292217 150.350898 
L 339.116939 159.215873 
L 340.941661 163.463893 
L 342.766383 170.247681 
L 344.591105 180.287317 
L 346.415827 193.864116 
L 348.240549 192.114311 
L 350.065271 191.639967 
L 351.889993 198.375661 
L 353.714716 194.559822 
L 355.539438 198.185923 
L 357.36416 196.689102 
L 359.188882 197.30048 
L 361.013604 192.20918 
L 362.838326 197.869693 
L 368.312492 188.013865 
L 370.137214 185.842421 
L 371.961936 184.524796 
L 373.786658 180.287317 
L 375.61138 183.259877 
L 377.436102 183.628812 
L 379.260824 185.842421 
L 381.085546 180.007981 
L 382.910268 176.28174 
L 384.73499 168.033413 
L 386.559712 168.975515 
L 388.384434 169.493341 
L 390.209156 167.704007 
L 392.033878 164.449476 
L 393.8586 165.113558 
L 395.683322 164.217574 
L 397.508044 157.560937 
L 399.332767 148.980569 
L 401.157489 145.923681 
L 402.982211 140.885086 
L 406.631655 131.630095 
L 408.456377 130.702487 
L 410.281099 125.916877 
L 412.105821 117.104607 
L 413.930543 116.050508 
L 415.755265 110.695683 
L 417.579987 109.768076 
L 419.404709 108.629649 
L 421.229431 102.094233 
L 423.054153 102.642365 
L 424.878875 102.642365 
L 426.703597 92.944651 
L 428.528319 86.198416 
L 430.353041 78.145098 
L 432.177763 72.748109 
L 434.002485 69.290664 
L 435.827207 71.398862 
L 437.651929 78.06077 
L 439.476651 82.361495 
L 443.126095 102.558037 
L 444.950818 106.09981 
L 446.77554 116.176999 
L 448.600262 120.562052 
L 450.424984 123.344875 
L 454.074428 125.874713 
L 455.89915 126.844484 
L 457.723872 122.796743 
L 459.548594 122.712415 
L 461.373316 120.098249 
L 465.02276 116.851623 
L 466.847482 115.375884 
L 468.672204 116.893787 
L 470.496926 112.635226 
L 472.321648 106.94309 
L 474.14637 103.190496 
L 475.971092 97.203212 
L 477.795814 92.059208 
L 479.620536 90.583469 
L 481.445258 88.854746 
L 483.26998 85.650284 
L 485.094702 81.686871 
L 486.919424 78.735393 
L 488.744147 83.120446 
L 490.568869 78.904049 
L 492.393591 80.50628 
L 494.218313 82.783134 
L 496.043035 86.114088 
L 497.867757 95.347998 
L 499.692479 97.540524 
L 501.517201 100.028199 
L 503.341923 98.425968 
L 505.166645 94.673374 
L 506.991367 99.395739 
L 508.816089 103.23266 
L 510.640811 107.702041 
L 512.465533 118.032214 
L 514.290255 124.314646 
L 516.114977 129.479732 
L 517.939699 130.175438 
L 519.764421 138.228756 
L 521.589143 146.809124 
L 523.413865 157.002264 
L 525.238587 161.903826 
L 527.063309 166.336313 
L 528.888031 165.203157 
L 530.712753 155.400033 
L 532.537475 153.365622 
L 534.362198 149.170307 
L 536.18692 140.126135 
L 538.011642 135.319442 
L 539.836364 135.319442 
L 539.836364 135.319442 
" clip-path="url(#pf25cb6e3f7)" style="fill: none; stroke: #1f77b4; stroke-width: 1.5; stroke-linecap: square"/>
   </g>
   <g id="line2d_2">
    <path d="M 32.563636 175.657186 
L 34.388358 168.959703 
L 36.21308 160.03807 
L 38.037802 157.107674 
L 39.862525 153.049392 
L 41.687247 148.074044 
L 43.511969 146.703714 
L 45.336691 146.703714 
L 47.161413 151.584194 
L 48.986135 156.791445 
L 50.810857 169.240357 
L 52.635579 176.59797 
L 54.460301 185.072928 
L 56.285023 195.107953 
L 58.109745 200.547105 
L 61.759189 201.031991 
L 63.583911 202.465566 
L 65.408633 199.42976 
L 67.233355 201.664451 
L 69.058077 205.26947 
L 70.882799 200.06222 
L 72.707521 188.952013 
L 74.532243 185.009682 
L 76.356965 182.247942 
L 78.181687 181.831573 
L 80.006409 177.051233 
L 81.831131 175.517518 
L 83.655853 171.01882 
L 85.480576 169.763454 
L 87.305298 165.577362 
L 89.13002 167.250745 
L 90.954742 170.704567 
L 92.779464 168.681684 
L 94.604186 163.622008 
L 96.428908 157.213084 
L 98.25363 158.087987 
L 100.078352 158.646659 
L 101.903074 155.463279 
L 103.727796 156.306559 
L 105.552518 161.081629 
L 107.37724 162.16208 
L 109.201962 164.428394 
L 111.026684 164.807869 
L 112.851406 168.891187 
L 114.676128 173.460707 
L 116.50085 167.111076 
L 118.325572 173.355297 
L 120.150294 176.70338 
L 121.975016 178.479537 
L 123.799738 182.395516 
L 125.62446 187.413028 
L 129.273905 192.641361 
L 131.098627 194.770641 
L 132.923349 197.110742 
L 134.748071 201.601205 
L 136.572793 206.724127 
L 138.397515 210.308065 
L 140.222237 211.467574 
L 143.871681 207.103603 
L 145.696403 211.84705 
L 147.521125 201.327139 
L 149.345847 199.261104 
L 151.170569 195.318773 
L 152.995291 195.782577 
L 154.820013 197.932939 
L 156.644735 196.014479 
L 158.469457 200.526023 
L 162.118901 206.766291 
L 163.943623 211.151344 
L 165.768345 211.678394 
L 167.593067 212.964395 
L 169.417789 211.130262 
L 171.242511 204.173207 
L 173.067233 205.754356 
L 174.891956 205.395962 
L 178.5414 205.543536 
L 180.366122 205.670028 
L 182.190844 204.278617 
L 185.840288 197.448054 
L 187.66501 196.372872 
L 189.489732 188.69903 
L 191.314454 191.829704 
L 193.139176 185.420781 
L 194.963898 188.667407 
L 196.78862 190.122064 
L 200.438064 178.063168 
L 202.262786 179.317546 
L 204.087508 177.646799 
L 205.91223 174.400173 
L 207.736952 172.58844 
L 209.561674 177.293675 
L 211.386396 167.250745 
L 213.211118 159.616431 
L 215.03584 159.163168 
L 216.860562 159.447775 
L 218.685284 163.484975 
L 220.510007 168.017602 
L 222.334729 167.285003 
L 224.159451 170.250975 
L 225.984173 169.519693 
L 227.808895 164.913279 
L 229.633617 155.747886 
L 231.458339 151.310128 
L 233.283061 152.427474 
L 235.107783 159.163168 
L 236.932505 161.397858 
L 238.757227 170.250975 
L 240.581949 180.961941 
L 242.406671 174.05232 
L 244.231393 174.784919 
L 246.056115 154.704328 
L 247.880837 147.989716 
L 249.705559 158.045823 
L 251.530281 159.901037 
L 253.355003 166.93715 
L 255.179725 181.520613 
L 257.004447 170.355726 
L 258.829169 150.435226 
L 260.653891 120.435561 
L 262.478613 106.141974 
L 264.303336 113.942309 
L 266.128058 129.479732 
L 267.95278 149.676274 
L 269.777502 166.83174 
L 271.602224 191.692672 
L 273.426946 183.196631 
L 275.251668 155.294624 
L 277.07639 148.769749 
L 278.901112 145.312303 
L 280.725834 163.100229 
L 282.550556 189.816375 
L 284.375278 211.130262 
L 286.2 209.211801 
L 288.024722 197.701037 
L 289.849444 183.892337 
L 291.674166 178.690357 
L 293.498888 195.487429 
L 295.32361 219.225745 
L 297.148332 259.956141 
L 298.973054 284.073932 
L 300.797776 273.279955 
L 302.622498 222.26155 
L 304.44722 201.390385 
L 306.271942 189.500145 
L 308.096664 195.276609 
L 309.921387 212.521673 
L 311.746109 226.815259 
L 313.570831 243.259208 
L 315.395553 258.522566 
L 317.220275 262.738963 
L 319.044997 260.79942 
L 320.869719 251.186035 
L 322.694441 244.692783 
L 324.519163 245.536062 
L 326.343885 258.016598 
L 329.993329 280.785142 
L 331.818051 280.953798 
L 333.642773 282.977669 
L 335.467495 285.676163 
L 337.292217 278.00232 
L 339.116939 278.929927 
L 340.941661 261.811355 
L 342.766383 265.521785 
L 344.591105 275.725466 
L 346.415827 282.556029 
L 348.240549 281.038126 
L 350.065271 282.977669 
L 351.889993 265.184473 
L 353.714716 248.824852 
L 355.539438 235.374545 
L 357.36416 226.688767 
L 359.188882 216.611578 
L 361.013604 208.579342 
L 362.838326 205.37488 
L 366.48777 195.571757 
L 368.312492 196.330708 
L 370.137214 201.137401 
L 371.961936 211.298918 
L 373.786658 214.29256 
L 375.61138 216.442922 
L 377.436102 211.130262 
L 381.085546 194.349002 
L 382.910268 187.655471 
L 384.73499 178.411021 
L 386.559712 171.367496 
L 388.384434 165.751288 
L 390.209156 157.982577 
L 392.033878 149.423291 
L 395.683322 135.972984 
L 397.508044 127.6456 
L 399.332767 117.905722 
L 402.982211 110.189716 
L 404.806933 104.666235 
L 406.631655 92.312192 
L 408.456377 90.330485 
L 410.281099 82.783134 
L 412.105821 77.892114 
L 413.930543 73.507061 
L 415.755265 71.48319 
L 417.579987 64.652627 
L 419.404709 59.255639 
L 421.229431 56.557144 
L 423.054153 50.9915 
L 424.878875 49.642253 
L 426.703597 44.160937 
L 428.528319 33.704272 
L 430.353041 26.367741 
L 432.177763 23.331935 
L 434.002485 22.32 
L 435.827207 27.042365 
L 437.651929 40.281852 
L 443.126095 71.90483 
L 444.950818 75.952571 
L 446.77554 84.048054 
L 448.600262 86.493564 
L 450.424984 84.638349 
L 452.249706 86.999532 
L 454.074428 84.807005 
L 457.723872 84.216709 
L 459.548594 79.915984 
L 461.373316 78.735393 
L 463.198038 73.085421 
L 465.02276 72.663781 
L 466.847482 68.278728 
L 468.672204 68.278728 
L 470.496926 64.568299 
L 472.321648 60.351902 
L 474.14637 60.01459 
L 475.971092 61.785477 
L 477.795814 56.978784 
L 479.620536 55.713865 
L 483.26998 48.461662 
L 485.094702 44.413921 
L 486.919424 44.751233 
L 488.744147 45.847496 
L 490.568869 45.67884 
L 492.393591 50.232549 
L 494.218313 50.907172 
L 496.043035 53.268355 
L 497.867757 56.557144 
L 499.692479 58.581015 
L 501.517201 64.821283 
L 503.341923 67.688433 
L 505.166645 75.530931 
L 508.816089 93.534947 
L 510.640811 105.846827 
L 512.465533 116.556475 
L 514.290255 121.995627 
L 516.114977 124.736286 
L 517.939699 125.073597 
L 519.764421 127.6456 
L 521.589143 131.039799 
L 523.413865 136.204886 
L 525.238587 137.490887 
L 527.063309 139.198528 
L 528.888031 137.364395 
L 530.712753 130.913307 
L 532.537475 128.699699 
L 534.362198 123.387038 
L 536.18692 118.917658 
L 538.011642 116.767295 
L 539.836364 110.990831 
L 539.836364 110.990831 
" clip-path="url(#pf25cb6e3f7)" style="fill: none; stroke: #ff7f0e; stroke-width: 1.5; stroke-linecap: square"/>
   </g>
   <g id="line2d_3">
    <path d="M 32.563636 179.554718 
L 34.388358 175.43319 
L 36.21308 165.24005 
L 38.037802 162.151539 
L 39.862525 161.476916 
L 41.687247 153.976999 
L 43.511969 182.448221 
L 45.336691 153.428868 
L 47.161413 160.048611 
L 48.986135 164.686648 
L 50.810857 166.989855 
L 52.635579 189.742588 
L 54.460301 180.545572 
L 56.285023 186.021617 
L 58.109745 195.845823 
L 59.934467 191.408065 
L 61.759189 189.668801 
L 63.583911 191.292114 
L 65.408633 189.626637 
L 67.233355 186.569749 
L 69.058077 185.062387 
L 70.882799 174.04705 
L 72.707521 170.080342 
L 74.532243 158.857479 
L 76.356965 160.997301 
L 78.181687 154.535672 
L 80.006409 149.423291 
L 81.831131 152.311523 
L 85.480576 152.353687 
L 87.305298 149.423291 
L 89.13002 151.404997 
L 90.954742 154.419721 
L 92.779464 152.553965 
L 94.604186 146.366403 
L 96.428908 143.7944 
L 98.25363 146.050173 
L 100.078352 139.282856 
L 101.903074 142.445153 
L 103.727796 143.878728 
L 105.552518 147.71565 
L 107.37724 154.461885 
L 109.201962 157.234166 
L 111.026684 161.872203 
L 112.851406 165.519387 
L 114.676128 174.719038 
L 116.50085 176.500466 
L 118.325572 181.415204 
L 120.150294 185.895125 
L 121.975016 190.058818 
L 123.799738 188.077111 
L 125.62446 188.677948 
L 127.449182 194.939297 
L 131.098627 195.845823 
L 132.923349 197.511299 
L 134.748071 199.935728 
L 136.572793 200.251958 
L 138.397515 201.643369 
L 140.222237 197.679955 
L 142.046959 198.059431 
L 143.871681 197.237234 
L 145.696403 193.779788 
L 147.521125 189.34203 
L 149.345847 186.021617 
L 151.170569 186.179732 
L 152.995291 186.095404 
L 154.820013 187.244373 
L 156.644735 184.155862 
L 158.469457 184.830485 
L 160.294179 188.319554 
L 162.118901 194.53874 
L 163.943623 199.619498 
L 165.768345 199.092448 
L 167.593067 197.996185 
L 169.417789 198.059431 
L 171.242511 190.849392 
L 173.067233 190.417211 
L 174.891956 193.547886 
L 176.716678 194.812805 
L 178.5414 200.483859 
L 180.366122 197.595627 
L 182.190844 189.742588 
L 184.015566 192.831099 
L 185.840288 184.588042 
L 187.66501 180.545572 
L 189.489732 178.642922 
L 191.314454 175.037903 
L 193.139176 186.411634 
L 194.963898 180.745851 
L 196.78862 184.356141 
L 198.613342 176.500466 
L 200.438064 173.728185 
L 202.262786 173.212994 
L 204.087508 171.190605 
L 205.91223 168.573639 
L 207.736952 170.437418 
L 209.561674 168.693543 
L 211.386396 158.541249 
L 213.211118 157.392281 
L 215.03584 159.215873 
L 216.860562 158.499085 
L 218.685284 158.541249 
L 220.510007 164.091082 
L 222.334729 170.041472 
L 224.159451 180.983023 
L 225.984173 165.124099 
L 227.808895 166.233539 
L 229.633617 164.170139 
L 231.458339 160.997301 
L 233.283061 159.099922 
L 235.107783 169.962415 
L 236.932505 167.424671 
L 238.757227 173.80856 
L 240.581949 176.661216 
L 242.406671 185.262666 
L 244.231393 172.53837 
L 246.056115 164.92382 
L 247.880837 161.555973 
L 249.705559 172.658274 
L 251.530281 168.415524 
L 253.355003 177.652069 
L 255.179725 191.133999 
L 257.004447 173.173465 
L 258.829169 159.848332 
L 260.653891 138.27092 
L 262.478613 132.64203 
L 264.303336 135.235114 
L 266.128058 154.851902 
L 267.95278 170.556005 
L 269.777502 195.445265 
L 271.602224 209.654523 
L 273.426946 198.270251 
L 275.251668 191.133999 
L 277.07639 185.030764 
L 278.901112 185.663224 
L 280.725834 213.639018 
L 282.550556 211.341082 
L 284.375278 231.664116 
L 286.2 228.670474 
L 288.024722 209.612359 
L 289.849444 201.074155 
L 291.674166 206.597635 
L 293.498888 220.111188 
L 297.148332 276.400089 
L 298.973054 316.034222 
L 300.797776 296.385811 
L 302.622498 251.059543 
L 304.44722 217.58135 
L 306.271942 210.68754 
L 308.096664 217.539186 
L 309.921387 230.989492 
L 311.746109 241.994289 
L 313.570831 257.679286 
L 315.395553 263.750898 
L 317.220275 262.654635 
L 319.044997 261.980011 
L 320.869719 258.438238 
L 322.694441 254.601316 
L 324.519163 273.195627 
L 326.343885 283.567964 
L 328.168607 298.409682 
L 329.993329 306.420837 
L 331.818051 310.890218 
L 333.642773 311.227529 
L 335.467495 304.143982 
L 337.292217 303.216375 
L 339.116939 310.131266 
L 340.941661 290.061216 
L 342.766383 281.965733 
L 344.591105 287.784361 
L 346.415827 300.264897 
L 348.240549 295.289548 
L 350.065271 290.988823 
L 351.889993 286.266458 
L 353.714716 269.147886 
L 355.539438 256.034891 
L 357.36416 234.868578 
L 359.188882 215.683971 
L 361.013604 203.899141 
L 362.838326 197.679955 
L 364.663048 189.0258 
L 366.48777 185.346994 
L 368.312492 190.691277 
L 370.137214 201.516877 
L 371.961936 206.787373 
L 373.786658 210.750786 
L 375.61138 208.03121 
L 377.436102 204.615929 
L 379.260824 194.749559 
L 381.085546 190.143146 
L 382.910268 179.754997 
L 384.73499 167.029384 
L 386.559712 156.759822 
L 388.384434 149.149225 
L 390.209156 144.511188 
L 392.033878 135.235114 
L 395.683322 122.585923 
L 397.508044 112.297914 
L 401.157489 98.678951 
L 402.982211 97.877836 
L 404.806933 91.300257 
L 406.631655 83.542086 
L 408.456377 79.747328 
L 410.281099 70.218271 
L 412.105821 66.760825 
L 413.930543 64.821283 
L 415.755265 61.954133 
L 417.579987 62.038461 
L 419.404709 59.508622 
L 421.229431 61.363837 
L 423.054153 59.339967 
L 426.703597 51.41314 
L 428.528319 45.172872 
L 430.353041 38.004997 
L 432.177763 37.414702 
L 434.002485 37.667685 
L 435.827207 41.799755 
L 437.651929 56.388489 
L 439.476651 66.086202 
L 441.301373 80.253296 
L 443.126095 89.655862 
L 446.77554 102.178561 
L 448.600262 106.94309 
L 450.424984 104.244596 
L 452.249706 104.28676 
L 454.074428 100.955806 
L 455.89915 100.618494 
L 457.723872 97.582688 
L 459.548594 92.565176 
L 461.373316 90.625633 
L 463.198038 92.60734 
L 465.02276 90.962945 
L 466.847482 88.47527 
L 468.672204 88.47527 
L 470.496926 82.783134 
L 472.321648 81.012248 
L 474.14637 78.988377 
L 475.971092 75.277948 
L 477.795814 73.591389 
L 479.620536 73.844373 
L 481.445258 70.892895 
L 483.26998 73.254077 
L 485.094702 73.085421 
L 486.919424 71.145878 
L 488.744147 77.976442 
L 490.568869 76.880178 
L 492.393591 79.578673 
L 494.218313 84.469693 
L 496.043035 92.227864 
L 497.867757 98.046492 
L 499.692479 104.919219 
L 501.517201 107.15391 
L 503.341923 108.418829 
L 505.166645 115.628868 
L 506.991367 118.706838 
L 508.816089 125.410909 
L 510.640811 133.042588 
L 512.465533 144.300368 
L 514.290255 145.291221 
L 516.114977 145.733943 
L 517.939699 144.553352 
L 519.764421 150.05575 
L 521.589143 148.832995 
L 523.413865 155.052181 
L 525.238587 156.63333 
L 527.063309 157.307953 
L 528.888031 150.972817 
L 532.537475 135.277278 
L 534.362198 131.377111 
L 536.18692 127.898583 
L 538.011642 128.699699 
L 539.836364 124.947105 
L 539.836364 124.947105 
" clip-path="url(#pf25cb6e3f7)" style="fill: none; stroke: #2ca02c; stroke-width: 1.5; stroke-linecap: square"/>
   </g>
   <g id="line2d_4">
    <path d="M 32.563636 182.43768 
L 34.388358 176.537359 
L 36.21308 169.548681 
L 38.037802 165.303296 
L 39.862525 165.076665 
L 41.687247 158.203938 
L 43.511969 167.933274 
L 45.336691 160.57039 
L 47.161413 163.532409 
L 50.810857 168.984738 
L 52.635579 186.464339 
L 54.460301 181.388851 
L 56.285023 188.604161 
L 58.109745 194.876051 
L 59.934467 194.728477 
L 61.759189 190.332883 
L 63.583911 194.728477 
L 65.408633 194.728477 
L 67.233355 186.232437 
L 69.058077 183.375828 
L 70.882799 174.961481 
L 72.707521 168.310114 
L 74.532243 159.215873 
L 76.356965 158.499085 
L 78.181687 152.943982 
L 80.006409 148.537847 
L 81.831131 149.170307 
L 83.655853 149.63411 
L 87.305298 147.673486 
L 89.13002 152.111244 
L 90.954742 150.909571 
L 92.779464 149.855471 
L 94.604186 143.646827 
L 96.428908 140.083971 
L 98.25363 141.517546 
L 100.078352 140.315873 
L 103.727796 141.433218 
L 105.552518 148.453519 
L 107.37724 153.692393 
L 109.201962 157.223625 
L 111.026684 160.006447 
L 114.676128 173.268334 
L 116.50085 179.280653 
L 118.325572 183.871255 
L 120.150294 186.390552 
L 121.975016 193.400312 
L 123.799738 187.138963 
L 125.62446 190.522621 
L 127.449182 191.14454 
L 129.273905 194.897133 
L 131.098627 194.686313 
L 132.923349 194.686313 
L 134.748071 198.481071 
L 136.572793 199.387596 
L 138.397515 200.610351 
L 140.222237 199.00812 
L 142.046959 194.601985 
L 143.871681 190.965343 
L 145.696403 189.352571 
L 147.521125 185.336453 
L 149.345847 181.952794 
L 151.170569 181.16222 
L 152.995291 182.511467 
L 154.820013 184.925354 
L 156.644735 184.661829 
L 158.469457 182.96473 
L 160.294179 185.968912 
L 162.118901 190.143146 
L 163.943623 193.147328 
L 165.768345 194.749559 
L 167.593067 192.535951 
L 169.417789 192.799476 
L 171.242511 185.104551 
L 173.067233 187.21275 
L 174.891956 190.585867 
L 176.716678 192.272426 
L 178.5414 193.442476 
L 180.366122 193.147328 
L 182.190844 188.561997 
L 184.015566 189.500145 
L 185.840288 184.282354 
L 187.66501 180.071227 
L 189.489732 174.697956 
L 191.314454 175.862736 
L 193.139176 183.344205 
L 194.963898 182.247942 
L 196.78862 183.302041 
L 198.613342 177.02488 
L 200.438064 174.210435 
L 202.262786 172.253763 
L 204.087508 171.013879 
L 205.91223 168.610533 
L 207.736952 173.908699 
L 209.561674 168.610533 
L 211.386396 160.98676 
L 213.211118 161.766793 
L 215.03584 157.824462 
L 216.860562 159.447775 
L 218.685284 157.940413 
L 220.510007 165.039771 
L 222.334729 168.647426 
L 224.159451 177.061774 
L 225.984173 167.408859 
L 227.808895 167.445753 
L 229.633617 166.241445 
L 231.458339 161.845851 
L 233.283061 164.512722 
L 235.107783 168.685637 
L 236.932505 172.291316 
L 238.757227 174.284222 
L 240.581949 175.899629 
L 242.406671 180.977752 
L 244.231393 172.066002 
L 246.056115 170.337279 
L 247.880837 167.482646 
L 249.705559 178.263447 
L 251.530281 174.661062 
L 253.355003 179.955276 
L 255.179725 191.334278 
L 257.004447 181.051539 
L 258.829169 175.225006 
L 260.653891 157.792839 
L 262.478613 151.805555 
L 264.303336 150.045209 
L 266.128058 169.248263 
L 267.95278 185.895125 
L 269.777502 208.916654 
L 271.602224 220.743648 
L 273.426946 209.717769 
L 275.251668 205.923012 
L 277.07639 201.854189 
L 278.901112 202.1915 
L 280.725834 220.195516 
L 282.550556 223.146994 
L 284.375278 235.332381 
L 286.2 234.826414 
L 288.024722 219.057089 
L 289.849444 216.822398 
L 291.674166 221.924239 
L 293.498888 237.145432 
L 297.148332 287.615706 
L 298.973054 324.72 
L 300.797776 296.132828 
L 302.622498 264.256866 
L 304.44722 237.86222 
L 306.271942 226.098472 
L 308.096664 229.977557 
L 311.746109 250.764395 
L 313.570831 264.08821 
L 315.395553 269.991166 
L 317.220275 269.569526 
L 319.044997 265.606113 
L 320.869719 259.787485 
L 322.694441 262.485979 
L 324.519163 280.363503 
L 326.343885 290.482856 
L 328.168607 307.09546 
L 331.818051 322.190162 
L 333.642773 320.672259 
L 335.467495 314.937959 
L 337.292217 313.588712 
L 339.116939 320.503603 
L 340.941661 297.988042 
L 342.766383 295.289548 
L 346.415827 299.505945 
L 348.240549 298.241026 
L 350.065271 295.289548 
L 351.889993 286.266458 
L 353.714716 269.316542 
L 355.539438 256.793843 
L 357.36416 235.585365 
L 359.188882 218.719777 
L 361.013604 203.182354 
L 362.838326 196.942086 
L 364.663048 187.360323 
L 366.48777 182.553631 
L 368.312492 193.358148 
L 370.137214 199.935728 
L 371.961936 208.178784 
L 373.786658 205.459208 
L 375.61138 208.705834 
L 377.436102 200.399532 
L 379.260824 196.415036 
L 381.085546 184.767239 
L 382.910268 177.435979 
L 384.73499 168.647426 
L 386.559712 154.894066 
L 388.384434 147.104272 
L 390.209156 140.906168 
L 392.033878 129.542978 
L 393.8586 127.266124 
L 395.683322 118.580346 
L 397.508044 113.604997 
L 399.332767 102.811021 
L 401.157489 98.55246 
L 402.982211 96.064785 
L 404.806933 90.541305 
L 406.631655 83.457758 
L 408.456377 79.494345 
L 410.281099 72.157814 
L 412.105821 68.531712 
L 413.930543 67.266793 
L 415.755265 64.989939 
L 417.579987 63.809347 
L 419.404709 66.423514 
L 421.229431 64.568299 
L 423.054153 65.580234 
L 424.878875 60.773542 
L 426.703597 57.653408 
L 430.353041 43.654969 
L 432.177763 43.823625 
L 434.002485 45.763168 
L 435.827207 50.401205 
L 437.651929 61.195181 
L 439.476651 74.181684 
L 441.301373 85.270809 
L 443.126095 93.830095 
L 444.950818 97.835672 
L 446.77554 103.527808 
L 448.600262 105.087875 
L 450.424984 104.497579 
L 452.249706 101.714757 
L 454.074428 101.335282 
L 455.89915 97.877836 
L 457.723872 95.811801 
L 459.548594 93.998751 
L 461.373316 90.246157 
L 463.198038 89.655862 
L 465.02276 90.330485 
L 466.847482 89.655862 
L 468.672204 87.758483 
L 470.496926 82.530151 
L 472.321648 80.337624 
L 474.14637 79.494345 
L 475.971092 76.374211 
L 477.795814 74.181684 
L 483.26998 74.266012 
L 485.094702 70.386927 
L 488.744147 74.687652 
L 490.568869 77.723458 
L 492.393591 81.012248 
L 494.218313 86.02976 
L 496.043035 92.480848 
L 497.867757 100.281182 
L 499.692479 104.160268 
L 501.517201 108.798305 
L 503.341923 110.23188 
L 505.166645 114.279621 
L 506.991367 119.001985 
L 508.816089 125.790385 
L 510.640811 129.311076 
L 512.465533 136.858427 
L 514.290255 138.544986 
L 516.114977 139.999643 
L 517.939699 140.526693 
L 519.764421 140.653185 
L 521.589143 145.16473 
L 525.238587 150.150619 
L 527.063309 147.525912 
L 528.888031 139.472593 
L 532.537475 124.35681 
L 534.362198 120.224741 
L 536.18692 116.725131 
L 538.011642 118.538182 
L 539.836364 122.037791 
L 539.836364 122.037791 
" clip-path="url(#pf25cb6e3f7)" style="fill: none; stroke: #d62728; stroke-width: 1.5; stroke-linecap: square"/>
   </g>
   <g id="line2d_5">
    <path d="M 32.563636 173.270969 
L 34.388358 167.827864 
L 36.21308 157.982577 
L 38.037802 165.466682 
L 39.862525 155.979788 
L 43.511969 151.01498 
L 45.336691 160.101316 
L 47.161413 151.057144 
L 48.986135 146.218829 
L 50.810857 153.745098 
L 52.635579 170.86927 
L 54.460301 167.30872 
L 56.285023 168.26795 
L 58.109745 179.791891 
L 59.934467 183.196631 
L 61.759189 179.99217 
L 63.583911 189.753129 
L 65.408633 185.715929 
L 67.233355 186.148109 
L 69.058077 192.072147 
L 70.882799 184.830485 
L 72.707521 185.673765 
L 74.532243 180.550842 
L 76.356965 180.508678 
L 78.181687 182.827697 
L 80.006409 181.510073 
L 81.831131 184.387764 
L 83.655853 186.548667 
L 85.480576 185.589437 
L 87.305298 188.150898 
L 89.13002 186.675159 
L 90.954742 184.756698 
L 92.779464 181.91063 
L 94.604186 179.349169 
L 96.428908 176.352892 
L 98.25363 176.590064 
L 100.078352 173.151065 
L 101.903074 171.589681 
L 103.727796 171.509635 
L 105.552518 175.430555 
L 107.37724 180.229342 
L 109.201962 168.988691 
L 111.026684 163.985672 
L 112.851406 175.230276 
L 114.676128 175.311969 
L 116.50085 172.750508 
L 118.325572 176.352892 
L 120.150294 175.190747 
L 121.975016 171.069384 
L 123.799738 172.309762 
L 125.62446 176.750814 
L 127.449182 187.550061 
L 129.273905 192.356754 
L 131.098627 198.607563 
L 132.923349 200.842253 
L 134.748071 207.967964 
L 136.572793 210.160491 
L 140.222237 217.665678 
L 142.046959 217.15971 
L 143.871681 218.804105 
L 145.696403 218.930597 
L 147.521125 215.557479 
L 149.345847 215.430987 
L 151.170569 212.584919 
L 152.995291 216.147775 
L 154.820013 216.274267 
L 156.644735 213.702264 
L 158.469457 215.304495 
L 160.294179 217.79217 
L 162.118901 223.062666 
L 163.943623 216.105611 
L 165.768345 215.178003 
L 167.593067 218.171645 
L 169.417789 213.343871 
L 171.242511 202.950452 
L 173.067233 211.678394 
L 174.891956 206.513307 
L 176.716678 206.154914 
L 178.5414 204.679175 
L 180.366122 208.010128 
L 182.190844 199.155694 
L 184.015566 200.441695 
L 185.840288 196.119888 
L 187.66501 196.963168 
L 189.489732 195.234445 
L 191.314454 192.672984 
L 193.139176 196.710184 
L 194.963898 192.430541 
L 196.78862 183.228254 
L 200.438064 174.149824 
L 202.262786 178.51116 
L 204.087508 176.787708 
L 205.91223 178.590218 
L 207.736952 196.436118 
L 209.561674 181.552236 
L 211.386396 165.746018 
L 213.211118 170.148859 
L 215.03584 169.548681 
L 216.860562 175.630834 
L 218.685284 186.517044 
L 220.510007 172.109483 
L 222.334729 170.389325 
L 224.159451 173.390873 
L 225.984173 161.065817 
L 227.808895 153.745098 
L 229.633617 154.778115 
L 231.458339 144.932828 
L 233.283061 144.827418 
L 235.107783 155.062722 
L 236.932505 146.134501 
L 238.757227 155.57923 
L 240.581949 156.380346 
L 242.406671 158.783692 
L 246.056115 115.502376 
L 247.880837 111.075159 
L 249.705559 118.580346 
L 251.530281 128.552125 
L 253.355003 146.809124 
L 255.179725 154.704328 
L 257.004447 128.425633 
L 258.829169 81.939855 
L 260.653891 58.159375 
L 262.478613 51.750452 
L 264.303336 59.59295 
L 266.128058 78.06077 
L 267.95278 87.842811 
L 269.777502 104.792727 
L 271.602224 106.394958 
L 273.426946 84.048054 
L 275.251668 44.076609 
L 277.07639 54.870586 
L 278.901112 57.400424 
L 280.725834 91.342421 
L 282.550556 108.96696 
L 284.375278 123.850842 
L 286.2 120.730708 
L 288.024722 87.294679 
L 289.849444 72.410798 
L 291.674166 79.663001 
L 293.498888 106.09981 
L 295.32361 129.479732 
L 297.148332 144.74309 
L 298.973054 156.823067 
L 300.797776 131.124127 
L 302.622498 103.02184 
L 304.44722 57.14744 
L 306.271942 62.88174 
L 309.921387 111.83411 
L 311.746109 128.320223 
L 313.570831 135.340524 
L 315.395553 139.261774 
L 317.220275 140.526693 
L 319.044997 147.420502 
L 320.869719 145.101484 
L 322.694441 136.689771 
L 324.519163 145.628533 
L 326.343885 136.984919 
L 328.168607 139.367183 
L 329.993329 148.811913 
L 331.818051 147.947552 
L 333.642773 152.216654 
L 335.467495 148.411355 
L 337.292217 158.667741 
L 339.116939 156.823067 
L 340.941661 147.82106 
L 342.766383 152.50126 
L 344.591105 160.944596 
L 346.415827 196.478282 
L 348.240549 181.789409 
L 350.065271 183.196631 
L 351.889993 192.31459 
L 353.714716 182.22686 
L 355.539438 178.347775 
L 357.36416 180.593006 
L 359.188882 184.714534 
L 361.013604 188.27739 
L 362.838326 195.866905 
L 364.663048 197.679955 
L 366.48777 194.876051 
L 368.312492 201.074155 
L 370.137214 202.317992 
L 373.786658 188.108734 
L 375.61138 194.791723 
L 377.436102 192.957591 
L 379.260824 195.993397 
L 381.085546 198.122677 
L 382.910268 194.201428 
L 384.73499 195.951233 
L 386.559712 191.239409 
L 388.384434 191.155081 
L 390.209156 189.078505 
L 392.033878 185.389158 
L 393.8586 183.955583 
L 395.683322 180.10812 
L 397.508044 173.510777 
L 399.332767 167.46947 
L 401.157489 164.944902 
L 402.982211 160.902432 
L 404.806933 155.821673 
L 406.631655 146.935616 
L 408.456377 146.788042 
L 410.281099 140.421283 
L 412.105821 134.729147 
L 413.930543 131.566849 
L 415.755265 126.5915 
L 417.579987 122.459431 
L 419.404709 118.032214 
L 421.229431 118.917658 
L 424.878875 111.285979 
L 426.703597 102.853185 
L 428.528319 91.131601 
L 430.353041 83.204774 
L 432.177763 74.434668 
L 434.002485 72.32647 
L 435.827207 72.410798 
L 437.651929 83.37343 
L 439.476651 95.600982 
L 441.301373 101.630429 
L 443.126095 110.653519 
L 444.950818 114.616933 
L 446.77554 123.51353 
L 448.600262 131.208455 
L 450.424984 128.952683 
L 452.249706 131.060881 
L 454.074428 131.292783 
L 455.89915 130.280848 
L 457.723872 127.308288 
L 459.548594 127.392616 
L 461.373316 122.628087 
L 463.198038 122.585923 
L 465.02276 117.56841 
L 466.847482 116.219163 
L 468.672204 117.947886 
L 470.496926 113.689325 
L 472.321648 106.31063 
L 474.14637 107.36473 
L 475.971092 101.546102 
L 477.795814 97.034557 
L 479.620536 94.125243 
L 481.445258 88.89691 
L 483.26998 87.210351 
L 485.094702 84.469693 
L 486.919424 80.50628 
L 488.744147 83.204774 
L 490.568869 77.386146 
L 492.393591 78.482409 
L 494.218313 82.867462 
L 496.043035 83.79507 
L 497.867757 89.149894 
L 499.692479 91.637568 
L 501.517201 93.028979 
L 503.341923 92.691668 
L 505.166645 99.480067 
L 506.991367 104.877055 
L 508.816089 112.382242 
L 510.640811 120.730708 
L 512.465533 133.970195 
L 514.290255 136.774099 
L 516.114977 141.327808 
L 517.939699 141.728366 
L 519.764421 149.296799 
L 521.589143 152.216654 
L 523.413865 166.747412 
L 525.238587 166.146576 
L 527.063309 167.748806 
L 528.888031 165.066124 
L 530.712753 158.667741 
L 532.537475 154.461885 
L 534.362198 148.495683 
L 536.18692 143.140859 
L 538.011642 139.578003 
L 539.836364 135.698918 
L 539.836364 135.698918 
" clip-path="url(#pf25cb6e3f7)" style="fill: none; stroke: #9467bd; stroke-width: 1.5; stroke-linecap: square"/>
   </g>
   <g id="line2d_6">
    <path d="M 32.563636 177.204077 
L 34.388358 171.935886 
L 36.21308 163.658901 
L 38.037802 173.33685 
L 39.862525 155.031099 
L 41.687247 155.505443 
L 43.511969 181.320335 
L 45.336691 156.865231 
L 47.161413 153.249671 
L 48.986135 151.468243 
L 50.810857 156.949559 
L 52.635579 175.968146 
L 54.460301 177.752209 
L 56.285023 178.600759 
L 58.109745 177.372733 
L 59.934467 178.774685 
L 61.759189 176.052474 
L 63.583911 182.669582 
L 65.408633 181.320335 
L 67.233355 182.711746 
L 69.058077 187.423569 
L 70.882799 183.101762 
L 72.707521 185.852962 
L 74.532243 179.280653 
L 76.356965 180.218801 
L 78.181687 182.174155 
L 80.006409 178.732521 
L 81.831131 183.101762 
L 83.655853 185.30483 
L 85.480576 186.833274 
L 87.305298 187.086258 
L 89.13002 185.72647 
L 90.954742 189.384194 
L 92.779464 183.987206 
L 94.604186 180.218801 
L 96.428908 177.926135 
L 98.25363 177.625717 
L 100.078352 174.779649 
L 101.903074 172.572628 
L 103.727796 167.477376 
L 105.552518 171.638597 
L 107.37724 172.954739 
L 109.201962 165.060853 
L 111.026684 159.405611 
L 112.851406 167.561704 
L 114.676128 174.184083 
L 116.50085 173.040385 
L 118.325572 175.841654 
L 120.150294 177.541389 
L 121.975016 167.690831 
L 123.799738 174.481866 
L 125.62446 177.072315 
L 127.449182 187.086258 
L 129.273905 195.424183 
L 131.098627 204.468355 
L 132.923349 202.802878 
L 134.748071 210.919442 
L 136.572793 214.756364 
L 138.397515 216.274267 
L 140.222237 218.972761 
L 142.046959 216.864562 
L 143.871681 221.080959 
L 145.696403 220.912303 
L 147.521125 213.55469 
L 149.345847 218.129481 
L 151.170569 215.135839 
L 154.820013 215.093675 
L 156.644735 210.582131 
L 158.469457 211.42541 
L 160.294179 210.919442 
L 162.118901 211.762722 
L 163.943623 213.133051 
L 165.768345 215.093675 
L 167.593067 218.424629 
L 169.417789 213.512526 
L 171.242511 201.242811 
L 173.067233 207.483079 
L 174.891956 206.850619 
L 176.716678 206.450061 
L 178.5414 202.339074 
L 180.366122 204.721339 
L 182.190844 198.396743 
L 185.840288 198.354579 
L 187.66501 196.815594 
L 189.489732 189.637178 
L 191.314454 187.297078 
L 193.139176 191.123458 
L 194.963898 185.473486 
L 196.78862 179.322817 
L 198.613342 179.749727 
L 200.438064 171.893393 
L 202.262786 176.518912 
L 204.087508 173.082549 
L 205.91223 178.732521 
L 207.736952 182.933107 
L 209.561674 185.51565 
L 211.386396 163.105499 
L 213.211118 168.283762 
L 215.03584 165.867239 
L 216.860562 173.762443 
L 218.685284 177.499225 
L 220.510007 171.086678 
L 222.334729 175.119596 
L 224.159451 173.294686 
L 225.984173 163.532409 
L 227.808895 157.497691 
L 229.633617 156.780904 
L 231.458339 144.932828 
L 233.283061 146.640468 
L 235.107783 164.676107 
L 236.932505 146.935616 
L 238.757227 153.123179 
L 240.581949 158.435839 
L 242.406671 158.435839 
L 244.231393 129.753798 
L 246.056115 113.352013 
L 247.880837 107.406893 
L 249.705559 116.472147 
L 251.530281 128.762945 
L 253.355003 131.482521 
L 255.179725 158.857479 
L 257.004447 118.875494 
L 260.653891 47.449727 
L 262.478613 45.67884 
L 264.303336 55.882521 
L 266.128058 85.861104 
L 267.95278 90.709961 
L 269.777502 110.948667 
L 271.602224 120.056085 
L 273.426946 88.601762 
L 275.251668 45.847496 
L 277.07639 62.628756 
L 278.901112 54.448946 
L 280.725834 91.131601 
L 282.550556 96.359933 
L 284.375278 123.471366 
L 286.2 120.477724 
L 288.024722 87.800647 
L 289.849444 66.17053 
L 291.674166 72.32647 
L 293.498888 98.805443 
L 295.32361 120.688544 
L 297.148332 134.792393 
L 298.973054 166.331043 
L 300.797776 120.182577 
L 302.622498 79.663001 
L 304.44722 56.219833 
L 306.271942 60.857869 
L 308.096664 83.204774 
L 309.921387 107.280402 
L 311.746109 126.760156 
L 313.570831 140.189381 
L 315.395553 141.327808 
L 317.220275 139.514757 
L 319.044997 147.905388 
L 320.869719 145.712861 
L 322.694441 140.948332 
L 324.519163 148.432437 
L 326.343885 130.259766 
L 328.168607 144.595516 
L 329.993329 150.962276 
L 331.818051 162.088293 
L 333.642773 158.003659 
L 335.467495 151.215259 
L 337.292217 164.043648 
L 339.116939 155.547607 
L 340.941661 153.976999 
L 342.766383 152.617211 
L 344.591105 166.415371 
L 346.415827 198.101595 
L 348.240549 196.646938 
L 350.065271 188.403882 
L 351.889993 200.863335 
L 353.714716 197.932939 
L 355.539438 188.361718 
L 357.36416 186.79111 
L 359.188882 194.264674 
L 361.013604 196.899922 
L 362.838326 204.805666 
L 364.663048 205.69111 
L 366.48777 204.552683 
L 368.312492 208.832326 
L 370.137214 210.835114 
L 371.961936 204.341863 
L 373.786658 196.520446 
L 375.61138 203.013698 
L 377.436102 203.920223 
L 379.260824 203.920223 
L 381.085546 204.84783 
L 382.910268 202.71855 
L 384.73499 199.703826 
L 386.559712 198.776219 
L 388.384434 199.155694 
L 390.209156 193.885198 
L 392.033878 192.52541 
L 393.8586 189.510686 
L 395.683322 185.220502 
L 397.508044 180.387457 
L 399.332767 172.998221 
L 401.157489 171.086678 
L 402.982211 164.296631 
L 404.806933 164.296631 
L 406.631655 153.460491 
L 408.456377 150.751456 
L 410.281099 145.755025 
L 412.105821 141.960268 
L 413.930543 138.523904 
L 415.755265 133.232326 
L 417.579987 129.058093 
L 419.404709 124.14599 
L 421.229431 124.398974 
L 423.054153 119.465789 
L 424.878875 115.671032 
L 428.528319 99.775215 
L 430.353041 86.282744 
L 432.177763 83.120446 
L 434.002485 78.398081 
L 435.827207 80.674936 
L 443.126095 116.893787 
L 444.950818 122.164283 
L 446.77554 131.482521 
L 448.600262 139.894233 
L 450.424984 141.960268 
L 452.249706 140.568857 
L 454.074428 140.82184 
L 455.89915 139.21961 
L 457.723872 134.244261 
L 459.548594 133.27449 
L 461.373316 128.931601 
L 463.198038 130.09111 
L 466.847482 127.476944 
L 468.672204 121.573988 
L 470.496926 120.266905 
L 472.321648 115.54454 
L 474.14637 110.147552 
L 475.971092 105.846827 
L 477.795814 103.738628 
L 481.445258 94.84203 
L 483.26998 92.986815 
L 485.094702 90.035337 
L 486.919424 86.071924 
L 488.744147 86.409236 
L 490.568869 85.987596 
L 492.393591 87.379007 
L 494.218313 91.300257 
L 496.043035 94.546882 
L 497.867757 98.425968 
L 499.692479 101.250954 
L 501.517201 103.485644 
L 503.341923 104.033776 
L 505.166645 107.36473 
L 506.991367 110.02106 
L 508.816089 121.27884 
L 510.640811 128.805109 
L 512.465533 139.599085 
L 514.290255 141.4543 
L 516.114977 148.221617 
L 517.939699 150.487931 
L 519.764421 156.390887 
L 521.589143 164.760435 
L 523.413865 170.237798 
L 525.238587 171.596104 
L 527.063309 177.372733 
L 528.888031 170.364949 
L 530.712753 167.901651 
L 532.537475 158.130151 
L 534.362198 155.927083 
L 536.18692 145.459877 
L 538.011642 146.682632 
L 539.836364 142.698137 
L 539.836364 142.698137 
" clip-path="url(#pf25cb6e3f7)" style="fill: none; stroke: #8c564b; stroke-width: 1.5; stroke-linecap: square"/>
   </g>
   <g id="line2d_7">
    <path d="M 32.563636 180.21353 
L 34.388358 172.837471 
L 36.21308 164.375689 
L 38.037802 164.059459 
L 39.862525 157.402822 
L 41.687247 152.828031 
L 43.511969 178.859013 
L 45.336691 155.726804 
L 47.161413 154.272147 
L 48.986135 161.297719 
L 50.810857 163.743229 
L 52.635579 180.171366 
L 54.460301 179.175243 
L 56.285023 182.068745 
L 58.109745 190.259096 
L 59.934467 184.46155 
L 61.759189 184.914813 
L 63.583911 190.30126 
L 65.408633 187.360323 
L 67.233355 184.187485 
L 69.058077 184.503714 
L 70.882799 175.688809 
L 72.707521 171.072349 
L 74.532243 160.844456 
L 76.356965 161.160686 
L 78.181687 162.836704 
L 80.006409 158.351511 
L 81.831131 158.889102 
L 83.655853 163.200368 
L 85.480576 161.750982 
L 87.305298 163.200368 
L 89.13002 161.250284 
L 90.954742 166.818564 
L 92.779464 161.339883 
L 94.604186 159.711299 
L 96.428908 154.504049 
L 98.25363 154.09295 
L 100.078352 149.887094 
L 103.727796 155.273542 
L 105.552518 155.726804 
L 107.37724 165.730206 
L 109.201962 159.943201 
L 111.026684 162.336007 
L 112.851406 169.17184 
L 114.676128 177.815455 
L 116.50085 181.662917 
L 118.325572 187.360323 
L 120.150294 190.343424 
L 121.975016 187.402487 
L 123.799738 189.310407 
L 125.62446 189.352571 
L 127.449182 196.520446 
L 129.273905 204.700257 
L 131.098627 206.660881 
L 132.923349 208.832326 
L 134.748071 209.865343 
L 136.572793 216.569414 
L 138.397515 216.73807 
L 140.222237 215.641807 
L 142.046959 214.92502 
L 145.696403 207.9258 
L 147.521125 202.254746 
L 149.345847 201.537959 
L 151.170569 197.637791 
L 152.995291 199.95681 
L 154.820013 201.221729 
L 156.644735 200.715761 
L 158.469457 200.441695 
L 160.294179 205.206224 
L 162.118901 207.145767 
L 163.943623 210.055081 
L 165.768345 209.991835 
L 167.593067 207.651735 
L 169.417789 208.832326 
L 171.242511 200.27304 
L 173.067233 200.230876 
L 174.891956 205.016486 
L 176.716678 207.736062 
L 178.5414 207.419833 
L 180.366122 206.513307 
L 182.190844 200.357368 
L 185.840288 193.063001 
L 187.66501 186.548667 
L 189.489732 182.205778 
L 191.314454 181.662917 
L 193.139176 189.173374 
L 194.963898 181.209654 
L 196.78862 179.264841 
L 198.613342 172.973186 
L 200.438064 175.145948 
L 202.262786 169.353673 
L 204.087508 168.855611 
L 205.91223 167.227027 
L 207.736952 172.610839 
L 209.561674 167.451023 
L 211.386396 160.575661 
L 213.211118 162.109375 
L 215.03584 157.539855 
L 216.860562 162.878868 
L 218.685284 164.375689 
L 220.510007 166.4101 
L 222.334729 168.945209 
L 224.159451 188.351177 
L 225.984173 162.878868 
L 227.808895 160.981489 
L 229.633617 159.521562 
L 231.458339 156.63333 
L 233.283061 157.624183 
L 235.107783 166.13867 
L 236.932505 164.012025 
L 238.757227 168.26795 
L 240.581949 166.320502 
L 242.406671 178.131684 
L 244.231393 157.086592 
L 246.056115 155.231378 
L 247.880837 145.375549 
L 249.705559 153.818885 
L 251.530281 156.717658 
L 253.355003 162.067211 
L 255.179725 185.916207 
L 257.004447 160.707423 
L 258.829169 131.651177 
L 260.653891 99.269247 
L 262.478613 95.47449 
L 264.303336 99.227083 
L 266.128058 127.476944 
L 267.95278 149.212471 
L 269.777502 177.905053 
L 271.602224 180.171366 
L 273.426946 154.050786 
L 275.251668 143.056531 
L 277.07639 137.807117 
L 278.901112 143.688991 
L 280.725834 174.421255 
L 282.550556 176.503101 
L 284.375278 195.782577 
L 286.2 191.977278 
L 288.024722 164.512722 
L 289.849444 153.597524 
L 291.674166 166.365301 
L 293.498888 185.599978 
L 295.32361 221.629091 
L 297.148332 246.547998 
L 298.973054 290.3142 
L 300.797776 231.832772 
L 302.622498 193.063001 
L 304.44722 159.300201 
L 306.271942 155.589771 
L 308.096664 174.513489 
L 309.921387 200.230876 
L 311.746109 218.635449 
L 313.570831 235.838349 
L 315.395553 247.011801 
L 317.220275 242.458093 
L 320.869719 231.579788 
L 322.694441 235.711857 
L 324.519163 253.083413 
L 326.343885 259.703157 
L 328.168607 270.159822 
L 329.993329 278.170976 
L 331.818051 281.544094 
L 333.642773 277.074713 
L 335.467495 270.581461 
L 337.292217 276.315761 
L 339.116939 272.352348 
L 340.941661 253.715873 
L 342.766383 249.794624 
L 344.591105 261.136732 
L 346.415827 277.917992 
L 348.240549 270.750117 
L 350.065271 268.304607 
L 351.889993 271.171757 
L 353.714716 243.59652 
L 355.539438 249.75246 
L 357.36416 219.81604 
L 359.188882 209.591277 
L 361.013604 198.417825 
L 362.838326 196.056642 
L 364.663048 188.351177 
L 366.48777 189.668801 
L 370.137214 210.139409 
L 371.961936 210.940524 
L 373.786658 207.103603 
L 375.61138 205.606782 
L 377.436102 204.384027 
L 379.260824 200.27304 
L 381.085546 191.429147 
L 382.910268 186.727864 
L 384.73499 178.990775 
L 386.559712 170.03159 
L 388.384434 162.789269 
L 390.209156 158.709905 
L 392.033878 148.580011 
L 393.8586 144.785254 
L 395.683322 135.635672 
L 397.508044 128.531043 
L 399.332767 116.935951 
L 401.157489 112.550898 
L 402.982211 114.490441 
L 404.806933 104.118104 
L 406.631655 95.432326 
L 408.456377 93.872259 
L 410.281099 85.987596 
L 412.105821 80.92792 
L 413.930543 78.145098 
L 415.755265 74.434668 
L 417.579987 72.748109 
L 419.404709 71.230206 
L 421.229431 71.398862 
L 423.054153 65.917546 
L 424.878875 65.074267 
L 426.703597 59.424294 
L 428.528319 51.750452 
L 430.353041 40.281852 
L 432.177763 38.089325 
L 434.002485 38.173653 
L 435.827207 43.739297 
L 437.651929 57.653408 
L 439.476651 68.61604 
L 441.301373 82.277167 
L 443.126095 92.944651 
L 444.950818 94.757702 
L 446.77554 106.184138 
L 448.600262 111.454635 
L 450.424984 114.448277 
L 452.249706 106.816598 
L 454.074428 106.015482 
L 455.89915 105.593843 
L 457.723872 101.546102 
L 459.548594 99.395739 
L 461.373316 94.63121 
L 463.198038 93.956587 
L 465.02276 92.39652 
L 466.847482 90.583469 
L 468.672204 87.379007 
L 470.496926 86.156252 
L 472.321648 79.325689 
L 474.14637 78.819721 
L 475.971092 74.856308 
L 477.795814 71.314534 
L 479.620536 69.03768 
L 481.445258 66.423514 
L 483.26998 66.339186 
L 485.094702 63.050396 
L 486.919424 61.616821 
L 488.744147 68.110073 
L 490.568869 66.760825 
L 492.393591 72.663781 
L 494.218313 77.807786 
L 496.043035 85.102153 
L 497.867757 89.234222 
L 499.692479 95.980457 
L 501.517201 98.55246 
L 503.341923 100.829314 
L 505.166645 106.605778 
L 506.991367 113.436341 
L 510.640811 125.115761 
L 512.465533 137.912526 
L 514.290255 142.655973 
L 516.114977 142.424071 
L 517.939699 141.580792 
L 519.764421 146.450731 
L 521.589143 149.887094 
L 523.413865 157.086592 
L 525.238587 158.530708 
L 527.063309 159.026135 
L 528.888031 151.246882 
L 530.712753 142.887875 
L 532.537475 135.467016 
L 534.362198 125.916877 
L 536.18692 123.176219 
L 538.011642 122.206447 
L 539.836364 120.8572 
L 539.836364 120.8572 
" clip-path="url(#pf25cb6e3f7)" style="fill: none; stroke: #e377c2; stroke-width: 1.5; stroke-linecap: square"/>
   </g>
   <g id="line2d_8">
    <path d="M 32.563636 181.204384 
L 34.388358 176.063015 
L 36.21308 166.929244 
L 38.037802 180.687875 
L 39.862525 156.475215 
L 41.687247 149.823848 
L 43.511969 175.16176 
L 45.336691 150.941194 
L 47.161413 155.916542 
L 48.986135 155.958706 
L 50.810857 161.266096 
L 52.635579 190.775605 
L 54.460301 173.447531 
L 56.285023 180.687875 
L 58.109745 193.463558 
L 59.934467 192.31459 
L 61.759189 189.394735 
L 63.583911 193.864116 
L 65.408633 193.611132 
L 69.058077 189.268243 
L 70.882799 179.191054 
L 72.707521 177.003798 
L 74.532243 168.688272 
L 76.356965 168.260045 
L 78.181687 168.688272 
L 80.006409 161.266096 
L 81.831131 165.471952 
L 83.655853 164.096352 
L 85.480576 164.138516 
L 87.305298 160.449169 
L 89.13002 167.35879 
L 90.954742 169.845146 
L 94.604186 157.076051 
L 96.428908 155.231378 
L 98.25363 154.883525 
L 100.078352 149.908176 
L 101.903074 151.025521 
L 103.727796 150.509013 
L 105.552518 155.052181 
L 107.37724 166.072789 
L 109.201962 161.698277 
L 111.026684 162.852515 
L 112.851406 171.045831 
L 114.676128 177.947217 
L 116.50085 178.458455 
L 118.325572 180.687875 
L 120.150294 183.354746 
L 121.975016 182.063475 
L 125.62446 188.414423 
L 127.449182 196.183134 
L 129.273905 201.200647 
L 131.098627 203.287764 
L 132.923349 204.700257 
L 134.748071 209.169637 
L 136.572793 210.076163 
L 138.397515 213.617936 
L 140.222237 213.196297 
L 142.046959 213.702264 
L 143.871681 213.322789 
L 145.696403 211.362164 
L 147.521125 205.90193 
L 149.345847 201.411467 
L 151.170569 202.254746 
L 152.995291 202.697468 
L 154.820013 205.016486 
L 158.469457 203.983469 
L 160.294179 205.311634 
L 162.118901 209.675605 
L 165.768345 211.910296 
L 167.593067 212.774657 
L 169.417789 210.961606 
L 171.242511 202.001762 
L 173.067233 204.826748 
L 174.891956 206.766291 
L 176.716678 209.633441 
L 178.5414 210.582131 
L 180.366122 208.684752 
L 182.190844 199.767072 
L 184.015566 199.514088 
L 185.840288 197.890775 
L 187.66501 191.281573 
L 189.489732 186.569749 
L 191.314454 184.9886 
L 193.139176 190.51208 
L 194.963898 188.540915 
L 196.78862 188.161439 
L 198.613342 176.961634 
L 200.438064 173.961404 
L 202.262786 176.961634 
L 204.087508 172.63258 
L 205.91223 173.318404 
L 207.736952 176.318634 
L 209.561674 174.389632 
L 211.386396 161.909096 
L 213.211118 160.538767 
L 215.03584 161.181768 
L 218.685284 167.917462 
L 222.334729 173.57534 
L 224.159451 170.059919 
L 225.984173 161.440022 
L 227.808895 158.267183 
L 229.633617 160.538767 
L 231.458339 149.781684 
L 233.283061 152.870195 
L 235.107783 176.49256 
L 236.932505 165.514116 
L 238.757227 170.745742 
L 240.581949 171.646009 
L 242.406671 179.791891 
L 244.231393 159.732381 
L 247.880837 141.369972 
L 249.705559 152.353687 
L 251.530281 154.240524 
L 253.355003 170.360337 
L 255.179725 179.834055 
L 257.004447 152.438015 
L 258.829169 126.80232 
L 260.653891 95.390162 
L 262.478613 91.215929 
L 264.303336 97.329704 
L 266.128058 125.326581 
L 267.95278 138.207674 
L 269.777502 172.075225 
L 271.602224 176.447761 
L 273.426946 164.913279 
L 275.251668 134.813475 
L 277.07639 142.571645 
L 278.901112 131.482521 
L 280.725834 167.830499 
L 282.550556 175.504342 
L 284.375278 196.689102 
L 286.2 194.623067 
L 288.024722 160.069693 
L 289.849444 149.360045 
L 291.674166 163.453352 
L 293.498888 181.546966 
L 295.32361 217.623514 
L 297.148332 247.096129 
L 298.973054 285.001539 
L 300.797776 249.035672 
L 302.622498 197.679955 
L 304.44722 159.384529 
L 306.271942 151.626358 
L 308.096664 172.890176 
L 309.921387 197.110742 
L 311.746109 213.196297 
L 313.570831 232.465231 
L 315.395553 246.126358 
L 317.220275 238.283859 
L 319.044997 236.428645 
L 320.869719 237.22976 
L 322.694441 233.94097 
L 324.519163 247.138293 
L 326.343885 259.197189 
L 328.168607 275.97845 
L 329.993329 272.773988 
L 331.818051 275.13517 
L 333.642773 274.544875 
L 335.467495 270.159822 
L 337.292217 278.255304 
L 339.116939 275.894122 
L 340.941661 252.366626 
L 342.766383 249.33082 
L 344.591105 257.847942 
L 346.415827 290.061216 
L 348.240549 273.785923 
L 350.065271 268.304607 
L 351.889993 269.991166 
L 353.714716 253.041249 
L 355.539438 239.464451 
L 357.36416 219.984696 
L 359.188882 212.985477 
L 361.013604 203.899141 
L 362.838326 203.456419 
L 364.663048 193.737624 
L 366.48777 192.398918 
L 368.312492 202.254746 
L 370.137214 208.178784 
L 371.961936 215.683971 
L 373.786658 209.043146 
L 375.61138 209.422621 
L 379.260824 203.456419 
L 381.085546 199.21894 
L 382.910268 187.897914 
L 384.73499 182.585254 
L 386.559712 173.875759 
L 388.384434 167.187499 
L 390.209156 161.782605 
L 392.033878 153.34454 
L 393.8586 150.593341 
L 395.683322 143.225187 
L 397.508044 134.223179 
L 399.332767 120.688544 
L 401.157489 117.694902 
L 402.982211 115.080736 
L 404.806933 108.250173 
L 406.631655 99.269247 
L 408.456377 95.980457 
L 410.281099 89.571534 
L 412.105821 84.216709 
L 413.930543 81.096576 
L 415.755265 77.21749 
L 417.579987 77.133162 
L 419.404709 74.266012 
L 421.229431 74.266012 
L 423.054153 70.386927 
L 424.878875 65.074267 
L 426.703597 58.075047 
L 428.528319 48.798974 
L 430.353041 40.534835 
L 432.177763 37.752013 
L 434.002485 34.378896 
L 435.827207 43.149002 
L 437.651929 56.135505 
L 439.476651 68.1944 
L 443.126095 90.625633 
L 444.950818 95.600982 
L 446.77554 106.015482 
L 448.600262 108.840468 
L 450.424984 108.671813 
L 452.249706 108.208009 
L 454.074428 108.545321 
L 455.89915 103.106168 
L 457.723872 100.618494 
L 459.548594 99.775215 
L 461.373316 95.68531 
L 463.198038 95.305834 
L 465.02276 89.402878 
L 466.847482 90.161829 
L 468.672204 89.192058 
L 470.496926 83.879398 
L 472.321648 82.024183 
L 474.14637 77.133162 
L 475.971092 76.964506 
L 477.795814 74.518996 
L 481.445258 67.688433 
L 483.26998 66.507842 
L 485.094702 60.43623 
L 486.919424 59.59295 
L 488.744147 66.086202 
L 490.568869 65.580234 
L 492.393591 70.555583 
L 494.218313 72.832437 
L 497.867757 84.722677 
L 499.692479 90.372649 
L 501.517201 93.113307 
L 503.341923 96.823737 
L 505.166645 101.546102 
L 508.816089 117.315427 
L 510.640811 123.049727 
L 512.465533 136.837345 
L 514.290255 139.578003 
L 516.114977 143.731154 
L 517.939699 143.520335 
L 521.589143 152.016375 
L 523.413865 158.0142 
L 525.238587 159.384529 
L 527.063309 157.761216 
L 528.888031 154.546213 
L 530.712753 148.284863 
L 532.537475 138.16551 
L 534.362198 131.524685 
L 536.18692 126.043369 
L 538.011642 129.079175 
L 539.836364 126.043369 
L 539.836364 126.043369 
" clip-path="url(#pf25cb6e3f7)" style="fill: none; stroke: #7f7f7f; stroke-width: 1.5; stroke-linecap: square"/>
   </g>
  </g>
 </g>
 <defs>
  <clipPath id="pf25cb6e3f7">
   <rect x="7.2" y="7.2" width="558" height="332.64"/>
  </clipPath>
 </defs>
</svg>
