<?xml version="1.0" encoding="utf-8" standalone="no"?>
<!DOCTYPE svg PUBLIC "-//W3C//DTD SVG 1.1//EN"
  "http://www.w3.org/Graphics/SVG/1.1/DTD/svg11.dtd">
<svg xmlns:xlink="http://www.w3.org/1999/xlink" width="572.4pt" height="347.04pt" viewBox="0 0 572.4 347.04" xmlns="http://www.w3.org/2000/svg" version="1.1">
 <metadata>
  <rdf:RDF xmlns:dc="http://purl.org/dc/elements/1.1/" xmlns:cc="http://creativecommons.org/ns#" xmlns:rdf="http://www.w3.org/1999/02/22-rdf-syntax-ns#">
   <cc:Work>
    <dc:type rdf:resource="http://purl.org/dc/dcmitype/StillImage"/>
    <dc:date>2024-07-02T10:32:14.330043</dc:date>
    <dc:format>image/svg+xml</dc:format>
    <dc:creator>
     <cc:Agent>
      <dc:title>Matplotlib v3.9.0, https://matplotlib.org/</dc:title>
     </cc:Agent>
    </dc:creator>
   </cc:Work>
  </rdf:RDF>
 </metadata>
 <defs>
  <style type="text/css">*{stroke-linejoin: round; stroke-linecap: butt}</style>
 </defs>
 <g id="figure_1">
  <g id="patch_1">
   <path d="M 0 347.04 
L 572.4 347.04 
L 572.4 -0 
L 0 -0 
L 0 347.04 
z
" style="fill: none"/>
  </g>
  <g id="axes_1">
   <g id="patch_2">
    <path d="M 7.2 339.84 
L 565.2 339.84 
L 565.2 7.2 
L 7.2 7.2 
L 7.2 339.84 
z
" style="fill: none"/>
   </g>
   <g id="matplotlib.axis_1"/>
   <g id="matplotlib.axis_2"/>
   <g id="line2d_1">
    <path d="M 32.563636 163.660615 
L 34.388358 150.252029 
L 36.21308 147.812827 
L 38.037802 156.342412 
L 39.862525 166.363236 
L 41.687247 170.00144 
L 43.511969 167.968594 
L 45.336691 165.732672 
L 47.161413 165.845304 
L 48.986135 166.171826 
L 50.810857 164.421416 
L 52.635579 161.70117 
L 54.460301 160.737779 
L 58.109745 163.287877 
L 59.934467 162.446691 
L 61.759189 160.419538 
L 63.583911 160.176953 
L 65.408633 163.451717 
L 67.233355 168.562278 
L 69.058077 171.540961 
L 70.882799 169.580546 
L 74.532243 158.082207 
L 76.356965 156.546528 
L 78.181687 159.318448 
L 80.006409 163.301508 
L 81.831131 165.448404 
L 83.655853 165.558655 
L 85.480576 165.48025 
L 87.305298 166.017722 
L 89.13002 165.764862 
L 90.954742 163.529908 
L 92.779464 160.838268 
L 94.604186 160.473134 
L 98.25363 164.832824 
L 100.078352 164.884326 
L 101.903074 164.31069 
L 103.727796 165.242398 
L 105.552518 166.542387 
L 107.37724 164.862695 
L 109.201962 159.730828 
L 111.026684 155.495482 
L 112.851406 156.978691 
L 116.50085 171.57733 
L 118.325572 174.138023 
L 120.150294 170.380387 
L 121.975016 163.191058 
L 123.799738 157.03166 
L 125.62446 155.034078 
L 127.449182 157.432927 
L 129.273905 161.961403 
L 131.098627 165.925012 
L 132.923349 168.137543 
L 134.748071 168.782329 
L 136.572793 167.817651 
L 138.397515 164.654756 
L 140.222237 159.981985 
L 142.046959 156.908376 
L 143.871681 158.671542 
L 145.696403 164.784649 
L 147.521125 170.500913 
L 149.345847 171.058134 
L 151.170569 166.243678 
L 152.995291 160.182456 
L 154.820013 156.927608 
L 156.644735 157.178032 
L 158.469457 159.369376 
L 160.294179 162.57091 
L 163.943623 170.99222 
L 165.768345 172.078157 
L 167.593067 168.297704 
L 169.417789 161.929434 
L 171.242511 157.697862 
L 173.067233 157.964414 
L 174.891956 160.611036 
L 176.716678 162.226187 
L 178.5414 162.337385 
L 180.366122 163.269181 
L 182.190844 166.18865 
L 184.015566 168.837642 
L 185.840288 167.987181 
L 189.489732 159.042176 
L 191.314454 158.703715 
L 193.139176 163.138128 
L 194.963898 168.883211 
L 196.78862 171.064699 
L 198.613342 167.136218 
L 200.438064 159.059072 
L 202.262786 152.434485 
L 204.087508 152.71446 
L 205.91223 160.73543 
L 207.736952 171.271811 
L 209.561674 176.700905 
L 211.386396 173.26178 
L 213.211118 164.220198 
L 215.03584 156.759092 
L 216.860562 155.622463 
L 218.685284 159.713422 
L 220.510007 164.449131 
L 222.334729 166.621361 
L 224.159451 166.477771 
L 225.984173 165.589824 
L 227.808895 164.053577 
L 229.633617 160.855837 
L 231.458339 156.731694 
L 233.283061 155.324897 
L 235.107783 160.32456 
L 238.757227 181.243634 
L 240.581949 182.788487 
L 242.406671 172.196429 
L 244.231393 154.004786 
L 246.056115 138.292574 
L 247.880837 134.273023 
L 249.705559 144.966877 
L 253.355003 187.585545 
L 255.179725 199.195694 
L 257.004447 194.03196 
L 258.829169 173.345668 
L 260.653891 146.739881 
L 262.478613 127.754336 
L 264.303336 126.873093 
L 266.128058 145.556718 
L 267.95278 174.313214 
L 269.777502 196.800348 
L 271.602224 199.319767 
L 273.426946 180.270145 
L 275.251668 152.01708 
L 277.07639 132.730707 
L 278.901112 134.080073 
L 280.725834 153.901198 
L 282.550556 178.587364 
L 284.375278 192.677915 
L 286.2 188.547357 
L 288.024722 169.924807 
L 289.849444 148.208989 
L 291.674166 135.514801 
L 293.498888 138.760235 
L 295.32361 156.364669 
L 297.148332 178.211661 
L 298.973054 190.513977 
L 300.797776 185.042586 
L 302.622498 166.362453 
L 304.44722 149.158966 
L 306.271942 145.998737 
L 308.096664 156.53644 
L 309.921387 168.969416 
L 311.746109 172.028084 
L 313.570831 165.016676 
L 315.395553 156.599092 
L 317.220275 155.401377 
L 319.044997 162.539782 
L 320.869719 171.914081 
L 322.694441 175.969426 
L 324.519163 171.413417 
L 326.343885 161.330994 
L 328.168607 152.936177 
L 329.993329 152.350465 
L 331.818051 159.816883 
L 333.642773 169.20905 
L 335.467495 172.825907 
L 337.292217 167.914844 
L 339.116939 159.258949 
L 340.941661 155.030305 
L 342.766383 159.213341 
L 344.591105 167.787087 
L 346.415827 172.765502 
L 348.240549 170.102571 
L 350.065271 163.109674 
L 351.889993 158.125702 
L 353.714716 157.965016 
L 355.539438 160.429644 
L 357.36416 162.344338 
L 359.188882 163.320144 
L 361.013604 165.039011 
L 362.838326 167.986832 
L 364.663048 170.125489 
L 366.48777 168.794663 
L 368.312492 163.39422 
L 370.137214 156.406605 
L 371.961936 152.299046 
L 373.786658 154.791882 
L 375.61138 163.642435 
L 377.436102 173.56061 
L 379.260824 177.525996 
L 381.085546 172.630228 
L 382.910268 162.789411 
L 384.73499 155.112723 
L 386.559712 153.650383 
L 388.384434 157.101538 
L 390.209156 161.938555 
L 392.033878 166.078196 
L 393.8586 168.941456 
L 395.683322 169.5945 
L 397.508044 166.916797 
L 399.332767 161.816266 
L 401.157489 157.866107 
L 402.982211 158.567068 
L 404.806933 163.850729 
L 406.631655 169.683592 
L 408.456377 171.472697 
L 410.281099 168.005787 
L 412.105821 162.042114 
L 413.930543 157.236793 
L 415.755265 155.081722 
L 417.579987 155.15561 
L 419.404709 157.462878 
L 421.229431 162.910809 
L 423.054153 170.901268 
L 424.878875 177.626506 
L 426.703597 178.316463 
L 428.528319 171.59287 
L 430.353041 161.127893 
L 432.177763 152.785083 
L 434.002485 150.258251 
L 435.827207 153.211665 
L 439.476651 164.195761 
L 441.301373 168.069738 
L 443.126095 170.135205 
L 444.950818 170.447193 
L 446.77554 169.104993 
L 448.600262 166.494148 
L 450.424984 163.500844 
L 452.249706 161.241628 
L 454.074428 160.403304 
L 455.89915 160.758129 
L 457.723872 161.334133 
L 459.548594 161.230072 
L 461.373316 160.568783 
L 463.198038 160.732125 
L 465.02276 163.217921 
L 466.847482 167.710522 
L 468.672204 171.36621 
L 470.496926 170.782689 
L 472.321648 165.347703 
L 474.14637 158.56016 
L 475.971092 155.407021 
L 477.795814 157.947786 
L 479.620536 163.55147 
L 481.445258 167.740017 
L 483.26998 168.530135 
L 485.094702 167.386046 
L 486.919424 166.077084 
L 488.744147 163.988002 
L 490.568869 159.735312 
L 492.393591 154.846695 
L 494.218313 153.937895 
L 496.043035 160.068239 
L 497.867757 170.400441 
L 499.692479 177.566784 
L 501.517201 175.867266 
L 503.341923 166.233387 
L 505.166645 155.469398 
L 506.991367 150.973378 
L 508.816089 155.507016 
L 510.640811 165.453692 
L 512.465533 173.25655 
L 514.290255 172.67473 
L 516.114977 163.72415 
L 517.939699 153.281314 
L 519.764421 149.888197 
L 521.589143 156.674252 
L 523.413865 168.848438 
L 525.238587 178.068125 
L 527.063309 179.184233 
L 528.888031 172.992559 
L 532.537475 154.618366 
L 534.362198 148.524214 
L 536.18692 147.636334 
L 538.011642 153.49056 
L 539.836364 164.347434 
L 539.836364 164.347434 
" clip-path="url(#pb4a7cf01de)" style="fill: none; stroke: #1f77b4; stroke-width: 1.5; stroke-linecap: square"/>
   </g>
   <g id="line2d_2">
    <path d="M 32.563636 163.671425 
L 34.388358 164.336027 
L 36.21308 167.087803 
L 38.037802 170.743546 
L 39.862525 171.534578 
L 41.687247 167.228948 
L 43.511969 159.962541 
L 45.336691 154.520989 
L 47.161413 153.994959 
L 48.986135 157.573481 
L 52.635579 167.125374 
L 54.460301 171.376561 
L 56.285023 174.16342 
L 58.109745 172.531074 
L 59.934467 164.764199 
L 61.759189 154.33356 
L 63.583911 148.939774 
L 65.408633 153.80373 
L 67.233355 165.661165 
L 69.058077 174.712658 
L 70.882799 173.715691 
L 72.707521 164.993949 
L 74.532243 157.738116 
L 76.356965 158.500569 
L 78.181687 165.02732 
L 80.006409 169.386633 
L 81.831131 166.379952 
L 83.655853 158.588039 
L 85.480576 153.633831 
L 87.305298 156.788623 
L 89.13002 165.972691 
L 90.954742 173.732816 
L 92.779464 174.164182 
L 94.604186 167.934847 
L 96.428908 160.687805 
L 98.25363 157.229664 
L 100.078352 157.940163 
L 101.903074 160.276275 
L 103.727796 162.25052 
L 107.37724 165.363976 
L 109.201962 166.942693 
L 111.026684 167.564169 
L 112.851406 166.393421 
L 114.676128 163.580204 
L 116.50085 160.440752 
L 118.325572 158.768117 
L 120.150294 159.788097 
L 121.975016 163.407385 
L 123.799738 167.952879 
L 125.62446 170.605132 
L 127.449182 168.987262 
L 129.273905 163.371608 
L 131.098627 157.300001 
L 132.923349 155.042751 
L 134.748071 157.797284 
L 136.572793 162.733486 
L 138.397515 166.223567 
L 140.222237 167.5246 
L 142.046959 168.454005 
L 143.871681 169.794207 
L 145.696403 169.58827 
L 147.521125 165.852728 
L 149.345847 159.959541 
L 151.170569 155.852978 
L 152.995291 155.912923 
L 154.820013 158.710143 
L 156.644735 161.257456 
L 158.469457 162.655621 
L 160.294179 164.676938 
L 162.118901 168.837434 
L 163.943623 173.568365 
L 165.768345 174.860159 
L 167.593067 169.994713 
L 169.417789 160.687122 
L 171.242511 152.336421 
L 173.067233 149.858892 
L 174.891956 154.001132 
L 176.716678 161.439603 
L 178.5414 168.031297 
L 180.366122 171.706105 
L 182.190844 172.579309 
L 184.015566 171.182657 
L 185.840288 167.478156 
L 189.489732 156.593472 
L 191.314454 154.96945 
L 193.139176 158.437626 
L 194.963898 164.412906 
L 196.78862 167.912288 
L 198.613342 166.026366 
L 200.438064 160.929319 
L 202.262786 158.248778 
L 204.087508 162.023006 
L 205.91223 170.596873 
L 207.736952 177.192992 
L 209.561674 175.282748 
L 211.386396 164.526557 
L 213.211118 151.659395 
L 215.03584 145.041105 
L 216.860562 148.142874 
L 218.685284 158.172236 
L 220.510007 169.831064 
L 222.334729 178.895785 
L 224.159451 182.497331 
L 225.984173 178.513848 
L 227.808895 167.031607 
L 229.633617 152.280218 
L 231.458339 141.463339 
L 233.283061 140.644519 
L 235.107783 151.39172 
L 238.757227 189.422392 
L 240.581949 198.969259 
L 242.406671 190.309368 
L 244.231393 162.841771 
L 246.056115 128.148931 
L 247.880837 106.51762 
L 249.705559 115.27216 
L 251.530281 155.63081 
L 253.355003 207.931031 
L 255.179725 241.211327 
L 257.004447 233.073246 
L 258.829169 185.799099 
L 260.653891 125.421727 
L 262.478613 84.515002 
L 264.303336 83.23299 
L 266.128058 121.263591 
L 267.95278 180.41815 
L 269.777502 231.784254 
L 271.602224 246.934323 
L 273.426946 214.208147 
L 275.251668 151.0042 
L 277.07639 97.281536 
L 278.901112 89.162765 
L 280.725834 132.317133 
L 282.550556 197.478724 
L 284.375278 240.969225 
L 286.2 233.064215 
L 288.024722 175.389916 
L 289.849444 100.476065 
L 291.674166 55.621524 
L 293.498888 75.914491 
L 295.32361 157.615895 
L 297.148332 252.472324 
L 298.973054 296.950398 
L 300.797776 260.24763 
L 302.622498 169.600953 
L 304.44722 86.932805 
L 306.271942 58.29835 
L 308.096664 84.334185 
L 309.921387 134.375077 
L 311.746109 180.266875 
L 313.570831 212.28551 
L 315.395553 229.075916 
L 317.220275 225.052989 
L 319.044997 195.21438 
L 320.869719 149.088415 
L 322.694441 111.367091 
L 324.519163 103.581906 
L 326.343885 125.867068 
L 328.168607 158.991299 
L 329.993329 183.54422 
L 331.818051 194.421969 
L 333.642773 196.732342 
L 335.467495 192.623205 
L 337.292217 177.903657 
L 340.941661 127.461641 
L 342.766383 121.001667 
L 344.591105 139.225495 
L 346.415827 170.006786 
L 348.240549 192.53462 
L 350.065271 194.405087 
L 351.889993 179.582336 
L 353.714716 161.893337 
L 355.539438 152.709362 
L 357.36416 154.167477 
L 359.188882 161.035922 
L 361.013604 166.32817 
L 362.838326 165.607508 
L 364.663048 159.024496 
L 366.48777 151.460468 
L 368.312492 149.833897 
L 370.137214 157.786213 
L 371.961936 171.72686 
L 373.786658 182.718617 
L 375.61138 183.42918 
L 377.436102 173.924963 
L 379.260824 161.010472 
L 381.085546 152.237888 
L 382.910268 150.539063 
L 384.73499 153.862639 
L 386.559712 158.715957 
L 388.384434 163.22972 
L 390.209156 167.078173 
L 392.033878 169.606616 
L 393.8586 169.336367 
L 395.683322 165.864398 
L 397.508044 161.610975 
L 399.332767 160.379346 
L 401.157489 163.506441 
L 402.982211 167.990176 
L 404.806933 169.262162 
L 406.631655 165.829254 
L 408.456377 160.677523 
L 410.281099 158.032152 
L 412.105821 159.122276 
L 413.930543 161.334725 
L 415.755265 161.405726 
L 417.579987 159.266585 
L 419.404709 158.544018 
L 421.229431 162.955101 
L 423.054153 171.95575 
L 424.878875 180.012249 
L 426.703597 180.589171 
L 428.528319 171.507911 
L 430.353041 157.073201 
L 432.177763 145.287866 
L 434.002485 142.488576 
L 435.827207 149.408963 
L 437.651929 161.307289 
L 439.476651 171.742012 
L 441.301373 176.845464 
L 443.126095 176.708229 
L 444.950818 173.379051 
L 446.77554 168.316173 
L 450.424984 156.248749 
L 452.249706 153.238585 
L 454.074428 154.977855 
L 457.723872 165.630109 
L 459.548594 167.867849 
L 461.373316 167.161772 
L 463.198038 165.902218 
L 466.847482 165.412016 
L 468.672204 163.564195 
L 470.496926 160.508937 
L 472.321648 158.99464 
L 474.14637 161.182168 
L 475.971092 165.952305 
L 477.795814 169.582217 
L 479.620536 169.048336 
L 481.445258 164.541177 
L 483.26998 159.061723 
L 485.094702 155.990361 
L 486.919424 156.90371 
L 488.744147 161.014719 
L 490.568869 166.065652 
L 492.393591 169.755966 
L 494.218313 170.87572 
L 496.043035 169.614969 
L 497.867757 166.920038 
L 499.692479 163.477443 
L 503.341923 155.235659 
L 505.166645 152.833141 
L 506.991367 154.965312 
L 508.816089 162.656759 
L 510.640811 172.857923 
L 512.465533 179.339753 
L 514.290255 177.13611 
L 516.114977 166.940194 
L 517.939699 155.178234 
L 519.764421 149.303042 
L 521.589143 152.324492 
L 523.413865 161.104925 
L 525.238587 169.330903 
L 527.063309 172.244274 
L 528.888031 169.450742 
L 530.712753 164.228559 
L 532.537475 160.478706 
L 534.362198 159.902588 
L 538.011642 163.147656 
L 539.836364 164.098856 
L 539.836364 164.098856 
" clip-path="url(#pb4a7cf01de)" style="fill: none; stroke: #ff7f0e; stroke-width: 1.5; stroke-linecap: square"/>
   </g>
   <g id="line2d_3">
    <path d="M 32.563636 163.675415 
L 34.388358 158.701792 
L 36.21308 154.072788 
L 38.037802 154.268744 
L 39.862525 162.834532 
L 41.687247 174.527043 
L 43.511969 177.938808 
L 45.336691 168.274077 
L 47.161413 154.330564 
L 48.986135 149.568767 
L 50.810857 157.615563 
L 52.635579 169.493006 
L 54.460301 174.419292 
L 56.285023 170.129373 
L 58.109745 162.234436 
L 59.934467 156.850156 
L 61.759189 156.146907 
L 63.583911 159.251774 
L 65.408633 164.28892 
L 67.233355 168.919657 
L 69.058077 170.769255 
L 70.882799 168.886343 
L 72.707521 164.694299 
L 74.532243 160.885755 
L 76.356965 159.308358 
L 78.181687 159.942878 
L 80.006409 161.44758 
L 81.831131 162.351073 
L 85.480576 162.034541 
L 87.305298 163.492265 
L 89.13002 166.731336 
L 90.954742 169.684036 
L 92.779464 169.870398 
L 94.604186 166.850938 
L 96.428908 162.448454 
L 98.25363 158.897985 
L 100.078352 157.442789 
L 101.903074 158.3996 
L 103.727796 161.411579 
L 105.552518 165.136147 
L 107.37724 167.447878 
L 109.201962 166.922565 
L 111.026684 164.291493 
L 112.851406 162.014473 
L 114.676128 162.112749 
L 118.325572 166.554313 
L 120.150294 166.608243 
L 121.975016 164.440738 
L 123.799738 161.886342 
L 125.62446 160.730588 
L 127.449182 161.103011 
L 129.273905 161.963554 
L 132.923349 163.292335 
L 134.748071 163.906124 
L 138.397515 164.472813 
L 140.222237 165.446324 
L 142.046959 166.959573 
L 143.871681 167.187911 
L 145.696403 164.70444 
L 147.521125 161.00135 
L 149.345847 159.544879 
L 151.170569 161.662009 
L 152.995291 164.374037 
L 154.820013 163.571684 
L 156.644735 159.222503 
L 158.469457 156.279314 
L 160.294179 159.759027 
L 163.943623 178.130085 
L 165.768345 179.3617 
L 167.593067 170.583216 
L 169.417789 156.492779 
L 171.242511 145.691788 
L 173.067233 144.741775 
L 174.891956 153.643438 
L 176.716678 166.354942 
L 178.5414 175.864371 
L 180.366122 178.937837 
L 182.190844 176.30047 
L 184.015566 169.666149 
L 187.66501 151.866472 
L 189.489732 148.755566 
L 191.314454 154.348817 
L 193.139176 165.434577 
L 194.963898 173.677595 
L 196.78862 172.829103 
L 198.613342 164.648775 
L 200.438064 157.139254 
L 202.262786 156.919911 
L 204.087508 163.526216 
L 205.91223 170.824571 
L 207.736952 173.184904 
L 209.561674 169.795545 
L 213.211118 157.00453 
L 215.03584 151.776679 
L 216.860562 150.075521 
L 218.685284 155.2066 
L 222.334729 179.772931 
L 224.159451 183.265955 
L 225.984173 174.392015 
L 227.808895 159.574727 
L 229.633617 148.996053 
L 231.458339 147.621435 
L 233.283061 153.117221 
L 235.107783 161.294509 
L 238.757227 180.729874 
L 240.581949 186.444404 
L 242.406671 180.176057 
L 244.231393 159.449057 
L 246.056115 133.424222 
L 247.880837 119.213368 
L 249.705559 129.832927 
L 251.530281 163.506694 
L 253.355003 202.798354 
L 255.179725 224.669652 
L 257.004447 214.960884 
L 258.829169 177.463226 
L 260.653891 131.588527 
L 262.478613 101.165222 
L 264.303336 102.095863 
L 266.128058 134.621684 
L 267.95278 182.14079 
L 269.777502 217.978653 
L 271.602224 220.156072 
L 273.426946 187.126495 
L 275.251668 141.40162 
L 277.07639 114.656731 
L 278.901112 124.697192 
L 280.725834 163.420423 
L 282.550556 204.560401 
L 284.375278 222.008055 
L 286.2 203.651526 
L 288.024722 155.319075 
L 289.849444 99.075989 
L 291.674166 67.553352 
L 293.498888 89.067431 
L 295.32361 164.331279 
L 297.148332 253.582361 
L 298.973054 296.543084 
L 300.797776 258.941118 
L 302.622498 164.553249 
L 304.44722 77.720435 
L 306.271942 50.507758 
L 308.096664 85.723915 
L 309.921387 147.270425 
L 311.746109 197.983096 
L 313.570831 223.268916 
L 315.395553 225.367912 
L 317.220275 208.198957 
L 319.044997 175.090003 
L 320.869719 136.899572 
L 322.694441 112.516977 
L 324.519163 115.527573 
L 326.343885 141.27901 
L 328.168607 170.409238 
L 329.993329 186.298268 
L 331.818051 187.981772 
L 333.642773 185.466026 
L 335.467495 184.486592 
L 337.292217 179.442767 
L 339.116939 162.857355 
L 340.941661 139.026977 
L 342.766383 123.746385 
L 344.591105 129.204052 
L 346.415827 151.767382 
L 348.240549 176.290411 
L 350.065271 190.209632 
L 351.889993 191.329475 
L 353.714716 184.306725 
L 357.36416 163.974792 
L 359.188882 155.745967 
L 361.013604 150.008157 
L 362.838326 146.015848 
L 364.663048 143.998126 
L 366.48777 146.8366 
L 368.312492 157.212515 
L 370.137214 172.561678 
L 371.961936 184.785932 
L 373.786658 186.705403 
L 375.61138 178.592725 
L 377.436102 167.396917 
L 379.260824 159.66699 
L 381.085546 156.241509 
L 384.73499 151.701547 
L 386.559712 151.696773 
L 388.384434 156.90006 
L 390.209156 166.05078 
L 392.033878 173.69847 
L 393.8586 174.723729 
L 395.683322 168.904348 
L 397.508044 161.2714 
L 399.332767 157.964906 
L 401.157489 161.182703 
L 402.982211 167.595277 
L 404.806933 171.527289 
L 406.631655 169.833874 
L 410.281099 157.972055 
L 412.105821 154.599592 
L 413.930543 154.094387 
L 415.755265 155.496374 
L 417.579987 158.566038 
L 419.404709 163.762977 
L 421.229431 170.663171 
L 423.054153 177.036601 
L 424.878875 179.778155 
L 426.703597 176.777524 
L 428.528319 168.24602 
L 430.353041 156.940323 
L 432.177763 147.350969 
L 434.002485 143.845978 
L 435.827207 148.209697 
L 437.651929 158.206221 
L 439.476651 168.832274 
L 441.301373 175.647643 
L 443.126095 177.259516 
L 444.950818 174.900535 
L 446.77554 170.34671 
L 448.600262 164.892112 
L 450.424984 159.877507 
L 452.249706 156.828299 
L 454.074428 156.300377 
L 457.723872 158.266027 
L 459.548594 159.648354 
L 461.373316 162.693755 
L 463.198038 167.480443 
L 465.02276 171.726976 
L 466.847482 172.593652 
L 468.672204 169.376286 
L 470.496926 164.108032 
L 472.321648 159.705536 
L 474.14637 157.836461 
L 475.971092 158.366485 
L 477.795814 160.226267 
L 481.445258 164.624605 
L 483.26998 166.587582 
L 485.094702 167.88669 
L 486.919424 167.511827 
L 488.744147 164.701211 
L 490.568869 160.378155 
L 492.393591 157.435052 
L 494.218313 158.685203 
L 496.043035 164.019324 
L 497.867757 169.818528 
L 499.692479 171.620236 
L 501.517201 167.686713 
L 503.341923 160.402595 
L 505.166645 154.672263 
L 506.991367 154.724515 
L 508.816089 161.226329 
L 510.640811 170.321215 
L 512.465533 175.674548 
L 514.290255 172.833933 
L 516.114977 162.845161 
L 517.939699 152.018587 
L 519.764421 147.790947 
L 521.589143 153.671147 
L 523.413865 166.633915 
L 525.238587 178.670786 
L 527.063309 181.921417 
L 528.888031 174.292717 
L 530.712753 161.16491 
L 532.537475 151.156976 
L 534.362198 149.277886 
L 536.18692 153.798433 
L 538.011642 159.637446 
L 539.836364 164.107247 
L 539.836364 164.107247 
" clip-path="url(#pb4a7cf01de)" style="fill: none; stroke: #2ca02c; stroke-width: 1.5; stroke-linecap: square"/>
   </g>
   <g id="line2d_4">
    <path d="M 32.563636 163.673589 
L 34.388358 161.215707 
L 36.21308 159.4326 
L 38.037802 159.915738 
L 39.862525 163.532854 
L 41.687247 168.16513 
L 43.511969 169.622967 
L 45.336691 165.910638 
L 47.161413 160.037872 
L 48.986135 157.450183 
L 50.810857 160.509538 
L 52.635579 166.170287 
L 54.460301 169.200433 
L 56.285023 167.106628 
L 58.109745 161.892497 
L 59.934467 157.838792 
L 61.759189 157.962916 
L 63.583911 161.973709 
L 65.408633 166.883314 
L 67.233355 169.499368 
L 69.058077 168.687756 
L 72.707521 162.722086 
L 74.532243 161.226034 
L 76.356965 161.259656 
L 78.181687 161.822193 
L 80.006409 161.756261 
L 81.831131 160.754262 
L 83.655853 159.968726 
L 85.480576 161.334965 
L 87.305298 165.476784 
L 89.13002 170.164459 
L 90.954742 171.731753 
L 92.779464 168.646039 
L 94.604186 163.207839 
L 96.428908 159.169023 
L 98.25363 158.164479 
L 100.078352 159.201173 
L 101.903074 161.036613 
L 103.727796 163.534511 
L 105.552518 166.331059 
L 107.37724 167.618457 
L 109.201962 165.688867 
L 111.026684 161.519153 
L 112.851406 158.702718 
L 114.676128 160.204171 
L 116.50085 165.314069 
L 118.325572 170.04825 
L 120.150294 170.667375 
L 121.975016 166.942119 
L 123.799738 162.034551 
L 125.62446 159.189964 
L 127.449182 158.811652 
L 129.273905 159.103706 
L 131.098627 159.158577 
L 132.923349 160.280489 
L 134.748071 163.791 
L 136.572793 168.463885 
L 138.397515 171.279195 
L 140.222237 170.572958 
L 142.046959 167.428694 
L 143.871681 163.817147 
L 145.696403 160.537641 
L 147.521125 157.804197 
L 149.345847 156.847757 
L 151.170569 159.131786 
L 152.995291 163.668042 
L 154.820013 166.684228 
L 156.644735 165.404479 
L 158.469457 161.818268 
L 160.294179 161.257656 
L 162.118901 166.484117 
L 163.943623 173.71735 
L 165.768345 175.505384 
L 167.593067 168.06565 
L 169.417789 155.675839 
L 171.242511 147.33834 
L 173.067233 148.782164 
L 174.891956 157.820557 
L 176.716678 167.530015 
L 178.5414 173.164681 
L 180.366122 174.949329 
L 182.190844 174.551194 
L 184.015566 171.134411 
L 185.840288 163.002524 
L 187.66501 152.626169 
L 189.489732 147.264045 
L 191.314454 152.447695 
L 193.139176 165.23088 
L 194.963898 175.619785 
L 196.78862 175.550255 
L 200.438064 156.314184 
L 202.262786 154.006772 
L 204.087508 160.104201 
L 205.91223 168.833636 
L 207.736952 173.668753 
L 209.561674 172.205726 
L 211.386396 166.252563 
L 213.211118 158.907905 
L 215.03584 152.841186 
L 216.860562 150.77041 
L 218.685284 155.134763 
L 222.334729 175.920321 
L 224.159451 179.600985 
L 225.984173 173.4417 
L 227.808895 161.651366 
L 229.633617 151.976804 
L 231.458339 149.638313 
L 233.283061 154.693936 
L 236.932505 173.44928 
L 238.757227 179.665932 
L 240.581949 179.035523 
L 242.406671 169.832783 
L 246.056115 140.369528 
L 247.880837 134.830837 
L 249.705559 142.535187 
L 251.530281 162.528173 
L 253.355003 188.004409 
L 255.179725 207.321704 
L 257.004447 208.072346 
L 258.829169 184.769523 
L 260.653891 145.68144 
L 262.478613 111.657563 
L 264.303336 104.404632 
L 266.128058 130.841377 
L 267.95278 175.736713 
L 269.777502 210.464709 
L 271.602224 213.103023 
L 273.426946 184.488179 
L 275.251668 146.937362 
L 277.07639 126.855025 
L 278.901112 136.02028 
L 282.550556 196.023115 
L 284.375278 207.563826 
L 286.2 191.451711 
L 288.024722 151.825611 
L 289.849444 106.62843 
L 291.674166 83.549807 
L 293.498888 105.815396 
L 295.32361 171.494883 
L 297.148332 244.825128 
L 298.973054 276.215315 
L 300.797776 240.90127 
L 302.622498 161.370994 
L 304.44722 89.735171 
L 306.271942 66.235005 
L 308.096664 93.361165 
L 309.921387 144.94321 
L 311.746109 192.575431 
L 313.570831 221.056161 
L 315.395553 225.896377 
L 317.220275 207.238128 
L 320.869719 133.518006 
L 322.694441 113.008461 
L 324.519163 119.301038 
L 328.168607 171.706961 
L 329.993329 186.096846 
L 331.818051 187.522505 
L 333.642773 184.231879 
L 335.467495 181.573727 
L 337.292217 176.25827 
L 339.116939 162.647743 
L 340.941661 143.089783 
L 342.766383 129.183156 
L 344.591105 131.569541 
L 346.415827 149.600126 
L 348.240549 172.013488 
L 350.065271 186.84088 
L 351.889993 189.756091 
L 353.714716 184.148576 
L 357.36416 167.433549 
L 359.188882 159.559094 
L 361.013604 151.14774 
L 362.838326 143.277302 
L 364.663048 139.894617 
L 366.48777 145.19633 
L 368.312492 159.092249 
L 370.137214 175.428242 
L 371.961936 185.749334 
L 373.786658 185.520757 
L 375.61138 176.949785 
L 377.436102 166.261556 
L 379.260824 158.679156 
L 381.085546 155.554371 
L 382.910268 155.13963 
L 384.73499 155.330911 
L 386.559712 155.775813 
L 388.384434 157.769651 
L 390.209156 162.253697 
L 392.033878 167.882174 
L 393.8586 171.333656 
L 395.683322 170.144121 
L 397.508044 165.5076 
L 399.332767 161.75466 
L 401.157489 162.359682 
L 402.982211 166.446765 
L 404.806933 169.67333 
L 406.631655 168.568137 
L 408.456377 163.595818 
L 410.281099 158.024275 
L 412.105821 154.567425 
L 413.930543 153.736323 
L 415.755265 155.032277 
L 417.579987 158.575543 
L 419.404709 164.774683 
L 421.229431 172.614158 
L 423.054153 179.022486 
L 424.878875 180.469019 
L 426.703597 175.398758 
L 428.528319 165.356025 
L 430.353041 154.144304 
L 432.177763 146.056976 
L 434.002485 144.289778 
L 435.827207 149.717636 
L 439.476651 170.960251 
L 441.301373 177.57022 
L 443.126095 178.145798 
L 444.950818 174.094156 
L 448.600262 162.350453 
L 450.424984 157.943587 
L 452.249706 155.820302 
L 454.074428 156.300137 
L 457.723872 160.592554 
L 459.548594 162.153618 
L 461.373316 164.108584 
L 465.02276 170.815854 
L 466.847482 171.761072 
L 468.672204 168.652178 
L 470.496926 162.853946 
L 472.321648 157.624887 
L 474.14637 155.640675 
L 475.971092 157.507845 
L 479.620536 166.470166 
L 481.445258 169.033526 
L 483.26998 168.758294 
L 485.094702 166.507685 
L 486.919424 163.759267 
L 488.744147 161.281297 
L 490.568869 159.244455 
L 492.393591 158.360935 
L 494.218313 159.907313 
L 496.043035 164.018364 
L 497.867757 168.459655 
L 499.692479 170.000289 
L 501.517201 167.33973 
L 503.341923 162.478453 
L 505.166645 159.106543 
L 506.991367 159.699236 
L 508.816089 163.831068 
L 510.640811 168.533441 
L 512.465533 170.018083 
L 514.290255 165.997574 
L 516.114977 157.755075 
L 517.939699 150.365091 
L 519.764421 149.813709 
L 521.589143 158.365458 
L 523.413865 172.019142 
L 525.238587 182.811477 
L 527.063309 184.366656 
L 528.888031 175.992912 
L 530.712753 162.27647 
L 532.537475 149.519435 
L 534.362198 142.514798 
L 536.18692 143.359942 
L 538.011642 151.491435 
L 539.836364 163.979275 
L 539.836364 163.979275 
" clip-path="url(#pb4a7cf01de)" style="fill: none; stroke: #d62728; stroke-width: 1.5; stroke-linecap: square"/>
   </g>
   <g id="line2d_5">
    <path d="M 32.563636 163.507244 
L 34.388358 160.826758 
L 36.21308 159.474038 
L 38.037802 160.795095 
L 39.862525 165.100898 
L 41.687247 170.108667 
L 43.511969 171.435611 
L 45.336691 166.552301 
L 47.161413 158.611174 
L 48.986135 154.472768 
L 50.810857 157.657757 
L 52.635579 164.492811 
L 54.460301 168.501586 
L 56.285023 167.38054 
L 58.109745 164.042764 
L 59.934467 161.9049 
L 61.759189 161.557009 
L 63.583911 162.147945 
L 65.408633 163.670564 
L 67.233355 166.299108 
L 69.058077 168.518438 
L 70.882799 167.874997 
L 72.707521 163.960902 
L 74.532243 159.465228 
L 76.356965 157.535743 
L 78.181687 158.7203 
L 80.006409 161.19097 
L 83.655853 165.479654 
L 85.480576 167.59548 
L 87.305298 168.68444 
L 89.13002 167.47395 
L 90.954742 164.677205 
L 92.779464 162.642615 
L 96.428908 161.948336 
L 100.078352 157.653082 
L 101.903074 159.912469 
L 103.727796 166.843695 
L 105.552518 172.368784 
L 107.37724 169.886644 
L 109.201962 160.569056 
L 111.026684 153.488742 
L 112.851406 156.363469 
L 114.676128 167.222214 
L 116.50085 176.198651 
L 118.325572 175.107519 
L 120.150294 164.820568 
L 121.975016 153.886621 
L 123.799738 150.63729 
L 125.62446 156.367592 
L 127.449182 165.324679 
L 129.273905 170.596675 
L 131.098627 169.802356 
L 132.923349 165.630285 
L 134.748071 162.082633 
L 136.572793 161.075996 
L 138.397515 162.171295 
L 140.222237 164.099109 
L 142.046959 165.690438 
L 143.871681 165.99055 
L 145.696403 164.684219 
L 147.521125 162.673597 
L 149.345847 161.481638 
L 151.170569 161.622791 
L 152.995291 162.06317 
L 156.644735 161.462093 
L 158.469457 162.635988 
L 162.118901 168.601479 
L 163.943623 169.458146 
L 165.768345 167.333153 
L 169.417789 158.881686 
L 171.242511 156.807976 
L 173.067233 158.230161 
L 174.891956 162.544694 
L 176.716678 167.314153 
L 178.5414 169.719769 
L 180.366122 168.396237 
L 182.190844 164.260962 
L 184.015566 159.763532 
L 185.840288 157.332378 
L 187.66501 158.320774 
L 189.489732 162.771629 
L 191.314454 169.232027 
L 193.139176 174.413172 
L 194.963898 173.945392 
L 196.78862 165.343344 
L 198.613342 151.793671 
L 200.438064 142.71235 
L 202.262786 147.792964 
L 205.91223 187.612541 
L 207.736952 191.247035 
L 209.561674 172.958368 
L 211.386396 147.096407 
L 213.211118 134.976369 
L 215.03584 144.814639 
L 216.860562 165.579936 
L 218.685284 180.142401 
L 220.510007 181.392326 
L 222.334729 174.381963 
L 224.159451 166.451965 
L 225.984173 159.902829 
L 227.808895 154.029139 
L 229.633617 149.697131 
L 231.458339 149.129158 
L 233.283061 153.2266 
L 235.107783 161.939962 
L 236.932505 175.883559 
L 238.757227 193.223678 
L 240.581949 203.931967 
L 242.406671 192.386329 
L 244.231393 152.617031 
L 246.056115 102.773271 
L 247.880837 79.421941 
L 249.705559 109.624731 
L 253.355003 254.164125 
L 255.179725 272.399559 
L 257.004447 224.462846 
L 258.829169 142.615684 
L 260.653891 77.907641 
L 262.478613 63.333913 
L 264.303336 98.88709 
L 267.95278 223.109006 
L 269.777502 254.349645 
L 271.602224 237.19374 
L 273.426946 176.144813 
L 275.251668 105.295251 
L 277.07639 71.544889 
L 278.901112 100.66358 
L 280.725834 174.65813 
L 282.550556 242.458846 
L 284.375278 256.756883 
L 286.2 207.523745 
L 288.024722 127.063644 
L 289.849444 65.967442 
L 291.674166 60.854918 
L 293.498888 115.48657 
L 295.32361 201.287373 
L 297.148332 271.587501 
L 298.973054 284.385887 
L 300.797776 228.083682 
L 302.622498 134.761891 
L 304.44722 63.179118 
L 306.271942 56.514104 
L 308.096664 109.533941 
L 309.921387 177.013263 
L 311.746109 215.137937 
L 313.570831 214.446821 
L 315.395553 195.368685 
L 317.220275 179.245121 
L 319.044997 169.515354 
L 320.869719 158.62701 
L 322.694441 144.700141 
L 324.519163 135.583914 
L 326.343885 138.500816 
L 328.168607 151.336086 
L 329.993329 166.174552 
L 331.818051 178.011371 
L 333.642773 186.077909 
L 335.467495 187.881248 
L 337.292217 177.92677 
L 340.941661 135.285065 
L 342.766383 131.882903 
L 344.591105 150.610388 
L 346.415827 177.575265 
L 348.240549 192.980845 
L 350.065271 188.333298 
L 353.714716 153.48282 
L 355.539438 145.233509 
L 357.36416 146.752638 
L 359.188882 153.885274 
L 361.013604 161.970101 
L 362.838326 168.601184 
L 364.663048 173.618097 
L 366.48777 176.786983 
L 368.312492 176.031142 
L 370.137214 169.240087 
L 371.961936 158.222584 
L 373.786658 149.37417 
L 375.61138 148.760913 
L 377.436102 156.470562 
L 379.260824 166.536866 
L 381.085546 172.385354 
L 382.910268 171.918449 
L 386.559712 163.872858 
L 388.384434 162.317076 
L 392.033878 163.006788 
L 393.8586 161.965264 
L 395.683322 159.81323 
L 397.508044 158.5698 
L 399.332767 160.150203 
L 402.982211 168.349273 
L 404.806933 170.157151 
L 406.631655 169.577065 
L 408.456377 167.992481 
L 410.281099 165.965778 
L 412.105821 162.517597 
L 415.755265 151.401088 
L 417.579987 149.654033 
L 419.404709 154.702893 
L 421.229431 165.471034 
L 423.054153 177.09454 
L 424.878875 183.918427 
L 426.703597 182.510297 
L 428.528319 172.897191 
L 430.353041 158.553796 
L 432.177763 145.734515 
L 434.002485 141.124478 
L 435.827207 147.51846 
L 437.651929 160.789427 
L 439.476651 172.34101 
L 441.301373 176.058371 
L 443.126095 172.971444 
L 444.950818 168.663608 
L 446.77554 166.71006 
L 448.600262 165.81396 
L 450.424984 163.210818 
L 452.249706 159.171531 
L 454.074428 156.874025 
L 455.89915 158.359222 
L 457.723872 161.968031 
L 459.548594 164.284736 
L 461.373316 163.995655 
L 463.198038 163.044855 
L 465.02276 163.912753 
L 466.847482 166.441811 
L 468.672204 168.037673 
L 470.496926 166.858496 
L 472.321648 163.948731 
L 474.14637 161.802438 
L 475.971092 161.477227 
L 477.795814 161.94805 
L 481.445258 162.320048 
L 483.26998 163.604761 
L 485.094702 165.496621 
L 486.919424 165.962156 
L 488.744147 163.72933 
L 490.568869 160.366024 
L 492.393591 159.27859 
L 494.218313 162.321676 
L 496.043035 167.639909 
L 497.867757 171.102815 
L 499.692479 169.796111 
L 501.517201 164.164164 
L 503.341923 157.378049 
L 505.166645 153.336749 
L 506.991367 154.915358 
L 508.816089 162.430903 
L 510.640811 172.32325 
L 512.465533 177.951401 
L 514.290255 174.01615 
L 517.939699 149.840444 
L 519.764421 147.111252 
L 521.589143 155.687017 
L 523.413865 168.914284 
L 525.238587 177.526619 
L 527.063309 177.114643 
L 528.888031 170.090556 
L 530.712753 161.78329 
L 532.537475 155.906873 
L 534.362198 153.495783 
L 536.18692 154.416219 
L 538.011642 158.325604 
L 539.836364 164.178056 
L 539.836364 164.178056 
" clip-path="url(#pb4a7cf01de)" style="fill: none; stroke: #9467bd; stroke-width: 1.5; stroke-linecap: square"/>
   </g>
   <g id="line2d_6">
    <path d="M 32.563636 163.620815 
L 34.388358 163.130359 
L 36.21308 158.578724 
L 38.037802 155.25206 
L 39.862525 161.95354 
L 41.687247 176.522523 
L 43.511969 183.56227 
L 45.336691 171.263693 
L 47.161413 147.889139 
L 48.986135 135.701628 
L 50.810857 147.343178 
L 52.635579 172.087709 
L 54.460301 187.632343 
L 56.285023 182.805616 
L 58.109745 165.894019 
L 59.934467 152.637808 
L 61.759189 150.531744 
L 63.583911 155.816441 
L 65.408633 161.800803 
L 67.233355 165.922441 
L 69.058077 168.886495 
L 70.882799 170.574712 
L 72.707521 169.436599 
L 74.532243 165.231844 
L 76.356965 160.344632 
L 78.181687 157.710809 
L 80.006409 158.202194 
L 81.831131 160.534686 
L 83.655853 163.164204 
L 85.480576 165.46842 
L 87.305298 167.153425 
L 89.13002 167.520746 
L 90.954742 166.16297 
L 92.779464 164.00538 
L 94.604186 162.579727 
L 100.078352 161.21622 
L 101.903074 162.588976 
L 103.727796 166.364194 
L 105.552518 168.907673 
L 107.37724 165.414535 
L 109.201962 156.746675 
L 111.026684 151.034009 
L 112.851406 156.051985 
L 114.676128 170.09989 
L 116.50085 182.045049 
L 118.325572 181.279731 
L 120.150294 167.624107 
L 121.975016 151.513468 
L 123.799738 144.701511 
L 125.62446 150.551656 
L 127.449182 162.571707 
L 129.273905 171.417781 
L 131.098627 172.822706 
L 132.923349 169.242375 
L 134.748071 165.319029 
L 136.572793 163.215745 
L 138.397515 162.313206 
L 140.222237 161.730838 
L 142.046959 161.580233 
L 147.521125 162.934127 
L 149.345847 163.627825 
L 151.170569 165.346895 
L 152.995291 167.288603 
L 154.820013 167.152096 
L 156.644735 163.356165 
L 158.469457 157.603184 
L 160.294179 154.749347 
L 162.118901 158.832824 
L 163.943623 168.265435 
L 165.768345 175.638362 
L 167.593067 174.067268 
L 171.242511 155.202748 
L 173.067233 154.014475 
L 176.716678 166.118706 
L 178.5414 166.619172 
L 180.366122 163.391718 
L 182.190844 161.85704 
L 184.015566 164.049347 
L 185.840288 166.730883 
L 187.66501 166.228174 
L 189.489732 163.368966 
L 191.314454 162.337239 
L 193.139176 165.069402 
L 194.963898 168.13003 
L 196.78862 166.012667 
L 200.438064 149.695545 
L 202.262786 151.182232 
L 204.087508 164.746986 
L 205.91223 181.34216 
L 207.736952 186.659652 
L 209.561674 174.595641 
L 211.386396 154.144759 
L 213.211118 141.372139 
L 215.03584 144.562426 
L 218.685284 171.910876 
L 220.510007 178.643752 
L 222.334729 178.593158 
L 224.159451 173.262921 
L 225.984173 163.549869 
L 227.808895 152.33922 
L 229.633617 145.299296 
L 231.458339 146.551256 
L 233.283061 154.960206 
L 235.107783 166.749448 
L 238.757227 193.608624 
L 240.581949 199.517334 
L 242.406671 185.356892 
L 244.231393 147.14691 
L 246.056115 102.081707 
L 247.880837 83.051941 
L 249.705559 114.170693 
L 253.355003 257.278732 
L 255.179725 277.480592 
L 257.004447 229.448814 
L 258.829169 141.691755 
L 260.653891 67.947959 
L 262.478613 48.999083 
L 264.303336 89.60004 
L 266.128058 163.450179 
L 267.95278 232.62244 
L 269.777502 264.499986 
L 271.602224 243.515713 
L 273.426946 179.892078 
L 275.251668 108.826198 
L 277.07639 72.719465 
L 278.901112 94.271327 
L 282.550556 228.643783 
L 284.375278 254.726609 
L 286.2 219.23264 
L 288.024722 141.799527 
L 289.849444 70.645603 
L 291.674166 53.580296 
L 293.498888 107.20015 
L 295.32361 203.217822 
L 297.148332 282.52151 
L 298.973054 292.297203 
L 300.797776 223.934601 
L 302.622498 122.014639 
L 304.44722 52.606023 
L 306.271942 54.353559 
L 308.096664 113.526897 
L 309.921387 182.316217 
L 311.746109 219.885849 
L 313.570831 218.780808 
L 315.395553 198.589295 
L 317.220275 180.461591 
L 320.869719 157.776092 
L 322.694441 141.322723 
L 324.519163 127.399991 
L 326.343885 127.886832 
L 328.168607 145.862934 
L 329.993329 171.759544 
L 331.818051 192.085006 
L 333.642773 199.224589 
L 335.467495 192.37891 
L 337.292217 173.696348 
L 339.116939 148.675149 
L 340.941661 128.939918 
L 342.766383 127.582412 
L 344.591105 147.375719 
L 346.415827 175.623117 
L 348.240549 193.944286 
L 350.065271 193.098263 
L 351.889993 177.697712 
L 353.714716 159.115348 
L 355.539438 146.627916 
L 357.36416 143.800825 
L 359.188882 149.130882 
L 362.838326 167.249536 
L 364.663048 173.866318 
L 366.48777 177.367484 
L 368.312492 176.233612 
L 370.137214 169.156159 
L 371.961936 158.477928 
L 373.786658 150.673205 
L 375.61138 151.198243 
L 377.436102 158.980264 
L 379.260824 167.344755 
L 381.085546 170.532921 
L 382.910268 168.42452 
L 384.73499 164.94686 
L 386.559712 163.282704 
L 388.384434 163.537263 
L 390.209156 164.14071 
L 392.033878 163.912945 
L 393.8586 162.56816 
L 395.683322 160.521065 
L 397.508044 159.049795 
L 399.332767 159.889912 
L 401.157489 163.527222 
L 402.982211 167.972666 
L 404.806933 170.193281 
L 406.631655 169.083124 
L 408.456377 166.372752 
L 410.281099 164.210341 
L 412.105821 162.504191 
L 413.930543 159.53453 
L 415.755265 155.10555 
L 417.579987 152.145178 
L 419.404709 154.452232 
L 421.229431 162.845428 
L 423.054153 173.708271 
L 424.878875 181.214975 
L 426.703597 181.049573 
L 428.528319 172.844524 
L 430.353041 160.322115 
L 432.177763 149.523348 
L 434.002485 145.772596 
L 435.827207 150.496987 
L 437.651929 160.035599 
L 439.476651 168.146707 
L 441.301373 170.833121 
L 443.126095 169.169311 
L 444.950818 167.247638 
L 446.77554 167.52374 
L 448.600262 168.697865 
L 450.424984 168.022263 
L 452.249706 164.667054 
L 454.074428 160.24436 
L 455.89915 156.821364 
L 457.723872 155.486038 
L 459.548594 156.61079 
L 461.373316 160.218874 
L 463.198038 165.396692 
L 465.02276 169.946359 
L 466.847482 171.541516 
L 468.672204 169.499488 
L 472.321648 161.249308 
L 474.14637 159.183605 
L 475.971092 159.506012 
L 477.795814 161.566901 
L 479.620536 164.19185 
L 481.445258 166.137954 
L 483.26998 166.4884 
L 485.094702 165.063429 
L 486.919424 162.5914 
L 488.744147 160.336933 
L 490.568869 159.417387 
L 492.393591 160.400399 
L 494.218313 163.291113 
L 496.043035 167.387857 
L 497.867757 170.875 
L 499.692479 171.097996 
L 501.517201 166.414041 
L 503.341923 158.560836 
L 505.166645 152.740412 
L 506.991367 153.989942 
L 508.816089 162.427593 
L 510.640811 172.169041 
L 512.465533 175.758271 
L 514.290255 170.390136 
L 516.114977 160.149643 
L 517.939699 152.393464 
L 519.764421 151.976148 
L 521.589143 158.403141 
L 523.413865 167.391505 
L 525.238587 174.273083 
L 527.063309 176.228624 
L 528.888031 172.713945 
L 530.712753 165.133185 
L 532.537475 156.418704 
L 534.362198 150.228603 
L 536.18692 149.507273 
L 538.011642 154.947127 
L 539.836364 164.363406 
L 539.836364 164.363406 
" clip-path="url(#pb4a7cf01de)" style="fill: none; stroke: #8c564b; stroke-width: 1.5; stroke-linecap: square"/>
   </g>
   <g id="line2d_7">
    <path d="M 32.563636 163.624051 
L 36.21308 152.527149 
L 38.037802 151.996669 
L 39.862525 160.828351 
L 41.687247 174.446484 
L 43.511969 180.532749 
L 45.336691 171.9713 
L 47.161413 156.201832 
L 48.986135 148.24849 
L 50.810857 154.879282 
L 52.635579 168.301306 
L 54.460301 175.534382 
L 56.285023 171.394723 
L 58.109745 161.37544 
L 59.934467 154.248415 
L 61.759189 154.294363 
L 63.583911 159.965059 
L 65.408633 167.162202 
L 67.233355 172.181171 
L 69.058077 172.74694 
L 70.882799 168.645022 
L 72.707521 162.278464 
L 74.532243 157.545883 
L 76.356965 156.947823 
L 78.181687 159.666477 
L 80.006409 162.749505 
L 81.831131 163.998081 
L 85.480576 163.169445 
L 87.305298 164.261876 
L 89.13002 166.717498 
L 90.954742 168.929606 
L 92.779464 168.989307 
L 94.604186 166.060649 
L 96.428908 161.116055 
L 98.25363 156.750755 
L 100.078352 155.999511 
L 101.903074 160.209143 
L 103.727796 167.115813 
L 105.552518 171.43543 
L 107.37724 168.881069 
L 109.201962 160.640234 
L 111.026684 153.473614 
L 112.851406 154.242852 
L 114.676128 163.569027 
L 116.50085 174.702772 
L 118.325572 178.896181 
L 120.150294 172.674632 
L 121.975016 160.774734 
L 123.799738 152.131896 
L 125.62446 152.275742 
L 127.449182 158.972192 
L 129.273905 165.185469 
L 131.098627 166.212449 
L 132.923349 163.576165 
L 134.748071 162.110708 
L 136.572793 164.306957 
L 138.397515 168.280133 
L 140.222237 170.540689 
L 142.046959 169.407859 
L 143.871681 165.644432 
L 145.696403 161.088488 
L 147.521125 157.584682 
L 149.345847 156.584158 
L 151.170569 158.461585 
L 152.995291 161.823411 
L 154.820013 164.240501 
L 156.644735 164.452758 
L 158.469457 163.835981 
L 160.294179 165.144493 
L 163.943623 173.803484 
L 165.768345 173.599368 
L 167.593067 166.147199 
L 169.417789 154.503855 
L 171.242511 146.152577 
L 173.067233 147.22364 
L 174.891956 157.244272 
L 176.716678 169.675973 
L 178.5414 177.584565 
L 180.366122 178.393932 
L 182.190844 173.587412 
L 184.015566 165.714462 
L 185.840288 157.292024 
L 187.66501 151.711178 
L 189.489732 152.417772 
L 191.314454 159.528641 
L 193.139176 168.184052 
L 194.963898 171.988361 
L 196.78862 168.586763 
L 198.613342 161.554312 
L 200.438064 156.982883 
L 202.262786 158.468904 
L 205.91223 171.179891 
L 207.736952 173.433501 
L 209.561674 170.353573 
L 211.386396 163.794676 
L 213.211118 156.348431 
L 215.03584 150.318773 
L 216.860562 148.849258 
L 218.685284 155.5097 
L 222.334729 183.648584 
L 224.159451 185.6036 
L 225.984173 172.051493 
L 227.808895 152.404148 
L 229.633617 141.326233 
L 231.458339 145.441213 
L 233.283061 158.88581 
L 235.107783 171.4382 
L 236.932505 178.606953 
L 238.757227 182.272387 
L 240.581949 183.063706 
L 242.406671 175.807196 
L 244.231393 155.273732 
L 246.056115 126.608865 
L 247.880837 108.074212 
L 249.705559 119.900091 
L 251.530281 166.022079 
L 253.355003 224.253683 
L 255.179725 256.804592 
L 257.004447 236.857639 
L 258.829169 170.730761 
L 260.653891 96.299337 
L 262.478613 58.161664 
L 264.303336 78.777971 
L 266.128058 145.254529 
L 267.95278 217.999379 
L 269.777502 254.617423 
L 271.602224 235.57436 
L 275.251668 116.666231 
L 277.07639 94.048271 
L 278.901112 119.643779 
L 280.725834 174.206745 
L 282.550556 222.834427 
L 284.375278 235.408766 
L 286.2 201.037565 
L 289.849444 68.703135 
L 291.674166 49.446419 
L 293.498888 100.613985 
L 295.32361 203.851428 
L 297.148332 298.125323 
L 298.973054 317.749338 
L 300.797776 244.267641 
L 302.622498 125.18655 
L 304.44722 37.56414 
L 306.271942 28.49346 
L 308.096664 86.946715 
L 309.921387 166.078984 
L 311.746109 224.713039 
L 313.570831 247.658239 
L 315.395553 238.075888 
L 317.220275 204.451095 
L 319.044997 158.755033 
L 320.869719 119.046746 
L 322.694441 103.320975 
L 324.519163 116.660475 
L 326.343885 146.418801 
L 328.168607 172.919808 
L 329.993329 185.731562 
L 331.818051 189.025858 
L 333.642773 191.281276 
L 335.467495 191.973425 
L 337.292217 181.683788 
L 339.116939 156.359101 
L 340.941661 128.065276 
L 342.766383 116.912256 
L 344.591105 131.558293 
L 346.415827 160.617239 
L 348.240549 184.396178 
L 350.065271 192.494552 
L 351.889993 188.489007 
L 355.539438 173.060639 
L 357.36416 164.324494 
L 361.013604 143.303452 
L 362.838326 138.084077 
L 364.663048 142.108945 
L 366.48777 155.662788 
L 368.312492 173.162318 
L 370.137214 185.396939 
L 371.961936 186.030321 
L 373.786658 176.698716 
L 375.61138 165.11883 
L 377.436102 158.072587 
L 379.260824 156.604288 
L 381.085546 157.437459 
L 382.910268 157.600713 
L 384.73499 157.123392 
L 386.559712 158.105134 
L 388.384434 162.023206 
L 390.209156 167.763775 
L 392.033878 171.828916 
L 393.8586 170.874332 
L 395.683322 164.967293 
L 397.508044 158.467008 
L 399.332767 156.736681 
L 401.157489 161.227273 
L 402.982211 168.063721 
L 404.806933 171.844548 
L 406.631655 170.439238 
L 410.281099 160.917945 
L 412.105821 157.283266 
L 413.930543 154.943049 
L 415.755265 154.054424 
L 417.579987 155.468247 
L 419.404709 160.048141 
L 421.229431 167.65734 
L 423.054153 176.414447 
L 424.878875 182.565769 
L 426.703597 181.768886 
L 428.528319 172.040589 
L 430.353041 156.521981 
L 432.177763 143.031443 
L 434.002485 139.425528 
L 435.827207 147.755797 
L 437.651929 162.246868 
L 439.476651 173.600924 
L 441.301373 176.432146 
L 444.950818 169.421388 
L 446.77554 168.699455 
L 448.600262 168.169689 
L 450.424984 164.241685 
L 452.249706 157.877804 
L 454.074428 153.847597 
L 455.89915 155.07528 
L 457.723872 159.555488 
L 459.548594 163.313399 
L 461.373316 164.937198 
L 463.198038 166.012319 
L 465.02276 167.831265 
L 466.847482 169.249284 
L 468.672204 168.233415 
L 470.496926 164.657296 
L 472.321648 160.769868 
L 474.14637 159.052634 
L 475.971092 160.120381 
L 477.795814 162.6722 
L 479.620536 164.938369 
L 481.445258 165.911104 
L 483.26998 165.535274 
L 485.094702 164.233072 
L 488.744147 160.858276 
L 490.568869 160.197515 
L 492.393591 161.341979 
L 494.218313 164.247558 
L 496.043035 167.511437 
L 497.867757 169.153889 
L 499.692479 168.034989 
L 501.517201 164.499393 
L 503.341923 159.971685 
L 505.166645 156.498553 
L 506.991367 156.509426 
L 508.816089 161.579097 
L 510.640811 169.980791 
L 512.465533 175.89415 
L 514.290255 173.193052 
L 516.114977 161.616518 
L 517.939699 148.784865 
L 519.764421 144.710047 
L 521.589143 153.405281 
L 523.413865 169.501882 
L 525.238587 182.67266 
L 527.063309 185.300248 
L 528.888031 176.893825 
L 530.712753 162.884052 
L 532.537475 150.286614 
L 534.362198 143.976679 
L 536.18692 145.369757 
L 538.011642 153.060332 
L 539.836364 164.114732 
L 539.836364 164.114732 
" clip-path="url(#pb4a7cf01de)" style="fill: none; stroke: #e377c2; stroke-width: 1.5; stroke-linecap: square"/>
   </g>
   <g id="line2d_8">
    <path d="M 32.563636 163.696232 
L 34.388358 168.43363 
L 36.21308 169.212131 
L 38.037802 167.290226 
L 39.862525 166.871032 
L 41.687247 168.321663 
L 43.511969 166.758188 
L 45.336691 159.323785 
L 47.161413 151.402398 
L 48.986135 151.738281 
L 50.810857 161.618399 
L 52.635579 172.463717 
L 54.460301 175.204681 
L 56.285023 169.347951 
L 58.109745 161.454184 
L 59.934467 157.279829 
L 61.759189 157.759538 
L 63.583911 161.03148 
L 65.408633 165.171256 
L 67.233355 168.415504 
L 69.058077 168.909868 
L 70.882799 166.055791 
L 72.707521 161.867495 
L 74.532243 159.760963 
L 76.356965 161.323297 
L 78.181687 164.466972 
L 80.006409 165.286272 
L 81.831131 162.125489 
L 83.655853 157.80711 
L 85.480576 157.288826 
L 87.305298 162.536216 
L 89.13002 169.975867 
L 90.954742 173.801188 
L 92.779464 171.682589 
L 94.604186 166.267319 
L 96.428908 161.2617 
L 98.25363 157.874781 
L 100.078352 155.93829 
L 101.903074 156.475527 
L 103.727796 160.590817 
L 105.552518 166.207439 
L 107.37724 168.700794 
L 109.201962 166.132732 
L 111.026684 162.260448 
L 112.851406 162.497916 
L 114.676128 167.341315 
L 116.50085 171.398435 
L 118.325572 169.288429 
L 120.150294 161.617661 
L 121.975016 154.579947 
L 123.799738 153.931391 
L 125.62446 159.692787 
L 127.449182 166.643512 
L 129.273905 169.544701 
L 131.098627 167.516459 
L 132.923349 163.588333 
L 134.748071 161.002328 
L 136.572793 160.807415 
L 138.397515 162.53071 
L 142.046959 168.603316 
L 143.871681 169.496881 
L 145.696403 166.2639 
L 147.521125 160.121085 
L 149.345847 155.569798 
L 151.170569 156.471847 
L 152.995291 161.92269 
L 154.820013 166.805577 
L 156.644735 166.899724 
L 158.469457 163.25699 
L 160.294179 161.180316 
L 162.118901 164.641368 
L 163.943623 171.570761 
L 165.768345 174.914172 
L 167.593067 169.19674 
L 169.417789 156.743771 
L 171.242511 146.917658 
L 173.067233 147.94885 
L 174.891956 159.069617 
L 176.716678 171.354091 
L 178.5414 176.545228 
L 180.366122 174.122335 
L 182.190844 169.184605 
L 184.015566 165.054943 
L 185.840288 160.574813 
L 187.66501 154.893506 
L 189.489732 151.813409 
L 191.314454 156.305485 
L 193.139176 167.08447 
L 194.963898 175.520982 
L 196.78862 173.692491 
L 198.613342 162.866464 
L 200.438064 152.873072 
L 202.262786 152.992653 
L 204.087508 163.536625 
L 205.91223 175.695601 
L 207.736952 179.145137 
L 209.561674 170.584749 
L 211.386396 156.159805 
L 213.211118 146.111819 
L 215.03584 146.765591 
L 216.860562 156.844699 
L 218.685284 170.081838 
L 220.510007 180.005634 
L 222.334729 182.48384 
L 224.159451 176.06077 
L 225.984173 162.567314 
L 227.808895 147.970318 
L 229.633617 140.466942 
L 231.458339 144.957554 
L 233.283061 158.695433 
L 235.107783 173.802968 
L 236.932505 184.546325 
L 238.757227 190.173455 
L 240.581949 189.658275 
L 242.406671 177.289675 
L 244.231393 148.939998 
L 246.056115 113.981965 
L 247.880837 96.459941 
L 249.705559 117.997073 
L 251.530281 175.63262 
L 253.355003 237.025304 
L 255.179725 261.50057 
L 257.004447 230.737487 
L 260.653891 96.557241 
L 262.478613 67.288574 
L 264.303336 85.957936 
L 266.128058 140.377261 
L 267.95278 203.735286 
L 269.777502 244.819441 
L 271.602224 240.812381 
L 273.426946 192.064171 
L 275.251668 127.492089 
L 277.07639 89.465935 
L 278.901112 104.654558 
L 282.550556 225.619795 
L 284.375278 247.981851 
L 286.2 212.734822 
L 289.849444 65.530428 
L 291.674166 41.659808 
L 293.498888 89.615954 
L 297.148332 292.987652 
L 298.973054 324.72 
L 300.797776 260.83269 
L 302.622498 140.564048 
L 304.44722 42.193572 
L 306.271942 22.32 
L 308.096664 77.237351 
L 309.921387 158.714358 
L 311.746109 219.995031 
L 313.570831 244.079171 
L 315.395553 236.781011 
L 317.220275 207.677427 
L 320.869719 124.378165 
L 322.694441 104.985617 
L 324.519163 117.071144 
L 326.343885 148.48654 
L 328.168607 174.659427 
L 329.993329 182.34299 
L 331.818051 180.359557 
L 333.642773 184.08431 
L 335.467495 192.723184 
L 337.292217 188.713195 
L 339.116939 161.524533 
L 340.941661 126.160373 
L 342.766383 111.371626 
L 344.591105 130.019987 
L 346.415827 166.358743 
L 348.240549 193.440018 
L 350.065271 198.033365 
L 351.889993 186.425091 
L 353.714716 171.648153 
L 355.539438 161.318964 
L 357.36416 156.24956 
L 359.188882 154.285184 
L 361.013604 152.82249 
L 362.838326 150.630381 
L 364.663048 149.849895 
L 366.48777 154.723306 
L 370.137214 177.977754 
L 371.961936 182.141171 
L 373.786658 176.282816 
L 375.61138 166.303397 
L 377.436102 159.898242 
L 379.260824 159.246016 
L 381.085546 160.644234 
L 382.910268 159.995324 
L 384.73499 157.187751 
L 386.559712 155.476308 
L 388.384434 157.868284 
L 392.033878 170.936847 
L 393.8586 173.23959 
L 395.683322 169.142149 
L 397.508044 161.800042 
L 399.332767 157.353805 
L 401.157489 159.398664 
L 402.982211 165.663266 
L 404.806933 170.553943 
L 406.631655 170.522486 
L 408.456377 166.367827 
L 410.281099 161.008618 
L 412.105821 156.503067 
L 413.930543 153.629894 
L 415.755265 153.161364 
L 417.579987 156.162795 
L 419.404709 162.782304 
L 421.229431 171.283063 
L 423.054153 178.557011 
L 424.878875 181.466866 
L 426.703597 177.967826 
L 428.528319 168.056386 
L 430.353041 154.756509 
L 432.177763 143.958326 
L 434.002485 141.595982 
L 435.827207 149.281784 
L 437.651929 162.405156 
L 439.476651 173.35384 
L 441.301373 177.32302 
L 443.126095 175.173115 
L 444.950818 170.964928 
L 446.77554 167.477987 
L 448.600262 164.521523 
L 452.249706 157.200653 
L 454.074428 155.297882 
L 455.89915 156.71498 
L 459.548594 164.522832 
L 461.373316 166.521987 
L 463.198038 166.907271 
L 465.02276 167.130818 
L 466.847482 167.514643 
L 468.672204 166.629884 
L 470.496926 163.396911 
L 472.321648 159.351472 
L 474.14637 157.913505 
L 475.971092 160.955863 
L 477.795814 166.374908 
L 479.620536 169.59547 
L 481.445258 167.802181 
L 483.26998 162.669661 
L 485.094702 158.700757 
L 486.919424 158.791916 
L 488.744147 161.696997 
L 490.568869 164.037133 
L 492.393591 164.315643 
L 494.218313 164.166487 
L 496.043035 165.631184 
L 497.867757 168.108271 
L 499.692479 168.719998 
L 501.517201 165.512924 
L 503.341923 159.821891 
L 505.166645 155.51952 
L 506.991367 156.129073 
L 508.816089 162.126832 
L 510.640811 170.089411 
L 512.465533 174.426758 
L 514.290255 171.233795 
L 517.939699 152.208061 
L 519.764421 149.334526 
L 521.589143 155.425685 
L 523.413865 166.912153 
L 525.238587 177.222247 
L 527.063309 180.916305 
L 528.888031 176.235397 
L 530.712753 165.454873 
L 532.537475 153.604604 
L 534.362198 146.060553 
L 536.18692 145.967619 
L 538.011642 153.026613 
L 539.836364 164.198448 
L 539.836364 164.198448 
" clip-path="url(#pb4a7cf01de)" style="fill: none; stroke: #7f7f7f; stroke-width: 1.5; stroke-linecap: square"/>
   </g>
  </g>
 </g>
 <defs>
  <clipPath id="pb4a7cf01de">
   <rect x="7.2" y="7.2" width="558" height="332.64"/>
  </clipPath>
 </defs>
</svg>
