<?xml version="1.0" encoding="utf-8" standalone="no"?>
<!DOCTYPE svg PUBLIC "-//W3C//DTD SVG 1.1//EN"
  "http://www.w3.org/Graphics/SVG/1.1/DTD/svg11.dtd">
<svg xmlns:xlink="http://www.w3.org/1999/xlink" width="864pt" height="432pt" viewBox="0 0 864 432" xmlns="http://www.w3.org/2000/svg" version="1.1">
 <metadata>
  <rdf:RDF xmlns:dc="http://purl.org/dc/elements/1.1/" xmlns:cc="http://creativecommons.org/ns#" xmlns:rdf="http://www.w3.org/1999/02/22-rdf-syntax-ns#">
   <cc:Work>
    <dc:type rdf:resource="http://purl.org/dc/dcmitype/StillImage"/>
    <dc:date>2024-05-15T20:51:55.714918</dc:date>
    <dc:format>image/svg+xml</dc:format>
    <dc:creator>
     <cc:Agent>
      <dc:title>Matplotlib v3.8.2, https://matplotlib.org/</dc:title>
     </cc:Agent>
    </dc:creator>
   </cc:Work>
  </rdf:RDF>
 </metadata>
 <defs>
  <style type="text/css">*{stroke-linejoin: round; stroke-linecap: butt}</style>
 </defs>
 <g id="figure_1">
  <g id="patch_1">
   <path d="M 0 432 
L 864 432 
L 864 0 
L 0 0 
z
" style="fill: #ffffff"/>
  </g>
  <g id="axes_1">
   <g id="patch_2">
    <path d="M 108 184.896 
L 777.6 184.896 
L 777.6 51.84 
L 108 51.84 
z
" style="fill: #ffffff"/>
   </g>
   <g id="matplotlib.axis_1">
    <g id="xtick_1">
     <g id="line2d_1">
      <path d="M 138.436364 184.896 
L 138.436364 51.84 
" clip-path="url(#p9073fe5bf1)" style="fill: none; stroke: #cccccc; stroke-width: 0.8; stroke-linecap: round"/>
     </g>
     <g id="line2d_2"/>
     <g id="text_1">
      <!-- 0.0 -->
      <g style="fill: #262626" transform="translate(131.486364 195.553812) scale(0.1 -0.1)">
       <defs>
        <path id="ArialMT-30" d="M 266 2259 
Q 266 3072 433 3567 
Q 600 4063 929 4331 
Q 1259 4600 1759 4600 
Q 2128 4600 2406 4451 
Q 2684 4303 2865 4023 
Q 3047 3744 3150 3342 
Q 3253 2941 3253 2259 
Q 3253 1453 3087 958 
Q 2922 463 2592 192 
Q 2263 -78 1759 -78 
Q 1097 -78 719 397 
Q 266 969 266 2259 
z
M 844 2259 
Q 844 1131 1108 757 
Q 1372 384 1759 384 
Q 2147 384 2411 759 
Q 2675 1134 2675 2259 
Q 2675 3391 2411 3762 
Q 2147 4134 1753 4134 
Q 1366 4134 1134 3806 
Q 844 3388 844 2259 
z
" transform="scale(0.015625)"/>
        <path id="ArialMT-2e" d="M 581 0 
L 581 641 
L 1222 641 
L 1222 0 
L 581 0 
z
" transform="scale(0.015625)"/>
       </defs>
       <use xlink:href="#ArialMT-30"/>
       <use xlink:href="#ArialMT-2e" x="55.615234"/>
       <use xlink:href="#ArialMT-30" x="83.398438"/>
      </g>
     </g>
    </g>
    <g id="xtick_2">
     <g id="line2d_3">
      <path d="M 218.532057 184.896 
L 218.532057 51.84 
" clip-path="url(#p9073fe5bf1)" style="fill: none; stroke: #cccccc; stroke-width: 0.8; stroke-linecap: round"/>
     </g>
     <g id="line2d_4"/>
     <g id="text_2">
      <!-- 2.5 -->
      <g style="fill: #262626" transform="translate(211.582057 195.553812) scale(0.1 -0.1)">
       <defs>
        <path id="ArialMT-32" d="M 3222 541 
L 3222 0 
L 194 0 
Q 188 203 259 391 
Q 375 700 629 1000 
Q 884 1300 1366 1694 
Q 2113 2306 2375 2664 
Q 2638 3022 2638 3341 
Q 2638 3675 2398 3904 
Q 2159 4134 1775 4134 
Q 1369 4134 1125 3890 
Q 881 3647 878 3216 
L 300 3275 
Q 359 3922 746 4261 
Q 1134 4600 1788 4600 
Q 2447 4600 2831 4234 
Q 3216 3869 3216 3328 
Q 3216 3053 3103 2787 
Q 2991 2522 2730 2228 
Q 2469 1934 1863 1422 
Q 1356 997 1212 845 
Q 1069 694 975 541 
L 3222 541 
z
" transform="scale(0.015625)"/>
        <path id="ArialMT-35" d="M 266 1200 
L 856 1250 
Q 922 819 1161 601 
Q 1400 384 1738 384 
Q 2144 384 2425 690 
Q 2706 997 2706 1503 
Q 2706 1984 2436 2262 
Q 2166 2541 1728 2541 
Q 1456 2541 1237 2417 
Q 1019 2294 894 2097 
L 366 2166 
L 809 4519 
L 3088 4519 
L 3088 3981 
L 1259 3981 
L 1013 2750 
Q 1425 3038 1878 3038 
Q 2478 3038 2890 2622 
Q 3303 2206 3303 1553 
Q 3303 931 2941 478 
Q 2500 -78 1738 -78 
Q 1113 -78 717 272 
Q 322 622 266 1200 
z
" transform="scale(0.015625)"/>
       </defs>
       <use xlink:href="#ArialMT-32"/>
       <use xlink:href="#ArialMT-2e" x="55.615234"/>
       <use xlink:href="#ArialMT-35" x="83.398438"/>
      </g>
     </g>
    </g>
    <g id="xtick_3">
     <g id="line2d_5">
      <path d="M 298.627751 184.896 
L 298.627751 51.84 
" clip-path="url(#p9073fe5bf1)" style="fill: none; stroke: #cccccc; stroke-width: 0.8; stroke-linecap: round"/>
     </g>
     <g id="line2d_6"/>
     <g id="text_3">
      <!-- 5.0 -->
      <g style="fill: #262626" transform="translate(291.677751 195.553812) scale(0.1 -0.1)">
       <use xlink:href="#ArialMT-35"/>
       <use xlink:href="#ArialMT-2e" x="55.615234"/>
       <use xlink:href="#ArialMT-30" x="83.398438"/>
      </g>
     </g>
    </g>
    <g id="xtick_4">
     <g id="line2d_7">
      <path d="M 378.723445 184.896 
L 378.723445 51.84 
" clip-path="url(#p9073fe5bf1)" style="fill: none; stroke: #cccccc; stroke-width: 0.8; stroke-linecap: round"/>
     </g>
     <g id="line2d_8"/>
     <g id="text_4">
      <!-- 7.5 -->
      <g style="fill: #262626" transform="translate(371.773445 195.553812) scale(0.1 -0.1)">
       <defs>
        <path id="ArialMT-37" d="M 303 3981 
L 303 4522 
L 3269 4522 
L 3269 4084 
Q 2831 3619 2401 2847 
Q 1972 2075 1738 1259 
Q 1569 684 1522 0 
L 944 0 
Q 953 541 1156 1306 
Q 1359 2072 1739 2783 
Q 2119 3494 2547 3981 
L 303 3981 
z
" transform="scale(0.015625)"/>
       </defs>
       <use xlink:href="#ArialMT-37"/>
       <use xlink:href="#ArialMT-2e" x="55.615234"/>
       <use xlink:href="#ArialMT-35" x="83.398438"/>
      </g>
     </g>
    </g>
    <g id="xtick_5">
     <g id="line2d_9">
      <path d="M 458.819139 184.896 
L 458.819139 51.84 
" clip-path="url(#p9073fe5bf1)" style="fill: none; stroke: #cccccc; stroke-width: 0.8; stroke-linecap: round"/>
     </g>
     <g id="line2d_10"/>
     <g id="text_5">
      <!-- 10.0 -->
      <g style="fill: #262626" transform="translate(449.08867 195.553812) scale(0.1 -0.1)">
       <defs>
        <path id="ArialMT-31" d="M 2384 0 
L 1822 0 
L 1822 3584 
Q 1619 3391 1289 3197 
Q 959 3003 697 2906 
L 697 3450 
Q 1169 3672 1522 3987 
Q 1875 4303 2022 4600 
L 2384 4600 
L 2384 0 
z
" transform="scale(0.015625)"/>
       </defs>
       <use xlink:href="#ArialMT-31"/>
       <use xlink:href="#ArialMT-30" x="55.615234"/>
       <use xlink:href="#ArialMT-2e" x="111.230469"/>
       <use xlink:href="#ArialMT-30" x="139.013672"/>
      </g>
     </g>
    </g>
    <g id="xtick_6">
     <g id="line2d_11">
      <path d="M 538.914833 184.896 
L 538.914833 51.84 
" clip-path="url(#p9073fe5bf1)" style="fill: none; stroke: #cccccc; stroke-width: 0.8; stroke-linecap: round"/>
     </g>
     <g id="line2d_12"/>
     <g id="text_6">
      <!-- 12.5 -->
      <g style="fill: #262626" transform="translate(529.184364 195.553812) scale(0.1 -0.1)">
       <use xlink:href="#ArialMT-31"/>
       <use xlink:href="#ArialMT-32" x="55.615234"/>
       <use xlink:href="#ArialMT-2e" x="111.230469"/>
       <use xlink:href="#ArialMT-35" x="139.013672"/>
      </g>
     </g>
    </g>
    <g id="xtick_7">
     <g id="line2d_13">
      <path d="M 619.010526 184.896 
L 619.010526 51.84 
" clip-path="url(#p9073fe5bf1)" style="fill: none; stroke: #cccccc; stroke-width: 0.8; stroke-linecap: round"/>
     </g>
     <g id="line2d_14"/>
     <g id="text_7">
      <!-- 15.0 -->
      <g style="fill: #262626" transform="translate(609.280058 195.553812) scale(0.1 -0.1)">
       <use xlink:href="#ArialMT-31"/>
       <use xlink:href="#ArialMT-35" x="55.615234"/>
       <use xlink:href="#ArialMT-2e" x="111.230469"/>
       <use xlink:href="#ArialMT-30" x="139.013672"/>
      </g>
     </g>
    </g>
    <g id="xtick_8">
     <g id="line2d_15">
      <path d="M 699.10622 184.896 
L 699.10622 51.84 
" clip-path="url(#p9073fe5bf1)" style="fill: none; stroke: #cccccc; stroke-width: 0.8; stroke-linecap: round"/>
     </g>
     <g id="line2d_16"/>
     <g id="text_8">
      <!-- 17.5 -->
      <g style="fill: #262626" transform="translate(689.375751 195.553812) scale(0.1 -0.1)">
       <use xlink:href="#ArialMT-31"/>
       <use xlink:href="#ArialMT-37" x="55.615234"/>
       <use xlink:href="#ArialMT-2e" x="111.230469"/>
       <use xlink:href="#ArialMT-35" x="139.013672"/>
      </g>
     </g>
    </g>
    <g id="text_9">
     <!-- Epochs -->
     <g style="fill: #262626" transform="translate(426.123438 208.699125) scale(0.1 -0.1)">
      <defs>
       <path id="ArialMT-45" d="M 506 0 
L 506 4581 
L 3819 4581 
L 3819 4041 
L 1113 4041 
L 1113 2638 
L 3647 2638 
L 3647 2100 
L 1113 2100 
L 1113 541 
L 3925 541 
L 3925 0 
L 506 0 
z
" transform="scale(0.015625)"/>
       <path id="ArialMT-70" d="M 422 -1272 
L 422 3319 
L 934 3319 
L 934 2888 
Q 1116 3141 1344 3267 
Q 1572 3394 1897 3394 
Q 2322 3394 2647 3175 
Q 2972 2956 3137 2557 
Q 3303 2159 3303 1684 
Q 3303 1175 3120 767 
Q 2938 359 2589 142 
Q 2241 -75 1856 -75 
Q 1575 -75 1351 44 
Q 1128 163 984 344 
L 984 -1272 
L 422 -1272 
z
M 931 1641 
Q 931 1000 1190 694 
Q 1450 388 1819 388 
Q 2194 388 2461 705 
Q 2728 1022 2728 1688 
Q 2728 2322 2467 2637 
Q 2206 2953 1844 2953 
Q 1484 2953 1207 2617 
Q 931 2281 931 1641 
z
" transform="scale(0.015625)"/>
       <path id="ArialMT-6f" d="M 213 1659 
Q 213 2581 725 3025 
Q 1153 3394 1769 3394 
Q 2453 3394 2887 2945 
Q 3322 2497 3322 1706 
Q 3322 1066 3130 698 
Q 2938 331 2570 128 
Q 2203 -75 1769 -75 
Q 1072 -75 642 372 
Q 213 819 213 1659 
z
M 791 1659 
Q 791 1022 1069 705 
Q 1347 388 1769 388 
Q 2188 388 2466 706 
Q 2744 1025 2744 1678 
Q 2744 2294 2464 2611 
Q 2184 2928 1769 2928 
Q 1347 2928 1069 2612 
Q 791 2297 791 1659 
z
" transform="scale(0.015625)"/>
       <path id="ArialMT-63" d="M 2588 1216 
L 3141 1144 
Q 3050 572 2676 248 
Q 2303 -75 1759 -75 
Q 1078 -75 664 370 
Q 250 816 250 1647 
Q 250 2184 428 2587 
Q 606 2991 970 3192 
Q 1334 3394 1763 3394 
Q 2303 3394 2647 3120 
Q 2991 2847 3088 2344 
L 2541 2259 
Q 2463 2594 2264 2762 
Q 2066 2931 1784 2931 
Q 1359 2931 1093 2626 
Q 828 2322 828 1663 
Q 828 994 1084 691 
Q 1341 388 1753 388 
Q 2084 388 2306 591 
Q 2528 794 2588 1216 
z
" transform="scale(0.015625)"/>
       <path id="ArialMT-68" d="M 422 0 
L 422 4581 
L 984 4581 
L 984 2938 
Q 1378 3394 1978 3394 
Q 2347 3394 2619 3248 
Q 2891 3103 3008 2847 
Q 3125 2591 3125 2103 
L 3125 0 
L 2563 0 
L 2563 2103 
Q 2563 2525 2380 2717 
Q 2197 2909 1863 2909 
Q 1613 2909 1392 2779 
Q 1172 2650 1078 2428 
Q 984 2206 984 1816 
L 984 0 
L 422 0 
z
" transform="scale(0.015625)"/>
       <path id="ArialMT-73" d="M 197 991 
L 753 1078 
Q 800 744 1014 566 
Q 1228 388 1613 388 
Q 2000 388 2187 545 
Q 2375 703 2375 916 
Q 2375 1106 2209 1216 
Q 2094 1291 1634 1406 
Q 1016 1563 777 1677 
Q 538 1791 414 1992 
Q 291 2194 291 2438 
Q 291 2659 392 2848 
Q 494 3038 669 3163 
Q 800 3259 1026 3326 
Q 1253 3394 1513 3394 
Q 1903 3394 2198 3281 
Q 2494 3169 2634 2976 
Q 2775 2784 2828 2463 
L 2278 2388 
Q 2241 2644 2061 2787 
Q 1881 2931 1553 2931 
Q 1166 2931 1000 2803 
Q 834 2675 834 2503 
Q 834 2394 903 2306 
Q 972 2216 1119 2156 
Q 1203 2125 1616 2013 
Q 2213 1853 2448 1751 
Q 2684 1650 2818 1456 
Q 2953 1263 2953 975 
Q 2953 694 2789 445 
Q 2625 197 2315 61 
Q 2006 -75 1616 -75 
Q 969 -75 630 194 
Q 291 463 197 991 
z
" transform="scale(0.015625)"/>
      </defs>
      <use xlink:href="#ArialMT-45"/>
      <use xlink:href="#ArialMT-70" x="66.699219"/>
      <use xlink:href="#ArialMT-6f" x="122.314453"/>
      <use xlink:href="#ArialMT-63" x="177.929688"/>
      <use xlink:href="#ArialMT-68" x="227.929688"/>
      <use xlink:href="#ArialMT-73" x="283.544922"/>
     </g>
    </g>
   </g>
   <g id="matplotlib.axis_2">
    <g id="ytick_1">
     <g id="line2d_17">
      <path d="M 108 176.153684 
L 777.6 176.153684 
" clip-path="url(#p9073fe5bf1)" style="fill: none; stroke: #cccccc; stroke-width: 0.8; stroke-linecap: round"/>
     </g>
     <g id="line2d_18"/>
     <g id="text_10">
      <!-- 0.5 -->
      <g style="fill: #262626" transform="translate(90.6 179.73259) scale(0.1 -0.1)">
       <use xlink:href="#ArialMT-30"/>
       <use xlink:href="#ArialMT-2e" x="55.615234"/>
       <use xlink:href="#ArialMT-35" x="83.398438"/>
      </g>
     </g>
    </g>
    <g id="ytick_2">
     <g id="line2d_19">
      <path d="M 108 149.490485 
L 777.6 149.490485 
" clip-path="url(#p9073fe5bf1)" style="fill: none; stroke: #cccccc; stroke-width: 0.8; stroke-linecap: round"/>
     </g>
     <g id="line2d_20"/>
     <g id="text_11">
      <!-- 0.6 -->
      <g style="fill: #262626" transform="translate(90.6 153.069391) scale(0.1 -0.1)">
       <defs>
        <path id="ArialMT-36" d="M 3184 3459 
L 2625 3416 
Q 2550 3747 2413 3897 
Q 2184 4138 1850 4138 
Q 1581 4138 1378 3988 
Q 1113 3794 959 3422 
Q 806 3050 800 2363 
Q 1003 2672 1297 2822 
Q 1591 2972 1913 2972 
Q 2475 2972 2870 2558 
Q 3266 2144 3266 1488 
Q 3266 1056 3080 686 
Q 2894 316 2569 119 
Q 2244 -78 1831 -78 
Q 1128 -78 684 439 
Q 241 956 241 2144 
Q 241 3472 731 4075 
Q 1159 4600 1884 4600 
Q 2425 4600 2770 4297 
Q 3116 3994 3184 3459 
z
M 888 1484 
Q 888 1194 1011 928 
Q 1134 663 1356 523 
Q 1578 384 1822 384 
Q 2178 384 2434 671 
Q 2691 959 2691 1453 
Q 2691 1928 2437 2201 
Q 2184 2475 1800 2475 
Q 1419 2475 1153 2201 
Q 888 1928 888 1484 
z
" transform="scale(0.015625)"/>
       </defs>
       <use xlink:href="#ArialMT-30"/>
       <use xlink:href="#ArialMT-2e" x="55.615234"/>
       <use xlink:href="#ArialMT-36" x="83.398438"/>
      </g>
     </g>
    </g>
    <g id="ytick_3">
     <g id="line2d_21">
      <path d="M 108 122.827287 
L 777.6 122.827287 
" clip-path="url(#p9073fe5bf1)" style="fill: none; stroke: #cccccc; stroke-width: 0.8; stroke-linecap: round"/>
     </g>
     <g id="line2d_22"/>
     <g id="text_12">
      <!-- 0.7 -->
      <g style="fill: #262626" transform="translate(90.6 126.406193) scale(0.1 -0.1)">
       <use xlink:href="#ArialMT-30"/>
       <use xlink:href="#ArialMT-2e" x="55.615234"/>
       <use xlink:href="#ArialMT-37" x="83.398438"/>
      </g>
     </g>
    </g>
    <g id="ytick_4">
     <g id="line2d_23">
      <path d="M 108 96.164088 
L 777.6 96.164088 
" clip-path="url(#p9073fe5bf1)" style="fill: none; stroke: #cccccc; stroke-width: 0.8; stroke-linecap: round"/>
     </g>
     <g id="line2d_24"/>
     <g id="text_13">
      <!-- 0.8 -->
      <g style="fill: #262626" transform="translate(90.6 99.742994) scale(0.1 -0.1)">
       <defs>
        <path id="ArialMT-38" d="M 1131 2484 
Q 781 2613 612 2850 
Q 444 3088 444 3419 
Q 444 3919 803 4259 
Q 1163 4600 1759 4600 
Q 2359 4600 2725 4251 
Q 3091 3903 3091 3403 
Q 3091 3084 2923 2848 
Q 2756 2613 2416 2484 
Q 2838 2347 3058 2040 
Q 3278 1734 3278 1309 
Q 3278 722 2862 322 
Q 2447 -78 1769 -78 
Q 1091 -78 675 323 
Q 259 725 259 1325 
Q 259 1772 486 2073 
Q 713 2375 1131 2484 
z
M 1019 3438 
Q 1019 3113 1228 2906 
Q 1438 2700 1772 2700 
Q 2097 2700 2305 2904 
Q 2513 3109 2513 3406 
Q 2513 3716 2298 3927 
Q 2084 4138 1766 4138 
Q 1444 4138 1231 3931 
Q 1019 3725 1019 3438 
z
M 838 1322 
Q 838 1081 952 856 
Q 1066 631 1291 507 
Q 1516 384 1775 384 
Q 2178 384 2440 643 
Q 2703 903 2703 1303 
Q 2703 1709 2433 1975 
Q 2163 2241 1756 2241 
Q 1359 2241 1098 1978 
Q 838 1716 838 1322 
z
" transform="scale(0.015625)"/>
       </defs>
       <use xlink:href="#ArialMT-30"/>
       <use xlink:href="#ArialMT-2e" x="55.615234"/>
       <use xlink:href="#ArialMT-38" x="83.398438"/>
      </g>
     </g>
    </g>
    <g id="ytick_5">
     <g id="line2d_25">
      <path d="M 108 69.50089 
L 777.6 69.50089 
" clip-path="url(#p9073fe5bf1)" style="fill: none; stroke: #cccccc; stroke-width: 0.8; stroke-linecap: round"/>
     </g>
     <g id="line2d_26"/>
     <g id="text_14">
      <!-- 0.9 -->
      <g style="fill: #262626" transform="translate(90.6 73.079796) scale(0.1 -0.1)">
       <defs>
        <path id="ArialMT-39" d="M 350 1059 
L 891 1109 
Q 959 728 1153 556 
Q 1347 384 1650 384 
Q 1909 384 2104 503 
Q 2300 622 2425 820 
Q 2550 1019 2634 1356 
Q 2719 1694 2719 2044 
Q 2719 2081 2716 2156 
Q 2547 1888 2255 1720 
Q 1963 1553 1622 1553 
Q 1053 1553 659 1965 
Q 266 2378 266 3053 
Q 266 3750 677 4175 
Q 1088 4600 1706 4600 
Q 2153 4600 2523 4359 
Q 2894 4119 3086 3673 
Q 3278 3228 3278 2384 
Q 3278 1506 3087 986 
Q 2897 466 2520 194 
Q 2144 -78 1638 -78 
Q 1100 -78 759 220 
Q 419 519 350 1059 
z
M 2653 3081 
Q 2653 3566 2395 3850 
Q 2138 4134 1775 4134 
Q 1400 4134 1122 3828 
Q 844 3522 844 3034 
Q 844 2597 1108 2323 
Q 1372 2050 1759 2050 
Q 2150 2050 2401 2323 
Q 2653 2597 2653 3081 
z
" transform="scale(0.015625)"/>
       </defs>
       <use xlink:href="#ArialMT-30"/>
       <use xlink:href="#ArialMT-2e" x="55.615234"/>
       <use xlink:href="#ArialMT-39" x="83.398438"/>
      </g>
     </g>
    </g>
    <g id="text_15">
     <!-- Accuracy -->
     <g style="fill: #262626" transform="translate(84.495312 138.928937) rotate(-90) scale(0.1 -0.1)">
      <defs>
       <path id="ArialMT-41" d="M -9 0 
L 1750 4581 
L 2403 4581 
L 4278 0 
L 3588 0 
L 3053 1388 
L 1138 1388 
L 634 0 
L -9 0 
z
M 1313 1881 
L 2866 1881 
L 2388 3150 
Q 2169 3728 2063 4100 
Q 1975 3659 1816 3225 
L 1313 1881 
z
" transform="scale(0.015625)"/>
       <path id="ArialMT-75" d="M 2597 0 
L 2597 488 
Q 2209 -75 1544 -75 
Q 1250 -75 995 37 
Q 741 150 617 320 
Q 494 491 444 738 
Q 409 903 409 1263 
L 409 3319 
L 972 3319 
L 972 1478 
Q 972 1038 1006 884 
Q 1059 663 1231 536 
Q 1403 409 1656 409 
Q 1909 409 2131 539 
Q 2353 669 2445 892 
Q 2538 1116 2538 1541 
L 2538 3319 
L 3100 3319 
L 3100 0 
L 2597 0 
z
" transform="scale(0.015625)"/>
       <path id="ArialMT-72" d="M 416 0 
L 416 3319 
L 922 3319 
L 922 2816 
Q 1116 3169 1280 3281 
Q 1444 3394 1641 3394 
Q 1925 3394 2219 3213 
L 2025 2691 
Q 1819 2813 1613 2813 
Q 1428 2813 1281 2702 
Q 1134 2591 1072 2394 
Q 978 2094 978 1738 
L 978 0 
L 416 0 
z
" transform="scale(0.015625)"/>
       <path id="ArialMT-61" d="M 2588 409 
Q 2275 144 1986 34 
Q 1697 -75 1366 -75 
Q 819 -75 525 192 
Q 231 459 231 875 
Q 231 1119 342 1320 
Q 453 1522 633 1644 
Q 813 1766 1038 1828 
Q 1203 1872 1538 1913 
Q 2219 1994 2541 2106 
Q 2544 2222 2544 2253 
Q 2544 2597 2384 2738 
Q 2169 2928 1744 2928 
Q 1347 2928 1158 2789 
Q 969 2650 878 2297 
L 328 2372 
Q 403 2725 575 2942 
Q 747 3159 1072 3276 
Q 1397 3394 1825 3394 
Q 2250 3394 2515 3294 
Q 2781 3194 2906 3042 
Q 3031 2891 3081 2659 
Q 3109 2516 3109 2141 
L 3109 1391 
Q 3109 606 3145 398 
Q 3181 191 3288 0 
L 2700 0 
Q 2613 175 2588 409 
z
M 2541 1666 
Q 2234 1541 1622 1453 
Q 1275 1403 1131 1340 
Q 988 1278 909 1158 
Q 831 1038 831 891 
Q 831 666 1001 516 
Q 1172 366 1500 366 
Q 1825 366 2078 508 
Q 2331 650 2450 897 
Q 2541 1088 2541 1459 
L 2541 1666 
z
" transform="scale(0.015625)"/>
       <path id="ArialMT-79" d="M 397 -1278 
L 334 -750 
Q 519 -800 656 -800 
Q 844 -800 956 -737 
Q 1069 -675 1141 -563 
Q 1194 -478 1313 -144 
Q 1328 -97 1363 -6 
L 103 3319 
L 709 3319 
L 1400 1397 
Q 1534 1031 1641 628 
Q 1738 1016 1872 1384 
L 2581 3319 
L 3144 3319 
L 1881 -56 
Q 1678 -603 1566 -809 
Q 1416 -1088 1222 -1217 
Q 1028 -1347 759 -1347 
Q 597 -1347 397 -1278 
z
" transform="scale(0.015625)"/>
      </defs>
      <use xlink:href="#ArialMT-41"/>
      <use xlink:href="#ArialMT-63" x="66.699219"/>
      <use xlink:href="#ArialMT-63" x="116.699219"/>
      <use xlink:href="#ArialMT-75" x="166.699219"/>
      <use xlink:href="#ArialMT-72" x="222.314453"/>
      <use xlink:href="#ArialMT-61" x="255.615234"/>
      <use xlink:href="#ArialMT-63" x="311.230469"/>
      <use xlink:href="#ArialMT-79" x="361.230469"/>
     </g>
    </g>
   </g>
   <g id="line2d_27">
    <path d="M 138.436364 173.552422 
L 170.474641 173.738265 
L 202.512919 173.738265 
L 234.551196 173.738265 
L 266.589474 173.738265 
L 298.627751 173.738265 
L 330.666029 173.738265 
L 362.704306 173.738265 
L 394.742584 173.738265 
L 426.780861 173.738265 
L 458.819139 173.459368 
L 490.857416 172.437634 
L 522.895694 177.361527 
L 554.933971 178.848 
L 586.972249 175.317526 
L 619.010526 172.158737 
L 651.048804 172.716264 
L 683.087081 171.880106 
L 715.125359 175.224738 
L 747.163636 172.716264 
" clip-path="url(#p9073fe5bf1)" style="fill: none; stroke: #1f77b4; stroke-width: 1.5; stroke-linecap: round"/>
   </g>
   <g id="line2d_28">
    <path d="M 138.436364 169.65053 
L 170.474641 173.738265 
L 202.512919 173.552422 
L 234.551196 173.738265 
L 266.589474 173.738265 
L 298.627751 173.738265 
L 330.666029 173.738265 
L 362.704306 173.738265 
L 394.742584 173.738265 
L 426.780861 173.738265 
L 458.819139 173.738265 
L 490.857416 173.738265 
L 522.895694 173.64521 
L 554.933971 173.738265 
L 586.972249 173.738265 
L 619.010526 173.738265 
L 651.048804 172.902107 
L 683.087081 168.164056 
L 715.125359 173.738265 
L 747.163636 173.738265 
" clip-path="url(#p9073fe5bf1)" style="fill: none; stroke: #ff7f0e; stroke-width: 1.5; stroke-linecap: round"/>
   </g>
   <g id="line2d_29">
    <path d="M 138.436364 173.36658 
L 170.474641 173.738265 
L 202.512919 173.831053 
L 234.551196 173.738265 
L 266.589474 173.738265 
L 298.627751 173.738265 
L 330.666029 173.738265 
L 362.704306 173.738265 
L 394.742584 173.738265 
L 426.780861 173.738265 
L 458.819139 173.738265 
L 490.857416 173.738265 
L 522.895694 173.738265 
L 554.933971 173.738265 
L 586.972249 173.738265 
L 619.010526 173.738265 
L 651.048804 173.738265 
L 683.087081 173.552422 
L 715.125359 173.36658 
L 747.163636 174.295525 
" clip-path="url(#p9073fe5bf1)" style="fill: none; stroke: #2ca02c; stroke-width: 1.5; stroke-linecap: round"/>
   </g>
   <g id="line2d_30">
    <path d="M 138.436364 125.056863 
L 170.474641 142.337016 
L 202.512919 82.41441 
L 234.551196 63.740839 
L 266.589474 61.882947 
L 298.627751 62.254365 
L 330.666029 60.860947 
L 362.704306 60.210631 
L 394.742584 58.724158 
L 426.780861 59.746158 
L 458.819139 58.631103 
L 490.857416 59.188631 
L 522.895694 58.538315 
L 554.933971 59.188631 
L 586.972249 59.002788 
L 619.010526 59.188631 
L 651.048804 59.653104 
L 683.087081 59.281419 
L 715.125359 59.838946 
L 747.163636 59.467261 
" clip-path="url(#p9073fe5bf1)" style="fill: none; stroke: #d62728; stroke-width: 1.5; stroke-linecap: round"/>
   </g>
   <g id="line2d_31">
    <path d="M 138.436364 149.769116 
L 170.474641 77.769147 
L 202.512919 63.369154 
L 234.551196 62.811893 
L 266.589474 62.34742 
L 298.627751 59.838946 
L 330.666029 57.980788 
L 362.704306 59.653104 
L 394.742584 60.767892 
L 426.780861 57.888 
L 458.819139 59.002788 
L 490.857416 59.653104 
L 522.895694 58.073842 
L 554.933971 59.281419 
L 586.972249 58.259685 
L 619.010526 59.281419 
L 651.048804 58.631103 
L 683.087081 59.931734 
L 715.125359 58.073842 
L 747.163636 58.91 
" clip-path="url(#p9073fe5bf1)" style="fill: none; stroke: #9467bd; stroke-width: 1.5; stroke-linecap: round"/>
   </g>
   <g id="line2d_32">
    <path d="M 138.436364 81.113779 
L 170.474641 63.462208 
L 202.512919 61.32542 
L 234.551196 60.953735 
L 266.589474 59.746158 
L 298.627751 59.653104 
L 330.666029 58.16663 
L 362.704306 59.188631 
L 394.742584 59.746158 
L 426.780861 59.746158 
L 458.819139 58.631103 
L 490.857416 58.073842 
L 522.895694 58.538315 
L 554.933971 58.816946 
L 586.972249 59.002788 
L 619.010526 57.888 
L 651.048804 59.746158 
L 683.087081 58.073842 
L 715.125359 59.560316 
L 747.163636 59.560316 
" clip-path="url(#p9073fe5bf1)" style="fill: none; stroke: #8c564b; stroke-width: 1.5; stroke-linecap: round"/>
   </g>
   <g id="patch_3">
    <path d="M 108 184.896 
L 108 51.84 
" style="fill: none; stroke: #cccccc; stroke-linejoin: miter; stroke-linecap: square"/>
   </g>
   <g id="patch_4">
    <path d="M 777.6 184.896 
L 777.6 51.84 
" style="fill: none; stroke: #cccccc; stroke-linejoin: miter; stroke-linecap: square"/>
   </g>
   <g id="patch_5">
    <path d="M 108 184.896 
L 777.6 184.896 
" style="fill: none; stroke: #cccccc; stroke-linejoin: miter; stroke-linecap: square"/>
   </g>
   <g id="patch_6">
    <path d="M 108 51.84 
L 777.6 51.84 
" style="fill: none; stroke: #cccccc; stroke-linejoin: miter; stroke-linecap: square"/>
   </g>
   <g id="text_16">
    <!-- Train -->
    <g style="fill: #262626" transform="translate(429.35625 45.84) scale(0.12 -0.12)">
     <defs>
      <path id="ArialMT-54" d="M 1659 0 
L 1659 4041 
L 150 4041 
L 150 4581 
L 3781 4581 
L 3781 4041 
L 2266 4041 
L 2266 0 
L 1659 0 
z
" transform="scale(0.015625)"/>
      <path id="ArialMT-69" d="M 425 3934 
L 425 4581 
L 988 4581 
L 988 3934 
L 425 3934 
z
M 425 0 
L 425 3319 
L 988 3319 
L 988 0 
L 425 0 
z
" transform="scale(0.015625)"/>
      <path id="ArialMT-6e" d="M 422 0 
L 422 3319 
L 928 3319 
L 928 2847 
Q 1294 3394 1984 3394 
Q 2284 3394 2536 3286 
Q 2788 3178 2913 3003 
Q 3038 2828 3088 2588 
Q 3119 2431 3119 2041 
L 3119 0 
L 2556 0 
L 2556 2019 
Q 2556 2363 2490 2533 
Q 2425 2703 2258 2804 
Q 2091 2906 1866 2906 
Q 1506 2906 1245 2678 
Q 984 2450 984 1813 
L 984 0 
L 422 0 
z
" transform="scale(0.015625)"/>
     </defs>
     <use xlink:href="#ArialMT-54"/>
     <use xlink:href="#ArialMT-72" x="57.333984"/>
     <use xlink:href="#ArialMT-61" x="90.634766"/>
     <use xlink:href="#ArialMT-69" x="146.25"/>
     <use xlink:href="#ArialMT-6e" x="168.466797"/>
    </g>
   </g>
   <g id="legend_1">
    <g id="line2d_33">
     <path d="M 722.807813 82.089875 
L 732.807813 82.089875 
L 742.807813 82.089875 
" style="fill: none; stroke: #1f77b4; stroke-width: 1.5; stroke-linecap: round"/>
    </g>
    <g id="text_17">
     <!-- Y10 -->
     <g style="fill: #262626" transform="translate(750.807813 85.589875) scale(0.1 -0.1)">
      <defs>
       <path id="ArialMT-59" d="M 1784 0 
L 1784 1941 
L 19 4581 
L 756 4581 
L 1659 3200 
Q 1909 2813 2125 2425 
Q 2331 2784 2625 3234 
L 3513 4581 
L 4219 4581 
L 2391 1941 
L 2391 0 
L 1784 0 
z
" transform="scale(0.015625)"/>
      </defs>
      <use xlink:href="#ArialMT-59"/>
      <use xlink:href="#ArialMT-31" x="66.699219"/>
      <use xlink:href="#ArialMT-30" x="122.314453"/>
     </g>
    </g>
    <g id="line2d_34">
     <path d="M 722.807813 96.235187 
L 732.807813 96.235187 
L 742.807813 96.235187 
" style="fill: none; stroke: #ff7f0e; stroke-width: 1.5; stroke-linecap: round"/>
    </g>
    <g id="text_18">
     <!-- Y20 -->
     <g style="fill: #262626" transform="translate(750.807813 99.735187) scale(0.1 -0.1)">
      <use xlink:href="#ArialMT-59"/>
      <use xlink:href="#ArialMT-32" x="66.699219"/>
      <use xlink:href="#ArialMT-30" x="122.314453"/>
     </g>
    </g>
    <g id="line2d_35">
     <path d="M 722.807813 110.3805 
L 732.807813 110.3805 
L 742.807813 110.3805 
" style="fill: none; stroke: #2ca02c; stroke-width: 1.5; stroke-linecap: round"/>
    </g>
    <g id="text_19">
     <!-- Y4 -->
     <g style="fill: #262626" transform="translate(750.807813 113.8805) scale(0.1 -0.1)">
      <defs>
       <path id="ArialMT-34" d="M 2069 0 
L 2069 1097 
L 81 1097 
L 81 1613 
L 2172 4581 
L 2631 4581 
L 2631 1613 
L 3250 1613 
L 3250 1097 
L 2631 1097 
L 2631 0 
L 2069 0 
z
M 2069 1613 
L 2069 3678 
L 634 1613 
L 2069 1613 
z
" transform="scale(0.015625)"/>
      </defs>
      <use xlink:href="#ArialMT-59"/>
      <use xlink:href="#ArialMT-34" x="66.699219"/>
     </g>
    </g>
    <g id="line2d_36">
     <path d="M 722.807813 124.525812 
L 732.807813 124.525812 
L 742.807813 124.525812 
" style="fill: none; stroke: #d62728; stroke-width: 1.5; stroke-linecap: round"/>
    </g>
    <g id="text_20">
     <!-- Y40 -->
     <g style="fill: #262626" transform="translate(750.807813 128.025812) scale(0.1 -0.1)">
      <use xlink:href="#ArialMT-59"/>
      <use xlink:href="#ArialMT-34" x="66.699219"/>
      <use xlink:href="#ArialMT-30" x="122.314453"/>
     </g>
    </g>
    <g id="line2d_37">
     <path d="M 722.807813 138.671125 
L 732.807813 138.671125 
L 742.807813 138.671125 
" style="fill: none; stroke: #9467bd; stroke-width: 1.5; stroke-linecap: round"/>
    </g>
    <g id="text_21">
     <!-- Y60 -->
     <g style="fill: #262626" transform="translate(750.807813 142.171125) scale(0.1 -0.1)">
      <use xlink:href="#ArialMT-59"/>
      <use xlink:href="#ArialMT-36" x="66.699219"/>
      <use xlink:href="#ArialMT-30" x="122.314453"/>
     </g>
    </g>
    <g id="line2d_38">
     <path d="M 722.807813 152.816437 
L 732.807813 152.816437 
L 742.807813 152.816437 
" style="fill: none; stroke: #8c564b; stroke-width: 1.5; stroke-linecap: round"/>
    </g>
    <g id="text_22">
     <!-- Y80 -->
     <g style="fill: #262626" transform="translate(750.807813 156.316437) scale(0.1 -0.1)">
      <use xlink:href="#ArialMT-59"/>
      <use xlink:href="#ArialMT-38" x="66.699219"/>
      <use xlink:href="#ArialMT-30" x="122.314453"/>
     </g>
    </g>
   </g>
  </g>
  <g id="axes_2">
   <g id="patch_7">
    <path d="M 108 384.48 
L 777.6 384.48 
L 777.6 251.424 
L 108 251.424 
z
" style="fill: #ffffff"/>
   </g>
   <g id="matplotlib.axis_3">
    <g id="xtick_9">
     <g id="line2d_39">
      <path d="M 138.436364 384.48 
L 138.436364 251.424 
" clip-path="url(#p58409aa65b)" style="fill: none; stroke: #cccccc; stroke-width: 0.8; stroke-linecap: round"/>
     </g>
     <g id="line2d_40"/>
     <g id="text_23">
      <!-- 0.0 -->
      <g style="fill: #262626" transform="translate(131.486364 395.137812) scale(0.1 -0.1)">
       <use xlink:href="#ArialMT-30"/>
       <use xlink:href="#ArialMT-2e" x="55.615234"/>
       <use xlink:href="#ArialMT-30" x="83.398438"/>
      </g>
     </g>
    </g>
    <g id="xtick_10">
     <g id="line2d_41">
      <path d="M 218.532057 384.48 
L 218.532057 251.424 
" clip-path="url(#p58409aa65b)" style="fill: none; stroke: #cccccc; stroke-width: 0.8; stroke-linecap: round"/>
     </g>
     <g id="line2d_42"/>
     <g id="text_24">
      <!-- 2.5 -->
      <g style="fill: #262626" transform="translate(211.582057 395.137812) scale(0.1 -0.1)">
       <use xlink:href="#ArialMT-32"/>
       <use xlink:href="#ArialMT-2e" x="55.615234"/>
       <use xlink:href="#ArialMT-35" x="83.398438"/>
      </g>
     </g>
    </g>
    <g id="xtick_11">
     <g id="line2d_43">
      <path d="M 298.627751 384.48 
L 298.627751 251.424 
" clip-path="url(#p58409aa65b)" style="fill: none; stroke: #cccccc; stroke-width: 0.8; stroke-linecap: round"/>
     </g>
     <g id="line2d_44"/>
     <g id="text_25">
      <!-- 5.0 -->
      <g style="fill: #262626" transform="translate(291.677751 395.137812) scale(0.1 -0.1)">
       <use xlink:href="#ArialMT-35"/>
       <use xlink:href="#ArialMT-2e" x="55.615234"/>
       <use xlink:href="#ArialMT-30" x="83.398438"/>
      </g>
     </g>
    </g>
    <g id="xtick_12">
     <g id="line2d_45">
      <path d="M 378.723445 384.48 
L 378.723445 251.424 
" clip-path="url(#p58409aa65b)" style="fill: none; stroke: #cccccc; stroke-width: 0.8; stroke-linecap: round"/>
     </g>
     <g id="line2d_46"/>
     <g id="text_26">
      <!-- 7.5 -->
      <g style="fill: #262626" transform="translate(371.773445 395.137812) scale(0.1 -0.1)">
       <use xlink:href="#ArialMT-37"/>
       <use xlink:href="#ArialMT-2e" x="55.615234"/>
       <use xlink:href="#ArialMT-35" x="83.398438"/>
      </g>
     </g>
    </g>
    <g id="xtick_13">
     <g id="line2d_47">
      <path d="M 458.819139 384.48 
L 458.819139 251.424 
" clip-path="url(#p58409aa65b)" style="fill: none; stroke: #cccccc; stroke-width: 0.8; stroke-linecap: round"/>
     </g>
     <g id="line2d_48"/>
     <g id="text_27">
      <!-- 10.0 -->
      <g style="fill: #262626" transform="translate(449.08867 395.137812) scale(0.1 -0.1)">
       <use xlink:href="#ArialMT-31"/>
       <use xlink:href="#ArialMT-30" x="55.615234"/>
       <use xlink:href="#ArialMT-2e" x="111.230469"/>
       <use xlink:href="#ArialMT-30" x="139.013672"/>
      </g>
     </g>
    </g>
    <g id="xtick_14">
     <g id="line2d_49">
      <path d="M 538.914833 384.48 
L 538.914833 251.424 
" clip-path="url(#p58409aa65b)" style="fill: none; stroke: #cccccc; stroke-width: 0.8; stroke-linecap: round"/>
     </g>
     <g id="line2d_50"/>
     <g id="text_28">
      <!-- 12.5 -->
      <g style="fill: #262626" transform="translate(529.184364 395.137812) scale(0.1 -0.1)">
       <use xlink:href="#ArialMT-31"/>
       <use xlink:href="#ArialMT-32" x="55.615234"/>
       <use xlink:href="#ArialMT-2e" x="111.230469"/>
       <use xlink:href="#ArialMT-35" x="139.013672"/>
      </g>
     </g>
    </g>
    <g id="xtick_15">
     <g id="line2d_51">
      <path d="M 619.010526 384.48 
L 619.010526 251.424 
" clip-path="url(#p58409aa65b)" style="fill: none; stroke: #cccccc; stroke-width: 0.8; stroke-linecap: round"/>
     </g>
     <g id="line2d_52"/>
     <g id="text_29">
      <!-- 15.0 -->
      <g style="fill: #262626" transform="translate(609.280058 395.137812) scale(0.1 -0.1)">
       <use xlink:href="#ArialMT-31"/>
       <use xlink:href="#ArialMT-35" x="55.615234"/>
       <use xlink:href="#ArialMT-2e" x="111.230469"/>
       <use xlink:href="#ArialMT-30" x="139.013672"/>
      </g>
     </g>
    </g>
    <g id="xtick_16">
     <g id="line2d_53">
      <path d="M 699.10622 384.48 
L 699.10622 251.424 
" clip-path="url(#p58409aa65b)" style="fill: none; stroke: #cccccc; stroke-width: 0.8; stroke-linecap: round"/>
     </g>
     <g id="line2d_54"/>
     <g id="text_30">
      <!-- 17.5 -->
      <g style="fill: #262626" transform="translate(689.375751 395.137812) scale(0.1 -0.1)">
       <use xlink:href="#ArialMT-31"/>
       <use xlink:href="#ArialMT-37" x="55.615234"/>
       <use xlink:href="#ArialMT-2e" x="111.230469"/>
       <use xlink:href="#ArialMT-35" x="139.013672"/>
      </g>
     </g>
    </g>
    <g id="text_31">
     <!-- Epochs -->
     <g style="fill: #262626" transform="translate(426.123438 408.283125) scale(0.1 -0.1)">
      <use xlink:href="#ArialMT-45"/>
      <use xlink:href="#ArialMT-70" x="66.699219"/>
      <use xlink:href="#ArialMT-6f" x="122.314453"/>
      <use xlink:href="#ArialMT-63" x="177.929688"/>
      <use xlink:href="#ArialMT-68" x="227.929688"/>
      <use xlink:href="#ArialMT-73" x="283.544922"/>
     </g>
    </g>
   </g>
   <g id="matplotlib.axis_4">
    <g id="ytick_6">
     <g id="line2d_55">
      <path d="M 108 369.420589 
L 777.6 369.420589 
" clip-path="url(#p58409aa65b)" style="fill: none; stroke: #cccccc; stroke-width: 0.8; stroke-linecap: round"/>
     </g>
     <g id="line2d_56"/>
     <g id="text_32">
      <!-- 0.5 -->
      <g style="fill: #262626" transform="translate(90.6 372.999495) scale(0.1 -0.1)">
       <use xlink:href="#ArialMT-30"/>
       <use xlink:href="#ArialMT-2e" x="55.615234"/>
       <use xlink:href="#ArialMT-35" x="83.398438"/>
      </g>
     </g>
    </g>
    <g id="ytick_7">
     <g id="line2d_57">
      <path d="M 108 344.535438 
L 777.6 344.535438 
" clip-path="url(#p58409aa65b)" style="fill: none; stroke: #cccccc; stroke-width: 0.8; stroke-linecap: round"/>
     </g>
     <g id="line2d_58"/>
     <g id="text_33">
      <!-- 0.6 -->
      <g style="fill: #262626" transform="translate(90.6 348.114344) scale(0.1 -0.1)">
       <use xlink:href="#ArialMT-30"/>
       <use xlink:href="#ArialMT-2e" x="55.615234"/>
       <use xlink:href="#ArialMT-36" x="83.398438"/>
      </g>
     </g>
    </g>
    <g id="ytick_8">
     <g id="line2d_59">
      <path d="M 108 319.650287 
L 777.6 319.650287 
" clip-path="url(#p58409aa65b)" style="fill: none; stroke: #cccccc; stroke-width: 0.8; stroke-linecap: round"/>
     </g>
     <g id="line2d_60"/>
     <g id="text_34">
      <!-- 0.7 -->
      <g style="fill: #262626" transform="translate(90.6 323.229193) scale(0.1 -0.1)">
       <use xlink:href="#ArialMT-30"/>
       <use xlink:href="#ArialMT-2e" x="55.615234"/>
       <use xlink:href="#ArialMT-37" x="83.398438"/>
      </g>
     </g>
    </g>
    <g id="ytick_9">
     <g id="line2d_61">
      <path d="M 108 294.765136 
L 777.6 294.765136 
" clip-path="url(#p58409aa65b)" style="fill: none; stroke: #cccccc; stroke-width: 0.8; stroke-linecap: round"/>
     </g>
     <g id="line2d_62"/>
     <g id="text_35">
      <!-- 0.8 -->
      <g style="fill: #262626" transform="translate(90.6 298.344042) scale(0.1 -0.1)">
       <use xlink:href="#ArialMT-30"/>
       <use xlink:href="#ArialMT-2e" x="55.615234"/>
       <use xlink:href="#ArialMT-38" x="83.398438"/>
      </g>
     </g>
    </g>
    <g id="ytick_10">
     <g id="line2d_63">
      <path d="M 108 269.879985 
L 777.6 269.879985 
" clip-path="url(#p58409aa65b)" style="fill: none; stroke: #cccccc; stroke-width: 0.8; stroke-linecap: round"/>
     </g>
     <g id="line2d_64"/>
     <g id="text_36">
      <!-- 0.9 -->
      <g style="fill: #262626" transform="translate(90.6 273.458891) scale(0.1 -0.1)">
       <use xlink:href="#ArialMT-30"/>
       <use xlink:href="#ArialMT-2e" x="55.615234"/>
       <use xlink:href="#ArialMT-39" x="83.398438"/>
      </g>
     </g>
    </g>
    <g id="text_37">
     <!-- Accuracy -->
     <g style="fill: #262626" transform="translate(84.495312 338.512938) rotate(-90) scale(0.1 -0.1)">
      <use xlink:href="#ArialMT-41"/>
      <use xlink:href="#ArialMT-63" x="66.699219"/>
      <use xlink:href="#ArialMT-63" x="116.699219"/>
      <use xlink:href="#ArialMT-75" x="166.699219"/>
      <use xlink:href="#ArialMT-72" x="222.314453"/>
      <use xlink:href="#ArialMT-61" x="255.615234"/>
      <use xlink:href="#ArialMT-63" x="311.230469"/>
      <use xlink:href="#ArialMT-79" x="361.230469"/>
     </g>
    </g>
   </g>
   <g id="line2d_65">
    <path d="M 138.436364 378.432 
L 170.474641 378.432 
L 202.512919 378.432 
L 234.551196 378.432 
L 266.589474 378.432 
L 298.627751 378.432 
L 330.666029 378.432 
L 362.704306 378.432 
L 394.742584 378.432 
L 426.780861 378.432 
L 458.819139 378.432 
L 490.857416 377.7387 
L 522.895694 378.08535 
L 554.933971 374.272945 
L 586.972249 359.716127 
L 619.010526 359.716127 
L 651.048804 359.716127 
L 683.087081 359.716127 
L 715.125359 378.08535 
L 747.163636 378.432 
" clip-path="url(#p58409aa65b)" style="fill: none; stroke: #1f77b4; stroke-width: 1.5; stroke-linecap: round"/>
   </g>
   <g id="line2d_66">
    <path d="M 138.436364 378.432 
L 170.474641 378.432 
L 202.512919 378.432 
L 234.551196 378.432 
L 266.589474 378.432 
L 298.627751 378.432 
L 330.666029 378.432 
L 362.704306 378.432 
L 394.742584 378.432 
L 426.780861 378.432 
L 458.819139 378.432 
L 490.857416 378.432 
L 522.895694 378.432 
L 554.933971 378.432 
L 586.972249 378.432 
L 619.010526 378.432 
L 651.048804 378.432 
L 683.087081 378.432 
L 715.125359 378.432 
L 747.163636 378.432 
" clip-path="url(#p58409aa65b)" style="fill: none; stroke: #ff7f0e; stroke-width: 1.5; stroke-linecap: round"/>
   </g>
   <g id="line2d_67">
    <path d="M 138.436364 378.432 
L 170.474641 378.432 
L 202.512919 378.432 
L 234.551196 378.432 
L 266.589474 378.432 
L 298.627751 378.432 
L 330.666029 378.432 
L 362.704306 378.432 
L 394.742584 378.432 
L 426.780861 378.432 
L 458.819139 378.432 
L 490.857416 378.432 
L 522.895694 378.432 
L 554.933971 378.432 
L 586.972249 378.432 
L 619.010526 378.432 
L 651.048804 378.432 
L 683.087081 378.432 
L 715.125359 378.432 
L 747.163636 377.045648 
" clip-path="url(#p58409aa65b)" style="fill: none; stroke: #2ca02c; stroke-width: 1.5; stroke-linecap: round"/>
   </g>
   <g id="line2d_68">
    <path d="M 138.436364 343.079657 
L 170.474641 342.386605 
L 202.512919 266.136761 
L 234.551196 261.631055 
L 266.589474 259.898302 
L 298.627751 259.898302 
L 330.666029 261.284654 
L 362.704306 258.858352 
L 394.742584 258.51195 
L 426.780861 258.858352 
L 458.819139 259.205002 
L 490.857416 261.631055 
L 522.895694 258.858352 
L 554.933971 259.898302 
L 586.972249 260.938004 
L 619.010526 263.364057 
L 651.048804 262.671006 
L 683.087081 259.205002 
L 715.125359 260.244704 
L 747.163636 259.898302 
" clip-path="url(#p58409aa65b)" style="fill: none; stroke: #d62728; stroke-width: 1.5; stroke-linecap: round"/>
   </g>
   <g id="line2d_69">
    <path d="M 138.436364 356.596773 
L 170.474641 260.591354 
L 202.512919 263.364057 
L 234.551196 262.324356 
L 266.589474 259.551652 
L 298.627751 258.858352 
L 330.666029 259.551652 
L 362.704306 283.812932 
L 394.742584 260.244704 
L 426.780861 259.551652 
L 458.819139 259.898302 
L 490.857416 260.938004 
L 522.895694 261.284654 
L 554.933971 258.51195 
L 586.972249 257.81865 
L 619.010526 258.858352 
L 651.048804 258.858352 
L 683.087081 258.858352 
L 715.125359 257.472 
L 747.163636 260.244704 
" clip-path="url(#p58409aa65b)" style="fill: none; stroke: #9467bd; stroke-width: 1.5; stroke-linecap: round"/>
   </g>
   <g id="line2d_70">
    <path d="M 138.436364 266.136761 
L 170.474641 263.710707 
L 202.512919 265.790111 
L 234.551196 259.898302 
L 266.589474 258.858352 
L 298.627751 260.244704 
L 330.666029 260.591354 
L 362.704306 260.591354 
L 394.742584 260.938004 
L 426.780861 260.591354 
L 458.819139 259.898302 
L 490.857416 258.858352 
L 522.895694 258.1653 
L 554.933971 260.244704 
L 586.972249 258.51195 
L 619.010526 259.898302 
L 651.048804 260.591354 
L 683.087081 259.551652 
L 715.125359 260.244704 
L 747.163636 259.898302 
" clip-path="url(#p58409aa65b)" style="fill: none; stroke: #8c564b; stroke-width: 1.5; stroke-linecap: round"/>
   </g>
   <g id="patch_8">
    <path d="M 108 384.48 
L 108 251.424 
" style="fill: none; stroke: #cccccc; stroke-linejoin: miter; stroke-linecap: square"/>
   </g>
   <g id="patch_9">
    <path d="M 777.6 384.48 
L 777.6 251.424 
" style="fill: none; stroke: #cccccc; stroke-linejoin: miter; stroke-linecap: square"/>
   </g>
   <g id="patch_10">
    <path d="M 108 384.48 
L 777.6 384.48 
" style="fill: none; stroke: #cccccc; stroke-linejoin: miter; stroke-linecap: square"/>
   </g>
   <g id="patch_11">
    <path d="M 108 251.424 
L 777.6 251.424 
" style="fill: none; stroke: #cccccc; stroke-linejoin: miter; stroke-linecap: square"/>
   </g>
   <g id="text_38">
    <!-- Test -->
    <g style="fill: #262626" transform="translate(431.799375 245.424) scale(0.12 -0.12)">
     <defs>
      <path id="ArialMT-65" d="M 2694 1069 
L 3275 997 
Q 3138 488 2766 206 
Q 2394 -75 1816 -75 
Q 1088 -75 661 373 
Q 234 822 234 1631 
Q 234 2469 665 2931 
Q 1097 3394 1784 3394 
Q 2450 3394 2872 2941 
Q 3294 2488 3294 1666 
Q 3294 1616 3291 1516 
L 816 1516 
Q 847 969 1125 678 
Q 1403 388 1819 388 
Q 2128 388 2347 550 
Q 2566 713 2694 1069 
z
M 847 1978 
L 2700 1978 
Q 2663 2397 2488 2606 
Q 2219 2931 1791 2931 
Q 1403 2931 1139 2672 
Q 875 2413 847 1978 
z
" transform="scale(0.015625)"/>
      <path id="ArialMT-74" d="M 1650 503 
L 1731 6 
Q 1494 -44 1306 -44 
Q 1000 -44 831 53 
Q 663 150 594 308 
Q 525 466 525 972 
L 525 2881 
L 113 2881 
L 113 3319 
L 525 3319 
L 525 4141 
L 1084 4478 
L 1084 3319 
L 1650 3319 
L 1650 2881 
L 1084 2881 
L 1084 941 
Q 1084 700 1114 631 
Q 1144 563 1211 522 
Q 1278 481 1403 481 
Q 1497 481 1650 503 
z
" transform="scale(0.015625)"/>
     </defs>
     <use xlink:href="#ArialMT-54"/>
     <use xlink:href="#ArialMT-65" x="49.958984"/>
     <use xlink:href="#ArialMT-73" x="105.574219"/>
     <use xlink:href="#ArialMT-74" x="155.574219"/>
    </g>
   </g>
   <g id="legend_2">
    <g id="line2d_71">
     <path d="M 722.807813 281.673875 
L 732.807813 281.673875 
L 742.807813 281.673875 
" style="fill: none; stroke: #1f77b4; stroke-width: 1.5; stroke-linecap: round"/>
    </g>
    <g id="text_39">
     <!-- Y10 -->
     <g style="fill: #262626" transform="translate(750.807813 285.173875) scale(0.1 -0.1)">
      <use xlink:href="#ArialMT-59"/>
      <use xlink:href="#ArialMT-31" x="66.699219"/>
      <use xlink:href="#ArialMT-30" x="122.314453"/>
     </g>
    </g>
    <g id="line2d_72">
     <path d="M 722.807813 295.819187 
L 732.807813 295.819187 
L 742.807813 295.819187 
" style="fill: none; stroke: #ff7f0e; stroke-width: 1.5; stroke-linecap: round"/>
    </g>
    <g id="text_40">
     <!-- Y20 -->
     <g style="fill: #262626" transform="translate(750.807813 299.319187) scale(0.1 -0.1)">
      <use xlink:href="#ArialMT-59"/>
      <use xlink:href="#ArialMT-32" x="66.699219"/>
      <use xlink:href="#ArialMT-30" x="122.314453"/>
     </g>
    </g>
    <g id="line2d_73">
     <path d="M 722.807813 309.9645 
L 732.807813 309.9645 
L 742.807813 309.9645 
" style="fill: none; stroke: #2ca02c; stroke-width: 1.5; stroke-linecap: round"/>
    </g>
    <g id="text_41">
     <!-- Y4 -->
     <g style="fill: #262626" transform="translate(750.807813 313.4645) scale(0.1 -0.1)">
      <use xlink:href="#ArialMT-59"/>
      <use xlink:href="#ArialMT-34" x="66.699219"/>
     </g>
    </g>
    <g id="line2d_74">
     <path d="M 722.807813 324.109812 
L 732.807813 324.109812 
L 742.807813 324.109812 
" style="fill: none; stroke: #d62728; stroke-width: 1.5; stroke-linecap: round"/>
    </g>
    <g id="text_42">
     <!-- Y40 -->
     <g style="fill: #262626" transform="translate(750.807813 327.609812) scale(0.1 -0.1)">
      <use xlink:href="#ArialMT-59"/>
      <use xlink:href="#ArialMT-34" x="66.699219"/>
      <use xlink:href="#ArialMT-30" x="122.314453"/>
     </g>
    </g>
    <g id="line2d_75">
     <path d="M 722.807813 338.255125 
L 732.807813 338.255125 
L 742.807813 338.255125 
" style="fill: none; stroke: #9467bd; stroke-width: 1.5; stroke-linecap: round"/>
    </g>
    <g id="text_43">
     <!-- Y60 -->
     <g style="fill: #262626" transform="translate(750.807813 341.755125) scale(0.1 -0.1)">
      <use xlink:href="#ArialMT-59"/>
      <use xlink:href="#ArialMT-36" x="66.699219"/>
      <use xlink:href="#ArialMT-30" x="122.314453"/>
     </g>
    </g>
    <g id="line2d_76">
     <path d="M 722.807813 352.400438 
L 732.807813 352.400438 
L 742.807813 352.400438 
" style="fill: none; stroke: #8c564b; stroke-width: 1.5; stroke-linecap: round"/>
    </g>
    <g id="text_44">
     <!-- Y80 -->
     <g style="fill: #262626" transform="translate(750.807813 355.900438) scale(0.1 -0.1)">
      <use xlink:href="#ArialMT-59"/>
      <use xlink:href="#ArialMT-38" x="66.699219"/>
      <use xlink:href="#ArialMT-30" x="122.314453"/>
     </g>
    </g>
   </g>
  </g>
  <g id="text_45">
   <!-- Architecture -->
   <g style="fill: #262626" transform="translate(396.658125 17.229375) scale(0.12 -0.12)">
    <defs>
     <path id="Arial-BoldMT-41" d="M 4597 0 
L 3591 0 
L 3191 1041 
L 1359 1041 
L 981 0 
L 0 0 
L 1784 4581 
L 2763 4581 
L 4597 0 
z
M 2894 1813 
L 2263 3513 
L 1644 1813 
L 2894 1813 
z
" transform="scale(0.015625)"/>
     <path id="Arial-BoldMT-72" d="M 1300 0 
L 422 0 
L 422 3319 
L 1238 3319 
L 1238 2847 
Q 1447 3181 1614 3287 
Q 1781 3394 1994 3394 
Q 2294 3394 2572 3228 
L 2300 2463 
Q 2078 2606 1888 2606 
Q 1703 2606 1575 2504 
Q 1447 2403 1373 2137 
Q 1300 1872 1300 1025 
L 1300 0 
z
" transform="scale(0.015625)"/>
     <path id="Arial-BoldMT-63" d="M 3353 2338 
L 2488 2181 
Q 2444 2441 2289 2572 
Q 2134 2703 1888 2703 
Q 1559 2703 1364 2476 
Q 1169 2250 1169 1719 
Q 1169 1128 1367 884 
Q 1566 641 1900 641 
Q 2150 641 2309 783 
Q 2469 925 2534 1272 
L 3397 1125 
Q 3263 531 2881 228 
Q 2500 -75 1859 -75 
Q 1131 -75 698 384 
Q 266 844 266 1656 
Q 266 2478 700 2936 
Q 1134 3394 1875 3394 
Q 2481 3394 2839 3133 
Q 3197 2872 3353 2338 
z
" transform="scale(0.015625)"/>
     <path id="Arial-BoldMT-68" d="M 1334 4581 
L 1334 2897 
Q 1759 3394 2350 3394 
Q 2653 3394 2897 3281 
Q 3141 3169 3264 2994 
Q 3388 2819 3433 2606 
Q 3478 2394 3478 1947 
L 3478 0 
L 2600 0 
L 2600 1753 
Q 2600 2275 2550 2415 
Q 2500 2556 2373 2639 
Q 2247 2722 2056 2722 
Q 1838 2722 1666 2615 
Q 1494 2509 1414 2295 
Q 1334 2081 1334 1663 
L 1334 0 
L 456 0 
L 456 4581 
L 1334 4581 
z
" transform="scale(0.015625)"/>
     <path id="Arial-BoldMT-69" d="M 459 3769 
L 459 4581 
L 1338 4581 
L 1338 3769 
L 459 3769 
z
M 459 0 
L 459 3319 
L 1338 3319 
L 1338 0 
L 459 0 
z
" transform="scale(0.015625)"/>
     <path id="Arial-BoldMT-74" d="M 1981 3319 
L 1981 2619 
L 1381 2619 
L 1381 1281 
Q 1381 875 1398 808 
Q 1416 741 1477 697 
Q 1538 653 1625 653 
Q 1747 653 1978 738 
L 2053 56 
Q 1747 -75 1359 -75 
Q 1122 -75 931 4 
Q 741 84 652 211 
Q 563 338 528 553 
Q 500 706 500 1172 
L 500 2619 
L 97 2619 
L 97 3319 
L 500 3319 
L 500 3978 
L 1381 4491 
L 1381 3319 
L 1981 3319 
z
" transform="scale(0.015625)"/>
     <path id="Arial-BoldMT-65" d="M 2381 1056 
L 3256 909 
Q 3088 428 2723 176 
Q 2359 -75 1813 -75 
Q 947 -75 531 491 
Q 203 944 203 1634 
Q 203 2459 634 2926 
Q 1066 3394 1725 3394 
Q 2466 3394 2894 2905 
Q 3322 2416 3303 1406 
L 1103 1406 
Q 1113 1016 1316 798 
Q 1519 581 1822 581 
Q 2028 581 2168 693 
Q 2309 806 2381 1056 
z
M 2431 1944 
Q 2422 2325 2234 2523 
Q 2047 2722 1778 2722 
Q 1491 2722 1303 2513 
Q 1116 2303 1119 1944 
L 2431 1944 
z
" transform="scale(0.015625)"/>
     <path id="Arial-BoldMT-75" d="M 2644 0 
L 2644 497 
Q 2463 231 2167 78 
Q 1872 -75 1544 -75 
Q 1209 -75 943 72 
Q 678 219 559 484 
Q 441 750 441 1219 
L 441 3319 
L 1319 3319 
L 1319 1794 
Q 1319 1094 1367 936 
Q 1416 778 1544 686 
Q 1672 594 1869 594 
Q 2094 594 2272 717 
Q 2450 841 2515 1023 
Q 2581 1206 2581 1919 
L 2581 3319 
L 3459 3319 
L 3459 0 
L 2644 0 
z
" transform="scale(0.015625)"/>
    </defs>
    <use xlink:href="#Arial-BoldMT-41"/>
    <use xlink:href="#Arial-BoldMT-72" x="72.216797"/>
    <use xlink:href="#Arial-BoldMT-63" x="111.132812"/>
    <use xlink:href="#Arial-BoldMT-68" x="166.748047"/>
    <use xlink:href="#Arial-BoldMT-69" x="227.832031"/>
    <use xlink:href="#Arial-BoldMT-74" x="255.615234"/>
    <use xlink:href="#Arial-BoldMT-65" x="288.916016"/>
    <use xlink:href="#Arial-BoldMT-63" x="344.53125"/>
    <use xlink:href="#Arial-BoldMT-74" x="400.146484"/>
    <use xlink:href="#Arial-BoldMT-75" x="433.447266"/>
    <use xlink:href="#Arial-BoldMT-72" x="494.53125"/>
    <use xlink:href="#Arial-BoldMT-65" x="533.447266"/>
   </g>
   <!-- 512_1024_512 -->
   <g style="fill: #262626" transform="translate(391.96125 29.9475) scale(0.12 -0.12)">
    <defs>
     <path id="Arial-BoldMT-35" d="M 284 1178 
L 1159 1269 
Q 1197 972 1381 798 
Q 1566 625 1806 625 
Q 2081 625 2272 848 
Q 2463 1072 2463 1522 
Q 2463 1944 2273 2155 
Q 2084 2366 1781 2366 
Q 1403 2366 1103 2031 
L 391 2134 
L 841 4519 
L 3163 4519 
L 3163 3697 
L 1506 3697 
L 1369 2919 
Q 1663 3066 1969 3066 
Q 2553 3066 2959 2641 
Q 3366 2216 3366 1538 
Q 3366 972 3038 528 
Q 2591 -78 1797 -78 
Q 1163 -78 763 262 
Q 363 603 284 1178 
z
" transform="scale(0.015625)"/>
     <path id="Arial-BoldMT-31" d="M 2519 0 
L 1641 0 
L 1641 3309 
Q 1159 2859 506 2644 
L 506 3441 
Q 850 3553 1253 3867 
Q 1656 4181 1806 4600 
L 2519 4600 
L 2519 0 
z
" transform="scale(0.015625)"/>
     <path id="Arial-BoldMT-32" d="M 3238 816 
L 3238 0 
L 159 0 
Q 209 463 459 877 
Q 709 1291 1447 1975 
Q 2041 2528 2175 2725 
Q 2356 2997 2356 3263 
Q 2356 3556 2198 3714 
Q 2041 3872 1763 3872 
Q 1488 3872 1325 3706 
Q 1163 3541 1138 3156 
L 263 3244 
Q 341 3969 753 4284 
Q 1166 4600 1784 4600 
Q 2463 4600 2850 4234 
Q 3238 3869 3238 3325 
Q 3238 3016 3127 2736 
Q 3016 2456 2775 2150 
Q 2616 1947 2200 1565 
Q 1784 1184 1673 1059 
Q 1563 934 1494 816 
L 3238 816 
z
" transform="scale(0.015625)"/>
     <path id="Arial-BoldMT-5f" d="M -59 -1266 
L -59 -697 
L 3591 -697 
L 3591 -1266 
L -59 -1266 
z
" transform="scale(0.015625)"/>
     <path id="Arial-BoldMT-30" d="M 1756 4600 
Q 2422 4600 2797 4125 
Q 3244 3563 3244 2259 
Q 3244 959 2794 391 
Q 2422 -78 1756 -78 
Q 1088 -78 678 436 
Q 269 950 269 2269 
Q 269 3563 719 4131 
Q 1091 4600 1756 4600 
z
M 1756 3872 
Q 1597 3872 1472 3770 
Q 1347 3669 1278 3406 
Q 1188 3066 1188 2259 
Q 1188 1453 1269 1151 
Q 1350 850 1473 750 
Q 1597 650 1756 650 
Q 1916 650 2041 751 
Q 2166 853 2234 1116 
Q 2325 1453 2325 2259 
Q 2325 3066 2244 3367 
Q 2163 3669 2039 3770 
Q 1916 3872 1756 3872 
z
" transform="scale(0.015625)"/>
     <path id="Arial-BoldMT-34" d="M 1994 0 
L 1994 922 
L 119 922 
L 119 1691 
L 2106 4600 
L 2844 4600 
L 2844 1694 
L 3413 1694 
L 3413 922 
L 2844 922 
L 2844 0 
L 1994 0 
z
M 1994 1694 
L 1994 3259 
L 941 1694 
L 1994 1694 
z
" transform="scale(0.015625)"/>
    </defs>
    <use xlink:href="#Arial-BoldMT-35"/>
    <use xlink:href="#Arial-BoldMT-31" x="55.615234"/>
    <use xlink:href="#Arial-BoldMT-32" x="111.230469"/>
    <use xlink:href="#Arial-BoldMT-5f" x="166.845703"/>
    <use xlink:href="#Arial-BoldMT-31" x="222.460938"/>
    <use xlink:href="#Arial-BoldMT-30" x="278.076172"/>
    <use xlink:href="#Arial-BoldMT-32" x="333.691406"/>
    <use xlink:href="#Arial-BoldMT-34" x="389.306641"/>
    <use xlink:href="#Arial-BoldMT-5f" x="444.921875"/>
    <use xlink:href="#Arial-BoldMT-35" x="500.537109"/>
    <use xlink:href="#Arial-BoldMT-31" x="556.152344"/>
    <use xlink:href="#Arial-BoldMT-32" x="611.767578"/>
   </g>
  </g>
 </g>
 <defs>
  <clipPath id="p9073fe5bf1">
   <rect x="108" y="51.84" width="669.6" height="133.056"/>
  </clipPath>
  <clipPath id="p58409aa65b">
   <rect x="108" y="251.424" width="669.6" height="133.056"/>
  </clipPath>
 </defs>
</svg>
