<?xml version="1.0" encoding="utf-8" standalone="no"?>
<!DOCTYPE svg PUBLIC "-//W3C//DTD SVG 1.1//EN"
  "http://www.w3.org/Graphics/SVG/1.1/DTD/svg11.dtd">
<svg xmlns:xlink="http://www.w3.org/1999/xlink" width="864pt" height="432pt" viewBox="0 0 864 432" xmlns="http://www.w3.org/2000/svg" version="1.1">
 <metadata>
  <rdf:RDF xmlns:dc="http://purl.org/dc/elements/1.1/" xmlns:cc="http://creativecommons.org/ns#" xmlns:rdf="http://www.w3.org/1999/02/22-rdf-syntax-ns#">
   <cc:Work>
    <dc:type rdf:resource="http://purl.org/dc/dcmitype/StillImage"/>
    <dc:date>2024-05-27T10:41:37.987279</dc:date>
    <dc:format>image/svg+xml</dc:format>
    <dc:creator>
     <cc:Agent>
      <dc:title>Matplotlib v3.8.4, https://matplotlib.org/</dc:title>
     </cc:Agent>
    </dc:creator>
   </cc:Work>
  </rdf:RDF>
 </metadata>
 <defs>
  <style type="text/css">*{stroke-linejoin: round; stroke-linecap: butt}</style>
 </defs>
 <g id="figure_1">
  <g id="patch_1">
   <path d="M 0 432 
L 864 432 
L 864 0 
L 0 0 
z
" style="fill: #ffffff"/>
  </g>
  <g id="axes_1">
   <g id="patch_2">
    <path d="M 108 184.896 
L 777.6 184.896 
L 777.6 51.84 
L 108 51.84 
z
" style="fill: #ffffff"/>
   </g>
   <g id="matplotlib.axis_1">
    <g id="xtick_1">
     <g id="line2d_1">
      <path d="M 138.436364 184.896 
L 138.436364 51.84 
" clip-path="url(#p7750b8632c)" style="fill: none; stroke: #cccccc; stroke-width: 0.8; stroke-linecap: round"/>
     </g>
     <g id="line2d_2"/>
     <g id="text_1">
      <!-- 0 -->
      <g style="fill: #262626" transform="translate(135.255114 195.994437) scale(0.1 -0.1)">
       <defs>
        <path id="DejaVuSans-30" d="M 2034 4250 
Q 1547 4250 1301 3770 
Q 1056 3291 1056 2328 
Q 1056 1369 1301 889 
Q 1547 409 2034 409 
Q 2525 409 2770 889 
Q 3016 1369 3016 2328 
Q 3016 3291 2770 3770 
Q 2525 4250 2034 4250 
z
M 2034 4750 
Q 2819 4750 3233 4129 
Q 3647 3509 3647 2328 
Q 3647 1150 3233 529 
Q 2819 -91 2034 -91 
Q 1250 -91 836 529 
Q 422 1150 422 2328 
Q 422 3509 836 4129 
Q 1250 4750 2034 4750 
z
" transform="scale(0.015625)"/>
       </defs>
       <use xlink:href="#DejaVuSans-30"/>
      </g>
     </g>
    </g>
    <g id="xtick_2">
     <g id="line2d_3">
      <path d="M 262.666419 184.896 
L 262.666419 51.84 
" clip-path="url(#p7750b8632c)" style="fill: none; stroke: #cccccc; stroke-width: 0.8; stroke-linecap: round"/>
     </g>
     <g id="line2d_4"/>
     <g id="text_2">
      <!-- 10 -->
      <g style="fill: #262626" transform="translate(256.303919 195.994437) scale(0.1 -0.1)">
       <defs>
        <path id="DejaVuSans-31" d="M 794 531 
L 1825 531 
L 1825 4091 
L 703 3866 
L 703 4441 
L 1819 4666 
L 2450 4666 
L 2450 531 
L 3481 531 
L 3481 0 
L 794 0 
L 794 531 
z
" transform="scale(0.015625)"/>
       </defs>
       <use xlink:href="#DejaVuSans-31"/>
       <use xlink:href="#DejaVuSans-30" x="63.623047"/>
      </g>
     </g>
    </g>
    <g id="xtick_3">
     <g id="line2d_5">
      <path d="M 386.896475 184.896 
L 386.896475 51.84 
" clip-path="url(#p7750b8632c)" style="fill: none; stroke: #cccccc; stroke-width: 0.8; stroke-linecap: round"/>
     </g>
     <g id="line2d_6"/>
     <g id="text_3">
      <!-- 20 -->
      <g style="fill: #262626" transform="translate(380.533975 195.994437) scale(0.1 -0.1)">
       <defs>
        <path id="DejaVuSans-32" d="M 1228 531 
L 3431 531 
L 3431 0 
L 469 0 
L 469 531 
Q 828 903 1448 1529 
Q 2069 2156 2228 2338 
Q 2531 2678 2651 2914 
Q 2772 3150 2772 3378 
Q 2772 3750 2511 3984 
Q 2250 4219 1831 4219 
Q 1534 4219 1204 4116 
Q 875 4013 500 3803 
L 500 4441 
Q 881 4594 1212 4672 
Q 1544 4750 1819 4750 
Q 2544 4750 2975 4387 
Q 3406 4025 3406 3419 
Q 3406 3131 3298 2873 
Q 3191 2616 2906 2266 
Q 2828 2175 2409 1742 
Q 1991 1309 1228 531 
z
" transform="scale(0.015625)"/>
       </defs>
       <use xlink:href="#DejaVuSans-32"/>
       <use xlink:href="#DejaVuSans-30" x="63.623047"/>
      </g>
     </g>
    </g>
    <g id="xtick_4">
     <g id="line2d_7">
      <path d="M 511.126531 184.896 
L 511.126531 51.84 
" clip-path="url(#p7750b8632c)" style="fill: none; stroke: #cccccc; stroke-width: 0.8; stroke-linecap: round"/>
     </g>
     <g id="line2d_8"/>
     <g id="text_4">
      <!-- 30 -->
      <g style="fill: #262626" transform="translate(504.764031 195.994437) scale(0.1 -0.1)">
       <defs>
        <path id="DejaVuSans-33" d="M 2597 2516 
Q 3050 2419 3304 2112 
Q 3559 1806 3559 1356 
Q 3559 666 3084 287 
Q 2609 -91 1734 -91 
Q 1441 -91 1130 -33 
Q 819 25 488 141 
L 488 750 
Q 750 597 1062 519 
Q 1375 441 1716 441 
Q 2309 441 2620 675 
Q 2931 909 2931 1356 
Q 2931 1769 2642 2001 
Q 2353 2234 1838 2234 
L 1294 2234 
L 1294 2753 
L 1863 2753 
Q 2328 2753 2575 2939 
Q 2822 3125 2822 3475 
Q 2822 3834 2567 4026 
Q 2313 4219 1838 4219 
Q 1578 4219 1281 4162 
Q 984 4106 628 3988 
L 628 4550 
Q 988 4650 1302 4700 
Q 1616 4750 1894 4750 
Q 2613 4750 3031 4423 
Q 3450 4097 3450 3541 
Q 3450 3153 3228 2886 
Q 3006 2619 2597 2516 
z
" transform="scale(0.015625)"/>
       </defs>
       <use xlink:href="#DejaVuSans-33"/>
       <use xlink:href="#DejaVuSans-30" x="63.623047"/>
      </g>
     </g>
    </g>
    <g id="xtick_5">
     <g id="line2d_9">
      <path d="M 635.356586 184.896 
L 635.356586 51.84 
" clip-path="url(#p7750b8632c)" style="fill: none; stroke: #cccccc; stroke-width: 0.8; stroke-linecap: round"/>
     </g>
     <g id="line2d_10"/>
     <g id="text_5">
      <!-- 40 -->
      <g style="fill: #262626" transform="translate(628.994086 195.994437) scale(0.1 -0.1)">
       <defs>
        <path id="DejaVuSans-34" d="M 2419 4116 
L 825 1625 
L 2419 1625 
L 2419 4116 
z
M 2253 4666 
L 3047 4666 
L 3047 1625 
L 3713 1625 
L 3713 1100 
L 3047 1100 
L 3047 0 
L 2419 0 
L 2419 1100 
L 313 1100 
L 313 1709 
L 2253 4666 
z
" transform="scale(0.015625)"/>
       </defs>
       <use xlink:href="#DejaVuSans-34"/>
       <use xlink:href="#DejaVuSans-30" x="63.623047"/>
      </g>
     </g>
    </g>
    <g id="xtick_6">
     <g id="line2d_11">
      <path d="M 759.586642 184.896 
L 759.586642 51.84 
" clip-path="url(#p7750b8632c)" style="fill: none; stroke: #cccccc; stroke-width: 0.8; stroke-linecap: round"/>
     </g>
     <g id="line2d_12"/>
     <g id="text_6">
      <!-- 50 -->
      <g style="fill: #262626" transform="translate(753.224142 195.994437) scale(0.1 -0.1)">
       <defs>
        <path id="DejaVuSans-35" d="M 691 4666 
L 3169 4666 
L 3169 4134 
L 1269 4134 
L 1269 2991 
Q 1406 3038 1543 3061 
Q 1681 3084 1819 3084 
Q 2600 3084 3056 2656 
Q 3513 2228 3513 1497 
Q 3513 744 3044 326 
Q 2575 -91 1722 -91 
Q 1428 -91 1123 -41 
Q 819 9 494 109 
L 494 744 
Q 775 591 1075 516 
Q 1375 441 1709 441 
Q 2250 441 2565 725 
Q 2881 1009 2881 1497 
Q 2881 1984 2565 2268 
Q 2250 2553 1709 2553 
Q 1456 2553 1204 2497 
Q 953 2441 691 2322 
L 691 4666 
z
" transform="scale(0.015625)"/>
       </defs>
       <use xlink:href="#DejaVuSans-35"/>
       <use xlink:href="#DejaVuSans-30" x="63.623047"/>
      </g>
     </g>
    </g>
    <g id="text_7">
     <!-- Epochs -->
     <g style="fill: #262626" transform="translate(424.884375 209.672562) scale(0.1 -0.1)">
      <defs>
       <path id="DejaVuSans-45" d="M 628 4666 
L 3578 4666 
L 3578 4134 
L 1259 4134 
L 1259 2753 
L 3481 2753 
L 3481 2222 
L 1259 2222 
L 1259 531 
L 3634 531 
L 3634 0 
L 628 0 
L 628 4666 
z
" transform="scale(0.015625)"/>
       <path id="DejaVuSans-70" d="M 1159 525 
L 1159 -1331 
L 581 -1331 
L 581 3500 
L 1159 3500 
L 1159 2969 
Q 1341 3281 1617 3432 
Q 1894 3584 2278 3584 
Q 2916 3584 3314 3078 
Q 3713 2572 3713 1747 
Q 3713 922 3314 415 
Q 2916 -91 2278 -91 
Q 1894 -91 1617 61 
Q 1341 213 1159 525 
z
M 3116 1747 
Q 3116 2381 2855 2742 
Q 2594 3103 2138 3103 
Q 1681 3103 1420 2742 
Q 1159 2381 1159 1747 
Q 1159 1113 1420 752 
Q 1681 391 2138 391 
Q 2594 391 2855 752 
Q 3116 1113 3116 1747 
z
" transform="scale(0.015625)"/>
       <path id="DejaVuSans-6f" d="M 1959 3097 
Q 1497 3097 1228 2736 
Q 959 2375 959 1747 
Q 959 1119 1226 758 
Q 1494 397 1959 397 
Q 2419 397 2687 759 
Q 2956 1122 2956 1747 
Q 2956 2369 2687 2733 
Q 2419 3097 1959 3097 
z
M 1959 3584 
Q 2709 3584 3137 3096 
Q 3566 2609 3566 1747 
Q 3566 888 3137 398 
Q 2709 -91 1959 -91 
Q 1206 -91 779 398 
Q 353 888 353 1747 
Q 353 2609 779 3096 
Q 1206 3584 1959 3584 
z
" transform="scale(0.015625)"/>
       <path id="DejaVuSans-63" d="M 3122 3366 
L 3122 2828 
Q 2878 2963 2633 3030 
Q 2388 3097 2138 3097 
Q 1578 3097 1268 2742 
Q 959 2388 959 1747 
Q 959 1106 1268 751 
Q 1578 397 2138 397 
Q 2388 397 2633 464 
Q 2878 531 3122 666 
L 3122 134 
Q 2881 22 2623 -34 
Q 2366 -91 2075 -91 
Q 1284 -91 818 406 
Q 353 903 353 1747 
Q 353 2603 823 3093 
Q 1294 3584 2113 3584 
Q 2378 3584 2631 3529 
Q 2884 3475 3122 3366 
z
" transform="scale(0.015625)"/>
       <path id="DejaVuSans-68" d="M 3513 2113 
L 3513 0 
L 2938 0 
L 2938 2094 
Q 2938 2591 2744 2837 
Q 2550 3084 2163 3084 
Q 1697 3084 1428 2787 
Q 1159 2491 1159 1978 
L 1159 0 
L 581 0 
L 581 4863 
L 1159 4863 
L 1159 2956 
Q 1366 3272 1645 3428 
Q 1925 3584 2291 3584 
Q 2894 3584 3203 3211 
Q 3513 2838 3513 2113 
z
" transform="scale(0.015625)"/>
       <path id="DejaVuSans-73" d="M 2834 3397 
L 2834 2853 
Q 2591 2978 2328 3040 
Q 2066 3103 1784 3103 
Q 1356 3103 1142 2972 
Q 928 2841 928 2578 
Q 928 2378 1081 2264 
Q 1234 2150 1697 2047 
L 1894 2003 
Q 2506 1872 2764 1633 
Q 3022 1394 3022 966 
Q 3022 478 2636 193 
Q 2250 -91 1575 -91 
Q 1294 -91 989 -36 
Q 684 19 347 128 
L 347 722 
Q 666 556 975 473 
Q 1284 391 1588 391 
Q 1994 391 2212 530 
Q 2431 669 2431 922 
Q 2431 1156 2273 1281 
Q 2116 1406 1581 1522 
L 1381 1569 
Q 847 1681 609 1914 
Q 372 2147 372 2553 
Q 372 3047 722 3315 
Q 1072 3584 1716 3584 
Q 2034 3584 2315 3537 
Q 2597 3491 2834 3397 
z
" transform="scale(0.015625)"/>
      </defs>
      <use xlink:href="#DejaVuSans-45"/>
      <use xlink:href="#DejaVuSans-70" x="63.183594"/>
      <use xlink:href="#DejaVuSans-6f" x="126.660156"/>
      <use xlink:href="#DejaVuSans-63" x="187.841797"/>
      <use xlink:href="#DejaVuSans-68" x="242.822266"/>
      <use xlink:href="#DejaVuSans-73" x="306.201172"/>
     </g>
    </g>
   </g>
   <g id="matplotlib.axis_2">
    <g id="ytick_1">
     <g id="line2d_13">
      <path d="M 108 174.388268 
L 777.6 174.388268 
" clip-path="url(#p7750b8632c)" style="fill: none; stroke: #cccccc; stroke-width: 0.8; stroke-linecap: round"/>
     </g>
     <g id="line2d_14"/>
     <g id="text_8">
      <!-- 0.5 -->
      <g style="fill: #262626" transform="translate(88.596875 178.187487) scale(0.1 -0.1)">
       <defs>
        <path id="DejaVuSans-2e" d="M 684 794 
L 1344 794 
L 1344 0 
L 684 0 
L 684 794 
z
" transform="scale(0.015625)"/>
       </defs>
       <use xlink:href="#DejaVuSans-30"/>
       <use xlink:href="#DejaVuSans-2e" x="63.623047"/>
       <use xlink:href="#DejaVuSans-35" x="95.410156"/>
      </g>
     </g>
    </g>
    <g id="ytick_2">
     <g id="line2d_15">
      <path d="M 108 148.266722 
L 777.6 148.266722 
" clip-path="url(#p7750b8632c)" style="fill: none; stroke: #cccccc; stroke-width: 0.8; stroke-linecap: round"/>
     </g>
     <g id="line2d_16"/>
     <g id="text_9">
      <!-- 0.6 -->
      <g style="fill: #262626" transform="translate(88.596875 152.065941) scale(0.1 -0.1)">
       <defs>
        <path id="DejaVuSans-36" d="M 2113 2584 
Q 1688 2584 1439 2293 
Q 1191 2003 1191 1497 
Q 1191 994 1439 701 
Q 1688 409 2113 409 
Q 2538 409 2786 701 
Q 3034 994 3034 1497 
Q 3034 2003 2786 2293 
Q 2538 2584 2113 2584 
z
M 3366 4563 
L 3366 3988 
Q 3128 4100 2886 4159 
Q 2644 4219 2406 4219 
Q 1781 4219 1451 3797 
Q 1122 3375 1075 2522 
Q 1259 2794 1537 2939 
Q 1816 3084 2150 3084 
Q 2853 3084 3261 2657 
Q 3669 2231 3669 1497 
Q 3669 778 3244 343 
Q 2819 -91 2113 -91 
Q 1303 -91 875 529 
Q 447 1150 447 2328 
Q 447 3434 972 4092 
Q 1497 4750 2381 4750 
Q 2619 4750 2861 4703 
Q 3103 4656 3366 4563 
z
" transform="scale(0.015625)"/>
       </defs>
       <use xlink:href="#DejaVuSans-30"/>
       <use xlink:href="#DejaVuSans-2e" x="63.623047"/>
       <use xlink:href="#DejaVuSans-36" x="95.410156"/>
      </g>
     </g>
    </g>
    <g id="ytick_3">
     <g id="line2d_17">
      <path d="M 108 122.145176 
L 777.6 122.145176 
" clip-path="url(#p7750b8632c)" style="fill: none; stroke: #cccccc; stroke-width: 0.8; stroke-linecap: round"/>
     </g>
     <g id="line2d_18"/>
     <g id="text_10">
      <!-- 0.7 -->
      <g style="fill: #262626" transform="translate(88.596875 125.944394) scale(0.1 -0.1)">
       <defs>
        <path id="DejaVuSans-37" d="M 525 4666 
L 3525 4666 
L 3525 4397 
L 1831 0 
L 1172 0 
L 2766 4134 
L 525 4134 
L 525 4666 
z
" transform="scale(0.015625)"/>
       </defs>
       <use xlink:href="#DejaVuSans-30"/>
       <use xlink:href="#DejaVuSans-2e" x="63.623047"/>
       <use xlink:href="#DejaVuSans-37" x="95.410156"/>
      </g>
     </g>
    </g>
    <g id="ytick_4">
     <g id="line2d_19">
      <path d="M 108 96.023629 
L 777.6 96.023629 
" clip-path="url(#p7750b8632c)" style="fill: none; stroke: #cccccc; stroke-width: 0.8; stroke-linecap: round"/>
     </g>
     <g id="line2d_20"/>
     <g id="text_11">
      <!-- 0.8 -->
      <g style="fill: #262626" transform="translate(88.596875 99.822848) scale(0.1 -0.1)">
       <defs>
        <path id="DejaVuSans-38" d="M 2034 2216 
Q 1584 2216 1326 1975 
Q 1069 1734 1069 1313 
Q 1069 891 1326 650 
Q 1584 409 2034 409 
Q 2484 409 2743 651 
Q 3003 894 3003 1313 
Q 3003 1734 2745 1975 
Q 2488 2216 2034 2216 
z
M 1403 2484 
Q 997 2584 770 2862 
Q 544 3141 544 3541 
Q 544 4100 942 4425 
Q 1341 4750 2034 4750 
Q 2731 4750 3128 4425 
Q 3525 4100 3525 3541 
Q 3525 3141 3298 2862 
Q 3072 2584 2669 2484 
Q 3125 2378 3379 2068 
Q 3634 1759 3634 1313 
Q 3634 634 3220 271 
Q 2806 -91 2034 -91 
Q 1263 -91 848 271 
Q 434 634 434 1313 
Q 434 1759 690 2068 
Q 947 2378 1403 2484 
z
M 1172 3481 
Q 1172 3119 1398 2916 
Q 1625 2713 2034 2713 
Q 2441 2713 2670 2916 
Q 2900 3119 2900 3481 
Q 2900 3844 2670 4047 
Q 2441 4250 2034 4250 
Q 1625 4250 1398 4047 
Q 1172 3844 1172 3481 
z
" transform="scale(0.015625)"/>
       </defs>
       <use xlink:href="#DejaVuSans-30"/>
       <use xlink:href="#DejaVuSans-2e" x="63.623047"/>
       <use xlink:href="#DejaVuSans-38" x="95.410156"/>
      </g>
     </g>
    </g>
    <g id="ytick_5">
     <g id="line2d_21">
      <path d="M 108 69.902083 
L 777.6 69.902083 
" clip-path="url(#p7750b8632c)" style="fill: none; stroke: #cccccc; stroke-width: 0.8; stroke-linecap: round"/>
     </g>
     <g id="line2d_22"/>
     <g id="text_12">
      <!-- 0.9 -->
      <g style="fill: #262626" transform="translate(88.596875 73.701302) scale(0.1 -0.1)">
       <defs>
        <path id="DejaVuSans-39" d="M 703 97 
L 703 672 
Q 941 559 1184 500 
Q 1428 441 1663 441 
Q 2288 441 2617 861 
Q 2947 1281 2994 2138 
Q 2813 1869 2534 1725 
Q 2256 1581 1919 1581 
Q 1219 1581 811 2004 
Q 403 2428 403 3163 
Q 403 3881 828 4315 
Q 1253 4750 1959 4750 
Q 2769 4750 3195 4129 
Q 3622 3509 3622 2328 
Q 3622 1225 3098 567 
Q 2575 -91 1691 -91 
Q 1453 -91 1209 -44 
Q 966 3 703 97 
z
M 1959 2075 
Q 2384 2075 2632 2365 
Q 2881 2656 2881 3163 
Q 2881 3666 2632 3958 
Q 2384 4250 1959 4250 
Q 1534 4250 1286 3958 
Q 1038 3666 1038 3163 
Q 1038 2656 1286 2365 
Q 1534 2075 1959 2075 
z
" transform="scale(0.015625)"/>
       </defs>
       <use xlink:href="#DejaVuSans-30"/>
       <use xlink:href="#DejaVuSans-2e" x="63.623047"/>
       <use xlink:href="#DejaVuSans-39" x="95.410156"/>
      </g>
     </g>
    </g>
    <g id="text_13">
     <!-- Accuracy -->
     <g style="fill: #262626" transform="translate(82.517187 141.196125) rotate(-90) scale(0.1 -0.1)">
      <defs>
       <path id="DejaVuSans-41" d="M 2188 4044 
L 1331 1722 
L 3047 1722 
L 2188 4044 
z
M 1831 4666 
L 2547 4666 
L 4325 0 
L 3669 0 
L 3244 1197 
L 1141 1197 
L 716 0 
L 50 0 
L 1831 4666 
z
" transform="scale(0.015625)"/>
       <path id="DejaVuSans-75" d="M 544 1381 
L 544 3500 
L 1119 3500 
L 1119 1403 
Q 1119 906 1312 657 
Q 1506 409 1894 409 
Q 2359 409 2629 706 
Q 2900 1003 2900 1516 
L 2900 3500 
L 3475 3500 
L 3475 0 
L 2900 0 
L 2900 538 
Q 2691 219 2414 64 
Q 2138 -91 1772 -91 
Q 1169 -91 856 284 
Q 544 659 544 1381 
z
M 1991 3584 
L 1991 3584 
z
" transform="scale(0.015625)"/>
       <path id="DejaVuSans-72" d="M 2631 2963 
Q 2534 3019 2420 3045 
Q 2306 3072 2169 3072 
Q 1681 3072 1420 2755 
Q 1159 2438 1159 1844 
L 1159 0 
L 581 0 
L 581 3500 
L 1159 3500 
L 1159 2956 
Q 1341 3275 1631 3429 
Q 1922 3584 2338 3584 
Q 2397 3584 2469 3576 
Q 2541 3569 2628 3553 
L 2631 2963 
z
" transform="scale(0.015625)"/>
       <path id="DejaVuSans-61" d="M 2194 1759 
Q 1497 1759 1228 1600 
Q 959 1441 959 1056 
Q 959 750 1161 570 
Q 1363 391 1709 391 
Q 2188 391 2477 730 
Q 2766 1069 2766 1631 
L 2766 1759 
L 2194 1759 
z
M 3341 1997 
L 3341 0 
L 2766 0 
L 2766 531 
Q 2569 213 2275 61 
Q 1981 -91 1556 -91 
Q 1019 -91 701 211 
Q 384 513 384 1019 
Q 384 1609 779 1909 
Q 1175 2209 1959 2209 
L 2766 2209 
L 2766 2266 
Q 2766 2663 2505 2880 
Q 2244 3097 1772 3097 
Q 1472 3097 1187 3025 
Q 903 2953 641 2809 
L 641 3341 
Q 956 3463 1253 3523 
Q 1550 3584 1831 3584 
Q 2591 3584 2966 3190 
Q 3341 2797 3341 1997 
z
" transform="scale(0.015625)"/>
       <path id="DejaVuSans-79" d="M 2059 -325 
Q 1816 -950 1584 -1140 
Q 1353 -1331 966 -1331 
L 506 -1331 
L 506 -850 
L 844 -850 
Q 1081 -850 1212 -737 
Q 1344 -625 1503 -206 
L 1606 56 
L 191 3500 
L 800 3500 
L 1894 763 
L 2988 3500 
L 3597 3500 
L 2059 -325 
z
" transform="scale(0.015625)"/>
      </defs>
      <use xlink:href="#DejaVuSans-41"/>
      <use xlink:href="#DejaVuSans-63" x="66.658203"/>
      <use xlink:href="#DejaVuSans-63" x="121.638672"/>
      <use xlink:href="#DejaVuSans-75" x="176.619141"/>
      <use xlink:href="#DejaVuSans-72" x="239.998047"/>
      <use xlink:href="#DejaVuSans-61" x="281.111328"/>
      <use xlink:href="#DejaVuSans-63" x="342.390625"/>
      <use xlink:href="#DejaVuSans-79" x="397.371094"/>
     </g>
    </g>
   </g>
   <g id="line2d_23">
    <path d="M 138.436364 110.04019 
L 150.859369 131.974975 
L 163.282375 136.434706 
L 175.70538 134.523393 
L 188.128386 136.980647 
L 200.551391 135.615535 
L 212.974397 134.796363 
L 225.397403 136.434706 
L 237.820408 134.97843 
L 250.243414 140.621468 
L 262.666419 137.799818 
L 275.089425 137.799818 
L 287.51243 136.889744 
L 299.935436 137.526848 
L 312.358442 136.252639 
L 324.781447 134.70546 
L 337.204453 134.97843 
L 349.627458 135.342564 
L 362.050464 136.616774 
L 374.473469 134.887266 
L 386.896475 136.161736 
L 399.319481 136.161736 
L 411.742486 136.616774 
L 424.165492 135.888505 
L 436.588497 136.070572 
L 449.011503 137.435945 
L 461.434508 135.797602 
L 473.857514 137.981886 
L 486.280519 138.61899 
L 498.703525 141.531542 
L 511.126531 142.077744 
L 523.549536 140.439401 
L 535.972542 144.808229 
L 548.395547 143.80699 
L 560.818553 147.356647 
L 573.241558 147.17458 
L 585.664564 148.357625 
L 598.08757 154.18273 
L 610.510575 154.4557 
L 622.933581 154.000663 
L 635.356586 156.640245 
L 647.779592 159.461633 
L 660.202597 160.735842 
L 672.625603 162.647156 
L 685.048609 162.73832 
L 697.471614 161.827984 
L 709.89462 161.008812 
L 722.317625 161.099977 
L 734.740631 162.920387 
L 747.163636 159.552797 
" clip-path="url(#p7750b8632c)" style="fill: none; stroke: #1f77b4; stroke-width: 1.5; stroke-linecap: round"/>
   </g>
   <g id="line2d_24">
    <path d="M 138.436364 68.900844 
L 150.859369 59.981381 
L 163.282375 59.981381 
L 175.70538 60.800552 
L 188.128386 60.891455 
L 200.551391 61.164687 
L 212.974397 60.527321 
L 225.397403 59.981381 
L 237.820408 60.709388 
L 250.243414 61.437657 
L 262.666419 61.52856 
L 275.089425 60.163448 
L 287.51243 59.890217 
L 299.935436 59.981381 
L 312.358442 60.800552 
L 324.781447 60.163448 
L 337.204453 60.254351 
L 349.627458 60.527321 
L 362.050464 59.253112 
L 374.473469 60.709388 
L 386.896475 60.709388 
L 399.319481 60.436418 
L 411.742486 60.163448 
L 424.165492 60.436418 
L 436.588497 59.617246 
L 449.011503 60.436418 
L 461.434508 60.527321 
L 473.857514 60.436418 
L 486.280519 60.254351 
L 498.703525 60.163448 
L 511.126531 60.618485 
L 523.549536 60.800552 
L 535.972542 60.436418 
L 548.395547 60.436418 
L 560.818553 61.346493 
L 573.241558 60.254351 
L 585.664564 60.163448 
L 598.08757 60.618485 
L 610.510575 59.981381 
L 622.933581 59.890217 
L 635.356586 60.345515 
L 647.779592 61.073523 
L 660.202597 60.618485 
L 672.625603 59.799314 
L 685.048609 60.891455 
L 697.471614 60.072284 
L 709.89462 59.981381 
L 722.317625 61.073523 
L 734.740631 60.98262 
L 747.163636 60.618485 
" clip-path="url(#p7750b8632c)" style="fill: none; stroke: #ff7f0e; stroke-width: 1.5; stroke-linecap: round"/>
   </g>
   <g id="line2d_25">
    <path d="M 138.436364 102.940876 
L 150.859369 118.413451 
L 163.282375 135.160497 
L 175.70538 138.983124 
L 188.128386 139.347259 
L 200.551391 141.440639 
L 212.974397 141.71361 
L 225.397403 140.530304 
L 237.820408 143.897893 
L 250.243414 142.077744 
L 262.666419 139.711132 
L 275.089425 140.16643 
L 287.51243 140.439401 
L 299.935436 140.712371 
L 312.358442 137.617751 
L 324.781447 145.809207 
L 337.204453 146.90161 
L 349.627458 145.445334 
L 362.050464 145.809207 
L 374.473469 147.629617 
L 386.896475 145.718304 
L 399.319481 147.265483 
L 411.742486 146.537476 
L 424.165492 145.62714 
L 436.588497 144.352931 
L 449.011503 143.897893 
L 461.434508 143.53402 
L 473.857514 144.534998 
L 486.280519 145.445334 
L 498.703525 143.260789 
L 511.126531 145.991274 
L 523.549536 145.900371 
L 535.972542 143.442856 
L 548.395547 140.348236 
L 560.818553 140.348236 
L 573.241558 138.528087 
L 585.664564 140.803535 
L 598.08757 136.343542 
L 610.510575 138.34602 
L 622.933581 141.440639 
L 635.356586 139.620229 
L 647.779592 138.983124 
L 660.202597 140.439401 
L 672.625603 141.076505 
L 685.048609 140.439401 
L 697.471614 144.444095 
L 709.89462 144.990035 
L 722.317625 144.626162 
L 734.740631 145.991274 
L 747.163636 143.989058 
" clip-path="url(#p7750b8632c)" style="fill: none; stroke: #2ca02c; stroke-width: 1.5; stroke-linecap: round"/>
   </g>
   <g id="line2d_26">
    <path d="M 138.436364 171.930753 
L 150.859369 175.662477 
L 163.282375 176.117515 
L 175.70538 177.482888 
L 188.128386 178.848 
L 200.551391 176.572552 
L 212.974397 177.118754 
L 225.397403 175.298343 
L 237.820408 176.936686 
L 250.243414 177.391724 
L 262.666419 176.299582 
L 275.089425 177.937925 
L 287.51243 175.75338 
L 299.935436 177.573791 
L 312.358442 177.209657 
L 324.781447 177.118754 
L 337.204453 175.571574 
L 349.627458 176.390746 
L 362.050464 175.662477 
L 374.473469 176.481649 
L 386.896475 176.299582 
L 399.319481 177.118754 
L 411.742486 176.754619 
L 424.165492 177.391724 
L 436.588497 177.209657 
L 449.011503 178.210895 
L 461.434508 178.119993 
L 473.857514 175.935448 
L 486.280519 177.482888 
L 498.703525 175.935448 
L 511.126531 176.208679 
L 523.549536 176.026612 
L 535.972542 177.118754 
L 548.395547 175.48041 
L 560.818553 177.664955 
L 573.241558 178.757097 
L 585.664564 176.936686 
L 598.08757 177.027851 
L 610.510575 177.482888 
L 622.933581 177.664955 
L 635.356586 175.662477 
L 647.779592 178.757097 
L 660.202597 176.845783 
L 672.625603 175.571574 
L 685.048609 178.848 
L 697.471614 178.028828 
L 709.89462 177.391724 
L 722.317625 177.482888 
L 734.740631 178.210895 
L 747.163636 177.482888 
" clip-path="url(#p7750b8632c)" style="fill: none; stroke: #d62728; stroke-width: 1.5; stroke-linecap: round"/>
   </g>
   <g id="line2d_27">
    <path d="M 138.436364 145.081199 
L 150.859369 145.263267 
L 163.282375 165.741775 
L 175.70538 166.287977 
L 188.128386 165.559708 
L 200.551391 166.925081 
L 212.974397 164.467566 
L 225.397403 166.196813 
L 237.820408 166.287977 
L 250.243414 165.923842 
L 262.666419 166.833917 
L 275.089425 167.562186 
L 287.51243 166.65185 
L 299.935436 165.832678 
L 312.358442 166.37888 
L 324.781447 166.37888 
L 337.204453 167.015984 
L 349.627458 165.468805 
L 362.050464 165.559708 
L 374.473469 167.198052 
L 386.896475 164.831701 
L 399.319481 165.741775 
L 411.742486 166.10591 
L 424.165492 166.925081 
L 436.588497 165.013507 
L 449.011503 163.739298 
L 461.434508 165.468805 
L 473.857514 166.196813 
L 486.280519 164.012529 
L 498.703525 165.104671 
L 511.126531 167.198052 
L 523.549536 165.741775 
L 535.972542 165.104671 
L 548.395547 164.649633 
L 560.818553 165.013507 
L 573.241558 164.376402 
L 585.664564 165.013507 
L 598.08757 165.741775 
L 610.510575 164.376402 
L 622.933581 166.37888 
L 635.356586 164.285499 
L 647.779592 165.468805 
L 660.202597 163.739298 
L 672.625603 165.923842 
L 685.048609 163.193357 
L 697.471614 163.921365 
L 709.89462 165.104671 
L 722.317625 166.014745 
L 734.740631 163.830462 
L 747.163636 166.833917 
" clip-path="url(#p7750b8632c)" style="fill: none; stroke: #9467bd; stroke-width: 1.5; stroke-linecap: round"/>
   </g>
   <g id="line2d_28">
    <path d="M 138.436364 69.902083 
L 150.859369 62.347732 
L 163.282375 59.799314 
L 175.70538 59.162209 
L 188.128386 59.617246 
L 200.551391 59.981381 
L 212.974397 59.435179 
L 225.397403 60.345515 
L 237.820408 59.799314 
L 250.243414 59.253112 
L 262.666419 59.799314 
L 275.089425 60.618485 
L 287.51243 59.071306 
L 299.935436 59.799314 
L 312.358442 59.799314 
L 324.781447 59.981381 
L 337.204453 58.252134 
L 349.627458 59.617246 
L 362.050464 60.345515 
L 374.473469 59.708411 
L 386.896475 59.981381 
L 399.319481 58.980142 
L 411.742486 59.253112 
L 424.165492 59.981381 
L 436.588497 59.617246 
L 449.011503 60.163448 
L 461.434508 58.343037 
L 473.857514 58.707172 
L 486.280519 58.980142 
L 498.703525 58.434202 
L 511.126531 59.890217 
L 523.549536 59.253112 
L 535.972542 59.708411 
L 548.395547 59.071306 
L 560.818553 58.707172 
L 573.241558 58.798075 
L 585.664564 60.072284 
L 598.08757 59.071306 
L 610.510575 59.981381 
L 622.933581 58.616007 
L 635.356586 60.163448 
L 647.779592 58.434202 
L 660.202597 58.798075 
L 672.625603 58.616007 
L 685.048609 59.162209 
L 697.471614 58.889239 
L 709.89462 59.617246 
L 722.317625 59.617246 
L 734.740631 59.526343 
L 747.163636 59.253112 
" clip-path="url(#p7750b8632c)" style="fill: none; stroke: #8c564b; stroke-width: 1.5; stroke-linecap: round"/>
   </g>
   <g id="line2d_29">
    <path d="M 138.436364 171.202746 
L 150.859369 172.021917 
L 163.282375 172.021917 
L 175.70538 172.021917 
L 188.128386 172.021917 
L 200.551391 172.021917 
L 212.974397 172.021917 
L 225.397403 172.021917 
L 237.820408 172.021917 
L 250.243414 172.021917 
L 262.666419 172.021917 
L 275.089425 172.021917 
L 287.51243 172.021917 
L 299.935436 172.021917 
L 312.358442 172.021917 
L 324.781447 172.021917 
L 337.204453 172.021917 
L 349.627458 172.021917 
L 362.050464 172.021917 
L 374.473469 172.021917 
L 386.896475 172.021917 
L 399.319481 172.021917 
L 411.742486 172.021917 
L 424.165492 172.021917 
L 436.588497 172.021917 
L 449.011503 172.021917 
L 461.434508 172.021917 
L 473.857514 172.021917 
L 486.280519 172.021917 
L 498.703525 172.021917 
L 511.126531 172.021917 
L 523.549536 172.021917 
L 535.972542 172.021917 
L 548.395547 171.930753 
L 560.818553 172.021917 
L 573.241558 172.021917 
L 585.664564 171.748686 
L 598.08757 172.021917 
L 610.510575 171.930753 
L 622.933581 172.021917 
L 635.356586 171.930753 
L 647.779592 171.930753 
L 660.202597 173.023156 
L 672.625603 171.202746 
L 685.048609 173.842067 
L 697.471614 171.657783 
L 709.89462 171.475716 
L 722.317625 172.385791 
L 734.740631 173.023156 
L 747.163636 172.749925 
" clip-path="url(#p7750b8632c)" style="fill: none; stroke: #e377c2; stroke-width: 1.5; stroke-linecap: round"/>
   </g>
   <g id="line2d_30">
    <path d="M 138.436364 69.355881 
L 150.859369 60.436418 
L 163.282375 59.435179 
L 175.70538 59.435179 
L 188.128386 59.344276 
L 200.551391 59.526343 
L 212.974397 60.072284 
L 225.397403 58.889239 
L 237.820408 59.344276 
L 250.243414 60.345515 
L 262.666419 60.072284 
L 275.089425 58.525105 
L 287.51243 58.798075 
L 299.935436 60.254351 
L 312.358442 59.071306 
L 324.781447 59.708411 
L 337.204453 59.253112 
L 349.627458 59.435179 
L 362.050464 58.434202 
L 374.473469 59.617246 
L 386.896475 59.344276 
L 399.319481 59.708411 
L 411.742486 59.708411 
L 424.165492 58.889239 
L 436.588497 59.253112 
L 449.011503 58.616007 
L 461.434508 60.436418 
L 473.857514 59.435179 
L 486.280519 58.889239 
L 498.703525 59.162209 
L 511.126531 59.435179 
L 523.549536 58.980142 
L 535.972542 60.527321 
L 548.395547 59.344276 
L 560.818553 58.980142 
L 573.241558 58.798075 
L 585.664564 59.890217 
L 598.08757 58.525105 
L 610.510575 59.526343 
L 622.933581 58.707172 
L 635.356586 59.617246 
L 647.779592 58.707172 
L 660.202597 58.707172 
L 672.625603 58.889239 
L 685.048609 59.071306 
L 697.471614 59.162209 
L 709.89462 58.889239 
L 722.317625 58.343037 
L 734.740631 58.707172 
L 747.163636 59.253112 
" clip-path="url(#p7750b8632c)" style="fill: none; stroke: #7f7f7f; stroke-width: 1.5; stroke-linecap: round"/>
   </g>
   <g id="line2d_31">
    <path d="M 138.436364 145.900371 
L 150.859369 158.096521 
L 163.282375 175.116276 
L 175.70538 175.571574 
L 188.128386 175.571574 
L 200.551391 175.48041 
L 212.974397 175.389507 
L 225.397403 175.662477 
L 237.820408 175.298343 
L 250.243414 175.389507 
L 262.666419 175.844545 
L 275.089425 174.93447 
L 287.51243 175.48041 
L 299.935436 175.116276 
L 312.358442 174.570336 
L 324.781447 175.025373 
L 337.204453 175.389507 
L 349.627458 175.116276 
L 362.050464 174.661239 
L 374.473469 174.752403 
L 386.896475 175.48041 
L 399.319481 175.025373 
L 411.742486 174.479171 
L 424.165492 174.752403 
L 436.588497 175.389507 
L 449.011503 175.571574 
L 461.434508 174.752403 
L 473.857514 174.115298 
L 486.280519 174.024134 
L 498.703525 174.297365 
L 511.126531 174.661239 
L 523.549536 173.296127 
L 535.972542 175.571574 
L 548.395547 175.20744 
L 560.818553 175.20744 
L 573.241558 175.116276 
L 585.664564 174.843306 
L 598.08757 175.116276 
L 610.510575 173.933231 
L 622.933581 173.478194 
L 635.356586 174.570336 
L 647.779592 174.115298 
L 660.202597 174.479171 
L 672.625603 173.569097 
L 685.048609 174.661239 
L 697.471614 173.751164 
L 709.89462 173.933231 
L 722.317625 173.842067 
L 734.740631 174.206201 
L 747.163636 173.478194 
" clip-path="url(#p7750b8632c)" style="fill: none; stroke: #bcbd22; stroke-width: 1.5; stroke-linecap: round"/>
   </g>
   <g id="line2d_32">
    <path d="M 138.436364 70.08415 
L 150.859369 62.438896 
L 163.282375 62.347732 
L 175.70538 62.438896 
L 188.128386 62.438896 
L 200.551391 63.076 
L 212.974397 61.983597 
L 225.397403 62.620702 
L 237.820408 62.711866 
L 250.243414 60.800552 
L 262.666419 61.801791 
L 275.089425 62.347732 
L 287.51243 61.619724 
L 299.935436 62.438896 
L 312.358442 62.347732 
L 324.781447 62.256829 
L 337.204453 62.347732 
L 349.627458 63.076 
L 362.050464 62.711866 
L 374.473469 61.983597 
L 386.896475 63.439873 
L 399.319481 62.165664 
L 411.742486 62.438896 
L 424.165492 62.529799 
L 436.588497 61.346493 
L 449.011503 61.52856 
L 461.434508 61.073523 
L 473.857514 61.073523 
L 486.280519 61.892694 
L 498.703525 60.800552 
L 511.126531 62.256829 
L 523.549536 60.709388 
L 535.972542 62.165664 
L 548.395547 61.25559 
L 560.818553 61.801791 
L 573.241558 61.437657 
L 585.664564 60.98262 
L 598.08757 61.437657 
L 610.510575 61.710627 
L 622.933581 62.074761 
L 635.356586 61.52856 
L 647.779592 61.983597 
L 660.202597 61.52856 
L 672.625603 61.892694 
L 685.048609 61.619724 
L 697.471614 61.892694 
L 709.89462 61.801791 
L 722.317625 60.709388 
L 734.740631 62.074761 
L 747.163636 61.983597 
" clip-path="url(#p7750b8632c)" style="fill: none; stroke: #17becf; stroke-width: 1.5; stroke-linecap: round"/>
   </g>
   <g id="line2d_33">
    <path d="M 138.436364 109.493988 
L 150.859369 132.794146 
L 163.282375 148.175819 
L 175.70538 148.448789 
L 188.128386 144.808229 
L 200.551391 152.635551 
L 212.974397 158.733626 
L 225.397403 154.910999 
L 237.820408 157.368252 
L 250.243414 155.366036 
L 262.666419 153.454722 
L 275.089425 157.732387 
L 287.51243 161.008812 
L 299.935436 161.464111 
L 312.358442 166.10591 
L 324.781447 170.201507 
L 337.204453 168.108126 
L 349.627458 171.202746 
L 362.050464 172.567858 
L 374.473469 172.567858 
L 386.896475 172.11282 
L 399.319481 174.388268 
L 411.742486 175.844545 
L 424.165492 175.844545 
L 436.588497 175.935448 
L 449.011503 175.75338 
L 461.434508 176.299582 
L 473.857514 176.663716 
L 486.280519 176.299582 
L 498.703525 175.935448 
L 511.126531 176.572552 
L 523.549536 176.663716 
L 535.972542 176.663716 
L 548.395547 176.754619 
L 560.818553 176.754619 
L 573.241558 176.663716 
L 585.664564 176.754619 
L 598.08757 176.845783 
L 610.510575 176.845783 
L 622.933581 176.936686 
L 635.356586 176.572552 
L 647.779592 176.299582 
L 660.202597 175.75338 
L 672.625603 170.110604 
L 685.048609 166.833917 
L 697.471614 166.65185 
L 709.89462 160.553775 
L 722.317625 155.366036 
L 734.740631 145.536237 
L 747.163636 147.265483 
" clip-path="url(#p7750b8632c)" style="fill: none; stroke: #1f77b4; stroke-width: 1.5; stroke-linecap: round"/>
   </g>
   <g id="line2d_34">
    <path d="M 138.436364 74.361814 
L 150.859369 60.800552 
L 163.282375 59.981381 
L 175.70538 60.072284 
L 188.128386 60.618485 
L 200.551391 59.526343 
L 212.974397 61.164687 
L 225.397403 61.346493 
L 237.820408 61.710627 
L 250.243414 60.98262 
L 262.666419 60.072284 
L 275.089425 61.073523 
L 287.51243 60.072284 
L 299.935436 60.891455 
L 312.358442 61.25559 
L 324.781447 60.98262 
L 337.204453 60.345515 
L 349.627458 61.619724 
L 362.050464 60.98262 
L 374.473469 60.527321 
L 386.896475 59.526343 
L 399.319481 60.98262 
L 411.742486 59.071306 
L 424.165492 62.165664 
L 436.588497 60.527321 
L 449.011503 60.800552 
L 461.434508 60.527321 
L 473.857514 60.891455 
L 486.280519 60.345515 
L 498.703525 61.164687 
L 511.126531 61.073523 
L 523.549536 60.163448 
L 535.972542 59.981381 
L 548.395547 60.072284 
L 560.818553 60.072284 
L 573.241558 61.437657 
L 585.664564 59.890217 
L 598.08757 61.164687 
L 610.510575 59.253112 
L 622.933581 61.164687 
L 635.356586 59.617246 
L 647.779592 62.165664 
L 660.202597 60.254351 
L 672.625603 60.98262 
L 685.048609 59.344276 
L 697.471614 60.891455 
L 709.89462 61.164687 
L 722.317625 59.799314 
L 734.740631 60.618485 
L 747.163636 60.709388 
" clip-path="url(#p7750b8632c)" style="fill: none; stroke: #ff7f0e; stroke-width: 1.5; stroke-linecap: round"/>
   </g>
   <g id="line2d_35">
    <path d="M 138.436364 120.506832 
L 150.859369 115.682966 
L 163.282375 68.718777 
L 175.70538 69.264978 
L 188.128386 70.812158 
L 200.551391 69.992986 
L 212.974397 71.995464 
L 225.397403 70.539187 
L 237.820408 70.08415 
L 250.243414 70.812158 
L 262.666419 70.721255 
L 275.089425 69.720016 
L 287.51243 70.08415 
L 299.935436 71.449262 
L 312.358442 70.903322 
L 324.781447 70.812158 
L 337.204453 70.35712 
L 349.627458 68.354904 
L 362.050464 71.085389 
L 374.473469 72.632568 
L 386.896475 69.992986 
L 399.319481 69.264978 
L 411.742486 70.08415 
L 424.165492 68.081672 
L 436.588497 69.720016 
L 449.011503 69.174075 
L 461.434508 70.175053 
L 473.857514 67.808702 
L 486.280519 70.994225 
L 498.703525 69.992986 
L 511.126531 70.903322 
L 523.549536 71.085389 
L 535.972542 70.448284 
L 548.395547 70.812158 
L 560.818553 70.812158 
L 573.241558 69.902083 
L 585.664564 70.903322 
L 598.08757 70.175053 
L 610.510575 70.539187 
L 622.933581 70.448284 
L 635.356586 70.266217 
L 647.779592 70.721255 
L 660.202597 70.812158 
L 672.625603 70.721255 
L 685.048609 68.718777 
L 697.471614 70.35712 
L 709.89462 67.262501 
L 722.317625 69.902083 
L 734.740631 68.172836 
L 747.163636 68.627874 
" clip-path="url(#p7750b8632c)" style="fill: none; stroke: #2ca02c; stroke-width: 1.5; stroke-linecap: round"/>
   </g>
   <g id="line2d_36">
    <path d="M 138.436364 156.276111 
L 150.859369 173.023156 
L 163.282375 174.115298 
L 175.70538 175.116276 
L 188.128386 175.571574 
L 200.551391 174.570336 
L 212.974397 174.297365 
L 225.397403 174.388268 
L 237.820408 175.025373 
L 250.243414 175.025373 
L 262.666419 175.662477 
L 275.089425 176.026612 
L 287.51243 175.116276 
L 299.935436 175.116276 
L 312.358442 174.570336 
L 324.781447 175.662477 
L 337.204453 174.570336 
L 349.627458 175.116276 
L 362.050464 174.752403 
L 374.473469 175.571574 
L 386.896475 175.298343 
L 399.319481 175.48041 
L 411.742486 175.662477 
L 424.165492 174.843306 
L 436.588497 174.752403 
L 449.011503 174.93447 
L 461.434508 176.026612 
L 473.857514 175.48041 
L 486.280519 175.389507 
L 498.703525 175.116276 
L 511.126531 175.389507 
L 523.549536 175.025373 
L 535.972542 175.571574 
L 548.395547 175.662477 
L 560.818553 175.571574 
L 573.241558 175.025373 
L 585.664564 175.116276 
L 598.08757 175.298343 
L 610.510575 175.935448 
L 622.933581 175.48041 
L 635.356586 175.75338 
L 647.779592 176.026612 
L 660.202597 175.844545 
L 672.625603 175.935448 
L 685.048609 176.026612 
L 697.471614 176.481649 
L 709.89462 175.48041 
L 722.317625 176.117515 
L 734.740631 176.390746 
L 747.163636 175.75338 
" clip-path="url(#p7750b8632c)" style="fill: none; stroke: #d62728; stroke-width: 1.5; stroke-linecap: round"/>
   </g>
   <g id="line2d_37">
    <path d="M 138.436364 70.448284 
L 150.859369 62.438896 
L 163.282375 58.707172 
L 175.70538 59.071306 
L 188.128386 59.162209 
L 200.551391 59.253112 
L 212.974397 58.252134 
L 225.397403 58.070067 
L 237.820408 59.526343 
L 250.243414 60.163448 
L 262.666419 58.343037 
L 275.089425 58.798075 
L 287.51243 59.526343 
L 299.935436 59.253112 
L 312.358442 58.980142 
L 324.781447 60.072284 
L 337.204453 59.981381 
L 349.627458 59.071306 
L 362.050464 58.616007 
L 374.473469 59.344276 
L 386.896475 59.344276 
L 399.319481 58.707172 
L 411.742486 59.708411 
L 424.165492 58.889239 
L 436.588497 59.799314 
L 449.011503 59.526343 
L 461.434508 58.343037 
L 473.857514 58.707172 
L 486.280519 59.253112 
L 498.703525 59.344276 
L 511.126531 58.980142 
L 523.549536 58.707172 
L 535.972542 58.343037 
L 548.395547 59.981381 
L 560.818553 59.253112 
L 573.241558 58.616007 
L 585.664564 58.889239 
L 598.08757 58.616007 
L 610.510575 59.071306 
L 622.933581 60.345515 
L 635.356586 58.434202 
L 647.779592 58.525105 
L 660.202597 57.888 
L 672.625603 58.980142 
L 685.048609 59.253112 
L 697.471614 58.980142 
L 709.89462 58.525105 
L 722.317625 59.344276 
L 734.740631 58.889239 
L 747.163636 59.344276 
" clip-path="url(#p7750b8632c)" style="fill: none; stroke: #9467bd; stroke-width: 1.5; stroke-linecap: round"/>
   </g>
   <g id="patch_3">
    <path d="M 108 184.896 
L 108 51.84 
" style="fill: none; stroke: #cccccc; stroke-linejoin: miter; stroke-linecap: square"/>
   </g>
   <g id="patch_4">
    <path d="M 777.6 184.896 
L 777.6 51.84 
" style="fill: none; stroke: #cccccc; stroke-linejoin: miter; stroke-linecap: square"/>
   </g>
   <g id="patch_5">
    <path d="M 108 184.896 
L 777.6 184.896 
" style="fill: none; stroke: #cccccc; stroke-linejoin: miter; stroke-linecap: square"/>
   </g>
   <g id="patch_6">
    <path d="M 108 51.84 
L 777.6 51.84 
" style="fill: none; stroke: #cccccc; stroke-linejoin: miter; stroke-linecap: square"/>
   </g>
   <g id="text_14">
    <!-- Train -->
    <g style="fill: #262626" transform="translate(428.4075 45.84) scale(0.12 -0.12)">
     <defs>
      <path id="DejaVuSans-54" d="M -19 4666 
L 3928 4666 
L 3928 4134 
L 2272 4134 
L 2272 0 
L 1638 0 
L 1638 4134 
L -19 4134 
L -19 4666 
z
" transform="scale(0.015625)"/>
      <path id="DejaVuSans-69" d="M 603 3500 
L 1178 3500 
L 1178 0 
L 603 0 
L 603 3500 
z
M 603 4863 
L 1178 4863 
L 1178 4134 
L 603 4134 
L 603 4863 
z
" transform="scale(0.015625)"/>
      <path id="DejaVuSans-6e" d="M 3513 2113 
L 3513 0 
L 2938 0 
L 2938 2094 
Q 2938 2591 2744 2837 
Q 2550 3084 2163 3084 
Q 1697 3084 1428 2787 
Q 1159 2491 1159 1978 
L 1159 0 
L 581 0 
L 581 3500 
L 1159 3500 
L 1159 2956 
Q 1366 3272 1645 3428 
Q 1925 3584 2291 3584 
Q 2894 3584 3203 3211 
Q 3513 2838 3513 2113 
z
" transform="scale(0.015625)"/>
     </defs>
     <use xlink:href="#DejaVuSans-54"/>
     <use xlink:href="#DejaVuSans-72" x="46.333984"/>
     <use xlink:href="#DejaVuSans-61" x="87.447266"/>
     <use xlink:href="#DejaVuSans-69" x="148.726562"/>
     <use xlink:href="#DejaVuSans-6e" x="176.509766"/>
    </g>
   </g>
   <g id="legend_1">
    <g id="line2d_38">
     <path d="M 721.767187 64.938437 
L 731.767187 64.938437 
L 741.767187 64.938437 
" style="fill: none; stroke: #1f77b4; stroke-width: 1.5; stroke-linecap: round"/>
    </g>
    <g id="text_15">
     <!-- Y7 -->
     <g style="fill: #262626" transform="translate(749.767187 68.438437) scale(0.1 -0.1)">
      <defs>
       <path id="DejaVuSans-59" d="M -13 4666 
L 666 4666 
L 1959 2747 
L 3244 4666 
L 3922 4666 
L 2272 2222 
L 2272 0 
L 1638 0 
L 1638 2222 
L -13 4666 
z
" transform="scale(0.015625)"/>
      </defs>
      <use xlink:href="#DejaVuSans-59"/>
      <use xlink:href="#DejaVuSans-37" x="61.083984"/>
     </g>
    </g>
    <g id="line2d_39">
     <path d="M 721.767187 79.616562 
L 731.767187 79.616562 
L 741.767187 79.616562 
" style="fill: none; stroke: #ff7f0e; stroke-width: 1.5; stroke-linecap: round"/>
    </g>
    <g id="text_16">
     <!-- Y80 -->
     <g style="fill: #262626" transform="translate(749.767187 83.116562) scale(0.1 -0.1)">
      <use xlink:href="#DejaVuSans-59"/>
      <use xlink:href="#DejaVuSans-38" x="61.083984"/>
      <use xlink:href="#DejaVuSans-30" x="124.707031"/>
     </g>
    </g>
    <g id="line2d_40">
     <path d="M 721.767187 94.294688 
L 731.767187 94.294688 
L 741.767187 94.294688 
" style="fill: none; stroke: #2ca02c; stroke-width: 1.5; stroke-linecap: round"/>
    </g>
    <g id="text_17">
     <!-- Y5 -->
     <g style="fill: #262626" transform="translate(749.767187 97.794688) scale(0.1 -0.1)">
      <use xlink:href="#DejaVuSans-59"/>
      <use xlink:href="#DejaVuSans-35" x="61.083984"/>
     </g>
    </g>
    <g id="line2d_41">
     <path d="M 721.767187 108.972812 
L 731.767187 108.972812 
L 741.767187 108.972812 
" style="fill: none; stroke: #d62728; stroke-width: 1.5; stroke-linecap: round"/>
    </g>
    <g id="text_18">
     <!-- Y2 -->
     <g style="fill: #262626" transform="translate(749.767187 112.472812) scale(0.1 -0.1)">
      <use xlink:href="#DejaVuSans-59"/>
      <use xlink:href="#DejaVuSans-32" x="61.083984"/>
     </g>
    </g>
    <g id="line2d_42">
     <path d="M 721.767187 123.650937 
L 731.767187 123.650937 
L 741.767187 123.650937 
" style="fill: none; stroke: #9467bd; stroke-width: 1.5; stroke-linecap: round"/>
    </g>
    <g id="text_19">
     <!-- Y8 -->
     <g style="fill: #262626" transform="translate(749.767187 127.150937) scale(0.1 -0.1)">
      <use xlink:href="#DejaVuSans-59"/>
      <use xlink:href="#DejaVuSans-38" x="61.083984"/>
     </g>
    </g>
    <g id="line2d_43">
     <path d="M 721.767187 138.329062 
L 731.767187 138.329062 
L 741.767187 138.329062 
" style="fill: none; stroke: #8c564b; stroke-width: 1.5; stroke-linecap: round"/>
    </g>
    <g id="text_20">
     <!-- Y40 -->
     <g style="fill: #262626" transform="translate(749.767187 141.829062) scale(0.1 -0.1)">
      <use xlink:href="#DejaVuSans-59"/>
      <use xlink:href="#DejaVuSans-34" x="61.083984"/>
      <use xlink:href="#DejaVuSans-30" x="124.707031"/>
     </g>
    </g>
    <g id="line2d_44">
     <path d="M 721.767187 153.007187 
L 731.767187 153.007187 
L 741.767187 153.007187 
" style="fill: none; stroke: #e377c2; stroke-width: 1.5; stroke-linecap: round"/>
    </g>
    <g id="text_21">
     <!-- Y6 -->
     <g style="fill: #262626" transform="translate(749.767187 156.507187) scale(0.1 -0.1)">
      <use xlink:href="#DejaVuSans-59"/>
      <use xlink:href="#DejaVuSans-36" x="61.083984"/>
     </g>
    </g>
    <g id="line2d_45">
     <path d="M 721.767187 167.685312 
L 731.767187 167.685312 
L 741.767187 167.685312 
" style="fill: none; stroke: #7f7f7f; stroke-width: 1.5; stroke-linecap: round"/>
    </g>
    <g id="text_22">
     <!-- Y30 -->
     <g style="fill: #262626" transform="translate(749.767187 171.185312) scale(0.1 -0.1)">
      <use xlink:href="#DejaVuSans-59"/>
      <use xlink:href="#DejaVuSans-33" x="61.083984"/>
      <use xlink:href="#DejaVuSans-30" x="124.707031"/>
     </g>
    </g>
    <g id="line2d_46">
     <path d="M 721.767187 182.363437 
L 731.767187 182.363437 
L 741.767187 182.363437 
" style="fill: none; stroke: #bcbd22; stroke-width: 1.5; stroke-linecap: round"/>
    </g>
    <g id="text_23">
     <!-- Y14 -->
     <g style="fill: #262626" transform="translate(749.767187 185.863437) scale(0.1 -0.1)">
      <use xlink:href="#DejaVuSans-59"/>
      <use xlink:href="#DejaVuSans-31" x="61.083984"/>
      <use xlink:href="#DejaVuSans-34" x="124.707031"/>
     </g>
    </g>
    <g id="line2d_47">
     <path d="M 721.767187 197.041562 
L 731.767187 197.041562 
L 741.767187 197.041562 
" style="fill: none; stroke: #17becf; stroke-width: 1.5; stroke-linecap: round"/>
    </g>
    <g id="text_24">
     <!-- Y60 -->
     <g style="fill: #262626" transform="translate(749.767187 200.541562) scale(0.1 -0.1)">
      <use xlink:href="#DejaVuSans-59"/>
      <use xlink:href="#DejaVuSans-36" x="61.083984"/>
      <use xlink:href="#DejaVuSans-30" x="124.707031"/>
     </g>
    </g>
    <g id="line2d_48">
     <path d="M 721.767187 211.719687 
L 731.767187 211.719687 
L 741.767187 211.719687 
" style="fill: none; stroke: #1f77b4; stroke-width: 1.5; stroke-linecap: round"/>
    </g>
    <g id="text_25">
     <!-- Y3 -->
     <g style="fill: #262626" transform="translate(749.767187 215.219687) scale(0.1 -0.1)">
      <use xlink:href="#DejaVuSans-59"/>
      <use xlink:href="#DejaVuSans-33" x="61.083984"/>
     </g>
    </g>
    <g id="line2d_49">
     <path d="M 721.767187 226.397812 
L 731.767187 226.397812 
L 741.767187 226.397812 
" style="fill: none; stroke: #ff7f0e; stroke-width: 1.5; stroke-linecap: round"/>
    </g>
    <g id="text_26">
     <!-- Y20 -->
     <g style="fill: #262626" transform="translate(749.767187 229.897812) scale(0.1 -0.1)">
      <use xlink:href="#DejaVuSans-59"/>
      <use xlink:href="#DejaVuSans-32" x="61.083984"/>
      <use xlink:href="#DejaVuSans-30" x="124.707031"/>
     </g>
    </g>
    <g id="line2d_50">
     <path d="M 721.767187 241.075937 
L 731.767187 241.075937 
L 741.767187 241.075937 
" style="fill: none; stroke: #2ca02c; stroke-width: 1.5; stroke-linecap: round"/>
    </g>
    <g id="text_27">
     <!-- Y10 -->
     <g style="fill: #262626" transform="translate(749.767187 244.575937) scale(0.1 -0.1)">
      <use xlink:href="#DejaVuSans-59"/>
      <use xlink:href="#DejaVuSans-31" x="61.083984"/>
      <use xlink:href="#DejaVuSans-30" x="124.707031"/>
     </g>
    </g>
    <g id="line2d_51">
     <path d="M 721.767187 255.754062 
L 731.767187 255.754062 
L 741.767187 255.754062 
" style="fill: none; stroke: #d62728; stroke-width: 1.5; stroke-linecap: round"/>
    </g>
    <g id="text_28">
     <!-- Y4 -->
     <g style="fill: #262626" transform="translate(749.767187 259.254062) scale(0.1 -0.1)">
      <use xlink:href="#DejaVuSans-59"/>
      <use xlink:href="#DejaVuSans-34" x="61.083984"/>
     </g>
    </g>
    <g id="line2d_52">
     <path d="M 721.767187 270.432187 
L 731.767187 270.432187 
L 741.767187 270.432187 
" style="fill: none; stroke: #9467bd; stroke-width: 1.5; stroke-linecap: round"/>
    </g>
    <g id="text_29">
     <!-- Y50 -->
     <g style="fill: #262626" transform="translate(749.767187 273.932187) scale(0.1 -0.1)">
      <use xlink:href="#DejaVuSans-59"/>
      <use xlink:href="#DejaVuSans-35" x="61.083984"/>
      <use xlink:href="#DejaVuSans-30" x="124.707031"/>
     </g>
    </g>
   </g>
  </g>
  <g id="axes_2">
   <g id="patch_7">
    <path d="M 108 384.48 
L 777.6 384.48 
L 777.6 251.424 
L 108 251.424 
z
" style="fill: #ffffff"/>
   </g>
   <g id="matplotlib.axis_3">
    <g id="xtick_7">
     <g id="line2d_53">
      <path d="M 138.436364 384.48 
L 138.436364 251.424 
" clip-path="url(#pa3dc2be27e)" style="fill: none; stroke: #cccccc; stroke-width: 0.8; stroke-linecap: round"/>
     </g>
     <g id="line2d_54"/>
     <g id="text_30">
      <!-- 0 -->
      <g style="fill: #262626" transform="translate(135.255114 395.578438) scale(0.1 -0.1)">
       <use xlink:href="#DejaVuSans-30"/>
      </g>
     </g>
    </g>
    <g id="xtick_8">
     <g id="line2d_55">
      <path d="M 262.666419 384.48 
L 262.666419 251.424 
" clip-path="url(#pa3dc2be27e)" style="fill: none; stroke: #cccccc; stroke-width: 0.8; stroke-linecap: round"/>
     </g>
     <g id="line2d_56"/>
     <g id="text_31">
      <!-- 10 -->
      <g style="fill: #262626" transform="translate(256.303919 395.578438) scale(0.1 -0.1)">
       <use xlink:href="#DejaVuSans-31"/>
       <use xlink:href="#DejaVuSans-30" x="63.623047"/>
      </g>
     </g>
    </g>
    <g id="xtick_9">
     <g id="line2d_57">
      <path d="M 386.896475 384.48 
L 386.896475 251.424 
" clip-path="url(#pa3dc2be27e)" style="fill: none; stroke: #cccccc; stroke-width: 0.8; stroke-linecap: round"/>
     </g>
     <g id="line2d_58"/>
     <g id="text_32">
      <!-- 20 -->
      <g style="fill: #262626" transform="translate(380.533975 395.578438) scale(0.1 -0.1)">
       <use xlink:href="#DejaVuSans-32"/>
       <use xlink:href="#DejaVuSans-30" x="63.623047"/>
      </g>
     </g>
    </g>
    <g id="xtick_10">
     <g id="line2d_59">
      <path d="M 511.126531 384.48 
L 511.126531 251.424 
" clip-path="url(#pa3dc2be27e)" style="fill: none; stroke: #cccccc; stroke-width: 0.8; stroke-linecap: round"/>
     </g>
     <g id="line2d_60"/>
     <g id="text_33">
      <!-- 30 -->
      <g style="fill: #262626" transform="translate(504.764031 395.578438) scale(0.1 -0.1)">
       <use xlink:href="#DejaVuSans-33"/>
       <use xlink:href="#DejaVuSans-30" x="63.623047"/>
      </g>
     </g>
    </g>
    <g id="xtick_11">
     <g id="line2d_61">
      <path d="M 635.356586 384.48 
L 635.356586 251.424 
" clip-path="url(#pa3dc2be27e)" style="fill: none; stroke: #cccccc; stroke-width: 0.8; stroke-linecap: round"/>
     </g>
     <g id="line2d_62"/>
     <g id="text_34">
      <!-- 40 -->
      <g style="fill: #262626" transform="translate(628.994086 395.578438) scale(0.1 -0.1)">
       <use xlink:href="#DejaVuSans-34"/>
       <use xlink:href="#DejaVuSans-30" x="63.623047"/>
      </g>
     </g>
    </g>
    <g id="xtick_12">
     <g id="line2d_63">
      <path d="M 759.586642 384.48 
L 759.586642 251.424 
" clip-path="url(#pa3dc2be27e)" style="fill: none; stroke: #cccccc; stroke-width: 0.8; stroke-linecap: round"/>
     </g>
     <g id="line2d_64"/>
     <g id="text_35">
      <!-- 50 -->
      <g style="fill: #262626" transform="translate(753.224142 395.578438) scale(0.1 -0.1)">
       <use xlink:href="#DejaVuSans-35"/>
       <use xlink:href="#DejaVuSans-30" x="63.623047"/>
      </g>
     </g>
    </g>
    <g id="text_36">
     <!-- Epochs -->
     <g style="fill: #262626" transform="translate(424.884375 409.256563) scale(0.1 -0.1)">
      <use xlink:href="#DejaVuSans-45"/>
      <use xlink:href="#DejaVuSans-70" x="63.183594"/>
      <use xlink:href="#DejaVuSans-6f" x="126.660156"/>
      <use xlink:href="#DejaVuSans-63" x="187.841797"/>
      <use xlink:href="#DejaVuSans-68" x="242.822266"/>
      <use xlink:href="#DejaVuSans-73" x="306.201172"/>
     </g>
    </g>
   </g>
   <g id="matplotlib.axis_4">
    <g id="ytick_6">
     <g id="line2d_65">
      <path d="M 108 367.749023 
L 777.6 367.749023 
" clip-path="url(#pa3dc2be27e)" style="fill: none; stroke: #cccccc; stroke-width: 0.8; stroke-linecap: round"/>
     </g>
     <g id="line2d_66"/>
     <g id="text_37">
      <!-- 0.5 -->
      <g style="fill: #262626" transform="translate(88.596875 371.548242) scale(0.1 -0.1)">
       <use xlink:href="#DejaVuSans-30"/>
       <use xlink:href="#DejaVuSans-2e" x="63.623047"/>
       <use xlink:href="#DejaVuSans-35" x="95.410156"/>
      </g>
     </g>
    </g>
    <g id="ytick_7">
     <g id="line2d_67">
      <path d="M 108 343.005591 
L 777.6 343.005591 
" clip-path="url(#pa3dc2be27e)" style="fill: none; stroke: #cccccc; stroke-width: 0.8; stroke-linecap: round"/>
     </g>
     <g id="line2d_68"/>
     <g id="text_38">
      <!-- 0.6 -->
      <g style="fill: #262626" transform="translate(88.596875 346.80481) scale(0.1 -0.1)">
       <use xlink:href="#DejaVuSans-30"/>
       <use xlink:href="#DejaVuSans-2e" x="63.623047"/>
       <use xlink:href="#DejaVuSans-36" x="95.410156"/>
      </g>
     </g>
    </g>
    <g id="ytick_8">
     <g id="line2d_69">
      <path d="M 108 318.262159 
L 777.6 318.262159 
" clip-path="url(#pa3dc2be27e)" style="fill: none; stroke: #cccccc; stroke-width: 0.8; stroke-linecap: round"/>
     </g>
     <g id="line2d_70"/>
     <g id="text_39">
      <!-- 0.7 -->
      <g style="fill: #262626" transform="translate(88.596875 322.061378) scale(0.1 -0.1)">
       <use xlink:href="#DejaVuSans-30"/>
       <use xlink:href="#DejaVuSans-2e" x="63.623047"/>
       <use xlink:href="#DejaVuSans-37" x="95.410156"/>
      </g>
     </g>
    </g>
    <g id="ytick_9">
     <g id="line2d_71">
      <path d="M 108 293.518727 
L 777.6 293.518727 
" clip-path="url(#pa3dc2be27e)" style="fill: none; stroke: #cccccc; stroke-width: 0.8; stroke-linecap: round"/>
     </g>
     <g id="line2d_72"/>
     <g id="text_40">
      <!-- 0.8 -->
      <g style="fill: #262626" transform="translate(88.596875 297.317946) scale(0.1 -0.1)">
       <use xlink:href="#DejaVuSans-30"/>
       <use xlink:href="#DejaVuSans-2e" x="63.623047"/>
       <use xlink:href="#DejaVuSans-38" x="95.410156"/>
      </g>
     </g>
    </g>
    <g id="ytick_10">
     <g id="line2d_73">
      <path d="M 108 268.775295 
L 777.6 268.775295 
" clip-path="url(#pa3dc2be27e)" style="fill: none; stroke: #cccccc; stroke-width: 0.8; stroke-linecap: round"/>
     </g>
     <g id="line2d_74"/>
     <g id="text_41">
      <!-- 0.9 -->
      <g style="fill: #262626" transform="translate(88.596875 272.574513) scale(0.1 -0.1)">
       <use xlink:href="#DejaVuSans-30"/>
       <use xlink:href="#DejaVuSans-2e" x="63.623047"/>
       <use xlink:href="#DejaVuSans-39" x="95.410156"/>
      </g>
     </g>
    </g>
    <g id="text_42">
     <!-- Accuracy -->
     <g style="fill: #262626" transform="translate(82.517187 340.780125) rotate(-90) scale(0.1 -0.1)">
      <use xlink:href="#DejaVuSans-41"/>
      <use xlink:href="#DejaVuSans-63" x="66.658203"/>
      <use xlink:href="#DejaVuSans-63" x="121.638672"/>
      <use xlink:href="#DejaVuSans-75" x="176.619141"/>
      <use xlink:href="#DejaVuSans-72" x="239.998047"/>
      <use xlink:href="#DejaVuSans-61" x="281.111328"/>
      <use xlink:href="#DejaVuSans-63" x="342.390625"/>
      <use xlink:href="#DejaVuSans-79" x="397.371094"/>
     </g>
    </g>
   </g>
   <g id="line2d_75">
    <path d="M 138.436364 290.554958 
L 150.859369 312.265836 
L 163.282375 312.265836 
L 175.70538 312.610512 
L 188.128386 312.610512 
L 200.551391 312.610512 
L 212.974397 312.610512 
L 225.397403 313.644292 
L 237.820408 313.299616 
L 250.243414 313.299616 
L 262.666419 313.299616 
L 275.089425 315.712101 
L 287.51243 317.434986 
L 299.935436 313.988968 
L 312.358442 313.644292 
L 324.781447 314.333644 
L 337.204453 314.678073 
L 349.627458 315.367425 
L 362.050464 315.022749 
L 374.473469 315.022749 
L 386.896475 316.401205 
L 399.319481 316.056529 
L 411.742486 314.678073 
L 424.165492 315.367425 
L 436.588497 313.644292 
L 449.011503 313.988968 
L 461.434508 314.333644 
L 473.857514 314.333644 
L 486.280519 313.644292 
L 498.703525 314.678073 
L 511.126531 316.056529 
L 523.549536 315.022749 
L 535.972542 322.259708 
L 548.395547 317.434986 
L 560.818553 317.434986 
L 573.241558 358.444503 
L 585.664564 358.788932 
L 598.08757 358.788932 
L 610.510575 358.788932 
L 622.933581 358.788932 
L 635.356586 358.788932 
L 647.779592 358.788932 
L 660.202597 358.788932 
L 672.625603 358.788932 
L 685.048609 358.788932 
L 697.471614 358.788932 
L 709.89462 358.788932 
L 722.317625 358.788932 
L 734.740631 358.788932 
L 747.163636 358.788932 
" clip-path="url(#pa3dc2be27e)" style="fill: none; stroke: #1f77b4; stroke-width: 1.5; stroke-linecap: round"/>
   </g>
   <g id="line2d_76">
    <path d="M 138.436364 266.087168 
L 150.859369 264.019607 
L 163.282375 264.364283 
L 175.70538 264.364283 
L 188.128386 264.364283 
L 200.551391 264.019607 
L 212.974397 264.019607 
L 225.397403 264.019607 
L 237.820408 263.674931 
L 250.243414 263.674931 
L 262.666419 263.674931 
L 275.089425 263.674931 
L 287.51243 263.674931 
L 299.935436 263.330255 
L 312.358442 264.364283 
L 324.781447 264.364283 
L 337.204453 263.674931 
L 349.627458 264.364283 
L 362.050464 264.364283 
L 374.473469 263.674931 
L 386.896475 263.330255 
L 399.319481 263.674931 
L 411.742486 263.330255 
L 424.165492 264.708712 
L 436.588497 264.708712 
L 449.011503 264.364283 
L 461.434508 264.364283 
L 473.857514 264.364283 
L 486.280519 264.364283 
L 498.703525 263.674931 
L 511.126531 263.674931 
L 523.549536 263.330255 
L 535.972542 263.330255 
L 548.395547 263.330255 
L 560.818553 263.330255 
L 573.241558 263.330255 
L 585.664564 263.330255 
L 598.08757 264.708712 
L 610.510575 264.708712 
L 622.933581 264.019607 
L 635.356586 264.019607 
L 647.779592 264.019607 
L 660.202597 264.364283 
L 672.625603 264.364283 
L 685.048609 263.674931 
L 697.471614 264.019607 
L 709.89462 264.019607 
L 722.317625 264.019607 
L 734.740631 264.019607 
L 747.163636 264.019607 
" clip-path="url(#pa3dc2be27e)" style="fill: none; stroke: #ff7f0e; stroke-width: 1.5; stroke-linecap: round"/>
   </g>
   <g id="line2d_77">
    <path d="M 138.436364 269.878109 
L 150.859369 358.788932 
L 163.282375 358.788932 
L 175.70538 358.788932 
L 188.128386 358.788932 
L 200.551391 358.788932 
L 212.974397 358.788932 
L 225.397403 358.788932 
L 237.820408 358.788932 
L 250.243414 358.788932 
L 262.666419 358.444503 
L 275.089425 358.444503 
L 287.51243 358.788932 
L 299.935436 358.788932 
L 312.358442 358.788932 
L 324.781447 358.788932 
L 337.204453 358.788932 
L 349.627458 358.788932 
L 362.050464 358.788932 
L 374.473469 358.788932 
L 386.896475 358.788932 
L 399.319481 358.788932 
L 411.742486 358.788932 
L 424.165492 358.788932 
L 436.588497 358.788932 
L 449.011503 358.788932 
L 461.434508 358.788932 
L 473.857514 358.788932 
L 486.280519 358.788932 
L 498.703525 358.788932 
L 511.126531 358.788932 
L 523.549536 358.788932 
L 535.972542 358.788932 
L 548.395547 358.788932 
L 560.818553 358.788932 
L 573.241558 358.788932 
L 585.664564 358.788932 
L 598.08757 358.788932 
L 610.510575 358.788932 
L 622.933581 358.788932 
L 635.356586 290.554958 
L 647.779592 358.788932 
L 660.202597 358.788932 
L 672.625603 358.788932 
L 685.048609 358.788932 
L 697.471614 358.788932 
L 709.89462 358.788932 
L 722.317625 358.788932 
L 734.740631 358.788932 
L 747.163636 358.788932 
" clip-path="url(#pa3dc2be27e)" style="fill: none; stroke: #2ca02c; stroke-width: 1.5; stroke-linecap: round"/>
   </g>
   <g id="line2d_78">
    <path d="M 138.436364 376.709115 
L 150.859369 358.788932 
L 163.282375 358.788932 
L 175.70538 358.788932 
L 188.128386 358.788932 
L 200.551391 358.788932 
L 212.974397 358.788932 
L 225.397403 358.788932 
L 237.820408 358.788932 
L 250.243414 358.788932 
L 262.666419 358.788932 
L 275.089425 358.788932 
L 287.51243 358.788932 
L 299.935436 358.788932 
L 312.358442 358.788932 
L 324.781447 358.788932 
L 337.204453 358.788932 
L 349.627458 358.788932 
L 362.050464 358.788932 
L 374.473469 358.788932 
L 386.896475 358.788932 
L 399.319481 358.788932 
L 411.742486 358.788932 
L 424.165492 358.788932 
L 436.588497 358.788932 
L 449.011503 358.788932 
L 461.434508 358.788932 
L 473.857514 358.788932 
L 486.280519 358.788932 
L 498.703525 358.788932 
L 511.126531 358.788932 
L 523.549536 358.788932 
L 535.972542 358.788932 
L 548.395547 358.788932 
L 560.818553 358.788932 
L 573.241558 358.788932 
L 585.664564 358.788932 
L 598.08757 358.788932 
L 610.510575 358.788932 
L 622.933581 358.788932 
L 635.356586 358.788932 
L 647.779592 358.788932 
L 660.202597 358.788932 
L 672.625603 358.788932 
L 685.048609 358.788932 
L 697.471614 358.788932 
L 709.89462 358.788932 
L 722.317625 358.788932 
L 734.740631 358.788932 
L 747.163636 358.788932 
" clip-path="url(#pa3dc2be27e)" style="fill: none; stroke: #d62728; stroke-width: 1.5; stroke-linecap: round"/>
   </g>
   <g id="line2d_79">
    <path d="M 138.436364 339.145863 
L 150.859369 358.788932 
L 163.282375 358.788932 
L 175.70538 358.788932 
L 188.128386 358.788932 
L 200.551391 358.788932 
L 212.974397 358.788932 
L 225.397403 358.788932 
L 237.820408 358.788932 
L 250.243414 358.788932 
L 262.666419 358.788932 
L 275.089425 358.788932 
L 287.51243 358.788932 
L 299.935436 358.788932 
L 312.358442 358.788932 
L 324.781447 358.788932 
L 337.204453 358.788932 
L 349.627458 358.788932 
L 362.050464 358.788932 
L 374.473469 358.788932 
L 386.896475 358.788932 
L 399.319481 358.788932 
L 411.742486 358.788932 
L 424.165492 358.788932 
L 436.588497 358.788932 
L 449.011503 358.788932 
L 461.434508 358.788932 
L 473.857514 358.788932 
L 486.280519 358.788932 
L 498.703525 358.788932 
L 511.126531 358.788932 
L 523.549536 358.788932 
L 535.972542 358.788932 
L 548.395547 358.788932 
L 560.818553 358.788932 
L 573.241558 358.788932 
L 585.664564 358.788932 
L 598.08757 358.788932 
L 610.510575 358.788932 
L 622.933581 358.788932 
L 635.356586 358.788932 
L 647.779592 358.788932 
L 660.202597 358.788932 
L 672.625603 358.788932 
L 685.048609 358.788932 
L 697.471614 358.788932 
L 709.89462 358.788932 
L 722.317625 358.788932 
L 734.740631 358.788932 
L 747.163636 358.788932 
" clip-path="url(#pa3dc2be27e)" style="fill: none; stroke: #9467bd; stroke-width: 1.5; stroke-linecap: round"/>
   </g>
   <g id="line2d_80">
    <path d="M 138.436364 261.951798 
L 150.859369 260.918018 
L 163.282375 260.228913 
L 175.70538 261.262694 
L 188.128386 260.918018 
L 200.551391 260.573342 
L 212.974397 260.228913 
L 225.397403 260.573342 
L 237.820408 259.884237 
L 250.243414 259.884237 
L 262.666419 259.884237 
L 275.089425 260.918018 
L 287.51243 260.573342 
L 299.935436 259.884237 
L 312.358442 260.918018 
L 324.781447 260.573342 
L 337.204453 260.228913 
L 349.627458 260.228913 
L 362.050464 260.918018 
L 374.473469 260.228913 
L 386.896475 260.918018 
L 399.319481 260.573342 
L 411.742486 260.228913 
L 424.165492 259.884237 
L 436.588497 260.228913 
L 449.011503 260.228913 
L 461.434508 260.228913 
L 473.857514 260.573342 
L 486.280519 260.573342 
L 498.703525 260.228913 
L 511.126531 260.918018 
L 523.549536 260.918018 
L 535.972542 260.228913 
L 548.395547 259.884237 
L 560.818553 260.918018 
L 573.241558 261.262694 
L 585.664564 260.918018 
L 598.08757 260.228913 
L 610.510575 260.228913 
L 622.933581 259.884237 
L 635.356586 260.228913 
L 647.779592 260.918018 
L 660.202597 260.228913 
L 672.625603 259.884237 
L 685.048609 260.228913 
L 697.471614 260.573342 
L 709.89462 260.573342 
L 722.317625 260.573342 
L 734.740631 260.918018 
L 747.163636 260.573342 
" clip-path="url(#pa3dc2be27e)" style="fill: none; stroke: #8c564b; stroke-width: 1.5; stroke-linecap: round"/>
   </g>
   <g id="line2d_81">
    <path d="M 138.436364 376.709115 
L 150.859369 376.709115 
L 163.282375 376.709115 
L 175.70538 376.709115 
L 188.128386 376.709115 
L 200.551391 376.709115 
L 212.974397 376.709115 
L 225.397403 376.709115 
L 237.820408 376.709115 
L 250.243414 376.709115 
L 262.666419 376.709115 
L 275.089425 376.709115 
L 287.51243 376.709115 
L 299.935436 376.709115 
L 312.358442 376.709115 
L 324.781447 376.709115 
L 337.204453 376.709115 
L 349.627458 376.709115 
L 362.050464 376.709115 
L 374.473469 376.709115 
L 386.896475 376.709115 
L 399.319481 376.709115 
L 411.742486 376.709115 
L 424.165492 376.709115 
L 436.588497 376.709115 
L 449.011503 376.709115 
L 461.434508 376.709115 
L 473.857514 376.709115 
L 486.280519 376.709115 
L 498.703525 376.709115 
L 511.126531 376.709115 
L 523.549536 376.709115 
L 535.972542 376.709115 
L 548.395547 376.709115 
L 560.818553 376.709115 
L 573.241558 376.709115 
L 585.664564 376.709115 
L 598.08757 376.709115 
L 610.510575 376.709115 
L 622.933581 376.709115 
L 635.356586 376.709115 
L 647.779592 376.709115 
L 660.202597 376.709115 
L 672.625603 376.709115 
L 685.048609 378.087571 
L 697.471614 378.432 
L 709.89462 378.087571 
L 722.317625 378.432 
L 734.740631 377.398219 
L 747.163636 377.398219 
" clip-path="url(#pa3dc2be27e)" style="fill: none; stroke: #e377c2; stroke-width: 1.5; stroke-linecap: round"/>
   </g>
   <g id="line2d_82">
    <path d="M 138.436364 262.985826 
L 150.859369 261.951798 
L 163.282375 261.951798 
L 175.70538 261.951798 
L 188.128386 261.60737 
L 200.551391 261.60737 
L 212.974397 261.262694 
L 225.397403 261.60737 
L 237.820408 261.60737 
L 250.243414 261.60737 
L 262.666419 261.951798 
L 275.089425 261.951798 
L 287.51243 261.262694 
L 299.935436 261.262694 
L 312.358442 261.262694 
L 324.781447 261.951798 
L 337.204453 261.951798 
L 349.627458 261.60737 
L 362.050464 261.262694 
L 374.473469 261.60737 
L 386.896475 261.60737 
L 399.319481 261.951798 
L 411.742486 261.60737 
L 424.165492 260.573342 
L 436.588497 261.262694 
L 449.011503 261.951798 
L 461.434508 261.60737 
L 473.857514 262.296474 
L 486.280519 261.262694 
L 498.703525 260.573342 
L 511.126531 261.60737 
L 523.549536 261.60737 
L 535.972542 261.262694 
L 548.395547 260.573342 
L 560.818553 261.60737 
L 573.241558 260.918018 
L 585.664564 261.262694 
L 598.08757 261.60737 
L 610.510575 261.262694 
L 622.933581 260.918018 
L 635.356586 260.918018 
L 647.779592 260.918018 
L 660.202597 261.262694 
L 672.625603 261.262694 
L 685.048609 260.918018 
L 697.471614 261.262694 
L 709.89462 260.573342 
L 722.317625 260.573342 
L 734.740631 260.573342 
L 747.163636 260.918018 
" clip-path="url(#pa3dc2be27e)" style="fill: none; stroke: #7f7f7f; stroke-width: 1.5; stroke-linecap: round"/>
   </g>
   <g id="line2d_83">
    <path d="M 138.436364 320.536575 
L 150.859369 358.788932 
L 163.282375 358.788932 
L 175.70538 358.788932 
L 188.128386 358.788932 
L 200.551391 358.788932 
L 212.974397 358.788932 
L 225.397403 358.788932 
L 237.820408 358.788932 
L 250.243414 358.788932 
L 262.666419 358.788932 
L 275.089425 358.788932 
L 287.51243 358.788932 
L 299.935436 358.788932 
L 312.358442 358.788932 
L 324.781447 358.788932 
L 337.204453 358.788932 
L 349.627458 358.788932 
L 362.050464 358.788932 
L 374.473469 358.788932 
L 386.896475 358.788932 
L 399.319481 358.788932 
L 411.742486 358.788932 
L 424.165492 358.788932 
L 436.588497 358.788932 
L 449.011503 358.788932 
L 461.434508 358.788932 
L 473.857514 358.788932 
L 486.280519 358.788932 
L 498.703525 358.788932 
L 511.126531 358.788932 
L 523.549536 358.788932 
L 535.972542 358.788932 
L 548.395547 358.788932 
L 560.818553 358.788932 
L 573.241558 358.788932 
L 585.664564 358.788932 
L 598.08757 358.788932 
L 610.510575 358.788932 
L 622.933581 358.788932 
L 635.356586 358.788932 
L 647.779592 358.788932 
L 660.202597 358.788932 
L 672.625603 358.788932 
L 685.048609 358.788932 
L 697.471614 358.788932 
L 709.89462 358.788932 
L 722.317625 358.788932 
L 734.740631 358.788932 
L 747.163636 358.788932 
" clip-path="url(#pa3dc2be27e)" style="fill: none; stroke: #bcbd22; stroke-width: 1.5; stroke-linecap: round"/>
   </g>
   <g id="line2d_84">
    <path d="M 138.436364 265.053388 
L 150.859369 261.60737 
L 163.282375 260.228913 
L 175.70538 260.573342 
L 188.128386 260.228913 
L 200.551391 260.228913 
L 212.974397 259.884237 
L 225.397403 260.228913 
L 237.820408 259.884237 
L 250.243414 260.228913 
L 262.666419 260.228913 
L 275.089425 260.573342 
L 287.51243 260.918018 
L 299.935436 259.884237 
L 312.358442 260.573342 
L 324.781447 259.884237 
L 337.204453 260.228913 
L 349.627458 260.573342 
L 362.050464 259.884237 
L 374.473469 260.573342 
L 386.896475 260.228913 
L 399.319481 259.884237 
L 411.742486 260.228913 
L 424.165492 260.228913 
L 436.588497 260.573342 
L 449.011503 259.884237 
L 461.434508 260.573342 
L 473.857514 259.539561 
L 486.280519 259.884237 
L 498.703525 260.573342 
L 511.126531 260.228913 
L 523.549536 260.228913 
L 535.972542 259.884237 
L 548.395547 259.884237 
L 560.818553 260.573342 
L 573.241558 260.228913 
L 585.664564 259.539561 
L 598.08757 260.573342 
L 610.510575 260.228913 
L 622.933581 260.573342 
L 635.356586 260.228913 
L 647.779592 260.228913 
L 660.202597 260.228913 
L 672.625603 259.884237 
L 685.048609 260.918018 
L 697.471614 259.539561 
L 709.89462 259.539561 
L 722.317625 259.194885 
L 734.740631 259.884237 
L 747.163636 260.228913 
" clip-path="url(#pa3dc2be27e)" style="fill: none; stroke: #17becf; stroke-width: 1.5; stroke-linecap: round"/>
   </g>
   <g id="line2d_85">
    <path d="M 138.436364 358.788932 
L 150.859369 358.788932 
L 163.282375 358.788932 
L 175.70538 358.788932 
L 188.128386 358.788932 
L 200.551391 358.788932 
L 212.974397 358.788932 
L 225.397403 358.788932 
L 237.820408 358.788932 
L 250.243414 358.788932 
L 262.666419 358.788932 
L 275.089425 358.788932 
L 287.51243 358.788932 
L 299.935436 358.788932 
L 312.358442 358.788932 
L 324.781447 358.788932 
L 337.204453 358.788932 
L 349.627458 358.788932 
L 362.050464 358.788932 
L 374.473469 358.788932 
L 386.896475 358.788932 
L 399.319481 358.788932 
L 411.742486 358.788932 
L 424.165492 358.788932 
L 436.588497 358.788932 
L 449.011503 358.788932 
L 461.434508 358.788932 
L 473.857514 358.788932 
L 486.280519 358.788932 
L 498.703525 358.788932 
L 511.126531 358.788932 
L 523.549536 358.788932 
L 535.972542 358.788932 
L 548.395547 358.788932 
L 560.818553 358.788932 
L 573.241558 358.788932 
L 585.664564 358.788932 
L 598.08757 358.788932 
L 610.510575 358.788932 
L 622.933581 358.788932 
L 635.356586 358.788932 
L 647.779592 358.788932 
L 660.202597 358.788932 
L 672.625603 358.788932 
L 685.048609 358.788932 
L 697.471614 358.788932 
L 709.89462 358.788932 
L 722.317625 358.788932 
L 734.740631 358.788932 
L 747.163636 358.788932 
" clip-path="url(#pa3dc2be27e)" style="fill: none; stroke: #1f77b4; stroke-width: 1.5; stroke-linecap: round"/>
   </g>
   <g id="line2d_86">
    <path d="M 138.436364 262.985826 
L 150.859369 262.64115 
L 163.282375 262.985826 
L 175.70538 263.330255 
L 188.128386 262.985826 
L 200.551391 262.985826 
L 212.974397 262.296474 
L 225.397403 262.64115 
L 237.820408 262.985826 
L 250.243414 262.296474 
L 262.666419 263.330255 
L 275.089425 262.985826 
L 287.51243 262.64115 
L 299.935436 262.296474 
L 312.358442 262.296474 
L 324.781447 262.296474 
L 337.204453 262.296474 
L 349.627458 261.951798 
L 362.050464 262.296474 
L 374.473469 262.296474 
L 386.896475 262.296474 
L 399.319481 262.64115 
L 411.742486 262.985826 
L 424.165492 262.985826 
L 436.588497 262.296474 
L 449.011503 262.985826 
L 461.434508 262.985826 
L 473.857514 263.674931 
L 486.280519 262.985826 
L 498.703525 262.296474 
L 511.126531 262.64115 
L 523.549536 262.296474 
L 535.972542 262.296474 
L 548.395547 262.296474 
L 560.818553 262.64115 
L 573.241558 261.60737 
L 585.664564 262.296474 
L 598.08757 262.64115 
L 610.510575 262.64115 
L 622.933581 262.296474 
L 635.356586 262.296474 
L 647.779592 261.60737 
L 660.202597 261.951798 
L 672.625603 261.951798 
L 685.048609 261.60737 
L 697.471614 261.262694 
L 709.89462 262.296474 
L 722.317625 262.296474 
L 734.740631 262.296474 
L 747.163636 262.296474 
" clip-path="url(#pa3dc2be27e)" style="fill: none; stroke: #ff7f0e; stroke-width: 1.5; stroke-linecap: round"/>
   </g>
   <g id="line2d_87">
    <path d="M 138.436364 358.444503 
L 150.859369 267.121196 
L 163.282375 267.121196 
L 175.70538 266.431844 
L 188.128386 266.431844 
L 200.551391 267.465872 
L 212.974397 267.121196 
L 225.397403 267.465872 
L 237.820408 267.121196 
L 250.243414 267.810301 
L 262.666419 268.844329 
L 275.089425 268.499653 
L 287.51243 267.465872 
L 299.935436 267.810301 
L 312.358442 267.810301 
L 324.781447 269.188757 
L 337.204453 268.499653 
L 349.627458 267.465872 
L 362.050464 267.810301 
L 374.473469 267.810301 
L 386.896475 267.810301 
L 399.319481 267.810301 
L 411.742486 266.087168 
L 424.165492 267.465872 
L 436.588497 268.154977 
L 449.011503 266.431844 
L 461.434508 267.121196 
L 473.857514 267.810301 
L 486.280519 267.465872 
L 498.703525 267.465872 
L 511.126531 266.77652 
L 523.549536 267.810301 
L 535.972542 267.121196 
L 548.395547 266.77652 
L 560.818553 267.121196 
L 573.241558 267.465872 
L 585.664564 267.121196 
L 598.08757 267.121196 
L 610.510575 266.087168 
L 622.933581 266.087168 
L 635.356586 267.121196 
L 647.779592 267.121196 
L 660.202597 267.810301 
L 672.625603 267.465872 
L 685.048609 266.431844 
L 697.471614 268.154977 
L 709.89462 267.465872 
L 722.317625 266.77652 
L 734.740631 266.087168 
L 747.163636 266.087168 
" clip-path="url(#pa3dc2be27e)" style="fill: none; stroke: #2ca02c; stroke-width: 1.5; stroke-linecap: round"/>
   </g>
   <g id="line2d_88">
    <path d="M 138.436364 358.788932 
L 150.859369 358.788932 
L 163.282375 358.788932 
L 175.70538 358.788932 
L 188.128386 358.788932 
L 200.551391 358.788932 
L 212.974397 358.788932 
L 225.397403 358.788932 
L 237.820408 358.788932 
L 250.243414 358.788932 
L 262.666419 358.788932 
L 275.089425 358.788932 
L 287.51243 358.788932 
L 299.935436 358.788932 
L 312.358442 358.788932 
L 324.781447 358.788932 
L 337.204453 358.788932 
L 349.627458 358.788932 
L 362.050464 358.788932 
L 374.473469 358.788932 
L 386.896475 358.788932 
L 399.319481 358.788932 
L 411.742486 358.788932 
L 424.165492 358.788932 
L 436.588497 358.788932 
L 449.011503 358.788932 
L 461.434508 358.788932 
L 473.857514 358.788932 
L 486.280519 358.788932 
L 498.703525 358.788932 
L 511.126531 358.788932 
L 523.549536 358.788932 
L 535.972542 358.788932 
L 548.395547 358.788932 
L 560.818553 358.788932 
L 573.241558 358.788932 
L 585.664564 358.788932 
L 598.08757 358.788932 
L 610.510575 358.788932 
L 622.933581 358.788932 
L 635.356586 358.788932 
L 647.779592 358.788932 
L 660.202597 358.788932 
L 672.625603 358.788932 
L 685.048609 358.788932 
L 697.471614 358.788932 
L 709.89462 358.788932 
L 722.317625 358.788932 
L 734.740631 358.788932 
L 747.163636 358.788932 
" clip-path="url(#pa3dc2be27e)" style="fill: none; stroke: #d62728; stroke-width: 1.5; stroke-linecap: round"/>
   </g>
   <g id="line2d_89">
    <path d="M 138.436364 264.019607 
L 150.859369 259.539561 
L 163.282375 258.850457 
L 175.70538 259.539561 
L 188.128386 259.539561 
L 200.551391 259.194885 
L 212.974397 258.850457 
L 225.397403 259.539561 
L 237.820408 258.505781 
L 250.243414 259.539561 
L 262.666419 259.539561 
L 275.089425 258.850457 
L 287.51243 259.194885 
L 299.935436 258.850457 
L 312.358442 258.850457 
L 324.781447 259.539561 
L 337.204453 258.161105 
L 349.627458 259.539561 
L 362.050464 258.850457 
L 374.473469 258.850457 
L 386.896475 258.505781 
L 399.319481 258.850457 
L 411.742486 259.539561 
L 424.165492 259.539561 
L 436.588497 258.850457 
L 449.011503 258.505781 
L 461.434508 258.850457 
L 473.857514 257.472 
L 486.280519 258.850457 
L 498.703525 259.194885 
L 511.126531 258.505781 
L 523.549536 259.194885 
L 535.972542 258.161105 
L 548.395547 258.161105 
L 560.818553 258.505781 
L 573.241558 258.850457 
L 585.664564 258.850457 
L 598.08757 258.850457 
L 610.510575 258.161105 
L 622.933581 258.850457 
L 635.356586 258.505781 
L 647.779592 258.850457 
L 660.202597 259.194885 
L 672.625603 258.161105 
L 685.048609 257.816429 
L 697.471614 258.505781 
L 709.89462 259.194885 
L 722.317625 258.850457 
L 734.740631 258.505781 
L 747.163636 258.161105 
" clip-path="url(#pa3dc2be27e)" style="fill: none; stroke: #9467bd; stroke-width: 1.5; stroke-linecap: round"/>
   </g>
   <g id="patch_8">
    <path d="M 108 384.48 
L 108 251.424 
" style="fill: none; stroke: #cccccc; stroke-linejoin: miter; stroke-linecap: square"/>
   </g>
   <g id="patch_9">
    <path d="M 777.6 384.48 
L 777.6 251.424 
" style="fill: none; stroke: #cccccc; stroke-linejoin: miter; stroke-linecap: square"/>
   </g>
   <g id="patch_10">
    <path d="M 108 384.48 
L 777.6 384.48 
" style="fill: none; stroke: #cccccc; stroke-linejoin: miter; stroke-linecap: square"/>
   </g>
   <g id="patch_11">
    <path d="M 108 251.424 
L 777.6 251.424 
" style="fill: none; stroke: #cccccc; stroke-linejoin: miter; stroke-linecap: square"/>
   </g>
   <g id="text_43">
    <!-- Test -->
    <g style="fill: #262626" transform="translate(430.985625 245.424) scale(0.12 -0.12)">
     <defs>
      <path id="DejaVuSans-65" d="M 3597 1894 
L 3597 1613 
L 953 1613 
Q 991 1019 1311 708 
Q 1631 397 2203 397 
Q 2534 397 2845 478 
Q 3156 559 3463 722 
L 3463 178 
Q 3153 47 2828 -22 
Q 2503 -91 2169 -91 
Q 1331 -91 842 396 
Q 353 884 353 1716 
Q 353 2575 817 3079 
Q 1281 3584 2069 3584 
Q 2775 3584 3186 3129 
Q 3597 2675 3597 1894 
z
M 3022 2063 
Q 3016 2534 2758 2815 
Q 2500 3097 2075 3097 
Q 1594 3097 1305 2825 
Q 1016 2553 972 2059 
L 3022 2063 
z
" transform="scale(0.015625)"/>
      <path id="DejaVuSans-74" d="M 1172 4494 
L 1172 3500 
L 2356 3500 
L 2356 3053 
L 1172 3053 
L 1172 1153 
Q 1172 725 1289 603 
Q 1406 481 1766 481 
L 2356 481 
L 2356 0 
L 1766 0 
Q 1100 0 847 248 
Q 594 497 594 1153 
L 594 3053 
L 172 3053 
L 172 3500 
L 594 3500 
L 594 4494 
L 1172 4494 
z
" transform="scale(0.015625)"/>
     </defs>
     <use xlink:href="#DejaVuSans-54"/>
     <use xlink:href="#DejaVuSans-65" x="44.083984"/>
     <use xlink:href="#DejaVuSans-73" x="105.607422"/>
     <use xlink:href="#DejaVuSans-74" x="157.707031"/>
    </g>
   </g>
   <g id="legend_2">
    <g id="line2d_90">
     <path d="M 721.767187 264.522437 
L 731.767187 264.522437 
L 741.767187 264.522437 
" style="fill: none; stroke: #1f77b4; stroke-width: 1.5; stroke-linecap: round"/>
    </g>
    <g id="text_44">
     <!-- Y7 -->
     <g style="fill: #262626" transform="translate(749.767187 268.022437) scale(0.1 -0.1)">
      <use xlink:href="#DejaVuSans-59"/>
      <use xlink:href="#DejaVuSans-37" x="61.083984"/>
     </g>
    </g>
    <g id="line2d_91">
     <path d="M 721.767187 279.200562 
L 731.767187 279.200562 
L 741.767187 279.200562 
" style="fill: none; stroke: #ff7f0e; stroke-width: 1.5; stroke-linecap: round"/>
    </g>
    <g id="text_45">
     <!-- Y80 -->
     <g style="fill: #262626" transform="translate(749.767187 282.700562) scale(0.1 -0.1)">
      <use xlink:href="#DejaVuSans-59"/>
      <use xlink:href="#DejaVuSans-38" x="61.083984"/>
      <use xlink:href="#DejaVuSans-30" x="124.707031"/>
     </g>
    </g>
    <g id="line2d_92">
     <path d="M 721.767187 293.878687 
L 731.767187 293.878687 
L 741.767187 293.878687 
" style="fill: none; stroke: #2ca02c; stroke-width: 1.5; stroke-linecap: round"/>
    </g>
    <g id="text_46">
     <!-- Y5 -->
     <g style="fill: #262626" transform="translate(749.767187 297.378687) scale(0.1 -0.1)">
      <use xlink:href="#DejaVuSans-59"/>
      <use xlink:href="#DejaVuSans-35" x="61.083984"/>
     </g>
    </g>
    <g id="line2d_93">
     <path d="M 721.767187 308.556812 
L 731.767187 308.556812 
L 741.767187 308.556812 
" style="fill: none; stroke: #d62728; stroke-width: 1.5; stroke-linecap: round"/>
    </g>
    <g id="text_47">
     <!-- Y2 -->
     <g style="fill: #262626" transform="translate(749.767187 312.056812) scale(0.1 -0.1)">
      <use xlink:href="#DejaVuSans-59"/>
      <use xlink:href="#DejaVuSans-32" x="61.083984"/>
     </g>
    </g>
    <g id="line2d_94">
     <path d="M 721.767187 323.234938 
L 731.767187 323.234938 
L 741.767187 323.234938 
" style="fill: none; stroke: #9467bd; stroke-width: 1.5; stroke-linecap: round"/>
    </g>
    <g id="text_48">
     <!-- Y8 -->
     <g style="fill: #262626" transform="translate(749.767187 326.734938) scale(0.1 -0.1)">
      <use xlink:href="#DejaVuSans-59"/>
      <use xlink:href="#DejaVuSans-38" x="61.083984"/>
     </g>
    </g>
    <g id="line2d_95">
     <path d="M 721.767187 337.913062 
L 731.767187 337.913062 
L 741.767187 337.913062 
" style="fill: none; stroke: #8c564b; stroke-width: 1.5; stroke-linecap: round"/>
    </g>
    <g id="text_49">
     <!-- Y40 -->
     <g style="fill: #262626" transform="translate(749.767187 341.413062) scale(0.1 -0.1)">
      <use xlink:href="#DejaVuSans-59"/>
      <use xlink:href="#DejaVuSans-34" x="61.083984"/>
      <use xlink:href="#DejaVuSans-30" x="124.707031"/>
     </g>
    </g>
    <g id="line2d_96">
     <path d="M 721.767187 352.591187 
L 731.767187 352.591187 
L 741.767187 352.591187 
" style="fill: none; stroke: #e377c2; stroke-width: 1.5; stroke-linecap: round"/>
    </g>
    <g id="text_50">
     <!-- Y6 -->
     <g style="fill: #262626" transform="translate(749.767187 356.091187) scale(0.1 -0.1)">
      <use xlink:href="#DejaVuSans-59"/>
      <use xlink:href="#DejaVuSans-36" x="61.083984"/>
     </g>
    </g>
    <g id="line2d_97">
     <path d="M 721.767187 367.269312 
L 731.767187 367.269312 
L 741.767187 367.269312 
" style="fill: none; stroke: #7f7f7f; stroke-width: 1.5; stroke-linecap: round"/>
    </g>
    <g id="text_51">
     <!-- Y30 -->
     <g style="fill: #262626" transform="translate(749.767187 370.769312) scale(0.1 -0.1)">
      <use xlink:href="#DejaVuSans-59"/>
      <use xlink:href="#DejaVuSans-33" x="61.083984"/>
      <use xlink:href="#DejaVuSans-30" x="124.707031"/>
     </g>
    </g>
    <g id="line2d_98">
     <path d="M 721.767187 381.947437 
L 731.767187 381.947437 
L 741.767187 381.947437 
" style="fill: none; stroke: #bcbd22; stroke-width: 1.5; stroke-linecap: round"/>
    </g>
    <g id="text_52">
     <!-- Y14 -->
     <g style="fill: #262626" transform="translate(749.767187 385.447437) scale(0.1 -0.1)">
      <use xlink:href="#DejaVuSans-59"/>
      <use xlink:href="#DejaVuSans-31" x="61.083984"/>
      <use xlink:href="#DejaVuSans-34" x="124.707031"/>
     </g>
    </g>
    <g id="line2d_99">
     <path d="M 721.767187 396.625562 
L 731.767187 396.625562 
L 741.767187 396.625562 
" style="fill: none; stroke: #17becf; stroke-width: 1.5; stroke-linecap: round"/>
    </g>
    <g id="text_53">
     <!-- Y60 -->
     <g style="fill: #262626" transform="translate(749.767187 400.125562) scale(0.1 -0.1)">
      <use xlink:href="#DejaVuSans-59"/>
      <use xlink:href="#DejaVuSans-36" x="61.083984"/>
      <use xlink:href="#DejaVuSans-30" x="124.707031"/>
     </g>
    </g>
    <g id="line2d_100">
     <path d="M 721.767187 411.303687 
L 731.767187 411.303687 
L 741.767187 411.303687 
" style="fill: none; stroke: #1f77b4; stroke-width: 1.5; stroke-linecap: round"/>
    </g>
    <g id="text_54">
     <!-- Y3 -->
     <g style="fill: #262626" transform="translate(749.767187 414.803687) scale(0.1 -0.1)">
      <use xlink:href="#DejaVuSans-59"/>
      <use xlink:href="#DejaVuSans-33" x="61.083984"/>
     </g>
    </g>
    <g id="line2d_101">
     <path d="M 721.767187 425.981812 
L 731.767187 425.981812 
L 741.767187 425.981812 
" style="fill: none; stroke: #ff7f0e; stroke-width: 1.5; stroke-linecap: round"/>
    </g>
    <g id="text_55">
     <!-- Y20 -->
     <g style="fill: #262626" transform="translate(749.767187 429.481812) scale(0.1 -0.1)">
      <use xlink:href="#DejaVuSans-59"/>
      <use xlink:href="#DejaVuSans-32" x="61.083984"/>
      <use xlink:href="#DejaVuSans-30" x="124.707031"/>
     </g>
    </g>
    <g id="line2d_102">
     <path style="fill: none; stroke: #2ca02c; stroke-width: 1.5; stroke-linecap: round"/>
    </g>
    <g id="text_56">
     <!-- Y10 -->
     <g style="fill: #262626" transform="translate(749.767187 444.159937) scale(0.1 -0.1)">
      <use xlink:href="#DejaVuSans-59"/>
      <use xlink:href="#DejaVuSans-31" x="61.083984"/>
      <use xlink:href="#DejaVuSans-30" x="124.707031"/>
     </g>
    </g>
    <g id="line2d_103">
     <path style="fill: none; stroke: #d62728; stroke-width: 1.5; stroke-linecap: round"/>
    </g>
    <g id="text_57">
     <!-- Y4 -->
     <g style="fill: #262626" transform="translate(749.767187 458.838062) scale(0.1 -0.1)">
      <use xlink:href="#DejaVuSans-59"/>
      <use xlink:href="#DejaVuSans-34" x="61.083984"/>
     </g>
    </g>
    <g id="line2d_104">
     <path style="fill: none; stroke: #9467bd; stroke-width: 1.5; stroke-linecap: round"/>
    </g>
    <g id="text_58">
     <!-- Y50 -->
     <g style="fill: #262626" transform="translate(749.767187 473.516187) scale(0.1 -0.1)">
      <use xlink:href="#DejaVuSans-59"/>
      <use xlink:href="#DejaVuSans-35" x="61.083984"/>
      <use xlink:href="#DejaVuSans-30" x="124.707031"/>
     </g>
    </g>
   </g>
  </g>
  <g id="text_59">
   <!-- Architecture -->
   <g style="fill: #262626" transform="translate(389.850937 17.758125) scale(0.12 -0.12)">
    <defs>
     <path id="DejaVuSans-Bold-41" d="M 3419 850 
L 1538 850 
L 1241 0 
L 31 0 
L 1759 4666 
L 3194 4666 
L 4922 0 
L 3713 0 
L 3419 850 
z
M 1838 1716 
L 3116 1716 
L 2478 3572 
L 1838 1716 
z
" transform="scale(0.015625)"/>
     <path id="DejaVuSans-Bold-72" d="M 3138 2547 
Q 2991 2616 2845 2648 
Q 2700 2681 2553 2681 
Q 2122 2681 1889 2404 
Q 1656 2128 1656 1613 
L 1656 0 
L 538 0 
L 538 3500 
L 1656 3500 
L 1656 2925 
Q 1872 3269 2151 3426 
Q 2431 3584 2822 3584 
Q 2878 3584 2943 3579 
Q 3009 3575 3134 3559 
L 3138 2547 
z
" transform="scale(0.015625)"/>
     <path id="DejaVuSans-Bold-63" d="M 3366 3391 
L 3366 2478 
Q 3138 2634 2908 2709 
Q 2678 2784 2431 2784 
Q 1963 2784 1702 2511 
Q 1441 2238 1441 1747 
Q 1441 1256 1702 982 
Q 1963 709 2431 709 
Q 2694 709 2930 787 
Q 3166 866 3366 1019 
L 3366 103 
Q 3103 6 2833 -42 
Q 2563 -91 2291 -91 
Q 1344 -91 809 395 
Q 275 881 275 1747 
Q 275 2613 809 3098 
Q 1344 3584 2291 3584 
Q 2566 3584 2833 3536 
Q 3100 3488 3366 3391 
z
" transform="scale(0.015625)"/>
     <path id="DejaVuSans-Bold-68" d="M 4056 2131 
L 4056 0 
L 2931 0 
L 2931 347 
L 2931 1625 
Q 2931 2084 2911 2256 
Q 2891 2428 2841 2509 
Q 2775 2619 2662 2680 
Q 2550 2741 2406 2741 
Q 2056 2741 1856 2470 
Q 1656 2200 1656 1722 
L 1656 0 
L 538 0 
L 538 4863 
L 1656 4863 
L 1656 2988 
Q 1909 3294 2193 3439 
Q 2478 3584 2822 3584 
Q 3428 3584 3742 3212 
Q 4056 2841 4056 2131 
z
" transform="scale(0.015625)"/>
     <path id="DejaVuSans-Bold-69" d="M 538 3500 
L 1656 3500 
L 1656 0 
L 538 0 
L 538 3500 
z
M 538 4863 
L 1656 4863 
L 1656 3950 
L 538 3950 
L 538 4863 
z
" transform="scale(0.015625)"/>
     <path id="DejaVuSans-Bold-74" d="M 1759 4494 
L 1759 3500 
L 2913 3500 
L 2913 2700 
L 1759 2700 
L 1759 1216 
Q 1759 972 1856 886 
Q 1953 800 2241 800 
L 2816 800 
L 2816 0 
L 1856 0 
Q 1194 0 917 276 
Q 641 553 641 1216 
L 641 2700 
L 84 2700 
L 84 3500 
L 641 3500 
L 641 4494 
L 1759 4494 
z
" transform="scale(0.015625)"/>
     <path id="DejaVuSans-Bold-65" d="M 4031 1759 
L 4031 1441 
L 1416 1441 
Q 1456 1047 1700 850 
Q 1944 653 2381 653 
Q 2734 653 3104 758 
Q 3475 863 3866 1075 
L 3866 213 
Q 3469 63 3072 -14 
Q 2675 -91 2278 -91 
Q 1328 -91 801 392 
Q 275 875 275 1747 
Q 275 2603 792 3093 
Q 1309 3584 2216 3584 
Q 3041 3584 3536 3087 
Q 4031 2591 4031 1759 
z
M 2881 2131 
Q 2881 2450 2695 2645 
Q 2509 2841 2209 2841 
Q 1884 2841 1681 2658 
Q 1478 2475 1428 2131 
L 2881 2131 
z
" transform="scale(0.015625)"/>
     <path id="DejaVuSans-Bold-75" d="M 500 1363 
L 500 3500 
L 1625 3500 
L 1625 3150 
Q 1625 2866 1622 2436 
Q 1619 2006 1619 1863 
Q 1619 1441 1641 1255 
Q 1663 1069 1716 984 
Q 1784 875 1895 815 
Q 2006 756 2150 756 
Q 2500 756 2700 1025 
Q 2900 1294 2900 1772 
L 2900 3500 
L 4019 3500 
L 4019 0 
L 2900 0 
L 2900 506 
Q 2647 200 2364 54 
Q 2081 -91 1741 -91 
Q 1134 -91 817 281 
Q 500 653 500 1363 
z
" transform="scale(0.015625)"/>
    </defs>
    <use xlink:href="#DejaVuSans-Bold-41"/>
    <use xlink:href="#DejaVuSans-Bold-72" x="77.392578"/>
    <use xlink:href="#DejaVuSans-Bold-63" x="126.708984"/>
    <use xlink:href="#DejaVuSans-Bold-68" x="185.986328"/>
    <use xlink:href="#DejaVuSans-Bold-69" x="257.177734"/>
    <use xlink:href="#DejaVuSans-Bold-74" x="291.455078"/>
    <use xlink:href="#DejaVuSans-Bold-65" x="339.257812"/>
    <use xlink:href="#DejaVuSans-Bold-63" x="407.080078"/>
    <use xlink:href="#DejaVuSans-Bold-74" x="466.357422"/>
    <use xlink:href="#DejaVuSans-Bold-75" x="514.160156"/>
    <use xlink:href="#DejaVuSans-Bold-72" x="585.351562"/>
    <use xlink:href="#DejaVuSans-Bold-65" x="634.667969"/>
   </g>
   <!-- 256_128 -->
   <g style="fill: #262626" transform="translate(403.951875 31.1955) scale(0.12 -0.12)">
    <defs>
     <path id="DejaVuSans-Bold-32" d="M 1844 884 
L 3897 884 
L 3897 0 
L 506 0 
L 506 884 
L 2209 2388 
Q 2438 2594 2547 2791 
Q 2656 2988 2656 3200 
Q 2656 3528 2436 3728 
Q 2216 3928 1850 3928 
Q 1569 3928 1234 3808 
Q 900 3688 519 3450 
L 519 4475 
Q 925 4609 1322 4679 
Q 1719 4750 2100 4750 
Q 2938 4750 3402 4381 
Q 3866 4013 3866 3353 
Q 3866 2972 3669 2642 
Q 3472 2313 2841 1759 
L 1844 884 
z
" transform="scale(0.015625)"/>
     <path id="DejaVuSans-Bold-35" d="M 678 4666 
L 3669 4666 
L 3669 3781 
L 1638 3781 
L 1638 3059 
Q 1775 3097 1914 3117 
Q 2053 3138 2203 3138 
Q 3056 3138 3531 2711 
Q 4006 2284 4006 1522 
Q 4006 766 3489 337 
Q 2972 -91 2053 -91 
Q 1656 -91 1267 -14 
Q 878 63 494 219 
L 494 1166 
Q 875 947 1217 837 
Q 1559 728 1863 728 
Q 2300 728 2551 942 
Q 2803 1156 2803 1522 
Q 2803 1891 2551 2103 
Q 2300 2316 1863 2316 
Q 1603 2316 1309 2248 
Q 1016 2181 678 2041 
L 678 4666 
z
" transform="scale(0.015625)"/>
     <path id="DejaVuSans-Bold-36" d="M 2316 2303 
Q 2000 2303 1842 2098 
Q 1684 1894 1684 1484 
Q 1684 1075 1842 870 
Q 2000 666 2316 666 
Q 2634 666 2792 870 
Q 2950 1075 2950 1484 
Q 2950 1894 2792 2098 
Q 2634 2303 2316 2303 
z
M 3803 4544 
L 3803 3681 
Q 3506 3822 3243 3889 
Q 2981 3956 2731 3956 
Q 2194 3956 1894 3657 
Q 1594 3359 1544 2772 
Q 1750 2925 1990 3001 
Q 2231 3078 2516 3078 
Q 3231 3078 3670 2659 
Q 4109 2241 4109 1563 
Q 4109 813 3618 361 
Q 3128 -91 2303 -91 
Q 1394 -91 895 523 
Q 397 1138 397 2266 
Q 397 3422 980 4083 
Q 1563 4744 2578 4744 
Q 2900 4744 3203 4694 
Q 3506 4644 3803 4544 
z
" transform="scale(0.015625)"/>
     <path id="DejaVuSans-Bold-5f" d="M 3200 -916 
L 3200 -1509 
L 0 -1509 
L 0 -916 
L 3200 -916 
z
" transform="scale(0.015625)"/>
     <path id="DejaVuSans-Bold-31" d="M 750 831 
L 1813 831 
L 1813 3847 
L 722 3622 
L 722 4441 
L 1806 4666 
L 2950 4666 
L 2950 831 
L 4013 831 
L 4013 0 
L 750 0 
L 750 831 
z
" transform="scale(0.015625)"/>
     <path id="DejaVuSans-Bold-38" d="M 2228 2088 
Q 1891 2088 1709 1903 
Q 1528 1719 1528 1375 
Q 1528 1031 1709 848 
Q 1891 666 2228 666 
Q 2563 666 2741 848 
Q 2919 1031 2919 1375 
Q 2919 1722 2741 1905 
Q 2563 2088 2228 2088 
z
M 1350 2484 
Q 925 2613 709 2878 
Q 494 3144 494 3541 
Q 494 4131 934 4440 
Q 1375 4750 2228 4750 
Q 3075 4750 3515 4442 
Q 3956 4134 3956 3541 
Q 3956 3144 3739 2878 
Q 3522 2613 3097 2484 
Q 3572 2353 3814 2058 
Q 4056 1763 4056 1313 
Q 4056 619 3595 264 
Q 3134 -91 2228 -91 
Q 1319 -91 855 264 
Q 391 619 391 1313 
Q 391 1763 633 2058 
Q 875 2353 1350 2484 
z
M 1631 3419 
Q 1631 3141 1786 2991 
Q 1941 2841 2228 2841 
Q 2509 2841 2662 2991 
Q 2816 3141 2816 3419 
Q 2816 3697 2662 3845 
Q 2509 3994 2228 3994 
Q 1941 3994 1786 3844 
Q 1631 3694 1631 3419 
z
" transform="scale(0.015625)"/>
    </defs>
    <use xlink:href="#DejaVuSans-Bold-32"/>
    <use xlink:href="#DejaVuSans-Bold-35" x="69.580078"/>
    <use xlink:href="#DejaVuSans-Bold-36" x="139.160156"/>
    <use xlink:href="#DejaVuSans-Bold-5f" x="208.740234"/>
    <use xlink:href="#DejaVuSans-Bold-31" x="258.740234"/>
    <use xlink:href="#DejaVuSans-Bold-32" x="328.320312"/>
    <use xlink:href="#DejaVuSans-Bold-38" x="397.900391"/>
   </g>
  </g>
 </g>
 <defs>
  <clipPath id="p7750b8632c">
   <rect x="108" y="51.84" width="669.6" height="133.056"/>
  </clipPath>
  <clipPath id="pa3dc2be27e">
   <rect x="108" y="251.424" width="669.6" height="133.056"/>
  </clipPath>
 </defs>
</svg>
