<?xml version="1.0" encoding="utf-8" standalone="no"?>
<!DOCTYPE svg PUBLIC "-//W3C//DTD SVG 1.1//EN"
  "http://www.w3.org/Graphics/SVG/1.1/DTD/svg11.dtd">
<svg xmlns:xlink="http://www.w3.org/1999/xlink" width="864pt" height="432pt" viewBox="0 0 864 432" xmlns="http://www.w3.org/2000/svg" version="1.1">
 <metadata>
  <rdf:RDF xmlns:dc="http://purl.org/dc/elements/1.1/" xmlns:cc="http://creativecommons.org/ns#" xmlns:rdf="http://www.w3.org/1999/02/22-rdf-syntax-ns#">
   <cc:Work>
    <dc:type rdf:resource="http://purl.org/dc/dcmitype/StillImage"/>
    <dc:date>2024-05-28T09:09:54.379103</dc:date>
    <dc:format>image/svg+xml</dc:format>
    <dc:creator>
     <cc:Agent>
      <dc:title>Matplotlib v3.8.2, https://matplotlib.org/</dc:title>
     </cc:Agent>
    </dc:creator>
   </cc:Work>
  </rdf:RDF>
 </metadata>
 <defs>
  <style type="text/css">*{stroke-linejoin: round; stroke-linecap: butt}</style>
 </defs>
 <g id="figure_1">
  <g id="patch_1">
   <path d="M 0 432 
L 864 432 
L 864 0 
L 0 0 
z
" style="fill: #ffffff"/>
  </g>
  <g id="axes_1">
   <g id="patch_2">
    <path d="M 108 184.896 
L 777.6 184.896 
L 777.6 51.84 
L 108 51.84 
z
" style="fill: #ffffff"/>
   </g>
   <g id="matplotlib.axis_1">
    <g id="xtick_1">
     <g id="line2d_1">
      <path d="M 138.436364 184.896 
L 138.436364 51.84 
" clip-path="url(#p0c77f69443)" style="fill: none; stroke: #cccccc; stroke-width: 0.8; stroke-linecap: round"/>
     </g>
     <g id="line2d_2"/>
     <g id="text_1">
      <!-- 0 -->
      <g style="fill: #262626" transform="translate(135.655895 195.553812) scale(0.1 -0.1)">
       <defs>
        <path id="ArialMT-30" d="M 266 2259 
Q 266 3072 433 3567 
Q 600 4063 929 4331 
Q 1259 4600 1759 4600 
Q 2128 4600 2406 4451 
Q 2684 4303 2865 4023 
Q 3047 3744 3150 3342 
Q 3253 2941 3253 2259 
Q 3253 1453 3087 958 
Q 2922 463 2592 192 
Q 2263 -78 1759 -78 
Q 1097 -78 719 397 
Q 266 969 266 2259 
z
M 844 2259 
Q 844 1131 1108 757 
Q 1372 384 1759 384 
Q 2147 384 2411 759 
Q 2675 1134 2675 2259 
Q 2675 3391 2411 3762 
Q 2147 4134 1753 4134 
Q 1366 4134 1134 3806 
Q 844 3388 844 2259 
z
" transform="scale(0.015625)"/>
       </defs>
       <use xlink:href="#ArialMT-30"/>
      </g>
     </g>
    </g>
    <g id="xtick_2">
     <g id="line2d_3">
      <path d="M 262.666419 184.896 
L 262.666419 51.84 
" clip-path="url(#p0c77f69443)" style="fill: none; stroke: #cccccc; stroke-width: 0.8; stroke-linecap: round"/>
     </g>
     <g id="line2d_4"/>
     <g id="text_2">
      <!-- 10 -->
      <g style="fill: #262626" transform="translate(257.105482 195.553812) scale(0.1 -0.1)">
       <defs>
        <path id="ArialMT-31" d="M 2384 0 
L 1822 0 
L 1822 3584 
Q 1619 3391 1289 3197 
Q 959 3003 697 2906 
L 697 3450 
Q 1169 3672 1522 3987 
Q 1875 4303 2022 4600 
L 2384 4600 
L 2384 0 
z
" transform="scale(0.015625)"/>
       </defs>
       <use xlink:href="#ArialMT-31"/>
       <use xlink:href="#ArialMT-30" x="55.615234"/>
      </g>
     </g>
    </g>
    <g id="xtick_3">
     <g id="line2d_5">
      <path d="M 386.896475 184.896 
L 386.896475 51.84 
" clip-path="url(#p0c77f69443)" style="fill: none; stroke: #cccccc; stroke-width: 0.8; stroke-linecap: round"/>
     </g>
     <g id="line2d_6"/>
     <g id="text_3">
      <!-- 20 -->
      <g style="fill: #262626" transform="translate(381.335537 195.553812) scale(0.1 -0.1)">
       <defs>
        <path id="ArialMT-32" d="M 3222 541 
L 3222 0 
L 194 0 
Q 188 203 259 391 
Q 375 700 629 1000 
Q 884 1300 1366 1694 
Q 2113 2306 2375 2664 
Q 2638 3022 2638 3341 
Q 2638 3675 2398 3904 
Q 2159 4134 1775 4134 
Q 1369 4134 1125 3890 
Q 881 3647 878 3216 
L 300 3275 
Q 359 3922 746 4261 
Q 1134 4600 1788 4600 
Q 2447 4600 2831 4234 
Q 3216 3869 3216 3328 
Q 3216 3053 3103 2787 
Q 2991 2522 2730 2228 
Q 2469 1934 1863 1422 
Q 1356 997 1212 845 
Q 1069 694 975 541 
L 3222 541 
z
" transform="scale(0.015625)"/>
       </defs>
       <use xlink:href="#ArialMT-32"/>
       <use xlink:href="#ArialMT-30" x="55.615234"/>
      </g>
     </g>
    </g>
    <g id="xtick_4">
     <g id="line2d_7">
      <path d="M 511.126531 184.896 
L 511.126531 51.84 
" clip-path="url(#p0c77f69443)" style="fill: none; stroke: #cccccc; stroke-width: 0.8; stroke-linecap: round"/>
     </g>
     <g id="line2d_8"/>
     <g id="text_4">
      <!-- 30 -->
      <g style="fill: #262626" transform="translate(505.565593 195.553812) scale(0.1 -0.1)">
       <defs>
        <path id="ArialMT-33" d="M 269 1209 
L 831 1284 
Q 928 806 1161 595 
Q 1394 384 1728 384 
Q 2125 384 2398 659 
Q 2672 934 2672 1341 
Q 2672 1728 2419 1979 
Q 2166 2231 1775 2231 
Q 1616 2231 1378 2169 
L 1441 2663 
Q 1497 2656 1531 2656 
Q 1891 2656 2178 2843 
Q 2466 3031 2466 3422 
Q 2466 3731 2256 3934 
Q 2047 4138 1716 4138 
Q 1388 4138 1169 3931 
Q 950 3725 888 3313 
L 325 3413 
Q 428 3978 793 4289 
Q 1159 4600 1703 4600 
Q 2078 4600 2393 4439 
Q 2709 4278 2876 4000 
Q 3044 3722 3044 3409 
Q 3044 3113 2884 2869 
Q 2725 2625 2413 2481 
Q 2819 2388 3044 2092 
Q 3269 1797 3269 1353 
Q 3269 753 2831 336 
Q 2394 -81 1725 -81 
Q 1122 -81 723 278 
Q 325 638 269 1209 
z
" transform="scale(0.015625)"/>
       </defs>
       <use xlink:href="#ArialMT-33"/>
       <use xlink:href="#ArialMT-30" x="55.615234"/>
      </g>
     </g>
    </g>
    <g id="xtick_5">
     <g id="line2d_9">
      <path d="M 635.356586 184.896 
L 635.356586 51.84 
" clip-path="url(#p0c77f69443)" style="fill: none; stroke: #cccccc; stroke-width: 0.8; stroke-linecap: round"/>
     </g>
     <g id="line2d_10"/>
     <g id="text_5">
      <!-- 40 -->
      <g style="fill: #262626" transform="translate(629.795649 195.553812) scale(0.1 -0.1)">
       <defs>
        <path id="ArialMT-34" d="M 2069 0 
L 2069 1097 
L 81 1097 
L 81 1613 
L 2172 4581 
L 2631 4581 
L 2631 1613 
L 3250 1613 
L 3250 1097 
L 2631 1097 
L 2631 0 
L 2069 0 
z
M 2069 1613 
L 2069 3678 
L 634 1613 
L 2069 1613 
z
" transform="scale(0.015625)"/>
       </defs>
       <use xlink:href="#ArialMT-34"/>
       <use xlink:href="#ArialMT-30" x="55.615234"/>
      </g>
     </g>
    </g>
    <g id="xtick_6">
     <g id="line2d_11">
      <path d="M 759.586642 184.896 
L 759.586642 51.84 
" clip-path="url(#p0c77f69443)" style="fill: none; stroke: #cccccc; stroke-width: 0.8; stroke-linecap: round"/>
     </g>
     <g id="line2d_12"/>
     <g id="text_6">
      <!-- 50 -->
      <g style="fill: #262626" transform="translate(754.025704 195.553812) scale(0.1 -0.1)">
       <defs>
        <path id="ArialMT-35" d="M 266 1200 
L 856 1250 
Q 922 819 1161 601 
Q 1400 384 1738 384 
Q 2144 384 2425 690 
Q 2706 997 2706 1503 
Q 2706 1984 2436 2262 
Q 2166 2541 1728 2541 
Q 1456 2541 1237 2417 
Q 1019 2294 894 2097 
L 366 2166 
L 809 4519 
L 3088 4519 
L 3088 3981 
L 1259 3981 
L 1013 2750 
Q 1425 3038 1878 3038 
Q 2478 3038 2890 2622 
Q 3303 2206 3303 1553 
Q 3303 931 2941 478 
Q 2500 -78 1738 -78 
Q 1113 -78 717 272 
Q 322 622 266 1200 
z
" transform="scale(0.015625)"/>
       </defs>
       <use xlink:href="#ArialMT-35"/>
       <use xlink:href="#ArialMT-30" x="55.615234"/>
      </g>
     </g>
    </g>
    <g id="text_7">
     <!-- Epochs -->
     <g style="fill: #262626" transform="translate(426.123438 208.699125) scale(0.1 -0.1)">
      <defs>
       <path id="ArialMT-45" d="M 506 0 
L 506 4581 
L 3819 4581 
L 3819 4041 
L 1113 4041 
L 1113 2638 
L 3647 2638 
L 3647 2100 
L 1113 2100 
L 1113 541 
L 3925 541 
L 3925 0 
L 506 0 
z
" transform="scale(0.015625)"/>
       <path id="ArialMT-70" d="M 422 -1272 
L 422 3319 
L 934 3319 
L 934 2888 
Q 1116 3141 1344 3267 
Q 1572 3394 1897 3394 
Q 2322 3394 2647 3175 
Q 2972 2956 3137 2557 
Q 3303 2159 3303 1684 
Q 3303 1175 3120 767 
Q 2938 359 2589 142 
Q 2241 -75 1856 -75 
Q 1575 -75 1351 44 
Q 1128 163 984 344 
L 984 -1272 
L 422 -1272 
z
M 931 1641 
Q 931 1000 1190 694 
Q 1450 388 1819 388 
Q 2194 388 2461 705 
Q 2728 1022 2728 1688 
Q 2728 2322 2467 2637 
Q 2206 2953 1844 2953 
Q 1484 2953 1207 2617 
Q 931 2281 931 1641 
z
" transform="scale(0.015625)"/>
       <path id="ArialMT-6f" d="M 213 1659 
Q 213 2581 725 3025 
Q 1153 3394 1769 3394 
Q 2453 3394 2887 2945 
Q 3322 2497 3322 1706 
Q 3322 1066 3130 698 
Q 2938 331 2570 128 
Q 2203 -75 1769 -75 
Q 1072 -75 642 372 
Q 213 819 213 1659 
z
M 791 1659 
Q 791 1022 1069 705 
Q 1347 388 1769 388 
Q 2188 388 2466 706 
Q 2744 1025 2744 1678 
Q 2744 2294 2464 2611 
Q 2184 2928 1769 2928 
Q 1347 2928 1069 2612 
Q 791 2297 791 1659 
z
" transform="scale(0.015625)"/>
       <path id="ArialMT-63" d="M 2588 1216 
L 3141 1144 
Q 3050 572 2676 248 
Q 2303 -75 1759 -75 
Q 1078 -75 664 370 
Q 250 816 250 1647 
Q 250 2184 428 2587 
Q 606 2991 970 3192 
Q 1334 3394 1763 3394 
Q 2303 3394 2647 3120 
Q 2991 2847 3088 2344 
L 2541 2259 
Q 2463 2594 2264 2762 
Q 2066 2931 1784 2931 
Q 1359 2931 1093 2626 
Q 828 2322 828 1663 
Q 828 994 1084 691 
Q 1341 388 1753 388 
Q 2084 388 2306 591 
Q 2528 794 2588 1216 
z
" transform="scale(0.015625)"/>
       <path id="ArialMT-68" d="M 422 0 
L 422 4581 
L 984 4581 
L 984 2938 
Q 1378 3394 1978 3394 
Q 2347 3394 2619 3248 
Q 2891 3103 3008 2847 
Q 3125 2591 3125 2103 
L 3125 0 
L 2563 0 
L 2563 2103 
Q 2563 2525 2380 2717 
Q 2197 2909 1863 2909 
Q 1613 2909 1392 2779 
Q 1172 2650 1078 2428 
Q 984 2206 984 1816 
L 984 0 
L 422 0 
z
" transform="scale(0.015625)"/>
       <path id="ArialMT-73" d="M 197 991 
L 753 1078 
Q 800 744 1014 566 
Q 1228 388 1613 388 
Q 2000 388 2187 545 
Q 2375 703 2375 916 
Q 2375 1106 2209 1216 
Q 2094 1291 1634 1406 
Q 1016 1563 777 1677 
Q 538 1791 414 1992 
Q 291 2194 291 2438 
Q 291 2659 392 2848 
Q 494 3038 669 3163 
Q 800 3259 1026 3326 
Q 1253 3394 1513 3394 
Q 1903 3394 2198 3281 
Q 2494 3169 2634 2976 
Q 2775 2784 2828 2463 
L 2278 2388 
Q 2241 2644 2061 2787 
Q 1881 2931 1553 2931 
Q 1166 2931 1000 2803 
Q 834 2675 834 2503 
Q 834 2394 903 2306 
Q 972 2216 1119 2156 
Q 1203 2125 1616 2013 
Q 2213 1853 2448 1751 
Q 2684 1650 2818 1456 
Q 2953 1263 2953 975 
Q 2953 694 2789 445 
Q 2625 197 2315 61 
Q 2006 -75 1616 -75 
Q 969 -75 630 194 
Q 291 463 197 991 
z
" transform="scale(0.015625)"/>
      </defs>
      <use xlink:href="#ArialMT-45"/>
      <use xlink:href="#ArialMT-70" x="66.699219"/>
      <use xlink:href="#ArialMT-6f" x="122.314453"/>
      <use xlink:href="#ArialMT-63" x="177.929688"/>
      <use xlink:href="#ArialMT-68" x="227.929688"/>
      <use xlink:href="#ArialMT-73" x="283.544922"/>
     </g>
    </g>
   </g>
   <g id="matplotlib.axis_2">
    <g id="ytick_1">
     <g id="line2d_13">
      <path d="M 108 175.224479 
L 777.6 175.224479 
" clip-path="url(#p0c77f69443)" style="fill: none; stroke: #cccccc; stroke-width: 0.8; stroke-linecap: round"/>
     </g>
     <g id="line2d_14"/>
     <g id="text_8">
      <!-- 0.80 -->
      <g style="fill: #262626" transform="translate(85.039062 178.803386) scale(0.1 -0.1)">
       <defs>
        <path id="ArialMT-2e" d="M 581 0 
L 581 641 
L 1222 641 
L 1222 0 
L 581 0 
z
" transform="scale(0.015625)"/>
        <path id="ArialMT-38" d="M 1131 2484 
Q 781 2613 612 2850 
Q 444 3088 444 3419 
Q 444 3919 803 4259 
Q 1163 4600 1759 4600 
Q 2359 4600 2725 4251 
Q 3091 3903 3091 3403 
Q 3091 3084 2923 2848 
Q 2756 2613 2416 2484 
Q 2838 2347 3058 2040 
Q 3278 1734 3278 1309 
Q 3278 722 2862 322 
Q 2447 -78 1769 -78 
Q 1091 -78 675 323 
Q 259 725 259 1325 
Q 259 1772 486 2073 
Q 713 2375 1131 2484 
z
M 1019 3438 
Q 1019 3113 1228 2906 
Q 1438 2700 1772 2700 
Q 2097 2700 2305 2904 
Q 2513 3109 2513 3406 
Q 2513 3716 2298 3927 
Q 2084 4138 1766 4138 
Q 1444 4138 1231 3931 
Q 1019 3725 1019 3438 
z
M 838 1322 
Q 838 1081 952 856 
Q 1066 631 1291 507 
Q 1516 384 1775 384 
Q 2178 384 2440 643 
Q 2703 903 2703 1303 
Q 2703 1709 2433 1975 
Q 2163 2241 1756 2241 
Q 1359 2241 1098 1978 
Q 838 1716 838 1322 
z
" transform="scale(0.015625)"/>
       </defs>
       <use xlink:href="#ArialMT-30"/>
       <use xlink:href="#ArialMT-2e" x="55.615234"/>
       <use xlink:href="#ArialMT-38" x="83.398438"/>
       <use xlink:href="#ArialMT-30" x="139.013672"/>
      </g>
     </g>
    </g>
    <g id="ytick_2">
     <g id="line2d_15">
      <path d="M 108 135.22977 
L 777.6 135.22977 
" clip-path="url(#p0c77f69443)" style="fill: none; stroke: #cccccc; stroke-width: 0.8; stroke-linecap: round"/>
     </g>
     <g id="line2d_16"/>
     <g id="text_9">
      <!-- 0.85 -->
      <g style="fill: #262626" transform="translate(85.039062 138.808676) scale(0.1 -0.1)">
       <use xlink:href="#ArialMT-30"/>
       <use xlink:href="#ArialMT-2e" x="55.615234"/>
       <use xlink:href="#ArialMT-38" x="83.398438"/>
       <use xlink:href="#ArialMT-35" x="139.013672"/>
      </g>
     </g>
    </g>
    <g id="ytick_3">
     <g id="line2d_17">
      <path d="M 108 95.23506 
L 777.6 95.23506 
" clip-path="url(#p0c77f69443)" style="fill: none; stroke: #cccccc; stroke-width: 0.8; stroke-linecap: round"/>
     </g>
     <g id="line2d_18"/>
     <g id="text_10">
      <!-- 0.90 -->
      <g style="fill: #262626" transform="translate(85.039062 98.813966) scale(0.1 -0.1)">
       <defs>
        <path id="ArialMT-39" d="M 350 1059 
L 891 1109 
Q 959 728 1153 556 
Q 1347 384 1650 384 
Q 1909 384 2104 503 
Q 2300 622 2425 820 
Q 2550 1019 2634 1356 
Q 2719 1694 2719 2044 
Q 2719 2081 2716 2156 
Q 2547 1888 2255 1720 
Q 1963 1553 1622 1553 
Q 1053 1553 659 1965 
Q 266 2378 266 3053 
Q 266 3750 677 4175 
Q 1088 4600 1706 4600 
Q 2153 4600 2523 4359 
Q 2894 4119 3086 3673 
Q 3278 3228 3278 2384 
Q 3278 1506 3087 986 
Q 2897 466 2520 194 
Q 2144 -78 1638 -78 
Q 1100 -78 759 220 
Q 419 519 350 1059 
z
M 2653 3081 
Q 2653 3566 2395 3850 
Q 2138 4134 1775 4134 
Q 1400 4134 1122 3828 
Q 844 3522 844 3034 
Q 844 2597 1108 2323 
Q 1372 2050 1759 2050 
Q 2150 2050 2401 2323 
Q 2653 2597 2653 3081 
z
" transform="scale(0.015625)"/>
       </defs>
       <use xlink:href="#ArialMT-30"/>
       <use xlink:href="#ArialMT-2e" x="55.615234"/>
       <use xlink:href="#ArialMT-39" x="83.398438"/>
       <use xlink:href="#ArialMT-30" x="139.013672"/>
      </g>
     </g>
    </g>
    <g id="ytick_4">
     <g id="line2d_19">
      <path d="M 108 55.24035 
L 777.6 55.24035 
" clip-path="url(#p0c77f69443)" style="fill: none; stroke: #cccccc; stroke-width: 0.8; stroke-linecap: round"/>
     </g>
     <g id="line2d_20"/>
     <g id="text_11">
      <!-- 0.95 -->
      <g style="fill: #262626" transform="translate(85.039062 58.819256) scale(0.1 -0.1)">
       <use xlink:href="#ArialMT-30"/>
       <use xlink:href="#ArialMT-2e" x="55.615234"/>
       <use xlink:href="#ArialMT-39" x="83.398438"/>
       <use xlink:href="#ArialMT-35" x="139.013672"/>
      </g>
     </g>
    </g>
    <g id="text_12">
     <!-- Accuracy -->
     <g style="fill: #262626" transform="translate(78.934375 138.928937) rotate(-90) scale(0.1 -0.1)">
      <defs>
       <path id="ArialMT-41" d="M -9 0 
L 1750 4581 
L 2403 4581 
L 4278 0 
L 3588 0 
L 3053 1388 
L 1138 1388 
L 634 0 
L -9 0 
z
M 1313 1881 
L 2866 1881 
L 2388 3150 
Q 2169 3728 2063 4100 
Q 1975 3659 1816 3225 
L 1313 1881 
z
" transform="scale(0.015625)"/>
       <path id="ArialMT-75" d="M 2597 0 
L 2597 488 
Q 2209 -75 1544 -75 
Q 1250 -75 995 37 
Q 741 150 617 320 
Q 494 491 444 738 
Q 409 903 409 1263 
L 409 3319 
L 972 3319 
L 972 1478 
Q 972 1038 1006 884 
Q 1059 663 1231 536 
Q 1403 409 1656 409 
Q 1909 409 2131 539 
Q 2353 669 2445 892 
Q 2538 1116 2538 1541 
L 2538 3319 
L 3100 3319 
L 3100 0 
L 2597 0 
z
" transform="scale(0.015625)"/>
       <path id="ArialMT-72" d="M 416 0 
L 416 3319 
L 922 3319 
L 922 2816 
Q 1116 3169 1280 3281 
Q 1444 3394 1641 3394 
Q 1925 3394 2219 3213 
L 2025 2691 
Q 1819 2813 1613 2813 
Q 1428 2813 1281 2702 
Q 1134 2591 1072 2394 
Q 978 2094 978 1738 
L 978 0 
L 416 0 
z
" transform="scale(0.015625)"/>
       <path id="ArialMT-61" d="M 2588 409 
Q 2275 144 1986 34 
Q 1697 -75 1366 -75 
Q 819 -75 525 192 
Q 231 459 231 875 
Q 231 1119 342 1320 
Q 453 1522 633 1644 
Q 813 1766 1038 1828 
Q 1203 1872 1538 1913 
Q 2219 1994 2541 2106 
Q 2544 2222 2544 2253 
Q 2544 2597 2384 2738 
Q 2169 2928 1744 2928 
Q 1347 2928 1158 2789 
Q 969 2650 878 2297 
L 328 2372 
Q 403 2725 575 2942 
Q 747 3159 1072 3276 
Q 1397 3394 1825 3394 
Q 2250 3394 2515 3294 
Q 2781 3194 2906 3042 
Q 3031 2891 3081 2659 
Q 3109 2516 3109 2141 
L 3109 1391 
Q 3109 606 3145 398 
Q 3181 191 3288 0 
L 2700 0 
Q 2613 175 2588 409 
z
M 2541 1666 
Q 2234 1541 1622 1453 
Q 1275 1403 1131 1340 
Q 988 1278 909 1158 
Q 831 1038 831 891 
Q 831 666 1001 516 
Q 1172 366 1500 366 
Q 1825 366 2078 508 
Q 2331 650 2450 897 
Q 2541 1088 2541 1459 
L 2541 1666 
z
" transform="scale(0.015625)"/>
       <path id="ArialMT-79" d="M 397 -1278 
L 334 -750 
Q 519 -800 656 -800 
Q 844 -800 956 -737 
Q 1069 -675 1141 -563 
Q 1194 -478 1313 -144 
Q 1328 -97 1363 -6 
L 103 3319 
L 709 3319 
L 1400 1397 
Q 1534 1031 1641 628 
Q 1738 1016 1872 1384 
L 2581 3319 
L 3144 3319 
L 1881 -56 
Q 1678 -603 1566 -809 
Q 1416 -1088 1222 -1217 
Q 1028 -1347 759 -1347 
Q 597 -1347 397 -1278 
z
" transform="scale(0.015625)"/>
      </defs>
      <use xlink:href="#ArialMT-41"/>
      <use xlink:href="#ArialMT-63" x="66.699219"/>
      <use xlink:href="#ArialMT-63" x="116.699219"/>
      <use xlink:href="#ArialMT-75" x="166.699219"/>
      <use xlink:href="#ArialMT-72" x="222.314453"/>
      <use xlink:href="#ArialMT-61" x="255.615234"/>
      <use xlink:href="#ArialMT-63" x="311.230469"/>
      <use xlink:href="#ArialMT-79" x="361.230469"/>
     </g>
    </g>
   </g>
   <g id="line2d_21">
    <path d="M 138.436364 178.848 
L 150.859369 80.185051 
L 163.282375 80.185051 
L 175.70538 75.446477 
L 188.128386 80.463414 
L 200.551391 77.954946 
L 212.974397 80.742577 
L 225.397403 82.693519 
L 237.820408 78.791635 
L 250.243414 81.299303 
L 262.666419 77.397419 
L 275.089425 86.873766 
L 287.51243 82.693519 
L 299.935436 77.954946 
L 312.358442 81.578466 
L 324.781447 80.742577 
L 337.204453 79.069998 
L 349.627458 82.135993 
L 362.050464 77.119056 
L 374.473469 78.512472 
L 386.896475 82.693519 
L 399.319481 79.069998 
L 411.742486 76.283167 
L 424.165492 78.234109 
L 436.588497 81.02094 
L 449.011503 79.069998 
L 461.434508 76.283167 
L 473.857514 75.725641 
L 486.280519 77.397419 
L 498.703525 79.069998 
L 511.126531 77.119056 
L 523.549536 77.676582 
L 535.972542 77.119056 
L 548.395547 76.004004 
L 560.818553 79.905888 
L 573.241558 77.676582 
L 585.664564 74.332225 
L 598.08757 77.676582 
L 610.510575 77.119056 
L 622.933581 74.610588 
L 635.356586 77.119056 
L 647.779592 73.495536 
L 660.202597 76.839893 
L 672.625603 76.283167 
L 685.048609 77.119056 
L 697.471614 77.954946 
L 709.89462 75.168114 
L 722.317625 74.332225 
L 734.740631 74.888951 
L 747.163636 75.168114 
" clip-path="url(#p0c77f69443)" style="fill: none; stroke: #1f77b4; stroke-width: 1.5; stroke-linecap: round"/>
   </g>
   <g id="line2d_22">
    <path d="M 138.436364 101.645412 
L 150.859369 76.56153 
L 163.282375 66.80682 
L 175.70538 67.64271 
L 188.128386 64.576715 
L 200.551391 65.134242 
L 212.974397 65.691768 
L 225.397403 66.80682 
L 237.820408 67.921873 
L 250.243414 63.462463 
L 262.666419 64.298352 
L 275.089425 68.757762 
L 287.51243 68.200236 
L 299.935436 65.970931 
L 312.358442 64.855878 
L 324.781447 68.200236 
L 337.204453 65.413405 
L 349.627458 66.527657 
L 362.050464 63.740826 
L 374.473469 64.576715 
L 386.896475 64.576715 
L 399.319481 68.200236 
L 411.742486 65.413405 
L 424.165492 67.085183 
L 436.588497 64.576715 
L 449.011503 67.64271 
L 461.434508 67.921873 
L 473.857514 68.200236 
L 486.280519 64.855878 
L 498.703525 65.413405 
L 511.126531 65.413405 
L 523.549536 65.413405 
L 535.972542 63.740826 
L 548.395547 69.036125 
L 560.818553 63.462463 
L 573.241558 64.576715 
L 585.664564 68.200236 
L 598.08757 65.134242 
L 610.510575 65.134242 
L 622.933581 65.691768 
L 635.356586 67.364347 
L 647.779592 64.019989 
L 660.202597 65.691768 
L 672.625603 62.34741 
L 685.048609 66.80682 
L 697.471614 67.364347 
L 709.89462 69.036125 
L 722.317625 68.757762 
L 734.740631 63.1833 
L 747.163636 65.413405 
" clip-path="url(#p0c77f69443)" style="fill: none; stroke: #ff7f0e; stroke-width: 1.5; stroke-linecap: round"/>
   </g>
   <g id="line2d_23">
    <path d="M 138.436364 91.054813 
L 150.859369 69.872815 
L 163.282375 79.627524 
L 175.70538 80.185051 
L 188.128386 82.693519 
L 200.551391 80.463414 
L 212.974397 82.971882 
L 225.397403 79.905888 
L 237.820408 77.397419 
L 250.243414 79.905888 
L 262.666419 80.185051 
L 275.089425 82.414356 
L 287.51243 77.954946 
L 299.935436 78.512472 
L 312.358442 80.463414 
L 324.781447 79.348361 
L 337.204453 78.512472 
L 349.627458 79.069998 
L 362.050464 79.348361 
L 374.473469 80.742577 
L 386.896475 79.627524 
L 399.319481 76.56153 
L 411.742486 79.905888 
L 424.165492 75.446477 
L 436.588497 79.348361 
L 449.011503 79.627524 
L 461.434508 77.397419 
L 473.857514 78.234109 
L 486.280519 76.839893 
L 498.703525 79.627524 
L 511.126531 77.676582 
L 523.549536 75.446477 
L 535.972542 79.069998 
L 548.395547 77.954946 
L 560.818553 79.627524 
L 573.241558 77.119056 
L 585.664564 77.119056 
L 598.08757 78.512472 
L 610.510575 77.397419 
L 622.933581 76.56153 
L 635.356586 78.512472 
L 647.779592 78.791635 
L 660.202597 77.954946 
L 672.625603 77.676582 
L 685.048609 78.234109 
L 697.471614 77.676582 
L 709.89462 77.397419 
L 722.317625 80.463414 
L 734.740631 74.888951 
L 747.163636 77.397419 
" clip-path="url(#p0c77f69443)" style="fill: none; stroke: #2ca02c; stroke-width: 1.5; stroke-linecap: round"/>
   </g>
   <g id="line2d_24">
    <path d="M 138.436364 119.761416 
L 150.859369 71.26623 
L 163.282375 61.511521 
L 175.70538 62.625773 
L 188.128386 66.80682 
L 200.551391 63.462463 
L 212.974397 62.904936 
L 225.397403 61.232358 
L 237.820408 63.1833 
L 250.243414 60.674831 
L 262.666419 64.576715 
L 275.089425 63.462463 
L 287.51243 62.625773 
L 299.935436 65.134242 
L 312.358442 62.069047 
L 324.781447 64.576715 
L 337.204453 61.789884 
L 349.627458 61.511521 
L 362.050464 61.789884 
L 374.473469 63.462463 
L 386.896475 61.511521 
L 399.319481 61.232358 
L 411.742486 65.413405 
L 424.165492 64.298352 
L 436.588497 64.576715 
L 449.011503 64.855878 
L 461.434508 64.298352 
L 473.857514 63.1833 
L 486.280519 62.904936 
L 498.703525 65.134242 
L 511.126531 65.134242 
L 523.549536 64.855878 
L 535.972542 62.34741 
L 548.395547 61.789884 
L 560.818553 63.462463 
L 573.241558 62.625773 
L 585.664564 62.069047 
L 598.08757 63.462463 
L 610.510575 65.413405 
L 622.933581 60.396468 
L 635.356586 67.085183 
L 647.779592 63.740826 
L 660.202597 64.298352 
L 672.625603 62.34741 
L 685.048609 64.298352 
L 697.471614 61.789884 
L 709.89462 64.019989 
L 722.317625 62.904936 
L 734.740631 64.019989 
L 747.163636 64.576715 
" clip-path="url(#p0c77f69443)" style="fill: none; stroke: #d62728; stroke-width: 1.5; stroke-linecap: round"/>
   </g>
   <g id="line2d_25">
    <path d="M 138.436364 101.645412 
L 150.859369 70.987067 
L 163.282375 66.527657 
L 175.70538 69.593652 
L 188.128386 67.921873 
L 200.551391 68.479399 
L 212.974397 64.855878 
L 225.397403 67.921873 
L 237.820408 64.855878 
L 250.243414 65.691768 
L 262.666419 68.200236 
L 275.089425 67.921873 
L 287.51243 66.249294 
L 299.935436 66.249294 
L 312.358442 66.249294 
L 324.781447 64.019989 
L 337.204453 69.872815 
L 349.627458 64.298352 
L 362.050464 65.413405 
L 374.473469 64.298352 
L 386.896475 64.855878 
L 399.319481 67.364347 
L 411.742486 58.445526 
L 424.165492 62.34741 
L 436.588497 65.691768 
L 449.011503 62.904936 
L 461.434508 65.134242 
L 473.857514 65.970931 
L 486.280519 65.134242 
L 498.703525 65.134242 
L 511.126531 65.691768 
L 523.549536 64.019989 
L 535.972542 67.921873 
L 548.395547 61.789884 
L 560.818553 65.970931 
L 573.241558 66.249294 
L 585.664564 64.855878 
L 598.08757 65.413405 
L 610.510575 65.413405 
L 622.933581 65.134242 
L 635.356586 62.904936 
L 647.779592 64.019989 
L 660.202597 65.970931 
L 672.625603 60.674831 
L 685.048609 64.576715 
L 697.471614 64.298352 
L 709.89462 65.691768 
L 722.317625 63.740826 
L 734.740631 65.134242 
L 747.163636 63.1833 
" clip-path="url(#p0c77f69443)" style="fill: none; stroke: #9467bd; stroke-width: 1.5; stroke-linecap: round"/>
   </g>
   <g id="line2d_26">
    <path d="M 138.436364 87.152129 
L 150.859369 72.659646 
L 163.282375 75.446477 
L 175.70538 71.823757 
L 188.128386 69.593652 
L 200.551391 69.593652 
L 212.974397 69.593652 
L 225.397403 71.544594 
L 237.820408 74.610588 
L 250.243414 72.938009 
L 262.666419 72.938009 
L 275.089425 72.938009 
L 287.51243 74.053062 
L 299.935436 72.10212 
L 312.358442 72.381283 
L 324.781447 71.544594 
L 337.204453 75.168114 
L 349.627458 71.26623 
L 362.050464 74.610588 
L 374.473469 71.26623 
L 386.896475 73.495536 
L 399.319481 70.151178 
L 411.742486 71.544594 
L 424.165492 71.26623 
L 436.588497 69.315288 
L 449.011503 71.544594 
L 461.434508 71.823757 
L 473.857514 72.10212 
L 486.280519 71.26623 
L 498.703525 71.823757 
L 511.126531 75.168114 
L 523.549536 70.987067 
L 535.972542 71.823757 
L 548.395547 72.10212 
L 560.818553 70.708704 
L 573.241558 69.315288 
L 585.664564 70.708704 
L 598.08757 71.544594 
L 610.510575 72.381283 
L 622.933581 69.315288 
L 635.356586 70.708704 
L 647.779592 69.872815 
L 660.202597 69.315288 
L 672.625603 70.430341 
L 685.048609 72.659646 
L 697.471614 72.381283 
L 709.89462 73.217172 
L 722.317625 73.774699 
L 734.740631 68.757762 
L 747.163636 69.872815 
" clip-path="url(#p0c77f69443)" style="fill: none; stroke: #8c564b; stroke-width: 1.5; stroke-linecap: round"/>
   </g>
   <g id="line2d_27">
    <path d="M 138.436364 95.513423 
L 150.859369 71.26623 
L 163.282375 64.576715 
L 175.70538 63.740826 
L 188.128386 59.560579 
L 200.551391 60.953994 
L 212.974397 62.34741 
L 225.397403 61.232358 
L 237.820408 60.674831 
L 250.243414 57.888 
L 262.666419 63.462463 
L 275.089425 60.396468 
L 287.51243 63.462463 
L 299.935436 60.953994 
L 312.358442 58.723889 
L 324.781447 60.674831 
L 337.204453 60.118105 
L 349.627458 60.674831 
L 362.050464 61.232358 
L 374.473469 62.904936 
L 386.896475 62.904936 
L 399.319481 62.069047 
L 411.742486 61.511521 
L 424.165492 62.069047 
L 436.588497 60.396468 
L 449.011503 62.34741 
L 461.434508 60.953994 
L 473.857514 59.838942 
L 486.280519 57.888 
L 498.703525 61.789884 
L 511.126531 60.118105 
L 523.549536 61.789884 
L 535.972542 62.069047 
L 548.395547 64.298352 
L 560.818553 60.953994 
L 573.241558 60.953994 
L 585.664564 59.560579 
L 598.08757 59.003053 
L 610.510575 62.34741 
L 622.933581 64.298352 
L 635.356586 60.396468 
L 647.779592 60.953994 
L 660.202597 65.134242 
L 672.625603 61.511521 
L 685.048609 60.674831 
L 697.471614 60.396468 
L 709.89462 63.1833 
L 722.317625 60.396468 
L 734.740631 63.1833 
L 747.163636 64.019989 
" clip-path="url(#p0c77f69443)" style="fill: none; stroke: #e377c2; stroke-width: 1.5; stroke-linecap: round"/>
   </g>
   <g id="patch_3">
    <path d="M 108 184.896 
L 108 51.84 
" style="fill: none; stroke: #cccccc; stroke-linejoin: miter; stroke-linecap: square"/>
   </g>
   <g id="patch_4">
    <path d="M 777.6 184.896 
L 777.6 51.84 
" style="fill: none; stroke: #cccccc; stroke-linejoin: miter; stroke-linecap: square"/>
   </g>
   <g id="patch_5">
    <path d="M 108 184.896 
L 777.6 184.896 
" style="fill: none; stroke: #cccccc; stroke-linejoin: miter; stroke-linecap: square"/>
   </g>
   <g id="patch_6">
    <path d="M 108 51.84 
L 777.6 51.84 
" style="fill: none; stroke: #cccccc; stroke-linejoin: miter; stroke-linecap: square"/>
   </g>
   <g id="text_13">
    <!-- Train -->
    <g style="fill: #262626" transform="translate(429.35625 45.84) scale(0.12 -0.12)">
     <defs>
      <path id="ArialMT-54" d="M 1659 0 
L 1659 4041 
L 150 4041 
L 150 4581 
L 3781 4581 
L 3781 4041 
L 2266 4041 
L 2266 0 
L 1659 0 
z
" transform="scale(0.015625)"/>
      <path id="ArialMT-69" d="M 425 3934 
L 425 4581 
L 988 4581 
L 988 3934 
L 425 3934 
z
M 425 0 
L 425 3319 
L 988 3319 
L 988 0 
L 425 0 
z
" transform="scale(0.015625)"/>
      <path id="ArialMT-6e" d="M 422 0 
L 422 3319 
L 928 3319 
L 928 2847 
Q 1294 3394 1984 3394 
Q 2284 3394 2536 3286 
Q 2788 3178 2913 3003 
Q 3038 2828 3088 2588 
Q 3119 2431 3119 2041 
L 3119 0 
L 2556 0 
L 2556 2019 
Q 2556 2363 2490 2533 
Q 2425 2703 2258 2804 
Q 2091 2906 1866 2906 
Q 1506 2906 1245 2678 
Q 984 2450 984 1813 
L 984 0 
L 422 0 
z
" transform="scale(0.015625)"/>
     </defs>
     <use xlink:href="#ArialMT-54"/>
     <use xlink:href="#ArialMT-72" x="57.333984"/>
     <use xlink:href="#ArialMT-61" x="90.634766"/>
     <use xlink:href="#ArialMT-69" x="146.25"/>
     <use xlink:href="#ArialMT-6e" x="168.466797"/>
    </g>
   </g>
   <g id="legend_1">
    <g id="line2d_28">
     <path d="M 722.807813 85.536625 
L 732.807813 85.536625 
L 742.807813 85.536625 
" style="fill: none; stroke: #1f77b4; stroke-width: 1.5; stroke-linecap: round"/>
    </g>
    <g id="text_14">
     <!-- Y14 -->
     <g style="fill: #262626" transform="translate(750.807813 89.036625) scale(0.1 -0.1)">
      <defs>
       <path id="ArialMT-59" d="M 1784 0 
L 1784 1941 
L 19 4581 
L 756 4581 
L 1659 3200 
Q 1909 2813 2125 2425 
Q 2331 2784 2625 3234 
L 3513 4581 
L 4219 4581 
L 2391 1941 
L 2391 0 
L 1784 0 
z
" transform="scale(0.015625)"/>
      </defs>
      <use xlink:href="#ArialMT-59"/>
      <use xlink:href="#ArialMT-31" x="66.699219"/>
      <use xlink:href="#ArialMT-34" x="122.314453"/>
     </g>
    </g>
    <g id="line2d_29">
     <path d="M 722.807813 99.681937 
L 732.807813 99.681937 
L 742.807813 99.681937 
" style="fill: none; stroke: #ff7f0e; stroke-width: 1.5; stroke-linecap: round"/>
    </g>
    <g id="text_15">
     <!-- Y20 -->
     <g style="fill: #262626" transform="translate(750.807813 103.181937) scale(0.1 -0.1)">
      <use xlink:href="#ArialMT-59"/>
      <use xlink:href="#ArialMT-32" x="66.699219"/>
      <use xlink:href="#ArialMT-30" x="122.314453"/>
     </g>
    </g>
    <g id="line2d_30">
     <path d="M 722.807813 113.82725 
L 732.807813 113.82725 
L 742.807813 113.82725 
" style="fill: none; stroke: #2ca02c; stroke-width: 1.5; stroke-linecap: round"/>
    </g>
    <g id="text_16">
     <!-- Y30 -->
     <g style="fill: #262626" transform="translate(750.807813 117.32725) scale(0.1 -0.1)">
      <use xlink:href="#ArialMT-59"/>
      <use xlink:href="#ArialMT-33" x="66.699219"/>
      <use xlink:href="#ArialMT-30" x="122.314453"/>
     </g>
    </g>
    <g id="line2d_31">
     <path d="M 722.807813 127.972562 
L 732.807813 127.972562 
L 742.807813 127.972562 
" style="fill: none; stroke: #d62728; stroke-width: 1.5; stroke-linecap: round"/>
    </g>
    <g id="text_17">
     <!-- Y40 -->
     <g style="fill: #262626" transform="translate(750.807813 131.472562) scale(0.1 -0.1)">
      <use xlink:href="#ArialMT-59"/>
      <use xlink:href="#ArialMT-34" x="66.699219"/>
      <use xlink:href="#ArialMT-30" x="122.314453"/>
     </g>
    </g>
    <g id="line2d_32">
     <path d="M 722.807813 142.117875 
L 732.807813 142.117875 
L 742.807813 142.117875 
" style="fill: none; stroke: #9467bd; stroke-width: 1.5; stroke-linecap: round"/>
    </g>
    <g id="text_18">
     <!-- Y50 -->
     <g style="fill: #262626" transform="translate(750.807813 145.617875) scale(0.1 -0.1)">
      <use xlink:href="#ArialMT-59"/>
      <use xlink:href="#ArialMT-35" x="66.699219"/>
      <use xlink:href="#ArialMT-30" x="122.314453"/>
     </g>
    </g>
    <g id="line2d_33">
     <path d="M 722.807813 156.263187 
L 732.807813 156.263187 
L 742.807813 156.263187 
" style="fill: none; stroke: #8c564b; stroke-width: 1.5; stroke-linecap: round"/>
    </g>
    <g id="text_19">
     <!-- Y60 -->
     <g style="fill: #262626" transform="translate(750.807813 159.763187) scale(0.1 -0.1)">
      <defs>
       <path id="ArialMT-36" d="M 3184 3459 
L 2625 3416 
Q 2550 3747 2413 3897 
Q 2184 4138 1850 4138 
Q 1581 4138 1378 3988 
Q 1113 3794 959 3422 
Q 806 3050 800 2363 
Q 1003 2672 1297 2822 
Q 1591 2972 1913 2972 
Q 2475 2972 2870 2558 
Q 3266 2144 3266 1488 
Q 3266 1056 3080 686 
Q 2894 316 2569 119 
Q 2244 -78 1831 -78 
Q 1128 -78 684 439 
Q 241 956 241 2144 
Q 241 3472 731 4075 
Q 1159 4600 1884 4600 
Q 2425 4600 2770 4297 
Q 3116 3994 3184 3459 
z
M 888 1484 
Q 888 1194 1011 928 
Q 1134 663 1356 523 
Q 1578 384 1822 384 
Q 2178 384 2434 671 
Q 2691 959 2691 1453 
Q 2691 1928 2437 2201 
Q 2184 2475 1800 2475 
Q 1419 2475 1153 2201 
Q 888 1928 888 1484 
z
" transform="scale(0.015625)"/>
      </defs>
      <use xlink:href="#ArialMT-59"/>
      <use xlink:href="#ArialMT-36" x="66.699219"/>
      <use xlink:href="#ArialMT-30" x="122.314453"/>
     </g>
    </g>
    <g id="line2d_34">
     <path d="M 722.807813 170.4085 
L 732.807813 170.4085 
L 742.807813 170.4085 
" style="fill: none; stroke: #e377c2; stroke-width: 1.5; stroke-linecap: round"/>
    </g>
    <g id="text_20">
     <!-- Y80 -->
     <g style="fill: #262626" transform="translate(750.807813 173.9085) scale(0.1 -0.1)">
      <use xlink:href="#ArialMT-59"/>
      <use xlink:href="#ArialMT-38" x="66.699219"/>
      <use xlink:href="#ArialMT-30" x="122.314453"/>
     </g>
    </g>
   </g>
  </g>
  <g id="axes_2">
   <g id="patch_7">
    <path d="M 108 384.48 
L 777.6 384.48 
L 777.6 251.424 
L 108 251.424 
z
" style="fill: #ffffff"/>
   </g>
   <g id="matplotlib.axis_3">
    <g id="xtick_7">
     <g id="line2d_35">
      <path d="M 138.436364 384.48 
L 138.436364 251.424 
" clip-path="url(#p7555aeb54c)" style="fill: none; stroke: #cccccc; stroke-width: 0.8; stroke-linecap: round"/>
     </g>
     <g id="line2d_36"/>
     <g id="text_21">
      <!-- 0 -->
      <g style="fill: #262626" transform="translate(135.655895 395.137812) scale(0.1 -0.1)">
       <use xlink:href="#ArialMT-30"/>
      </g>
     </g>
    </g>
    <g id="xtick_8">
     <g id="line2d_37">
      <path d="M 262.666419 384.48 
L 262.666419 251.424 
" clip-path="url(#p7555aeb54c)" style="fill: none; stroke: #cccccc; stroke-width: 0.8; stroke-linecap: round"/>
     </g>
     <g id="line2d_38"/>
     <g id="text_22">
      <!-- 10 -->
      <g style="fill: #262626" transform="translate(257.105482 395.137812) scale(0.1 -0.1)">
       <use xlink:href="#ArialMT-31"/>
       <use xlink:href="#ArialMT-30" x="55.615234"/>
      </g>
     </g>
    </g>
    <g id="xtick_9">
     <g id="line2d_39">
      <path d="M 386.896475 384.48 
L 386.896475 251.424 
" clip-path="url(#p7555aeb54c)" style="fill: none; stroke: #cccccc; stroke-width: 0.8; stroke-linecap: round"/>
     </g>
     <g id="line2d_40"/>
     <g id="text_23">
      <!-- 20 -->
      <g style="fill: #262626" transform="translate(381.335537 395.137812) scale(0.1 -0.1)">
       <use xlink:href="#ArialMT-32"/>
       <use xlink:href="#ArialMT-30" x="55.615234"/>
      </g>
     </g>
    </g>
    <g id="xtick_10">
     <g id="line2d_41">
      <path d="M 511.126531 384.48 
L 511.126531 251.424 
" clip-path="url(#p7555aeb54c)" style="fill: none; stroke: #cccccc; stroke-width: 0.8; stroke-linecap: round"/>
     </g>
     <g id="line2d_42"/>
     <g id="text_24">
      <!-- 30 -->
      <g style="fill: #262626" transform="translate(505.565593 395.137812) scale(0.1 -0.1)">
       <use xlink:href="#ArialMT-33"/>
       <use xlink:href="#ArialMT-30" x="55.615234"/>
      </g>
     </g>
    </g>
    <g id="xtick_11">
     <g id="line2d_43">
      <path d="M 635.356586 384.48 
L 635.356586 251.424 
" clip-path="url(#p7555aeb54c)" style="fill: none; stroke: #cccccc; stroke-width: 0.8; stroke-linecap: round"/>
     </g>
     <g id="line2d_44"/>
     <g id="text_25">
      <!-- 40 -->
      <g style="fill: #262626" transform="translate(629.795649 395.137812) scale(0.1 -0.1)">
       <use xlink:href="#ArialMT-34"/>
       <use xlink:href="#ArialMT-30" x="55.615234"/>
      </g>
     </g>
    </g>
    <g id="xtick_12">
     <g id="line2d_45">
      <path d="M 759.586642 384.48 
L 759.586642 251.424 
" clip-path="url(#p7555aeb54c)" style="fill: none; stroke: #cccccc; stroke-width: 0.8; stroke-linecap: round"/>
     </g>
     <g id="line2d_46"/>
     <g id="text_26">
      <!-- 50 -->
      <g style="fill: #262626" transform="translate(754.025704 395.137812) scale(0.1 -0.1)">
       <use xlink:href="#ArialMT-35"/>
       <use xlink:href="#ArialMT-30" x="55.615234"/>
      </g>
     </g>
    </g>
    <g id="text_27">
     <!-- Epochs -->
     <g style="fill: #262626" transform="translate(426.123438 408.283125) scale(0.1 -0.1)">
      <use xlink:href="#ArialMT-45"/>
      <use xlink:href="#ArialMT-70" x="66.699219"/>
      <use xlink:href="#ArialMT-6f" x="122.314453"/>
      <use xlink:href="#ArialMT-63" x="177.929688"/>
      <use xlink:href="#ArialMT-68" x="227.929688"/>
      <use xlink:href="#ArialMT-73" x="283.544922"/>
     </g>
    </g>
   </g>
   <g id="matplotlib.axis_4">
    <g id="ytick_5">
     <g id="line2d_47">
      <path d="M 108 344.562766 
L 777.6 344.562766 
" clip-path="url(#p7555aeb54c)" style="fill: none; stroke: #cccccc; stroke-width: 0.8; stroke-linecap: round"/>
     </g>
     <g id="line2d_48"/>
     <g id="text_28">
      <!-- 0.90 -->
      <g style="fill: #262626" transform="translate(85.039062 348.141672) scale(0.1 -0.1)">
       <use xlink:href="#ArialMT-30"/>
       <use xlink:href="#ArialMT-2e" x="55.615234"/>
       <use xlink:href="#ArialMT-39" x="83.398438"/>
       <use xlink:href="#ArialMT-30" x="139.013672"/>
      </g>
     </g>
    </g>
    <g id="ytick_6">
     <g id="line2d_49">
      <path d="M 108 301.137887 
L 777.6 301.137887 
" clip-path="url(#p7555aeb54c)" style="fill: none; stroke: #cccccc; stroke-width: 0.8; stroke-linecap: round"/>
     </g>
     <g id="line2d_50"/>
     <g id="text_29">
      <!-- 0.92 -->
      <g style="fill: #262626" transform="translate(85.039062 304.716793) scale(0.1 -0.1)">
       <use xlink:href="#ArialMT-30"/>
       <use xlink:href="#ArialMT-2e" x="55.615234"/>
       <use xlink:href="#ArialMT-39" x="83.398438"/>
       <use xlink:href="#ArialMT-32" x="139.013672"/>
      </g>
     </g>
    </g>
    <g id="ytick_7">
     <g id="line2d_51">
      <path d="M 108 257.713008 
L 777.6 257.713008 
" clip-path="url(#p7555aeb54c)" style="fill: none; stroke: #cccccc; stroke-width: 0.8; stroke-linecap: round"/>
     </g>
     <g id="line2d_52"/>
     <g id="text_30">
      <!-- 0.94 -->
      <g style="fill: #262626" transform="translate(85.039062 261.291914) scale(0.1 -0.1)">
       <use xlink:href="#ArialMT-30"/>
       <use xlink:href="#ArialMT-2e" x="55.615234"/>
       <use xlink:href="#ArialMT-39" x="83.398438"/>
       <use xlink:href="#ArialMT-34" x="139.013672"/>
      </g>
     </g>
    </g>
    <g id="text_31">
     <!-- Accuracy -->
     <g style="fill: #262626" transform="translate(78.934375 338.512938) rotate(-90) scale(0.1 -0.1)">
      <use xlink:href="#ArialMT-41"/>
      <use xlink:href="#ArialMT-63" x="66.699219"/>
      <use xlink:href="#ArialMT-63" x="116.699219"/>
      <use xlink:href="#ArialMT-75" x="166.699219"/>
      <use xlink:href="#ArialMT-72" x="222.314453"/>
      <use xlink:href="#ArialMT-61" x="255.615234"/>
      <use xlink:href="#ArialMT-63" x="311.230469"/>
      <use xlink:href="#ArialMT-79" x="361.230469"/>
     </g>
    </g>
   </g>
   <g id="line2d_53">
    <path d="M 138.436364 290.735457 
L 150.859369 345.168543 
L 163.282375 342.144 
L 175.70538 339.119457 
L 188.128386 342.144 
L 200.551391 336.094914 
L 212.974397 342.144 
L 225.397403 339.119457 
L 237.820408 342.144 
L 250.243414 348.190914 
L 262.666419 345.168543 
L 275.089425 336.094914 
L 287.51243 330.048 
L 299.935436 336.094914 
L 312.358442 333.072543 
L 324.781447 333.072543 
L 337.204453 336.094914 
L 349.627458 327.023457 
L 362.050464 333.072543 
L 374.473469 336.094914 
L 386.896475 333.072543 
L 399.319481 330.048 
L 411.742486 330.048 
L 424.165492 330.048 
L 436.588497 330.048 
L 449.011503 333.072543 
L 461.434508 327.023457 
L 473.857514 327.023457 
L 486.280519 333.072543 
L 498.703525 330.048 
L 511.126531 323.998914 
L 523.549536 320.974372 
L 535.972542 320.974372 
L 548.395547 323.998914 
L 560.818553 317.952 
L 573.241558 320.974372 
L 585.664564 320.974372 
L 598.08757 317.952 
L 610.510575 311.902914 
L 622.933581 317.952 
L 635.356586 305.856 
L 647.779592 314.927457 
L 660.202597 317.952 
L 672.625603 311.902914 
L 685.048609 314.927457 
L 697.471614 311.902914 
L 709.89462 308.878372 
L 722.317625 308.878372 
L 734.740631 305.856 
L 747.163636 308.878372 
" clip-path="url(#p7555aeb54c)" style="fill: none; stroke: #1f77b4; stroke-width: 1.5; stroke-linecap: round"/>
   </g>
   <g id="line2d_54">
    <path d="M 138.436364 327.023457 
L 150.859369 275.614914 
L 163.282375 275.614914 
L 175.70538 278.639457 
L 188.128386 272.590372 
L 200.551391 278.639457 
L 212.974397 275.614914 
L 225.397403 275.614914 
L 237.820408 278.639457 
L 250.243414 278.639457 
L 262.666419 281.664 
L 275.089425 275.614914 
L 287.51243 275.614914 
L 299.935436 278.639457 
L 312.358442 278.639457 
L 324.781447 275.614914 
L 337.204453 272.590372 
L 349.627458 275.614914 
L 362.050464 278.639457 
L 374.473469 278.639457 
L 386.896475 275.614914 
L 399.319481 272.590372 
L 411.742486 281.664 
L 424.165492 275.614914 
L 436.588497 275.614914 
L 449.011503 275.614914 
L 461.434508 278.639457 
L 473.857514 278.639457 
L 486.280519 275.614914 
L 498.703525 278.639457 
L 511.126531 275.614914 
L 523.549536 278.639457 
L 535.972542 275.614914 
L 548.395547 278.639457 
L 560.818553 278.639457 
L 573.241558 278.639457 
L 585.664564 275.614914 
L 598.08757 278.639457 
L 610.510575 275.614914 
L 622.933581 272.590372 
L 635.356586 278.639457 
L 647.779592 272.590372 
L 660.202597 278.639457 
L 672.625603 275.614914 
L 685.048609 275.614914 
L 697.471614 275.614914 
L 709.89462 278.639457 
L 722.317625 275.614914 
L 734.740631 278.639457 
L 747.163636 272.590372 
" clip-path="url(#p7555aeb54c)" style="fill: none; stroke: #ff7f0e; stroke-width: 1.5; stroke-linecap: round"/>
   </g>
   <g id="line2d_55">
    <path d="M 138.436364 272.590372 
L 150.859369 354.24 
L 163.282375 348.190914 
L 175.70538 351.215457 
L 188.128386 348.190914 
L 200.551391 348.190914 
L 212.974397 345.168543 
L 225.397403 351.215457 
L 237.820408 348.190914 
L 250.243414 345.168543 
L 262.666419 342.144 
L 275.089425 351.215457 
L 287.51243 336.094914 
L 299.935436 339.119457 
L 312.358442 339.119457 
L 324.781447 339.119457 
L 337.204453 342.144 
L 349.627458 339.119457 
L 362.050464 333.072543 
L 374.473469 342.144 
L 386.896475 345.168543 
L 399.319481 342.144 
L 411.742486 336.094914 
L 424.165492 327.023457 
L 436.588497 339.119457 
L 449.011503 339.119457 
L 461.434508 339.119457 
L 473.857514 345.168543 
L 486.280519 333.072543 
L 498.703525 333.072543 
L 511.126531 320.974372 
L 523.549536 336.094914 
L 535.972542 333.072543 
L 548.395547 342.144 
L 560.818553 345.168543 
L 573.241558 333.072543 
L 585.664564 327.023457 
L 598.08757 342.144 
L 610.510575 339.119457 
L 622.933581 339.119457 
L 635.356586 327.023457 
L 647.779592 336.094914 
L 660.202597 327.023457 
L 672.625603 330.048 
L 685.048609 333.072543 
L 697.471614 333.072543 
L 709.89462 333.072543 
L 722.317625 323.998914 
L 734.740631 330.048 
L 747.163636 339.119457 
" clip-path="url(#p7555aeb54c)" style="fill: none; stroke: #2ca02c; stroke-width: 1.5; stroke-linecap: round"/>
   </g>
   <g id="line2d_56">
    <path d="M 138.436364 302.831457 
L 150.859369 287.710914 
L 163.282375 287.710914 
L 175.70538 287.710914 
L 188.128386 287.710914 
L 200.551391 284.686372 
L 212.974397 293.76 
L 225.397403 293.76 
L 237.820408 290.735457 
L 250.243414 290.735457 
L 262.666419 287.710914 
L 275.089425 287.710914 
L 287.51243 290.735457 
L 299.935436 284.686372 
L 312.358442 284.686372 
L 324.781447 287.710914 
L 337.204453 290.735457 
L 349.627458 287.710914 
L 362.050464 287.710914 
L 374.473469 290.735457 
L 386.896475 287.710914 
L 399.319481 290.735457 
L 411.742486 290.735457 
L 424.165492 287.710914 
L 436.588497 284.686372 
L 449.011503 284.686372 
L 461.434508 287.710914 
L 473.857514 287.710914 
L 486.280519 281.664 
L 498.703525 287.710914 
L 511.126531 290.735457 
L 523.549536 287.710914 
L 535.972542 287.710914 
L 548.395547 290.735457 
L 560.818553 290.735457 
L 573.241558 293.76 
L 585.664564 290.735457 
L 598.08757 284.686372 
L 610.510575 287.710914 
L 622.933581 287.710914 
L 635.356586 287.710914 
L 647.779592 287.710914 
L 660.202597 290.735457 
L 672.625603 290.735457 
L 685.048609 287.710914 
L 697.471614 287.710914 
L 709.89462 287.710914 
L 722.317625 290.735457 
L 734.740631 287.710914 
L 747.163636 287.710914 
" clip-path="url(#p7555aeb54c)" style="fill: none; stroke: #d62728; stroke-width: 1.5; stroke-linecap: round"/>
   </g>
   <g id="line2d_57">
    <path d="M 138.436364 378.432 
L 150.859369 272.590372 
L 163.282375 272.590372 
L 175.70538 275.614914 
L 188.128386 272.590372 
L 200.551391 275.614914 
L 212.974397 272.590372 
L 225.397403 272.590372 
L 237.820408 272.590372 
L 250.243414 275.614914 
L 262.666419 275.614914 
L 275.089425 275.614914 
L 287.51243 272.590372 
L 299.935436 275.614914 
L 312.358442 275.614914 
L 324.781447 278.639457 
L 337.204453 275.614914 
L 349.627458 275.614914 
L 362.050464 275.614914 
L 374.473469 275.614914 
L 386.896475 272.590372 
L 399.319481 275.614914 
L 411.742486 275.614914 
L 424.165492 275.614914 
L 436.588497 275.614914 
L 449.011503 278.639457 
L 461.434508 275.614914 
L 473.857514 275.614914 
L 486.280519 275.614914 
L 498.703525 278.639457 
L 511.126531 275.614914 
L 523.549536 275.614914 
L 535.972542 272.590372 
L 548.395547 272.590372 
L 560.818553 275.614914 
L 573.241558 272.590372 
L 585.664564 272.590372 
L 598.08757 272.590372 
L 610.510575 275.614914 
L 622.933581 272.590372 
L 635.356586 272.590372 
L 647.779592 275.614914 
L 660.202597 278.639457 
L 672.625603 275.614914 
L 685.048609 275.614914 
L 697.471614 278.639457 
L 709.89462 272.590372 
L 722.317625 278.639457 
L 734.740631 275.614914 
L 747.163636 275.614914 
" clip-path="url(#p7555aeb54c)" style="fill: none; stroke: #9467bd; stroke-width: 1.5; stroke-linecap: round"/>
   </g>
   <g id="line2d_58">
    <path d="M 138.436364 363.311457 
L 150.859369 336.094914 
L 163.282375 327.023457 
L 175.70538 339.119457 
L 188.128386 330.048 
L 200.551391 330.048 
L 212.974397 339.119457 
L 225.397403 339.119457 
L 237.820408 342.144 
L 250.243414 342.144 
L 262.666419 333.072543 
L 275.089425 330.048 
L 287.51243 339.119457 
L 299.935436 330.048 
L 312.358442 336.094914 
L 324.781447 327.023457 
L 337.204453 333.072543 
L 349.627458 330.048 
L 362.050464 333.072543 
L 374.473469 327.023457 
L 386.896475 330.048 
L 399.319481 336.094914 
L 411.742486 330.048 
L 424.165492 327.023457 
L 436.588497 333.072543 
L 449.011503 336.094914 
L 461.434508 339.119457 
L 473.857514 336.094914 
L 486.280519 339.119457 
L 498.703525 336.094914 
L 511.126531 330.048 
L 523.549536 333.072543 
L 535.972542 330.048 
L 548.395547 317.952 
L 560.818553 327.023457 
L 573.241558 327.023457 
L 585.664564 327.023457 
L 598.08757 323.998914 
L 610.510575 327.023457 
L 622.933581 323.998914 
L 635.356586 330.048 
L 647.779592 327.023457 
L 660.202597 323.998914 
L 672.625603 327.023457 
L 685.048609 323.998914 
L 697.471614 330.048 
L 709.89462 323.998914 
L 722.317625 327.023457 
L 734.740631 330.048 
L 747.163636 327.023457 
" clip-path="url(#p7555aeb54c)" style="fill: none; stroke: #8c564b; stroke-width: 1.5; stroke-linecap: round"/>
   </g>
   <g id="line2d_59">
    <path d="M 138.436364 351.215457 
L 150.859369 263.518914 
L 163.282375 263.518914 
L 175.70538 260.494372 
L 188.128386 263.518914 
L 200.551391 263.518914 
L 212.974397 263.518914 
L 225.397403 260.494372 
L 237.820408 263.518914 
L 250.243414 263.518914 
L 262.666419 266.543457 
L 275.089425 263.518914 
L 287.51243 266.543457 
L 299.935436 269.568 
L 312.358442 263.518914 
L 324.781447 263.518914 
L 337.204453 266.543457 
L 349.627458 269.568 
L 362.050464 266.543457 
L 374.473469 266.543457 
L 386.896475 272.590372 
L 399.319481 269.568 
L 411.742486 266.543457 
L 424.165492 266.543457 
L 436.588497 263.518914 
L 449.011503 269.568 
L 461.434508 263.518914 
L 473.857514 269.568 
L 486.280519 272.590372 
L 498.703525 272.590372 
L 511.126531 266.543457 
L 523.549536 257.472 
L 535.972542 269.568 
L 548.395547 266.543457 
L 560.818553 266.543457 
L 573.241558 263.518914 
L 585.664564 266.543457 
L 598.08757 260.494372 
L 610.510575 257.472 
L 622.933581 263.518914 
L 635.356586 266.543457 
L 647.779592 266.543457 
L 660.202597 260.494372 
L 672.625603 266.543457 
L 685.048609 269.568 
L 697.471614 266.543457 
L 709.89462 269.568 
L 722.317625 275.614914 
L 734.740631 275.614914 
L 747.163636 260.494372 
" clip-path="url(#p7555aeb54c)" style="fill: none; stroke: #e377c2; stroke-width: 1.5; stroke-linecap: round"/>
   </g>
   <g id="patch_8">
    <path d="M 108 384.48 
L 108 251.424 
" style="fill: none; stroke: #cccccc; stroke-linejoin: miter; stroke-linecap: square"/>
   </g>
   <g id="patch_9">
    <path d="M 777.6 384.48 
L 777.6 251.424 
" style="fill: none; stroke: #cccccc; stroke-linejoin: miter; stroke-linecap: square"/>
   </g>
   <g id="patch_10">
    <path d="M 108 384.48 
L 777.6 384.48 
" style="fill: none; stroke: #cccccc; stroke-linejoin: miter; stroke-linecap: square"/>
   </g>
   <g id="patch_11">
    <path d="M 108 251.424 
L 777.6 251.424 
" style="fill: none; stroke: #cccccc; stroke-linejoin: miter; stroke-linecap: square"/>
   </g>
   <g id="text_32">
    <!-- Test -->
    <g style="fill: #262626" transform="translate(431.799375 245.424) scale(0.12 -0.12)">
     <defs>
      <path id="ArialMT-65" d="M 2694 1069 
L 3275 997 
Q 3138 488 2766 206 
Q 2394 -75 1816 -75 
Q 1088 -75 661 373 
Q 234 822 234 1631 
Q 234 2469 665 2931 
Q 1097 3394 1784 3394 
Q 2450 3394 2872 2941 
Q 3294 2488 3294 1666 
Q 3294 1616 3291 1516 
L 816 1516 
Q 847 969 1125 678 
Q 1403 388 1819 388 
Q 2128 388 2347 550 
Q 2566 713 2694 1069 
z
M 847 1978 
L 2700 1978 
Q 2663 2397 2488 2606 
Q 2219 2931 1791 2931 
Q 1403 2931 1139 2672 
Q 875 2413 847 1978 
z
" transform="scale(0.015625)"/>
      <path id="ArialMT-74" d="M 1650 503 
L 1731 6 
Q 1494 -44 1306 -44 
Q 1000 -44 831 53 
Q 663 150 594 308 
Q 525 466 525 972 
L 525 2881 
L 113 2881 
L 113 3319 
L 525 3319 
L 525 4141 
L 1084 4478 
L 1084 3319 
L 1650 3319 
L 1650 2881 
L 1084 2881 
L 1084 941 
Q 1084 700 1114 631 
Q 1144 563 1211 522 
Q 1278 481 1403 481 
Q 1497 481 1650 503 
z
" transform="scale(0.015625)"/>
     </defs>
     <use xlink:href="#ArialMT-54"/>
     <use xlink:href="#ArialMT-65" x="49.958984"/>
     <use xlink:href="#ArialMT-73" x="105.574219"/>
     <use xlink:href="#ArialMT-74" x="155.574219"/>
    </g>
   </g>
   <g id="legend_2">
    <g id="line2d_60">
     <path d="M 722.807813 285.120625 
L 732.807813 285.120625 
L 742.807813 285.120625 
" style="fill: none; stroke: #1f77b4; stroke-width: 1.5; stroke-linecap: round"/>
    </g>
    <g id="text_33">
     <!-- Y14 -->
     <g style="fill: #262626" transform="translate(750.807813 288.620625) scale(0.1 -0.1)">
      <use xlink:href="#ArialMT-59"/>
      <use xlink:href="#ArialMT-31" x="66.699219"/>
      <use xlink:href="#ArialMT-34" x="122.314453"/>
     </g>
    </g>
    <g id="line2d_61">
     <path d="M 722.807813 299.265938 
L 732.807813 299.265938 
L 742.807813 299.265938 
" style="fill: none; stroke: #ff7f0e; stroke-width: 1.5; stroke-linecap: round"/>
    </g>
    <g id="text_34">
     <!-- Y20 -->
     <g style="fill: #262626" transform="translate(750.807813 302.765938) scale(0.1 -0.1)">
      <use xlink:href="#ArialMT-59"/>
      <use xlink:href="#ArialMT-32" x="66.699219"/>
      <use xlink:href="#ArialMT-30" x="122.314453"/>
     </g>
    </g>
    <g id="line2d_62">
     <path d="M 722.807813 313.41125 
L 732.807813 313.41125 
L 742.807813 313.41125 
" style="fill: none; stroke: #2ca02c; stroke-width: 1.5; stroke-linecap: round"/>
    </g>
    <g id="text_35">
     <!-- Y30 -->
     <g style="fill: #262626" transform="translate(750.807813 316.91125) scale(0.1 -0.1)">
      <use xlink:href="#ArialMT-59"/>
      <use xlink:href="#ArialMT-33" x="66.699219"/>
      <use xlink:href="#ArialMT-30" x="122.314453"/>
     </g>
    </g>
    <g id="line2d_63">
     <path d="M 722.807813 327.556563 
L 732.807813 327.556563 
L 742.807813 327.556563 
" style="fill: none; stroke: #d62728; stroke-width: 1.5; stroke-linecap: round"/>
    </g>
    <g id="text_36">
     <!-- Y40 -->
     <g style="fill: #262626" transform="translate(750.807813 331.056563) scale(0.1 -0.1)">
      <use xlink:href="#ArialMT-59"/>
      <use xlink:href="#ArialMT-34" x="66.699219"/>
      <use xlink:href="#ArialMT-30" x="122.314453"/>
     </g>
    </g>
    <g id="line2d_64">
     <path d="M 722.807813 341.701875 
L 732.807813 341.701875 
L 742.807813 341.701875 
" style="fill: none; stroke: #9467bd; stroke-width: 1.5; stroke-linecap: round"/>
    </g>
    <g id="text_37">
     <!-- Y50 -->
     <g style="fill: #262626" transform="translate(750.807813 345.201875) scale(0.1 -0.1)">
      <use xlink:href="#ArialMT-59"/>
      <use xlink:href="#ArialMT-35" x="66.699219"/>
      <use xlink:href="#ArialMT-30" x="122.314453"/>
     </g>
    </g>
    <g id="line2d_65">
     <path d="M 722.807813 355.847188 
L 732.807813 355.847188 
L 742.807813 355.847188 
" style="fill: none; stroke: #8c564b; stroke-width: 1.5; stroke-linecap: round"/>
    </g>
    <g id="text_38">
     <!-- Y60 -->
     <g style="fill: #262626" transform="translate(750.807813 359.347188) scale(0.1 -0.1)">
      <use xlink:href="#ArialMT-59"/>
      <use xlink:href="#ArialMT-36" x="66.699219"/>
      <use xlink:href="#ArialMT-30" x="122.314453"/>
     </g>
    </g>
    <g id="line2d_66">
     <path d="M 722.807813 369.9925 
L 732.807813 369.9925 
L 742.807813 369.9925 
" style="fill: none; stroke: #e377c2; stroke-width: 1.5; stroke-linecap: round"/>
    </g>
    <g id="text_39">
     <!-- Y80 -->
     <g style="fill: #262626" transform="translate(750.807813 373.4925) scale(0.1 -0.1)">
      <use xlink:href="#ArialMT-59"/>
      <use xlink:href="#ArialMT-38" x="66.699219"/>
      <use xlink:href="#ArialMT-30" x="122.314453"/>
     </g>
    </g>
   </g>
  </g>
  <g id="text_40">
   <!-- Architecture -->
   <g style="fill: #262626" transform="translate(396.658125 17.229375) scale(0.12 -0.12)">
    <defs>
     <path id="Arial-BoldMT-41" d="M 4597 0 
L 3591 0 
L 3191 1041 
L 1359 1041 
L 981 0 
L 0 0 
L 1784 4581 
L 2763 4581 
L 4597 0 
z
M 2894 1813 
L 2263 3513 
L 1644 1813 
L 2894 1813 
z
" transform="scale(0.015625)"/>
     <path id="Arial-BoldMT-72" d="M 1300 0 
L 422 0 
L 422 3319 
L 1238 3319 
L 1238 2847 
Q 1447 3181 1614 3287 
Q 1781 3394 1994 3394 
Q 2294 3394 2572 3228 
L 2300 2463 
Q 2078 2606 1888 2606 
Q 1703 2606 1575 2504 
Q 1447 2403 1373 2137 
Q 1300 1872 1300 1025 
L 1300 0 
z
" transform="scale(0.015625)"/>
     <path id="Arial-BoldMT-63" d="M 3353 2338 
L 2488 2181 
Q 2444 2441 2289 2572 
Q 2134 2703 1888 2703 
Q 1559 2703 1364 2476 
Q 1169 2250 1169 1719 
Q 1169 1128 1367 884 
Q 1566 641 1900 641 
Q 2150 641 2309 783 
Q 2469 925 2534 1272 
L 3397 1125 
Q 3263 531 2881 228 
Q 2500 -75 1859 -75 
Q 1131 -75 698 384 
Q 266 844 266 1656 
Q 266 2478 700 2936 
Q 1134 3394 1875 3394 
Q 2481 3394 2839 3133 
Q 3197 2872 3353 2338 
z
" transform="scale(0.015625)"/>
     <path id="Arial-BoldMT-68" d="M 1334 4581 
L 1334 2897 
Q 1759 3394 2350 3394 
Q 2653 3394 2897 3281 
Q 3141 3169 3264 2994 
Q 3388 2819 3433 2606 
Q 3478 2394 3478 1947 
L 3478 0 
L 2600 0 
L 2600 1753 
Q 2600 2275 2550 2415 
Q 2500 2556 2373 2639 
Q 2247 2722 2056 2722 
Q 1838 2722 1666 2615 
Q 1494 2509 1414 2295 
Q 1334 2081 1334 1663 
L 1334 0 
L 456 0 
L 456 4581 
L 1334 4581 
z
" transform="scale(0.015625)"/>
     <path id="Arial-BoldMT-69" d="M 459 3769 
L 459 4581 
L 1338 4581 
L 1338 3769 
L 459 3769 
z
M 459 0 
L 459 3319 
L 1338 3319 
L 1338 0 
L 459 0 
z
" transform="scale(0.015625)"/>
     <path id="Arial-BoldMT-74" d="M 1981 3319 
L 1981 2619 
L 1381 2619 
L 1381 1281 
Q 1381 875 1398 808 
Q 1416 741 1477 697 
Q 1538 653 1625 653 
Q 1747 653 1978 738 
L 2053 56 
Q 1747 -75 1359 -75 
Q 1122 -75 931 4 
Q 741 84 652 211 
Q 563 338 528 553 
Q 500 706 500 1172 
L 500 2619 
L 97 2619 
L 97 3319 
L 500 3319 
L 500 3978 
L 1381 4491 
L 1381 3319 
L 1981 3319 
z
" transform="scale(0.015625)"/>
     <path id="Arial-BoldMT-65" d="M 2381 1056 
L 3256 909 
Q 3088 428 2723 176 
Q 2359 -75 1813 -75 
Q 947 -75 531 491 
Q 203 944 203 1634 
Q 203 2459 634 2926 
Q 1066 3394 1725 3394 
Q 2466 3394 2894 2905 
Q 3322 2416 3303 1406 
L 1103 1406 
Q 1113 1016 1316 798 
Q 1519 581 1822 581 
Q 2028 581 2168 693 
Q 2309 806 2381 1056 
z
M 2431 1944 
Q 2422 2325 2234 2523 
Q 2047 2722 1778 2722 
Q 1491 2722 1303 2513 
Q 1116 2303 1119 1944 
L 2431 1944 
z
" transform="scale(0.015625)"/>
     <path id="Arial-BoldMT-75" d="M 2644 0 
L 2644 497 
Q 2463 231 2167 78 
Q 1872 -75 1544 -75 
Q 1209 -75 943 72 
Q 678 219 559 484 
Q 441 750 441 1219 
L 441 3319 
L 1319 3319 
L 1319 1794 
Q 1319 1094 1367 936 
Q 1416 778 1544 686 
Q 1672 594 1869 594 
Q 2094 594 2272 717 
Q 2450 841 2515 1023 
Q 2581 1206 2581 1919 
L 2581 3319 
L 3459 3319 
L 3459 0 
L 2644 0 
z
" transform="scale(0.015625)"/>
    </defs>
    <use xlink:href="#Arial-BoldMT-41"/>
    <use xlink:href="#Arial-BoldMT-72" x="72.216797"/>
    <use xlink:href="#Arial-BoldMT-63" x="111.132812"/>
    <use xlink:href="#Arial-BoldMT-68" x="166.748047"/>
    <use xlink:href="#Arial-BoldMT-69" x="227.832031"/>
    <use xlink:href="#Arial-BoldMT-74" x="255.615234"/>
    <use xlink:href="#Arial-BoldMT-65" x="288.916016"/>
    <use xlink:href="#Arial-BoldMT-63" x="344.53125"/>
    <use xlink:href="#Arial-BoldMT-74" x="400.146484"/>
    <use xlink:href="#Arial-BoldMT-75" x="433.447266"/>
    <use xlink:href="#Arial-BoldMT-72" x="494.53125"/>
    <use xlink:href="#Arial-BoldMT-65" x="533.447266"/>
   </g>
   <!-- 256_128 -->
   <g style="fill: #262626" transform="translate(408.644063 29.9475) scale(0.12 -0.12)">
    <defs>
     <path id="Arial-BoldMT-32" d="M 3238 816 
L 3238 0 
L 159 0 
Q 209 463 459 877 
Q 709 1291 1447 1975 
Q 2041 2528 2175 2725 
Q 2356 2997 2356 3263 
Q 2356 3556 2198 3714 
Q 2041 3872 1763 3872 
Q 1488 3872 1325 3706 
Q 1163 3541 1138 3156 
L 263 3244 
Q 341 3969 753 4284 
Q 1166 4600 1784 4600 
Q 2463 4600 2850 4234 
Q 3238 3869 3238 3325 
Q 3238 3016 3127 2736 
Q 3016 2456 2775 2150 
Q 2616 1947 2200 1565 
Q 1784 1184 1673 1059 
Q 1563 934 1494 816 
L 3238 816 
z
" transform="scale(0.015625)"/>
     <path id="Arial-BoldMT-35" d="M 284 1178 
L 1159 1269 
Q 1197 972 1381 798 
Q 1566 625 1806 625 
Q 2081 625 2272 848 
Q 2463 1072 2463 1522 
Q 2463 1944 2273 2155 
Q 2084 2366 1781 2366 
Q 1403 2366 1103 2031 
L 391 2134 
L 841 4519 
L 3163 4519 
L 3163 3697 
L 1506 3697 
L 1369 2919 
Q 1663 3066 1969 3066 
Q 2553 3066 2959 2641 
Q 3366 2216 3366 1538 
Q 3366 972 3038 528 
Q 2591 -78 1797 -78 
Q 1163 -78 763 262 
Q 363 603 284 1178 
z
" transform="scale(0.015625)"/>
     <path id="Arial-BoldMT-36" d="M 3247 3459 
L 2397 3366 
Q 2366 3628 2234 3753 
Q 2103 3878 1894 3878 
Q 1616 3878 1423 3628 
Q 1231 3378 1181 2588 
Q 1509 2975 1997 2975 
Q 2547 2975 2939 2556 
Q 3331 2138 3331 1475 
Q 3331 772 2918 347 
Q 2506 -78 1859 -78 
Q 1166 -78 719 461 
Q 272 1000 272 2228 
Q 272 3488 737 4044 
Q 1203 4600 1947 4600 
Q 2469 4600 2811 4308 
Q 3153 4016 3247 3459 
z
M 1256 1544 
Q 1256 1116 1453 883 
Q 1650 650 1903 650 
Q 2147 650 2309 840 
Q 2472 1031 2472 1466 
Q 2472 1913 2297 2120 
Q 2122 2328 1859 2328 
Q 1606 2328 1431 2129 
Q 1256 1931 1256 1544 
z
" transform="scale(0.015625)"/>
     <path id="Arial-BoldMT-5f" d="M -59 -1266 
L -59 -697 
L 3591 -697 
L 3591 -1266 
L -59 -1266 
z
" transform="scale(0.015625)"/>
     <path id="Arial-BoldMT-31" d="M 2519 0 
L 1641 0 
L 1641 3309 
Q 1159 2859 506 2644 
L 506 3441 
Q 850 3553 1253 3867 
Q 1656 4181 1806 4600 
L 2519 4600 
L 2519 0 
z
" transform="scale(0.015625)"/>
     <path id="Arial-BoldMT-38" d="M 1025 2472 
Q 684 2616 529 2867 
Q 375 3119 375 3419 
Q 375 3931 733 4265 
Q 1091 4600 1750 4600 
Q 2403 4600 2764 4265 
Q 3125 3931 3125 3419 
Q 3125 3100 2959 2851 
Q 2794 2603 2494 2472 
Q 2875 2319 3073 2025 
Q 3272 1731 3272 1347 
Q 3272 713 2867 316 
Q 2463 -81 1791 -81 
Q 1166 -81 750 247 
Q 259 634 259 1309 
Q 259 1681 443 1992 
Q 628 2303 1025 2472 
z
M 1206 3356 
Q 1206 3094 1354 2947 
Q 1503 2800 1750 2800 
Q 2000 2800 2150 2948 
Q 2300 3097 2300 3359 
Q 2300 3606 2151 3754 
Q 2003 3903 1759 3903 
Q 1506 3903 1356 3753 
Q 1206 3603 1206 3356 
z
M 1125 1394 
Q 1125 1031 1311 828 
Q 1497 625 1775 625 
Q 2047 625 2225 820 
Q 2403 1016 2403 1384 
Q 2403 1706 2222 1901 
Q 2041 2097 1763 2097 
Q 1441 2097 1283 1875 
Q 1125 1653 1125 1394 
z
" transform="scale(0.015625)"/>
    </defs>
    <use xlink:href="#Arial-BoldMT-32"/>
    <use xlink:href="#Arial-BoldMT-35" x="55.615234"/>
    <use xlink:href="#Arial-BoldMT-36" x="111.230469"/>
    <use xlink:href="#Arial-BoldMT-5f" x="166.845703"/>
    <use xlink:href="#Arial-BoldMT-31" x="222.460938"/>
    <use xlink:href="#Arial-BoldMT-32" x="278.076172"/>
    <use xlink:href="#Arial-BoldMT-38" x="333.691406"/>
   </g>
  </g>
 </g>
 <defs>
  <clipPath id="p0c77f69443">
   <rect x="108" y="51.84" width="669.6" height="133.056"/>
  </clipPath>
  <clipPath id="p7555aeb54c">
   <rect x="108" y="251.424" width="669.6" height="133.056"/>
  </clipPath>
 </defs>
</svg>
