<?xml version="1.0" encoding="utf-8" standalone="no"?>
<!DOCTYPE svg PUBLIC "-//W3C//DTD SVG 1.1//EN"
  "http://www.w3.org/Graphics/SVG/1.1/DTD/svg11.dtd">
<svg xmlns:xlink="http://www.w3.org/1999/xlink" width="864pt" height="432pt" viewBox="0 0 864 432" xmlns="http://www.w3.org/2000/svg" version="1.1">
 <metadata>
  <rdf:RDF xmlns:dc="http://purl.org/dc/elements/1.1/" xmlns:cc="http://creativecommons.org/ns#" xmlns:rdf="http://www.w3.org/1999/02/22-rdf-syntax-ns#">
   <cc:Work>
    <dc:type rdf:resource="http://purl.org/dc/dcmitype/StillImage"/>
    <dc:date>2024-05-28T09:09:58.012850</dc:date>
    <dc:format>image/svg+xml</dc:format>
    <dc:creator>
     <cc:Agent>
      <dc:title>Matplotlib v3.8.2, https://matplotlib.org/</dc:title>
     </cc:Agent>
    </dc:creator>
   </cc:Work>
  </rdf:RDF>
 </metadata>
 <defs>
  <style type="text/css">*{stroke-linejoin: round; stroke-linecap: butt}</style>
 </defs>
 <g id="figure_1">
  <g id="patch_1">
   <path d="M 0 432 
L 864 432 
L 864 0 
L 0 0 
z
" style="fill: #ffffff"/>
  </g>
  <g id="axes_1">
   <g id="patch_2">
    <path d="M 108 184.896 
L 777.6 184.896 
L 777.6 51.84 
L 108 51.84 
z
" style="fill: #ffffff"/>
   </g>
   <g id="matplotlib.axis_1">
    <g id="xtick_1">
     <g id="line2d_1">
      <path d="M 138.436364 184.896 
L 138.436364 51.84 
" clip-path="url(#pe41d3c36b8)" style="fill: none; stroke: #cccccc; stroke-width: 0.8; stroke-linecap: round"/>
     </g>
     <g id="line2d_2"/>
     <g id="text_1">
      <!-- 0 -->
      <g style="fill: #262626" transform="translate(135.655895 195.553812) scale(0.1 -0.1)">
       <defs>
        <path id="ArialMT-30" d="M 266 2259 
Q 266 3072 433 3567 
Q 600 4063 929 4331 
Q 1259 4600 1759 4600 
Q 2128 4600 2406 4451 
Q 2684 4303 2865 4023 
Q 3047 3744 3150 3342 
Q 3253 2941 3253 2259 
Q 3253 1453 3087 958 
Q 2922 463 2592 192 
Q 2263 -78 1759 -78 
Q 1097 -78 719 397 
Q 266 969 266 2259 
z
M 844 2259 
Q 844 1131 1108 757 
Q 1372 384 1759 384 
Q 2147 384 2411 759 
Q 2675 1134 2675 2259 
Q 2675 3391 2411 3762 
Q 2147 4134 1753 4134 
Q 1366 4134 1134 3806 
Q 844 3388 844 2259 
z
" transform="scale(0.015625)"/>
       </defs>
       <use xlink:href="#ArialMT-30"/>
      </g>
     </g>
    </g>
    <g id="xtick_2">
     <g id="line2d_3">
      <path d="M 262.666419 184.896 
L 262.666419 51.84 
" clip-path="url(#pe41d3c36b8)" style="fill: none; stroke: #cccccc; stroke-width: 0.8; stroke-linecap: round"/>
     </g>
     <g id="line2d_4"/>
     <g id="text_2">
      <!-- 10 -->
      <g style="fill: #262626" transform="translate(257.105482 195.553812) scale(0.1 -0.1)">
       <defs>
        <path id="ArialMT-31" d="M 2384 0 
L 1822 0 
L 1822 3584 
Q 1619 3391 1289 3197 
Q 959 3003 697 2906 
L 697 3450 
Q 1169 3672 1522 3987 
Q 1875 4303 2022 4600 
L 2384 4600 
L 2384 0 
z
" transform="scale(0.015625)"/>
       </defs>
       <use xlink:href="#ArialMT-31"/>
       <use xlink:href="#ArialMT-30" x="55.615234"/>
      </g>
     </g>
    </g>
    <g id="xtick_3">
     <g id="line2d_5">
      <path d="M 386.896475 184.896 
L 386.896475 51.84 
" clip-path="url(#pe41d3c36b8)" style="fill: none; stroke: #cccccc; stroke-width: 0.8; stroke-linecap: round"/>
     </g>
     <g id="line2d_6"/>
     <g id="text_3">
      <!-- 20 -->
      <g style="fill: #262626" transform="translate(381.335537 195.553812) scale(0.1 -0.1)">
       <defs>
        <path id="ArialMT-32" d="M 3222 541 
L 3222 0 
L 194 0 
Q 188 203 259 391 
Q 375 700 629 1000 
Q 884 1300 1366 1694 
Q 2113 2306 2375 2664 
Q 2638 3022 2638 3341 
Q 2638 3675 2398 3904 
Q 2159 4134 1775 4134 
Q 1369 4134 1125 3890 
Q 881 3647 878 3216 
L 300 3275 
Q 359 3922 746 4261 
Q 1134 4600 1788 4600 
Q 2447 4600 2831 4234 
Q 3216 3869 3216 3328 
Q 3216 3053 3103 2787 
Q 2991 2522 2730 2228 
Q 2469 1934 1863 1422 
Q 1356 997 1212 845 
Q 1069 694 975 541 
L 3222 541 
z
" transform="scale(0.015625)"/>
       </defs>
       <use xlink:href="#ArialMT-32"/>
       <use xlink:href="#ArialMT-30" x="55.615234"/>
      </g>
     </g>
    </g>
    <g id="xtick_4">
     <g id="line2d_7">
      <path d="M 511.126531 184.896 
L 511.126531 51.84 
" clip-path="url(#pe41d3c36b8)" style="fill: none; stroke: #cccccc; stroke-width: 0.8; stroke-linecap: round"/>
     </g>
     <g id="line2d_8"/>
     <g id="text_4">
      <!-- 30 -->
      <g style="fill: #262626" transform="translate(505.565593 195.553812) scale(0.1 -0.1)">
       <defs>
        <path id="ArialMT-33" d="M 269 1209 
L 831 1284 
Q 928 806 1161 595 
Q 1394 384 1728 384 
Q 2125 384 2398 659 
Q 2672 934 2672 1341 
Q 2672 1728 2419 1979 
Q 2166 2231 1775 2231 
Q 1616 2231 1378 2169 
L 1441 2663 
Q 1497 2656 1531 2656 
Q 1891 2656 2178 2843 
Q 2466 3031 2466 3422 
Q 2466 3731 2256 3934 
Q 2047 4138 1716 4138 
Q 1388 4138 1169 3931 
Q 950 3725 888 3313 
L 325 3413 
Q 428 3978 793 4289 
Q 1159 4600 1703 4600 
Q 2078 4600 2393 4439 
Q 2709 4278 2876 4000 
Q 3044 3722 3044 3409 
Q 3044 3113 2884 2869 
Q 2725 2625 2413 2481 
Q 2819 2388 3044 2092 
Q 3269 1797 3269 1353 
Q 3269 753 2831 336 
Q 2394 -81 1725 -81 
Q 1122 -81 723 278 
Q 325 638 269 1209 
z
" transform="scale(0.015625)"/>
       </defs>
       <use xlink:href="#ArialMT-33"/>
       <use xlink:href="#ArialMT-30" x="55.615234"/>
      </g>
     </g>
    </g>
    <g id="xtick_5">
     <g id="line2d_9">
      <path d="M 635.356586 184.896 
L 635.356586 51.84 
" clip-path="url(#pe41d3c36b8)" style="fill: none; stroke: #cccccc; stroke-width: 0.8; stroke-linecap: round"/>
     </g>
     <g id="line2d_10"/>
     <g id="text_5">
      <!-- 40 -->
      <g style="fill: #262626" transform="translate(629.795649 195.553812) scale(0.1 -0.1)">
       <defs>
        <path id="ArialMT-34" d="M 2069 0 
L 2069 1097 
L 81 1097 
L 81 1613 
L 2172 4581 
L 2631 4581 
L 2631 1613 
L 3250 1613 
L 3250 1097 
L 2631 1097 
L 2631 0 
L 2069 0 
z
M 2069 1613 
L 2069 3678 
L 634 1613 
L 2069 1613 
z
" transform="scale(0.015625)"/>
       </defs>
       <use xlink:href="#ArialMT-34"/>
       <use xlink:href="#ArialMT-30" x="55.615234"/>
      </g>
     </g>
    </g>
    <g id="xtick_6">
     <g id="line2d_11">
      <path d="M 759.586642 184.896 
L 759.586642 51.84 
" clip-path="url(#pe41d3c36b8)" style="fill: none; stroke: #cccccc; stroke-width: 0.8; stroke-linecap: round"/>
     </g>
     <g id="line2d_12"/>
     <g id="text_6">
      <!-- 50 -->
      <g style="fill: #262626" transform="translate(754.025704 195.553812) scale(0.1 -0.1)">
       <defs>
        <path id="ArialMT-35" d="M 266 1200 
L 856 1250 
Q 922 819 1161 601 
Q 1400 384 1738 384 
Q 2144 384 2425 690 
Q 2706 997 2706 1503 
Q 2706 1984 2436 2262 
Q 2166 2541 1728 2541 
Q 1456 2541 1237 2417 
Q 1019 2294 894 2097 
L 366 2166 
L 809 4519 
L 3088 4519 
L 3088 3981 
L 1259 3981 
L 1013 2750 
Q 1425 3038 1878 3038 
Q 2478 3038 2890 2622 
Q 3303 2206 3303 1553 
Q 3303 931 2941 478 
Q 2500 -78 1738 -78 
Q 1113 -78 717 272 
Q 322 622 266 1200 
z
" transform="scale(0.015625)"/>
       </defs>
       <use xlink:href="#ArialMT-35"/>
       <use xlink:href="#ArialMT-30" x="55.615234"/>
      </g>
     </g>
    </g>
    <g id="text_7">
     <!-- Epochs -->
     <g style="fill: #262626" transform="translate(426.123438 208.699125) scale(0.1 -0.1)">
      <defs>
       <path id="ArialMT-45" d="M 506 0 
L 506 4581 
L 3819 4581 
L 3819 4041 
L 1113 4041 
L 1113 2638 
L 3647 2638 
L 3647 2100 
L 1113 2100 
L 1113 541 
L 3925 541 
L 3925 0 
L 506 0 
z
" transform="scale(0.015625)"/>
       <path id="ArialMT-70" d="M 422 -1272 
L 422 3319 
L 934 3319 
L 934 2888 
Q 1116 3141 1344 3267 
Q 1572 3394 1897 3394 
Q 2322 3394 2647 3175 
Q 2972 2956 3137 2557 
Q 3303 2159 3303 1684 
Q 3303 1175 3120 767 
Q 2938 359 2589 142 
Q 2241 -75 1856 -75 
Q 1575 -75 1351 44 
Q 1128 163 984 344 
L 984 -1272 
L 422 -1272 
z
M 931 1641 
Q 931 1000 1190 694 
Q 1450 388 1819 388 
Q 2194 388 2461 705 
Q 2728 1022 2728 1688 
Q 2728 2322 2467 2637 
Q 2206 2953 1844 2953 
Q 1484 2953 1207 2617 
Q 931 2281 931 1641 
z
" transform="scale(0.015625)"/>
       <path id="ArialMT-6f" d="M 213 1659 
Q 213 2581 725 3025 
Q 1153 3394 1769 3394 
Q 2453 3394 2887 2945 
Q 3322 2497 3322 1706 
Q 3322 1066 3130 698 
Q 2938 331 2570 128 
Q 2203 -75 1769 -75 
Q 1072 -75 642 372 
Q 213 819 213 1659 
z
M 791 1659 
Q 791 1022 1069 705 
Q 1347 388 1769 388 
Q 2188 388 2466 706 
Q 2744 1025 2744 1678 
Q 2744 2294 2464 2611 
Q 2184 2928 1769 2928 
Q 1347 2928 1069 2612 
Q 791 2297 791 1659 
z
" transform="scale(0.015625)"/>
       <path id="ArialMT-63" d="M 2588 1216 
L 3141 1144 
Q 3050 572 2676 248 
Q 2303 -75 1759 -75 
Q 1078 -75 664 370 
Q 250 816 250 1647 
Q 250 2184 428 2587 
Q 606 2991 970 3192 
Q 1334 3394 1763 3394 
Q 2303 3394 2647 3120 
Q 2991 2847 3088 2344 
L 2541 2259 
Q 2463 2594 2264 2762 
Q 2066 2931 1784 2931 
Q 1359 2931 1093 2626 
Q 828 2322 828 1663 
Q 828 994 1084 691 
Q 1341 388 1753 388 
Q 2084 388 2306 591 
Q 2528 794 2588 1216 
z
" transform="scale(0.015625)"/>
       <path id="ArialMT-68" d="M 422 0 
L 422 4581 
L 984 4581 
L 984 2938 
Q 1378 3394 1978 3394 
Q 2347 3394 2619 3248 
Q 2891 3103 3008 2847 
Q 3125 2591 3125 2103 
L 3125 0 
L 2563 0 
L 2563 2103 
Q 2563 2525 2380 2717 
Q 2197 2909 1863 2909 
Q 1613 2909 1392 2779 
Q 1172 2650 1078 2428 
Q 984 2206 984 1816 
L 984 0 
L 422 0 
z
" transform="scale(0.015625)"/>
       <path id="ArialMT-73" d="M 197 991 
L 753 1078 
Q 800 744 1014 566 
Q 1228 388 1613 388 
Q 2000 388 2187 545 
Q 2375 703 2375 916 
Q 2375 1106 2209 1216 
Q 2094 1291 1634 1406 
Q 1016 1563 777 1677 
Q 538 1791 414 1992 
Q 291 2194 291 2438 
Q 291 2659 392 2848 
Q 494 3038 669 3163 
Q 800 3259 1026 3326 
Q 1253 3394 1513 3394 
Q 1903 3394 2198 3281 
Q 2494 3169 2634 2976 
Q 2775 2784 2828 2463 
L 2278 2388 
Q 2241 2644 2061 2787 
Q 1881 2931 1553 2931 
Q 1166 2931 1000 2803 
Q 834 2675 834 2503 
Q 834 2394 903 2306 
Q 972 2216 1119 2156 
Q 1203 2125 1616 2013 
Q 2213 1853 2448 1751 
Q 2684 1650 2818 1456 
Q 2953 1263 2953 975 
Q 2953 694 2789 445 
Q 2625 197 2315 61 
Q 2006 -75 1616 -75 
Q 969 -75 630 194 
Q 291 463 197 991 
z
" transform="scale(0.015625)"/>
      </defs>
      <use xlink:href="#ArialMT-45"/>
      <use xlink:href="#ArialMT-70" x="66.699219"/>
      <use xlink:href="#ArialMT-6f" x="122.314453"/>
      <use xlink:href="#ArialMT-63" x="177.929688"/>
      <use xlink:href="#ArialMT-68" x="227.929688"/>
      <use xlink:href="#ArialMT-73" x="283.544922"/>
     </g>
    </g>
   </g>
   <g id="matplotlib.axis_2">
    <g id="ytick_1">
     <g id="line2d_13">
      <path d="M 108 174.59077 
L 777.6 174.59077 
" clip-path="url(#pe41d3c36b8)" style="fill: none; stroke: #cccccc; stroke-width: 0.8; stroke-linecap: round"/>
     </g>
     <g id="line2d_14"/>
     <g id="text_8">
      <!-- 0.5 -->
      <g style="fill: #262626" transform="translate(90.6 178.169676) scale(0.1 -0.1)">
       <defs>
        <path id="ArialMT-2e" d="M 581 0 
L 581 641 
L 1222 641 
L 1222 0 
L 581 0 
z
" transform="scale(0.015625)"/>
       </defs>
       <use xlink:href="#ArialMT-30"/>
       <use xlink:href="#ArialMT-2e" x="55.615234"/>
       <use xlink:href="#ArialMT-35" x="83.398438"/>
      </g>
     </g>
    </g>
    <g id="ytick_2">
     <g id="line2d_15">
      <path d="M 108 148.029563 
L 777.6 148.029563 
" clip-path="url(#pe41d3c36b8)" style="fill: none; stroke: #cccccc; stroke-width: 0.8; stroke-linecap: round"/>
     </g>
     <g id="line2d_16"/>
     <g id="text_9">
      <!-- 0.6 -->
      <g style="fill: #262626" transform="translate(90.6 151.60847) scale(0.1 -0.1)">
       <defs>
        <path id="ArialMT-36" d="M 3184 3459 
L 2625 3416 
Q 2550 3747 2413 3897 
Q 2184 4138 1850 4138 
Q 1581 4138 1378 3988 
Q 1113 3794 959 3422 
Q 806 3050 800 2363 
Q 1003 2672 1297 2822 
Q 1591 2972 1913 2972 
Q 2475 2972 2870 2558 
Q 3266 2144 3266 1488 
Q 3266 1056 3080 686 
Q 2894 316 2569 119 
Q 2244 -78 1831 -78 
Q 1128 -78 684 439 
Q 241 956 241 2144 
Q 241 3472 731 4075 
Q 1159 4600 1884 4600 
Q 2425 4600 2770 4297 
Q 3116 3994 3184 3459 
z
M 888 1484 
Q 888 1194 1011 928 
Q 1134 663 1356 523 
Q 1578 384 1822 384 
Q 2178 384 2434 671 
Q 2691 959 2691 1453 
Q 2691 1928 2437 2201 
Q 2184 2475 1800 2475 
Q 1419 2475 1153 2201 
Q 888 1928 888 1484 
z
" transform="scale(0.015625)"/>
       </defs>
       <use xlink:href="#ArialMT-30"/>
       <use xlink:href="#ArialMT-2e" x="55.615234"/>
       <use xlink:href="#ArialMT-36" x="83.398438"/>
      </g>
     </g>
    </g>
    <g id="ytick_3">
     <g id="line2d_17">
      <path d="M 108 121.468357 
L 777.6 121.468357 
" clip-path="url(#pe41d3c36b8)" style="fill: none; stroke: #cccccc; stroke-width: 0.8; stroke-linecap: round"/>
     </g>
     <g id="line2d_18"/>
     <g id="text_10">
      <!-- 0.7 -->
      <g style="fill: #262626" transform="translate(90.6 125.047263) scale(0.1 -0.1)">
       <defs>
        <path id="ArialMT-37" d="M 303 3981 
L 303 4522 
L 3269 4522 
L 3269 4084 
Q 2831 3619 2401 2847 
Q 1972 2075 1738 1259 
Q 1569 684 1522 0 
L 944 0 
Q 953 541 1156 1306 
Q 1359 2072 1739 2783 
Q 2119 3494 2547 3981 
L 303 3981 
z
" transform="scale(0.015625)"/>
       </defs>
       <use xlink:href="#ArialMT-30"/>
       <use xlink:href="#ArialMT-2e" x="55.615234"/>
       <use xlink:href="#ArialMT-37" x="83.398438"/>
      </g>
     </g>
    </g>
    <g id="ytick_4">
     <g id="line2d_19">
      <path d="M 108 94.90715 
L 777.6 94.90715 
" clip-path="url(#pe41d3c36b8)" style="fill: none; stroke: #cccccc; stroke-width: 0.8; stroke-linecap: round"/>
     </g>
     <g id="line2d_20"/>
     <g id="text_11">
      <!-- 0.8 -->
      <g style="fill: #262626" transform="translate(90.6 98.486057) scale(0.1 -0.1)">
       <defs>
        <path id="ArialMT-38" d="M 1131 2484 
Q 781 2613 612 2850 
Q 444 3088 444 3419 
Q 444 3919 803 4259 
Q 1163 4600 1759 4600 
Q 2359 4600 2725 4251 
Q 3091 3903 3091 3403 
Q 3091 3084 2923 2848 
Q 2756 2613 2416 2484 
Q 2838 2347 3058 2040 
Q 3278 1734 3278 1309 
Q 3278 722 2862 322 
Q 2447 -78 1769 -78 
Q 1091 -78 675 323 
Q 259 725 259 1325 
Q 259 1772 486 2073 
Q 713 2375 1131 2484 
z
M 1019 3438 
Q 1019 3113 1228 2906 
Q 1438 2700 1772 2700 
Q 2097 2700 2305 2904 
Q 2513 3109 2513 3406 
Q 2513 3716 2298 3927 
Q 2084 4138 1766 4138 
Q 1444 4138 1231 3931 
Q 1019 3725 1019 3438 
z
M 838 1322 
Q 838 1081 952 856 
Q 1066 631 1291 507 
Q 1516 384 1775 384 
Q 2178 384 2440 643 
Q 2703 903 2703 1303 
Q 2703 1709 2433 1975 
Q 2163 2241 1756 2241 
Q 1359 2241 1098 1978 
Q 838 1716 838 1322 
z
" transform="scale(0.015625)"/>
       </defs>
       <use xlink:href="#ArialMT-30"/>
       <use xlink:href="#ArialMT-2e" x="55.615234"/>
       <use xlink:href="#ArialMT-38" x="83.398438"/>
      </g>
     </g>
    </g>
    <g id="ytick_5">
     <g id="line2d_21">
      <path d="M 108 68.345944 
L 777.6 68.345944 
" clip-path="url(#pe41d3c36b8)" style="fill: none; stroke: #cccccc; stroke-width: 0.8; stroke-linecap: round"/>
     </g>
     <g id="line2d_22"/>
     <g id="text_12">
      <!-- 0.9 -->
      <g style="fill: #262626" transform="translate(90.6 71.92485) scale(0.1 -0.1)">
       <defs>
        <path id="ArialMT-39" d="M 350 1059 
L 891 1109 
Q 959 728 1153 556 
Q 1347 384 1650 384 
Q 1909 384 2104 503 
Q 2300 622 2425 820 
Q 2550 1019 2634 1356 
Q 2719 1694 2719 2044 
Q 2719 2081 2716 2156 
Q 2547 1888 2255 1720 
Q 1963 1553 1622 1553 
Q 1053 1553 659 1965 
Q 266 2378 266 3053 
Q 266 3750 677 4175 
Q 1088 4600 1706 4600 
Q 2153 4600 2523 4359 
Q 2894 4119 3086 3673 
Q 3278 3228 3278 2384 
Q 3278 1506 3087 986 
Q 2897 466 2520 194 
Q 2144 -78 1638 -78 
Q 1100 -78 759 220 
Q 419 519 350 1059 
z
M 2653 3081 
Q 2653 3566 2395 3850 
Q 2138 4134 1775 4134 
Q 1400 4134 1122 3828 
Q 844 3522 844 3034 
Q 844 2597 1108 2323 
Q 1372 2050 1759 2050 
Q 2150 2050 2401 2323 
Q 2653 2597 2653 3081 
z
" transform="scale(0.015625)"/>
       </defs>
       <use xlink:href="#ArialMT-30"/>
       <use xlink:href="#ArialMT-2e" x="55.615234"/>
       <use xlink:href="#ArialMT-39" x="83.398438"/>
      </g>
     </g>
    </g>
    <g id="text_13">
     <!-- Accuracy -->
     <g style="fill: #262626" transform="translate(84.495312 138.928937) rotate(-90) scale(0.1 -0.1)">
      <defs>
       <path id="ArialMT-41" d="M -9 0 
L 1750 4581 
L 2403 4581 
L 4278 0 
L 3588 0 
L 3053 1388 
L 1138 1388 
L 634 0 
L -9 0 
z
M 1313 1881 
L 2866 1881 
L 2388 3150 
Q 2169 3728 2063 4100 
Q 1975 3659 1816 3225 
L 1313 1881 
z
" transform="scale(0.015625)"/>
       <path id="ArialMT-75" d="M 2597 0 
L 2597 488 
Q 2209 -75 1544 -75 
Q 1250 -75 995 37 
Q 741 150 617 320 
Q 494 491 444 738 
Q 409 903 409 1263 
L 409 3319 
L 972 3319 
L 972 1478 
Q 972 1038 1006 884 
Q 1059 663 1231 536 
Q 1403 409 1656 409 
Q 1909 409 2131 539 
Q 2353 669 2445 892 
Q 2538 1116 2538 1541 
L 2538 3319 
L 3100 3319 
L 3100 0 
L 2597 0 
z
" transform="scale(0.015625)"/>
       <path id="ArialMT-72" d="M 416 0 
L 416 3319 
L 922 3319 
L 922 2816 
Q 1116 3169 1280 3281 
Q 1444 3394 1641 3394 
Q 1925 3394 2219 3213 
L 2025 2691 
Q 1819 2813 1613 2813 
Q 1428 2813 1281 2702 
Q 1134 2591 1072 2394 
Q 978 2094 978 1738 
L 978 0 
L 416 0 
z
" transform="scale(0.015625)"/>
       <path id="ArialMT-61" d="M 2588 409 
Q 2275 144 1986 34 
Q 1697 -75 1366 -75 
Q 819 -75 525 192 
Q 231 459 231 875 
Q 231 1119 342 1320 
Q 453 1522 633 1644 
Q 813 1766 1038 1828 
Q 1203 1872 1538 1913 
Q 2219 1994 2541 2106 
Q 2544 2222 2544 2253 
Q 2544 2597 2384 2738 
Q 2169 2928 1744 2928 
Q 1347 2928 1158 2789 
Q 969 2650 878 2297 
L 328 2372 
Q 403 2725 575 2942 
Q 747 3159 1072 3276 
Q 1397 3394 1825 3394 
Q 2250 3394 2515 3294 
Q 2781 3194 2906 3042 
Q 3031 2891 3081 2659 
Q 3109 2516 3109 2141 
L 3109 1391 
Q 3109 606 3145 398 
Q 3181 191 3288 0 
L 2700 0 
Q 2613 175 2588 409 
z
M 2541 1666 
Q 2234 1541 1622 1453 
Q 1275 1403 1131 1340 
Q 988 1278 909 1158 
Q 831 1038 831 891 
Q 831 666 1001 516 
Q 1172 366 1500 366 
Q 1825 366 2078 508 
Q 2331 650 2450 897 
Q 2541 1088 2541 1459 
L 2541 1666 
z
" transform="scale(0.015625)"/>
       <path id="ArialMT-79" d="M 397 -1278 
L 334 -750 
Q 519 -800 656 -800 
Q 844 -800 956 -737 
Q 1069 -675 1141 -563 
Q 1194 -478 1313 -144 
Q 1328 -97 1363 -6 
L 103 3319 
L 709 3319 
L 1400 1397 
Q 1534 1031 1641 628 
Q 1738 1016 1872 1384 
L 2581 3319 
L 3144 3319 
L 1881 -56 
Q 1678 -603 1566 -809 
Q 1416 -1088 1222 -1217 
Q 1028 -1347 759 -1347 
Q 597 -1347 397 -1278 
z
" transform="scale(0.015625)"/>
      </defs>
      <use xlink:href="#ArialMT-41"/>
      <use xlink:href="#ArialMT-63" x="66.699219"/>
      <use xlink:href="#ArialMT-63" x="116.699219"/>
      <use xlink:href="#ArialMT-75" x="166.699219"/>
      <use xlink:href="#ArialMT-72" x="222.314453"/>
      <use xlink:href="#ArialMT-61" x="255.615234"/>
      <use xlink:href="#ArialMT-63" x="311.230469"/>
      <use xlink:href="#ArialMT-79" x="361.230469"/>
     </g>
    </g>
   </g>
   <g id="line2d_23">
    <path d="M 138.436364 83.153551 
L 150.859369 66.124896 
L 163.282375 60.664443 
L 175.70538 61.127139 
L 188.128386 60.757142 
L 200.551391 59.183656 
L 212.974397 59.831483 
L 225.397403 59.831483 
L 237.820408 60.757142 
L 250.243414 59.924182 
L 262.666419 60.664443 
L 275.089425 59.646352 
L 287.51243 58.350696 
L 299.935436 60.664443 
L 312.358442 61.127139 
L 324.781447 61.312271 
L 337.204453 58.443395 
L 349.627458 59.646352 
L 362.050464 59.831483 
L 374.473469 59.368787 
L 386.896475 59.276354 
L 399.319481 58.628526 
L 411.742486 60.016615 
L 424.165492 59.553919 
L 436.588497 60.57201 
L 449.011503 58.998524 
L 461.434508 58.628526 
L 473.857514 61.312271 
L 486.280519 59.276354 
L 498.703525 60.757142 
L 511.126531 60.942008 
L 523.549536 59.461486 
L 535.972542 60.386878 
L 548.395547 60.942008 
L 560.818553 59.646352 
L 573.241558 58.720959 
L 585.664564 59.553919 
L 598.08757 59.183656 
L 610.510575 59.831483 
L 622.933581 58.258263 
L 635.356586 57.888 
L 647.779592 58.535828 
L 660.202597 60.201747 
L 672.625603 59.831483 
L 685.048609 59.831483 
L 697.471614 60.109314 
L 709.89462 61.219838 
L 722.317625 59.924182 
L 734.740631 60.201747 
L 747.163636 59.73905 
" clip-path="url(#pe41d3c36b8)" style="fill: none; stroke: #1f77b4; stroke-width: 1.5; stroke-linecap: round"/>
   </g>
   <g id="line2d_24">
    <path d="M 138.436364 172.369722 
L 150.859369 172.18459 
L 163.282375 172.18459 
L 175.70538 172.18459 
L 188.128386 172.18459 
L 200.551391 172.18459 
L 212.974397 172.18459 
L 225.397403 172.18459 
L 237.820408 172.18459 
L 250.243414 172.18459 
L 262.666419 172.18459 
L 275.089425 172.18459 
L 287.51243 172.18459 
L 299.935436 172.18459 
L 312.358442 172.18459 
L 324.781447 172.18459 
L 337.204453 172.18459 
L 349.627458 172.18459 
L 362.050464 172.18459 
L 374.473469 172.18459 
L 386.896475 172.091892 
L 399.319481 172.277023 
L 411.742486 171.999459 
L 424.165492 171.90676 
L 436.588497 175.146165 
L 449.011503 173.75781 
L 461.434508 173.572679 
L 473.857514 171.166499 
L 486.280519 169.593279 
L 498.703525 173.942942 
L 511.126531 172.369722 
L 523.549536 175.978858 
L 535.972542 174.59077 
L 548.395547 175.053466 
L 560.818553 177.089648 
L 573.241558 174.405638 
L 585.664564 176.626952 
L 598.08757 178.015041 
L 610.510575 178.848 
L 622.933581 176.719385 
L 635.356586 177.27478 
L 647.779592 177.27478 
L 660.202597 178.200172 
L 672.625603 174.961033 
L 685.048609 175.978858 
L 697.471614 176.16399 
L 709.89462 177.089648 
L 722.317625 177.27478 
L 734.740631 176.534253 
L 747.163636 173.480246 
" clip-path="url(#pe41d3c36b8)" style="fill: none; stroke: #ff7f0e; stroke-width: 1.5; stroke-linecap: round"/>
   </g>
   <g id="line2d_25">
    <path d="M 138.436364 125.632888 
L 150.859369 136.090832 
L 163.282375 78.526323 
L 175.70538 78.803888 
L 188.128386 77.785797 
L 200.551391 79.72928 
L 212.974397 78.15606 
L 225.397403 79.636847 
L 237.820408 84.449206 
L 250.243414 89.261832 
L 262.666419 94.259323 
L 275.089425 94.90715 
L 287.51243 99.534644 
L 299.935436 114.712248 
L 312.358442 119.247309 
L 324.781447 127.946635 
L 337.204453 134.424913 
L 349.627458 143.6799 
L 362.050464 147.196604 
L 374.473469 153.027054 
L 386.896475 157.839679 
L 399.319481 160.338292 
L 411.742486 164.595522 
L 424.165492 167.001968 
L 436.588497 167.001968 
L 449.011503 167.371965 
L 461.434508 169.685712 
L 473.857514 170.888934 
L 486.280519 172.462155 
L 498.703525 173.387547 
L 511.126531 174.59077 
L 523.549536 175.516162 
L 535.972542 175.146165 
L 548.395547 175.793992 
L 560.818553 175.608861 
L 573.241558 176.44182 
L 585.664564 176.071557 
L 598.08757 176.626952 
L 610.510575 176.44182 
L 622.933581 177.182081 
L 635.356586 176.811818 
L 647.779592 176.626952 
L 660.202597 176.811818 
L 672.625603 176.626952 
L 685.048609 176.811818 
L 697.471614 176.99695 
L 709.89462 176.719385 
L 722.317625 176.904517 
L 734.740631 176.99695 
L 747.163636 176.904517 
" clip-path="url(#pe41d3c36b8)" style="fill: none; stroke: #2ca02c; stroke-width: 1.5; stroke-linecap: round"/>
   </g>
   <g id="line2d_26">
    <path d="M 138.436364 158.487507 
L 150.859369 164.688221 
L 163.282375 165.613613 
L 175.70538 165.983876 
L 188.128386 164.040393 
L 200.551391 165.428482 
L 212.974397 165.52118 
L 225.397403 165.058218 
L 237.820408 166.446573 
L 250.243414 164.503089 
L 262.666419 165.150917 
L 275.089425 167.186834 
L 287.51243 165.798745 
L 299.935436 166.816836 
L 312.358442 165.891178 
L 324.781447 168.575188 
L 337.204453 170.703803 
L 349.627458 169.50058 
L 362.050464 170.703803 
L 374.473469 168.760319 
L 386.896475 169.870843 
L 399.319481 168.760319 
L 411.742486 171.629195 
L 424.165492 171.90676 
L 436.588497 174.128074 
L 449.011503 172.091892 
L 461.434508 173.572679 
L 473.857514 174.961033 
L 486.280519 174.59077 
L 498.703525 174.498337 
L 511.126531 174.775901 
L 523.549536 175.423729 
L 535.972542 176.534253 
L 548.395547 175.516162 
L 560.818553 175.978858 
L 573.241558 176.44182 
L 585.664564 175.331031 
L 598.08757 176.44182 
L 610.510575 176.626952 
L 622.933581 176.071557 
L 635.356586 176.44182 
L 647.779592 176.256689 
L 660.202597 176.811818 
L 672.625603 176.626952 
L 685.048609 176.256689 
L 697.471614 176.811818 
L 709.89462 176.719385 
L 722.317625 176.811818 
L 734.740631 176.904517 
L 747.163636 176.626952 
" clip-path="url(#pe41d3c36b8)" style="fill: none; stroke: #d62728; stroke-width: 1.5; stroke-linecap: round"/>
   </g>
   <g id="line2d_27">
    <path d="M 138.436364 91.668011 
L 150.859369 121.283225 
L 163.282375 78.618756 
L 175.70538 78.618756 
L 188.128386 80.56224 
L 200.551391 79.72928 
L 212.974397 80.006845 
L 225.397403 83.708946 
L 237.820408 80.654673 
L 250.243414 82.043027 
L 262.666419 81.487632 
L 275.089425 84.356773 
L 287.51243 83.616247 
L 299.935436 84.541905 
L 312.358442 84.634338 
L 324.781447 85.929994 
L 337.204453 90.187224 
L 349.627458 91.112616 
L 362.050464 100.737601 
L 374.473469 112.028504 
L 386.896475 120.357833 
L 399.319481 122.764012 
L 411.742486 127.854202 
L 424.165492 128.964726 
L 436.588497 127.946635 
L 449.011503 133.036825 
L 461.434508 140.162931 
L 473.857514 144.882857 
L 486.280519 148.769824 
L 498.703525 157.469416 
L 511.126531 161.449082 
L 523.549536 165.613613 
L 535.972542 168.390056 
L 548.395547 170.796236 
L 560.818553 169.130583 
L 573.241558 172.462155 
L 585.664564 172.462155 
L 598.08757 174.128074 
L 610.510575 172.739719 
L 622.933581 173.665377 
L 635.356586 174.128074 
L 647.779592 174.868334 
L 660.202597 175.516162 
L 672.625603 176.071557 
L 685.048609 176.534253 
L 697.471614 176.256689 
L 709.89462 176.811818 
L 722.317625 176.719385 
L 734.740631 176.719385 
L 747.163636 176.626952 
" clip-path="url(#pe41d3c36b8)" style="fill: none; stroke: #9467bd; stroke-width: 1.5; stroke-linecap: round"/>
   </g>
   <g id="line2d_28">
    <path d="M 138.436364 172.924851 
L 150.859369 171.814327 
L 163.282375 134.33248 
L 175.70538 133.777086 
L 188.128386 134.240047 
L 200.551391 139.607802 
L 212.974397 142.013981 
L 225.397403 145.25312 
L 237.820408 148.584958 
L 250.243414 149.695482 
L 262.666419 160.708555 
L 275.089425 165.613613 
L 287.51243 172.091892 
L 299.935436 171.536762 
L 312.358442 172.277023 
L 324.781447 173.850509 
L 337.204453 176.16399 
L 349.627458 174.220507 
L 362.050464 177.089648 
L 374.473469 175.886425 
L 386.896475 175.146165 
L 399.319481 174.868334 
L 411.742486 175.886425 
L 424.165492 175.793992 
L 436.588497 176.719385 
L 449.011503 176.256689 
L 461.434508 176.16399 
L 473.857514 176.626952 
L 486.280519 176.256689 
L 498.703525 176.44182 
L 511.126531 176.44182 
L 523.549536 176.811818 
L 535.972542 175.331031 
L 548.395547 176.811818 
L 560.818553 176.534253 
L 573.241558 176.44182 
L 585.664564 176.99695 
L 598.08757 176.626952 
L 610.510575 176.811818 
L 622.933581 177.089648 
L 635.356586 176.719385 
L 647.779592 176.99695 
L 660.202597 177.089648 
L 672.625603 176.811818 
L 685.048609 176.626952 
L 697.471614 177.182081 
L 709.89462 177.182081 
L 722.317625 177.182081 
L 734.740631 176.719385 
L 747.163636 176.719385 
" clip-path="url(#pe41d3c36b8)" style="fill: none; stroke: #8c564b; stroke-width: 1.5; stroke-linecap: round"/>
   </g>
   <g id="line2d_29">
    <path d="M 138.436364 111.935805 
L 150.859369 138.312146 
L 163.282375 155.4335 
L 175.70538 156.544024 
L 188.128386 157.376983 
L 200.551391 158.57994 
L 212.974397 159.320467 
L 225.397403 156.544024 
L 237.820408 155.248368 
L 250.243414 154.137844 
L 262.666419 155.525933 
L 275.089425 157.932112 
L 287.51243 155.525933 
L 299.935436 153.212186 
L 312.358442 154.692973 
L 324.781447 151.638966 
L 337.204453 148.677391 
L 349.627458 152.194095 
L 362.050464 157.746981 
L 374.473469 159.320467 
L 386.896475 158.209943 
L 399.319481 157.932112 
L 411.742486 155.988629 
L 424.165492 156.17376 
L 436.588497 156.636457 
L 449.011503 155.248368 
L 461.434508 157.284285 
L 473.857514 157.191852 
L 486.280519 156.544024 
L 498.703525 154.692973 
L 511.126531 156.358892 
L 523.549536 155.4335 
L 535.972542 159.320467 
L 548.395547 156.914021 
L 560.818553 156.821588 
L 573.241558 156.821588 
L 585.664564 156.266193 
L 598.08757 155.525933 
L 610.510575 153.489751 
L 622.933581 155.4335 
L 635.356586 153.489751 
L 647.779592 153.582449 
L 660.202597 152.934621 
L 672.625603 152.934621 
L 685.048609 152.286794 
L 697.471614 153.119753 
L 709.89462 154.507842 
L 722.317625 153.027054 
L 734.740631 154.692973 
L 747.163636 155.4335 
" clip-path="url(#pe41d3c36b8)" style="fill: none; stroke: #e377c2; stroke-width: 1.5; stroke-linecap: round"/>
   </g>
   <g id="line2d_30">
    <path d="M 138.436364 85.004601 
L 150.859369 66.587592 
L 163.282375 80.006845 
L 175.70538 78.989019 
L 188.128386 76.767706 
L 200.551391 75.564749 
L 212.974397 77.230402 
L 225.397403 79.72928 
L 237.820408 76.952837 
L 250.243414 76.119878 
L 262.666419 77.230402 
L 275.089425 76.952837 
L 287.51243 75.009354 
L 299.935436 75.47205 
L 312.358442 73.89883 
L 324.781447 74.454224 
L 337.204453 75.74988 
L 349.627458 75.74988 
L 362.050464 76.582574 
L 374.473469 76.305009 
L 386.896475 76.027445 
L 399.319481 76.767706 
L 411.742486 74.546657 
L 424.165492 75.286918 
L 436.588497 77.137969 
L 449.011503 73.991263 
L 461.434508 75.102052 
L 473.857514 72.880739 
L 486.280519 73.436133 
L 498.703525 72.047779 
L 511.126531 73.806131 
L 523.549536 73.621265 
L 535.972542 74.731789 
L 548.395547 73.343435 
L 560.818553 72.047779 
L 573.241558 76.582574 
L 585.664564 73.621265 
L 598.08757 78.063361 
L 610.510575 71.862648 
L 622.933581 71.585083 
L 635.356586 71.955346 
L 647.779592 73.806131 
L 660.202597 71.955346 
L 672.625603 72.232911 
L 685.048609 73.528566 
L 697.471614 72.140478 
L 709.89462 73.06587 
L 722.317625 71.955346 
L 734.740631 71.862648 
L 747.163636 70.104296 
" clip-path="url(#pe41d3c36b8)" style="fill: none; stroke: #7f7f7f; stroke-width: 1.5; stroke-linecap: round"/>
   </g>
   <g id="patch_3">
    <path d="M 108 184.896 
L 108 51.84 
" style="fill: none; stroke: #cccccc; stroke-linejoin: miter; stroke-linecap: square"/>
   </g>
   <g id="patch_4">
    <path d="M 777.6 184.896 
L 777.6 51.84 
" style="fill: none; stroke: #cccccc; stroke-linejoin: miter; stroke-linecap: square"/>
   </g>
   <g id="patch_5">
    <path d="M 108 184.896 
L 777.6 184.896 
" style="fill: none; stroke: #cccccc; stroke-linejoin: miter; stroke-linecap: square"/>
   </g>
   <g id="patch_6">
    <path d="M 108 51.84 
L 777.6 51.84 
" style="fill: none; stroke: #cccccc; stroke-linejoin: miter; stroke-linecap: square"/>
   </g>
   <g id="text_14">
    <!-- Train -->
    <g style="fill: #262626" transform="translate(429.35625 45.84) scale(0.12 -0.12)">
     <defs>
      <path id="ArialMT-54" d="M 1659 0 
L 1659 4041 
L 150 4041 
L 150 4581 
L 3781 4581 
L 3781 4041 
L 2266 4041 
L 2266 0 
L 1659 0 
z
" transform="scale(0.015625)"/>
      <path id="ArialMT-69" d="M 425 3934 
L 425 4581 
L 988 4581 
L 988 3934 
L 425 3934 
z
M 425 0 
L 425 3319 
L 988 3319 
L 988 0 
L 425 0 
z
" transform="scale(0.015625)"/>
      <path id="ArialMT-6e" d="M 422 0 
L 422 3319 
L 928 3319 
L 928 2847 
Q 1294 3394 1984 3394 
Q 2284 3394 2536 3286 
Q 2788 3178 2913 3003 
Q 3038 2828 3088 2588 
Q 3119 2431 3119 2041 
L 3119 0 
L 2556 0 
L 2556 2019 
Q 2556 2363 2490 2533 
Q 2425 2703 2258 2804 
Q 2091 2906 1866 2906 
Q 1506 2906 1245 2678 
Q 984 2450 984 1813 
L 984 0 
L 422 0 
z
" transform="scale(0.015625)"/>
     </defs>
     <use xlink:href="#ArialMT-54"/>
     <use xlink:href="#ArialMT-72" x="57.333984"/>
     <use xlink:href="#ArialMT-61" x="90.634766"/>
     <use xlink:href="#ArialMT-69" x="146.25"/>
     <use xlink:href="#ArialMT-6e" x="168.466797"/>
    </g>
   </g>
   <g id="legend_1">
    <g id="line2d_31">
     <path d="M 722.807813 67.944562 
L 732.807813 67.944562 
L 742.807813 67.944562 
" style="fill: none; stroke: #1f77b4; stroke-width: 1.5; stroke-linecap: round"/>
    </g>
    <g id="text_15">
     <!-- Y10 -->
     <g style="fill: #262626" transform="translate(750.807813 71.444562) scale(0.1 -0.1)">
      <defs>
       <path id="ArialMT-59" d="M 1784 0 
L 1784 1941 
L 19 4581 
L 756 4581 
L 1659 3200 
Q 1909 2813 2125 2425 
Q 2331 2784 2625 3234 
L 3513 4581 
L 4219 4581 
L 2391 1941 
L 2391 0 
L 1784 0 
z
" transform="scale(0.015625)"/>
      </defs>
      <use xlink:href="#ArialMT-59"/>
      <use xlink:href="#ArialMT-31" x="66.699219"/>
      <use xlink:href="#ArialMT-30" x="122.314453"/>
     </g>
    </g>
    <g id="line2d_32">
     <path d="M 722.807813 82.089875 
L 732.807813 82.089875 
L 742.807813 82.089875 
" style="fill: none; stroke: #ff7f0e; stroke-width: 1.5; stroke-linecap: round"/>
    </g>
    <g id="text_16">
     <!-- Y2 -->
     <g style="fill: #262626" transform="translate(750.807813 85.589875) scale(0.1 -0.1)">
      <use xlink:href="#ArialMT-59"/>
      <use xlink:href="#ArialMT-32" x="66.699219"/>
     </g>
    </g>
    <g id="line2d_33">
     <path d="M 722.807813 96.235187 
L 732.807813 96.235187 
L 742.807813 96.235187 
" style="fill: none; stroke: #2ca02c; stroke-width: 1.5; stroke-linecap: round"/>
    </g>
    <g id="text_17">
     <!-- Y3 -->
     <g style="fill: #262626" transform="translate(750.807813 99.735187) scale(0.1 -0.1)">
      <use xlink:href="#ArialMT-59"/>
      <use xlink:href="#ArialMT-33" x="66.699219"/>
     </g>
    </g>
    <g id="line2d_34">
     <path d="M 722.807813 110.3805 
L 732.807813 110.3805 
L 742.807813 110.3805 
" style="fill: none; stroke: #d62728; stroke-width: 1.5; stroke-linecap: round"/>
    </g>
    <g id="text_18">
     <!-- Y4 -->
     <g style="fill: #262626" transform="translate(750.807813 113.8805) scale(0.1 -0.1)">
      <use xlink:href="#ArialMT-59"/>
      <use xlink:href="#ArialMT-34" x="66.699219"/>
     </g>
    </g>
    <g id="line2d_35">
     <path d="M 722.807813 124.525812 
L 732.807813 124.525812 
L 742.807813 124.525812 
" style="fill: none; stroke: #9467bd; stroke-width: 1.5; stroke-linecap: round"/>
    </g>
    <g id="text_19">
     <!-- Y5 -->
     <g style="fill: #262626" transform="translate(750.807813 128.025812) scale(0.1 -0.1)">
      <use xlink:href="#ArialMT-59"/>
      <use xlink:href="#ArialMT-35" x="66.699219"/>
     </g>
    </g>
    <g id="line2d_36">
     <path d="M 722.807813 138.671125 
L 732.807813 138.671125 
L 742.807813 138.671125 
" style="fill: none; stroke: #8c564b; stroke-width: 1.5; stroke-linecap: round"/>
    </g>
    <g id="text_20">
     <!-- Y6 -->
     <g style="fill: #262626" transform="translate(750.807813 142.171125) scale(0.1 -0.1)">
      <use xlink:href="#ArialMT-59"/>
      <use xlink:href="#ArialMT-36" x="66.699219"/>
     </g>
    </g>
    <g id="line2d_37">
     <path d="M 722.807813 152.816437 
L 732.807813 152.816437 
L 742.807813 152.816437 
" style="fill: none; stroke: #e377c2; stroke-width: 1.5; stroke-linecap: round"/>
    </g>
    <g id="text_21">
     <!-- Y7 -->
     <g style="fill: #262626" transform="translate(750.807813 156.316437) scale(0.1 -0.1)">
      <use xlink:href="#ArialMT-59"/>
      <use xlink:href="#ArialMT-37" x="66.699219"/>
     </g>
    </g>
    <g id="line2d_38">
     <path d="M 722.807813 166.96175 
L 732.807813 166.96175 
L 742.807813 166.96175 
" style="fill: none; stroke: #7f7f7f; stroke-width: 1.5; stroke-linecap: round"/>
    </g>
    <g id="text_22">
     <!-- Y8 -->
     <g style="fill: #262626" transform="translate(750.807813 170.46175) scale(0.1 -0.1)">
      <use xlink:href="#ArialMT-59"/>
      <use xlink:href="#ArialMT-38" x="66.699219"/>
     </g>
    </g>
   </g>
  </g>
  <g id="axes_2">
   <g id="patch_7">
    <path d="M 108 384.48 
L 777.6 384.48 
L 777.6 251.424 
L 108 251.424 
z
" style="fill: #ffffff"/>
   </g>
   <g id="matplotlib.axis_3">
    <g id="xtick_7">
     <g id="line2d_39">
      <path d="M 138.436364 384.48 
L 138.436364 251.424 
" clip-path="url(#p9705e9a7d0)" style="fill: none; stroke: #cccccc; stroke-width: 0.8; stroke-linecap: round"/>
     </g>
     <g id="line2d_40"/>
     <g id="text_23">
      <!-- 0 -->
      <g style="fill: #262626" transform="translate(135.655895 395.137812) scale(0.1 -0.1)">
       <use xlink:href="#ArialMT-30"/>
      </g>
     </g>
    </g>
    <g id="xtick_8">
     <g id="line2d_41">
      <path d="M 262.666419 384.48 
L 262.666419 251.424 
" clip-path="url(#p9705e9a7d0)" style="fill: none; stroke: #cccccc; stroke-width: 0.8; stroke-linecap: round"/>
     </g>
     <g id="line2d_42"/>
     <g id="text_24">
      <!-- 10 -->
      <g style="fill: #262626" transform="translate(257.105482 395.137812) scale(0.1 -0.1)">
       <use xlink:href="#ArialMT-31"/>
       <use xlink:href="#ArialMT-30" x="55.615234"/>
      </g>
     </g>
    </g>
    <g id="xtick_9">
     <g id="line2d_43">
      <path d="M 386.896475 384.48 
L 386.896475 251.424 
" clip-path="url(#p9705e9a7d0)" style="fill: none; stroke: #cccccc; stroke-width: 0.8; stroke-linecap: round"/>
     </g>
     <g id="line2d_44"/>
     <g id="text_25">
      <!-- 20 -->
      <g style="fill: #262626" transform="translate(381.335537 395.137812) scale(0.1 -0.1)">
       <use xlink:href="#ArialMT-32"/>
       <use xlink:href="#ArialMT-30" x="55.615234"/>
      </g>
     </g>
    </g>
    <g id="xtick_10">
     <g id="line2d_45">
      <path d="M 511.126531 384.48 
L 511.126531 251.424 
" clip-path="url(#p9705e9a7d0)" style="fill: none; stroke: #cccccc; stroke-width: 0.8; stroke-linecap: round"/>
     </g>
     <g id="line2d_46"/>
     <g id="text_26">
      <!-- 30 -->
      <g style="fill: #262626" transform="translate(505.565593 395.137812) scale(0.1 -0.1)">
       <use xlink:href="#ArialMT-33"/>
       <use xlink:href="#ArialMT-30" x="55.615234"/>
      </g>
     </g>
    </g>
    <g id="xtick_11">
     <g id="line2d_47">
      <path d="M 635.356586 384.48 
L 635.356586 251.424 
" clip-path="url(#p9705e9a7d0)" style="fill: none; stroke: #cccccc; stroke-width: 0.8; stroke-linecap: round"/>
     </g>
     <g id="line2d_48"/>
     <g id="text_27">
      <!-- 40 -->
      <g style="fill: #262626" transform="translate(629.795649 395.137812) scale(0.1 -0.1)">
       <use xlink:href="#ArialMT-34"/>
       <use xlink:href="#ArialMT-30" x="55.615234"/>
      </g>
     </g>
    </g>
    <g id="xtick_12">
     <g id="line2d_49">
      <path d="M 759.586642 384.48 
L 759.586642 251.424 
" clip-path="url(#p9705e9a7d0)" style="fill: none; stroke: #cccccc; stroke-width: 0.8; stroke-linecap: round"/>
     </g>
     <g id="line2d_50"/>
     <g id="text_28">
      <!-- 50 -->
      <g style="fill: #262626" transform="translate(754.025704 395.137812) scale(0.1 -0.1)">
       <use xlink:href="#ArialMT-35"/>
       <use xlink:href="#ArialMT-30" x="55.615234"/>
      </g>
     </g>
    </g>
    <g id="text_29">
     <!-- Epochs -->
     <g style="fill: #262626" transform="translate(426.123438 408.283125) scale(0.1 -0.1)">
      <use xlink:href="#ArialMT-45"/>
      <use xlink:href="#ArialMT-70" x="66.699219"/>
      <use xlink:href="#ArialMT-6f" x="122.314453"/>
      <use xlink:href="#ArialMT-63" x="177.929688"/>
      <use xlink:href="#ArialMT-68" x="227.929688"/>
      <use xlink:href="#ArialMT-73" x="283.544922"/>
     </g>
    </g>
   </g>
   <g id="matplotlib.axis_4">
    <g id="ytick_6">
     <g id="line2d_51">
      <path d="M 108 368.826457 
L 777.6 368.826457 
" clip-path="url(#p9705e9a7d0)" style="fill: none; stroke: #cccccc; stroke-width: 0.8; stroke-linecap: round"/>
     </g>
     <g id="line2d_52"/>
     <g id="text_30">
      <!-- 0.5 -->
      <g style="fill: #262626" transform="translate(90.6 372.405364) scale(0.1 -0.1)">
       <use xlink:href="#ArialMT-30"/>
       <use xlink:href="#ArialMT-2e" x="55.615234"/>
       <use xlink:href="#ArialMT-35" x="83.398438"/>
      </g>
     </g>
    </g>
    <g id="ytick_7">
     <g id="line2d_53">
      <path d="M 108 343.282519 
L 777.6 343.282519 
" clip-path="url(#p9705e9a7d0)" style="fill: none; stroke: #cccccc; stroke-width: 0.8; stroke-linecap: round"/>
     </g>
     <g id="line2d_54"/>
     <g id="text_31">
      <!-- 0.6 -->
      <g style="fill: #262626" transform="translate(90.6 346.861425) scale(0.1 -0.1)">
       <use xlink:href="#ArialMT-30"/>
       <use xlink:href="#ArialMT-2e" x="55.615234"/>
       <use xlink:href="#ArialMT-36" x="83.398438"/>
      </g>
     </g>
    </g>
    <g id="ytick_8">
     <g id="line2d_55">
      <path d="M 108 317.73858 
L 777.6 317.73858 
" clip-path="url(#p9705e9a7d0)" style="fill: none; stroke: #cccccc; stroke-width: 0.8; stroke-linecap: round"/>
     </g>
     <g id="line2d_56"/>
     <g id="text_32">
      <!-- 0.7 -->
      <g style="fill: #262626" transform="translate(90.6 321.317487) scale(0.1 -0.1)">
       <use xlink:href="#ArialMT-30"/>
       <use xlink:href="#ArialMT-2e" x="55.615234"/>
       <use xlink:href="#ArialMT-37" x="83.398438"/>
      </g>
     </g>
    </g>
    <g id="ytick_9">
     <g id="line2d_57">
      <path d="M 108 292.194642 
L 777.6 292.194642 
" clip-path="url(#p9705e9a7d0)" style="fill: none; stroke: #cccccc; stroke-width: 0.8; stroke-linecap: round"/>
     </g>
     <g id="line2d_58"/>
     <g id="text_33">
      <!-- 0.8 -->
      <g style="fill: #262626" transform="translate(90.6 295.773548) scale(0.1 -0.1)">
       <use xlink:href="#ArialMT-30"/>
       <use xlink:href="#ArialMT-2e" x="55.615234"/>
       <use xlink:href="#ArialMT-38" x="83.398438"/>
      </g>
     </g>
    </g>
    <g id="ytick_10">
     <g id="line2d_59">
      <path d="M 108 266.650703 
L 777.6 266.650703 
" clip-path="url(#p9705e9a7d0)" style="fill: none; stroke: #cccccc; stroke-width: 0.8; stroke-linecap: round"/>
     </g>
     <g id="line2d_60"/>
     <g id="text_34">
      <!-- 0.9 -->
      <g style="fill: #262626" transform="translate(90.6 270.22961) scale(0.1 -0.1)">
       <use xlink:href="#ArialMT-30"/>
       <use xlink:href="#ArialMT-2e" x="55.615234"/>
       <use xlink:href="#ArialMT-39" x="83.398438"/>
      </g>
     </g>
    </g>
    <g id="text_35">
     <!-- Accuracy -->
     <g style="fill: #262626" transform="translate(84.495312 338.512938) rotate(-90) scale(0.1 -0.1)">
      <use xlink:href="#ArialMT-41"/>
      <use xlink:href="#ArialMT-63" x="66.699219"/>
      <use xlink:href="#ArialMT-63" x="116.699219"/>
      <use xlink:href="#ArialMT-75" x="166.699219"/>
      <use xlink:href="#ArialMT-72" x="222.314453"/>
      <use xlink:href="#ArialMT-61" x="255.615234"/>
      <use xlink:href="#ArialMT-63" x="311.230469"/>
      <use xlink:href="#ArialMT-79" x="361.230469"/>
     </g>
    </g>
   </g>
   <g id="line2d_61">
    <path d="M 138.436364 282.019725 
L 150.859369 260.673933 
L 163.282375 260.673933 
L 175.70538 260.673933 
L 188.128386 261.029504 
L 200.551391 259.962279 
L 212.974397 259.962279 
L 225.397403 259.962279 
L 237.820408 259.606452 
L 250.243414 259.606452 
L 262.666419 261.385331 
L 275.089425 260.673933 
L 287.51243 261.029504 
L 299.935436 261.385331 
L 312.358442 261.385331 
L 324.781447 260.318106 
L 337.204453 261.385331 
L 349.627458 260.673933 
L 362.050464 261.029504 
L 374.473469 261.385331 
L 386.896475 261.385331 
L 399.319481 259.606452 
L 411.742486 261.029504 
L 424.165492 260.673933 
L 436.588497 261.029504 
L 449.011503 260.673933 
L 461.434508 260.673933 
L 473.857514 260.318106 
L 486.280519 261.741158 
L 498.703525 259.606452 
L 511.126531 261.029504 
L 523.549536 262.096986 
L 535.972542 261.741158 
L 548.395547 261.029504 
L 560.818553 260.673933 
L 573.241558 261.385331 
L 585.664564 261.029504 
L 598.08757 261.385331 
L 610.510575 261.029504 
L 622.933581 260.673933 
L 635.356586 261.029504 
L 647.779592 261.029504 
L 660.202597 261.741158 
L 672.625603 262.096986 
L 685.048609 261.741158 
L 697.471614 261.029504 
L 709.89462 260.673933 
L 722.317625 261.385331 
L 734.740631 259.962279 
L 747.163636 260.318106 
" clip-path="url(#p9705e9a7d0)" style="fill: none; stroke: #1f77b4; stroke-width: 1.5; stroke-linecap: round"/>
   </g>
   <g id="line2d_62">
    <path d="M 138.436364 378.076428 
L 150.859369 378.076428 
L 163.282375 378.076428 
L 175.70538 378.076428 
L 188.128386 378.076428 
L 200.551391 378.076428 
L 212.974397 378.076428 
L 225.397403 378.076428 
L 237.820408 378.076428 
L 250.243414 378.076428 
L 262.666419 378.076428 
L 275.089425 378.076428 
L 287.51243 378.076428 
L 299.935436 378.076428 
L 312.358442 378.076428 
L 324.781447 378.076428 
L 337.204453 378.076428 
L 349.627458 378.076428 
L 362.050464 378.076428 
L 374.473469 378.076428 
L 386.896475 378.076428 
L 399.319481 378.076428 
L 411.742486 378.076428 
L 424.165492 378.076428 
L 436.588497 378.076428 
L 449.011503 378.076428 
L 461.434508 378.432 
L 473.857514 374.518669 
L 486.280519 378.076428 
L 498.703525 378.076428 
L 511.126531 373.095616 
L 523.549536 368.47063 
L 535.972542 363.490073 
L 548.395547 360.999539 
L 560.818553 360.999539 
L 573.241558 361.355366 
L 585.664564 361.711193 
L 598.08757 359.932313 
L 610.510575 359.576486 
L 622.933581 359.576486 
L 635.356586 359.576486 
L 647.779592 359.576486 
L 660.202597 365.268698 
L 672.625603 359.576486 
L 685.048609 359.576486 
L 697.471614 359.576486 
L 709.89462 359.576486 
L 722.317625 359.576486 
L 734.740631 359.576486 
L 747.163636 359.576486 
" clip-path="url(#p9705e9a7d0)" style="fill: none; stroke: #ff7f0e; stroke-width: 1.5; stroke-linecap: round"/>
   </g>
   <g id="line2d_63">
    <path d="M 138.436364 359.576486 
L 150.859369 259.606452 
L 163.282375 259.606452 
L 175.70538 259.25088 
L 188.128386 260.318106 
L 200.551391 260.318106 
L 212.974397 260.318106 
L 225.397403 260.318106 
L 237.820408 260.318106 
L 250.243414 260.673933 
L 262.666419 259.962279 
L 275.089425 259.962279 
L 287.51243 260.673933 
L 299.935436 259.962279 
L 312.358442 359.576486 
L 324.781447 359.576486 
L 337.204453 359.576486 
L 349.627458 359.576486 
L 362.050464 359.576486 
L 374.473469 359.576486 
L 386.896475 359.576486 
L 399.319481 359.576486 
L 411.742486 359.576486 
L 424.165492 359.576486 
L 436.588497 359.576486 
L 449.011503 359.576486 
L 461.434508 359.576486 
L 473.857514 359.576486 
L 486.280519 359.576486 
L 498.703525 359.576486 
L 511.126531 359.576486 
L 523.549536 359.576486 
L 535.972542 359.576486 
L 548.395547 359.576486 
L 560.818553 359.576486 
L 573.241558 359.576486 
L 585.664564 359.576486 
L 598.08757 359.576486 
L 610.510575 359.576486 
L 622.933581 359.576486 
L 635.356586 359.576486 
L 647.779592 359.576486 
L 660.202597 359.576486 
L 672.625603 359.576486 
L 685.048609 359.576486 
L 697.471614 359.576486 
L 709.89462 359.576486 
L 722.317625 359.576486 
L 734.740631 359.576486 
L 747.163636 359.576486 
" clip-path="url(#p9705e9a7d0)" style="fill: none; stroke: #2ca02c; stroke-width: 1.5; stroke-linecap: round"/>
   </g>
   <g id="line2d_64">
    <path d="M 138.436364 359.576486 
L 150.859369 359.576486 
L 163.282375 359.576486 
L 175.70538 359.576486 
L 188.128386 359.576486 
L 200.551391 359.576486 
L 212.974397 359.576486 
L 225.397403 359.576486 
L 237.820408 359.576486 
L 250.243414 359.576486 
L 262.666419 359.576486 
L 275.089425 359.576486 
L 287.51243 359.576486 
L 299.935436 359.576486 
L 312.358442 359.576486 
L 324.781447 359.576486 
L 337.204453 359.576486 
L 349.627458 359.576486 
L 362.050464 359.576486 
L 374.473469 359.576486 
L 386.896475 359.576486 
L 399.319481 359.576486 
L 411.742486 359.576486 
L 424.165492 359.576486 
L 436.588497 359.576486 
L 449.011503 359.576486 
L 461.434508 359.576486 
L 473.857514 359.576486 
L 486.280519 359.576486 
L 498.703525 359.576486 
L 511.126531 359.576486 
L 523.549536 359.576486 
L 535.972542 359.576486 
L 548.395547 359.576486 
L 560.818553 359.576486 
L 573.241558 359.576486 
L 585.664564 359.576486 
L 598.08757 359.576486 
L 610.510575 359.576486 
L 622.933581 359.576486 
L 635.356586 359.576486 
L 647.779592 359.576486 
L 660.202597 359.576486 
L 672.625603 359.576486 
L 685.048609 359.576486 
L 697.471614 359.576486 
L 709.89462 359.576486 
L 722.317625 359.576486 
L 734.740631 359.576486 
L 747.163636 359.576486 
" clip-path="url(#p9705e9a7d0)" style="fill: none; stroke: #d62728; stroke-width: 1.5; stroke-linecap: round"/>
   </g>
   <g id="line2d_65">
    <path d="M 138.436364 279.173619 
L 150.859369 269.568077 
L 163.282375 269.21225 
L 175.70538 270.279475 
L 188.128386 270.279475 
L 200.551391 270.635302 
L 212.974397 271.346701 
L 225.397403 272.058355 
L 237.820408 272.058355 
L 250.243414 272.058355 
L 262.666419 272.058355 
L 275.089425 271.702528 
L 287.51243 272.058355 
L 299.935436 272.058355 
L 312.358442 272.414182 
L 324.781447 272.058355 
L 337.204453 272.058355 
L 349.627458 271.702528 
L 362.050464 272.414182 
L 374.473469 272.769754 
L 386.896475 359.576486 
L 399.319481 272.414182 
L 411.742486 359.576486 
L 424.165492 359.576486 
L 436.588497 359.576486 
L 449.011503 359.576486 
L 461.434508 359.576486 
L 473.857514 359.576486 
L 486.280519 359.576486 
L 498.703525 359.576486 
L 511.126531 359.576486 
L 523.549536 359.576486 
L 535.972542 359.576486 
L 548.395547 359.576486 
L 560.818553 359.576486 
L 573.241558 359.576486 
L 585.664564 359.576486 
L 598.08757 359.576486 
L 610.510575 359.576486 
L 622.933581 359.576486 
L 635.356586 359.576486 
L 647.779592 359.576486 
L 660.202597 359.576486 
L 672.625603 359.576486 
L 685.048609 359.576486 
L 697.471614 359.576486 
L 709.89462 359.576486 
L 722.317625 359.576486 
L 734.740631 359.576486 
L 747.163636 359.576486 
" clip-path="url(#p9705e9a7d0)" style="fill: none; stroke: #9467bd; stroke-width: 1.5; stroke-linecap: round"/>
   </g>
   <g id="line2d_66">
    <path d="M 138.436364 378.076428 
L 150.859369 323.288512 
L 163.282375 323.644339 
L 175.70538 323.644339 
L 188.128386 324.000166 
L 200.551391 324.000166 
L 212.974397 323.644339 
L 225.397403 323.644339 
L 237.820408 324.355738 
L 250.243414 325.423219 
L 262.666419 343.922905 
L 275.089425 359.576486 
L 287.51243 359.576486 
L 299.935436 359.576486 
L 312.358442 359.576486 
L 324.781447 359.576486 
L 337.204453 359.576486 
L 349.627458 359.576486 
L 362.050464 359.576486 
L 374.473469 359.576486 
L 386.896475 359.576486 
L 399.319481 359.576486 
L 411.742486 359.576486 
L 424.165492 359.576486 
L 436.588497 359.576486 
L 449.011503 359.576486 
L 461.434508 359.576486 
L 473.857514 359.576486 
L 486.280519 359.576486 
L 498.703525 359.576486 
L 511.126531 359.576486 
L 523.549536 359.576486 
L 535.972542 359.576486 
L 548.395547 359.576486 
L 560.818553 359.576486 
L 573.241558 359.576486 
L 585.664564 359.576486 
L 598.08757 359.576486 
L 610.510575 359.576486 
L 622.933581 359.576486 
L 635.356586 359.576486 
L 647.779592 359.576486 
L 660.202597 359.576486 
L 672.625603 359.576486 
L 685.048609 359.576486 
L 697.471614 359.576486 
L 709.89462 359.576486 
L 722.317625 359.576486 
L 734.740631 359.576486 
L 747.163636 359.576486 
" clip-path="url(#p9705e9a7d0)" style="fill: none; stroke: #8c564b; stroke-width: 1.5; stroke-linecap: round"/>
   </g>
   <g id="line2d_67">
    <path d="M 138.436364 314.038541 
L 150.859369 359.576486 
L 163.282375 359.576486 
L 175.70538 359.576486 
L 188.128386 359.576486 
L 200.551391 359.576486 
L 212.974397 359.220915 
L 225.397403 359.220915 
L 237.820408 359.576486 
L 250.243414 359.220915 
L 262.666419 359.576486 
L 275.089425 359.576486 
L 287.51243 359.220915 
L 299.935436 358.865088 
L 312.358442 359.220915 
L 324.781447 359.576486 
L 337.204453 358.865088 
L 349.627458 359.576486 
L 362.050464 359.220915 
L 374.473469 359.576486 
L 386.896475 359.576486 
L 399.319481 359.576486 
L 411.742486 359.576486 
L 424.165492 359.576486 
L 436.588497 358.865088 
L 449.011503 359.220915 
L 461.434508 359.220915 
L 473.857514 359.220915 
L 486.280519 359.576486 
L 498.703525 359.576486 
L 511.126531 359.576486 
L 523.549536 359.576486 
L 535.972542 359.576486 
L 548.395547 359.576486 
L 560.818553 359.576486 
L 573.241558 359.220915 
L 585.664564 359.576486 
L 598.08757 359.576486 
L 610.510575 359.576486 
L 622.933581 359.576486 
L 635.356586 359.576486 
L 647.779592 359.576486 
L 660.202597 359.576486 
L 672.625603 359.576486 
L 685.048609 359.576486 
L 697.471614 359.576486 
L 709.89462 359.576486 
L 722.317625 359.220915 
L 734.740631 359.576486 
L 747.163636 359.576486 
" clip-path="url(#p9705e9a7d0)" style="fill: none; stroke: #e377c2; stroke-width: 1.5; stroke-linecap: round"/>
   </g>
   <g id="line2d_68">
    <path d="M 138.436364 266.366144 
L 150.859369 260.318106 
L 163.282375 259.962279 
L 175.70538 260.318106 
L 188.128386 260.318106 
L 200.551391 260.318106 
L 212.974397 260.673933 
L 225.397403 259.25088 
L 237.820408 259.606452 
L 250.243414 260.673933 
L 262.666419 259.25088 
L 275.089425 259.25088 
L 287.51243 258.539226 
L 299.935436 258.895053 
L 312.358442 259.606452 
L 324.781447 259.962279 
L 337.204453 259.606452 
L 349.627458 259.25088 
L 362.050464 259.25088 
L 374.473469 259.606452 
L 386.896475 258.895053 
L 399.319481 259.25088 
L 411.742486 258.183399 
L 424.165492 258.183399 
L 436.588497 258.895053 
L 449.011503 258.539226 
L 461.434508 258.539226 
L 473.857514 259.25088 
L 486.280519 259.25088 
L 498.703525 258.895053 
L 511.126531 258.895053 
L 523.549536 258.895053 
L 535.972542 259.25088 
L 548.395547 258.895053 
L 560.818553 259.25088 
L 573.241558 258.895053 
L 585.664564 258.539226 
L 598.08757 258.539226 
L 610.510575 258.895053 
L 622.933581 259.25088 
L 635.356586 258.895053 
L 647.779592 258.183399 
L 660.202597 259.25088 
L 672.625603 258.539226 
L 685.048609 258.895053 
L 697.471614 259.25088 
L 709.89462 258.183399 
L 722.317625 258.183399 
L 734.740631 257.472 
L 747.163636 257.827827 
" clip-path="url(#p9705e9a7d0)" style="fill: none; stroke: #7f7f7f; stroke-width: 1.5; stroke-linecap: round"/>
   </g>
   <g id="patch_8">
    <path d="M 108 384.48 
L 108 251.424 
" style="fill: none; stroke: #cccccc; stroke-linejoin: miter; stroke-linecap: square"/>
   </g>
   <g id="patch_9">
    <path d="M 777.6 384.48 
L 777.6 251.424 
" style="fill: none; stroke: #cccccc; stroke-linejoin: miter; stroke-linecap: square"/>
   </g>
   <g id="patch_10">
    <path d="M 108 384.48 
L 777.6 384.48 
" style="fill: none; stroke: #cccccc; stroke-linejoin: miter; stroke-linecap: square"/>
   </g>
   <g id="patch_11">
    <path d="M 108 251.424 
L 777.6 251.424 
" style="fill: none; stroke: #cccccc; stroke-linejoin: miter; stroke-linecap: square"/>
   </g>
   <g id="text_36">
    <!-- Test -->
    <g style="fill: #262626" transform="translate(431.799375 245.424) scale(0.12 -0.12)">
     <defs>
      <path id="ArialMT-65" d="M 2694 1069 
L 3275 997 
Q 3138 488 2766 206 
Q 2394 -75 1816 -75 
Q 1088 -75 661 373 
Q 234 822 234 1631 
Q 234 2469 665 2931 
Q 1097 3394 1784 3394 
Q 2450 3394 2872 2941 
Q 3294 2488 3294 1666 
Q 3294 1616 3291 1516 
L 816 1516 
Q 847 969 1125 678 
Q 1403 388 1819 388 
Q 2128 388 2347 550 
Q 2566 713 2694 1069 
z
M 847 1978 
L 2700 1978 
Q 2663 2397 2488 2606 
Q 2219 2931 1791 2931 
Q 1403 2931 1139 2672 
Q 875 2413 847 1978 
z
" transform="scale(0.015625)"/>
      <path id="ArialMT-74" d="M 1650 503 
L 1731 6 
Q 1494 -44 1306 -44 
Q 1000 -44 831 53 
Q 663 150 594 308 
Q 525 466 525 972 
L 525 2881 
L 113 2881 
L 113 3319 
L 525 3319 
L 525 4141 
L 1084 4478 
L 1084 3319 
L 1650 3319 
L 1650 2881 
L 1084 2881 
L 1084 941 
Q 1084 700 1114 631 
Q 1144 563 1211 522 
Q 1278 481 1403 481 
Q 1497 481 1650 503 
z
" transform="scale(0.015625)"/>
     </defs>
     <use xlink:href="#ArialMT-54"/>
     <use xlink:href="#ArialMT-65" x="49.958984"/>
     <use xlink:href="#ArialMT-73" x="105.574219"/>
     <use xlink:href="#ArialMT-74" x="155.574219"/>
    </g>
   </g>
   <g id="legend_2">
    <g id="line2d_69">
     <path d="M 722.807813 270.975312 
L 732.807813 270.975312 
L 742.807813 270.975312 
" style="fill: none; stroke: #1f77b4; stroke-width: 1.5; stroke-linecap: round"/>
    </g>
    <g id="text_37">
     <!-- Y10 -->
     <g style="fill: #262626" transform="translate(750.807813 274.475312) scale(0.1 -0.1)">
      <use xlink:href="#ArialMT-59"/>
      <use xlink:href="#ArialMT-31" x="66.699219"/>
      <use xlink:href="#ArialMT-30" x="122.314453"/>
     </g>
    </g>
    <g id="line2d_70">
     <path d="M 722.807813 285.120625 
L 732.807813 285.120625 
L 742.807813 285.120625 
" style="fill: none; stroke: #ff7f0e; stroke-width: 1.5; stroke-linecap: round"/>
    </g>
    <g id="text_38">
     <!-- Y2 -->
     <g style="fill: #262626" transform="translate(750.807813 288.620625) scale(0.1 -0.1)">
      <use xlink:href="#ArialMT-59"/>
      <use xlink:href="#ArialMT-32" x="66.699219"/>
     </g>
    </g>
    <g id="line2d_71">
     <path d="M 722.807813 299.265938 
L 732.807813 299.265938 
L 742.807813 299.265938 
" style="fill: none; stroke: #2ca02c; stroke-width: 1.5; stroke-linecap: round"/>
    </g>
    <g id="text_39">
     <!-- Y3 -->
     <g style="fill: #262626" transform="translate(750.807813 302.765938) scale(0.1 -0.1)">
      <use xlink:href="#ArialMT-59"/>
      <use xlink:href="#ArialMT-33" x="66.699219"/>
     </g>
    </g>
    <g id="line2d_72">
     <path d="M 722.807813 313.41125 
L 732.807813 313.41125 
L 742.807813 313.41125 
" style="fill: none; stroke: #d62728; stroke-width: 1.5; stroke-linecap: round"/>
    </g>
    <g id="text_40">
     <!-- Y4 -->
     <g style="fill: #262626" transform="translate(750.807813 316.91125) scale(0.1 -0.1)">
      <use xlink:href="#ArialMT-59"/>
      <use xlink:href="#ArialMT-34" x="66.699219"/>
     </g>
    </g>
    <g id="line2d_73">
     <path d="M 722.807813 327.556562 
L 732.807813 327.556562 
L 742.807813 327.556562 
" style="fill: none; stroke: #9467bd; stroke-width: 1.5; stroke-linecap: round"/>
    </g>
    <g id="text_41">
     <!-- Y5 -->
     <g style="fill: #262626" transform="translate(750.807813 331.056562) scale(0.1 -0.1)">
      <use xlink:href="#ArialMT-59"/>
      <use xlink:href="#ArialMT-35" x="66.699219"/>
     </g>
    </g>
    <g id="line2d_74">
     <path d="M 722.807813 341.701875 
L 732.807813 341.701875 
L 742.807813 341.701875 
" style="fill: none; stroke: #8c564b; stroke-width: 1.5; stroke-linecap: round"/>
    </g>
    <g id="text_42">
     <!-- Y6 -->
     <g style="fill: #262626" transform="translate(750.807813 345.201875) scale(0.1 -0.1)">
      <use xlink:href="#ArialMT-59"/>
      <use xlink:href="#ArialMT-36" x="66.699219"/>
     </g>
    </g>
    <g id="line2d_75">
     <path d="M 722.807813 355.847188 
L 732.807813 355.847188 
L 742.807813 355.847188 
" style="fill: none; stroke: #e377c2; stroke-width: 1.5; stroke-linecap: round"/>
    </g>
    <g id="text_43">
     <!-- Y7 -->
     <g style="fill: #262626" transform="translate(750.807813 359.347188) scale(0.1 -0.1)">
      <use xlink:href="#ArialMT-59"/>
      <use xlink:href="#ArialMT-37" x="66.699219"/>
     </g>
    </g>
    <g id="line2d_76">
     <path d="M 722.807813 369.9925 
L 732.807813 369.9925 
L 742.807813 369.9925 
" style="fill: none; stroke: #7f7f7f; stroke-width: 1.5; stroke-linecap: round"/>
    </g>
    <g id="text_44">
     <!-- Y8 -->
     <g style="fill: #262626" transform="translate(750.807813 373.4925) scale(0.1 -0.1)">
      <use xlink:href="#ArialMT-59"/>
      <use xlink:href="#ArialMT-38" x="66.699219"/>
     </g>
    </g>
   </g>
  </g>
  <g id="text_45">
   <!-- Architecture -->
   <g style="fill: #262626" transform="translate(396.658125 17.229375) scale(0.12 -0.12)">
    <defs>
     <path id="Arial-BoldMT-41" d="M 4597 0 
L 3591 0 
L 3191 1041 
L 1359 1041 
L 981 0 
L 0 0 
L 1784 4581 
L 2763 4581 
L 4597 0 
z
M 2894 1813 
L 2263 3513 
L 1644 1813 
L 2894 1813 
z
" transform="scale(0.015625)"/>
     <path id="Arial-BoldMT-72" d="M 1300 0 
L 422 0 
L 422 3319 
L 1238 3319 
L 1238 2847 
Q 1447 3181 1614 3287 
Q 1781 3394 1994 3394 
Q 2294 3394 2572 3228 
L 2300 2463 
Q 2078 2606 1888 2606 
Q 1703 2606 1575 2504 
Q 1447 2403 1373 2137 
Q 1300 1872 1300 1025 
L 1300 0 
z
" transform="scale(0.015625)"/>
     <path id="Arial-BoldMT-63" d="M 3353 2338 
L 2488 2181 
Q 2444 2441 2289 2572 
Q 2134 2703 1888 2703 
Q 1559 2703 1364 2476 
Q 1169 2250 1169 1719 
Q 1169 1128 1367 884 
Q 1566 641 1900 641 
Q 2150 641 2309 783 
Q 2469 925 2534 1272 
L 3397 1125 
Q 3263 531 2881 228 
Q 2500 -75 1859 -75 
Q 1131 -75 698 384 
Q 266 844 266 1656 
Q 266 2478 700 2936 
Q 1134 3394 1875 3394 
Q 2481 3394 2839 3133 
Q 3197 2872 3353 2338 
z
" transform="scale(0.015625)"/>
     <path id="Arial-BoldMT-68" d="M 1334 4581 
L 1334 2897 
Q 1759 3394 2350 3394 
Q 2653 3394 2897 3281 
Q 3141 3169 3264 2994 
Q 3388 2819 3433 2606 
Q 3478 2394 3478 1947 
L 3478 0 
L 2600 0 
L 2600 1753 
Q 2600 2275 2550 2415 
Q 2500 2556 2373 2639 
Q 2247 2722 2056 2722 
Q 1838 2722 1666 2615 
Q 1494 2509 1414 2295 
Q 1334 2081 1334 1663 
L 1334 0 
L 456 0 
L 456 4581 
L 1334 4581 
z
" transform="scale(0.015625)"/>
     <path id="Arial-BoldMT-69" d="M 459 3769 
L 459 4581 
L 1338 4581 
L 1338 3769 
L 459 3769 
z
M 459 0 
L 459 3319 
L 1338 3319 
L 1338 0 
L 459 0 
z
" transform="scale(0.015625)"/>
     <path id="Arial-BoldMT-74" d="M 1981 3319 
L 1981 2619 
L 1381 2619 
L 1381 1281 
Q 1381 875 1398 808 
Q 1416 741 1477 697 
Q 1538 653 1625 653 
Q 1747 653 1978 738 
L 2053 56 
Q 1747 -75 1359 -75 
Q 1122 -75 931 4 
Q 741 84 652 211 
Q 563 338 528 553 
Q 500 706 500 1172 
L 500 2619 
L 97 2619 
L 97 3319 
L 500 3319 
L 500 3978 
L 1381 4491 
L 1381 3319 
L 1981 3319 
z
" transform="scale(0.015625)"/>
     <path id="Arial-BoldMT-65" d="M 2381 1056 
L 3256 909 
Q 3088 428 2723 176 
Q 2359 -75 1813 -75 
Q 947 -75 531 491 
Q 203 944 203 1634 
Q 203 2459 634 2926 
Q 1066 3394 1725 3394 
Q 2466 3394 2894 2905 
Q 3322 2416 3303 1406 
L 1103 1406 
Q 1113 1016 1316 798 
Q 1519 581 1822 581 
Q 2028 581 2168 693 
Q 2309 806 2381 1056 
z
M 2431 1944 
Q 2422 2325 2234 2523 
Q 2047 2722 1778 2722 
Q 1491 2722 1303 2513 
Q 1116 2303 1119 1944 
L 2431 1944 
z
" transform="scale(0.015625)"/>
     <path id="Arial-BoldMT-75" d="M 2644 0 
L 2644 497 
Q 2463 231 2167 78 
Q 1872 -75 1544 -75 
Q 1209 -75 943 72 
Q 678 219 559 484 
Q 441 750 441 1219 
L 441 3319 
L 1319 3319 
L 1319 1794 
Q 1319 1094 1367 936 
Q 1416 778 1544 686 
Q 1672 594 1869 594 
Q 2094 594 2272 717 
Q 2450 841 2515 1023 
Q 2581 1206 2581 1919 
L 2581 3319 
L 3459 3319 
L 3459 0 
L 2644 0 
z
" transform="scale(0.015625)"/>
    </defs>
    <use xlink:href="#Arial-BoldMT-41"/>
    <use xlink:href="#Arial-BoldMT-72" x="72.216797"/>
    <use xlink:href="#Arial-BoldMT-63" x="111.132812"/>
    <use xlink:href="#Arial-BoldMT-68" x="166.748047"/>
    <use xlink:href="#Arial-BoldMT-69" x="227.832031"/>
    <use xlink:href="#Arial-BoldMT-74" x="255.615234"/>
    <use xlink:href="#Arial-BoldMT-65" x="288.916016"/>
    <use xlink:href="#Arial-BoldMT-63" x="344.53125"/>
    <use xlink:href="#Arial-BoldMT-74" x="400.146484"/>
    <use xlink:href="#Arial-BoldMT-75" x="433.447266"/>
    <use xlink:href="#Arial-BoldMT-72" x="494.53125"/>
    <use xlink:href="#Arial-BoldMT-65" x="533.447266"/>
   </g>
   <!-- 256_128 -->
   <g style="fill: #262626" transform="translate(408.644063 29.9475) scale(0.12 -0.12)">
    <defs>
     <path id="Arial-BoldMT-32" d="M 3238 816 
L 3238 0 
L 159 0 
Q 209 463 459 877 
Q 709 1291 1447 1975 
Q 2041 2528 2175 2725 
Q 2356 2997 2356 3263 
Q 2356 3556 2198 3714 
Q 2041 3872 1763 3872 
Q 1488 3872 1325 3706 
Q 1163 3541 1138 3156 
L 263 3244 
Q 341 3969 753 4284 
Q 1166 4600 1784 4600 
Q 2463 4600 2850 4234 
Q 3238 3869 3238 3325 
Q 3238 3016 3127 2736 
Q 3016 2456 2775 2150 
Q 2616 1947 2200 1565 
Q 1784 1184 1673 1059 
Q 1563 934 1494 816 
L 3238 816 
z
" transform="scale(0.015625)"/>
     <path id="Arial-BoldMT-35" d="M 284 1178 
L 1159 1269 
Q 1197 972 1381 798 
Q 1566 625 1806 625 
Q 2081 625 2272 848 
Q 2463 1072 2463 1522 
Q 2463 1944 2273 2155 
Q 2084 2366 1781 2366 
Q 1403 2366 1103 2031 
L 391 2134 
L 841 4519 
L 3163 4519 
L 3163 3697 
L 1506 3697 
L 1369 2919 
Q 1663 3066 1969 3066 
Q 2553 3066 2959 2641 
Q 3366 2216 3366 1538 
Q 3366 972 3038 528 
Q 2591 -78 1797 -78 
Q 1163 -78 763 262 
Q 363 603 284 1178 
z
" transform="scale(0.015625)"/>
     <path id="Arial-BoldMT-36" d="M 3247 3459 
L 2397 3366 
Q 2366 3628 2234 3753 
Q 2103 3878 1894 3878 
Q 1616 3878 1423 3628 
Q 1231 3378 1181 2588 
Q 1509 2975 1997 2975 
Q 2547 2975 2939 2556 
Q 3331 2138 3331 1475 
Q 3331 772 2918 347 
Q 2506 -78 1859 -78 
Q 1166 -78 719 461 
Q 272 1000 272 2228 
Q 272 3488 737 4044 
Q 1203 4600 1947 4600 
Q 2469 4600 2811 4308 
Q 3153 4016 3247 3459 
z
M 1256 1544 
Q 1256 1116 1453 883 
Q 1650 650 1903 650 
Q 2147 650 2309 840 
Q 2472 1031 2472 1466 
Q 2472 1913 2297 2120 
Q 2122 2328 1859 2328 
Q 1606 2328 1431 2129 
Q 1256 1931 1256 1544 
z
" transform="scale(0.015625)"/>
     <path id="Arial-BoldMT-5f" d="M -59 -1266 
L -59 -697 
L 3591 -697 
L 3591 -1266 
L -59 -1266 
z
" transform="scale(0.015625)"/>
     <path id="Arial-BoldMT-31" d="M 2519 0 
L 1641 0 
L 1641 3309 
Q 1159 2859 506 2644 
L 506 3441 
Q 850 3553 1253 3867 
Q 1656 4181 1806 4600 
L 2519 4600 
L 2519 0 
z
" transform="scale(0.015625)"/>
     <path id="Arial-BoldMT-38" d="M 1025 2472 
Q 684 2616 529 2867 
Q 375 3119 375 3419 
Q 375 3931 733 4265 
Q 1091 4600 1750 4600 
Q 2403 4600 2764 4265 
Q 3125 3931 3125 3419 
Q 3125 3100 2959 2851 
Q 2794 2603 2494 2472 
Q 2875 2319 3073 2025 
Q 3272 1731 3272 1347 
Q 3272 713 2867 316 
Q 2463 -81 1791 -81 
Q 1166 -81 750 247 
Q 259 634 259 1309 
Q 259 1681 443 1992 
Q 628 2303 1025 2472 
z
M 1206 3356 
Q 1206 3094 1354 2947 
Q 1503 2800 1750 2800 
Q 2000 2800 2150 2948 
Q 2300 3097 2300 3359 
Q 2300 3606 2151 3754 
Q 2003 3903 1759 3903 
Q 1506 3903 1356 3753 
Q 1206 3603 1206 3356 
z
M 1125 1394 
Q 1125 1031 1311 828 
Q 1497 625 1775 625 
Q 2047 625 2225 820 
Q 2403 1016 2403 1384 
Q 2403 1706 2222 1901 
Q 2041 2097 1763 2097 
Q 1441 2097 1283 1875 
Q 1125 1653 1125 1394 
z
" transform="scale(0.015625)"/>
    </defs>
    <use xlink:href="#Arial-BoldMT-32"/>
    <use xlink:href="#Arial-BoldMT-35" x="55.615234"/>
    <use xlink:href="#Arial-BoldMT-36" x="111.230469"/>
    <use xlink:href="#Arial-BoldMT-5f" x="166.845703"/>
    <use xlink:href="#Arial-BoldMT-31" x="222.460938"/>
    <use xlink:href="#Arial-BoldMT-32" x="278.076172"/>
    <use xlink:href="#Arial-BoldMT-38" x="333.691406"/>
   </g>
  </g>
 </g>
 <defs>
  <clipPath id="pe41d3c36b8">
   <rect x="108" y="51.84" width="669.6" height="133.056"/>
  </clipPath>
  <clipPath id="p9705e9a7d0">
   <rect x="108" y="251.424" width="669.6" height="133.056"/>
  </clipPath>
 </defs>
</svg>
