<?xml version="1.0" encoding="utf-8" standalone="no"?>
<!DOCTYPE svg PUBLIC "-//W3C//DTD SVG 1.1//EN"
  "http://www.w3.org/Graphics/SVG/1.1/DTD/svg11.dtd">
<svg xmlns:xlink="http://www.w3.org/1999/xlink" width="720pt" height="432pt" viewBox="0 0 720 432" xmlns="http://www.w3.org/2000/svg" version="1.1">
 <metadata>
  <rdf:RDF xmlns:dc="http://purl.org/dc/elements/1.1/" xmlns:cc="http://creativecommons.org/ns#" xmlns:rdf="http://www.w3.org/1999/02/22-rdf-syntax-ns#">
   <cc:Work>
    <dc:type rdf:resource="http://purl.org/dc/dcmitype/StillImage"/>
    <dc:date>2024-05-23T09:32:25.633833</dc:date>
    <dc:format>image/svg+xml</dc:format>
    <dc:creator>
     <cc:Agent>
      <dc:title>Matplotlib v3.5.1, https://matplotlib.org/</dc:title>
     </cc:Agent>
    </dc:creator>
   </cc:Work>
  </rdf:RDF>
 </metadata>
 <defs>
  <style type="text/css">*{stroke-linejoin: round; stroke-linecap: butt}</style>
 </defs>
 <g id="figure_1">
  <g id="patch_1">
   <path d="M 0 432 
L 720 432 
L 720 0 
L 0 0 
L 0 432 
z
" style="fill: none"/>
  </g>
  <g id="axes_1">
   <g id="patch_2">
    <path d="M 90 384.48 
L 648 384.48 
L 648 51.84 
L 90 51.84 
L 90 384.48 
z
" style="fill: none"/>
   </g>
   <g id="PolyCollection_1">
    <defs>
     <path id="m0615447b47" d="M 284.736834 -365.04 
L 284.736834 -62.64 
L 454.110032 -62.64 
L 454.110032 -365.04 
L 454.110032 -365.04 
L 284.736834 -365.04 
z
" style="stroke: #1f77b4; stroke-opacity: 0.2"/>
    </defs>
    <g clip-path="url(#p96cd3b92e5)">
     <use xlink:href="#m0615447b47" x="0" y="432" style="fill: #1f77b4; fill-opacity: 0.2; stroke: #1f77b4; stroke-opacity: 0.2"/>
    </g>
   </g>
   <g id="matplotlib.axis_1">
    <g id="xtick_1">
     <g id="line2d_1">
      <defs>
       <path id="m1d84b37eab" d="M 0 0 
L 0 3.5 
" style="stroke: #000000; stroke-width: 0.8"/>
      </defs>
      <g>
       <use xlink:href="#m1d84b37eab" x="115.363636" y="384.48" style="stroke: #000000; stroke-width: 0.8"/>
      </g>
     </g>
     <g id="text_1">
      <!-- 13.70 -->
      <g transform="translate(101.049574 399.078438)scale(0.1 -0.1)">
       <defs>
        <path id="DejaVuSans-31" d="M 794 531 
L 1825 531 
L 1825 4091 
L 703 3866 
L 703 4441 
L 1819 4666 
L 2450 4666 
L 2450 531 
L 3481 531 
L 3481 0 
L 794 0 
L 794 531 
z
" transform="scale(0.015625)"/>
        <path id="DejaVuSans-33" d="M 2597 2516 
Q 3050 2419 3304 2112 
Q 3559 1806 3559 1356 
Q 3559 666 3084 287 
Q 2609 -91 1734 -91 
Q 1441 -91 1130 -33 
Q 819 25 488 141 
L 488 750 
Q 750 597 1062 519 
Q 1375 441 1716 441 
Q 2309 441 2620 675 
Q 2931 909 2931 1356 
Q 2931 1769 2642 2001 
Q 2353 2234 1838 2234 
L 1294 2234 
L 1294 2753 
L 1863 2753 
Q 2328 2753 2575 2939 
Q 2822 3125 2822 3475 
Q 2822 3834 2567 4026 
Q 2313 4219 1838 4219 
Q 1578 4219 1281 4162 
Q 984 4106 628 3988 
L 628 4550 
Q 988 4650 1302 4700 
Q 1616 4750 1894 4750 
Q 2613 4750 3031 4423 
Q 3450 4097 3450 3541 
Q 3450 3153 3228 2886 
Q 3006 2619 2597 2516 
z
" transform="scale(0.015625)"/>
        <path id="DejaVuSans-2e" d="M 684 794 
L 1344 794 
L 1344 0 
L 684 0 
L 684 794 
z
" transform="scale(0.015625)"/>
        <path id="DejaVuSans-37" d="M 525 4666 
L 3525 4666 
L 3525 4397 
L 1831 0 
L 1172 0 
L 2766 4134 
L 525 4134 
L 525 4666 
z
" transform="scale(0.015625)"/>
        <path id="DejaVuSans-30" d="M 2034 4250 
Q 1547 4250 1301 3770 
Q 1056 3291 1056 2328 
Q 1056 1369 1301 889 
Q 1547 409 2034 409 
Q 2525 409 2770 889 
Q 3016 1369 3016 2328 
Q 3016 3291 2770 3770 
Q 2525 4250 2034 4250 
z
M 2034 4750 
Q 2819 4750 3233 4129 
Q 3647 3509 3647 2328 
Q 3647 1150 3233 529 
Q 2819 -91 2034 -91 
Q 1250 -91 836 529 
Q 422 1150 422 2328 
Q 422 3509 836 4129 
Q 1250 4750 2034 4750 
z
" transform="scale(0.015625)"/>
       </defs>
       <use xlink:href="#DejaVuSans-31"/>
       <use xlink:href="#DejaVuSans-33" x="63.623047"/>
       <use xlink:href="#DejaVuSans-2e" x="127.246094"/>
       <use xlink:href="#DejaVuSans-37" x="159.033203"/>
       <use xlink:href="#DejaVuSans-30" x="222.65625"/>
      </g>
     </g>
    </g>
    <g id="xtick_2">
     <g id="line2d_2">
      <g>
       <use xlink:href="#m1d84b37eab" x="183" y="384.48" style="stroke: #000000; stroke-width: 0.8"/>
      </g>
     </g>
     <g id="text_2">
      <!-- 13.72 -->
      <g transform="translate(168.685937 399.078438)scale(0.1 -0.1)">
       <defs>
        <path id="DejaVuSans-32" d="M 1228 531 
L 3431 531 
L 3431 0 
L 469 0 
L 469 531 
Q 828 903 1448 1529 
Q 2069 2156 2228 2338 
Q 2531 2678 2651 2914 
Q 2772 3150 2772 3378 
Q 2772 3750 2511 3984 
Q 2250 4219 1831 4219 
Q 1534 4219 1204 4116 
Q 875 4013 500 3803 
L 500 4441 
Q 881 4594 1212 4672 
Q 1544 4750 1819 4750 
Q 2544 4750 2975 4387 
Q 3406 4025 3406 3419 
Q 3406 3131 3298 2873 
Q 3191 2616 2906 2266 
Q 2828 2175 2409 1742 
Q 1991 1309 1228 531 
z
" transform="scale(0.015625)"/>
       </defs>
       <use xlink:href="#DejaVuSans-31"/>
       <use xlink:href="#DejaVuSans-33" x="63.623047"/>
       <use xlink:href="#DejaVuSans-2e" x="127.246094"/>
       <use xlink:href="#DejaVuSans-37" x="159.033203"/>
       <use xlink:href="#DejaVuSans-32" x="222.65625"/>
      </g>
     </g>
    </g>
    <g id="xtick_3">
     <g id="line2d_3">
      <g>
       <use xlink:href="#m1d84b37eab" x="250.636364" y="384.48" style="stroke: #000000; stroke-width: 0.8"/>
      </g>
     </g>
     <g id="text_3">
      <!-- 13.74 -->
      <g transform="translate(236.322301 399.078438)scale(0.1 -0.1)">
       <defs>
        <path id="DejaVuSans-34" d="M 2419 4116 
L 825 1625 
L 2419 1625 
L 2419 4116 
z
M 2253 4666 
L 3047 4666 
L 3047 1625 
L 3713 1625 
L 3713 1100 
L 3047 1100 
L 3047 0 
L 2419 0 
L 2419 1100 
L 313 1100 
L 313 1709 
L 2253 4666 
z
" transform="scale(0.015625)"/>
       </defs>
       <use xlink:href="#DejaVuSans-31"/>
       <use xlink:href="#DejaVuSans-33" x="63.623047"/>
       <use xlink:href="#DejaVuSans-2e" x="127.246094"/>
       <use xlink:href="#DejaVuSans-37" x="159.033203"/>
       <use xlink:href="#DejaVuSans-34" x="222.65625"/>
      </g>
     </g>
    </g>
    <g id="xtick_4">
     <g id="line2d_4">
      <g>
       <use xlink:href="#m1d84b37eab" x="318.272727" y="384.48" style="stroke: #000000; stroke-width: 0.8"/>
      </g>
     </g>
     <g id="text_4">
      <!-- 13.76 -->
      <g transform="translate(303.958665 399.078438)scale(0.1 -0.1)">
       <defs>
        <path id="DejaVuSans-36" d="M 2113 2584 
Q 1688 2584 1439 2293 
Q 1191 2003 1191 1497 
Q 1191 994 1439 701 
Q 1688 409 2113 409 
Q 2538 409 2786 701 
Q 3034 994 3034 1497 
Q 3034 2003 2786 2293 
Q 2538 2584 2113 2584 
z
M 3366 4563 
L 3366 3988 
Q 3128 4100 2886 4159 
Q 2644 4219 2406 4219 
Q 1781 4219 1451 3797 
Q 1122 3375 1075 2522 
Q 1259 2794 1537 2939 
Q 1816 3084 2150 3084 
Q 2853 3084 3261 2657 
Q 3669 2231 3669 1497 
Q 3669 778 3244 343 
Q 2819 -91 2113 -91 
Q 1303 -91 875 529 
Q 447 1150 447 2328 
Q 447 3434 972 4092 
Q 1497 4750 2381 4750 
Q 2619 4750 2861 4703 
Q 3103 4656 3366 4563 
z
" transform="scale(0.015625)"/>
       </defs>
       <use xlink:href="#DejaVuSans-31"/>
       <use xlink:href="#DejaVuSans-33" x="63.623047"/>
       <use xlink:href="#DejaVuSans-2e" x="127.246094"/>
       <use xlink:href="#DejaVuSans-37" x="159.033203"/>
       <use xlink:href="#DejaVuSans-36" x="222.65625"/>
      </g>
     </g>
    </g>
    <g id="xtick_5">
     <g id="line2d_5">
      <g>
       <use xlink:href="#m1d84b37eab" x="385.909091" y="384.48" style="stroke: #000000; stroke-width: 0.8"/>
      </g>
     </g>
     <g id="text_5">
      <!-- 13.78 -->
      <g transform="translate(371.595028 399.078438)scale(0.1 -0.1)">
       <defs>
        <path id="DejaVuSans-38" d="M 2034 2216 
Q 1584 2216 1326 1975 
Q 1069 1734 1069 1313 
Q 1069 891 1326 650 
Q 1584 409 2034 409 
Q 2484 409 2743 651 
Q 3003 894 3003 1313 
Q 3003 1734 2745 1975 
Q 2488 2216 2034 2216 
z
M 1403 2484 
Q 997 2584 770 2862 
Q 544 3141 544 3541 
Q 544 4100 942 4425 
Q 1341 4750 2034 4750 
Q 2731 4750 3128 4425 
Q 3525 4100 3525 3541 
Q 3525 3141 3298 2862 
Q 3072 2584 2669 2484 
Q 3125 2378 3379 2068 
Q 3634 1759 3634 1313 
Q 3634 634 3220 271 
Q 2806 -91 2034 -91 
Q 1263 -91 848 271 
Q 434 634 434 1313 
Q 434 1759 690 2068 
Q 947 2378 1403 2484 
z
M 1172 3481 
Q 1172 3119 1398 2916 
Q 1625 2713 2034 2713 
Q 2441 2713 2670 2916 
Q 2900 3119 2900 3481 
Q 2900 3844 2670 4047 
Q 2441 4250 2034 4250 
Q 1625 4250 1398 4047 
Q 1172 3844 1172 3481 
z
" transform="scale(0.015625)"/>
       </defs>
       <use xlink:href="#DejaVuSans-31"/>
       <use xlink:href="#DejaVuSans-33" x="63.623047"/>
       <use xlink:href="#DejaVuSans-2e" x="127.246094"/>
       <use xlink:href="#DejaVuSans-37" x="159.033203"/>
       <use xlink:href="#DejaVuSans-38" x="222.65625"/>
      </g>
     </g>
    </g>
    <g id="xtick_6">
     <g id="line2d_6">
      <g>
       <use xlink:href="#m1d84b37eab" x="453.545455" y="384.48" style="stroke: #000000; stroke-width: 0.8"/>
      </g>
     </g>
     <g id="text_6">
      <!-- 13.80 -->
      <g transform="translate(439.231392 399.078438)scale(0.1 -0.1)">
       <use xlink:href="#DejaVuSans-31"/>
       <use xlink:href="#DejaVuSans-33" x="63.623047"/>
       <use xlink:href="#DejaVuSans-2e" x="127.246094"/>
       <use xlink:href="#DejaVuSans-38" x="159.033203"/>
       <use xlink:href="#DejaVuSans-30" x="222.65625"/>
      </g>
     </g>
    </g>
    <g id="xtick_7">
     <g id="line2d_7">
      <g>
       <use xlink:href="#m1d84b37eab" x="521.181818" y="384.48" style="stroke: #000000; stroke-width: 0.8"/>
      </g>
     </g>
     <g id="text_7">
      <!-- 13.82 -->
      <g transform="translate(506.867756 399.078438)scale(0.1 -0.1)">
       <use xlink:href="#DejaVuSans-31"/>
       <use xlink:href="#DejaVuSans-33" x="63.623047"/>
       <use xlink:href="#DejaVuSans-2e" x="127.246094"/>
       <use xlink:href="#DejaVuSans-38" x="159.033203"/>
       <use xlink:href="#DejaVuSans-32" x="222.65625"/>
      </g>
     </g>
    </g>
    <g id="xtick_8">
     <g id="line2d_8">
      <g>
       <use xlink:href="#m1d84b37eab" x="588.818182" y="384.48" style="stroke: #000000; stroke-width: 0.8"/>
      </g>
     </g>
     <g id="text_8">
      <!-- 13.84 -->
      <g transform="translate(574.504119 399.078438)scale(0.1 -0.1)">
       <use xlink:href="#DejaVuSans-31"/>
       <use xlink:href="#DejaVuSans-33" x="63.623047"/>
       <use xlink:href="#DejaVuSans-2e" x="127.246094"/>
       <use xlink:href="#DejaVuSans-38" x="159.033203"/>
       <use xlink:href="#DejaVuSans-34" x="222.65625"/>
      </g>
     </g>
    </g>
    <g id="text_9">
     <!-- Time (s) -->
     <g transform="translate(348.671094 412.756563)scale(0.1 -0.1)">
      <defs>
       <path id="DejaVuSans-54" d="M -19 4666 
L 3928 4666 
L 3928 4134 
L 2272 4134 
L 2272 0 
L 1638 0 
L 1638 4134 
L -19 4134 
L -19 4666 
z
" transform="scale(0.015625)"/>
       <path id="DejaVuSans-69" d="M 603 3500 
L 1178 3500 
L 1178 0 
L 603 0 
L 603 3500 
z
M 603 4863 
L 1178 4863 
L 1178 4134 
L 603 4134 
L 603 4863 
z
" transform="scale(0.015625)"/>
       <path id="DejaVuSans-6d" d="M 3328 2828 
Q 3544 3216 3844 3400 
Q 4144 3584 4550 3584 
Q 5097 3584 5394 3201 
Q 5691 2819 5691 2113 
L 5691 0 
L 5113 0 
L 5113 2094 
Q 5113 2597 4934 2840 
Q 4756 3084 4391 3084 
Q 3944 3084 3684 2787 
Q 3425 2491 3425 1978 
L 3425 0 
L 2847 0 
L 2847 2094 
Q 2847 2600 2669 2842 
Q 2491 3084 2119 3084 
Q 1678 3084 1418 2786 
Q 1159 2488 1159 1978 
L 1159 0 
L 581 0 
L 581 3500 
L 1159 3500 
L 1159 2956 
Q 1356 3278 1631 3431 
Q 1906 3584 2284 3584 
Q 2666 3584 2933 3390 
Q 3200 3197 3328 2828 
z
" transform="scale(0.015625)"/>
       <path id="DejaVuSans-65" d="M 3597 1894 
L 3597 1613 
L 953 1613 
Q 991 1019 1311 708 
Q 1631 397 2203 397 
Q 2534 397 2845 478 
Q 3156 559 3463 722 
L 3463 178 
Q 3153 47 2828 -22 
Q 2503 -91 2169 -91 
Q 1331 -91 842 396 
Q 353 884 353 1716 
Q 353 2575 817 3079 
Q 1281 3584 2069 3584 
Q 2775 3584 3186 3129 
Q 3597 2675 3597 1894 
z
M 3022 2063 
Q 3016 2534 2758 2815 
Q 2500 3097 2075 3097 
Q 1594 3097 1305 2825 
Q 1016 2553 972 2059 
L 3022 2063 
z
" transform="scale(0.015625)"/>
       <path id="DejaVuSans-20" transform="scale(0.015625)"/>
       <path id="DejaVuSans-28" d="M 1984 4856 
Q 1566 4138 1362 3434 
Q 1159 2731 1159 2009 
Q 1159 1288 1364 580 
Q 1569 -128 1984 -844 
L 1484 -844 
Q 1016 -109 783 600 
Q 550 1309 550 2009 
Q 550 2706 781 3412 
Q 1013 4119 1484 4856 
L 1984 4856 
z
" transform="scale(0.015625)"/>
       <path id="DejaVuSans-73" d="M 2834 3397 
L 2834 2853 
Q 2591 2978 2328 3040 
Q 2066 3103 1784 3103 
Q 1356 3103 1142 2972 
Q 928 2841 928 2578 
Q 928 2378 1081 2264 
Q 1234 2150 1697 2047 
L 1894 2003 
Q 2506 1872 2764 1633 
Q 3022 1394 3022 966 
Q 3022 478 2636 193 
Q 2250 -91 1575 -91 
Q 1294 -91 989 -36 
Q 684 19 347 128 
L 347 722 
Q 666 556 975 473 
Q 1284 391 1588 391 
Q 1994 391 2212 530 
Q 2431 669 2431 922 
Q 2431 1156 2273 1281 
Q 2116 1406 1581 1522 
L 1381 1569 
Q 847 1681 609 1914 
Q 372 2147 372 2553 
Q 372 3047 722 3315 
Q 1072 3584 1716 3584 
Q 2034 3584 2315 3537 
Q 2597 3491 2834 3397 
z
" transform="scale(0.015625)"/>
       <path id="DejaVuSans-29" d="M 513 4856 
L 1013 4856 
Q 1481 4119 1714 3412 
Q 1947 2706 1947 2009 
Q 1947 1309 1714 600 
Q 1481 -109 1013 -844 
L 513 -844 
Q 928 -128 1133 580 
Q 1338 1288 1338 2009 
Q 1338 2731 1133 3434 
Q 928 4138 513 4856 
z
" transform="scale(0.015625)"/>
      </defs>
      <use xlink:href="#DejaVuSans-54"/>
      <use xlink:href="#DejaVuSans-69" x="57.958984"/>
      <use xlink:href="#DejaVuSans-6d" x="85.742188"/>
      <use xlink:href="#DejaVuSans-65" x="183.154297"/>
      <use xlink:href="#DejaVuSans-20" x="244.677734"/>
      <use xlink:href="#DejaVuSans-28" x="276.464844"/>
      <use xlink:href="#DejaVuSans-73" x="315.478516"/>
      <use xlink:href="#DejaVuSans-29" x="367.578125"/>
     </g>
    </g>
   </g>
   <g id="matplotlib.axis_2"/>
   <g id="line2d_9">
    <path d="M 115.363636 360.693903 
L 117.057368 363.347946 
L 117.904234 364.480646 
L 118.7511 365.403254 
L 119.597966 366.072383 
L 120.444832 366.46083 
L 121.291698 366.55819 
L 122.138564 366.370258 
L 122.98543 365.917403 
L 123.832296 365.23224 
L 125.526028 363.340177 
L 129.760358 357.994692 
L 130.607224 357.221046 
L 131.45409 356.638385 
L 132.300956 356.270366 
L 133.147822 356.130092 
L 133.994688 356.219153 
L 134.841554 356.527156 
L 135.68842 357.031876 
L 137.382152 358.48947 
L 140.769616 361.830584 
L 141.616482 362.457844 
L 142.463348 362.921506 
L 143.310214 363.20099 
L 144.15708 363.290439 
L 145.003946 363.199307 
L 145.850812 362.951595 
L 147.544544 362.141238 
L 150.085142 360.862404 
L 150.932008 360.597235 
L 151.778874 360.459105 
L 152.62574 360.453674 
L 154.319472 360.782596 
L 156.86007 361.580998 
L 157.706936 361.746497 
L 158.553802 361.796065 
L 159.400668 361.707756 
L 160.247534 361.475869 
L 161.941266 360.643157 
L 165.32873 358.629926 
L 166.175596 358.337292 
L 167.022462 358.204588 
L 167.869328 358.246487 
L 168.716194 358.460905 
L 169.56306 358.82941 
L 171.256792 359.887553 
L 173.79739 361.571518 
L 174.644256 361.979021 
L 175.491122 362.2598 
L 176.337988 362.404361 
L 177.184854 362.418094 
L 178.878586 362.139435 
L 182.266049 361.311359 
L 183.959781 361.204312 
L 186.500379 361.418715 
L 188.194111 361.505298 
L 189.887843 361.293352 
L 191.581575 360.707684 
L 194.122173 359.383879 
L 195.815905 358.550141 
L 197.509637 358.03703 
L 198.356503 357.954574 
L 199.203369 358.004908 
L 200.050235 358.193193 
L 200.897101 358.519086 
L 202.590833 359.555381 
L 204.284565 360.998617 
L 207.672029 364.110926 
L 208.518895 364.674262 
L 209.365761 365.052886 
L 210.212627 365.205257 
L 211.059493 365.101928 
L 211.906359 364.729945 
L 212.753225 364.09608 
L 213.600091 363.228295 
L 215.293823 361.002438 
L 216.987555 358.619346 
L 217.834421 357.576377 
L 218.681287 356.733872 
L 219.528153 356.14958 
L 220.375019 355.859997 
L 221.221885 355.877322 
L 222.068751 356.18896 
L 222.915617 356.759621 
L 224.609349 358.451281 
L 227.149947 361.337491 
L 228.843679 362.805137 
L 229.690545 363.300492 
L 230.537411 363.626973 
L 231.384277 363.792795 
L 232.231143 363.814526 
L 233.924875 363.510517 
L 235.618607 362.876982 
L 237.312339 362.027238 
L 240.699803 359.964821 
L 242.393535 358.985487 
L 244.087267 358.323497 
L 244.934133 358.189526 
L 245.780999 358.219027 
L 246.627865 358.422776 
L 247.474731 358.796802 
L 249.168463 359.957572 
L 251.709061 361.996748 
L 252.555927 362.511772 
L 253.402793 362.851526 
L 254.249659 362.980427 
L 255.096525 362.883395 
L 255.94339 362.568209 
L 256.790256 362.065273 
L 258.483988 360.711403 
L 260.17772 359.355062 
L 261.024586 358.848017 
L 261.871452 358.52538 
L 262.718318 358.416283 
L 263.565184 358.527345 
L 264.41205 358.842628 
L 266.105782 359.926196 
L 268.64638 361.809713 
L 269.493246 362.273101 
L 270.340112 362.585307 
L 271.186978 362.72952 
L 272.033844 362.707223 
L 272.88071 362.536783 
L 274.574442 361.888448 
L 277.11504 360.782263 
L 278.808772 360.344021 
L 280.502504 360.224674 
L 285.5837 360.26058 
L 290.664896 359.747134 
L 292.358628 359.952066 
L 294.05236 360.390258 
L 297.439824 361.404709 
L 299.133556 361.701231 
L 300.827288 361.781839 
L 303.367886 361.57521 
L 305.908484 361.124287 
L 309.295948 360.271691 
L 311.836546 359.639721 
L 313.530278 359.441319 
L 315.22401 359.570947 
L 316.917742 360.06408 
L 319.45834 361.234415 
L 321.152072 361.968855 
L 322.845804 362.393489 
L 323.69267 362.445215 
L 325.386402 362.21953 
L 327.080134 361.642752 
L 332.161329 359.490495 
L 333.855061 359.053041 
L 335.548793 358.8588 
L 337.242525 358.950009 
L 338.936257 359.362033 
L 340.629989 360.086872 
L 345.711185 362.71947 
L 346.558051 362.919874 
L 347.404917 362.984864 
L 348.251783 362.907744 
L 349.098649 362.694288 
L 350.792381 361.941805 
L 354.179845 360.131873 
L 355.873577 359.625369 
L 357.567309 359.533768 
L 359.261041 359.753164 
L 362.648505 360.351323 
L 365.189103 360.512312 
L 368.576567 360.67311 
L 373.657763 361.232234 
L 375.351495 361.1343 
L 377.045227 360.807767 
L 380.432691 360.014744 
L 382.126423 359.938336 
L 383.820155 360.222736 
L 385.513887 360.793172 
L 388.054485 361.716337 
L 389.748217 362.038454 
L 391.441949 361.989725 
L 393.135681 361.631091 
L 396.523145 360.700765 
L 398.216877 360.417264 
L 403.298073 359.83678 
L 407.532402 358.879475 
L 408.379268 358.825508 
L 409.226134 358.886135 
L 410.073 359.080807 
L 410.919866 359.417124 
L 412.613598 360.473996 
L 416.001062 363.116941 
L 416.847928 363.594856 
L 417.694794 363.904971 
L 418.54166 364.018002 
L 419.388526 363.920727 
L 420.235392 363.617334 
L 421.082258 363.128977 
L 422.77599 361.752694 
L 425.316588 359.473262 
L 426.163454 358.866643 
L 427.01032 358.405287 
L 427.857186 358.113498 
L 428.704052 358.002489 
L 429.550918 358.070515 
L 430.397784 358.3039 
L 432.091516 359.162971 
L 436.325846 361.848718 
L 437.172712 362.175537 
L 438.019578 362.368217 
L 438.866444 362.416412 
L 439.71331 362.320464 
L 441.407042 361.750846 
L 446.488238 359.320601 
L 447.335104 359.186749 
L 448.18197 359.192988 
L 449.028836 359.339602 
L 450.722568 359.993266 
L 454.110032 361.787449 
L 454.956898 362.095445 
L 455.803764 362.279364 
L 456.65063 362.324493 
L 457.497496 362.23117 
L 459.191228 361.704721 
L 462.578692 360.340422 
L 464.272424 360.078602 
L 465.966156 360.206307 
L 469.35362 360.812644 
L 471.047352 360.815749 
L 472.741084 360.539775 
L 475.281682 360.019688 
L 476.975414 359.954376 
L 478.669146 360.238227 
L 482.903475 361.344774 
L 484.597207 361.288987 
L 486.290939 360.840862 
L 488.831537 359.955094 
L 489.678403 359.770515 
L 490.525269 359.700438 
L 491.372135 359.7629 
L 492.219001 359.96016 
L 493.912733 360.689414 
L 497.300197 362.423447 
L 498.147063 362.67081 
L 498.993929 362.7856 
L 499.840795 362.759242 
L 500.687661 362.595731 
L 502.381393 361.925504 
L 508.309455 358.867433 
L 510.003187 358.53038 
L 511.696919 358.574157 
L 513.390651 358.977961 
L 515.084383 359.66334 
L 519.318713 361.665492 
L 521.012445 362.181307 
L 522.706177 362.407931 
L 524.399909 362.370521 
L 526.940507 361.998749 
L 531.174837 361.091015 
L 534.562301 360.174293 
L 537.949765 359.196967 
L 539.643497 358.895886 
L 541.337229 358.876569 
L 543.030961 359.217086 
L 544.724693 359.912454 
L 549.805889 362.595386 
L 550.652755 362.82774 
L 551.499621 362.933701 
L 552.346487 362.905081 
L 553.193353 362.744258 
L 554.887085 362.087616 
L 559.121414 359.882401 
L 560.815146 359.376753 
L 562.508878 359.211102 
L 564.20261 359.30087 
L 567.590074 359.816755 
L 570.130672 360.420609 
L 571.824404 361.016623 
L 576.058734 362.739742 
L 576.9056 362.911314 
L 577.752466 362.952084 
L 578.599332 362.842302 
L 579.446198 362.574904 
L 580.293064 362.157588 
L 581.986796 360.978022 
L 584.527394 359.023109 
L 585.37426 358.529677 
L 586.221126 358.189796 
L 587.067992 358.03114 
L 587.914858 358.065964 
L 588.761724 358.290155 
L 589.60859 358.683874 
L 591.302322 359.835822 
L 593.84292 361.754634 
L 594.689786 362.253893 
L 595.536652 362.622123 
L 596.383518 362.839117 
L 597.230384 362.897103 
L 598.07725 362.800377 
L 598.924116 362.564035 
L 600.617848 361.774935 
L 604.005312 359.874845 
L 605.699044 359.277056 
L 606.54591 359.141057 
L 607.392776 359.122216 
L 609.086508 359.412562 
L 610.78024 360.031542 
L 614.167704 361.455975 
L 615.861436 361.870349 
L 617.555168 361.936232 
L 619.2489 361.668505 
L 621.789498 360.902803 
L 622.636364 360.636217 
L 622.636364 360.636217 
" clip-path="url(#p96cd3b92e5)" style="fill: none; stroke: #1f77b4; stroke-width: 1.5; stroke-linecap: square"/>
   </g>
   <g id="line2d_10">
    <path d="M 115.363636 324.482531 
L 117.057368 327.330454 
L 117.904234 328.536803 
L 118.7511 329.496584 
L 119.597966 330.153874 
L 120.444832 330.473782 
L 121.291698 330.444793 
L 122.138564 330.079371 
L 122.98543 329.41276 
L 123.832296 328.500051 
L 125.526028 326.228087 
L 127.21976 323.906949 
L 128.066626 322.922079 
L 128.913492 322.135954 
L 129.760358 321.588385 
L 130.607224 321.299226 
L 131.45409 321.268079 
L 132.300956 321.475698 
L 133.147822 321.886869 
L 134.841554 323.123844 
L 137.382152 325.189891 
L 139.075884 326.164516 
L 139.92275 326.448754 
L 140.769616 326.588123 
L 141.616482 326.588642 
L 143.310214 326.23599 
L 145.003946 325.561167 
L 149.238276 323.690564 
L 150.932008 323.261055 
L 152.62574 323.174261 
L 154.319472 323.485145 
L 156.013204 324.172836 
L 160.247534 326.428127 
L 161.0944 326.703522 
L 161.941266 326.845985 
L 162.788132 326.838884 
L 163.634998 326.678614 
L 165.32873 325.955469 
L 168.716194 323.935071 
L 169.56306 323.579368 
L 170.409926 323.358978 
L 171.256792 323.290672 
L 172.103658 323.37532 
L 173.79739 323.929661 
L 177.184854 325.48844 
L 178.03172 325.718459 
L 178.878586 325.8222 
L 179.725452 325.790406 
L 181.419183 325.356665 
L 185.653513 323.620011 
L 186.500379 323.46524 
L 187.347245 323.433512 
L 188.194111 323.526833 
L 189.887843 324.033295 
L 194.122173 325.713521 
L 195.815905 325.908178 
L 197.509637 325.71148 
L 202.590833 324.553573 
L 204.284565 324.610548 
L 205.978297 324.93767 
L 208.518895 325.54959 
L 210.212627 325.722756 
L 211.906359 325.535273 
L 213.600091 324.983158 
L 217.834421 323.093007 
L 219.528153 322.725988 
L 220.375019 322.707944 
L 222.068751 323.015278 
L 223.762483 323.7085 
L 229.690545 326.746757 
L 231.384277 327.169713 
L 233.078009 327.246179 
L 234.771741 326.962608 
L 236.465473 326.341399 
L 238.159205 325.444572 
L 243.240401 322.427614 
L 244.087267 322.120924 
L 244.934133 321.9333 
L 245.780999 321.880679 
L 246.627865 321.971851 
L 247.474731 322.207039 
L 249.168463 323.063471 
L 251.709061 324.916987 
L 253.402793 326.103026 
L 255.096525 326.916831 
L 255.94339 327.127094 
L 256.790256 327.196071 
L 257.637122 327.129679 
L 259.330854 326.661141 
L 265.258916 324.261437 
L 266.952648 323.931619 
L 269.493246 323.721672 
L 272.033844 323.73822 
L 273.727576 323.908635 
L 275.421308 324.259953 
L 277.961906 325.080377 
L 280.502504 325.851961 
L 282.196236 326.027942 
L 283.889968 325.801121 
L 285.5837 325.221201 
L 288.971164 323.871751 
L 290.664896 323.61107 
L 292.358628 323.799495 
L 294.05236 324.350857 
L 296.592958 325.345495 
L 298.28669 325.751923 
L 299.980422 325.795206 
L 301.674154 325.522831 
L 305.908484 324.60399 
L 308.449082 324.431862 
L 311.836546 324.254179 
L 315.22401 323.914551 
L 316.917742 323.982077 
L 318.611474 324.377418 
L 320.305206 325.065666 
L 322.845804 326.192399 
L 324.539536 326.609305 
L 325.386402 326.641496 
L 326.233268 326.546034 
L 327.927 326.012799 
L 330.467598 324.737501 
L 332.161329 323.935972 
L 333.855061 323.399523 
L 335.548793 323.195601 
L 337.242525 323.284448 
L 339.783123 323.749721 
L 346.558051 325.42021 
L 349.945515 326.203605 
L 351.639247 326.402153 
L 353.332979 326.360419 
L 355.026711 326.041854 
L 356.720443 325.480065 
L 361.801639 323.504308 
L 363.495371 323.183462 
L 365.189103 323.157163 
L 366.882835 323.413624 
L 368.576567 323.889033 
L 373.657763 325.551242 
L 375.351495 325.812225 
L 377.045227 325.817057 
L 378.738959 325.592428 
L 383.820155 324.605938 
L 385.513887 324.52749 
L 388.054485 324.711959 
L 393.135681 325.269189 
L 395.676279 325.328295 
L 398.216877 325.181986 
L 399.910609 324.909372 
L 401.604341 324.452314 
L 406.685537 322.723556 
L 407.532402 322.637706 
L 408.379268 322.683134 
L 409.226134 322.874814 
L 410.073 323.215897 
L 411.766732 324.291795 
L 415.154196 326.992544 
L 416.001062 327.499705 
L 416.847928 327.850257 
L 417.694794 328.016239 
L 418.54166 327.984203 
L 419.388526 327.75641 
L 420.235392 327.350547 
L 421.929124 326.140686 
L 424.469722 324.035704 
L 426.163454 322.985073 
L 427.01032 322.665682 
L 427.857186 322.502658 
L 428.704052 322.495496 
L 429.550918 322.632816 
L 431.24465 323.251104 
L 435.47898 325.296759 
L 437.172712 325.679245 
L 438.866444 325.631927 
L 440.560176 325.218906 
L 443.94764 324.090107 
L 445.641372 323.835112 
L 447.335104 323.977424 
L 449.028836 324.493646 
L 453.263166 326.195621 
L 454.956898 326.432654 
L 456.65063 326.222739 
L 458.344362 325.640847 
L 461.731826 324.259227 
L 463.425558 323.930671 
L 465.11929 323.977473 
L 467.659888 324.505449 
L 469.35362 324.852674 
L 471.047352 324.976408 
L 472.741084 324.813912 
L 475.281682 324.220388 
L 476.975414 323.841815 
L 478.669146 323.665257 
L 480.362878 323.764787 
L 482.05661 324.117522 
L 485.444073 325.19439 
L 487.984671 325.925529 
L 489.678403 326.249946 
L 491.372135 326.398642 
L 493.065867 326.342614 
L 494.759599 326.066902 
L 496.453331 325.587951 
L 502.381393 323.506959 
L 504.075125 323.234338 
L 505.768857 323.220025 
L 507.462589 323.448348 
L 510.003187 324.114365 
L 514.237517 325.325917 
L 515.931249 325.571459 
L 517.624981 325.594558 
L 519.318713 325.41501 
L 523.553043 324.768519 
L 525.246775 324.777018 
L 526.940507 325.030861 
L 531.174837 325.950354 
L 532.868569 325.919676 
L 534.562301 325.479752 
L 536.256033 324.70539 
L 538.796631 323.413655 
L 540.490363 322.866846 
L 541.337229 322.766841 
L 542.184095 322.796904 
L 543.030961 322.954346 
L 544.724693 323.590498 
L 548.959023 325.741251 
L 550.652755 326.232839 
L 552.346487 326.332265 
L 554.040219 326.06271 
L 555.733951 325.52813 
L 559.96828 324.040191 
L 561.662012 323.771438 
L 563.355744 323.825168 
L 565.049476 324.191525 
L 567.590074 325.097615 
L 569.283806 325.691497 
L 570.977538 326.075013 
L 572.67127 326.139141 
L 574.365002 325.867967 
L 576.058734 325.333396 
L 581.13993 323.417378 
L 582.833662 323.043287 
L 584.527394 322.918184 
L 586.221126 323.078924 
L 587.914858 323.540003 
L 589.60859 324.279709 
L 592.149188 325.729337 
L 594.689786 327.115023 
L 596.383518 327.665967 
L 597.230384 327.756834 
L 598.07725 327.701072 
L 598.924116 327.48932 
L 599.770982 327.120863 
L 601.464714 325.961428 
L 606.54591 321.665288 
L 607.392776 321.329766 
L 608.239642 321.209108 
L 609.086508 321.316619 
L 609.933374 321.64838 
L 610.78024 322.182913 
L 612.473972 323.695811 
L 615.01457 326.197782 
L 615.861436 326.846571 
L 616.708302 327.319219 
L 617.555168 327.586708 
L 618.402034 327.638088 
L 619.2489 327.481105 
L 620.095766 327.141016 
L 621.789498 326.08133 
L 622.636364 325.467239 
L 622.636364 325.467239 
" clip-path="url(#p96cd3b92e5)" style="fill: none; stroke: #ff7f0e; stroke-width: 1.5; stroke-linecap: square"/>
   </g>
   <g id="line2d_11">
    <path d="M 115.363636 289.305744 
L 117.057368 293.586296 
L 117.904234 295.306104 
L 118.7511 296.58026 
L 119.597966 297.330462 
L 120.444832 297.521842 
L 121.291698 297.163712 
L 122.138564 296.306121 
L 122.98543 295.032852 
L 124.679162 291.684149 
L 127.21976 286.446049 
L 128.066626 285.048288 
L 128.913492 283.935497 
L 129.760358 283.139291 
L 130.607224 282.670131 
L 131.45409 282.520881 
L 132.300956 282.670881 
L 133.147822 283.08983 
L 133.994688 283.740961 
L 135.68842 285.572704 
L 139.92275 291.046612 
L 140.769616 291.902263 
L 141.616482 292.575137 
L 142.463348 293.035815 
L 143.310214 293.267637 
L 144.15708 293.268815 
L 145.003946 293.053259 
L 145.850812 292.649814 
L 147.544544 291.453236 
L 150.085142 289.454283 
L 151.778874 288.475455 
L 153.472606 287.916782 
L 156.013204 287.560912 
L 158.553802 287.136578 
L 161.941266 286.297929 
L 162.788132 286.21489 
L 163.634998 286.254648 
L 164.481864 286.443064 
L 165.32873 286.792437 
L 166.175596 287.298672 
L 167.869328 288.680751 
L 170.409926 290.967555 
L 171.256792 291.565015 
L 172.103658 292.001818 
L 172.950524 292.250666 
L 173.79739 292.301399 
L 174.644256 292.161091 
L 175.491122 291.852088 
L 177.184854 290.871246 
L 180.572317 288.603015 
L 182.266049 287.802756 
L 183.959781 287.345016 
L 185.653513 287.201929 
L 187.347245 287.310823 
L 189.887843 287.788012 
L 193.275307 288.528741 
L 194.969039 288.716258 
L 196.662771 288.719892 
L 200.050235 288.547719 
L 201.743967 288.713463 
L 203.437699 289.212318 
L 205.978297 290.43041 
L 207.672029 291.19521 
L 208.518895 291.439948 
L 209.365761 291.542365 
L 210.212627 291.475426 
L 211.059493 291.225121 
L 211.906359 290.792858 
L 213.600091 289.4694 
L 216.987555 286.313703 
L 217.834421 285.759334 
L 218.681287 285.399993 
L 219.528153 285.26379 
L 220.375019 285.360619 
L 221.221885 285.681255 
L 222.068751 286.198339 
L 223.762483 287.640007 
L 226.303081 289.962391 
L 227.149947 290.563624 
L 227.996813 291.016188 
L 228.843679 291.303946 
L 229.690545 291.425652 
L 230.537411 291.393388 
L 232.231143 290.964303 
L 235.618607 289.506731 
L 238.159205 288.592401 
L 240.699803 287.995975 
L 243.240401 287.668022 
L 244.934133 287.634091 
L 246.627865 287.797759 
L 248.321597 288.164452 
L 253.402793 289.588366 
L 255.096525 289.748078 
L 256.790256 289.645589 
L 259.330854 289.158398 
L 261.871452 288.67603 
L 263.565184 288.552775 
L 265.258916 288.624602 
L 271.186978 289.161313 
L 273.727576 288.950226 
L 277.11504 288.622918 
L 279.655638 288.693814 
L 283.889968 288.985769 
L 286.430566 288.82662 
L 289.81803 288.483568 
L 291.511762 288.51005 
L 293.205494 288.742754 
L 298.28669 289.792551 
L 299.980422 289.793692 
L 301.674154 289.501758 
L 304.214752 288.706942 
L 306.75535 287.970662 
L 308.449082 287.741813 
L 310.142814 287.767821 
L 312.683412 288.154952 
L 323.69267 290.438722 
L 325.386402 290.44369 
L 327.080134 290.125058 
L 328.773866 289.471758 
L 333.855061 286.901209 
L 334.701927 286.670677 
L 335.548793 286.559022 
L 336.395659 286.574527 
L 337.242525 286.715764 
L 338.936257 287.322115 
L 344.017453 289.781263 
L 345.711185 290.157809 
L 347.404917 290.240981 
L 355.873577 289.90823 
L 357.567309 289.564428 
L 359.261041 288.918075 
L 363.495371 286.87699 
L 364.342237 286.648599 
L 365.189103 286.546341 
L 366.035969 286.581847 
L 366.882835 286.754686 
L 368.576567 287.452222 
L 372.810897 289.796644 
L 374.504629 290.305476 
L 376.198361 290.379791 
L 377.892093 290.080475 
L 382.126423 288.883776 
L 383.820155 288.6999 
L 385.513887 288.782697 
L 390.595083 289.387619 
L 392.288815 289.260501 
L 395.676279 288.600023 
L 398.216877 288.246718 
L 400.757475 288.182689 
L 403.298073 288.128902 
L 408.379268 287.771702 
L 410.073 288.089973 
L 411.766732 288.84214 
L 416.001062 291.451102 
L 416.847928 291.742403 
L 417.694794 291.855899 
L 418.54166 291.770206 
L 419.388526 291.481969 
L 420.235392 291.006948 
L 421.929124 289.646455 
L 424.469722 287.420263 
L 425.316588 286.861826 
L 426.163454 286.468444 
L 427.01032 286.261089 
L 427.857186 286.242808 
L 428.704052 286.399582 
L 430.397784 287.114656 
L 433.785248 288.989664 
L 435.47898 289.610435 
L 437.172712 289.890788 
L 438.866444 289.888062 
L 441.407042 289.565782 
L 448.18197 288.349948 
L 449.875702 288.307829 
L 451.569434 288.482555 
L 456.65063 289.382269 
L 458.344362 289.359738 
L 463.425558 288.85029 
L 465.11929 289.045049 
L 469.35362 289.888006 
L 470.200486 289.879082 
L 471.047352 289.753578 
L 472.741084 289.148605 
L 475.281682 287.689471 
L 476.975414 286.820355 
L 477.82228 286.547689 
L 478.669146 286.424923 
L 479.516012 286.467217 
L 480.362878 286.674416 
L 481.209744 287.031155 
L 482.903475 288.067966 
L 485.444073 289.786724 
L 487.137805 290.571963 
L 487.984671 290.784047 
L 488.831537 290.870644 
L 490.525269 290.716736 
L 493.065867 290.02067 
L 495.606465 289.350271 
L 498.147063 289.012172 
L 503.228259 288.608241 
L 507.462589 287.831933 
L 509.156321 287.598611 
L 510.850053 287.536791 
L 512.543785 287.677532 
L 515.084383 288.182922 
L 519.318713 289.090382 
L 525.246775 290.062551 
L 529.481105 291.049429 
L 530.327971 291.09227 
L 531.174837 291.022266 
L 532.021703 290.820864 
L 532.868569 290.479153 
L 534.562301 289.399434 
L 538.796631 285.882969 
L 539.643497 285.413261 
L 540.490363 285.124068 
L 541.337229 285.041042 
L 542.184095 285.175581 
L 543.030961 285.5239 
L 543.877827 286.067385 
L 545.571559 287.601675 
L 548.959023 291.083641 
L 549.805889 291.742175 
L 550.652755 292.233106 
L 551.499621 292.531158 
L 552.346487 292.622472 
L 553.193353 292.50499 
L 554.040219 292.188236 
L 554.887085 291.69254 
L 556.580817 290.291581 
L 559.96828 287.05685 
L 560.815146 286.424779 
L 561.662012 285.94236 
L 562.508878 285.63656 
L 563.355744 285.524438 
L 564.20261 285.612148 
L 565.049476 285.894521 
L 565.896342 286.355264 
L 567.590074 287.696618 
L 570.977538 290.876817 
L 571.824404 291.502925 
L 572.67127 291.978541 
L 573.518136 292.274844 
L 574.365002 292.373376 
L 575.211868 292.267195 
L 576.058734 291.961352 
L 576.9056 291.472674 
L 578.599332 290.066817 
L 581.986796 286.76809 
L 582.833662 286.121564 
L 583.680528 285.629218 
L 584.527394 285.31839 
L 585.37426 285.205263 
L 586.221126 285.293986 
L 587.067992 285.576603 
L 587.914858 286.033794 
L 589.60859 287.347288 
L 592.996054 290.411076 
L 594.689786 291.508886 
L 595.536652 291.845956 
L 596.383518 292.023798 
L 597.230384 292.039847 
L 598.07725 291.899746 
L 598.924116 291.616486 
L 600.617848 290.702933 
L 605.699044 287.287972 
L 606.54591 286.936881 
L 607.392776 286.708188 
L 608.239642 286.610346 
L 609.086508 286.643708 
L 610.78024 287.065387 
L 612.473972 287.827329 
L 615.861436 289.477531 
L 617.555168 289.95753 
L 619.2489 290.0742 
L 620.942632 289.86656 
L 622.636364 289.460947 
L 622.636364 289.460947 
" clip-path="url(#p96cd3b92e5)" style="fill: none; stroke: #2ca02c; stroke-width: 1.5; stroke-linecap: square"/>
   </g>
   <g id="line2d_12">
    <path d="M 115.363636 253.197558 
L 117.057368 256.738399 
L 117.904234 258.144005 
L 118.7511 259.159858 
L 119.597966 259.716177 
L 120.444832 259.782051 
L 121.291698 259.366876 
L 122.138564 258.518094 
L 122.98543 257.31556 
L 124.679162 254.279021 
L 126.372894 251.192144 
L 127.21976 249.900736 
L 128.066626 248.884008 
L 128.913492 248.188671 
L 129.760358 247.832698 
L 130.607224 247.806864 
L 131.45409 248.078688 
L 132.300956 248.59812 
L 133.994688 250.131727 
L 136.535286 252.748065 
L 138.229018 254.171746 
L 139.92275 255.138414 
L 141.616482 255.627065 
L 143.310214 255.682982 
L 145.003946 255.379633 
L 146.697678 254.812857 
L 151.778874 252.779546 
L 154.319472 252.145279 
L 161.0944 250.969692 
L 162.788132 250.901747 
L 164.481864 251.194542 
L 166.175596 251.91998 
L 167.869328 252.99334 
L 170.409926 254.711932 
L 172.103658 255.484318 
L 172.950524 255.66981 
L 173.79739 255.705526 
L 174.644256 255.594964 
L 176.337988 255.005037 
L 182.266049 252.136018 
L 183.959781 251.756216 
L 185.653513 251.594158 
L 188.194111 251.627594 
L 190.734709 251.895946 
L 199.203369 253.112985 
L 202.590833 253.44762 
L 205.131431 254.01734 
L 207.672029 254.673776 
L 209.365761 254.854272 
L 210.212627 254.791349 
L 211.059493 254.604128 
L 211.906359 254.288052 
L 213.600091 253.31119 
L 216.987555 250.88312 
L 217.834421 250.436716 
L 218.681287 250.138484 
L 219.528153 250.014556 
L 220.375019 250.076769 
L 221.221885 250.32134 
L 222.068751 250.729151 
L 223.762483 251.894059 
L 226.303081 253.813972 
L 227.996813 254.700866 
L 228.843679 254.947534 
L 229.690545 255.057084 
L 231.384277 254.916939 
L 233.078009 254.458143 
L 237.312339 253.166329 
L 242.393535 252.081435 
L 244.934133 251.677127 
L 246.627865 251.660082 
L 248.321597 251.945424 
L 250.015329 252.500885 
L 253.402793 253.725424 
L 255.096525 253.970686 
L 256.790256 253.830128 
L 258.483988 253.391752 
L 261.024586 252.662395 
L 262.718318 252.467269 
L 264.41205 252.632149 
L 266.952648 253.32916 
L 268.64638 253.74666 
L 270.340112 253.85299 
L 272.033844 253.558935 
L 273.727576 252.960114 
L 276.268174 252.020058 
L 277.961906 251.73079 
L 279.655638 251.857139 
L 281.34937 252.338554 
L 284.736834 253.55073 
L 286.430566 253.85274 
L 288.124298 253.813335 
L 289.81803 253.489013 
L 293.205494 252.651966 
L 294.899226 252.49128 
L 296.592958 252.613894 
L 299.133556 253.157801 
L 300.827288 253.506707 
L 302.52102 253.637425 
L 304.214752 253.462692 
L 305.908484 253.017522 
L 309.295948 251.935187 
L 310.98968 251.669083 
L 312.683412 251.745582 
L 314.377144 252.158578 
L 316.917742 253.16074 
L 319.45834 254.109354 
L 321.152072 254.460546 
L 322.845804 254.506768 
L 324.539536 254.273957 
L 327.080134 253.599156 
L 333.855061 251.609595 
L 335.548793 251.263331 
L 337.242525 251.13757 
L 338.936257 251.351229 
L 340.629989 251.949453 
L 343.170587 253.329896 
L 344.864319 254.214805 
L 346.558051 254.758126 
L 347.404917 254.849271 
L 348.251783 254.815228 
L 349.945515 254.431468 
L 354.179845 253.034045 
L 355.873577 252.825197 
L 360.954773 252.731639 
L 362.648505 252.394222 
L 366.035969 251.574604 
L 367.729701 251.522179 
L 369.423433 251.886513 
L 371.117165 252.599743 
L 373.657763 253.813661 
L 375.351495 254.308342 
L 376.198361 254.383562 
L 377.045227 254.33294 
L 378.738959 253.894948 
L 382.973289 252.255304 
L 383.820155 252.119844 
L 384.667021 252.104538 
L 386.360753 252.428361 
L 388.054485 253.093677 
L 390.595083 254.12376 
L 392.288815 254.423853 
L 393.135681 254.395197 
L 394.829413 253.985158 
L 396.523145 253.228458 
L 399.910609 251.598516 
L 401.604341 251.123681 
L 403.298073 250.989387 
L 404.991805 251.170905 
L 406.685537 251.607148 
L 408.379268 252.241008 
L 410.919866 253.456688 
L 414.30733 255.098416 
L 416.001062 255.554889 
L 416.847928 255.606603 
L 417.694794 255.517532 
L 418.54166 255.281126 
L 419.388526 254.902029 
L 421.082258 253.794761 
L 424.469722 251.266996 
L 425.316588 250.836247 
L 426.163454 250.560845 
L 427.01032 250.458799 
L 427.857186 250.533332 
L 428.704052 250.772733 
L 430.397784 251.6341 
L 433.785248 253.709905 
L 434.632114 254.059602 
L 435.47898 254.284775 
L 436.325846 254.3756 
L 437.172712 254.333676 
L 438.866444 253.908494 
L 443.94764 251.908053 
L 445.641372 251.73555 
L 447.335104 251.983737 
L 449.028836 252.5772 
L 452.4163 254.002044 
L 454.110032 254.362611 
L 454.956898 254.381519 
L 456.65063 254.09124 
L 458.344362 253.482034 
L 460.88496 252.541779 
L 462.578692 252.288978 
L 464.272424 252.47788 
L 465.966156 252.996289 
L 467.659888 253.557431 
L 469.35362 253.827022 
L 470.200486 253.77482 
L 471.047352 253.582608 
L 472.741084 252.829753 
L 476.128548 250.940956 
L 476.975414 250.676631 
L 477.82228 250.57571 
L 478.669146 250.654998 
L 479.516012 250.913602 
L 480.362878 251.332996 
L 482.05661 252.505875 
L 484.597207 254.34224 
L 485.444073 254.779145 
L 486.290939 255.072599 
L 487.137805 255.210228 
L 487.984671 255.194986 
L 489.678403 254.784487 
L 494.759599 252.896086 
L 496.453331 252.6809 
L 498.993929 252.690495 
L 501.534527 252.68243 
L 504.075125 252.422053 
L 507.462589 252.024396 
L 509.156321 252.014372 
L 511.696919 252.286807 
L 515.931249 252.877334 
L 522.706177 253.455217 
L 525.246775 254.113604 
L 527.787373 254.7574 
L 529.481105 254.881543 
L 530.327971 254.792221 
L 532.021703 254.270657 
L 533.715435 253.338576 
L 537.949765 250.534386 
L 538.796631 250.158305 
L 539.643497 249.911891 
L 540.490363 249.812688 
L 541.337229 249.870179 
L 542.184095 250.085381 
L 543.030961 250.450897 
L 544.724693 251.564279 
L 547.265291 253.767252 
L 548.959023 255.168733 
L 549.805889 255.733795 
L 550.652755 256.162219 
L 551.499621 256.426264 
L 552.346487 256.506187 
L 553.193353 256.392036 
L 554.040219 256.084994 
L 554.887085 255.598063 
L 556.580817 254.193746 
L 559.96828 250.88655 
L 560.815146 250.244347 
L 561.662012 249.76192 
L 562.508878 249.467023 
L 563.355744 249.375588 
L 564.20261 249.49112 
L 565.049476 249.804981 
L 565.896342 250.297486 
L 567.590074 251.69504 
L 570.977538 254.995111 
L 572.67127 256.212274 
L 573.518136 256.583933 
L 574.365002 256.763945 
L 575.211868 256.737432 
L 576.058734 256.499457 
L 576.9056 256.056147 
L 577.752466 255.425414 
L 579.446198 253.731975 
L 581.986796 250.850495 
L 582.833662 250.031446 
L 583.680528 249.376643 
L 584.527394 248.930077 
L 585.37426 248.7222 
L 586.221126 248.767211 
L 587.067992 249.06168 
L 587.914858 249.584678 
L 589.60859 251.15639 
L 592.996054 254.814017 
L 593.84292 255.504361 
L 594.689786 256.021911 
L 595.536652 256.346982 
L 596.383518 256.473453 
L 597.230384 256.407657 
L 598.07725 256.16645 
L 599.770982 255.263416 
L 602.31158 253.354893 
L 604.005312 252.111593 
L 605.699044 251.165355 
L 606.54591 250.856646 
L 607.392776 250.674717 
L 608.239642 250.624269 
L 609.086508 250.702879 
L 610.78024 251.201737 
L 612.473972 252.016953 
L 615.01457 253.337508 
L 616.708302 253.963136 
L 618.402034 254.229114 
L 620.095766 254.129506 
L 621.789498 253.761646 
L 622.636364 253.525213 
L 622.636364 253.525213 
" clip-path="url(#p96cd3b92e5)" style="fill: none; stroke: #d62728; stroke-width: 1.5; stroke-linecap: square"/>
   </g>
   <g id="line2d_13">
    <path d="M 115.363636 217.188647 
L 117.057368 219.997377 
L 117.904234 221.186252 
L 118.7511 222.140521 
L 119.597966 222.810675 
L 120.444832 223.165671 
L 121.291698 223.194268 
L 122.138564 222.904912 
L 122.98543 222.324287 
L 123.832296 221.494706 
L 125.526028 219.314825 
L 128.066626 215.719602 
L 129.760358 213.817955 
L 130.607224 213.153359 
L 131.45409 212.714555 
L 132.300956 212.511831 
L 133.147822 212.542647 
L 133.994688 212.792196 
L 134.841554 213.234496 
L 136.535286 214.547842 
L 139.92275 217.586383 
L 141.616482 218.620837 
L 142.463348 218.923908 
L 143.310214 219.079543 
L 144.15708 219.099652 
L 145.850812 218.830935 
L 149.238276 217.966976 
L 150.932008 217.769865 
L 156.013204 217.656514 
L 157.706936 217.274006 
L 160.247534 216.323571 
L 162.788132 215.424104 
L 164.481864 215.122076 
L 166.175596 215.129729 
L 167.869328 215.418411 
L 169.56306 215.930365 
L 172.103658 217.014409 
L 176.337988 219.118073 
L 178.03172 219.617841 
L 178.878586 219.687329 
L 179.725452 219.610054 
L 180.572317 219.378952 
L 181.419183 219.000477 
L 183.112915 217.899017 
L 185.653513 216.039619 
L 186.500379 215.564879 
L 187.347245 215.229913 
L 188.194111 215.053961 
L 189.040977 215.037885 
L 190.734709 215.399818 
L 194.122173 216.524463 
L 195.815905 216.68245 
L 197.509637 216.504547 
L 200.050235 216.172743 
L 200.897101 216.209972 
L 201.743967 216.372592 
L 202.590833 216.671028 
L 204.284565 217.63164 
L 207.672029 219.910602 
L 208.518895 220.246538 
L 209.365761 220.393565 
L 210.212627 220.324362 
L 211.059493 220.028974 
L 211.906359 219.516225 
L 212.753225 218.813435 
L 214.446957 217.026193 
L 216.140689 215.145622 
L 216.987555 214.336618 
L 217.834421 213.693654 
L 218.681287 213.260353 
L 219.528153 213.063624 
L 220.375019 213.11164 
L 221.221885 213.393548 
L 222.068751 213.880931 
L 223.762483 215.290411 
L 226.303081 217.654298 
L 227.996813 218.820431 
L 228.843679 219.194203 
L 229.690545 219.421485 
L 230.537411 219.512281 
L 232.231143 219.365107 
L 233.924875 218.944188 
L 238.159205 217.574744 
L 244.087267 215.503476 
L 245.780999 215.27032 
L 247.474731 215.447199 
L 249.168463 216.031362 
L 253.402793 217.915799 
L 254.249659 218.082466 
L 255.096525 218.121138 
L 255.94339 218.03051 
L 257.637122 217.527804 
L 261.024586 216.254709 
L 261.871452 216.115768 
L 262.718318 216.102074 
L 263.565184 216.216824 
L 265.258916 216.768489 
L 268.64638 218.144888 
L 269.493246 218.31101 
L 270.340112 218.352853 
L 271.186978 218.267465 
L 272.88071 217.778387 
L 276.268174 216.521939 
L 277.961906 216.336945 
L 279.655638 216.582081 
L 283.043102 217.518423 
L 284.736834 217.612856 
L 286.430566 217.259928 
L 290.664896 215.695221 
L 291.511762 215.57756 
L 292.358628 215.589511 
L 293.205494 215.73264 
L 294.899226 216.344899 
L 298.28669 217.894127 
L 299.980422 218.278173 
L 301.674154 218.264234 
L 304.214752 217.78092 
L 306.75535 217.302387 
L 313.530278 216.46033 
L 316.070876 215.977706 
L 317.764608 215.913851 
L 319.45834 216.211912 
L 321.152072 216.846979 
L 324.539536 218.329073 
L 326.233268 218.684866 
L 327.080134 218.694753 
L 328.773866 218.370833 
L 330.467598 217.673561 
L 334.701927 215.573352 
L 336.395659 215.140114 
L 337.242525 215.086 
L 338.089391 215.148131 
L 339.783123 215.600068 
L 341.476855 216.381634 
L 344.864319 218.082535 
L 346.558051 218.571923 
L 348.251783 218.668479 
L 349.945515 218.415419 
L 355.873577 217.015941 
L 362.648505 216.265723 
L 365.189103 215.866578 
L 366.882835 215.844855 
L 368.576567 216.139568 
L 370.270299 216.714619 
L 372.810897 217.705928 
L 374.504629 218.105307 
L 376.198361 218.102352 
L 377.892093 217.705107 
L 381.279557 216.532919 
L 382.973289 216.290839 
L 384.667021 216.486583 
L 386.360753 217.050875 
L 388.901351 218.062643 
L 390.595083 218.446215 
L 392.288815 218.408022 
L 393.982547 217.973285 
L 399.910609 215.796324 
L 401.604341 215.493409 
L 404.144939 215.325851 
L 405.838671 215.403829 
L 407.532402 215.703313 
L 409.226134 216.30219 
L 410.919866 217.210256 
L 414.30733 219.332376 
L 415.154196 219.719784 
L 416.001062 219.972189 
L 416.847928 220.06013 
L 417.694794 219.965721 
L 418.54166 219.685349 
L 419.388526 219.231007 
L 421.082258 217.923232 
L 423.622856 215.698081 
L 424.469722 215.10472 
L 425.316588 214.662565 
L 426.163454 214.400022 
L 427.01032 214.329861 
L 427.857186 214.448633 
L 428.704052 214.737729 
L 430.397784 215.692522 
L 433.785248 217.882729 
L 434.632114 218.25474 
L 435.47898 218.504779 
L 436.325846 218.624226 
L 437.172712 218.614375 
L 438.866444 218.254698 
L 440.560176 217.583429 
L 443.94764 216.15902 
L 445.641372 215.780556 
L 447.335104 215.764558 
L 449.028836 216.106683 
L 450.722568 216.714566 
L 454.110032 218.037423 
L 455.803764 218.374473 
L 457.497496 218.34138 
L 459.191228 217.971938 
L 463.425558 216.721258 
L 465.11929 216.556324 
L 466.813022 216.642857 
L 470.200486 217.005761 
L 471.894218 216.988674 
L 474.434816 216.669547 
L 476.975414 216.383204 
L 478.669146 216.413063 
L 481.209744 216.760269 
L 483.750341 217.088642 
L 485.444073 217.121008 
L 490.525269 216.974765 
L 492.219001 217.229126 
L 497.300197 218.391539 
L 498.993929 218.439932 
L 500.687661 218.194038 
L 502.381393 217.685659 
L 504.921991 216.611057 
L 507.462589 215.52331 
L 509.156321 215.045318 
L 510.850053 214.941381 
L 511.696919 215.058489 
L 513.390651 215.622153 
L 515.931249 216.990704 
L 517.624981 217.863599 
L 519.318713 218.388054 
L 520.165579 218.471181 
L 521.859311 218.292982 
L 526.093641 217.197692 
L 527.787373 217.182636 
L 529.481105 217.508211 
L 532.021703 218.113792 
L 532.868569 218.184746 
L 533.715435 218.135366 
L 534.562301 217.951213 
L 536.256033 217.203434 
L 539.643497 215.148773 
L 540.490363 214.796066 
L 541.337229 214.591556 
L 542.184095 214.557389 
L 543.030961 214.700119 
L 543.877827 215.010499 
L 545.571559 216.028055 
L 548.959023 218.471326 
L 549.805889 218.913511 
L 550.652755 219.223374 
L 551.499621 219.385129 
L 552.346487 219.393619 
L 553.193353 219.253768 
L 554.887085 218.592047 
L 556.580817 217.59005 
L 559.121414 216.004649 
L 560.815146 215.254727 
L 561.662012 215.043478 
L 562.508878 214.959061 
L 563.355744 215.005264 
L 564.20261 215.177865 
L 565.896342 215.847495 
L 568.43694 217.306933 
L 570.130672 218.246667 
L 571.824404 218.917801 
L 573.518136 219.193867 
L 575.211868 219.038083 
L 576.9056 218.491241 
L 578.599332 217.649927 
L 582.833662 215.228544 
L 584.527394 214.603303 
L 585.37426 214.451186 
L 586.221126 214.426303 
L 587.067992 214.536642 
L 587.914858 214.783024 
L 589.60859 215.647526 
L 591.302322 216.868619 
L 593.84292 218.79322 
L 595.536652 219.695079 
L 596.383518 219.932851 
L 597.230384 220.000804 
L 598.07725 219.890888 
L 598.924116 219.606754 
L 599.770982 219.16416 
L 601.464714 217.923446 
L 604.005312 215.835846 
L 604.852178 215.276121 
L 605.699044 214.85577 
L 606.54591 214.602559 
L 607.392776 214.530145 
L 608.239642 214.636874 
L 609.086508 214.906163 
L 610.78024 215.804336 
L 613.320838 217.402853 
L 615.01457 218.161909 
L 615.861436 218.373102 
L 616.708302 218.463717 
L 618.402034 218.320642 
L 620.095766 217.879065 
L 622.636364 217.090026 
L 622.636364 217.090026 
" clip-path="url(#p96cd3b92e5)" style="fill: none; stroke: #9467bd; stroke-width: 1.5; stroke-linecap: square"/>
   </g>
   <g id="line2d_14">
    <path d="M 115.363636 181.255562 
L 117.057368 184.144342 
L 117.904234 185.37605 
L 118.7511 186.373454 
L 119.597966 187.08443 
L 120.444832 187.474189 
L 121.291698 187.526903 
L 122.138564 187.246141 
L 122.98543 186.65415 
L 123.832296 185.790059 
L 125.526028 183.469671 
L 128.066626 179.549202 
L 128.913492 178.410279 
L 129.760358 177.458489 
L 130.607224 176.739084 
L 131.45409 176.282384 
L 132.300956 176.10213 
L 133.147822 176.194847 
L 133.994688 176.540308 
L 134.841554 177.10314 
L 136.535286 178.680851 
L 139.075884 181.290265 
L 140.769616 182.5711 
L 141.616482 182.975679 
L 142.463348 183.21383 
L 143.310214 183.297626 
L 145.003946 183.11071 
L 148.39141 182.338989 
L 150.085142 182.19248 
L 155.166338 182.121479 
L 156.86007 181.615904 
L 158.553802 180.778116 
L 161.941266 178.913549 
L 163.634998 178.413547 
L 164.481864 178.35351 
L 165.32873 178.42754 
L 167.022462 178.943279 
L 168.716194 179.824661 
L 173.79739 182.880356 
L 175.491122 183.58443 
L 177.184854 183.945849 
L 178.03172 183.961052 
L 178.878586 183.849857 
L 179.725452 183.607057 
L 181.419183 182.751667 
L 186.500379 179.438223 
L 187.347245 179.200696 
L 188.194111 179.118811 
L 189.040977 179.182689 
L 190.734709 179.625896 
L 193.275307 180.391454 
L 194.969039 180.507512 
L 196.662771 180.238335 
L 199.203369 179.713497 
L 200.050235 179.705844 
L 200.897101 179.851943 
L 201.743967 180.171794 
L 202.590833 180.665041 
L 204.284565 182.0657 
L 206.825163 184.382529 
L 207.672029 184.943303 
L 208.518895 185.296041 
L 209.365761 185.399227 
L 210.212627 185.230763 
L 211.059493 184.790054 
L 211.906359 184.098157 
L 213.600091 182.14127 
L 216.140689 178.780846 
L 216.987555 177.843136 
L 217.834421 177.104158 
L 218.681287 176.608018 
L 219.528153 176.38024 
L 220.375019 176.426241 
L 221.221885 176.731573 
L 222.068751 177.263917 
L 223.762483 178.813467 
L 226.303081 181.475324 
L 227.996813 182.883755 
L 228.843679 183.388868 
L 229.690545 183.751827 
L 230.537411 183.979549 
L 232.231143 184.091994 
L 233.924875 183.872219 
L 235.618607 183.432765 
L 237.312339 182.803529 
L 239.006071 181.957834 
L 241.546669 180.31415 
L 243.240401 179.186002 
L 244.934133 178.363242 
L 245.780999 178.163228 
L 246.627865 178.141903 
L 247.474731 178.310663 
L 248.321597 178.663521 
L 250.015329 179.807315 
L 252.555927 181.834554 
L 253.402793 182.35195 
L 254.249659 182.707954 
L 255.096525 182.877508 
L 255.94339 182.856839 
L 256.790256 182.663726 
L 258.483988 181.922008 
L 260.17772 181.078323 
L 261.024586 180.758542 
L 261.871452 180.56231 
L 262.718318 180.509774 
L 263.565184 180.600894 
L 265.258916 181.118724 
L 267.799514 182.057469 
L 268.64638 182.218404 
L 269.493246 182.246392 
L 270.340112 182.131773 
L 272.033844 181.531007 
L 274.574442 180.299223 
L 275.421308 180.003104 
L 276.268174 179.835846 
L 277.11504 179.819405 
L 277.961906 179.956559 
L 279.655638 180.606206 
L 282.196236 181.838261 
L 283.043102 182.107574 
L 283.889968 182.238822 
L 284.736834 182.215684 
L 285.5837 182.041888 
L 287.277432 181.351013 
L 289.81803 180.166631 
L 290.664896 179.930414 
L 291.511762 179.830016 
L 292.358628 179.875396 
L 293.205494 180.05875 
L 294.899226 180.731804 
L 297.439824 181.88681 
L 299.133556 182.296766 
L 299.980422 182.329324 
L 301.674154 182.068496 
L 304.214752 181.206671 
L 305.908484 180.654119 
L 307.602216 180.317396 
L 309.295948 180.245406 
L 310.98968 180.395312 
L 314.377144 181.02731 
L 318.611474 181.813541 
L 321.152072 182.036097 
L 322.845804 182.000182 
L 325.386402 181.662546 
L 334.701927 179.922727 
L 336.395659 179.843708 
L 338.089391 179.946953 
L 339.783123 180.275213 
L 341.476855 180.816295 
L 345.711185 182.388303 
L 347.404917 182.715386 
L 349.098649 182.731213 
L 350.792381 182.461926 
L 353.332979 181.749839 
L 356.720443 180.826612 
L 359.261041 180.399386 
L 362.648505 180.128526 
L 365.189103 180.122154 
L 367.729701 180.3673 
L 370.270299 180.870128 
L 373.657763 181.567383 
L 375.351495 181.728399 
L 377.045227 181.714027 
L 383.820155 181.281879 
L 387.207619 181.583358 
L 389.748217 181.759453 
L 392.288815 181.657466 
L 394.829413 181.292754 
L 399.910609 180.236573 
L 403.298073 179.558832 
L 404.991805 179.424188 
L 406.685537 179.583959 
L 408.379268 180.117399 
L 410.073 181.00056 
L 413.460464 183.098253 
L 415.154196 183.773139 
L 416.001062 183.909933 
L 416.847928 183.891219 
L 417.694794 183.714278 
L 418.54166 183.38803 
L 420.235392 182.377117 
L 423.622856 179.928897 
L 425.316588 179.092596 
L 426.163454 178.862896 
L 427.01032 178.770397 
L 427.857186 178.812224 
L 429.550918 179.248966 
L 431.24465 180.020292 
L 434.632114 181.771762 
L 436.325846 182.384811 
L 438.019578 182.649015 
L 439.71331 182.516951 
L 441.407042 182.027722 
L 446.488238 180.000518 
L 448.18197 179.801564 
L 449.875702 180.03183 
L 451.569434 180.615293 
L 454.956898 181.959178 
L 456.65063 182.234655 
L 458.344362 182.096269 
L 460.038094 181.647479 
L 462.578692 180.913646 
L 464.272424 180.717454 
L 465.966156 180.85262 
L 471.047352 181.723335 
L 472.741084 181.556237 
L 474.434816 181.117066 
L 477.82228 180.137711 
L 479.516012 179.956623 
L 481.209744 180.068719 
L 483.750341 180.597874 
L 486.290939 181.152994 
L 488.831537 181.476789 
L 498.147063 182.178346 
L 499.840795 182.044128 
L 501.534527 181.701954 
L 504.075125 180.903342 
L 506.615723 180.109721 
L 508.309455 179.808869 
L 510.003187 179.793601 
L 511.696919 180.058845 
L 516.778115 181.309034 
L 518.471847 181.405231 
L 521.012445 181.177994 
L 523.553043 180.968286 
L 525.246775 181.124019 
L 526.940507 181.5747 
L 530.327971 182.707551 
L 531.174837 182.842963 
L 532.021703 182.858464 
L 532.868569 182.739269 
L 533.715435 182.484043 
L 535.409167 181.62978 
L 538.796631 179.554596 
L 539.643497 179.203626 
L 540.490363 178.98439 
L 541.337229 178.910589 
L 542.184095 178.983311 
L 543.030961 179.191857 
L 544.724693 179.927069 
L 548.959023 182.18828 
L 550.652755 182.69599 
L 552.346487 182.803861 
L 554.040219 182.513065 
L 555.733951 181.902258 
L 559.96828 180.018263 
L 561.662012 179.599217 
L 563.355744 179.554998 
L 565.049476 179.884542 
L 566.743208 180.495345 
L 570.977538 182.27928 
L 572.67127 182.766056 
L 574.365002 183.023349 
L 576.058734 183.019912 
L 577.752466 182.716871 
L 579.446198 182.069723 
L 581.13993 181.070286 
L 585.37426 177.986371 
L 586.221126 177.581158 
L 587.067992 177.359564 
L 587.914858 177.361753 
L 588.761724 177.6142 
L 589.60859 178.125003 
L 590.455456 178.880636 
L 592.149188 180.95917 
L 594.689786 184.390502 
L 595.536652 185.263155 
L 596.383518 185.864791 
L 597.230384 186.140214 
L 598.07725 186.060589 
L 598.924116 185.626706 
L 599.770982 184.869333 
L 600.617848 183.846602 
L 604.852178 177.897888 
L 605.699044 177.183618 
L 606.54591 176.779275 
L 607.392776 176.70228 
L 608.239642 176.942667 
L 609.086508 177.465258 
L 609.933374 178.214065 
L 614.167704 182.753541 
L 615.01457 183.342413 
L 615.861436 183.723647 
L 616.708302 183.888721 
L 617.555168 183.846542 
L 618.402034 183.621005 
L 620.095766 182.769325 
L 622.636364 181.163846 
L 622.636364 181.163846 
" clip-path="url(#p96cd3b92e5)" style="fill: none; stroke: #8c564b; stroke-width: 1.5; stroke-linecap: square"/>
   </g>
   <g id="line2d_15">
    <path d="M 115.363636 145.662995 
L 117.057368 148.562315 
L 117.904234 149.767407 
L 118.7511 150.715094 
L 119.597966 151.353753 
L 120.444832 151.650138 
L 121.291698 151.590768 
L 122.138564 151.182279 
L 122.98543 150.45072 
L 123.832296 149.439824 
L 125.526028 146.826477 
L 128.066626 142.564255 
L 128.913492 141.361843 
L 129.760358 140.379279 
L 130.607224 139.664197 
L 131.45409 139.247877 
L 132.300956 139.143895 
L 133.147822 139.34791 
L 133.994688 139.838568 
L 134.841554 140.579384 
L 136.535286 142.606688 
L 139.92275 147.106042 
L 140.769616 147.97597 
L 141.616482 148.654511 
L 142.463348 149.118579 
L 143.310214 149.359925 
L 144.15708 149.385184 
L 145.003946 149.214759 
L 145.850812 148.880565 
L 147.544544 147.886 
L 150.085142 146.224839 
L 151.778874 145.372743 
L 153.472606 144.803009 
L 159.400668 143.237403 
L 161.0944 142.717022 
L 162.788132 142.44381 
L 163.634998 142.47028 
L 164.481864 142.629029 
L 165.32873 142.923245 
L 167.022462 143.865198 
L 171.256792 146.734703 
L 172.950524 147.379359 
L 174.644256 147.590117 
L 176.337988 147.473841 
L 178.878586 147.002661 
L 182.266049 146.120016 
L 184.806647 145.200136 
L 188.194111 143.92393 
L 189.887843 143.518312 
L 191.581575 143.342823 
L 194.122173 143.37592 
L 198.356503 143.65247 
L 200.050235 144.009375 
L 201.743967 144.73797 
L 203.437699 145.889029 
L 206.825163 148.648523 
L 207.672029 149.146954 
L 208.518895 149.459762 
L 209.365761 149.544957 
L 210.212627 149.376091 
L 211.059493 148.945913 
L 211.906359 148.268281 
L 213.600091 146.328936 
L 216.140689 142.95048 
L 216.987555 142.006109 
L 217.834421 141.267126 
L 218.681287 140.78025 
L 219.528153 140.57132 
L 220.375019 140.643466 
L 221.221885 140.977573 
L 222.068751 141.534969 
L 223.762483 143.096067 
L 226.303081 145.613483 
L 227.996813 146.829564 
L 228.843679 147.228604 
L 229.690545 147.490411 
L 231.384277 147.668025 
L 233.078009 147.528103 
L 235.618607 147.003893 
L 237.312339 146.487451 
L 239.006071 145.806211 
L 244.087267 143.446659 
L 244.934133 143.246475 
L 245.780999 143.165682 
L 246.627865 143.213729 
L 248.321597 143.674693 
L 250.862195 144.902103 
L 252.555927 145.637064 
L 254.249659 145.995841 
L 255.94339 145.90197 
L 258.483988 145.257983 
L 260.17772 144.91797 
L 261.871452 144.935114 
L 263.565184 145.349986 
L 266.952648 146.503492 
L 267.799514 146.621188 
L 268.64638 146.604554 
L 269.493246 146.442413 
L 271.186978 145.722159 
L 274.574442 143.77273 
L 275.421308 143.474889 
L 276.268174 143.336468 
L 277.11504 143.374412 
L 277.961906 143.586407 
L 279.655638 144.429407 
L 282.196236 146.011382 
L 283.043102 146.401209 
L 283.889968 146.648025 
L 284.736834 146.729554 
L 285.5837 146.642414 
L 286.430566 146.402055 
L 288.124298 145.601856 
L 290.664896 144.334427 
L 291.511762 144.080034 
L 292.358628 143.959889 
L 293.205494 143.982441 
L 294.05236 144.140724 
L 295.746092 144.770261 
L 298.28669 145.942705 
L 299.980422 146.442846 
L 300.827288 146.535327 
L 302.52102 146.383874 
L 304.214752 145.862209 
L 309.295948 143.865549 
L 310.98968 143.598513 
L 312.683412 143.676119 
L 314.377144 144.09261 
L 316.070876 144.778544 
L 320.305206 146.734442 
L 321.998938 147.163621 
L 323.69267 147.203957 
L 325.386402 146.848096 
L 327.080134 146.186357 
L 332.161329 143.917624 
L 333.855061 143.485129 
L 335.548793 143.309914 
L 337.242525 143.397005 
L 338.936257 143.728793 
L 341.476855 144.579069 
L 345.711185 146.173193 
L 347.404917 146.572694 
L 349.098649 146.746184 
L 350.792381 146.706921 
L 353.332979 146.377547 
L 358.414175 145.377807 
L 361.801639 144.475934 
L 364.342237 143.779667 
L 366.035969 143.505076 
L 367.729701 143.524742 
L 369.423433 143.887872 
L 371.117165 144.532032 
L 374.504629 145.944639 
L 376.198361 146.314045 
L 377.892093 146.322583 
L 379.585825 146.032721 
L 382.973289 145.278141 
L 384.667021 145.162584 
L 386.360753 145.293578 
L 390.595083 145.906864 
L 392.288815 145.892688 
L 393.982547 145.667468 
L 402.451207 144.081078 
L 405.838671 143.582051 
L 407.532402 143.563918 
L 409.226134 143.923531 
L 410.919866 144.748573 
L 412.613598 145.947008 
L 415.154196 147.770154 
L 416.001062 148.178783 
L 416.847928 148.409446 
L 417.694794 148.432148 
L 418.54166 148.234486 
L 419.388526 147.823927 
L 420.235392 147.227944 
L 421.929124 145.674724 
L 423.622856 144.065547 
L 424.469722 143.403535 
L 425.316588 142.907464 
L 426.163454 142.61091 
L 427.01032 142.528108 
L 427.857186 142.653405 
L 428.704052 142.962851 
L 430.397784 143.968558 
L 432.938382 145.667506 
L 433.785248 146.093023 
L 434.632114 146.393515 
L 435.47898 146.5545 
L 436.325846 146.574066 
L 437.172712 146.461685 
L 438.866444 145.923923 
L 443.100774 144.160016 
L 444.794506 143.882408 
L 446.488238 144.030462 
L 448.18197 144.562882 
L 452.4163 146.376318 
L 454.110032 146.689972 
L 454.956898 146.677248 
L 456.65063 146.318582 
L 459.191228 145.277321 
L 460.88496 144.659051 
L 461.731826 144.47925 
L 462.578692 144.415726 
L 463.425558 144.474921 
L 465.11929 144.914245 
L 468.506754 146.116942 
L 469.35362 146.240129 
L 470.200486 146.229086 
L 471.047352 146.07498 
L 472.741084 145.384251 
L 476.128548 143.510959 
L 476.975414 143.213266 
L 477.82228 143.059194 
L 478.669146 143.064358 
L 479.516012 143.228148 
L 481.209744 143.952619 
L 484.597207 145.910753 
L 486.290939 146.518479 
L 487.984671 146.680972 
L 489.678403 146.480537 
L 493.912733 145.694367 
L 496.453331 145.632577 
L 499.840795 145.666853 
L 501.534527 145.495129 
L 504.075125 144.93912 
L 508.309455 143.873606 
L 510.003187 143.687853 
L 511.696919 143.737823 
L 513.390651 144.027215 
L 515.931249 144.785832 
L 519.318713 145.847045 
L 521.012445 146.181991 
L 523.553043 146.385517 
L 528.634239 146.385457 
L 531.174837 146.222145 
L 532.868569 145.878581 
L 534.562301 145.276963 
L 537.102899 144.011218 
L 538.796631 143.176464 
L 540.490363 142.622136 
L 541.337229 142.51672 
L 542.184095 142.549941 
L 543.030961 142.729669 
L 543.877827 143.054435 
L 545.571559 144.086103 
L 548.112157 146.17779 
L 549.805889 147.493815 
L 550.652755 148.006627 
L 551.499621 148.37541 
L 552.346487 148.57316 
L 553.193353 148.582095 
L 554.040219 148.395268 
L 554.887085 148.017597 
L 555.733951 147.466173 
L 557.427683 145.967333 
L 559.96828 143.416184 
L 561.662012 142.113725 
L 562.508878 141.715418 
L 563.355744 141.52345 
L 564.20261 141.550168 
L 565.049476 141.794133 
L 565.896342 142.2404 
L 567.590074 143.620597 
L 571.824404 147.794412 
L 572.67127 148.369682 
L 573.518136 148.769619 
L 574.365002 148.973281 
L 575.211868 148.970449 
L 576.058734 148.761954 
L 576.9056 148.359534 
L 577.752466 147.785206 
L 579.446198 146.253415 
L 582.833662 142.895322 
L 583.680528 142.266005 
L 584.527394 141.799436 
L 585.37426 141.520929 
L 586.221126 141.444933 
L 587.067992 141.574138 
L 587.914858 141.899303 
L 588.761724 142.399789 
L 590.455456 143.795391 
L 593.84292 146.934649 
L 594.689786 147.530957 
L 595.536652 147.980974 
L 596.383518 148.264215 
L 597.230384 148.370537 
L 598.07725 148.300217 
L 598.924116 148.063397 
L 600.617848 147.173491 
L 603.158446 145.268108 
L 604.852178 144.046351 
L 606.54591 143.181562 
L 607.392776 142.943691 
L 608.239642 142.852501 
L 609.086508 142.909431 
L 609.933374 143.106468 
L 611.627106 143.84437 
L 615.861436 146.206798 
L 617.555168 146.674805 
L 618.402034 146.729554 
L 620.095766 146.4997 
L 621.789498 145.945361 
L 622.636364 145.615553 
L 622.636364 145.615553 
" clip-path="url(#p96cd3b92e5)" style="fill: none; stroke: #e377c2; stroke-width: 1.5; stroke-linecap: square"/>
   </g>
   <g id="line2d_16">
    <path d="M 115.363636 109.663532 
L 117.057368 113.583888 
L 117.904234 115.189755 
L 118.7511 116.417697 
L 119.597966 117.194893 
L 120.444832 117.481101 
L 121.291698 117.270514 
L 122.138564 116.590955 
L 122.98543 115.500549 
L 123.832296 114.082248 
L 126.372894 108.906192 
L 128.066626 105.759865 
L 128.913492 104.54583 
L 129.760358 103.646538 
L 130.607224 103.089969 
L 131.45409 102.88168 
L 132.300956 103.006966 
L 133.147822 103.434128 
L 133.994688 104.118356 
L 135.68842 106.037403 
L 139.075884 110.424589 
L 140.769616 112.070459 
L 141.616482 112.634014 
L 142.463348 113.004794 
L 143.310214 113.1821 
L 144.15708 113.176317 
L 145.003946 113.007756 
L 146.697678 112.30046 
L 152.62574 109.123141 
L 156.013204 107.896495 
L 158.553802 107.096231 
L 160.247534 106.73433 
L 161.941266 106.674517 
L 163.634998 107.019979 
L 165.32873 107.766081 
L 167.869328 109.341088 
L 170.409926 110.850369 
L 172.103658 111.529321 
L 173.79739 111.845395 
L 175.491122 111.78532 
L 177.184854 111.371089 
L 178.878586 110.647974 
L 181.419183 109.194159 
L 183.112915 108.237207 
L 184.806647 107.566989 
L 185.653513 107.406854 
L 186.500379 107.384246 
L 187.347245 107.49986 
L 189.040977 108.078257 
L 191.581575 109.250203 
L 192.428441 109.532997 
L 193.275307 109.693011 
L 194.122173 109.70775 
L 194.969039 109.573009 
L 196.662771 108.93531 
L 199.203369 107.756984 
L 200.050235 107.536594 
L 200.897101 107.486179 
L 201.743967 107.634321 
L 202.590833 107.989158 
L 203.437699 108.536913 
L 205.131431 110.053851 
L 206.825163 111.720699 
L 207.672029 112.430178 
L 208.518895 112.966051 
L 209.365761 113.274697 
L 210.212627 113.320528 
L 211.059493 113.089406 
L 211.906359 112.590083 
L 212.753225 111.853512 
L 214.446957 109.885415 
L 216.987555 106.778104 
L 217.834421 105.991241 
L 218.681287 105.422332 
L 219.528153 105.102247 
L 220.375019 105.041766 
L 221.221885 105.231698 
L 222.068751 105.644791 
L 223.762483 106.963088 
L 227.149947 110.055093 
L 228.843679 111.123166 
L 229.690545 111.464988 
L 231.384277 111.78542 
L 233.078009 111.723597 
L 234.771741 111.411139 
L 236.465473 110.924792 
L 238.159205 110.272961 
L 240.699803 108.983331 
L 243.240401 107.613871 
L 244.934133 107.026496 
L 245.780999 106.923827 
L 246.627865 106.975214 
L 247.474731 107.185071 
L 248.321597 107.542633 
L 250.015329 108.582765 
L 252.555927 110.243158 
L 253.402793 110.618247 
L 254.249659 110.839568 
L 255.096525 110.891043 
L 255.94339 110.775388 
L 257.637122 110.143501 
L 260.17772 108.884455 
L 261.024586 108.583818 
L 261.871452 108.405381 
L 262.718318 108.364034 
L 263.565184 108.456582 
L 265.258916 108.94825 
L 267.799514 109.840355 
L 269.493246 110.07656 
L 271.186978 109.879593 
L 275.421308 108.76442 
L 277.11504 108.781749 
L 278.808772 109.183647 
L 281.34937 109.996229 
L 283.043102 110.217239 
L 283.889968 110.149648 
L 285.5837 109.661324 
L 289.81803 107.883795 
L 290.664896 107.753359 
L 291.511762 107.757682 
L 292.358628 107.895798 
L 294.05236 108.501033 
L 297.439824 110.079757 
L 299.133556 110.523507 
L 300.827288 110.579166 
L 302.52102 110.314742 
L 310.142814 108.545025 
L 312.683412 108.246899 
L 314.377144 108.224424 
L 316.070876 108.427913 
L 317.764608 108.884291 
L 322.845804 110.734506 
L 324.539536 110.951836 
L 326.233268 110.804762 
L 327.927 110.338993 
L 330.467598 109.293995 
L 333.855061 107.903568 
L 335.548793 107.444387 
L 337.242525 107.26107 
L 338.936257 107.416801 
L 340.629989 107.921333 
L 342.323721 108.703548 
L 345.711185 110.444285 
L 347.404917 111.024891 
L 349.098649 111.251901 
L 350.792381 111.133991 
L 352.486113 110.771534 
L 365.189103 107.359508 
L 366.882835 107.256912 
L 368.576567 107.555311 
L 370.270299 108.263684 
L 375.351495 110.971191 
L 376.198361 111.162229 
L 377.045227 111.217928 
L 377.892093 111.138295 
L 379.585825 110.634476 
L 383.820155 108.897938 
L 385.513887 108.687695 
L 387.207619 108.870274 
L 391.441949 109.823295 
L 393.135681 109.853357 
L 394.829413 109.577648 
L 400.757475 108.110298 
L 402.451207 108.034452 
L 404.991805 108.223823 
L 407.532402 108.648523 
L 410.073 109.332085 
L 412.613598 110.323514 
L 415.154196 111.320981 
L 416.847928 111.647197 
L 417.694794 111.626077 
L 418.54166 111.45879 
L 419.388526 111.141424 
L 421.082258 110.107644 
L 424.469722 107.46603 
L 425.316588 106.972169 
L 426.163454 106.635864 
L 427.01032 106.485124 
L 427.857186 106.53275 
L 428.704052 106.775117 
L 429.550918 107.192527 
L 431.24465 108.405634 
L 433.785248 110.414662 
L 434.632114 110.926973 
L 435.47898 111.291208 
L 436.325846 111.482756 
L 437.172712 111.491205 
L 438.019578 111.320864 
L 438.866444 110.990126 
L 440.560176 109.979983 
L 443.100774 108.267783 
L 443.94764 107.829407 
L 444.794506 107.518815 
L 445.641372 107.357739 
L 446.488238 107.355239 
L 447.335104 107.507265 
L 449.028836 108.197797 
L 453.263166 110.486805 
L 454.110032 110.73229 
L 454.956898 110.847207 
L 455.803764 110.828172 
L 457.497496 110.439157 
L 461.731826 108.912163 
L 463.425558 108.763107 
L 465.11929 108.991473 
L 468.506754 109.786076 
L 470.200486 109.867575 
L 471.894218 109.594309 
L 474.434816 108.774318 
L 476.128548 108.270591 
L 477.82228 108.016208 
L 479.516012 108.06633 
L 481.209744 108.353004 
L 486.290939 109.405065 
L 495.606465 110.656024 
L 497.300197 110.584093 
L 498.993929 110.277554 
L 501.534527 109.477702 
L 504.921991 108.323348 
L 506.615723 107.937826 
L 508.309455 107.760761 
L 510.003187 107.809125 
L 511.696919 108.067753 
L 514.237517 108.732569 
L 517.624981 109.633083 
L 519.318713 109.860978 
L 521.012445 109.885694 
L 526.093641 109.660387 
L 527.787373 109.887752 
L 532.021703 110.761998 
L 532.868569 110.778907 
L 533.715435 110.683862 
L 534.562301 110.465945 
L 536.256033 109.678279 
L 540.490363 106.999882 
L 541.337229 106.673354 
L 542.184095 106.502601 
L 543.030961 106.506083 
L 543.877827 106.68895 
L 544.724693 107.042632 
L 546.418425 108.165176 
L 549.805889 110.926285 
L 550.652755 111.455861 
L 551.499621 111.84254 
L 552.346487 112.061447 
L 553.193353 112.098764 
L 554.040219 111.952393 
L 554.887085 111.63189 
L 556.580817 110.55983 
L 560.815146 107.166639 
L 561.662012 106.714924 
L 562.508878 106.425392 
L 563.355744 106.319737 
L 564.20261 106.408672 
L 565.049476 106.690986 
L 565.896342 107.153294 
L 567.590074 108.507322 
L 570.977538 111.703297 
L 571.824404 112.309473 
L 572.67127 112.747176 
L 573.518136 112.984794 
L 574.365002 113.002847 
L 575.211868 112.795579 
L 576.058734 112.371642 
L 576.9056 111.753797 
L 578.599332 110.089193 
L 581.13993 107.301371 
L 581.986796 106.518025 
L 582.833662 105.889111 
L 583.680528 105.449312 
L 584.527394 105.220541 
L 585.37426 105.210908 
L 586.221126 105.414788 
L 587.067992 105.81394 
L 588.761724 107.074666 
L 593.84292 111.647065 
L 594.689786 112.149125 
L 595.536652 112.516846 
L 596.383518 112.740897 
L 597.230384 112.816529 
L 598.07725 112.742896 
L 598.924116 112.522773 
L 599.770982 112.162733 
L 601.464714 111.072093 
L 603.158446 109.626686 
L 605.699044 107.375359 
L 606.54591 106.770902 
L 607.392776 106.309487 
L 608.239642 106.024695 
L 609.086508 105.93934 
L 609.933374 106.062534 
L 610.78024 106.387864 
L 611.627106 106.892988 
L 613.320838 108.282348 
L 615.861436 110.490981 
L 616.708302 111.036748 
L 617.555168 111.416411 
L 618.402034 111.608927 
L 619.2489 111.610585 
L 620.095766 111.434807 
L 621.789498 110.676913 
L 622.636364 110.18236 
L 622.636364 110.18236 
" clip-path="url(#p96cd3b92e5)" style="fill: none; stroke: #7f7f7f; stroke-width: 1.5; stroke-linecap: square"/>
   </g>
   <g id="patch_3">
    <path d="M 90 384.48 
L 90 51.84 
" style="fill: none; stroke: #000000; stroke-width: 0.8; stroke-linejoin: miter; stroke-linecap: square"/>
   </g>
   <g id="patch_4">
    <path d="M 648 384.48 
L 648 51.84 
" style="fill: none; stroke: #000000; stroke-width: 0.8; stroke-linejoin: miter; stroke-linecap: square"/>
   </g>
   <g id="patch_5">
    <path d="M 90 384.48 
L 648 384.48 
" style="fill: none; stroke: #000000; stroke-width: 0.8; stroke-linejoin: miter; stroke-linecap: square"/>
   </g>
   <g id="patch_6">
    <path d="M 90 51.84 
L 648 51.84 
" style="fill: none; stroke: #000000; stroke-width: 0.8; stroke-linejoin: miter; stroke-linecap: square"/>
   </g>
   <g id="text_10">
    <!-- No Ripple -->
    <g transform="translate(335.671875 32.402625)scale(0.12 -0.12)">
     <defs>
      <path id="DejaVuSerif-Bold-4e" d="M 281 0 
L 281 378 
L 878 378 
L 878 4288 
L 281 4288 
L 281 4666 
L 1741 4666 
L 4556 1363 
L 4556 4288 
L 3963 4288 
L 3963 4666 
L 5594 4666 
L 5594 4288 
L 4997 4288 
L 4997 0 
L 4178 0 
L 1319 3372 
L 1319 378 
L 1913 378 
L 1913 0 
L 281 0 
z
" transform="scale(0.015625)"/>
      <path id="DejaVuSerif-Bold-6f" d="M 2138 263 
Q 2488 263 2630 563 
Q 2772 863 2772 1663 
Q 2772 2463 2631 2761 
Q 2491 3059 2138 3059 
Q 1784 3059 1640 2757 
Q 1497 2456 1497 1663 
Q 1497 869 1640 566 
Q 1784 263 2138 263 
z
M 2138 -91 
Q 1259 -91 761 376 
Q 263 844 263 1663 
Q 263 2484 761 2948 
Q 1259 3413 2138 3413 
Q 3019 3413 3516 2948 
Q 4013 2484 4013 1663 
Q 4013 844 3514 376 
Q 3016 -91 2138 -91 
z
" transform="scale(0.015625)"/>
      <path id="DejaVuSerif-Bold-20" transform="scale(0.015625)"/>
      <path id="DejaVuSerif-Bold-52" d="M 3397 2278 
Q 3675 2238 3865 2094 
Q 4056 1950 4197 1678 
L 4878 378 
L 5356 378 
L 5356 0 
L 3822 0 
L 3078 1409 
Q 2863 1847 2711 1967 
Q 2559 2088 2291 2088 
L 2100 2088 
L 2100 378 
L 2700 378 
L 2700 0 
L 300 0 
L 300 378 
L 897 378 
L 897 4288 
L 300 4288 
L 300 4666 
L 2963 4666 
Q 3775 4666 4217 4339 
Q 4659 4013 4659 3413 
Q 4659 2925 4345 2642 
Q 4031 2359 3397 2278 
z
M 2100 2463 
L 2509 2463 
Q 2947 2463 3183 2700 
Q 3419 2938 3419 3378 
Q 3419 3819 3183 4053 
Q 2947 4288 2509 4288 
L 2100 4288 
L 2100 2463 
z
" transform="scale(0.015625)"/>
      <path id="DejaVuSerif-Bold-69" d="M 588 4263 
Q 588 4516 763 4689 
Q 938 4863 1191 4863 
Q 1438 4863 1611 4689 
Q 1784 4516 1784 4263 
Q 1784 4016 1611 3842 
Q 1438 3669 1191 3669 
Q 938 3669 763 3841 
Q 588 4013 588 4263 
z
M 1797 378 
L 2272 378 
L 2272 0 
L 219 0 
L 219 378 
L 691 378 
L 691 2944 
L 219 2944 
L 219 3322 
L 1797 3322 
L 1797 378 
z
" transform="scale(0.015625)"/>
      <path id="DejaVuSerif-Bold-70" d="M 1728 1825 
L 1728 1497 
Q 1728 916 1876 656 
Q 2025 397 2356 397 
Q 2697 397 2836 672 
Q 2975 947 2975 1663 
Q 2975 2378 2836 2651 
Q 2697 2925 2356 2925 
Q 2025 2925 1876 2665 
Q 1728 2406 1728 1825 
z
M 622 2944 
L 147 2944 
L 147 3322 
L 1728 3322 
L 1728 2900 
Q 1869 3159 2106 3286 
Q 2344 3413 2694 3413 
Q 3403 3413 3811 2945 
Q 4219 2478 4219 1663 
Q 4219 847 3811 378 
Q 3403 -91 2694 -91 
Q 2344 -91 2106 36 
Q 1869 163 1728 422 
L 1728 -953 
L 2241 -953 
L 2241 -1331 
L 147 -1331 
L 147 -953 
L 622 -953 
L 622 2944 
z
" transform="scale(0.015625)"/>
      <path id="DejaVuSerif-Bold-6c" d="M 1797 378 
L 2272 378 
L 2272 0 
L 219 0 
L 219 378 
L 691 378 
L 691 4488 
L 219 4488 
L 219 4863 
L 1797 4863 
L 1797 378 
z
" transform="scale(0.015625)"/>
      <path id="DejaVuSerif-Bold-65" d="M 2566 1875 
Q 2566 2531 2444 2795 
Q 2322 3059 2028 3059 
Q 1744 3059 1620 2800 
Q 1497 2541 1497 1931 
L 1497 1875 
L 2566 1875 
z
M 3781 1503 
L 1497 1503 
L 1497 1478 
Q 1497 834 1690 548 
Q 1884 263 2316 263 
Q 2675 263 2897 453 
Q 3119 644 3181 1006 
L 3700 1006 
Q 3566 441 3166 175 
Q 2766 -91 2047 -91 
Q 1184 -91 723 364 
Q 263 819 263 1663 
Q 263 2488 734 2950 
Q 1206 3413 2047 3413 
Q 2872 3413 3312 2927 
Q 3753 2441 3781 1503 
z
" transform="scale(0.015625)"/>
     </defs>
     <use xlink:href="#DejaVuSerif-Bold-4e"/>
     <use xlink:href="#DejaVuSerif-Bold-6f" x="91.40625"/>
     <use xlink:href="#DejaVuSerif-Bold-20" x="158.105469"/>
     <use xlink:href="#DejaVuSerif-Bold-52" x="192.919922"/>
     <use xlink:href="#DejaVuSerif-Bold-69" x="276.025391"/>
     <use xlink:href="#DejaVuSerif-Bold-70" x="314.013672"/>
     <use xlink:href="#DejaVuSerif-Bold-70" x="383.935547"/>
     <use xlink:href="#DejaVuSerif-Bold-6c" x="453.857422"/>
     <use xlink:href="#DejaVuSerif-Bold-65" x="491.845703"/>
    </g>
    <!-- Bandpass [100, 250] -->
    <g transform="translate(299.653125 45.84)scale(0.12 -0.12)">
     <defs>
      <path id="DejaVuSerif-Bold-42" d="M 300 0 
L 300 378 
L 897 378 
L 897 4288 
L 300 4288 
L 300 4666 
L 3066 4666 
Q 3919 4666 4347 4378 
Q 4775 4091 4775 3513 
Q 4775 3097 4479 2853 
Q 4184 2609 3603 2547 
Q 4306 2481 4681 2172 
Q 5056 1863 5056 1350 
Q 5056 656 4532 328 
Q 4009 0 2894 0 
L 300 0 
z
M 2100 2719 
L 2509 2719 
Q 3047 2719 3306 2914 
Q 3566 3109 3566 3513 
Q 3566 3919 3314 4103 
Q 3063 4288 2509 4288 
L 2100 4288 
L 2100 2719 
z
M 2100 378 
L 2547 378 
Q 3144 378 3431 615 
Q 3719 853 3719 1350 
Q 3719 1850 3428 2097 
Q 3138 2344 2547 2344 
L 2100 2344 
L 2100 378 
z
" transform="scale(0.015625)"/>
      <path id="DejaVuSerif-Bold-61" d="M 3525 2041 
L 3525 378 
L 4000 378 
L 4000 0 
L 2419 0 
L 2419 422 
Q 2200 159 1931 34 
Q 1663 -91 1319 -91 
Q 809 -91 536 182 
Q 263 456 263 966 
Q 263 1525 655 1803 
Q 1047 2081 1838 2081 
L 2419 2081 
L 2419 2278 
Q 2419 2681 2228 2873 
Q 2038 3066 1638 3066 
Q 1306 3066 1126 2930 
Q 947 2794 872 2484 
L 519 2484 
L 519 3200 
Q 816 3306 1134 3359 
Q 1453 3413 1806 3413 
Q 2697 3413 3111 3081 
Q 3525 2750 3525 2041 
z
M 2419 1044 
L 2419 1709 
L 2003 1709 
Q 1694 1709 1528 1540 
Q 1363 1372 1363 1056 
Q 1363 741 1483 584 
Q 1603 428 1850 428 
Q 2106 428 2262 597 
Q 2419 766 2419 1044 
z
" transform="scale(0.015625)"/>
      <path id="DejaVuSerif-Bold-6e" d="M 219 0 
L 219 378 
L 691 378 
L 691 2944 
L 219 2944 
L 219 3322 
L 1797 3322 
L 1797 2853 
Q 1997 3150 2253 3281 
Q 2509 3413 2900 3413 
Q 3459 3413 3745 3083 
Q 4031 2753 4031 2113 
L 4031 378 
L 4506 378 
L 4506 0 
L 2522 0 
L 2522 378 
L 2925 378 
L 2925 2144 
Q 2925 2566 2817 2730 
Q 2709 2894 2444 2894 
Q 2109 2894 1953 2648 
Q 1797 2403 1797 1869 
L 1797 378 
L 2203 378 
L 2203 0 
L 219 0 
z
" transform="scale(0.015625)"/>
      <path id="DejaVuSerif-Bold-64" d="M 2747 1497 
L 2747 1825 
Q 2747 2406 2597 2665 
Q 2447 2925 2119 2925 
Q 1775 2925 1636 2651 
Q 1497 2378 1497 1663 
Q 1497 947 1637 672 
Q 1778 397 2119 397 
Q 2447 397 2597 656 
Q 2747 916 2747 1497 
z
M 3853 378 
L 4325 378 
L 4325 0 
L 2747 0 
L 2747 422 
Q 2606 163 2367 36 
Q 2128 -91 1778 -91 
Q 1072 -91 667 378 
Q 263 847 263 1663 
Q 263 2481 667 2947 
Q 1072 3413 1778 3413 
Q 2128 3413 2367 3286 
Q 2606 3159 2747 2900 
L 2747 4488 
L 2272 4488 
L 2272 4863 
L 3853 4863 
L 3853 378 
z
" transform="scale(0.015625)"/>
      <path id="DejaVuSerif-Bold-73" d="M 300 97 
L 300 1025 
L 653 1025 
Q 697 653 931 458 
Q 1166 263 1569 263 
Q 1906 263 2086 380 
Q 2266 497 2266 716 
Q 2266 916 2152 1025 
Q 2038 1134 1709 1216 
L 1253 1331 
Q 738 1459 506 1698 
Q 275 1938 275 2344 
Q 275 2884 650 3148 
Q 1025 3413 1806 3413 
Q 2100 3413 2433 3364 
Q 2766 3316 3169 3213 
L 3169 2375 
L 2816 2375 
Q 2788 2716 2573 2887 
Q 2359 3059 1959 3059 
Q 1622 3059 1448 2951 
Q 1275 2844 1275 2638 
Q 1275 2469 1375 2372 
Q 1475 2275 1734 2209 
L 2188 2094 
Q 2841 1928 3091 1684 
Q 3341 1441 3341 1006 
Q 3341 444 2939 176 
Q 2538 -91 1691 -91 
Q 1381 -91 1034 -44 
Q 688 3 300 97 
z
" transform="scale(0.015625)"/>
      <path id="DejaVuSerif-Bold-5b" d="M 800 4863 
L 2572 4863 
L 2572 4488 
L 1906 4488 
L 1906 -469 
L 2572 -469 
L 2572 -844 
L 800 -844 
L 800 4863 
z
" transform="scale(0.015625)"/>
      <path id="DejaVuSerif-Bold-31" d="M 878 0 
L 878 378 
L 1753 378 
L 1753 4153 
L 781 3578 
L 781 4044 
L 1953 4750 
L 2938 4750 
L 2938 378 
L 3816 378 
L 3816 0 
L 878 0 
z
" transform="scale(0.015625)"/>
      <path id="DejaVuSerif-Bold-30" d="M 2228 275 
Q 2603 275 2742 615 
Q 2881 956 2881 2328 
Q 2881 3691 2742 4037 
Q 2603 4384 2228 4384 
Q 1853 4384 1714 4043 
Q 1575 3703 1575 2328 
Q 1575 956 1714 615 
Q 1853 275 2228 275 
z
M 2228 -91 
Q 1294 -91 797 532 
Q 300 1156 300 2328 
Q 300 3500 797 4125 
Q 1294 4750 2228 4750 
Q 3159 4750 3656 4125 
Q 4153 3500 4153 2328 
Q 4153 1156 3656 532 
Q 3159 -91 2228 -91 
z
" transform="scale(0.015625)"/>
      <path id="DejaVuSerif-Bold-2c" d="M 84 -616 
Q 409 -353 562 -28 
Q 716 297 716 728 
L 716 997 
L 1606 997 
L 1606 972 
Q 1606 281 1317 -217 
Q 1028 -716 428 -1056 
L 84 -616 
z
" transform="scale(0.015625)"/>
      <path id="DejaVuSerif-Bold-32" d="M 844 3513 
L 469 3513 
L 469 4519 
Q 850 4634 1223 4692 
Q 1597 4750 1978 4750 
Q 2869 4750 3367 4386 
Q 3866 4022 3866 3372 
Q 3866 2909 3591 2542 
Q 3316 2175 2541 1672 
L 1241 819 
L 3450 819 
L 3450 1369 
L 3878 1369 
L 3878 0 
L 428 0 
L 428 763 
L 1119 1241 
Q 2003 1850 2297 2278 
Q 2591 2706 2591 3278 
Q 2591 3819 2367 4101 
Q 2144 4384 1716 4384 
Q 1347 4384 1125 4161 
Q 903 3938 844 3513 
z
" transform="scale(0.015625)"/>
      <path id="DejaVuSerif-Bold-35" d="M 3609 4666 
L 3609 3847 
L 1113 3847 
L 1113 2822 
Q 1319 2981 1572 3062 
Q 1825 3144 2106 3144 
Q 2969 3144 3469 2708 
Q 3969 2272 3969 1522 
Q 3969 759 3469 334 
Q 2969 -91 2069 -91 
Q 1688 -91 1311 -28 
Q 934 34 525 166 
L 525 1184 
L 900 1184 
Q 919 725 1139 500 
Q 1359 275 1791 275 
Q 2250 275 2472 583 
Q 2694 891 2694 1522 
Q 2694 2144 2476 2451 
Q 2259 2759 1819 2759 
Q 1581 2759 1395 2661 
Q 1209 2563 1050 2356 
L 738 2356 
L 738 4666 
L 3609 4666 
z
" transform="scale(0.015625)"/>
      <path id="DejaVuSerif-Bold-5d" d="M 2228 4863 
L 2228 -844 
L 453 -844 
L 453 -469 
L 1119 -469 
L 1119 4488 
L 453 4488 
L 453 4863 
L 2228 4863 
z
" transform="scale(0.015625)"/>
     </defs>
     <use xlink:href="#DejaVuSerif-Bold-42"/>
     <use xlink:href="#DejaVuSerif-Bold-61" x="84.521484"/>
     <use xlink:href="#DejaVuSerif-Bold-6e" x="149.316406"/>
     <use xlink:href="#DejaVuSerif-Bold-64" x="222.021484"/>
     <use xlink:href="#DejaVuSerif-Bold-70" x="291.943359"/>
     <use xlink:href="#DejaVuSerif-Bold-61" x="361.865234"/>
     <use xlink:href="#DejaVuSerif-Bold-73" x="426.660156"/>
     <use xlink:href="#DejaVuSerif-Bold-73" x="482.958984"/>
     <use xlink:href="#DejaVuSerif-Bold-20" x="539.257812"/>
     <use xlink:href="#DejaVuSerif-Bold-5b" x="574.072266"/>
     <use xlink:href="#DejaVuSerif-Bold-31" x="621.386719"/>
     <use xlink:href="#DejaVuSerif-Bold-30" x="690.966797"/>
     <use xlink:href="#DejaVuSerif-Bold-30" x="760.546875"/>
     <use xlink:href="#DejaVuSerif-Bold-2c" x="830.126953"/>
     <use xlink:href="#DejaVuSerif-Bold-20" x="864.941406"/>
     <use xlink:href="#DejaVuSerif-Bold-32" x="899.755859"/>
     <use xlink:href="#DejaVuSerif-Bold-35" x="969.335938"/>
     <use xlink:href="#DejaVuSerif-Bold-30" x="1038.916016"/>
     <use xlink:href="#DejaVuSerif-Bold-5d" x="1108.496094"/>
    </g>
   </g>
   <g id="legend_1">
    <g id="patch_7">
     <path d="M 554.878125 74.518125 
L 641 74.518125 
Q 643 74.518125 643 72.518125 
L 643 58.84 
Q 643 56.84 641 56.84 
L 554.878125 56.84 
Q 552.878125 56.84 552.878125 58.84 
L 552.878125 72.518125 
Q 552.878125 74.518125 554.878125 74.518125 
z
" style="fill: #ffffff; opacity: 0.8; stroke: #cccccc; stroke-linejoin: miter"/>
    </g>
    <g id="patch_8">
     <path d="M 556.878125 68.438438 
L 576.878125 68.438438 
L 576.878125 61.438438 
L 556.878125 61.438438 
z
" style="fill: #1f77b4; fill-opacity: 0.2; stroke: #1f77b4; stroke-opacity: 0.2; stroke-linejoin: miter"/>
    </g>
    <g id="text_11">
     <!-- Event area -->
     <g transform="translate(584.878125 68.438438)scale(0.1 -0.1)">
      <defs>
       <path id="DejaVuSans-45" d="M 628 4666 
L 3578 4666 
L 3578 4134 
L 1259 4134 
L 1259 2753 
L 3481 2753 
L 3481 2222 
L 1259 2222 
L 1259 531 
L 3634 531 
L 3634 0 
L 628 0 
L 628 4666 
z
" transform="scale(0.015625)"/>
       <path id="DejaVuSans-76" d="M 191 3500 
L 800 3500 
L 1894 563 
L 2988 3500 
L 3597 3500 
L 2284 0 
L 1503 0 
L 191 3500 
z
" transform="scale(0.015625)"/>
       <path id="DejaVuSans-6e" d="M 3513 2113 
L 3513 0 
L 2938 0 
L 2938 2094 
Q 2938 2591 2744 2837 
Q 2550 3084 2163 3084 
Q 1697 3084 1428 2787 
Q 1159 2491 1159 1978 
L 1159 0 
L 581 0 
L 581 3500 
L 1159 3500 
L 1159 2956 
Q 1366 3272 1645 3428 
Q 1925 3584 2291 3584 
Q 2894 3584 3203 3211 
Q 3513 2838 3513 2113 
z
" transform="scale(0.015625)"/>
       <path id="DejaVuSans-74" d="M 1172 4494 
L 1172 3500 
L 2356 3500 
L 2356 3053 
L 1172 3053 
L 1172 1153 
Q 1172 725 1289 603 
Q 1406 481 1766 481 
L 2356 481 
L 2356 0 
L 1766 0 
Q 1100 0 847 248 
Q 594 497 594 1153 
L 594 3053 
L 172 3053 
L 172 3500 
L 594 3500 
L 594 4494 
L 1172 4494 
z
" transform="scale(0.015625)"/>
       <path id="DejaVuSans-61" d="M 2194 1759 
Q 1497 1759 1228 1600 
Q 959 1441 959 1056 
Q 959 750 1161 570 
Q 1363 391 1709 391 
Q 2188 391 2477 730 
Q 2766 1069 2766 1631 
L 2766 1759 
L 2194 1759 
z
M 3341 1997 
L 3341 0 
L 2766 0 
L 2766 531 
Q 2569 213 2275 61 
Q 1981 -91 1556 -91 
Q 1019 -91 701 211 
Q 384 513 384 1019 
Q 384 1609 779 1909 
Q 1175 2209 1959 2209 
L 2766 2209 
L 2766 2266 
Q 2766 2663 2505 2880 
Q 2244 3097 1772 3097 
Q 1472 3097 1187 3025 
Q 903 2953 641 2809 
L 641 3341 
Q 956 3463 1253 3523 
Q 1550 3584 1831 3584 
Q 2591 3584 2966 3190 
Q 3341 2797 3341 1997 
z
" transform="scale(0.015625)"/>
       <path id="DejaVuSans-72" d="M 2631 2963 
Q 2534 3019 2420 3045 
Q 2306 3072 2169 3072 
Q 1681 3072 1420 2755 
Q 1159 2438 1159 1844 
L 1159 0 
L 581 0 
L 581 3500 
L 1159 3500 
L 1159 2956 
Q 1341 3275 1631 3429 
Q 1922 3584 2338 3584 
Q 2397 3584 2469 3576 
Q 2541 3569 2628 3553 
L 2631 2963 
z
" transform="scale(0.015625)"/>
      </defs>
      <use xlink:href="#DejaVuSans-45"/>
      <use xlink:href="#DejaVuSans-76" x="63.183594"/>
      <use xlink:href="#DejaVuSans-65" x="122.363281"/>
      <use xlink:href="#DejaVuSans-6e" x="183.886719"/>
      <use xlink:href="#DejaVuSans-74" x="247.265625"/>
      <use xlink:href="#DejaVuSans-20" x="286.474609"/>
      <use xlink:href="#DejaVuSans-61" x="318.261719"/>
      <use xlink:href="#DejaVuSans-72" x="379.541016"/>
      <use xlink:href="#DejaVuSans-65" x="418.404297"/>
      <use xlink:href="#DejaVuSans-61" x="479.927734"/>
     </g>
    </g>
   </g>
  </g>
 </g>
 <defs>
  <clipPath id="p96cd3b92e5">
   <rect x="90" y="51.84" width="558" height="332.64"/>
  </clipPath>
 </defs>
</svg>
