<?xml version="1.0" encoding="utf-8" standalone="no"?>
<!DOCTYPE svg PUBLIC "-//W3C//DTD SVG 1.1//EN"
  "http://www.w3.org/Graphics/SVG/1.1/DTD/svg11.dtd">
<svg xmlns:xlink="http://www.w3.org/1999/xlink" width="720pt" height="432pt" viewBox="0 0 720 432" xmlns="http://www.w3.org/2000/svg" version="1.1">
 <metadata>
  <rdf:RDF xmlns:dc="http://purl.org/dc/elements/1.1/" xmlns:cc="http://creativecommons.org/ns#" xmlns:rdf="http://www.w3.org/1999/02/22-rdf-syntax-ns#">
   <cc:Work>
    <dc:type rdf:resource="http://purl.org/dc/dcmitype/StillImage"/>
    <dc:date>2024-05-23T09:22:22.495776</dc:date>
    <dc:format>image/svg+xml</dc:format>
    <dc:creator>
     <cc:Agent>
      <dc:title>Matplotlib v3.5.1, https://matplotlib.org/</dc:title>
     </cc:Agent>
    </dc:creator>
   </cc:Work>
  </rdf:RDF>
 </metadata>
 <defs>
  <style type="text/css">*{stroke-linejoin: round; stroke-linecap: butt}</style>
 </defs>
 <g id="figure_1">
  <g id="patch_1">
   <path d="M 0 432 
L 720 432 
L 720 0 
L 0 0 
L 0 432 
z
" style="fill: none"/>
  </g>
  <g id="axes_1">
   <g id="patch_2">
    <path d="M 90 384.48 
L 648 384.48 
L 648 51.84 
L 90 51.84 
L 90 384.48 
z
" style="fill: none"/>
   </g>
   <g id="PolyCollection_1">
    <defs>
     <path id="mc0538be7c7" d="M 307.149167 -365.04 
L 307.149167 -62.64 
L 431.809761 -62.64 
L 431.809761 -365.04 
L 431.809761 -365.04 
L 307.149167 -365.04 
z
" style="stroke: #1f77b4; stroke-opacity: 0.2"/>
    </defs>
    <g clip-path="url(#p56eb95bd5d)">
     <use xlink:href="#mc0538be7c7" x="0" y="432" style="fill: #1f77b4; fill-opacity: 0.2; stroke: #1f77b4; stroke-opacity: 0.2"/>
    </g>
   </g>
   <g id="matplotlib.axis_1">
    <g id="xtick_1">
     <g id="line2d_1">
      <defs>
       <path id="m3bef3755f4" d="M 0 0 
L 0 3.5 
" style="stroke: #000000; stroke-width: 0.8"/>
      </defs>
      <g>
       <use xlink:href="#m3bef3755f4" x="121.106346" y="384.48" style="stroke: #000000; stroke-width: 0.8"/>
      </g>
     </g>
     <g id="text_1">
      <!-- 8.88 -->
      <g transform="translate(109.973534 399.078438)scale(0.1 -0.1)">
       <defs>
        <path id="DejaVuSans-38" d="M 2034 2216 
Q 1584 2216 1326 1975 
Q 1069 1734 1069 1313 
Q 1069 891 1326 650 
Q 1584 409 2034 409 
Q 2484 409 2743 651 
Q 3003 894 3003 1313 
Q 3003 1734 2745 1975 
Q 2488 2216 2034 2216 
z
M 1403 2484 
Q 997 2584 770 2862 
Q 544 3141 544 3541 
Q 544 4100 942 4425 
Q 1341 4750 2034 4750 
Q 2731 4750 3128 4425 
Q 3525 4100 3525 3541 
Q 3525 3141 3298 2862 
Q 3072 2584 2669 2484 
Q 3125 2378 3379 2068 
Q 3634 1759 3634 1313 
Q 3634 634 3220 271 
Q 2806 -91 2034 -91 
Q 1263 -91 848 271 
Q 434 634 434 1313 
Q 434 1759 690 2068 
Q 947 2378 1403 2484 
z
M 1172 3481 
Q 1172 3119 1398 2916 
Q 1625 2713 2034 2713 
Q 2441 2713 2670 2916 
Q 2900 3119 2900 3481 
Q 2900 3844 2670 4047 
Q 2441 4250 2034 4250 
Q 1625 4250 1398 4047 
Q 1172 3844 1172 3481 
z
" transform="scale(0.015625)"/>
        <path id="DejaVuSans-2e" d="M 684 794 
L 1344 794 
L 1344 0 
L 684 0 
L 684 794 
z
" transform="scale(0.015625)"/>
       </defs>
       <use xlink:href="#DejaVuSans-38"/>
       <use xlink:href="#DejaVuSans-2e" x="63.623047"/>
       <use xlink:href="#DejaVuSans-38" x="95.410156"/>
       <use xlink:href="#DejaVuSans-38" x="159.033203"/>
      </g>
     </g>
    </g>
    <g id="xtick_2">
     <g id="line2d_2">
      <g>
       <use xlink:href="#m3bef3755f4" x="197.675815" y="384.48" style="stroke: #000000; stroke-width: 0.8"/>
      </g>
     </g>
     <g id="text_2">
      <!-- 8.90 -->
      <g transform="translate(186.543002 399.078438)scale(0.1 -0.1)">
       <defs>
        <path id="DejaVuSans-39" d="M 703 97 
L 703 672 
Q 941 559 1184 500 
Q 1428 441 1663 441 
Q 2288 441 2617 861 
Q 2947 1281 2994 2138 
Q 2813 1869 2534 1725 
Q 2256 1581 1919 1581 
Q 1219 1581 811 2004 
Q 403 2428 403 3163 
Q 403 3881 828 4315 
Q 1253 4750 1959 4750 
Q 2769 4750 3195 4129 
Q 3622 3509 3622 2328 
Q 3622 1225 3098 567 
Q 2575 -91 1691 -91 
Q 1453 -91 1209 -44 
Q 966 3 703 97 
z
M 1959 2075 
Q 2384 2075 2632 2365 
Q 2881 2656 2881 3163 
Q 2881 3666 2632 3958 
Q 2384 4250 1959 4250 
Q 1534 4250 1286 3958 
Q 1038 3666 1038 3163 
Q 1038 2656 1286 2365 
Q 1534 2075 1959 2075 
z
" transform="scale(0.015625)"/>
        <path id="DejaVuSans-30" d="M 2034 4250 
Q 1547 4250 1301 3770 
Q 1056 3291 1056 2328 
Q 1056 1369 1301 889 
Q 1547 409 2034 409 
Q 2525 409 2770 889 
Q 3016 1369 3016 2328 
Q 3016 3291 2770 3770 
Q 2525 4250 2034 4250 
z
M 2034 4750 
Q 2819 4750 3233 4129 
Q 3647 3509 3647 2328 
Q 3647 1150 3233 529 
Q 2819 -91 2034 -91 
Q 1250 -91 836 529 
Q 422 1150 422 2328 
Q 422 3509 836 4129 
Q 1250 4750 2034 4750 
z
" transform="scale(0.015625)"/>
       </defs>
       <use xlink:href="#DejaVuSans-38"/>
       <use xlink:href="#DejaVuSans-2e" x="63.623047"/>
       <use xlink:href="#DejaVuSans-39" x="95.410156"/>
       <use xlink:href="#DejaVuSans-30" x="159.033203"/>
      </g>
     </g>
    </g>
    <g id="xtick_3">
     <g id="line2d_3">
      <g>
       <use xlink:href="#m3bef3755f4" x="274.245283" y="384.48" style="stroke: #000000; stroke-width: 0.8"/>
      </g>
     </g>
     <g id="text_3">
      <!-- 8.92 -->
      <g transform="translate(263.112471 399.078438)scale(0.1 -0.1)">
       <defs>
        <path id="DejaVuSans-32" d="M 1228 531 
L 3431 531 
L 3431 0 
L 469 0 
L 469 531 
Q 828 903 1448 1529 
Q 2069 2156 2228 2338 
Q 2531 2678 2651 2914 
Q 2772 3150 2772 3378 
Q 2772 3750 2511 3984 
Q 2250 4219 1831 4219 
Q 1534 4219 1204 4116 
Q 875 4013 500 3803 
L 500 4441 
Q 881 4594 1212 4672 
Q 1544 4750 1819 4750 
Q 2544 4750 2975 4387 
Q 3406 4025 3406 3419 
Q 3406 3131 3298 2873 
Q 3191 2616 2906 2266 
Q 2828 2175 2409 1742 
Q 1991 1309 1228 531 
z
" transform="scale(0.015625)"/>
       </defs>
       <use xlink:href="#DejaVuSans-38"/>
       <use xlink:href="#DejaVuSans-2e" x="63.623047"/>
       <use xlink:href="#DejaVuSans-39" x="95.410156"/>
       <use xlink:href="#DejaVuSans-32" x="159.033203"/>
      </g>
     </g>
    </g>
    <g id="xtick_4">
     <g id="line2d_4">
      <g>
       <use xlink:href="#m3bef3755f4" x="350.814751" y="384.48" style="stroke: #000000; stroke-width: 0.8"/>
      </g>
     </g>
     <g id="text_4">
      <!-- 8.94 -->
      <g transform="translate(339.681939 399.078438)scale(0.1 -0.1)">
       <defs>
        <path id="DejaVuSans-34" d="M 2419 4116 
L 825 1625 
L 2419 1625 
L 2419 4116 
z
M 2253 4666 
L 3047 4666 
L 3047 1625 
L 3713 1625 
L 3713 1100 
L 3047 1100 
L 3047 0 
L 2419 0 
L 2419 1100 
L 313 1100 
L 313 1709 
L 2253 4666 
z
" transform="scale(0.015625)"/>
       </defs>
       <use xlink:href="#DejaVuSans-38"/>
       <use xlink:href="#DejaVuSans-2e" x="63.623047"/>
       <use xlink:href="#DejaVuSans-39" x="95.410156"/>
       <use xlink:href="#DejaVuSans-34" x="159.033203"/>
      </g>
     </g>
    </g>
    <g id="xtick_5">
     <g id="line2d_5">
      <g>
       <use xlink:href="#m3bef3755f4" x="427.38422" y="384.48" style="stroke: #000000; stroke-width: 0.8"/>
      </g>
     </g>
     <g id="text_5">
      <!-- 8.96 -->
      <g transform="translate(416.251407 399.078438)scale(0.1 -0.1)">
       <defs>
        <path id="DejaVuSans-36" d="M 2113 2584 
Q 1688 2584 1439 2293 
Q 1191 2003 1191 1497 
Q 1191 994 1439 701 
Q 1688 409 2113 409 
Q 2538 409 2786 701 
Q 3034 994 3034 1497 
Q 3034 2003 2786 2293 
Q 2538 2584 2113 2584 
z
M 3366 4563 
L 3366 3988 
Q 3128 4100 2886 4159 
Q 2644 4219 2406 4219 
Q 1781 4219 1451 3797 
Q 1122 3375 1075 2522 
Q 1259 2794 1537 2939 
Q 1816 3084 2150 3084 
Q 2853 3084 3261 2657 
Q 3669 2231 3669 1497 
Q 3669 778 3244 343 
Q 2819 -91 2113 -91 
Q 1303 -91 875 529 
Q 447 1150 447 2328 
Q 447 3434 972 4092 
Q 1497 4750 2381 4750 
Q 2619 4750 2861 4703 
Q 3103 4656 3366 4563 
z
" transform="scale(0.015625)"/>
       </defs>
       <use xlink:href="#DejaVuSans-38"/>
       <use xlink:href="#DejaVuSans-2e" x="63.623047"/>
       <use xlink:href="#DejaVuSans-39" x="95.410156"/>
       <use xlink:href="#DejaVuSans-36" x="159.033203"/>
      </g>
     </g>
    </g>
    <g id="xtick_6">
     <g id="line2d_6">
      <g>
       <use xlink:href="#m3bef3755f4" x="503.953688" y="384.48" style="stroke: #000000; stroke-width: 0.8"/>
      </g>
     </g>
     <g id="text_6">
      <!-- 8.98 -->
      <g transform="translate(492.820875 399.078438)scale(0.1 -0.1)">
       <use xlink:href="#DejaVuSans-38"/>
       <use xlink:href="#DejaVuSans-2e" x="63.623047"/>
       <use xlink:href="#DejaVuSans-39" x="95.410156"/>
       <use xlink:href="#DejaVuSans-38" x="159.033203"/>
      </g>
     </g>
    </g>
    <g id="xtick_7">
     <g id="line2d_7">
      <g>
       <use xlink:href="#m3bef3755f4" x="580.523156" y="384.48" style="stroke: #000000; stroke-width: 0.8"/>
      </g>
     </g>
     <g id="text_7">
      <!-- 9.00 -->
      <g transform="translate(569.390344 399.078438)scale(0.1 -0.1)">
       <use xlink:href="#DejaVuSans-39"/>
       <use xlink:href="#DejaVuSans-2e" x="63.623047"/>
       <use xlink:href="#DejaVuSans-30" x="95.410156"/>
       <use xlink:href="#DejaVuSans-30" x="159.033203"/>
      </g>
     </g>
    </g>
    <g id="text_8">
     <!-- Time (s) -->
     <g transform="translate(348.671094 412.756563)scale(0.1 -0.1)">
      <defs>
       <path id="DejaVuSans-54" d="M -19 4666 
L 3928 4666 
L 3928 4134 
L 2272 4134 
L 2272 0 
L 1638 0 
L 1638 4134 
L -19 4134 
L -19 4666 
z
" transform="scale(0.015625)"/>
       <path id="DejaVuSans-69" d="M 603 3500 
L 1178 3500 
L 1178 0 
L 603 0 
L 603 3500 
z
M 603 4863 
L 1178 4863 
L 1178 4134 
L 603 4134 
L 603 4863 
z
" transform="scale(0.015625)"/>
       <path id="DejaVuSans-6d" d="M 3328 2828 
Q 3544 3216 3844 3400 
Q 4144 3584 4550 3584 
Q 5097 3584 5394 3201 
Q 5691 2819 5691 2113 
L 5691 0 
L 5113 0 
L 5113 2094 
Q 5113 2597 4934 2840 
Q 4756 3084 4391 3084 
Q 3944 3084 3684 2787 
Q 3425 2491 3425 1978 
L 3425 0 
L 2847 0 
L 2847 2094 
Q 2847 2600 2669 2842 
Q 2491 3084 2119 3084 
Q 1678 3084 1418 2786 
Q 1159 2488 1159 1978 
L 1159 0 
L 581 0 
L 581 3500 
L 1159 3500 
L 1159 2956 
Q 1356 3278 1631 3431 
Q 1906 3584 2284 3584 
Q 2666 3584 2933 3390 
Q 3200 3197 3328 2828 
z
" transform="scale(0.015625)"/>
       <path id="DejaVuSans-65" d="M 3597 1894 
L 3597 1613 
L 953 1613 
Q 991 1019 1311 708 
Q 1631 397 2203 397 
Q 2534 397 2845 478 
Q 3156 559 3463 722 
L 3463 178 
Q 3153 47 2828 -22 
Q 2503 -91 2169 -91 
Q 1331 -91 842 396 
Q 353 884 353 1716 
Q 353 2575 817 3079 
Q 1281 3584 2069 3584 
Q 2775 3584 3186 3129 
Q 3597 2675 3597 1894 
z
M 3022 2063 
Q 3016 2534 2758 2815 
Q 2500 3097 2075 3097 
Q 1594 3097 1305 2825 
Q 1016 2553 972 2059 
L 3022 2063 
z
" transform="scale(0.015625)"/>
       <path id="DejaVuSans-20" transform="scale(0.015625)"/>
       <path id="DejaVuSans-28" d="M 1984 4856 
Q 1566 4138 1362 3434 
Q 1159 2731 1159 2009 
Q 1159 1288 1364 580 
Q 1569 -128 1984 -844 
L 1484 -844 
Q 1016 -109 783 600 
Q 550 1309 550 2009 
Q 550 2706 781 3412 
Q 1013 4119 1484 4856 
L 1984 4856 
z
" transform="scale(0.015625)"/>
       <path id="DejaVuSans-73" d="M 2834 3397 
L 2834 2853 
Q 2591 2978 2328 3040 
Q 2066 3103 1784 3103 
Q 1356 3103 1142 2972 
Q 928 2841 928 2578 
Q 928 2378 1081 2264 
Q 1234 2150 1697 2047 
L 1894 2003 
Q 2506 1872 2764 1633 
Q 3022 1394 3022 966 
Q 3022 478 2636 193 
Q 2250 -91 1575 -91 
Q 1294 -91 989 -36 
Q 684 19 347 128 
L 347 722 
Q 666 556 975 473 
Q 1284 391 1588 391 
Q 1994 391 2212 530 
Q 2431 669 2431 922 
Q 2431 1156 2273 1281 
Q 2116 1406 1581 1522 
L 1381 1569 
Q 847 1681 609 1914 
Q 372 2147 372 2553 
Q 372 3047 722 3315 
Q 1072 3584 1716 3584 
Q 2034 3584 2315 3537 
Q 2597 3491 2834 3397 
z
" transform="scale(0.015625)"/>
       <path id="DejaVuSans-29" d="M 513 4856 
L 1013 4856 
Q 1481 4119 1714 3412 
Q 1947 2706 1947 2009 
Q 1947 1309 1714 600 
Q 1481 -109 1013 -844 
L 513 -844 
Q 928 -128 1133 580 
Q 1338 1288 1338 2009 
Q 1338 2731 1133 3434 
Q 928 4138 513 4856 
z
" transform="scale(0.015625)"/>
      </defs>
      <use xlink:href="#DejaVuSans-54"/>
      <use xlink:href="#DejaVuSans-69" x="57.958984"/>
      <use xlink:href="#DejaVuSans-6d" x="85.742188"/>
      <use xlink:href="#DejaVuSans-65" x="183.154297"/>
      <use xlink:href="#DejaVuSans-20" x="244.677734"/>
      <use xlink:href="#DejaVuSans-28" x="276.464844"/>
      <use xlink:href="#DejaVuSans-73" x="315.478516"/>
      <use xlink:href="#DejaVuSans-29" x="367.578125"/>
     </g>
    </g>
   </g>
   <g id="matplotlib.axis_2"/>
   <g id="line2d_8">
    <path d="M 115.363636 357.658848 
L 123.993985 360.089031 
L 124.952913 360.146272 
L 125.911841 360.091344 
L 126.870768 359.913802 
L 128.788623 359.198638 
L 130.706479 358.126953 
L 133.583262 356.479363 
L 134.542189 356.085996 
L 135.501117 355.825934 
L 136.460045 355.715834 
L 137.418972 355.758043 
L 138.3779 355.940401 
L 140.295755 356.614957 
L 143.172538 357.815451 
L 145.090394 358.320815 
L 147.008249 358.436917 
L 148.926104 358.240468 
L 151.802887 357.817417 
L 153.720742 357.747982 
L 155.638598 357.941845 
L 160.433236 358.795678 
L 162.351091 358.819405 
L 164.268947 358.541791 
L 168.104657 357.516675 
L 170.022512 357.101979 
L 171.940368 356.908283 
L 173.858223 356.948835 
L 176.735006 357.324329 
L 184.406427 358.582544 
L 186.324283 358.680994 
L 188.242138 358.576037 
L 190.159993 358.234942 
L 193.036776 357.395143 
L 194.954631 356.838822 
L 196.872487 356.524319 
L 198.790342 356.608542 
L 200.708197 357.116174 
L 203.58498 358.341225 
L 205.502836 359.093944 
L 207.420691 359.526721 
L 209.338546 359.543283 
L 211.256401 359.185843 
L 214.133184 358.234741 
L 217.968895 356.860563 
L 219.88675 356.325709 
L 221.804606 355.997696 
L 223.722461 355.965823 
L 225.640316 356.297548 
L 227.558172 356.991239 
L 230.434954 358.45302 
L 232.35281 359.38781 
L 234.270665 359.997696 
L 235.229593 360.119801 
L 236.18852 360.103914 
L 237.147448 359.951351 
L 239.065303 359.297302 
L 243.859942 357.099711 
L 245.777797 356.645685 
L 247.695652 356.555446 
L 250.572435 356.812149 
L 254.408146 357.146917 
L 257.284929 357.399136 
L 259.202784 357.741008 
L 264.95635 359.066845 
L 266.874205 359.071036 
L 268.79206 358.74322 
L 273.586699 357.582923 
L 275.504554 357.4508 
L 278.381337 357.630364 
L 281.25812 357.810498 
L 284.134903 357.68954 
L 287.970614 357.466461 
L 290.847396 357.59225 
L 294.683107 357.783521 
L 297.55989 357.647984 
L 300.436673 357.516333 
L 302.354528 357.627179 
L 305.231311 358.131638 
L 308.108094 358.682497 
L 310.025949 358.818382 
L 311.943805 358.683661 
L 314.820588 358.127138 
L 317.697371 357.628246 
L 319.615226 357.551779 
L 322.492009 357.778322 
L 324.409864 357.922109 
L 326.32772 357.844812 
L 328.245575 357.476621 
L 332.081285 356.45074 
L 333.040213 356.335442 
L 333.999141 356.342015 
L 334.958068 356.486527 
L 335.916996 356.769822 
L 337.834851 357.675174 
L 340.711634 359.256017 
L 341.670562 359.639161 
L 342.62949 359.877873 
L 343.588417 359.948109 
L 344.547345 359.843737 
L 345.506273 359.577243 
L 347.424128 358.689244 
L 350.300911 357.199172 
L 351.259838 356.854017 
L 352.218766 356.640181 
L 353.177694 356.569457 
L 354.136621 356.637825 
L 356.054477 357.106441 
L 359.890187 358.36497 
L 361.808043 358.627212 
L 363.725898 358.516172 
L 366.602681 357.906763 
L 369.479464 357.322504 
L 371.397319 357.136219 
L 375.23303 357.09274 
L 380.027668 357.167705 
L 381.945523 357.470754 
L 383.863379 358.093373 
L 388.658017 360.246505 
L 389.616944 360.473391 
L 390.575872 360.535922 
L 391.5348 360.410612 
L 392.493727 360.090713 
L 393.452655 359.587955 
L 395.37051 358.168578 
L 398.247293 355.819213 
L 399.206221 355.216621 
L 400.165149 354.786543 
L 401.124076 354.558258 
L 402.083004 354.544161 
L 403.041932 354.739544 
L 404.000859 355.123985 
L 405.918715 356.316781 
L 409.754425 359.089027 
L 410.713353 359.603915 
L 411.67228 359.984134 
L 412.631208 360.214315 
L 413.590136 360.289263 
L 414.549063 360.213651 
L 415.507991 360.001283 
L 417.425846 359.259842 
L 421.261557 357.410369 
L 423.179412 356.80837 
L 425.097268 356.619736 
L 427.015123 356.823608 
L 429.891906 357.534216 
L 431.809761 357.988882 
L 433.727616 358.255599 
L 435.645472 358.298424 
L 439.481182 358.013207 
L 442.357965 357.86839 
L 448.111531 357.713646 
L 450.988314 357.29967 
L 453.865097 356.905153 
L 455.782952 356.942798 
L 457.700808 357.365954 
L 459.618663 358.138013 
L 462.495446 359.457127 
L 463.454374 359.776717 
L 464.413301 359.970897 
L 465.372229 360.012626 
L 466.331157 359.888168 
L 467.290084 359.599142 
L 469.20794 358.611321 
L 473.04365 356.195499 
L 474.002578 355.785257 
L 474.961505 355.527582 
L 475.920433 355.437869 
L 476.879361 355.51621 
L 477.838288 355.748241 
L 479.756144 356.55888 
L 483.591854 358.512648 
L 485.50971 359.153562 
L 487.427565 359.428705 
L 489.34542 359.370376 
L 491.263275 359.063825 
L 494.140058 358.34631 
L 497.975769 357.382521 
L 499.893624 357.089955 
L 501.81148 356.99799 
L 503.729335 357.09603 
L 510.441828 357.680696 
L 516.195394 357.706642 
L 518.11325 357.989898 
L 522.907888 358.998044 
L 524.825743 359.059733 
L 526.743599 358.764436 
L 528.661454 358.19036 
L 531.538237 357.235169 
L 533.456092 356.82873 
L 535.373947 356.726406 
L 537.291803 356.894817 
L 544.004296 357.891763 
L 554.5525 358.60456 
L 557.429283 358.439536 
L 563.182849 357.822041 
L 568.936415 357.599388 
L 570.85427 357.254641 
L 575.648909 356.015854 
L 576.607836 355.910884 
L 577.566764 355.922264 
L 578.525692 356.069225 
L 579.484619 356.360311 
L 580.443547 356.791591 
L 582.361402 357.994632 
L 585.238185 360.078492 
L 586.197113 360.657924 
L 587.156041 361.104086 
L 588.114968 361.383018 
L 589.073896 361.472822 
L 590.032824 361.365359 
L 590.991751 361.066591 
L 591.950679 360.595572 
L 593.868534 359.264364 
L 597.704245 356.177488 
L 599.6221 354.999025 
L 600.581028 354.583187 
L 601.539955 354.298329 
L 602.498883 354.150871 
L 603.457811 354.144599 
L 604.416738 354.281339 
L 605.375666 354.560905 
L 606.334594 354.98025 
L 608.252449 356.202543 
L 610.170304 357.805615 
L 613.047087 360.285117 
L 614.006015 360.934699 
L 614.964942 361.412773 
L 615.92387 361.680637 
L 616.882798 361.713884 
L 617.841725 361.506054 
L 618.800653 361.070536 
L 619.759581 360.440353 
L 621.677436 358.809586 
L 622.636364 357.941596 
L 622.636364 357.941596 
" clip-path="url(#p56eb95bd5d)" style="fill: none; stroke: #1f77b4; stroke-width: 1.5; stroke-linecap: square"/>
   </g>
   <g id="line2d_9">
    <path d="M 115.363636 322.935202 
L 119.199347 324.511245 
L 121.117202 325.077261 
L 123.035058 325.363511 
L 124.952913 325.292628 
L 126.870768 324.832548 
L 128.788623 324.026822 
L 133.583262 321.589436 
L 135.501117 321.040575 
L 136.460045 320.943766 
L 137.418972 320.970128 
L 139.336828 321.344721 
L 145.090394 323.153697 
L 147.008249 323.406795 
L 150.843959 323.500508 
L 153.720742 323.664313 
L 157.556453 323.979439 
L 159.474308 323.937833 
L 161.392164 323.679049 
L 168.104657 322.30359 
L 170.022512 322.212761 
L 172.899295 322.348616 
L 190.159993 323.696629 
L 193.036776 323.591881 
L 195.913559 323.276695 
L 203.58498 322.185373 
L 205.502836 322.228652 
L 207.420691 322.532291 
L 210.297474 323.346205 
L 212.215329 323.878069 
L 214.133184 324.144247 
L 215.092112 324.123726 
L 217.009967 323.744459 
L 218.927823 323.005628 
L 221.804606 321.788289 
L 222.763533 321.512257 
L 223.722461 321.356958 
L 224.681389 321.341624 
L 225.640316 321.472573 
L 226.599244 321.742504 
L 228.517099 322.607634 
L 231.393882 324.158 
L 233.311737 324.886498 
L 234.270665 325.067823 
L 235.229593 325.109988 
L 236.18852 325.014888 
L 238.106376 324.474327 
L 243.859942 322.11461 
L 245.777797 321.73515 
L 247.695652 321.630679 
L 250.572435 321.759994 
L 256.326001 322.262926 
L 258.243856 322.648836 
L 260.161712 323.226638 
L 264.95635 324.854339 
L 266.874205 325.136953 
L 268.79206 325.045462 
L 270.709916 324.613836 
L 273.586699 323.587399 
L 278.381337 321.805317 
L 281.25812 321.029127 
L 283.175975 320.759315 
L 285.093831 320.792514 
L 287.011686 321.191426 
L 288.929541 321.935756 
L 294.683107 324.654777 
L 296.600962 325.079755 
L 298.518818 325.106168 
L 300.436673 324.794509 
L 303.313456 323.983347 
L 306.190239 323.16701 
L 309.067022 322.591881 
L 312.902732 322.148728 
L 316.738443 321.924155 
L 318.656298 321.964839 
L 320.574154 322.179903 
L 323.450937 322.820073 
L 326.32772 323.530645 
L 328.245575 323.776106 
L 330.16343 323.707112 
L 332.081285 323.343642 
L 335.916996 322.4351 
L 337.834851 322.343916 
L 339.752707 322.662781 
L 341.670562 323.312453 
L 344.547345 324.387688 
L 346.4652 324.764899 
L 347.424128 324.77401 
L 348.383056 324.650732 
L 350.300911 324.038247 
L 353.177694 322.590525 
L 355.095549 321.706873 
L 356.054477 321.397415 
L 357.013404 321.207453 
L 357.972332 321.146268 
L 359.890187 321.386617 
L 361.808043 321.969915 
L 364.684826 322.956402 
L 366.602681 323.397319 
L 368.520536 323.592443 
L 372.356247 323.584082 
L 378.109813 323.45857 
L 380.986596 323.041623 
L 384.822306 322.375158 
L 386.740162 322.350547 
L 388.658017 322.665703 
L 390.575872 323.271306 
L 393.452655 324.329268 
L 395.37051 324.77189 
L 396.329438 324.826072 
L 397.288366 324.742352 
L 398.247293 324.512697 
L 399.206221 324.140794 
L 401.124076 323.047853 
L 404.000859 321.107466 
L 404.959787 320.57384 
L 405.918715 320.174379 
L 406.877642 319.943161 
L 407.83657 319.900856 
L 408.795498 320.052754 
L 409.754425 320.388419 
L 411.67228 321.499855 
L 415.507991 324.275943 
L 417.425846 325.267881 
L 418.384774 325.571316 
L 419.343702 325.736044 
L 420.302629 325.764837 
L 421.261557 325.66688 
L 423.179412 325.149081 
L 425.097268 324.324543 
L 429.891906 322.059501 
L 431.809761 321.545872 
L 433.727616 321.45065 
L 435.645472 321.769621 
L 438.522255 322.72013 
L 440.44011 323.346641 
L 442.357965 323.719574 
L 444.275821 323.716974 
L 446.193676 323.335538 
L 449.070459 322.32024 
L 450.988314 321.648068 
L 452.906169 321.248922 
L 453.865097 321.213827 
L 454.824025 321.310852 
L 455.782952 321.547012 
L 456.74188 321.919631 
L 458.659735 323.010186 
L 462.495446 325.587707 
L 463.454374 326.044586 
L 464.413301 326.337601 
L 465.372229 326.437314 
L 466.331157 326.328802 
L 467.290084 326.013746 
L 468.249012 325.510849 
L 470.166867 324.091219 
L 473.04365 321.713618 
L 474.002578 321.066083 
L 474.961505 320.556123 
L 475.920433 320.202669 
L 476.879361 320.009912 
L 477.838288 319.968804 
L 479.756144 320.258259 
L 481.673999 320.867741 
L 485.50971 322.42999 
L 489.34542 324.229935 
L 492.222203 325.555308 
L 494.140058 326.110631 
L 495.098986 326.204598 
L 496.057914 326.147084 
L 497.016841 325.927721 
L 497.975769 325.547906 
L 499.893624 324.374583 
L 504.688263 320.758954 
L 505.64719 320.262118 
L 506.606118 319.917732 
L 507.565046 319.739453 
L 508.523973 319.729543 
L 509.482901 319.879705 
L 510.441828 320.172813 
L 512.359684 321.089424 
L 519.072177 324.9297 
L 520.990033 325.497354 
L 521.94896 325.620653 
L 522.907888 325.628016 
L 523.866816 325.518428 
L 525.784671 324.973426 
L 527.702526 324.098677 
L 531.538237 322.198639 
L 533.456092 321.61006 
L 535.373947 321.421351 
L 537.291803 321.591654 
L 544.963224 322.904204 
L 558.388211 323.579946 
L 563.182849 323.477658 
L 567.977488 323.563818 
L 569.895343 323.375498 
L 571.813198 322.944838 
L 577.566764 321.293403 
L 578.525692 321.232602 
L 579.484619 321.287643 
L 581.402475 321.744768 
L 583.32033 322.560263 
L 586.197113 323.93046 
L 588.114968 324.562896 
L 590.032824 324.78605 
L 591.950679 324.606094 
L 593.868534 324.150062 
L 598.663172 322.82762 
L 601.539955 322.29069 
L 604.416738 321.979911 
L 606.334594 321.932824 
L 608.252449 322.060896 
L 610.170304 322.377809 
L 616.882798 323.85456 
L 618.800653 323.915466 
L 620.718508 323.737487 
L 622.636364 323.402874 
L 622.636364 323.402874 
" clip-path="url(#p56eb95bd5d)" style="fill: none; stroke: #ff7f0e; stroke-width: 1.5; stroke-linecap: square"/>
   </g>
   <g id="line2d_10">
    <path d="M 115.363636 288.279736 
L 117.281492 288.297214 
L 118.240419 288.40769 
L 119.199347 288.630176 
L 121.117202 289.440928 
L 124.952913 291.599348 
L 125.911841 291.888829 
L 126.870768 291.946034 
L 127.829696 291.728947 
L 128.788623 291.221935 
L 129.747551 290.440078 
L 131.665406 288.265634 
L 133.583262 285.867253 
L 134.542189 284.844028 
L 135.501117 284.065092 
L 136.460045 283.598985 
L 137.418972 283.483062 
L 138.3779 283.719496 
L 139.336828 284.27548 
L 140.295755 285.087544 
L 144.131466 289.051742 
L 145.090394 289.769088 
L 146.049321 290.255081 
L 147.008249 290.496412 
L 147.967176 290.508909 
L 148.926104 290.333104 
L 150.843959 289.655621 
L 152.761815 288.96315 
L 154.67967 288.600605 
L 156.597525 288.607355 
L 159.474308 288.797209 
L 161.392164 288.649595 
L 163.310019 288.182259 
L 167.14573 287.026147 
L 169.063585 286.830028 
L 170.98144 287.030414 
L 172.899295 287.520584 
L 175.776078 288.34775 
L 177.693934 288.706054 
L 179.611789 288.840054 
L 182.488572 288.745046 
L 196.872487 287.795984 
L 199.74927 288.044812 
L 204.543908 288.632156 
L 207.420691 288.654826 
L 216.05104 288.07246 
L 218.927823 287.777105 
L 223.722461 287.076144 
L 225.640316 287.074909 
L 227.558172 287.42108 
L 229.476027 288.103898 
L 233.311737 289.778569 
L 235.229593 290.272723 
L 236.18852 290.348166 
L 237.147448 290.298349 
L 239.065303 289.851266 
L 240.983159 289.070106 
L 244.818869 287.342929 
L 246.736725 286.717257 
L 248.65458 286.329003 
L 250.572435 286.170871 
L 252.49029 286.238284 
L 254.408146 286.549519 
L 256.326001 287.12286 
L 258.243856 287.928269 
L 262.079567 289.698605 
L 263.997422 290.261042 
L 264.95635 290.386325 
L 266.874205 290.300153 
L 268.79206 289.849587 
L 272.627771 288.71874 
L 274.545626 288.408694 
L 279.340265 287.897628 
L 281.25812 287.257294 
L 286.052758 285.0604 
L 287.011686 284.911169 
L 287.970614 284.976329 
L 288.929541 285.277759 
L 289.888469 285.812847 
L 290.847396 286.553204 
L 292.765252 288.422865 
L 294.683107 290.295753 
L 295.642035 291.034227 
L 296.600962 291.556609 
L 297.55989 291.826551 
L 298.518818 291.83402 
L 299.477745 291.595698 
L 300.436673 291.15213 
L 302.354528 289.894501 
L 304.272384 288.60297 
L 305.231311 288.091905 
L 306.190239 287.716837 
L 307.149167 287.485788 
L 309.067022 287.386821 
L 312.902732 287.549937 
L 314.820588 287.28327 
L 318.656298 286.379539 
L 319.615226 286.311397 
L 320.574154 286.382206 
L 321.533081 286.607307 
L 322.492009 286.982295 
L 324.409864 288.065337 
L 326.32772 289.25053 
L 327.286647 289.731124 
L 328.245575 290.066329 
L 329.204502 290.221368 
L 330.16343 290.181961 
L 331.122358 289.956309 
L 333.040213 289.083654 
L 335.916996 287.578475 
L 336.875924 287.264613 
L 337.834851 287.11537 
L 338.793779 287.144674 
L 339.752707 287.344286 
L 341.670562 288.121087 
L 343.588417 289.045413 
L 344.547345 289.414506 
L 345.506273 289.654438 
L 346.4652 289.732986 
L 347.424128 289.636894 
L 348.383056 289.372918 
L 350.300911 288.458381 
L 353.177694 286.848931 
L 354.136621 286.456785 
L 355.095549 286.203036 
L 356.054477 286.107292 
L 357.013404 286.173471 
L 357.972332 286.390562 
L 359.890187 287.173816 
L 363.725898 289.121261 
L 365.643753 289.77176 
L 367.561609 290.025615 
L 369.479464 289.863913 
L 371.397319 289.320208 
L 373.315174 288.46798 
L 377.150885 286.461078 
L 378.109813 286.078593 
L 379.06874 285.81972 
L 380.027668 285.719497 
L 380.986596 285.804781 
L 381.945523 286.090008 
L 382.904451 286.573688 
L 383.863379 287.236208 
L 385.781234 288.928088 
L 387.699089 290.680378 
L 388.658017 291.390384 
L 389.616944 291.893068 
L 390.575872 292.131501 
L 391.5348 292.069026 
L 392.493727 291.693956 
L 393.452655 291.021974 
L 394.411583 290.095914 
L 396.329438 287.768991 
L 398.247293 285.433048 
L 399.206221 284.507218 
L 400.165149 283.855196 
L 401.124076 283.535462 
L 402.083004 283.578518 
L 403.041932 283.983444 
L 404.000859 284.717242 
L 404.959787 285.717123 
L 408.795498 290.435213 
L 409.754425 291.266773 
L 410.713353 291.788978 
L 411.67228 291.962599 
L 412.631208 291.783605 
L 413.590136 291.283659 
L 414.549063 290.526755 
L 418.384774 286.88337 
L 419.343702 286.321362 
L 420.302629 286.042828 
L 421.261557 286.066744 
L 422.220485 286.375591 
L 423.179412 286.917666 
L 427.015123 289.632135 
L 427.974051 289.972874 
L 428.932978 290.044441 
L 429.891906 289.83369 
L 430.850833 289.364634 
L 432.768689 287.912743 
L 434.686544 286.419669 
L 435.645472 285.914406 
L 436.604399 285.679226 
L 437.563327 285.759551 
L 438.522255 286.163351 
L 439.481182 286.859214 
L 441.399038 288.824798 
L 443.316893 290.820008 
L 444.275821 291.530697 
L 445.234748 291.917341 
L 446.193676 291.91808 
L 447.152604 291.511261 
L 448.111531 290.718812 
L 449.070459 289.604785 
L 452.906169 284.241466 
L 453.865097 283.335186 
L 454.824025 282.824427 
L 455.782952 282.765531 
L 456.74188 283.172011 
L 457.700808 284.01347 
L 458.659735 285.218929 
L 460.577591 288.282433 
L 462.495446 291.334313 
L 463.454374 292.537868 
L 464.413301 293.397916 
L 465.372229 293.859739 
L 466.331157 293.907256 
L 467.290084 293.562395 
L 468.249012 292.880306 
L 469.20794 291.941107 
L 474.002578 286.595002 
L 474.961505 285.879661 
L 475.920433 285.346543 
L 476.879361 284.982056 
L 478.797216 284.653729 
L 480.715071 284.683074 
L 482.632927 284.974498 
L 484.550782 285.602019 
L 485.50971 286.088661 
L 487.427565 287.460176 
L 489.34542 289.27028 
L 491.263275 291.172362 
L 492.222203 291.994538 
L 493.181131 292.637641 
L 494.140058 293.041489 
L 495.098986 293.162437 
L 496.057914 292.97889 
L 497.016841 292.494416 
L 497.975769 291.738102 
L 499.893624 289.636904 
L 502.770407 286.196276 
L 503.729335 285.292869 
L 504.688263 284.613515 
L 505.64719 284.190895 
L 506.606118 284.035306 
L 507.565046 284.135321 
L 508.523973 284.460516 
L 509.482901 284.96586 
L 511.400756 286.297277 
L 514.277539 288.303233 
L 516.195394 289.234652 
L 518.11325 289.759227 
L 520.031105 289.962164 
L 522.907888 289.908653 
L 525.784671 289.573968 
L 528.661454 288.945367 
L 533.456092 287.660798 
L 535.373947 287.363597 
L 537.291803 287.275355 
L 541.127513 287.460313 
L 544.963224 287.56339 
L 548.798935 287.695608 
L 551.675717 288.082009 
L 555.511428 288.639025 
L 558.388211 288.756922 
L 561.264994 288.818446 
L 563.182849 289.02389 
L 567.977488 289.72026 
L 568.936415 289.657274 
L 569.895343 289.454944 
L 570.85427 289.101237 
L 572.772126 287.978885 
L 576.607836 285.285391 
L 577.566764 284.880504 
L 578.525692 284.6977 
L 579.484619 284.768274 
L 580.443547 285.100475 
L 581.402475 285.677779 
L 582.361402 286.459923 
L 587.156041 290.99868 
L 588.114968 291.518498 
L 589.073896 291.79063 
L 590.032824 291.805334 
L 590.991751 291.575878 
L 591.950679 291.135772 
L 593.868534 289.828784 
L 596.745317 287.67954 
L 598.663172 286.663652 
L 599.6221 286.347859 
L 600.581028 286.160024 
L 602.498883 286.115812 
L 604.416738 286.393841 
L 607.293521 287.14733 
L 614.964942 289.495512 
L 616.882798 289.66283 
L 618.800653 289.493855 
L 620.718508 289.033731 
L 622.636364 288.422245 
L 622.636364 288.422245 
" clip-path="url(#p56eb95bd5d)" style="fill: none; stroke: #2ca02c; stroke-width: 1.5; stroke-linecap: square"/>
   </g>
   <g id="line2d_11">
    <path d="M 115.363636 253.421165 
L 119.199347 255.409061 
L 121.117202 256.194325 
L 123.035058 256.702945 
L 123.993985 256.809115 
L 124.952913 256.79094 
L 125.911841 256.631533 
L 126.870768 256.319278 
L 127.829696 255.850932 
L 129.747551 254.490344 
L 134.542189 250.385495 
L 135.501117 249.866021 
L 136.460045 249.554694 
L 137.418972 249.471489 
L 138.3779 249.617463 
L 139.336828 249.974647 
L 140.295755 250.508073 
L 142.213611 251.9035 
L 144.131466 253.36091 
L 146.049321 254.496681 
L 147.008249 254.875537 
L 147.967176 255.121487 
L 149.885032 255.270827 
L 151.802887 255.125767 
L 157.556453 254.311707 
L 159.474308 253.880761 
L 162.351091 252.965587 
L 165.227874 252.105118 
L 167.14573 251.874372 
L 169.063585 252.033104 
L 170.98144 252.512997 
L 174.817151 253.649825 
L 176.735006 253.938872 
L 178.652861 253.963159 
L 182.488572 253.595129 
L 185.365355 253.425876 
L 188.242138 253.50245 
L 192.077848 253.651558 
L 194.954631 253.526517 
L 198.790342 253.059544 
L 201.667125 252.75307 
L 203.58498 252.71419 
L 205.502836 252.872935 
L 207.420691 253.234156 
L 212.215329 254.424882 
L 214.133184 254.587784 
L 216.05104 254.360413 
L 217.968895 253.745286 
L 222.763533 251.734775 
L 223.722461 251.517431 
L 224.681389 251.425891 
L 225.640316 251.471541 
L 226.599244 251.654814 
L 228.517099 252.381948 
L 234.270665 255.259722 
L 235.229593 255.494511 
L 236.18852 255.603814 
L 237.147448 255.586655 
L 239.065303 255.214069 
L 240.983159 254.52423 
L 245.777797 252.605089 
L 248.65458 251.808697 
L 250.572435 251.455832 
L 252.49029 251.271826 
L 254.408146 251.329556 
L 256.326001 251.712813 
L 258.243856 252.452089 
L 261.120639 254.028197 
L 263.038495 255.080931 
L 264.95635 255.833569 
L 265.915278 256.0327 
L 266.874205 256.09569 
L 267.833133 256.022213 
L 269.750988 255.517212 
L 272.627771 254.252958 
L 275.504554 253.064976 
L 277.422409 252.51904 
L 281.25812 251.802171 
L 285.093831 251.243995 
L 287.011686 251.239039 
L 288.929541 251.619851 
L 290.847396 252.415909 
L 295.642035 254.960319 
L 296.600962 255.281706 
L 297.55989 255.481319 
L 298.518818 255.556177 
L 300.436673 255.382643 
L 307.149167 254.0423 
L 310.025949 253.646535 
L 311.943805 253.160416 
L 314.820588 252.048812 
L 316.738443 251.338278 
L 317.697371 251.103287 
L 318.656298 250.993053 
L 319.615226 251.028525 
L 320.574154 251.21645 
L 321.533081 251.54791 
L 323.450937 252.53282 
L 326.32772 254.169464 
L 327.286647 254.57637 
L 328.245575 254.857768 
L 329.204502 254.998689 
L 330.16343 254.998774 
L 332.081285 254.642239 
L 336.875924 253.189742 
L 338.793779 252.998783 
L 340.711634 253.122875 
L 346.4652 253.967145 
L 348.383056 253.978217 
L 350.300911 253.808876 
L 353.177694 253.333515 
L 357.972332 252.45974 
L 359.890187 252.276458 
L 361.808043 252.301406 
L 363.725898 252.580438 
L 365.643753 253.087638 
L 369.479464 254.213299 
L 371.397319 254.414583 
L 372.356247 254.353648 
L 374.274102 253.910066 
L 379.06874 252.253449 
L 380.027668 252.155345 
L 380.986596 252.212278 
L 381.945523 252.432536 
L 382.904451 252.807068 
L 384.822306 253.898255 
L 386.740162 255.114481 
L 387.699089 255.621324 
L 388.658017 255.985101 
L 389.616944 256.161579 
L 390.575872 256.122272 
L 391.5348 255.857579 
L 392.493727 255.378042 
L 393.452655 254.713612 
L 395.37051 253.029589 
L 397.288366 251.297938 
L 398.247293 250.57927 
L 399.206221 250.033728 
L 400.165149 249.701138 
L 401.124076 249.60434 
L 402.083004 249.747718 
L 403.041932 250.11728 
L 404.000859 250.682241 
L 405.918715 252.209635 
L 408.795498 254.625256 
L 409.754425 255.242923 
L 410.713353 255.70003 
L 411.67228 255.977079 
L 412.631208 256.070172 
L 413.590136 255.990523 
L 415.507991 255.421455 
L 420.302629 253.460362 
L 422.220485 253.124174 
L 424.13834 253.09218 
L 427.015123 253.17402 
L 428.932978 253.000992 
L 430.850833 252.560047 
L 433.727616 251.752763 
L 434.686544 251.592746 
L 435.645472 251.551376 
L 436.604399 251.656339 
L 437.563327 251.921846 
L 438.522255 252.345598 
L 440.44011 253.569717 
L 443.316893 255.587825 
L 444.275821 256.051871 
L 445.234748 256.311139 
L 446.193676 256.325281 
L 447.152604 256.075317 
L 448.111531 255.567029 
L 449.070459 254.831833 
L 450.988314 252.920813 
L 452.906169 250.973828 
L 453.865097 250.209467 
L 454.824025 249.68738 
L 455.782952 249.460805 
L 456.74188 249.556854 
L 457.700808 249.973557 
L 458.659735 250.679804 
L 460.577591 252.710569 
L 462.495446 254.987523 
L 463.454374 255.985701 
L 464.413301 256.782802 
L 465.372229 257.321925 
L 466.331157 257.571159 
L 467.290084 257.525333 
L 468.249012 257.20481 
L 469.20794 256.651557 
L 471.125795 255.085163 
L 474.002578 252.543134 
L 475.920433 251.270927 
L 476.879361 250.822321 
L 478.797216 250.286851 
L 480.715071 250.169758 
L 482.632927 250.427415 
L 484.550782 251.084021 
L 486.468637 252.174278 
L 488.386493 253.636787 
L 491.263275 255.984684 
L 492.222203 256.618116 
L 493.181131 257.094122 
L 494.140058 257.37367 
L 495.098986 257.431449 
L 496.057914 257.25888 
L 497.016841 256.865284 
L 497.975769 256.277063 
L 499.893624 254.690432 
L 502.770407 252.101757 
L 504.688263 250.814982 
L 505.64719 250.397308 
L 506.606118 250.143792 
L 507.565046 250.050868 
L 508.523973 250.106496 
L 510.441828 250.589265 
L 512.359684 251.42704 
L 515.236467 253.015591 
L 518.11325 254.607864 
L 520.031105 255.430221 
L 521.94896 255.875632 
L 522.907888 255.918984 
L 523.866816 255.835124 
L 525.784671 255.316384 
L 527.702526 254.470686 
L 530.579309 253.151541 
L 532.497164 252.589434 
L 534.41502 252.402172 
L 536.332875 252.50955 
L 540.168586 252.831397 
L 542.086441 252.745226 
L 546.881079 252.233627 
L 548.798935 252.355957 
L 550.71679 252.781695 
L 556.470356 254.478312 
L 558.388211 254.698927 
L 561.264994 254.729459 
L 567.01856 254.538295 
L 568.936415 254.136183 
L 570.85427 253.342627 
L 572.772126 252.198553 
L 575.648909 250.429224 
L 576.607836 250.034798 
L 577.566764 249.825869 
L 578.525692 249.840819 
L 579.484619 250.100773 
L 580.443547 250.605966 
L 581.402475 251.334191 
L 583.32033 253.265921 
L 585.238185 255.356345 
L 586.197113 256.259376 
L 587.156041 256.9684 
L 588.114968 257.426884 
L 589.073896 257.599402 
L 590.032824 257.474964 
L 590.991751 257.067917 
L 591.950679 256.416305 
L 593.868534 254.624414 
L 595.786389 252.685725 
L 596.745317 251.848677 
L 597.704245 251.179695 
L 598.663172 250.717172 
L 599.6221 250.479146 
L 600.581028 250.463192 
L 601.539955 250.648347 
L 602.498883 250.998731 
L 604.416738 252.00644 
L 607.293521 253.558824 
L 609.211377 254.212397 
L 611.129232 254.455349 
L 613.047087 254.365155 
L 621.677436 253.31123 
L 622.636364 253.273294 
L 622.636364 253.273294 
" clip-path="url(#p56eb95bd5d)" style="fill: none; stroke: #d62728; stroke-width: 1.5; stroke-linecap: square"/>
   </g>
   <g id="line2d_12">
    <path d="M 115.363636 218.768256 
L 117.281492 218.530205 
L 119.199347 218.534622 
L 121.117202 218.916504 
L 125.911841 220.36022 
L 126.870768 220.392677 
L 127.829696 220.259825 
L 128.788623 219.956466 
L 130.706479 218.915057 
L 133.583262 216.962227 
L 134.542189 216.441901 
L 135.501117 216.074431 
L 136.460045 215.892575 
L 137.418972 215.910529 
L 138.3779 216.122934 
L 139.336828 216.506119 
L 141.254683 217.619392 
L 144.131466 219.380811 
L 145.090394 219.805009 
L 146.049321 220.098594 
L 147.008249 220.252979 
L 147.967176 220.273627 
L 149.885032 219.992573 
L 155.638598 218.60958 
L 157.556453 218.436491 
L 173.858223 217.897458 
L 176.735006 217.991518 
L 178.652861 218.205642 
L 180.570717 218.592279 
L 186.324283 220.130471 
L 187.28321 220.217773 
L 188.242138 220.193341 
L 189.201065 220.045039 
L 191.118921 219.383923 
L 193.995704 217.827728 
L 195.913559 216.898064 
L 196.872487 216.604381 
L 197.831414 216.471225 
L 198.790342 216.515878 
L 199.74927 216.738064 
L 200.708197 217.11922 
L 202.626053 218.203588 
L 204.543908 219.35934 
L 205.502836 219.824025 
L 206.461763 220.153511 
L 207.420691 220.321611 
L 208.379618 220.320557 
L 209.338546 220.161183 
L 211.256401 219.488303 
L 214.133184 218.240457 
L 216.05104 217.683385 
L 217.968895 217.464077 
L 220.845678 217.510848 
L 226.599244 217.711947 
L 228.517099 218.152029 
L 230.434954 219.002045 
L 234.270665 221.167188 
L 235.229593 221.50449 
L 236.18852 221.650887 
L 237.147448 221.572089 
L 238.106376 221.255321 
L 239.065303 220.71207 
L 240.983159 219.107754 
L 243.859942 216.405856 
L 244.818869 215.713213 
L 245.777797 215.216872 
L 246.736725 214.944942 
L 247.695652 214.904545 
L 248.65458 215.083261 
L 249.613507 215.452659 
L 251.531363 216.599646 
L 255.367073 219.315367 
L 257.284929 220.373304 
L 259.202784 221.05787 
L 260.161712 221.240861 
L 261.120639 221.309587 
L 262.079567 221.258717 
L 263.038495 221.084358 
L 263.997422 220.785679 
L 265.915278 219.840432 
L 268.79206 217.878298 
L 270.709916 216.683014 
L 271.668843 216.275679 
L 272.627771 216.058006 
L 273.586699 216.060781 
L 274.545626 216.294693 
L 275.504554 216.746479 
L 277.422409 218.1273 
L 279.340265 219.65612 
L 280.299192 220.259999 
L 281.25812 220.652235 
L 282.217048 220.778976 
L 283.175975 220.615723 
L 284.134903 220.171529 
L 285.093831 219.489071 
L 288.929541 216.07771 
L 289.888469 215.551258 
L 290.847396 215.318663 
L 291.806324 215.416329 
L 292.765252 215.845608 
L 293.724179 216.572642 
L 295.642035 218.63382 
L 297.55989 220.840435 
L 298.518818 221.733899 
L 299.477745 222.368374 
L 300.436673 222.684211 
L 301.395601 222.65254 
L 302.354528 222.277344 
L 303.313456 221.594082 
L 304.272384 220.665118 
L 308.108094 216.247713 
L 309.067022 215.411211 
L 310.025949 214.818 
L 310.984877 214.501622 
L 311.943805 214.473292 
L 312.902732 214.723416 
L 313.86166 215.224577 
L 314.820588 215.935389 
L 316.738443 217.775239 
L 319.615226 220.703956 
L 320.574154 221.499198 
L 321.533081 222.122488 
L 322.492009 222.535702 
L 323.450937 222.710461 
L 324.409864 222.63013 
L 325.368792 222.291726 
L 326.32772 221.707446 
L 327.286647 220.905474 
L 329.204502 218.838353 
L 332.081285 215.592367 
L 333.040213 214.772197 
L 333.999141 214.19424 
L 334.958068 213.903986 
L 335.916996 213.926111 
L 336.875924 214.261824 
L 337.834851 214.888266 
L 338.793779 215.760054 
L 340.711634 217.968715 
L 342.62949 220.248916 
L 343.588417 221.209588 
L 344.547345 221.959009 
L 345.506273 222.449465 
L 346.4652 222.654154 
L 347.424128 222.568463 
L 348.383056 222.209375 
L 349.341983 221.613176 
L 351.259838 219.927983 
L 354.136621 217.166494 
L 355.095549 216.441388 
L 356.054477 215.897835 
L 357.013404 215.56686 
L 357.972332 215.464556 
L 358.93126 215.591885 
L 359.890187 215.935281 
L 360.849115 216.467892 
L 362.76697 217.937856 
L 365.643753 220.353145 
L 366.602681 220.98228 
L 367.561609 221.434655 
L 368.520536 221.669667 
L 369.479464 221.660062 
L 370.438391 221.394921 
L 371.397319 220.881878 
L 372.356247 220.148203 
L 374.274102 218.222183 
L 376.191957 216.169992 
L 377.150885 215.306352 
L 378.109813 214.658523 
L 379.06874 214.291258 
L 380.027668 214.248362 
L 380.986596 214.547538 
L 381.945523 215.177474 
L 382.904451 216.097571 
L 384.822306 218.516975 
L 386.740162 221.051678 
L 387.699089 222.096114 
L 388.658017 222.866144 
L 389.616944 223.293436 
L 390.575872 223.338996 
L 391.5348 222.997316 
L 392.493727 222.29738 
L 393.452655 221.300305 
L 395.37051 218.78389 
L 397.288366 216.309024 
L 398.247293 215.355116 
L 399.206221 214.700739 
L 400.165149 214.39522 
L 401.124076 214.456152 
L 402.083004 214.868917 
L 403.041932 215.589175 
L 404.959787 217.658266 
L 406.877642 219.946967 
L 407.83657 220.937016 
L 408.795498 221.717563 
L 409.754425 222.232144 
L 410.713353 222.44808 
L 411.67228 222.35813 
L 412.631208 221.979832 
L 413.590136 221.352622 
L 415.507991 219.588479 
L 418.384774 216.700184 
L 419.343702 215.915183 
L 420.302629 215.284337 
L 421.261557 214.823686 
L 422.220485 214.535418 
L 423.179412 214.411308 
L 424.13834 214.437161 
L 425.097268 214.597428 
L 427.015123 215.274867 
L 428.932978 216.406953 
L 430.850833 218.022865 
L 432.768689 220.112099 
L 436.604399 224.717766 
L 437.563327 225.588217 
L 438.522255 226.186511 
L 439.481182 226.43905 
L 440.44011 226.288665 
L 441.399038 225.701909 
L 442.357965 224.674563 
L 443.316893 223.23466 
L 444.275821 221.442555 
L 446.193676 217.183902 
L 448.111531 212.847533 
L 449.070459 210.979345 
L 450.029386 209.470231 
L 450.988314 208.413465 
L 451.947242 207.873451 
L 452.906169 207.881853 
L 453.865097 208.436338 
L 454.824025 209.501832 
L 455.782952 211.013952 
L 456.74188 212.884148 
L 458.659735 217.262434 
L 460.577591 221.698941 
L 461.536518 223.654283 
L 462.495446 225.306815 
L 463.454374 226.585129 
L 464.413301 227.441454 
L 465.372229 227.853416 
L 466.331157 227.824084 
L 467.290084 227.380265 
L 468.249012 226.569183 
L 469.20794 225.453865 
L 471.125795 222.608869 
L 474.002578 217.943195 
L 475.920433 215.301937 
L 476.879361 214.250617 
L 477.838288 213.411991 
L 478.797216 212.800343 
L 479.756144 212.42319 
L 480.715071 212.282408 
L 481.673999 212.374869 
L 482.632927 212.692553 
L 483.591854 213.222192 
L 484.550782 213.944615 
L 486.468637 215.857389 
L 491.263275 221.367723 
L 492.222203 222.173019 
L 493.181131 222.760758 
L 494.140058 223.09614 
L 495.098986 223.159041 
L 496.057914 222.946709 
L 497.016841 222.475243 
L 497.975769 221.779579 
L 499.893624 219.937823 
L 501.81148 217.973378 
L 502.770407 217.134553 
L 503.729335 216.479389 
L 504.688263 216.05478 
L 505.64719 215.886429 
L 506.606118 215.976122 
L 507.565046 216.301393 
L 508.523973 216.817726 
L 512.359684 219.443007 
L 513.318611 219.892176 
L 514.277539 220.1582 
L 515.236467 220.225654 
L 516.195394 220.101954 
L 517.154322 219.815046 
L 519.072177 218.936197 
L 520.990033 218.011528 
L 522.907888 217.403733 
L 523.866816 217.27738 
L 525.784671 217.364639 
L 528.661454 217.981581 
L 531.538237 218.529992 
L 534.41502 218.74103 
L 540.168586 219.037129 
L 543.045369 219.112486 
L 545.922152 218.873244 
L 550.71679 218.325266 
L 553.593573 218.326044 
L 559.347139 218.439494 
L 562.223922 218.536951 
L 565.100705 218.92152 
L 567.977488 219.281028 
L 569.895343 219.145813 
L 570.85427 218.903678 
L 572.772126 218.092097 
L 575.648909 216.593253 
L 576.607836 216.235827 
L 577.566764 216.04318 
L 578.525692 216.056118 
L 579.484619 216.296396 
L 580.443547 216.762885 
L 581.402475 217.430358 
L 583.32033 219.159363 
L 585.238185 220.925274 
L 586.197113 221.626097 
L 587.156041 222.117184 
L 588.114968 222.354962 
L 589.073896 222.319535 
L 590.032824 222.016242 
L 590.991751 221.474407 
L 592.909606 219.887463 
L 595.786389 217.272047 
L 596.745317 216.592228 
L 597.704245 216.079765 
L 598.663172 215.751739 
L 599.6221 215.607927 
L 600.581028 215.63332 
L 602.498883 216.081944 
L 605.375666 217.265705 
L 609.211377 218.858657 
L 612.088159 219.795208 
L 614.006015 220.218416 
L 615.92387 220.379089 
L 617.841725 220.196397 
L 619.759581 219.667692 
L 622.636364 218.506436 
L 622.636364 218.506436 
" clip-path="url(#p56eb95bd5d)" style="fill: none; stroke: #9467bd; stroke-width: 1.5; stroke-linecap: square"/>
   </g>
   <g id="line2d_13">
    <path d="M 115.363636 183.836755 
L 117.281492 183.427517 
L 118.240419 183.402338 
L 119.199347 183.568359 
L 120.158275 183.942726 
L 121.117202 184.507718 
L 124.952913 187.276193 
L 125.911841 187.616181 
L 126.870768 187.644037 
L 127.829696 187.320094 
L 128.788623 186.644927 
L 129.747551 185.661031 
L 131.665406 183.118417 
L 133.583262 180.607901 
L 134.542189 179.669823 
L 135.501117 179.068946 
L 136.460045 178.85669 
L 137.418972 179.043089 
L 138.3779 179.59671 
L 139.336828 180.449438 
L 143.172538 184.772283 
L 144.131466 185.556433 
L 145.090394 186.074729 
L 146.049321 186.306522 
L 147.008249 186.264852 
L 147.967176 185.99251 
L 149.885032 185.029114 
L 151.802887 184.024889 
L 152.761815 183.671269 
L 153.720742 183.465744 
L 154.67967 183.414383 
L 156.597525 183.685172 
L 159.474308 184.351898 
L 161.392164 184.470111 
L 163.310019 184.199067 
L 167.14573 183.282384 
L 169.063585 183.106609 
L 174.817151 183.08716 
L 176.735006 182.657529 
L 178.652861 182.139407 
L 179.611789 181.966411 
L 180.570717 181.921195 
L 181.529644 182.04626 
L 182.488572 182.366208 
L 183.4475 182.881835 
L 185.365355 184.370886 
L 187.28321 186.028582 
L 188.242138 186.708655 
L 189.201065 187.180811 
L 190.159993 187.385469 
L 191.118921 187.291219 
L 192.077848 186.899589 
L 193.036776 186.245327 
L 194.954631 184.424572 
L 196.872487 182.522845 
L 197.831414 181.761635 
L 198.790342 181.212081 
L 199.74927 180.905716 
L 200.708197 180.845578 
L 201.667125 181.00856 
L 202.626053 181.350977 
L 204.543908 182.343751 
L 206.461763 183.367771 
L 208.379618 184.114949 
L 210.297474 184.51267 
L 212.215329 184.660823 
L 215.092112 184.676018 
L 217.009967 184.569126 
L 218.927823 184.277655 
L 220.845678 183.754033 
L 224.681389 182.518119 
L 225.640316 182.363737 
L 226.599244 182.339863 
L 227.558172 182.465589 
L 228.517099 182.743929 
L 230.434954 183.678238 
L 233.311737 185.307902 
L 234.270665 185.667705 
L 235.229593 185.846333 
L 236.18852 185.814844 
L 237.147448 185.568539 
L 238.106376 185.128703 
L 240.024231 183.869023 
L 241.942086 182.574473 
L 242.901014 182.093619 
L 243.859942 181.793833 
L 244.818869 181.6987 
L 245.777797 181.804774 
L 246.736725 182.082978 
L 251.531363 184.085004 
L 252.49029 184.245005 
L 254.408146 184.197725 
L 258.243856 183.614504 
L 260.161712 183.693479 
L 262.079567 184.114305 
L 264.95635 184.806264 
L 265.915278 184.876854 
L 266.874205 184.81429 
L 267.833133 184.611729 
L 269.750988 183.863971 
L 271.668843 182.966809 
L 272.627771 182.613587 
L 273.586699 182.400637 
L 274.545626 182.367445 
L 275.504554 182.530398 
L 276.463482 182.87878 
L 278.381337 183.955345 
L 280.299192 185.0523 
L 281.25812 185.403386 
L 282.217048 185.532914 
L 283.175975 185.403871 
L 284.134903 185.012017 
L 285.093831 184.388056 
L 288.929541 181.149779 
L 289.888469 180.651603 
L 290.847396 180.448562 
L 291.806324 180.580089 
L 292.765252 181.047975 
L 293.724179 181.81556 
L 295.642035 183.938109 
L 297.55989 186.126745 
L 298.518818 186.967676 
L 299.477745 187.521698 
L 300.436673 187.737216 
L 301.395601 187.598942 
L 302.354528 187.128451 
L 303.313456 186.380288 
L 305.231311 184.385102 
L 307.149167 182.361794 
L 308.108094 181.551282 
L 309.067022 180.949551 
L 310.025949 180.581225 
L 310.984877 180.44643 
L 311.943805 180.524986 
L 312.902732 180.782697 
L 314.820588 181.671371 
L 317.697371 183.415321 
L 321.533081 185.761714 
L 323.450937 186.690178 
L 324.409864 186.995822 
L 325.368792 187.144511 
L 326.32772 187.100583 
L 327.286647 186.838228 
L 328.245575 186.347626 
L 329.204502 185.639631 
L 331.122358 183.728727 
L 333.040213 181.615062 
L 333.999141 180.694424 
L 334.958068 179.975079 
L 335.916996 179.521818 
L 336.875924 179.375559 
L 337.834851 179.548539 
L 338.793779 180.022894 
L 339.752707 180.752785 
L 341.670562 182.69061 
L 343.588417 184.692586 
L 344.547345 185.516015 
L 345.506273 186.142647 
L 346.4652 186.540628 
L 347.424128 186.701307 
L 348.383056 186.63744 
L 349.341983 186.379254 
L 351.259838 185.455916 
L 355.095549 183.297472 
L 357.013404 182.623227 
L 357.972332 182.451715 
L 358.93126 182.398519 
L 359.890187 182.463753 
L 361.808043 182.926532 
L 363.725898 183.735941 
L 366.602681 185.097879 
L 367.561609 185.425753 
L 368.520536 185.615129 
L 369.479464 185.627404 
L 370.438391 185.435565 
L 371.397319 185.029018 
L 372.356247 184.417298 
L 374.274102 182.726455 
L 376.191957 180.856695 
L 377.150885 180.069764 
L 378.109813 179.500814 
L 379.06874 179.226438 
L 380.027668 179.30218 
L 380.986596 179.755189 
L 381.945523 180.579195 
L 382.904451 181.732425 
L 384.822306 184.692562 
L 386.740162 187.720309 
L 387.699089 188.917855 
L 388.658017 189.73617 
L 389.616944 190.081029 
L 390.575872 189.897875 
L 391.5348 189.179885 
L 392.493727 187.97153 
L 393.452655 186.366889 
L 397.288366 179.078838 
L 398.247293 177.904719 
L 399.206221 177.275024 
L 400.165149 177.257808 
L 401.124076 177.862058 
L 402.083004 179.035721 
L 403.041932 180.670054 
L 406.877642 188.357381 
L 407.83657 189.631054 
L 408.795498 190.348982 
L 409.754425 190.446215 
L 410.713353 189.919632 
L 411.67228 188.827376 
L 412.631208 187.281685 
L 416.466919 179.876895 
L 417.425846 178.558303 
L 418.384774 177.694944 
L 419.343702 177.327429 
L 420.302629 177.443892 
L 421.261557 177.984987 
L 422.220485 178.854166 
L 426.056195 183.211874 
L 427.015123 184.018393 
L 427.974051 184.614145 
L 428.932978 185.015653 
L 430.850833 185.45197 
L 432.768689 185.893724 
L 433.727616 186.280115 
L 434.686544 186.817995 
L 436.604399 188.266425 
L 438.522255 189.750985 
L 439.481182 190.254511 
L 440.44011 190.456035 
L 441.399038 190.267171 
L 442.357965 189.62921 
L 443.316893 188.521866 
L 444.275821 186.967886 
L 445.234748 185.033069 
L 450.029386 174.118287 
L 450.988314 172.736146 
L 451.947242 171.918254 
L 452.906169 171.731391 
L 453.865097 172.20026 
L 454.824025 173.306243 
L 455.782952 174.989295 
L 456.74188 177.152632 
L 458.659735 182.392922 
L 460.577591 187.822044 
L 461.536518 190.21878 
L 462.495446 192.223546 
L 463.454374 193.734106 
L 464.413301 194.682562 
L 465.372229 195.039124 
L 466.331157 194.812853 
L 467.290084 194.049278 
L 468.249012 192.8251 
L 469.20794 191.240538 
L 471.125795 187.453073 
L 473.04365 183.604135 
L 474.002578 181.897379 
L 474.961505 180.424672 
L 475.920433 179.224011 
L 476.879361 178.311531 
L 477.838288 177.684711 
L 478.797216 177.326881 
L 479.756144 177.212324 
L 480.715071 177.311235 
L 481.673999 177.593916 
L 482.632927 178.033706 
L 484.550782 179.300153 
L 486.468637 180.975761 
L 489.34542 183.957377 
L 491.263275 185.926235 
L 492.222203 186.780412 
L 493.181131 187.483809 
L 494.140058 187.99147 
L 495.098986 188.266836 
L 496.057914 188.286695 
L 497.016841 188.045316 
L 497.975769 187.557094 
L 498.934697 186.857192 
L 500.852552 185.054523 
L 502.770407 183.214815 
L 503.729335 182.47356 
L 504.688263 181.934332 
L 505.64719 181.634481 
L 506.606118 181.585787 
L 507.565046 181.773019 
L 508.523973 182.155751 
L 513.318611 184.632267 
L 514.277539 184.793647 
L 515.236467 184.769284 
L 516.195394 184.573557 
L 518.11325 183.823489 
L 520.031105 182.954715 
L 521.94896 182.367509 
L 522.907888 182.251779 
L 524.825743 182.374348 
L 527.702526 183.064637 
L 530.579309 183.667871 
L 534.41502 184.041486 
L 537.291803 184.450601 
L 541.127513 185.103559 
L 543.045369 185.10423 
L 544.963224 184.733702 
L 546.881079 184.061734 
L 549.757862 182.949578 
L 551.675717 182.466122 
L 553.593573 182.324179 
L 555.511428 182.492947 
L 558.388211 183.086795 
L 565.100705 184.646423 
L 567.01856 184.882865 
L 568.936415 184.849077 
L 570.85427 184.45808 
L 572.772126 183.727986 
L 576.607836 182.054928 
L 577.566764 181.819431 
L 578.525692 181.730936 
L 579.484619 181.810714 
L 580.443547 182.065168 
L 581.402475 182.484003 
L 583.32033 183.691666 
L 586.197113 185.657669 
L 587.156041 186.121733 
L 588.114968 186.409342 
L 589.073896 186.493106 
L 590.032824 186.364551 
L 590.991751 186.034988 
L 591.950679 185.534192 
L 593.868534 184.208686 
L 595.786389 182.833506 
L 596.745317 182.263843 
L 597.704245 181.82699 
L 598.663172 181.545528 
L 599.6221 181.426049 
L 600.581028 181.460098 
L 602.498883 181.896439 
L 609.211377 184.185975 
L 612.088159 184.651033 
L 614.964942 184.831787 
L 616.882798 184.777045 
L 618.800653 184.54624 
L 621.677436 183.915119 
L 622.636364 183.67355 
L 622.636364 183.67355 
" clip-path="url(#p56eb95bd5d)" style="fill: none; stroke: #8c564b; stroke-width: 1.5; stroke-linecap: square"/>
   </g>
   <g id="line2d_14">
    <path d="M 115.363636 148.928801 
L 117.281492 148.085138 
L 118.240419 147.908712 
L 119.199347 147.990754 
L 120.158275 148.35954 
L 121.117202 149.002022 
L 123.035058 150.855489 
L 124.952913 152.754993 
L 125.911841 153.414593 
L 126.870768 153.73894 
L 127.829696 153.661258 
L 128.788623 153.158879 
L 129.747551 152.257378 
L 130.706479 151.028512 
L 134.542189 145.318296 
L 135.501117 144.361417 
L 136.460045 143.793313 
L 137.418972 143.647827 
L 138.3779 143.91328 
L 139.336828 144.535957 
L 140.295755 145.42853 
L 144.131466 149.490979 
L 145.090394 150.150596 
L 146.049321 150.563695 
L 147.008249 150.735522 
L 147.967176 150.701148 
L 149.885032 150.253815 
L 151.802887 149.752529 
L 153.720742 149.586996 
L 155.638598 149.809497 
L 158.515381 150.262756 
L 159.474308 150.265616 
L 160.433236 150.145 
L 162.351091 149.537288 
L 167.14573 147.431262 
L 168.104657 147.244073 
L 169.063585 147.19343 
L 170.022512 147.275391 
L 171.940368 147.752075 
L 175.776078 148.990145 
L 177.693934 149.283755 
L 179.611789 149.279735 
L 186.324283 148.768529 
L 189.201065 148.924609 
L 197.831414 149.575216 
L 199.74927 149.558257 
L 201.667125 149.374594 
L 204.543908 148.784445 
L 207.420691 148.139424 
L 209.338546 147.958667 
L 211.256401 148.09614 
L 214.133184 148.721047 
L 216.05104 149.086094 
L 217.968895 149.133162 
L 219.88675 148.783404 
L 223.722461 147.646907 
L 224.681389 147.519976 
L 225.640316 147.535523 
L 226.599244 147.713754 
L 227.558172 148.057276 
L 229.476027 149.156662 
L 232.35281 151.123051 
L 233.311737 151.620749 
L 234.270665 151.946665 
L 235.229593 152.064436 
L 236.18852 151.957161 
L 237.147448 151.629411 
L 238.106376 151.106799 
L 240.024231 149.665415 
L 241.942086 148.102646 
L 243.859942 146.883582 
L 244.818869 146.498188 
L 245.777797 146.278212 
L 246.736725 146.213431 
L 248.65458 146.442083 
L 257.284929 148.518928 
L 259.202784 149.273538 
L 263.997422 151.593688 
L 264.95635 151.845694 
L 265.915278 151.939458 
L 266.874205 151.858481 
L 267.833133 151.604564 
L 269.750988 150.678681 
L 272.627771 148.962224 
L 274.545626 148.182416 
L 275.504554 147.982219 
L 277.422409 147.896367 
L 280.299192 147.900973 
L 281.25812 147.749434 
L 283.175975 147.094209 
L 286.052758 145.728051 
L 287.011686 145.437668 
L 287.970614 145.356959 
L 288.929541 145.543344 
L 289.888469 146.027002 
L 290.847396 146.80422 
L 291.806324 147.83514 
L 295.642035 152.70407 
L 296.600962 153.557215 
L 297.55989 154.076626 
L 298.518818 154.217497 
L 299.477745 153.974547 
L 300.436673 153.381979 
L 301.395601 152.508361 
L 306.190239 147.365021 
L 307.149167 146.770228 
L 308.108094 146.406513 
L 309.067022 146.253021 
L 310.025949 146.267058 
L 311.943805 146.574763 
L 314.820588 147.037417 
L 317.697371 147.308845 
L 319.615226 147.791361 
L 320.574154 148.222309 
L 322.492009 149.460909 
L 325.368792 151.555909 
L 326.32772 152.024582 
L 327.286647 152.257277 
L 328.245575 152.208113 
L 329.204502 151.861453 
L 330.16343 151.236036 
L 332.081285 149.387888 
L 333.999141 147.369229 
L 334.958068 146.556653 
L 335.916996 145.992337 
L 336.875924 145.730726 
L 337.834851 145.791193 
L 338.793779 146.15634 
L 339.752707 146.775086 
L 341.670562 148.447775 
L 343.588417 150.071263 
L 344.547345 150.656934 
L 345.506273 151.022677 
L 346.4652 151.151605 
L 347.424128 151.054864 
L 348.383056 150.767364 
L 350.300911 149.834993 
L 352.218766 148.815855 
L 354.136621 148.061019 
L 356.054477 147.690024 
L 357.972332 147.632134 
L 359.890187 147.768211 
L 361.808043 148.056886 
L 363.725898 148.552101 
L 365.643753 149.300959 
L 368.520536 150.614804 
L 369.479464 150.934227 
L 370.438391 151.10196 
L 371.397319 151.068385 
L 372.356247 150.800085 
L 373.315174 150.287588 
L 374.274102 149.55054 
L 376.191957 147.632091 
L 378.109813 145.73988 
L 379.06874 145.074986 
L 380.027668 144.728752 
L 380.986596 144.768845 
L 381.945523 145.225938 
L 382.904451 146.087556 
L 383.863379 147.29662 
L 385.781234 150.33221 
L 387.699089 153.235669 
L 388.658017 154.263433 
L 389.616944 154.845273 
L 390.575872 154.906775 
L 391.5348 154.423772 
L 392.493727 153.426171 
L 393.452655 151.995919 
L 395.37051 148.374306 
L 397.288366 144.852671 
L 398.247293 143.540674 
L 399.206221 142.697127 
L 400.165149 142.39456 
L 401.124076 142.653218 
L 402.083004 143.440071 
L 403.041932 144.673295 
L 404.959787 147.96726 
L 406.877642 151.339957 
L 407.83657 152.68811 
L 408.795498 153.662636 
L 409.754425 154.199986 
L 410.713353 154.280001 
L 411.67228 153.924906 
L 412.631208 153.194026 
L 413.590136 152.175113 
L 417.425846 147.352387 
L 418.384774 146.439706 
L 419.343702 145.770392 
L 420.302629 145.363647 
L 421.261557 145.214209 
L 422.220485 145.29645 
L 423.179412 145.570071 
L 425.097268 146.495702 
L 428.932978 148.663022 
L 431.809761 149.937493 
L 435.645472 151.318123 
L 438.522255 152.155823 
L 440.44011 152.403719 
L 441.399038 152.355703 
L 442.357965 152.154369 
L 443.316893 151.774069 
L 444.275821 151.196191 
L 445.234748 150.413229 
L 446.193676 149.4327 
L 448.111531 147.001674 
L 450.988314 143.141037 
L 451.947242 142.152815 
L 452.906169 141.473985 
L 453.865097 141.18579 
L 454.824025 141.346589 
L 455.782952 141.983958 
L 456.74188 143.089173 
L 457.700808 144.614898 
L 459.618663 148.557855 
L 461.536518 152.809732 
L 462.495446 154.680714 
L 463.454374 156.198982 
L 464.413301 157.259465 
L 465.372229 157.794865 
L 466.331157 157.781446 
L 467.290084 157.240209 
L 468.249012 156.233268 
L 469.20794 154.855947 
L 471.125795 151.46918 
L 473.04365 148.055838 
L 474.002578 146.593125 
L 474.961505 145.379531 
L 475.920433 144.444677 
L 476.879361 143.792687 
L 477.838288 143.407736 
L 478.797216 143.261136 
L 479.756144 143.318646 
L 480.715071 143.546812 
L 481.673999 143.917415 
L 483.591854 145.009281 
L 485.50971 146.495887 
L 487.427565 148.294624 
L 491.263275 152.011918 
L 492.222203 152.724 
L 493.181131 153.257767 
L 494.140058 153.577188 
L 495.098986 153.658495 
L 496.057914 153.493042 
L 497.016841 153.088721 
L 497.975769 152.469797 
L 499.893624 150.755631 
L 502.770407 147.841928 
L 503.729335 147.01518 
L 504.688263 146.342699 
L 505.64719 145.856929 
L 506.606118 145.576138 
L 507.565046 145.503793 
L 508.523973 145.629096 
L 509.482901 145.928633 
L 511.400756 146.909791 
L 515.236467 149.231732 
L 517.154322 150.009212 
L 519.072177 150.345269 
L 520.990033 150.263247 
L 522.907888 149.888043 
L 526.743599 148.98811 
L 528.661454 148.779777 
L 530.579309 148.8153 
L 537.291803 149.385184 
L 539.209658 149.133656 
L 542.086441 148.364208 
L 544.963224 147.614525 
L 546.881079 147.437775 
L 548.798935 147.63168 
L 550.71679 148.144632 
L 554.5525 149.421778 
L 556.470356 149.829454 
L 558.388211 150.002216 
L 564.141777 150.022812 
L 567.01856 149.924228 
L 568.936415 149.536787 
L 570.85427 148.752909 
L 573.731053 147.053561 
L 575.648909 146.049691 
L 576.607836 145.74786 
L 577.566764 145.642555 
L 578.525692 145.764201 
L 579.484619 146.123899 
L 580.443547 146.710805 
L 582.361402 148.414008 
L 585.238185 151.302715 
L 586.197113 152.049135 
L 587.156041 152.577159 
L 588.114968 152.845767 
L 589.073896 152.836939 
L 590.032824 152.557053 
L 590.991751 152.035724 
L 592.909606 150.480062 
L 595.786389 147.88453 
L 596.745317 147.205642 
L 597.704245 146.692742 
L 598.663172 146.363799 
L 599.6221 146.219123 
L 600.581028 146.243646 
L 602.498883 146.686443 
L 605.375666 147.817327 
L 608.252449 148.875023 
L 611.129232 149.618727 
L 614.006015 150.066433 
L 615.92387 150.168301 
L 617.841725 150.058872 
L 619.759581 149.724782 
L 622.636364 148.954355 
L 622.636364 148.954355 
" clip-path="url(#p56eb95bd5d)" style="fill: none; stroke: #e377c2; stroke-width: 1.5; stroke-linecap: square"/>
   </g>
   <g id="line2d_15">
    <path d="M 115.363636 114.359099 
L 117.281492 114.228636 
L 118.240419 114.353282 
L 119.199347 114.6857 
L 120.158275 115.244892 
L 122.07613 116.914571 
L 123.993985 118.736672 
L 124.952913 119.401972 
L 125.911841 119.739811 
L 126.870768 119.656388 
L 127.829696 119.099345 
L 128.788623 118.067871 
L 129.747551 116.616402 
L 131.665406 112.919558 
L 133.583262 109.254302 
L 134.542189 107.86287 
L 135.501117 106.950598 
L 136.460045 106.600063 
L 137.418972 106.837253 
L 138.3779 107.629541 
L 139.336828 108.89038 
L 141.254683 112.270348 
L 143.172538 115.708185 
L 144.131466 117.069152 
L 145.090394 118.047744 
L 146.049321 118.59153 
L 147.008249 118.69677 
L 147.967176 118.405376 
L 148.926104 117.796646 
L 150.843959 116.055434 
L 152.761815 114.348426 
L 153.720742 113.721141 
L 154.67967 113.301443 
L 155.638598 113.091489 
L 156.597525 113.065157 
L 158.515381 113.365209 
L 160.433236 113.755247 
L 162.351091 113.90257 
L 164.268947 113.746879 
L 167.14573 113.369143 
L 169.063585 113.364962 
L 170.98144 113.649258 
L 174.817151 114.451823 
L 176.735006 114.568022 
L 178.652861 114.41163 
L 182.488572 113.867722 
L 184.406427 113.823558 
L 187.28321 114.120391 
L 190.159993 114.413085 
L 192.077848 114.357161 
L 194.954631 113.912155 
L 196.872487 113.607225 
L 198.790342 113.509961 
L 200.708197 113.698437 
L 207.420691 114.902834 
L 209.338546 114.826922 
L 212.215329 114.413057 
L 224.681389 112.314695 
L 225.640316 112.330588 
L 226.599244 112.470224 
L 227.558172 112.74823 
L 228.517099 113.166291 
L 230.434954 114.353172 
L 233.311737 116.391033 
L 234.270665 116.919954 
L 235.229593 117.286113 
L 236.18852 117.453206 
L 237.147448 117.402292 
L 238.106376 117.133997 
L 239.065303 116.668386 
L 240.983159 115.305918 
L 243.859942 112.992027 
L 245.777797 111.837746 
L 246.736725 111.461087 
L 247.695652 111.224748 
L 248.65458 111.120239 
L 250.572435 111.242813 
L 252.49029 111.691301 
L 254.408146 112.36651 
L 256.326001 113.226559 
L 260.161712 115.308818 
L 262.079567 116.252428 
L 263.038495 116.601897 
L 263.997422 116.831327 
L 264.95635 116.919308 
L 265.915278 116.854703 
L 266.874205 116.639228 
L 268.79206 115.831813 
L 272.627771 113.809436 
L 273.586699 113.472129 
L 274.545626 113.258785 
L 276.463482 113.192461 
L 281.25812 113.584634 
L 282.217048 113.443481 
L 284.134903 112.840873 
L 287.011686 111.687742 
L 287.970614 111.458624 
L 288.929541 111.396122 
L 289.888469 111.533355 
L 290.847396 111.881995 
L 291.806324 112.430079 
L 293.724179 113.966825 
L 296.600962 116.42381 
L 297.55989 117.017221 
L 298.518818 117.416129 
L 299.477745 117.599379 
L 300.436673 117.567009 
L 301.395601 117.338562 
L 303.313456 116.443344 
L 308.108094 113.666419 
L 310.025949 112.866129 
L 312.902732 111.983829 
L 314.820588 111.587701 
L 316.738443 111.478917 
L 317.697371 111.593615 
L 318.656298 111.849184 
L 319.615226 112.254495 
L 321.533081 113.471286 
L 325.368792 116.31483 
L 326.32772 116.747383 
L 327.286647 116.955035 
L 328.245575 116.90969 
L 329.204502 116.60853 
L 330.16343 116.075652 
L 332.081285 114.533048 
L 333.999141 112.879307 
L 334.958068 112.223101 
L 335.916996 111.77602 
L 336.875924 111.583881 
L 337.834851 111.665374 
L 338.793779 112.010089 
L 339.752707 112.579825 
L 341.670562 114.131351 
L 343.588417 115.680566 
L 344.547345 116.251663 
L 345.506273 116.604945 
L 346.4652 116.706296 
L 347.424128 116.547553 
L 348.383056 116.14658 
L 349.341983 115.544642 
L 354.136621 111.868367 
L 355.095549 111.471397 
L 356.054477 111.292066 
L 357.013404 111.338864 
L 357.972332 111.600852 
L 358.93126 112.050097 
L 360.849115 113.336813 
L 363.725898 115.451539 
L 364.684826 116.006357 
L 365.643753 116.421638 
L 366.602681 116.672405 
L 367.561609 116.743637 
L 368.520536 116.630177 
L 369.479464 116.336464 
L 370.438391 115.87624 
L 372.356247 114.556427 
L 376.191957 111.477673 
L 377.150885 110.924275 
L 378.109813 110.565927 
L 379.06874 110.445318 
L 380.027668 110.59097 
L 380.986596 111.013126 
L 381.945523 111.700867 
L 382.904451 112.620909 
L 384.822306 114.919697 
L 386.740162 117.275838 
L 387.699089 118.240287 
L 388.658017 118.943456 
L 389.616944 119.314251 
L 390.575872 119.304647 
L 391.5348 118.895091 
L 392.493727 118.097678 
L 393.452655 116.956707 
L 395.37051 113.966565 
L 397.288366 110.777397 
L 398.247293 109.421247 
L 399.206221 108.381162 
L 400.165149 107.751007 
L 401.124076 107.594569 
L 402.083004 107.938605 
L 403.041932 108.768606 
L 404.000859 110.027885 
L 405.918715 113.417644 
L 407.83657 117.014102 
L 408.795498 118.500351 
L 409.754425 119.595857 
L 410.713353 120.204649 
L 411.67228 120.277145 
L 412.631208 119.816128 
L 413.590136 118.877024 
L 414.549063 117.562213 
L 418.384774 111.514535 
L 419.343702 110.543383 
L 420.302629 109.990247 
L 421.261557 109.876097 
L 422.220485 110.169757 
L 423.179412 110.793228 
L 427.015123 114.12181 
L 427.974051 114.561941 
L 428.932978 114.703297 
L 429.891906 114.554689 
L 430.850833 114.173574 
L 433.727616 112.726421 
L 434.686544 112.564805 
L 435.645472 112.738608 
L 436.604399 113.296125 
L 437.563327 114.232346 
L 438.522255 115.486199 
L 441.399038 119.837258 
L 442.357965 120.910289 
L 443.316893 121.508089 
L 444.275821 121.502463 
L 445.234748 120.819563 
L 446.193676 119.451389 
L 447.152604 117.460409 
L 449.070459 112.187066 
L 450.988314 106.619908 
L 451.947242 104.330646 
L 452.906169 102.665025 
L 453.865097 101.78703 
L 454.824025 101.794595 
L 455.782952 102.709271 
L 456.74188 104.473186 
L 457.700808 106.953635 
L 459.618663 113.236614 
L 461.536518 119.592558 
L 462.495446 122.173866 
L 463.454374 124.095885 
L 464.413301 125.240041 
L 465.372229 125.562216 
L 466.331157 125.093594 
L 467.290084 123.933197 
L 468.249012 122.233202 
L 470.166867 117.967483 
L 472.084722 113.786305 
L 473.04365 112.088276 
L 474.002578 110.756231 
L 474.961505 109.807996 
L 475.920433 109.219742 
L 476.879361 108.937197 
L 477.838288 108.889471 
L 479.756144 109.214988 
L 482.632927 110.10735 
L 484.550782 110.953168 
L 485.50971 111.527288 
L 487.427565 113.071943 
L 489.34542 115.059588 
L 491.263275 117.092343 
L 492.222203 117.938309 
L 493.181131 118.567867 
L 494.140058 118.91887 
L 495.098986 118.951216 
L 496.057914 118.652509 
L 497.016841 118.04052 
L 497.975769 117.162183 
L 499.893624 114.911446 
L 501.81148 112.633801 
L 502.770407 111.718529 
L 503.729335 111.04948 
L 504.688263 110.669849 
L 505.64719 110.594396 
L 506.606118 110.809021 
L 507.565046 111.273333 
L 509.482901 112.691329 
L 511.400756 114.242062 
L 512.359684 114.884343 
L 513.318611 115.367847 
L 514.277539 115.665945 
L 515.236467 115.774457 
L 516.195394 115.709745 
L 518.11325 115.201239 
L 521.94896 113.877106 
L 523.866816 113.535641 
L 525.784671 113.449643 
L 529.620382 113.615426 
L 534.41502 113.977336 
L 540.168586 114.692064 
L 542.086441 114.659965 
L 544.004296 114.38977 
L 548.798935 113.464805 
L 550.71679 113.417729 
L 552.634645 113.629324 
L 557.429283 114.419148 
L 559.347139 114.505222 
L 563.182849 114.343099 
L 567.01856 114.271178 
L 569.895343 114.182984 
L 571.813198 113.922435 
L 574.689981 113.212371 
L 576.607836 112.74953 
L 578.525692 112.57474 
L 579.484619 112.660066 
L 580.443547 112.877282 
L 582.361402 113.680397 
L 587.156041 116.300064 
L 588.114968 116.570486 
L 589.073896 116.671223 
L 590.032824 116.589768 
L 590.991751 116.329702 
L 591.950679 115.910297 
L 593.868534 114.735203 
L 596.745317 112.834255 
L 597.704245 112.344729 
L 598.663172 111.981002 
L 599.6221 111.757978 
L 600.581028 111.678229 
L 601.539955 111.733236 
L 603.457811 112.17231 
L 606.334594 113.280631 
L 609.211377 114.40982 
L 611.129232 115.007419 
L 613.047087 115.421916 
L 614.964942 115.607531 
L 616.882798 115.521567 
L 618.800653 115.156914 
L 621.677436 114.250299 
L 622.636364 113.926779 
L 622.636364 113.926779 
" clip-path="url(#p56eb95bd5d)" style="fill: none; stroke: #7f7f7f; stroke-width: 1.5; stroke-linecap: square"/>
   </g>
   <g id="patch_3">
    <path d="M 90 384.48 
L 90 51.84 
" style="fill: none; stroke: #000000; stroke-width: 0.8; stroke-linejoin: miter; stroke-linecap: square"/>
   </g>
   <g id="patch_4">
    <path d="M 648 384.48 
L 648 51.84 
" style="fill: none; stroke: #000000; stroke-width: 0.8; stroke-linejoin: miter; stroke-linecap: square"/>
   </g>
   <g id="patch_5">
    <path d="M 90 384.48 
L 648 384.48 
" style="fill: none; stroke: #000000; stroke-width: 0.8; stroke-linejoin: miter; stroke-linecap: square"/>
   </g>
   <g id="patch_6">
    <path d="M 90 51.84 
L 648 51.84 
" style="fill: none; stroke: #000000; stroke-width: 0.8; stroke-linejoin: miter; stroke-linecap: square"/>
   </g>
   <g id="text_9">
    <!-- Ripple Event 5 -->
    <g transform="translate(319.884375 32.402625)scale(0.12 -0.12)">
     <defs>
      <path id="DejaVuSerif-Bold-52" d="M 3397 2278 
Q 3675 2238 3865 2094 
Q 4056 1950 4197 1678 
L 4878 378 
L 5356 378 
L 5356 0 
L 3822 0 
L 3078 1409 
Q 2863 1847 2711 1967 
Q 2559 2088 2291 2088 
L 2100 2088 
L 2100 378 
L 2700 378 
L 2700 0 
L 300 0 
L 300 378 
L 897 378 
L 897 4288 
L 300 4288 
L 300 4666 
L 2963 4666 
Q 3775 4666 4217 4339 
Q 4659 4013 4659 3413 
Q 4659 2925 4345 2642 
Q 4031 2359 3397 2278 
z
M 2100 2463 
L 2509 2463 
Q 2947 2463 3183 2700 
Q 3419 2938 3419 3378 
Q 3419 3819 3183 4053 
Q 2947 4288 2509 4288 
L 2100 4288 
L 2100 2463 
z
" transform="scale(0.015625)"/>
      <path id="DejaVuSerif-Bold-69" d="M 588 4263 
Q 588 4516 763 4689 
Q 938 4863 1191 4863 
Q 1438 4863 1611 4689 
Q 1784 4516 1784 4263 
Q 1784 4016 1611 3842 
Q 1438 3669 1191 3669 
Q 938 3669 763 3841 
Q 588 4013 588 4263 
z
M 1797 378 
L 2272 378 
L 2272 0 
L 219 0 
L 219 378 
L 691 378 
L 691 2944 
L 219 2944 
L 219 3322 
L 1797 3322 
L 1797 378 
z
" transform="scale(0.015625)"/>
      <path id="DejaVuSerif-Bold-70" d="M 1728 1825 
L 1728 1497 
Q 1728 916 1876 656 
Q 2025 397 2356 397 
Q 2697 397 2836 672 
Q 2975 947 2975 1663 
Q 2975 2378 2836 2651 
Q 2697 2925 2356 2925 
Q 2025 2925 1876 2665 
Q 1728 2406 1728 1825 
z
M 622 2944 
L 147 2944 
L 147 3322 
L 1728 3322 
L 1728 2900 
Q 1869 3159 2106 3286 
Q 2344 3413 2694 3413 
Q 3403 3413 3811 2945 
Q 4219 2478 4219 1663 
Q 4219 847 3811 378 
Q 3403 -91 2694 -91 
Q 2344 -91 2106 36 
Q 1869 163 1728 422 
L 1728 -953 
L 2241 -953 
L 2241 -1331 
L 147 -1331 
L 147 -953 
L 622 -953 
L 622 2944 
z
" transform="scale(0.015625)"/>
      <path id="DejaVuSerif-Bold-6c" d="M 1797 378 
L 2272 378 
L 2272 0 
L 219 0 
L 219 378 
L 691 378 
L 691 4488 
L 219 4488 
L 219 4863 
L 1797 4863 
L 1797 378 
z
" transform="scale(0.015625)"/>
      <path id="DejaVuSerif-Bold-65" d="M 2566 1875 
Q 2566 2531 2444 2795 
Q 2322 3059 2028 3059 
Q 1744 3059 1620 2800 
Q 1497 2541 1497 1931 
L 1497 1875 
L 2566 1875 
z
M 3781 1503 
L 1497 1503 
L 1497 1478 
Q 1497 834 1690 548 
Q 1884 263 2316 263 
Q 2675 263 2897 453 
Q 3119 644 3181 1006 
L 3700 1006 
Q 3566 441 3166 175 
Q 2766 -91 2047 -91 
Q 1184 -91 723 364 
Q 263 819 263 1663 
Q 263 2488 734 2950 
Q 1206 3413 2047 3413 
Q 2872 3413 3312 2927 
Q 3753 2441 3781 1503 
z
" transform="scale(0.015625)"/>
      <path id="DejaVuSerif-Bold-20" transform="scale(0.015625)"/>
      <path id="DejaVuSerif-Bold-45" d="M 300 0 
L 300 378 
L 897 378 
L 897 4288 
L 300 4288 
L 300 4666 
L 4494 4666 
L 4494 3566 
L 4063 3566 
L 4063 4238 
L 2100 4238 
L 2100 2741 
L 3322 2741 
L 3322 3334 
L 3750 3334 
L 3750 1722 
L 3322 1722 
L 3322 2316 
L 2100 2316 
L 2100 428 
L 4122 428 
L 4122 1100 
L 4550 1100 
L 4550 0 
L 300 0 
z
" transform="scale(0.015625)"/>
      <path id="DejaVuSerif-Bold-76" d="M 1428 0 
L 250 2944 
L -116 2944 
L -116 3322 
L 1791 3322 
L 1791 2944 
L 1388 2944 
L 2228 844 
L 3066 2944 
L 2631 2944 
L 2631 3322 
L 3878 3322 
L 3878 2944 
L 3494 2944 
L 2316 0 
L 1428 0 
z
" transform="scale(0.015625)"/>
      <path id="DejaVuSerif-Bold-6e" d="M 219 0 
L 219 378 
L 691 378 
L 691 2944 
L 219 2944 
L 219 3322 
L 1797 3322 
L 1797 2853 
Q 1997 3150 2253 3281 
Q 2509 3413 2900 3413 
Q 3459 3413 3745 3083 
Q 4031 2753 4031 2113 
L 4031 378 
L 4506 378 
L 4506 0 
L 2522 0 
L 2522 378 
L 2925 378 
L 2925 2144 
Q 2925 2566 2817 2730 
Q 2709 2894 2444 2894 
Q 2109 2894 1953 2648 
Q 1797 2403 1797 1869 
L 1797 378 
L 2203 378 
L 2203 0 
L 219 0 
z
" transform="scale(0.015625)"/>
      <path id="DejaVuSerif-Bold-74" d="M 634 2944 
L 153 2944 
L 153 3322 
L 634 3322 
L 634 4353 
L 1741 4353 
L 1741 3322 
L 2663 3322 
L 2663 2944 
L 1741 2944 
L 1741 909 
Q 1741 475 1809 369 
Q 1878 263 2059 263 
Q 2259 263 2356 397 
Q 2453 531 2459 813 
L 2925 813 
Q 2897 313 2651 111 
Q 2406 -91 1806 -91 
Q 1122 -91 878 123 
Q 634 338 634 909 
L 634 2944 
z
" transform="scale(0.015625)"/>
      <path id="DejaVuSerif-Bold-35" d="M 3609 4666 
L 3609 3847 
L 1113 3847 
L 1113 2822 
Q 1319 2981 1572 3062 
Q 1825 3144 2106 3144 
Q 2969 3144 3469 2708 
Q 3969 2272 3969 1522 
Q 3969 759 3469 334 
Q 2969 -91 2069 -91 
Q 1688 -91 1311 -28 
Q 934 34 525 166 
L 525 1184 
L 900 1184 
Q 919 725 1139 500 
Q 1359 275 1791 275 
Q 2250 275 2472 583 
Q 2694 891 2694 1522 
Q 2694 2144 2476 2451 
Q 2259 2759 1819 2759 
Q 1581 2759 1395 2661 
Q 1209 2563 1050 2356 
L 738 2356 
L 738 4666 
L 3609 4666 
z
" transform="scale(0.015625)"/>
     </defs>
     <use xlink:href="#DejaVuSerif-Bold-52"/>
     <use xlink:href="#DejaVuSerif-Bold-69" x="83.105469"/>
     <use xlink:href="#DejaVuSerif-Bold-70" x="121.09375"/>
     <use xlink:href="#DejaVuSerif-Bold-70" x="191.015625"/>
     <use xlink:href="#DejaVuSerif-Bold-6c" x="260.9375"/>
     <use xlink:href="#DejaVuSerif-Bold-65" x="298.925781"/>
     <use xlink:href="#DejaVuSerif-Bold-20" x="362.548828"/>
     <use xlink:href="#DejaVuSerif-Bold-45" x="397.363281"/>
     <use xlink:href="#DejaVuSerif-Bold-76" x="473.583984"/>
     <use xlink:href="#DejaVuSerif-Bold-65" x="531.689453"/>
     <use xlink:href="#DejaVuSerif-Bold-6e" x="595.3125"/>
     <use xlink:href="#DejaVuSerif-Bold-74" x="668.017578"/>
     <use xlink:href="#DejaVuSerif-Bold-20" x="714.208984"/>
     <use xlink:href="#DejaVuSerif-Bold-35" x="749.023438"/>
    </g>
    <!-- Bandpass [100, 250] -->
    <g transform="translate(299.653125 45.84)scale(0.12 -0.12)">
     <defs>
      <path id="DejaVuSerif-Bold-42" d="M 300 0 
L 300 378 
L 897 378 
L 897 4288 
L 300 4288 
L 300 4666 
L 3066 4666 
Q 3919 4666 4347 4378 
Q 4775 4091 4775 3513 
Q 4775 3097 4479 2853 
Q 4184 2609 3603 2547 
Q 4306 2481 4681 2172 
Q 5056 1863 5056 1350 
Q 5056 656 4532 328 
Q 4009 0 2894 0 
L 300 0 
z
M 2100 2719 
L 2509 2719 
Q 3047 2719 3306 2914 
Q 3566 3109 3566 3513 
Q 3566 3919 3314 4103 
Q 3063 4288 2509 4288 
L 2100 4288 
L 2100 2719 
z
M 2100 378 
L 2547 378 
Q 3144 378 3431 615 
Q 3719 853 3719 1350 
Q 3719 1850 3428 2097 
Q 3138 2344 2547 2344 
L 2100 2344 
L 2100 378 
z
" transform="scale(0.015625)"/>
      <path id="DejaVuSerif-Bold-61" d="M 3525 2041 
L 3525 378 
L 4000 378 
L 4000 0 
L 2419 0 
L 2419 422 
Q 2200 159 1931 34 
Q 1663 -91 1319 -91 
Q 809 -91 536 182 
Q 263 456 263 966 
Q 263 1525 655 1803 
Q 1047 2081 1838 2081 
L 2419 2081 
L 2419 2278 
Q 2419 2681 2228 2873 
Q 2038 3066 1638 3066 
Q 1306 3066 1126 2930 
Q 947 2794 872 2484 
L 519 2484 
L 519 3200 
Q 816 3306 1134 3359 
Q 1453 3413 1806 3413 
Q 2697 3413 3111 3081 
Q 3525 2750 3525 2041 
z
M 2419 1044 
L 2419 1709 
L 2003 1709 
Q 1694 1709 1528 1540 
Q 1363 1372 1363 1056 
Q 1363 741 1483 584 
Q 1603 428 1850 428 
Q 2106 428 2262 597 
Q 2419 766 2419 1044 
z
" transform="scale(0.015625)"/>
      <path id="DejaVuSerif-Bold-64" d="M 2747 1497 
L 2747 1825 
Q 2747 2406 2597 2665 
Q 2447 2925 2119 2925 
Q 1775 2925 1636 2651 
Q 1497 2378 1497 1663 
Q 1497 947 1637 672 
Q 1778 397 2119 397 
Q 2447 397 2597 656 
Q 2747 916 2747 1497 
z
M 3853 378 
L 4325 378 
L 4325 0 
L 2747 0 
L 2747 422 
Q 2606 163 2367 36 
Q 2128 -91 1778 -91 
Q 1072 -91 667 378 
Q 263 847 263 1663 
Q 263 2481 667 2947 
Q 1072 3413 1778 3413 
Q 2128 3413 2367 3286 
Q 2606 3159 2747 2900 
L 2747 4488 
L 2272 4488 
L 2272 4863 
L 3853 4863 
L 3853 378 
z
" transform="scale(0.015625)"/>
      <path id="DejaVuSerif-Bold-73" d="M 300 97 
L 300 1025 
L 653 1025 
Q 697 653 931 458 
Q 1166 263 1569 263 
Q 1906 263 2086 380 
Q 2266 497 2266 716 
Q 2266 916 2152 1025 
Q 2038 1134 1709 1216 
L 1253 1331 
Q 738 1459 506 1698 
Q 275 1938 275 2344 
Q 275 2884 650 3148 
Q 1025 3413 1806 3413 
Q 2100 3413 2433 3364 
Q 2766 3316 3169 3213 
L 3169 2375 
L 2816 2375 
Q 2788 2716 2573 2887 
Q 2359 3059 1959 3059 
Q 1622 3059 1448 2951 
Q 1275 2844 1275 2638 
Q 1275 2469 1375 2372 
Q 1475 2275 1734 2209 
L 2188 2094 
Q 2841 1928 3091 1684 
Q 3341 1441 3341 1006 
Q 3341 444 2939 176 
Q 2538 -91 1691 -91 
Q 1381 -91 1034 -44 
Q 688 3 300 97 
z
" transform="scale(0.015625)"/>
      <path id="DejaVuSerif-Bold-5b" d="M 800 4863 
L 2572 4863 
L 2572 4488 
L 1906 4488 
L 1906 -469 
L 2572 -469 
L 2572 -844 
L 800 -844 
L 800 4863 
z
" transform="scale(0.015625)"/>
      <path id="DejaVuSerif-Bold-31" d="M 878 0 
L 878 378 
L 1753 378 
L 1753 4153 
L 781 3578 
L 781 4044 
L 1953 4750 
L 2938 4750 
L 2938 378 
L 3816 378 
L 3816 0 
L 878 0 
z
" transform="scale(0.015625)"/>
      <path id="DejaVuSerif-Bold-30" d="M 2228 275 
Q 2603 275 2742 615 
Q 2881 956 2881 2328 
Q 2881 3691 2742 4037 
Q 2603 4384 2228 4384 
Q 1853 4384 1714 4043 
Q 1575 3703 1575 2328 
Q 1575 956 1714 615 
Q 1853 275 2228 275 
z
M 2228 -91 
Q 1294 -91 797 532 
Q 300 1156 300 2328 
Q 300 3500 797 4125 
Q 1294 4750 2228 4750 
Q 3159 4750 3656 4125 
Q 4153 3500 4153 2328 
Q 4153 1156 3656 532 
Q 3159 -91 2228 -91 
z
" transform="scale(0.015625)"/>
      <path id="DejaVuSerif-Bold-2c" d="M 84 -616 
Q 409 -353 562 -28 
Q 716 297 716 728 
L 716 997 
L 1606 997 
L 1606 972 
Q 1606 281 1317 -217 
Q 1028 -716 428 -1056 
L 84 -616 
z
" transform="scale(0.015625)"/>
      <path id="DejaVuSerif-Bold-32" d="M 844 3513 
L 469 3513 
L 469 4519 
Q 850 4634 1223 4692 
Q 1597 4750 1978 4750 
Q 2869 4750 3367 4386 
Q 3866 4022 3866 3372 
Q 3866 2909 3591 2542 
Q 3316 2175 2541 1672 
L 1241 819 
L 3450 819 
L 3450 1369 
L 3878 1369 
L 3878 0 
L 428 0 
L 428 763 
L 1119 1241 
Q 2003 1850 2297 2278 
Q 2591 2706 2591 3278 
Q 2591 3819 2367 4101 
Q 2144 4384 1716 4384 
Q 1347 4384 1125 4161 
Q 903 3938 844 3513 
z
" transform="scale(0.015625)"/>
      <path id="DejaVuSerif-Bold-5d" d="M 2228 4863 
L 2228 -844 
L 453 -844 
L 453 -469 
L 1119 -469 
L 1119 4488 
L 453 4488 
L 453 4863 
L 2228 4863 
z
" transform="scale(0.015625)"/>
     </defs>
     <use xlink:href="#DejaVuSerif-Bold-42"/>
     <use xlink:href="#DejaVuSerif-Bold-61" x="84.521484"/>
     <use xlink:href="#DejaVuSerif-Bold-6e" x="149.316406"/>
     <use xlink:href="#DejaVuSerif-Bold-64" x="222.021484"/>
     <use xlink:href="#DejaVuSerif-Bold-70" x="291.943359"/>
     <use xlink:href="#DejaVuSerif-Bold-61" x="361.865234"/>
     <use xlink:href="#DejaVuSerif-Bold-73" x="426.660156"/>
     <use xlink:href="#DejaVuSerif-Bold-73" x="482.958984"/>
     <use xlink:href="#DejaVuSerif-Bold-20" x="539.257812"/>
     <use xlink:href="#DejaVuSerif-Bold-5b" x="574.072266"/>
     <use xlink:href="#DejaVuSerif-Bold-31" x="621.386719"/>
     <use xlink:href="#DejaVuSerif-Bold-30" x="690.966797"/>
     <use xlink:href="#DejaVuSerif-Bold-30" x="760.546875"/>
     <use xlink:href="#DejaVuSerif-Bold-2c" x="830.126953"/>
     <use xlink:href="#DejaVuSerif-Bold-20" x="864.941406"/>
     <use xlink:href="#DejaVuSerif-Bold-32" x="899.755859"/>
     <use xlink:href="#DejaVuSerif-Bold-35" x="969.335938"/>
     <use xlink:href="#DejaVuSerif-Bold-30" x="1038.916016"/>
     <use xlink:href="#DejaVuSerif-Bold-5d" x="1108.496094"/>
    </g>
   </g>
   <g id="legend_1">
    <g id="patch_7">
     <path d="M 554.878125 74.518125 
L 641 74.518125 
Q 643 74.518125 643 72.518125 
L 643 58.84 
Q 643 56.84 641 56.84 
L 554.878125 56.84 
Q 552.878125 56.84 552.878125 58.84 
L 552.878125 72.518125 
Q 552.878125 74.518125 554.878125 74.518125 
z
" style="fill: #ffffff; opacity: 0.8; stroke: #cccccc; stroke-linejoin: miter"/>
    </g>
    <g id="patch_8">
     <path d="M 556.878125 68.438438 
L 576.878125 68.438438 
L 576.878125 61.438438 
L 556.878125 61.438438 
z
" style="fill: #1f77b4; fill-opacity: 0.2; stroke: #1f77b4; stroke-opacity: 0.2; stroke-linejoin: miter"/>
    </g>
    <g id="text_10">
     <!-- Event area -->
     <g transform="translate(584.878125 68.438438)scale(0.1 -0.1)">
      <defs>
       <path id="DejaVuSans-45" d="M 628 4666 
L 3578 4666 
L 3578 4134 
L 1259 4134 
L 1259 2753 
L 3481 2753 
L 3481 2222 
L 1259 2222 
L 1259 531 
L 3634 531 
L 3634 0 
L 628 0 
L 628 4666 
z
" transform="scale(0.015625)"/>
       <path id="DejaVuSans-76" d="M 191 3500 
L 800 3500 
L 1894 563 
L 2988 3500 
L 3597 3500 
L 2284 0 
L 1503 0 
L 191 3500 
z
" transform="scale(0.015625)"/>
       <path id="DejaVuSans-6e" d="M 3513 2113 
L 3513 0 
L 2938 0 
L 2938 2094 
Q 2938 2591 2744 2837 
Q 2550 3084 2163 3084 
Q 1697 3084 1428 2787 
Q 1159 2491 1159 1978 
L 1159 0 
L 581 0 
L 581 3500 
L 1159 3500 
L 1159 2956 
Q 1366 3272 1645 3428 
Q 1925 3584 2291 3584 
Q 2894 3584 3203 3211 
Q 3513 2838 3513 2113 
z
" transform="scale(0.015625)"/>
       <path id="DejaVuSans-74" d="M 1172 4494 
L 1172 3500 
L 2356 3500 
L 2356 3053 
L 1172 3053 
L 1172 1153 
Q 1172 725 1289 603 
Q 1406 481 1766 481 
L 2356 481 
L 2356 0 
L 1766 0 
Q 1100 0 847 248 
Q 594 497 594 1153 
L 594 3053 
L 172 3053 
L 172 3500 
L 594 3500 
L 594 4494 
L 1172 4494 
z
" transform="scale(0.015625)"/>
       <path id="DejaVuSans-61" d="M 2194 1759 
Q 1497 1759 1228 1600 
Q 959 1441 959 1056 
Q 959 750 1161 570 
Q 1363 391 1709 391 
Q 2188 391 2477 730 
Q 2766 1069 2766 1631 
L 2766 1759 
L 2194 1759 
z
M 3341 1997 
L 3341 0 
L 2766 0 
L 2766 531 
Q 2569 213 2275 61 
Q 1981 -91 1556 -91 
Q 1019 -91 701 211 
Q 384 513 384 1019 
Q 384 1609 779 1909 
Q 1175 2209 1959 2209 
L 2766 2209 
L 2766 2266 
Q 2766 2663 2505 2880 
Q 2244 3097 1772 3097 
Q 1472 3097 1187 3025 
Q 903 2953 641 2809 
L 641 3341 
Q 956 3463 1253 3523 
Q 1550 3584 1831 3584 
Q 2591 3584 2966 3190 
Q 3341 2797 3341 1997 
z
" transform="scale(0.015625)"/>
       <path id="DejaVuSans-72" d="M 2631 2963 
Q 2534 3019 2420 3045 
Q 2306 3072 2169 3072 
Q 1681 3072 1420 2755 
Q 1159 2438 1159 1844 
L 1159 0 
L 581 0 
L 581 3500 
L 1159 3500 
L 1159 2956 
Q 1341 3275 1631 3429 
Q 1922 3584 2338 3584 
Q 2397 3584 2469 3576 
Q 2541 3569 2628 3553 
L 2631 2963 
z
" transform="scale(0.015625)"/>
      </defs>
      <use xlink:href="#DejaVuSans-45"/>
      <use xlink:href="#DejaVuSans-76" x="63.183594"/>
      <use xlink:href="#DejaVuSans-65" x="122.363281"/>
      <use xlink:href="#DejaVuSans-6e" x="183.886719"/>
      <use xlink:href="#DejaVuSans-74" x="247.265625"/>
      <use xlink:href="#DejaVuSans-20" x="286.474609"/>
      <use xlink:href="#DejaVuSans-61" x="318.261719"/>
      <use xlink:href="#DejaVuSans-72" x="379.541016"/>
      <use xlink:href="#DejaVuSans-65" x="418.404297"/>
      <use xlink:href="#DejaVuSans-61" x="479.927734"/>
     </g>
    </g>
   </g>
  </g>
 </g>
 <defs>
  <clipPath id="p56eb95bd5d">
   <rect x="90" y="51.84" width="558" height="332.64"/>
  </clipPath>
 </defs>
</svg>
