<?xml version="1.0" encoding="utf-8" standalone="no"?>
<!DOCTYPE svg PUBLIC "-//W3C//DTD SVG 1.1//EN"
  "http://www.w3.org/Graphics/SVG/1.1/DTD/svg11.dtd">
<svg xmlns:xlink="http://www.w3.org/1999/xlink" width="720pt" height="432pt" viewBox="0 0 720 432" xmlns="http://www.w3.org/2000/svg" version="1.1">
 <metadata>
  <rdf:RDF xmlns:dc="http://purl.org/dc/elements/1.1/" xmlns:cc="http://creativecommons.org/ns#" xmlns:rdf="http://www.w3.org/1999/02/22-rdf-syntax-ns#">
   <cc:Work>
    <dc:type rdf:resource="http://purl.org/dc/dcmitype/StillImage"/>
    <dc:date>2024-05-28T15:04:08.018497</dc:date>
    <dc:format>image/svg+xml</dc:format>
    <dc:creator>
     <cc:Agent>
      <dc:title>Matplotlib v3.8.4, https://matplotlib.org/</dc:title>
     </cc:Agent>
    </dc:creator>
   </cc:Work>
  </rdf:RDF>
 </metadata>
 <defs>
  <style type="text/css">*{stroke-linejoin: round; stroke-linecap: butt}</style>
 </defs>
 <g id="figure_1">
  <g id="patch_1">
   <path d="M 0 432 
L 720 432 
L 720 0 
L 0 0 
L 0 432 
z
" style="fill: none"/>
  </g>
  <g id="axes_1">
   <g id="patch_2">
    <path d="M 90 384.48 
L 648 384.48 
L 648 51.84 
L 90 51.84 
L 90 384.48 
z
" style="fill: none"/>
   </g>
   <g id="matplotlib.axis_1">
    <g id="xtick_1">
     <g id="line2d_1">
      <path d="M 105.969697 384.48 
L 105.969697 51.84 
" clip-path="url(#p9142feb740)" style="fill: none; stroke: #b0b0b0; stroke-width: 0.8; stroke-linecap: square"/>
     </g>
     <g id="line2d_2">
      <defs>
       <path id="m786bac93a1" d="M 0 0 
L 0 3.5 
" style="stroke: #000000; stroke-width: 0.8"/>
      </defs>
      <g>
       <use xlink:href="#m786bac93a1" x="105.969697" y="384.48" style="stroke: #000000; stroke-width: 0.8"/>
      </g>
     </g>
     <g id="text_1">
      <!-- 11.50 -->
      <g transform="translate(91.655634 399.078438) scale(0.1 -0.1)">
       <defs>
        <path id="DejaVuSans-31" d="M 794 531 
L 1825 531 
L 1825 4091 
L 703 3866 
L 703 4441 
L 1819 4666 
L 2450 4666 
L 2450 531 
L 3481 531 
L 3481 0 
L 794 0 
L 794 531 
z
" transform="scale(0.015625)"/>
        <path id="DejaVuSans-2e" d="M 684 794 
L 1344 794 
L 1344 0 
L 684 0 
L 684 794 
z
" transform="scale(0.015625)"/>
        <path id="DejaVuSans-35" d="M 691 4666 
L 3169 4666 
L 3169 4134 
L 1269 4134 
L 1269 2991 
Q 1406 3038 1543 3061 
Q 1681 3084 1819 3084 
Q 2600 3084 3056 2656 
Q 3513 2228 3513 1497 
Q 3513 744 3044 326 
Q 2575 -91 1722 -91 
Q 1428 -91 1123 -41 
Q 819 9 494 109 
L 494 744 
Q 775 591 1075 516 
Q 1375 441 1709 441 
Q 2250 441 2565 725 
Q 2881 1009 2881 1497 
Q 2881 1984 2565 2268 
Q 2250 2553 1709 2553 
Q 1456 2553 1204 2497 
Q 953 2441 691 2322 
L 691 4666 
z
" transform="scale(0.015625)"/>
        <path id="DejaVuSans-30" d="M 2034 4250 
Q 1547 4250 1301 3770 
Q 1056 3291 1056 2328 
Q 1056 1369 1301 889 
Q 1547 409 2034 409 
Q 2525 409 2770 889 
Q 3016 1369 3016 2328 
Q 3016 3291 2770 3770 
Q 2525 4250 2034 4250 
z
M 2034 4750 
Q 2819 4750 3233 4129 
Q 3647 3509 3647 2328 
Q 3647 1150 3233 529 
Q 2819 -91 2034 -91 
Q 1250 -91 836 529 
Q 422 1150 422 2328 
Q 422 3509 836 4129 
Q 1250 4750 2034 4750 
z
" transform="scale(0.015625)"/>
       </defs>
       <use xlink:href="#DejaVuSans-31"/>
       <use xlink:href="#DejaVuSans-31" x="63.623047"/>
       <use xlink:href="#DejaVuSans-2e" x="127.246094"/>
       <use xlink:href="#DejaVuSans-35" x="159.033203"/>
       <use xlink:href="#DejaVuSans-30" x="222.65625"/>
      </g>
     </g>
    </g>
    <g id="xtick_2">
     <g id="line2d_3">
      <path d="M 223.393939 384.48 
L 223.393939 51.84 
" clip-path="url(#p9142feb740)" style="fill: none; stroke: #b0b0b0; stroke-width: 0.8; stroke-linecap: square"/>
     </g>
     <g id="line2d_4">
      <g>
       <use xlink:href="#m786bac93a1" x="223.393939" y="384.48" style="stroke: #000000; stroke-width: 0.8"/>
      </g>
     </g>
     <g id="text_2">
      <!-- 11.51 -->
      <g transform="translate(209.079877 399.078438) scale(0.1 -0.1)">
       <use xlink:href="#DejaVuSans-31"/>
       <use xlink:href="#DejaVuSans-31" x="63.623047"/>
       <use xlink:href="#DejaVuSans-2e" x="127.246094"/>
       <use xlink:href="#DejaVuSans-35" x="159.033203"/>
       <use xlink:href="#DejaVuSans-31" x="222.65625"/>
      </g>
     </g>
    </g>
    <g id="xtick_3">
     <g id="line2d_5">
      <path d="M 340.818182 384.48 
L 340.818182 51.84 
" clip-path="url(#p9142feb740)" style="fill: none; stroke: #b0b0b0; stroke-width: 0.8; stroke-linecap: square"/>
     </g>
     <g id="line2d_6">
      <g>
       <use xlink:href="#m786bac93a1" x="340.818182" y="384.48" style="stroke: #000000; stroke-width: 0.8"/>
      </g>
     </g>
     <g id="text_3">
      <!-- 11.52 -->
      <g transform="translate(326.504119 399.078438) scale(0.1 -0.1)">
       <defs>
        <path id="DejaVuSans-32" d="M 1228 531 
L 3431 531 
L 3431 0 
L 469 0 
L 469 531 
Q 828 903 1448 1529 
Q 2069 2156 2228 2338 
Q 2531 2678 2651 2914 
Q 2772 3150 2772 3378 
Q 2772 3750 2511 3984 
Q 2250 4219 1831 4219 
Q 1534 4219 1204 4116 
Q 875 4013 500 3803 
L 500 4441 
Q 881 4594 1212 4672 
Q 1544 4750 1819 4750 
Q 2544 4750 2975 4387 
Q 3406 4025 3406 3419 
Q 3406 3131 3298 2873 
Q 3191 2616 2906 2266 
Q 2828 2175 2409 1742 
Q 1991 1309 1228 531 
z
" transform="scale(0.015625)"/>
       </defs>
       <use xlink:href="#DejaVuSans-31"/>
       <use xlink:href="#DejaVuSans-31" x="63.623047"/>
       <use xlink:href="#DejaVuSans-2e" x="127.246094"/>
       <use xlink:href="#DejaVuSans-35" x="159.033203"/>
       <use xlink:href="#DejaVuSans-32" x="222.65625"/>
      </g>
     </g>
    </g>
    <g id="xtick_4">
     <g id="line2d_7">
      <path d="M 458.242424 384.48 
L 458.242424 51.84 
" clip-path="url(#p9142feb740)" style="fill: none; stroke: #b0b0b0; stroke-width: 0.8; stroke-linecap: square"/>
     </g>
     <g id="line2d_8">
      <g>
       <use xlink:href="#m786bac93a1" x="458.242424" y="384.48" style="stroke: #000000; stroke-width: 0.8"/>
      </g>
     </g>
     <g id="text_4">
      <!-- 11.53 -->
      <g transform="translate(443.928362 399.078438) scale(0.1 -0.1)">
       <defs>
        <path id="DejaVuSans-33" d="M 2597 2516 
Q 3050 2419 3304 2112 
Q 3559 1806 3559 1356 
Q 3559 666 3084 287 
Q 2609 -91 1734 -91 
Q 1441 -91 1130 -33 
Q 819 25 488 141 
L 488 750 
Q 750 597 1062 519 
Q 1375 441 1716 441 
Q 2309 441 2620 675 
Q 2931 909 2931 1356 
Q 2931 1769 2642 2001 
Q 2353 2234 1838 2234 
L 1294 2234 
L 1294 2753 
L 1863 2753 
Q 2328 2753 2575 2939 
Q 2822 3125 2822 3475 
Q 2822 3834 2567 4026 
Q 2313 4219 1838 4219 
Q 1578 4219 1281 4162 
Q 984 4106 628 3988 
L 628 4550 
Q 988 4650 1302 4700 
Q 1616 4750 1894 4750 
Q 2613 4750 3031 4423 
Q 3450 4097 3450 3541 
Q 3450 3153 3228 2886 
Q 3006 2619 2597 2516 
z
" transform="scale(0.015625)"/>
       </defs>
       <use xlink:href="#DejaVuSans-31"/>
       <use xlink:href="#DejaVuSans-31" x="63.623047"/>
       <use xlink:href="#DejaVuSans-2e" x="127.246094"/>
       <use xlink:href="#DejaVuSans-35" x="159.033203"/>
       <use xlink:href="#DejaVuSans-33" x="222.65625"/>
      </g>
     </g>
    </g>
    <g id="xtick_5">
     <g id="line2d_9">
      <path d="M 575.666667 384.48 
L 575.666667 51.84 
" clip-path="url(#p9142feb740)" style="fill: none; stroke: #b0b0b0; stroke-width: 0.8; stroke-linecap: square"/>
     </g>
     <g id="line2d_10">
      <g>
       <use xlink:href="#m786bac93a1" x="575.666667" y="384.48" style="stroke: #000000; stroke-width: 0.8"/>
      </g>
     </g>
     <g id="text_5">
      <!-- 11.54 -->
      <g transform="translate(561.352604 399.078438) scale(0.1 -0.1)">
       <defs>
        <path id="DejaVuSans-34" d="M 2419 4116 
L 825 1625 
L 2419 1625 
L 2419 4116 
z
M 2253 4666 
L 3047 4666 
L 3047 1625 
L 3713 1625 
L 3713 1100 
L 3047 1100 
L 3047 0 
L 2419 0 
L 2419 1100 
L 313 1100 
L 313 1709 
L 2253 4666 
z
" transform="scale(0.015625)"/>
       </defs>
       <use xlink:href="#DejaVuSans-31"/>
       <use xlink:href="#DejaVuSans-31" x="63.623047"/>
       <use xlink:href="#DejaVuSans-2e" x="127.246094"/>
       <use xlink:href="#DejaVuSans-35" x="159.033203"/>
       <use xlink:href="#DejaVuSans-34" x="222.65625"/>
      </g>
     </g>
    </g>
    <g id="text_6">
     <!-- Time (s) -->
     <g transform="translate(348.671094 412.756563) scale(0.1 -0.1)">
      <defs>
       <path id="DejaVuSans-54" d="M -19 4666 
L 3928 4666 
L 3928 4134 
L 2272 4134 
L 2272 0 
L 1638 0 
L 1638 4134 
L -19 4134 
L -19 4666 
z
" transform="scale(0.015625)"/>
       <path id="DejaVuSans-69" d="M 603 3500 
L 1178 3500 
L 1178 0 
L 603 0 
L 603 3500 
z
M 603 4863 
L 1178 4863 
L 1178 4134 
L 603 4134 
L 603 4863 
z
" transform="scale(0.015625)"/>
       <path id="DejaVuSans-6d" d="M 3328 2828 
Q 3544 3216 3844 3400 
Q 4144 3584 4550 3584 
Q 5097 3584 5394 3201 
Q 5691 2819 5691 2113 
L 5691 0 
L 5113 0 
L 5113 2094 
Q 5113 2597 4934 2840 
Q 4756 3084 4391 3084 
Q 3944 3084 3684 2787 
Q 3425 2491 3425 1978 
L 3425 0 
L 2847 0 
L 2847 2094 
Q 2847 2600 2669 2842 
Q 2491 3084 2119 3084 
Q 1678 3084 1418 2786 
Q 1159 2488 1159 1978 
L 1159 0 
L 581 0 
L 581 3500 
L 1159 3500 
L 1159 2956 
Q 1356 3278 1631 3431 
Q 1906 3584 2284 3584 
Q 2666 3584 2933 3390 
Q 3200 3197 3328 2828 
z
" transform="scale(0.015625)"/>
       <path id="DejaVuSans-65" d="M 3597 1894 
L 3597 1613 
L 953 1613 
Q 991 1019 1311 708 
Q 1631 397 2203 397 
Q 2534 397 2845 478 
Q 3156 559 3463 722 
L 3463 178 
Q 3153 47 2828 -22 
Q 2503 -91 2169 -91 
Q 1331 -91 842 396 
Q 353 884 353 1716 
Q 353 2575 817 3079 
Q 1281 3584 2069 3584 
Q 2775 3584 3186 3129 
Q 3597 2675 3597 1894 
z
M 3022 2063 
Q 3016 2534 2758 2815 
Q 2500 3097 2075 3097 
Q 1594 3097 1305 2825 
Q 1016 2553 972 2059 
L 3022 2063 
z
" transform="scale(0.015625)"/>
       <path id="DejaVuSans-20" transform="scale(0.015625)"/>
       <path id="DejaVuSans-28" d="M 1984 4856 
Q 1566 4138 1362 3434 
Q 1159 2731 1159 2009 
Q 1159 1288 1364 580 
Q 1569 -128 1984 -844 
L 1484 -844 
Q 1016 -109 783 600 
Q 550 1309 550 2009 
Q 550 2706 781 3412 
Q 1013 4119 1484 4856 
L 1984 4856 
z
" transform="scale(0.015625)"/>
       <path id="DejaVuSans-73" d="M 2834 3397 
L 2834 2853 
Q 2591 2978 2328 3040 
Q 2066 3103 1784 3103 
Q 1356 3103 1142 2972 
Q 928 2841 928 2578 
Q 928 2378 1081 2264 
Q 1234 2150 1697 2047 
L 1894 2003 
Q 2506 1872 2764 1633 
Q 3022 1394 3022 966 
Q 3022 478 2636 193 
Q 2250 -91 1575 -91 
Q 1294 -91 989 -36 
Q 684 19 347 128 
L 347 722 
Q 666 556 975 473 
Q 1284 391 1588 391 
Q 1994 391 2212 530 
Q 2431 669 2431 922 
Q 2431 1156 2273 1281 
Q 2116 1406 1581 1522 
L 1381 1569 
Q 847 1681 609 1914 
Q 372 2147 372 2553 
Q 372 3047 722 3315 
Q 1072 3584 1716 3584 
Q 2034 3584 2315 3537 
Q 2597 3491 2834 3397 
z
" transform="scale(0.015625)"/>
       <path id="DejaVuSans-29" d="M 513 4856 
L 1013 4856 
Q 1481 4119 1714 3412 
Q 1947 2706 1947 2009 
Q 1947 1309 1714 600 
Q 1481 -109 1013 -844 
L 513 -844 
Q 928 -128 1133 580 
Q 1338 1288 1338 2009 
Q 1338 2731 1133 3434 
Q 928 4138 513 4856 
z
" transform="scale(0.015625)"/>
      </defs>
      <use xlink:href="#DejaVuSans-54"/>
      <use xlink:href="#DejaVuSans-69" x="57.958984"/>
      <use xlink:href="#DejaVuSans-6d" x="85.742188"/>
      <use xlink:href="#DejaVuSans-65" x="183.154297"/>
      <use xlink:href="#DejaVuSans-20" x="244.677734"/>
      <use xlink:href="#DejaVuSans-28" x="276.464844"/>
      <use xlink:href="#DejaVuSans-73" x="315.478516"/>
      <use xlink:href="#DejaVuSans-29" x="367.578125"/>
     </g>
    </g>
   </g>
   <g id="matplotlib.axis_2">
    <g id="ytick_1">
     <g id="line2d_11">
      <path d="M 90 347.25862 
L 648 347.25862 
" clip-path="url(#p9142feb740)" style="fill: none; stroke: #b0b0b0; stroke-width: 0.8; stroke-linecap: square"/>
     </g>
     <g id="line2d_12">
      <defs>
       <path id="m8ea94e0ac4" d="M 0 0 
L -3.5 0 
" style="stroke: #000000; stroke-width: 0.8"/>
      </defs>
      <g>
       <use xlink:href="#m8ea94e0ac4" x="90" y="347.25862" style="stroke: #000000; stroke-width: 0.8"/>
      </g>
     </g>
     <g id="text_7">
      <!-- −3 -->
      <g transform="translate(68.257812 351.057839) scale(0.1 -0.1)">
       <defs>
        <path id="DejaVuSans-2212" d="M 678 2272 
L 4684 2272 
L 4684 1741 
L 678 1741 
L 678 2272 
z
" transform="scale(0.015625)"/>
       </defs>
       <use xlink:href="#DejaVuSans-2212"/>
       <use xlink:href="#DejaVuSans-33" x="83.789062"/>
      </g>
     </g>
    </g>
    <g id="ytick_2">
     <g id="line2d_13">
      <path d="M 90 298.692497 
L 648 298.692497 
" clip-path="url(#p9142feb740)" style="fill: none; stroke: #b0b0b0; stroke-width: 0.8; stroke-linecap: square"/>
     </g>
     <g id="line2d_14">
      <g>
       <use xlink:href="#m8ea94e0ac4" x="90" y="298.692497" style="stroke: #000000; stroke-width: 0.8"/>
      </g>
     </g>
     <g id="text_8">
      <!-- −2 -->
      <g transform="translate(68.257812 302.491716) scale(0.1 -0.1)">
       <use xlink:href="#DejaVuSans-2212"/>
       <use xlink:href="#DejaVuSans-32" x="83.789062"/>
      </g>
     </g>
    </g>
    <g id="ytick_3">
     <g id="line2d_15">
      <path d="M 90 250.126374 
L 648 250.126374 
" clip-path="url(#p9142feb740)" style="fill: none; stroke: #b0b0b0; stroke-width: 0.8; stroke-linecap: square"/>
     </g>
     <g id="line2d_16">
      <g>
       <use xlink:href="#m8ea94e0ac4" x="90" y="250.126374" style="stroke: #000000; stroke-width: 0.8"/>
      </g>
     </g>
     <g id="text_9">
      <!-- −1 -->
      <g transform="translate(68.257812 253.925593) scale(0.1 -0.1)">
       <use xlink:href="#DejaVuSans-2212"/>
       <use xlink:href="#DejaVuSans-31" x="83.789062"/>
      </g>
     </g>
    </g>
    <g id="ytick_4">
     <g id="line2d_17">
      <path d="M 90 201.560251 
L 648 201.560251 
" clip-path="url(#p9142feb740)" style="fill: none; stroke: #b0b0b0; stroke-width: 0.8; stroke-linecap: square"/>
     </g>
     <g id="line2d_18">
      <g>
       <use xlink:href="#m8ea94e0ac4" x="90" y="201.560251" style="stroke: #000000; stroke-width: 0.8"/>
      </g>
     </g>
     <g id="text_10">
      <!-- 0 -->
      <g transform="translate(76.6375 205.35947) scale(0.1 -0.1)">
       <use xlink:href="#DejaVuSans-30"/>
      </g>
     </g>
    </g>
    <g id="ytick_5">
     <g id="line2d_19">
      <path d="M 90 152.994128 
L 648 152.994128 
" clip-path="url(#p9142feb740)" style="fill: none; stroke: #b0b0b0; stroke-width: 0.8; stroke-linecap: square"/>
     </g>
     <g id="line2d_20">
      <g>
       <use xlink:href="#m8ea94e0ac4" x="90" y="152.994128" style="stroke: #000000; stroke-width: 0.8"/>
      </g>
     </g>
     <g id="text_11">
      <!-- 1 -->
      <g transform="translate(76.6375 156.793347) scale(0.1 -0.1)">
       <use xlink:href="#DejaVuSans-31"/>
      </g>
     </g>
    </g>
    <g id="ytick_6">
     <g id="line2d_21">
      <path d="M 90 104.428005 
L 648 104.428005 
" clip-path="url(#p9142feb740)" style="fill: none; stroke: #b0b0b0; stroke-width: 0.8; stroke-linecap: square"/>
     </g>
     <g id="line2d_22">
      <g>
       <use xlink:href="#m8ea94e0ac4" x="90" y="104.428005" style="stroke: #000000; stroke-width: 0.8"/>
      </g>
     </g>
     <g id="text_12">
      <!-- 2 -->
      <g transform="translate(76.6375 108.227224) scale(0.1 -0.1)">
       <use xlink:href="#DejaVuSans-32"/>
      </g>
     </g>
    </g>
    <g id="ytick_7">
     <g id="line2d_23">
      <path d="M 90 55.861882 
L 648 55.861882 
" clip-path="url(#p9142feb740)" style="fill: none; stroke: #b0b0b0; stroke-width: 0.8; stroke-linecap: square"/>
     </g>
     <g id="line2d_24">
      <g>
       <use xlink:href="#m8ea94e0ac4" x="90" y="55.861882" style="stroke: #000000; stroke-width: 0.8"/>
      </g>
     </g>
     <g id="text_13">
      <!-- 3 -->
      <g transform="translate(76.6375 59.661101) scale(0.1 -0.1)">
       <use xlink:href="#DejaVuSans-33"/>
      </g>
     </g>
    </g>
    <g id="text_14">
     <!-- Amplitude (mV) -->
     <g transform="translate(62.178125 257.563906) rotate(-90) scale(0.1 -0.1)">
      <defs>
       <path id="DejaVuSans-41" d="M 2188 4044 
L 1331 1722 
L 3047 1722 
L 2188 4044 
z
M 1831 4666 
L 2547 4666 
L 4325 0 
L 3669 0 
L 3244 1197 
L 1141 1197 
L 716 0 
L 50 0 
L 1831 4666 
z
" transform="scale(0.015625)"/>
       <path id="DejaVuSans-70" d="M 1159 525 
L 1159 -1331 
L 581 -1331 
L 581 3500 
L 1159 3500 
L 1159 2969 
Q 1341 3281 1617 3432 
Q 1894 3584 2278 3584 
Q 2916 3584 3314 3078 
Q 3713 2572 3713 1747 
Q 3713 922 3314 415 
Q 2916 -91 2278 -91 
Q 1894 -91 1617 61 
Q 1341 213 1159 525 
z
M 3116 1747 
Q 3116 2381 2855 2742 
Q 2594 3103 2138 3103 
Q 1681 3103 1420 2742 
Q 1159 2381 1159 1747 
Q 1159 1113 1420 752 
Q 1681 391 2138 391 
Q 2594 391 2855 752 
Q 3116 1113 3116 1747 
z
" transform="scale(0.015625)"/>
       <path id="DejaVuSans-6c" d="M 603 4863 
L 1178 4863 
L 1178 0 
L 603 0 
L 603 4863 
z
" transform="scale(0.015625)"/>
       <path id="DejaVuSans-74" d="M 1172 4494 
L 1172 3500 
L 2356 3500 
L 2356 3053 
L 1172 3053 
L 1172 1153 
Q 1172 725 1289 603 
Q 1406 481 1766 481 
L 2356 481 
L 2356 0 
L 1766 0 
Q 1100 0 847 248 
Q 594 497 594 1153 
L 594 3053 
L 172 3053 
L 172 3500 
L 594 3500 
L 594 4494 
L 1172 4494 
z
" transform="scale(0.015625)"/>
       <path id="DejaVuSans-75" d="M 544 1381 
L 544 3500 
L 1119 3500 
L 1119 1403 
Q 1119 906 1312 657 
Q 1506 409 1894 409 
Q 2359 409 2629 706 
Q 2900 1003 2900 1516 
L 2900 3500 
L 3475 3500 
L 3475 0 
L 2900 0 
L 2900 538 
Q 2691 219 2414 64 
Q 2138 -91 1772 -91 
Q 1169 -91 856 284 
Q 544 659 544 1381 
z
M 1991 3584 
L 1991 3584 
z
" transform="scale(0.015625)"/>
       <path id="DejaVuSans-64" d="M 2906 2969 
L 2906 4863 
L 3481 4863 
L 3481 0 
L 2906 0 
L 2906 525 
Q 2725 213 2448 61 
Q 2172 -91 1784 -91 
Q 1150 -91 751 415 
Q 353 922 353 1747 
Q 353 2572 751 3078 
Q 1150 3584 1784 3584 
Q 2172 3584 2448 3432 
Q 2725 3281 2906 2969 
z
M 947 1747 
Q 947 1113 1208 752 
Q 1469 391 1925 391 
Q 2381 391 2643 752 
Q 2906 1113 2906 1747 
Q 2906 2381 2643 2742 
Q 2381 3103 1925 3103 
Q 1469 3103 1208 2742 
Q 947 2381 947 1747 
z
" transform="scale(0.015625)"/>
       <path id="DejaVuSans-56" d="M 1831 0 
L 50 4666 
L 709 4666 
L 2188 738 
L 3669 4666 
L 4325 4666 
L 2547 0 
L 1831 0 
z
" transform="scale(0.015625)"/>
      </defs>
      <use xlink:href="#DejaVuSans-41"/>
      <use xlink:href="#DejaVuSans-6d" x="68.408203"/>
      <use xlink:href="#DejaVuSans-70" x="165.820312"/>
      <use xlink:href="#DejaVuSans-6c" x="229.296875"/>
      <use xlink:href="#DejaVuSans-69" x="257.080078"/>
      <use xlink:href="#DejaVuSans-74" x="284.863281"/>
      <use xlink:href="#DejaVuSans-75" x="324.072266"/>
      <use xlink:href="#DejaVuSans-64" x="387.451172"/>
      <use xlink:href="#DejaVuSans-65" x="450.927734"/>
      <use xlink:href="#DejaVuSans-20" x="512.451172"/>
      <use xlink:href="#DejaVuSans-28" x="544.238281"/>
      <use xlink:href="#DejaVuSans-6d" x="583.251953"/>
      <use xlink:href="#DejaVuSans-56" x="680.664062"/>
      <use xlink:href="#DejaVuSans-29" x="749.072266"/>
     </g>
    </g>
   </g>
   <g id="line2d_25">
    <path d="M 115.363636 173.743814 
L 124.93482 174.953225 
L 134.506003 180.869849 
L 144.077187 182.636537 
L 153.64837 187.355609 
L 163.219554 198.237337 
L 172.790738 215.812321 
L 182.361921 211.970665 
L 191.933105 198.895398 
L 201.504288 191.422547 
L 211.075472 189.122296 
L 220.646655 191.861255 
L 230.217839 203.730075 
L 239.789022 205.816901 
L 249.360206 223.507491 
L 258.931389 241.304793 
L 268.502573 246.355859 
L 278.073756 235.376311 
L 287.64494 262.884467 
L 297.216123 265.730138 
L 306.787307 262.742183 
L 316.358491 270.33064 
L 325.929674 266.156989 
L 335.500858 273.223739 
L 345.072041 291.341179 
L 354.643225 273.982585 
L 364.214408 269.998645 
L 373.785592 272.891744 
L 383.356775 268.148959 
L 392.927959 266.394128 
L 402.499142 282.756738 
L 412.070326 265.398143 
L 421.641509 270.567779 
L 431.212693 239.763388 
L 440.783877 237.131142 
L 450.35506 242.632773 
L 459.926244 229.87468 
L 469.497427 244.055609 
L 479.068611 239.763388 
L 488.639794 240.759373 
L 498.210978 232.506926 
L 507.782161 227.242434 
L 517.353345 239.004542 
L 526.924528 248.347829 
L 536.495712 254.726876 
L 546.066895 262.315332 
L 555.638079 264.639297 
L 565.209262 273.081455 
L 574.780446 274.504291 
L 584.35163 275.832271 
L 593.922813 267.247829 
L 603.493997 267.247829 
L 613.06518 271.65862 
L 622.636364 264.497014 
" clip-path="url(#p9142feb740)" style="fill: none; stroke: #1f77b4; stroke-width: 1.5; stroke-linecap: square"/>
   </g>
   <g id="line2d_26">
    <path d="M 115.363636 101.582334 
L 124.93482 102.530891 
L 134.506003 120.268908 
L 144.077187 136.631518 
L 153.64837 152.899272 
L 163.219554 174.953225 
L 172.790738 188.102597 
L 182.361921 183.845947 
L 191.933105 167.388482 
L 201.504288 154.677817 
L 211.075472 131.841305 
L 220.646655 133.596136 
L 230.217839 162.266274 
L 239.789022 177.395759 
L 249.360206 223.554918 
L 258.931389 279.38936 
L 268.502573 272.607177 
L 278.073756 229.305546 
L 287.64494 217.721292 
L 297.216123 233.479197 
L 306.787307 258.283965 
L 316.358491 282.140176 
L 325.929674 316.145947 
L 335.500858 337.203915 
L 345.072041 339.385596 
L 354.643225 285.79212 
L 364.214408 255.580577 
L 373.785592 258.995383 
L 383.356775 267.67468 
L 392.927959 303.340427 
L 402.499142 325.726374 
L 412.070326 355.321355 
L 421.641509 362.814956 
L 431.212693 330.374304 
L 440.783877 287.167528 
L 450.35506 274.883714 
L 459.926244 290.250339 
L 469.497427 315.387102 
L 479.068611 325.15724 
L 488.639794 356.744191 
L 498.210978 355.131644 
L 507.782161 290.724617 
L 517.353345 269.619222 
L 526.924528 271.184341 
L 536.495712 287.1201 
L 546.066895 311.87744 
L 555.638079 326.390364 
L 565.209262 329.520602 
L 574.780446 326.200652 
L 584.35163 334.263388 
L 593.922813 316.620226 
L 603.493997 321.742434 
L 613.06518 325.536662 
L 622.636364 329.805169 
" clip-path="url(#p9142feb740)" style="fill: none; stroke: #ff7f0e; stroke-width: 1.5; stroke-linecap: square"/>
   </g>
   <g id="line2d_27">
    <path d="M 115.363636 104.238294 
L 124.93482 103.858871 
L 134.506003 119.79463 
L 144.077187 128.331644 
L 153.64837 184.972359 
L 163.219554 160.084592 
L 172.790738 181.189987 
L 182.361921 188.316023 
L 191.933105 173.791242 
L 201.504288 153.468407 
L 211.075472 131.746449 
L 220.646655 146.875935 
L 230.217839 163.760251 
L 239.789022 185.328068 
L 249.360206 237.84256 
L 258.931389 251.928632 
L 268.502573 271.184341 
L 278.073756 270.662635 
L 287.64494 225.61803 
L 297.216123 247.802409 
L 306.787307 275.879699 
L 316.358491 300.115332 
L 325.929674 324.777817 
L 335.500858 345.456361 
L 345.072041 338.437039 
L 354.643225 292.716587 
L 364.214408 263.358745 
L 373.785592 262.030765 
L 383.356775 286.408683 
L 392.927959 289.301782 
L 402.499142 311.118595 
L 412.070326 346.310063 
L 421.641509 362.530389 
L 431.212693 342.800402 
L 440.783877 310.075182 
L 450.35506 307.703789 
L 459.926244 313.20542 
L 469.497427 323.544693 
L 479.068611 336.445069 
L 488.639794 353.898519 
L 498.210978 332.745696 
L 507.782161 305.901531 
L 517.353345 277.112823 
L 526.924528 293.76 
L 536.495712 294.803413 
L 546.066895 309.790615 
L 555.638079 305.522108 
L 565.209262 313.015709 
L 574.780446 317.663639 
L 584.35163 320.035031 
L 593.922813 307.703789 
L 603.493997 311.023739 
L 613.06518 316.620226 
L 622.636364 316.430514 
" clip-path="url(#p9142feb740)" style="fill: none; stroke: #2ca02c; stroke-width: 1.5; stroke-linecap: square"/>
   </g>
   <g id="line2d_28">
    <path d="M 115.363636 103.005169 
L 124.93482 106.419975 
L 134.506003 123.019724 
L 144.077187 128.473927 
L 153.64837 173.459247 
L 163.219554 164.187102 
L 172.790738 181.498269 
L 182.361921 175.71207 
L 191.933105 174.455232 
L 201.504288 164.187102 
L 211.075472 141.801154 
L 220.646655 155.72123 
L 230.217839 179.435157 
L 239.789022 191.351405 
L 249.360206 232.008934 
L 258.931389 252.877189 
L 268.502573 277.349962 
L 278.073756 252.118344 
L 287.64494 237.557992 
L 297.216123 252.592622 
L 306.787307 279.436788 
L 316.358491 296.937666 
L 325.929674 326.769787 
L 335.500858 339.195885 
L 345.072041 353.139674 
L 354.643225 308.652346 
L 364.214408 281.523614 
L 373.785592 277.017967 
L 383.356775 294.281706 
L 392.927959 291.151468 
L 402.499142 310.54946 
L 412.070326 343.179824 
L 421.641509 362.340678 
L 431.212693 344.697516 
L 440.783877 325.062384 
L 450.35506 317.094504 
L 459.926244 317.948206 
L 469.497427 326.200652 
L 479.068611 326.390364 
L 488.639794 338.721606 
L 498.210978 334.642811 
L 507.782161 308.178068 
L 517.353345 284.558996 
L 526.924528 293.380577 
L 536.495712 299.641054 
L 546.066895 299.925621 
L 555.638079 304.288984 
L 565.209262 301.822735 
L 574.780446 307.893501 
L 584.35163 304.194128 
L 593.922813 295.562258 
L 603.493997 296.273676 
L 613.06518 303.340427 
L 622.636364 302.297014 
" clip-path="url(#p9142feb740)" style="fill: none; stroke: #d62728; stroke-width: 1.5; stroke-linecap: square"/>
   </g>
   <g id="line2d_29">
    <path d="M 115.363636 120.885471 
L 124.93482 107.273676 
L 134.506003 120.980326 
L 144.077187 133.92813 
L 153.64837 171.396136 
L 163.219554 188.980013 
L 172.790738 204.4326 
L 182.361921 207.951154 
L 191.933105 162.882836 
L 201.504288 141.89601 
L 211.075472 117.850088 
L 220.646655 130.133902 
L 230.217839 168.716462 
L 239.789022 189.442434 
L 249.360206 222.001656 
L 258.931389 237.818846 
L 268.502573 204.06207 
L 278.073756 186.478193 
L 287.64494 154.013827 
L 297.216123 175.000652 
L 306.787307 198.42112 
L 316.358491 227.835282 
L 325.929674 250.126374 
L 335.500858 297.032522 
L 345.072041 225.985596 
L 354.643225 141.990866 
L 364.214408 123.873425 
L 373.785592 121.834028 
L 383.356775 162.432271 
L 392.927959 191.01941 
L 402.499142 231.98522 
L 412.070326 257.050841 
L 421.641509 243.46276 
L 431.212693 161.317716 
L 440.783877 111.82675 
L 450.35506 133.643563 
L 459.926244 163.262258 
L 469.497427 202.490282 
L 479.068611 216.274743 
L 488.639794 238.838545 
L 498.210978 220.057114 
L 507.782161 212.664297 
L 517.353345 174.834655 
L 526.924528 193.515301 
L 536.495712 233.004918 
L 546.066895 259.090238 
L 555.638079 285.175558 
L 565.209262 302.486725 
L 574.780446 310.834028 
L 584.35163 320.414454 
L 593.922813 312.351719 
L 603.493997 302.107302 
L 613.06518 316.145947 
L 622.636364 318.043061 
" clip-path="url(#p9142feb740)" style="fill: none; stroke: #9467bd; stroke-width: 1.5; stroke-linecap: square"/>
   </g>
   <g id="line2d_30">
    <path d="M 115.363636 134.212698 
L 124.93482 89.345947 
L 134.506003 98.831518 
L 144.077187 120.885471 
L 153.64837 176.636913 
L 163.219554 184.545508 
L 172.790738 188.849586 
L 182.361921 167.056487 
L 191.933105 134.497265 
L 201.504288 117.850088 
L 211.075472 111.3999 
L 220.646655 115.905546 
L 230.217839 156.693501 
L 239.789022 180.146575 
L 249.360206 224.539046 
L 258.931389 211.437102 
L 268.502573 216.618595 
L 278.073756 186.703476 
L 287.64494 126.956236 
L 297.216123 168.621606 
L 306.787307 212.996292 
L 316.358491 228.641556 
L 325.929674 241.257365 
L 335.500858 272.038043 
L 345.072041 241.067654 
L 354.643225 149.342183 
L 364.214408 99.68522 
L 373.785592 112.965019 
L 383.356775 147.492497 
L 392.927959 185.529636 
L 402.499142 219.357553 
L 412.070326 238.221982 
L 421.641509 243.6999 
L 431.212693 124.821982 
L 440.783877 112.206173 
L 450.35506 125.011694 
L 459.926244 153.752974 
L 469.497427 194.422359 
L 479.068611 228.831267 
L 488.639794 285.12813 
L 498.210978 217.590866 
L 507.782161 187.189611 
L 517.353345 193.349304 
L 526.924528 188.36345 
L 536.495712 226.578444 
L 546.066895 262.457616 
L 555.638079 284.748708 
L 565.209262 288.590364 
L 574.780446 297.459373 
L 584.35163 317.85335 
L 593.922813 313.489987 
L 603.493997 305.522108 
L 613.06518 321.83729 
L 622.636364 315.86138 
" clip-path="url(#p9142feb740)" style="fill: none; stroke: #8c564b; stroke-width: 1.5; stroke-linecap: square"/>
   </g>
   <g id="line2d_31">
    <path d="M 115.363636 70.090238 
L 124.93482 66.96 
L 134.506003 86.974555 
L 144.077187 100.444065 
L 153.64837 177.692183 
L 163.219554 148.441054 
L 172.790738 169.641305 
L 182.361921 171.18271 
L 191.933105 140.994881 
L 201.504288 120.363764 
L 211.075472 96.36527 
L 220.646655 115.194128 
L 230.217839 133.453852 
L 239.789022 167.293626 
L 249.360206 227.266148 
L 258.931389 250.837792 
L 268.502573 277.017967 
L 278.073756 223.08064 
L 287.64494 171.372422 
L 297.216123 207.367199 
L 306.787307 255.106299 
L 316.358491 281.096763 
L 325.929674 321.363011 
L 335.500858 349.535157 
L 345.072041 341.9467 
L 354.643225 239.289109 
L 364.214408 211.44303 
L 373.785592 218.895132 
L 383.356775 245.810439 
L 392.927959 269.571794 
L 402.499142 292.100025 
L 412.070326 341.756989 
L 421.641509 350.104291 
L 431.212693 282.614454 
L 440.783877 250.600652 
L 450.35506 249.391242 
L 459.926244 271.706048 
L 469.497427 307.988356 
L 479.068611 324.777817 
L 488.639794 341.472422 
L 498.210978 301.72788 
L 507.782161 271.089486 
L 517.353345 247.754981 
L 526.924528 258.758243 
L 536.495712 281.997892 
L 546.066895 306.755232 
L 555.638079 318.707051 
L 565.209262 329.520602 
L 574.780446 340.903287 
L 584.35163 337.488482 
L 593.922813 322.596136 
L 603.493997 322.121857 
L 613.06518 333.409686 
L 622.636364 335.306801 
" clip-path="url(#p9142feb740)" style="fill: none; stroke: #e377c2; stroke-width: 1.5; stroke-linecap: square"/>
   </g>
   <g id="line2d_32">
    <path d="M 115.363636 90.579072 
L 124.93482 68.28798 
L 134.506003 84.792873 
L 144.077187 108.981079 
L 153.64837 160.772296 
L 163.219554 149.247327 
L 172.790738 183.1701 
L 182.361921 182.494253 
L 191.933105 150.29074 
L 201.504288 129.849335 
L 211.075472 102.436035 
L 220.646655 118.182083 
L 230.217839 141.469159 
L 239.789022 164.851092 
L 249.360206 234.285471 
L 258.931389 241.565646 
L 268.502573 248.063262 
L 278.073756 241.660502 
L 287.64494 178.225747 
L 297.216123 201.213991 
L 306.787307 248.845822 
L 316.358491 274.362008 
L 325.929674 312.446575 
L 335.500858 351.716838 
L 345.072041 309.695759 
L 354.643225 229.352974 
L 364.214408 203.25135 
L 373.785592 208.875997 
L 383.356775 236.728005 
L 392.927959 268.243814 
L 402.499142 294.42399 
L 412.070326 341.28271 
L 421.641509 354.752221 
L 431.212693 294.898269 
L 440.783877 233.431769 
L 450.35506 241.47079 
L 459.926244 267.769536 
L 469.497427 303.435282 
L 479.068611 314.153977 
L 488.639794 369.36 
L 498.210978 314.5334 
L 507.782161 271.848331 
L 517.353345 245.241305 
L 526.924528 259.611945 
L 536.495712 274.267152 
L 546.066895 302.297014 
L 555.638079 322.975558 
L 565.209262 327.528632 
L 574.780446 335.686223 
L 584.35163 341.28271 
L 593.922813 328.002911 
L 603.493997 334.168532 
L 613.06518 335.306801 
L 622.636364 340.144442 
" clip-path="url(#p9142feb740)" style="fill: none; stroke: #7f7f7f; stroke-width: 1.5; stroke-linecap: square"/>
   </g>
   <g id="patch_3">
    <path d="M 90 384.48 
L 90 51.84 
" style="fill: none; stroke: #000000; stroke-width: 0.8; stroke-linejoin: miter; stroke-linecap: square"/>
   </g>
   <g id="patch_4">
    <path d="M 648 384.48 
L 648 51.84 
" style="fill: none; stroke: #000000; stroke-width: 0.8; stroke-linejoin: miter; stroke-linecap: square"/>
   </g>
   <g id="patch_5">
    <path d="M 90 384.48 
L 648 384.48 
" style="fill: none; stroke: #000000; stroke-width: 0.8; stroke-linejoin: miter; stroke-linecap: square"/>
   </g>
   <g id="patch_6">
    <path d="M 90 51.84 
L 648 51.84 
" style="fill: none; stroke: #000000; stroke-width: 0.8; stroke-linejoin: miter; stroke-linecap: square"/>
   </g>
   <g id="text_15">
    <!-- 1250 Hz -->
    <g transform="translate(341.136563 45.84) scale(0.12 -0.12)">
     <defs>
      <path id="DejaVuSerif-Bold-31" d="M 878 0 
L 878 378 
L 1753 378 
L 1753 4153 
L 781 3578 
L 781 4044 
L 1953 4750 
L 2938 4750 
L 2938 378 
L 3816 378 
L 3816 0 
L 878 0 
z
" transform="scale(0.015625)"/>
      <path id="DejaVuSerif-Bold-32" d="M 844 3513 
L 469 3513 
L 469 4519 
Q 850 4634 1223 4692 
Q 1597 4750 1978 4750 
Q 2869 4750 3367 4386 
Q 3866 4022 3866 3372 
Q 3866 2909 3591 2542 
Q 3316 2175 2541 1672 
L 1241 819 
L 3450 819 
L 3450 1369 
L 3878 1369 
L 3878 0 
L 428 0 
L 428 763 
L 1119 1241 
Q 2003 1850 2297 2278 
Q 2591 2706 2591 3278 
Q 2591 3819 2367 4101 
Q 2144 4384 1716 4384 
Q 1347 4384 1125 4161 
Q 903 3938 844 3513 
z
" transform="scale(0.015625)"/>
      <path id="DejaVuSerif-Bold-35" d="M 3609 4666 
L 3609 3847 
L 1113 3847 
L 1113 2822 
Q 1319 2981 1572 3062 
Q 1825 3144 2106 3144 
Q 2969 3144 3469 2708 
Q 3969 2272 3969 1522 
Q 3969 759 3469 334 
Q 2969 -91 2069 -91 
Q 1688 -91 1311 -28 
Q 934 34 525 166 
L 525 1184 
L 900 1184 
Q 919 725 1139 500 
Q 1359 275 1791 275 
Q 2250 275 2472 583 
Q 2694 891 2694 1522 
Q 2694 2144 2476 2451 
Q 2259 2759 1819 2759 
Q 1581 2759 1395 2661 
Q 1209 2563 1050 2356 
L 738 2356 
L 738 4666 
L 3609 4666 
z
" transform="scale(0.015625)"/>
      <path id="DejaVuSerif-Bold-30" d="M 2228 275 
Q 2603 275 2742 615 
Q 2881 956 2881 2328 
Q 2881 3691 2742 4037 
Q 2603 4384 2228 4384 
Q 1853 4384 1714 4043 
Q 1575 3703 1575 2328 
Q 1575 956 1714 615 
Q 1853 275 2228 275 
z
M 2228 -91 
Q 1294 -91 797 532 
Q 300 1156 300 2328 
Q 300 3500 797 4125 
Q 1294 4750 2228 4750 
Q 3159 4750 3656 4125 
Q 4153 3500 4153 2328 
Q 4153 1156 3656 532 
Q 3159 -91 2228 -91 
z
" transform="scale(0.015625)"/>
      <path id="DejaVuSerif-Bold-20" transform="scale(0.015625)"/>
      <path id="DejaVuSerif-Bold-48" d="M 300 0 
L 300 378 
L 897 378 
L 897 4288 
L 300 4288 
L 300 4666 
L 2700 4666 
L 2700 4288 
L 2100 4288 
L 2100 2719 
L 3956 2719 
L 3956 4288 
L 3359 4288 
L 3359 4666 
L 5759 4666 
L 5759 4288 
L 5159 4288 
L 5159 378 
L 5759 378 
L 5759 0 
L 3359 0 
L 3359 378 
L 3956 378 
L 3956 2291 
L 2100 2291 
L 2100 378 
L 2700 378 
L 2700 0 
L 300 0 
z
" transform="scale(0.015625)"/>
      <path id="DejaVuSerif-Bold-7a" d="M 225 0 
L 225 378 
L 2131 2956 
L 697 2956 
L 697 2388 
L 325 2388 
L 325 3322 
L 3419 3322 
L 3419 2950 
L 1509 372 
L 3047 372 
L 3047 972 
L 3419 972 
L 3419 0 
L 225 0 
z
" transform="scale(0.015625)"/>
     </defs>
     <use xlink:href="#DejaVuSerif-Bold-31"/>
     <use xlink:href="#DejaVuSerif-Bold-32" x="69.580078"/>
     <use xlink:href="#DejaVuSerif-Bold-35" x="139.160156"/>
     <use xlink:href="#DejaVuSerif-Bold-30" x="208.740234"/>
     <use xlink:href="#DejaVuSerif-Bold-20" x="278.320312"/>
     <use xlink:href="#DejaVuSerif-Bold-48" x="313.134766"/>
     <use xlink:href="#DejaVuSerif-Bold-7a" x="407.617188"/>
    </g>
   </g>
  </g>
 </g>
 <defs>
  <clipPath id="p9142feb740">
   <rect x="90" y="51.84" width="558" height="332.64"/>
  </clipPath>
 </defs>
</svg>
