<?xml version="1.0" encoding="utf-8" standalone="no"?>
<!DOCTYPE svg PUBLIC "-//W3C//DTD SVG 1.1//EN"
  "http://www.w3.org/Graphics/SVG/1.1/DTD/svg11.dtd">
<svg xmlns:xlink="http://www.w3.org/1999/xlink" width="720pt" height="432pt" viewBox="0 0 720 432" xmlns="http://www.w3.org/2000/svg" version="1.1">
 <metadata>
  <rdf:RDF xmlns:dc="http://purl.org/dc/elements/1.1/" xmlns:cc="http://creativecommons.org/ns#" xmlns:rdf="http://www.w3.org/1999/02/22-rdf-syntax-ns#">
   <cc:Work>
    <dc:type rdf:resource="http://purl.org/dc/dcmitype/StillImage"/>
    <dc:date>2024-05-28T15:03:56.387181</dc:date>
    <dc:format>image/svg+xml</dc:format>
    <dc:creator>
     <cc:Agent>
      <dc:title>Matplotlib v3.8.4, https://matplotlib.org/</dc:title>
     </cc:Agent>
    </dc:creator>
   </cc:Work>
  </rdf:RDF>
 </metadata>
 <defs>
  <style type="text/css">*{stroke-linejoin: round; stroke-linecap: butt}</style>
 </defs>
 <g id="figure_1">
  <g id="patch_1">
   <path d="M 0 432 
L 720 432 
L 720 0 
L 0 0 
L 0 432 
z
" style="fill: none"/>
  </g>
  <g id="axes_1">
   <g id="patch_2">
    <path d="M 90 384.48 
L 648 384.48 
L 648 51.84 
L 90 51.84 
L 90 384.48 
z
" style="fill: none"/>
   </g>
   <g id="matplotlib.axis_1">
    <g id="xtick_1">
     <g id="line2d_1">
      <path d="M 100.702575 384.48 
L 100.702575 51.84 
" clip-path="url(#p7624d43bcf)" style="fill: none; stroke: #b0b0b0; stroke-width: 0.8; stroke-linecap: square"/>
     </g>
     <g id="line2d_2">
      <defs>
       <path id="mddca15d758" d="M 0 0 
L 0 3.5 
" style="stroke: #000000; stroke-width: 0.8"/>
      </defs>
      <g>
       <use xlink:href="#mddca15d758" x="100.702575" y="384.48" style="stroke: #000000; stroke-width: 0.8"/>
      </g>
     </g>
     <g id="text_1">
      <!-- 11.50 -->
      <g transform="translate(86.388512 399.078438) scale(0.1 -0.1)">
       <defs>
        <path id="DejaVuSans-31" d="M 794 531 
L 1825 531 
L 1825 4091 
L 703 3866 
L 703 4441 
L 1819 4666 
L 2450 4666 
L 2450 531 
L 3481 531 
L 3481 0 
L 794 0 
L 794 531 
z
" transform="scale(0.015625)"/>
        <path id="DejaVuSans-2e" d="M 684 794 
L 1344 794 
L 1344 0 
L 684 0 
L 684 794 
z
" transform="scale(0.015625)"/>
        <path id="DejaVuSans-35" d="M 691 4666 
L 3169 4666 
L 3169 4134 
L 1269 4134 
L 1269 2991 
Q 1406 3038 1543 3061 
Q 1681 3084 1819 3084 
Q 2600 3084 3056 2656 
Q 3513 2228 3513 1497 
Q 3513 744 3044 326 
Q 2575 -91 1722 -91 
Q 1428 -91 1123 -41 
Q 819 9 494 109 
L 494 744 
Q 775 591 1075 516 
Q 1375 441 1709 441 
Q 2250 441 2565 725 
Q 2881 1009 2881 1497 
Q 2881 1984 2565 2268 
Q 2250 2553 1709 2553 
Q 1456 2553 1204 2497 
Q 953 2441 691 2322 
L 691 4666 
z
" transform="scale(0.015625)"/>
        <path id="DejaVuSans-30" d="M 2034 4250 
Q 1547 4250 1301 3770 
Q 1056 3291 1056 2328 
Q 1056 1369 1301 889 
Q 1547 409 2034 409 
Q 2525 409 2770 889 
Q 3016 1369 3016 2328 
Q 3016 3291 2770 3770 
Q 2525 4250 2034 4250 
z
M 2034 4750 
Q 2819 4750 3233 4129 
Q 3647 3509 3647 2328 
Q 3647 1150 3233 529 
Q 2819 -91 2034 -91 
Q 1250 -91 836 529 
Q 422 1150 422 2328 
Q 422 3509 836 4129 
Q 1250 4750 2034 4750 
z
" transform="scale(0.015625)"/>
       </defs>
       <use xlink:href="#DejaVuSans-31"/>
       <use xlink:href="#DejaVuSans-31" x="63.623047"/>
       <use xlink:href="#DejaVuSans-2e" x="127.246094"/>
       <use xlink:href="#DejaVuSans-35" x="159.033203"/>
       <use xlink:href="#DejaVuSans-30" x="222.65625"/>
      </g>
     </g>
    </g>
    <g id="xtick_2">
     <g id="line2d_3">
      <path d="M 217.991067 384.48 
L 217.991067 51.84 
" clip-path="url(#p7624d43bcf)" style="fill: none; stroke: #b0b0b0; stroke-width: 0.8; stroke-linecap: square"/>
     </g>
     <g id="line2d_4">
      <g>
       <use xlink:href="#mddca15d758" x="217.991067" y="384.48" style="stroke: #000000; stroke-width: 0.8"/>
      </g>
     </g>
     <g id="text_2">
      <!-- 11.51 -->
      <g transform="translate(203.677004 399.078438) scale(0.1 -0.1)">
       <use xlink:href="#DejaVuSans-31"/>
       <use xlink:href="#DejaVuSans-31" x="63.623047"/>
       <use xlink:href="#DejaVuSans-2e" x="127.246094"/>
       <use xlink:href="#DejaVuSans-35" x="159.033203"/>
       <use xlink:href="#DejaVuSans-31" x="222.65625"/>
      </g>
     </g>
    </g>
    <g id="xtick_3">
     <g id="line2d_5">
      <path d="M 335.279559 384.48 
L 335.279559 51.84 
" clip-path="url(#p7624d43bcf)" style="fill: none; stroke: #b0b0b0; stroke-width: 0.8; stroke-linecap: square"/>
     </g>
     <g id="line2d_6">
      <g>
       <use xlink:href="#mddca15d758" x="335.279559" y="384.48" style="stroke: #000000; stroke-width: 0.8"/>
      </g>
     </g>
     <g id="text_3">
      <!-- 11.52 -->
      <g transform="translate(320.965496 399.078438) scale(0.1 -0.1)">
       <defs>
        <path id="DejaVuSans-32" d="M 1228 531 
L 3431 531 
L 3431 0 
L 469 0 
L 469 531 
Q 828 903 1448 1529 
Q 2069 2156 2228 2338 
Q 2531 2678 2651 2914 
Q 2772 3150 2772 3378 
Q 2772 3750 2511 3984 
Q 2250 4219 1831 4219 
Q 1534 4219 1204 4116 
Q 875 4013 500 3803 
L 500 4441 
Q 881 4594 1212 4672 
Q 1544 4750 1819 4750 
Q 2544 4750 2975 4387 
Q 3406 4025 3406 3419 
Q 3406 3131 3298 2873 
Q 3191 2616 2906 2266 
Q 2828 2175 2409 1742 
Q 1991 1309 1228 531 
z
" transform="scale(0.015625)"/>
       </defs>
       <use xlink:href="#DejaVuSans-31"/>
       <use xlink:href="#DejaVuSans-31" x="63.623047"/>
       <use xlink:href="#DejaVuSans-2e" x="127.246094"/>
       <use xlink:href="#DejaVuSans-35" x="159.033203"/>
       <use xlink:href="#DejaVuSans-32" x="222.65625"/>
      </g>
     </g>
    </g>
    <g id="xtick_4">
     <g id="line2d_7">
      <path d="M 452.56805 384.48 
L 452.56805 51.84 
" clip-path="url(#p7624d43bcf)" style="fill: none; stroke: #b0b0b0; stroke-width: 0.8; stroke-linecap: square"/>
     </g>
     <g id="line2d_8">
      <g>
       <use xlink:href="#mddca15d758" x="452.56805" y="384.48" style="stroke: #000000; stroke-width: 0.8"/>
      </g>
     </g>
     <g id="text_4">
      <!-- 11.53 -->
      <g transform="translate(438.253988 399.078438) scale(0.1 -0.1)">
       <defs>
        <path id="DejaVuSans-33" d="M 2597 2516 
Q 3050 2419 3304 2112 
Q 3559 1806 3559 1356 
Q 3559 666 3084 287 
Q 2609 -91 1734 -91 
Q 1441 -91 1130 -33 
Q 819 25 488 141 
L 488 750 
Q 750 597 1062 519 
Q 1375 441 1716 441 
Q 2309 441 2620 675 
Q 2931 909 2931 1356 
Q 2931 1769 2642 2001 
Q 2353 2234 1838 2234 
L 1294 2234 
L 1294 2753 
L 1863 2753 
Q 2328 2753 2575 2939 
Q 2822 3125 2822 3475 
Q 2822 3834 2567 4026 
Q 2313 4219 1838 4219 
Q 1578 4219 1281 4162 
Q 984 4106 628 3988 
L 628 4550 
Q 988 4650 1302 4700 
Q 1616 4750 1894 4750 
Q 2613 4750 3031 4423 
Q 3450 4097 3450 3541 
Q 3450 3153 3228 2886 
Q 3006 2619 2597 2516 
z
" transform="scale(0.015625)"/>
       </defs>
       <use xlink:href="#DejaVuSans-31"/>
       <use xlink:href="#DejaVuSans-31" x="63.623047"/>
       <use xlink:href="#DejaVuSans-2e" x="127.246094"/>
       <use xlink:href="#DejaVuSans-35" x="159.033203"/>
       <use xlink:href="#DejaVuSans-33" x="222.65625"/>
      </g>
     </g>
    </g>
    <g id="xtick_5">
     <g id="line2d_9">
      <path d="M 569.856542 384.48 
L 569.856542 51.84 
" clip-path="url(#p7624d43bcf)" style="fill: none; stroke: #b0b0b0; stroke-width: 0.8; stroke-linecap: square"/>
     </g>
     <g id="line2d_10">
      <g>
       <use xlink:href="#mddca15d758" x="569.856542" y="384.48" style="stroke: #000000; stroke-width: 0.8"/>
      </g>
     </g>
     <g id="text_5">
      <!-- 11.54 -->
      <g transform="translate(555.54248 399.078438) scale(0.1 -0.1)">
       <defs>
        <path id="DejaVuSans-34" d="M 2419 4116 
L 825 1625 
L 2419 1625 
L 2419 4116 
z
M 2253 4666 
L 3047 4666 
L 3047 1625 
L 3713 1625 
L 3713 1100 
L 3047 1100 
L 3047 0 
L 2419 0 
L 2419 1100 
L 313 1100 
L 313 1709 
L 2253 4666 
z
" transform="scale(0.015625)"/>
       </defs>
       <use xlink:href="#DejaVuSans-31"/>
       <use xlink:href="#DejaVuSans-31" x="63.623047"/>
       <use xlink:href="#DejaVuSans-2e" x="127.246094"/>
       <use xlink:href="#DejaVuSans-35" x="159.033203"/>
       <use xlink:href="#DejaVuSans-34" x="222.65625"/>
      </g>
     </g>
    </g>
    <g id="text_6">
     <!-- Time (s) -->
     <g transform="translate(348.671094 412.756563) scale(0.1 -0.1)">
      <defs>
       <path id="DejaVuSans-54" d="M -19 4666 
L 3928 4666 
L 3928 4134 
L 2272 4134 
L 2272 0 
L 1638 0 
L 1638 4134 
L -19 4134 
L -19 4666 
z
" transform="scale(0.015625)"/>
       <path id="DejaVuSans-69" d="M 603 3500 
L 1178 3500 
L 1178 0 
L 603 0 
L 603 3500 
z
M 603 4863 
L 1178 4863 
L 1178 4134 
L 603 4134 
L 603 4863 
z
" transform="scale(0.015625)"/>
       <path id="DejaVuSans-6d" d="M 3328 2828 
Q 3544 3216 3844 3400 
Q 4144 3584 4550 3584 
Q 5097 3584 5394 3201 
Q 5691 2819 5691 2113 
L 5691 0 
L 5113 0 
L 5113 2094 
Q 5113 2597 4934 2840 
Q 4756 3084 4391 3084 
Q 3944 3084 3684 2787 
Q 3425 2491 3425 1978 
L 3425 0 
L 2847 0 
L 2847 2094 
Q 2847 2600 2669 2842 
Q 2491 3084 2119 3084 
Q 1678 3084 1418 2786 
Q 1159 2488 1159 1978 
L 1159 0 
L 581 0 
L 581 3500 
L 1159 3500 
L 1159 2956 
Q 1356 3278 1631 3431 
Q 1906 3584 2284 3584 
Q 2666 3584 2933 3390 
Q 3200 3197 3328 2828 
z
" transform="scale(0.015625)"/>
       <path id="DejaVuSans-65" d="M 3597 1894 
L 3597 1613 
L 953 1613 
Q 991 1019 1311 708 
Q 1631 397 2203 397 
Q 2534 397 2845 478 
Q 3156 559 3463 722 
L 3463 178 
Q 3153 47 2828 -22 
Q 2503 -91 2169 -91 
Q 1331 -91 842 396 
Q 353 884 353 1716 
Q 353 2575 817 3079 
Q 1281 3584 2069 3584 
Q 2775 3584 3186 3129 
Q 3597 2675 3597 1894 
z
M 3022 2063 
Q 3016 2534 2758 2815 
Q 2500 3097 2075 3097 
Q 1594 3097 1305 2825 
Q 1016 2553 972 2059 
L 3022 2063 
z
" transform="scale(0.015625)"/>
       <path id="DejaVuSans-20" transform="scale(0.015625)"/>
       <path id="DejaVuSans-28" d="M 1984 4856 
Q 1566 4138 1362 3434 
Q 1159 2731 1159 2009 
Q 1159 1288 1364 580 
Q 1569 -128 1984 -844 
L 1484 -844 
Q 1016 -109 783 600 
Q 550 1309 550 2009 
Q 550 2706 781 3412 
Q 1013 4119 1484 4856 
L 1984 4856 
z
" transform="scale(0.015625)"/>
       <path id="DejaVuSans-73" d="M 2834 3397 
L 2834 2853 
Q 2591 2978 2328 3040 
Q 2066 3103 1784 3103 
Q 1356 3103 1142 2972 
Q 928 2841 928 2578 
Q 928 2378 1081 2264 
Q 1234 2150 1697 2047 
L 1894 2003 
Q 2506 1872 2764 1633 
Q 3022 1394 3022 966 
Q 3022 478 2636 193 
Q 2250 -91 1575 -91 
Q 1294 -91 989 -36 
Q 684 19 347 128 
L 347 722 
Q 666 556 975 473 
Q 1284 391 1588 391 
Q 1994 391 2212 530 
Q 2431 669 2431 922 
Q 2431 1156 2273 1281 
Q 2116 1406 1581 1522 
L 1381 1569 
Q 847 1681 609 1914 
Q 372 2147 372 2553 
Q 372 3047 722 3315 
Q 1072 3584 1716 3584 
Q 2034 3584 2315 3537 
Q 2597 3491 2834 3397 
z
" transform="scale(0.015625)"/>
       <path id="DejaVuSans-29" d="M 513 4856 
L 1013 4856 
Q 1481 4119 1714 3412 
Q 1947 2706 1947 2009 
Q 1947 1309 1714 600 
Q 1481 -109 1013 -844 
L 513 -844 
Q 928 -128 1133 580 
Q 1338 1288 1338 2009 
Q 1338 2731 1133 3434 
Q 928 4138 513 4856 
z
" transform="scale(0.015625)"/>
      </defs>
      <use xlink:href="#DejaVuSans-54"/>
      <use xlink:href="#DejaVuSans-69" x="57.958984"/>
      <use xlink:href="#DejaVuSans-6d" x="85.742188"/>
      <use xlink:href="#DejaVuSans-65" x="183.154297"/>
      <use xlink:href="#DejaVuSans-20" x="244.677734"/>
      <use xlink:href="#DejaVuSans-28" x="276.464844"/>
      <use xlink:href="#DejaVuSans-73" x="315.478516"/>
      <use xlink:href="#DejaVuSans-29" x="367.578125"/>
     </g>
    </g>
   </g>
   <g id="matplotlib.axis_2">
    <g id="ytick_1">
     <g id="line2d_11">
      <path d="M 90 377.969878 
L 648 377.969878 
" clip-path="url(#p7624d43bcf)" style="fill: none; stroke: #b0b0b0; stroke-width: 0.8; stroke-linecap: square"/>
     </g>
     <g id="line2d_12">
      <defs>
       <path id="m55578b1416" d="M 0 0 
L -3.5 0 
" style="stroke: #000000; stroke-width: 0.8"/>
      </defs>
      <g>
       <use xlink:href="#m55578b1416" x="90" y="377.969878" style="stroke: #000000; stroke-width: 0.8"/>
      </g>
     </g>
     <g id="text_7">
      <!-- −4 -->
      <g transform="translate(68.257812 381.769097) scale(0.1 -0.1)">
       <defs>
        <path id="DejaVuSans-2212" d="M 678 2272 
L 4684 2272 
L 4684 1741 
L 678 1741 
L 678 2272 
z
" transform="scale(0.015625)"/>
       </defs>
       <use xlink:href="#DejaVuSans-2212"/>
       <use xlink:href="#DejaVuSans-34" x="83.789062"/>
      </g>
     </g>
    </g>
    <g id="ytick_2">
     <g id="line2d_13">
      <path d="M 90 332.987658 
L 648 332.987658 
" clip-path="url(#p7624d43bcf)" style="fill: none; stroke: #b0b0b0; stroke-width: 0.8; stroke-linecap: square"/>
     </g>
     <g id="line2d_14">
      <g>
       <use xlink:href="#m55578b1416" x="90" y="332.987658" style="stroke: #000000; stroke-width: 0.8"/>
      </g>
     </g>
     <g id="text_8">
      <!-- −3 -->
      <g transform="translate(68.257812 336.786877) scale(0.1 -0.1)">
       <use xlink:href="#DejaVuSans-2212"/>
       <use xlink:href="#DejaVuSans-33" x="83.789062"/>
      </g>
     </g>
    </g>
    <g id="ytick_3">
     <g id="line2d_15">
      <path d="M 90 288.005439 
L 648 288.005439 
" clip-path="url(#p7624d43bcf)" style="fill: none; stroke: #b0b0b0; stroke-width: 0.8; stroke-linecap: square"/>
     </g>
     <g id="line2d_16">
      <g>
       <use xlink:href="#m55578b1416" x="90" y="288.005439" style="stroke: #000000; stroke-width: 0.8"/>
      </g>
     </g>
     <g id="text_9">
      <!-- −2 -->
      <g transform="translate(68.257812 291.804657) scale(0.1 -0.1)">
       <use xlink:href="#DejaVuSans-2212"/>
       <use xlink:href="#DejaVuSans-32" x="83.789062"/>
      </g>
     </g>
    </g>
    <g id="ytick_4">
     <g id="line2d_17">
      <path d="M 90 243.023219 
L 648 243.023219 
" clip-path="url(#p7624d43bcf)" style="fill: none; stroke: #b0b0b0; stroke-width: 0.8; stroke-linecap: square"/>
     </g>
     <g id="line2d_18">
      <g>
       <use xlink:href="#m55578b1416" x="90" y="243.023219" style="stroke: #000000; stroke-width: 0.8"/>
      </g>
     </g>
     <g id="text_10">
      <!-- −1 -->
      <g transform="translate(68.257812 246.822438) scale(0.1 -0.1)">
       <use xlink:href="#DejaVuSans-2212"/>
       <use xlink:href="#DejaVuSans-31" x="83.789062"/>
      </g>
     </g>
    </g>
    <g id="ytick_5">
     <g id="line2d_19">
      <path d="M 90 198.040999 
L 648 198.040999 
" clip-path="url(#p7624d43bcf)" style="fill: none; stroke: #b0b0b0; stroke-width: 0.8; stroke-linecap: square"/>
     </g>
     <g id="line2d_20">
      <g>
       <use xlink:href="#m55578b1416" x="90" y="198.040999" style="stroke: #000000; stroke-width: 0.8"/>
      </g>
     </g>
     <g id="text_11">
      <!-- 0 -->
      <g transform="translate(76.6375 201.840218) scale(0.1 -0.1)">
       <use xlink:href="#DejaVuSans-30"/>
      </g>
     </g>
    </g>
    <g id="ytick_6">
     <g id="line2d_21">
      <path d="M 90 153.05878 
L 648 153.05878 
" clip-path="url(#p7624d43bcf)" style="fill: none; stroke: #b0b0b0; stroke-width: 0.8; stroke-linecap: square"/>
     </g>
     <g id="line2d_22">
      <g>
       <use xlink:href="#m55578b1416" x="90" y="153.05878" style="stroke: #000000; stroke-width: 0.8"/>
      </g>
     </g>
     <g id="text_12">
      <!-- 1 -->
      <g transform="translate(76.6375 156.857999) scale(0.1 -0.1)">
       <use xlink:href="#DejaVuSans-31"/>
      </g>
     </g>
    </g>
    <g id="ytick_7">
     <g id="line2d_23">
      <path d="M 90 108.07656 
L 648 108.07656 
" clip-path="url(#p7624d43bcf)" style="fill: none; stroke: #b0b0b0; stroke-width: 0.8; stroke-linecap: square"/>
     </g>
     <g id="line2d_24">
      <g>
       <use xlink:href="#m55578b1416" x="90" y="108.07656" style="stroke: #000000; stroke-width: 0.8"/>
      </g>
     </g>
     <g id="text_13">
      <!-- 2 -->
      <g transform="translate(76.6375 111.875779) scale(0.1 -0.1)">
       <use xlink:href="#DejaVuSans-32"/>
      </g>
     </g>
    </g>
    <g id="ytick_8">
     <g id="line2d_25">
      <path d="M 90 63.09434 
L 648 63.09434 
" clip-path="url(#p7624d43bcf)" style="fill: none; stroke: #b0b0b0; stroke-width: 0.8; stroke-linecap: square"/>
     </g>
     <g id="line2d_26">
      <g>
       <use xlink:href="#m55578b1416" x="90" y="63.09434" style="stroke: #000000; stroke-width: 0.8"/>
      </g>
     </g>
     <g id="text_14">
      <!-- 3 -->
      <g transform="translate(76.6375 66.893559) scale(0.1 -0.1)">
       <use xlink:href="#DejaVuSans-33"/>
      </g>
     </g>
    </g>
    <g id="text_15">
     <!-- Amplitude (mV) -->
     <g transform="translate(62.178125 257.563906) rotate(-90) scale(0.1 -0.1)">
      <defs>
       <path id="DejaVuSans-41" d="M 2188 4044 
L 1331 1722 
L 3047 1722 
L 2188 4044 
z
M 1831 4666 
L 2547 4666 
L 4325 0 
L 3669 0 
L 3244 1197 
L 1141 1197 
L 716 0 
L 50 0 
L 1831 4666 
z
" transform="scale(0.015625)"/>
       <path id="DejaVuSans-70" d="M 1159 525 
L 1159 -1331 
L 581 -1331 
L 581 3500 
L 1159 3500 
L 1159 2969 
Q 1341 3281 1617 3432 
Q 1894 3584 2278 3584 
Q 2916 3584 3314 3078 
Q 3713 2572 3713 1747 
Q 3713 922 3314 415 
Q 2916 -91 2278 -91 
Q 1894 -91 1617 61 
Q 1341 213 1159 525 
z
M 3116 1747 
Q 3116 2381 2855 2742 
Q 2594 3103 2138 3103 
Q 1681 3103 1420 2742 
Q 1159 2381 1159 1747 
Q 1159 1113 1420 752 
Q 1681 391 2138 391 
Q 2594 391 2855 752 
Q 3116 1113 3116 1747 
z
" transform="scale(0.015625)"/>
       <path id="DejaVuSans-6c" d="M 603 4863 
L 1178 4863 
L 1178 0 
L 603 0 
L 603 4863 
z
" transform="scale(0.015625)"/>
       <path id="DejaVuSans-74" d="M 1172 4494 
L 1172 3500 
L 2356 3500 
L 2356 3053 
L 1172 3053 
L 1172 1153 
Q 1172 725 1289 603 
Q 1406 481 1766 481 
L 2356 481 
L 2356 0 
L 1766 0 
Q 1100 0 847 248 
Q 594 497 594 1153 
L 594 3053 
L 172 3053 
L 172 3500 
L 594 3500 
L 594 4494 
L 1172 4494 
z
" transform="scale(0.015625)"/>
       <path id="DejaVuSans-75" d="M 544 1381 
L 544 3500 
L 1119 3500 
L 1119 1403 
Q 1119 906 1312 657 
Q 1506 409 1894 409 
Q 2359 409 2629 706 
Q 2900 1003 2900 1516 
L 2900 3500 
L 3475 3500 
L 3475 0 
L 2900 0 
L 2900 538 
Q 2691 219 2414 64 
Q 2138 -91 1772 -91 
Q 1169 -91 856 284 
Q 544 659 544 1381 
z
M 1991 3584 
L 1991 3584 
z
" transform="scale(0.015625)"/>
       <path id="DejaVuSans-64" d="M 2906 2969 
L 2906 4863 
L 3481 4863 
L 3481 0 
L 2906 0 
L 2906 525 
Q 2725 213 2448 61 
Q 2172 -91 1784 -91 
Q 1150 -91 751 415 
Q 353 922 353 1747 
Q 353 2572 751 3078 
Q 1150 3584 1784 3584 
Q 2172 3584 2448 3432 
Q 2725 3281 2906 2969 
z
M 947 1747 
Q 947 1113 1208 752 
Q 1469 391 1925 391 
Q 2381 391 2643 752 
Q 2906 1113 2906 1747 
Q 2906 2381 2643 2742 
Q 2381 3103 1925 3103 
Q 1469 3103 1208 2742 
Q 947 2381 947 1747 
z
" transform="scale(0.015625)"/>
       <path id="DejaVuSans-56" d="M 1831 0 
L 50 4666 
L 709 4666 
L 2188 738 
L 3669 4666 
L 4325 4666 
L 2547 0 
L 1831 0 
z
" transform="scale(0.015625)"/>
      </defs>
      <use xlink:href="#DejaVuSans-41"/>
      <use xlink:href="#DejaVuSans-6d" x="68.408203"/>
      <use xlink:href="#DejaVuSans-70" x="165.820312"/>
      <use xlink:href="#DejaVuSans-6c" x="229.296875"/>
      <use xlink:href="#DejaVuSans-69" x="257.080078"/>
      <use xlink:href="#DejaVuSans-74" x="284.863281"/>
      <use xlink:href="#DejaVuSans-75" x="324.072266"/>
      <use xlink:href="#DejaVuSans-64" x="387.451172"/>
      <use xlink:href="#DejaVuSans-65" x="450.927734"/>
      <use xlink:href="#DejaVuSans-20" x="512.451172"/>
      <use xlink:href="#DejaVuSans-28" x="544.238281"/>
      <use xlink:href="#DejaVuSans-6d" x="583.251953"/>
      <use xlink:href="#DejaVuSans-56" x="680.664062"/>
      <use xlink:href="#DejaVuSans-29" x="749.072266"/>
     </g>
    </g>
   </g>
   <g id="line2d_27">
    <path d="M 115.363636 182.380686 
L 118.312896 175.044718 
L 121.262156 171.091203 
L 124.211416 168.653202 
L 127.160677 175.462034 
L 130.109937 174.539547 
L 133.059197 167.115723 
L 136.008457 178.822522 
L 138.957717 182.677199 
L 141.906977 179.020198 
L 147.805497 185.214038 
L 150.754757 194.375761 
L 156.653277 191.731848 
L 159.602537 196.307218 
L 162.551797 197.223528 
L 165.501057 207.699657 
L 168.450317 212.58115 
L 171.399577 208.309157 
L 174.348837 208.001662 
L 177.298097 205.969994 
L 180.247357 201.494834 
L 183.196617 201.700747 
L 186.145877 196.205635 
L 189.095137 193.258344 
L 192.044397 200.171505 
L 194.993658 191.116856 
L 197.942918 196.408802 
L 200.892178 185.730192 
L 203.841438 186.641697 
L 206.790698 178.92136 
L 209.739958 182.172028 
L 212.689218 183.797362 
L 215.638478 189.184027 
L 218.587738 195.086845 
L 221.536998 195.188428 
L 224.486258 199.664961 
L 227.435518 211.47197 
L 230.384778 202.818164 
L 236.283298 202.818164 
L 242.181818 217.973306 
L 245.131078 221.234956 
L 248.080338 225.715607 
L 251.029598 227.736293 
L 253.978858 244.912121 
L 256.928118 241.771273 
L 259.877378 232.216944 
L 262.826638 241.771273 
L 265.775899 240.65111 
L 268.725159 241.375921 
L 271.674419 234.259593 
L 274.623679 254.795909 
L 277.572939 248.294573 
L 280.522199 249.21706 
L 283.471459 253.697711 
L 286.420719 247.899221 
L 289.369979 255.498757 
L 292.319239 253.478071 
L 295.268499 258.441929 
L 298.217759 259.979407 
L 301.167019 259.05692 
L 304.116279 257.431586 
L 307.065539 256.640883 
L 310.014799 253.697711 
L 312.964059 268.633213 
L 315.913319 257.739082 
L 318.862579 259.4962 
L 321.811839 268.106078 
L 324.761099 268.237862 
L 327.710359 264.987193 
L 330.659619 268.413574 
L 333.608879 272.718512 
L 336.55814 281.240535 
L 339.5074 268.545357 
L 342.45666 267.62287 
L 345.40592 261.121534 
L 348.35518 266.392888 
L 351.30444 264.240418 
L 354.2537 267.403231 
L 357.20296 264.679698 
L 360.15222 266.305032 
L 363.10148 270.653899 
L 366.05074 258.134433 
L 369 253.258431 
L 371.94926 253.258431 
L 374.89852 261.692597 
L 377.84778 262.000093 
L 380.79704 254.795909 
L 383.7463 256.421243 
L 386.69556 265.997536 
L 389.64482 265.997536 
L 392.59408 264.460058 
L 395.54334 259.4962 
L 398.4926 264.987193 
L 401.44186 262.219733 
L 404.391121 254.268774 
L 407.340381 262.834724 
L 410.289641 273.728855 
L 413.238901 259.4962 
L 416.188161 250.842394 
L 419.137421 241.068425 
L 422.086681 233.337106 
L 425.035941 241.881092 
L 427.985201 244.341058 
L 430.934461 231.294457 
L 433.883721 238.8281 
L 436.832981 236.587775 
L 439.782241 239.838443 
L 442.731501 237.312586 
L 445.680761 224.6833 
L 448.630021 219.70846 
L 451.579281 228.856456 
L 454.528541 231.206601 
L 457.477801 234.96244 
L 460.427061 237.202766 
L 463.376321 233.446926 
L 466.325581 233.337106 
L 469.274841 227.121302 
L 472.224101 227.933969 
L 475.173362 224.6833 
L 478.122622 232.524439 
L 481.071882 225.408112 
L 484.021142 231.096781 
L 486.970402 221.322812 
L 489.919662 226.220779 
L 492.868922 225.605787 
L 495.818182 220.729785 
L 498.767442 225.188472 
L 501.716702 233.227286 
L 504.665962 226.72595 
L 507.615222 229.866798 
L 510.564482 237.092946 
L 513.513742 228.65878 
L 516.463002 243.813922 
L 519.412262 246.054248 
L 522.361522 246.054248 
L 525.310782 247.28423 
L 528.260042 252.555584 
L 531.209302 250.71061 
L 534.158562 263.230076 
L 537.107822 264.152562 
L 540.057082 259.188704 
L 543.006342 267.62287 
L 545.955603 263.14222 
L 548.904863 273.816711 
L 551.854123 270.170691 
L 554.803383 266.305032 
L 557.752643 263.054364 
L 560.701903 267.183591 
L 563.651163 263.054364 
L 566.600423 275.837397 
L 569.549683 267.491087 
L 572.498943 267.095735 
L 575.448203 262.834724 
L 578.397463 258.969064 
L 581.346723 253.697711 
L 584.295983 267.491087 
L 587.245243 261.516886 
L 590.194503 265.382545 
L 593.143763 261.604741 
L 596.093023 265.382545 
L 599.042283 260.506543 
L 601.991543 261.121534 
L 604.940803 256.509099 
L 607.890063 243.594282 
L 610.839323 253.258431 
L 613.788584 263.625427 
L 616.737844 252.160232 
L 619.687104 266.085392 
L 622.636364 266.392888 
L 622.636364 266.392888 
" clip-path="url(#p7624d43bcf)" style="fill: none; stroke: #1f77b4; stroke-width: 1.5; stroke-linecap: square"/>
   </g>
   <g id="line2d_28">
    <path d="M 115.363636 116.906078 
L 118.312896 105.265171 
L 121.262156 108.208344 
L 124.211416 113.699338 
L 127.160677 111.72258 
L 130.109937 123.055991 
L 133.059197 124.813109 
L 136.008457 127.009506 
L 138.957717 137.069006 
L 141.906977 138.255061 
L 144.856237 150.071679 
L 147.805497 155.101429 
L 150.754757 156.573016 
L 153.704017 171.46459 
L 156.653277 173.002069 
L 159.602537 177.307008 
L 162.551797 176.71398 
L 165.501057 179.997594 
L 168.450317 184.741813 
L 171.399577 179.130017 
L 174.348837 188.832603 
L 177.298097 184.741813 
L 180.247357 179.997594 
L 183.196617 168.389634 
L 186.145877 169.202301 
L 189.095137 157.517467 
L 192.044397 159.054945 
L 194.993658 155.255177 
L 197.942918 149.764184 
L 200.892178 139.485044 
L 203.841438 130.699454 
L 206.790698 135.399744 
L 209.739958 131.094805 
L 212.689218 131.094805 
L 215.638478 140.407531 
L 221.536998 155.321069 
L 224.486258 165.402533 
L 227.435518 170.3005 
L 230.384778 170.146752 
L 233.334038 173.221708 
L 236.283298 188.025427 
L 239.232558 198.763751 
L 242.181818 210.593411 
L 245.131078 232.436583 
L 248.080338 238.564532 
L 251.029598 264.328274 
L 253.978858 259.671912 
L 256.928118 265.514329 
L 259.877378 262.395445 
L 262.826638 259.671912 
L 265.775899 260.857966 
L 268.725159 235.643324 
L 271.674419 221.125137 
L 274.623679 220.817641 
L 277.572939 217.753666 
L 280.522199 214.173539 
L 283.471459 212.998466 
L 286.420719 212.778826 
L 289.369979 218.412586 
L 292.319239 227.692365 
L 295.268499 234.632981 
L 298.217759 240.826822 
L 301.167019 253.302359 
L 304.116279 255.674468 
L 307.065539 271.70817 
L 310.014799 282.909797 
L 312.964059 291.695386 
L 315.913319 296.878884 
L 318.862579 302.589518 
L 321.811839 307.24588 
L 324.761099 325.607763 
L 327.710359 320.775689 
L 330.659619 337.204741 
L 333.608879 329.297711 
L 336.55814 327.80416 
L 339.5074 333.339082 
L 342.45666 332.548379 
L 345.40592 285.677257 
L 351.30444 253.258431 
L 354.2537 250.71061 
L 357.20296 246.229959 
L 360.15222 246.976734 
L 363.10148 249.744195 
L 366.05074 249.656339 
L 369 239.15756 
L 371.94926 247.767438 
L 374.89852 261.956165 
L 377.84778 268.369646 
L 380.79704 277.330947 
L 383.7463 286.995096 
L 386.69556 292.837513 
L 389.64482 305.664474 
L 392.59408 312.868658 
L 395.54334 308.739431 
L 398.4926 319.194282 
L 401.44186 328.858431 
L 404.391121 340.982545 
L 407.340381 331.581964 
L 410.289641 360.310843 
L 413.238901 344.057501 
L 416.188161 340.982545 
L 419.137421 320.775689 
L 422.086681 322.796374 
L 425.035941 292.134666 
L 427.985201 285.150122 
L 430.934461 280.318048 
L 433.883721 274.870982 
L 436.832981 272.542801 
L 439.782241 263.186148 
L 442.731501 260.330831 
L 445.680761 264.767554 
L 448.630021 277.111307 
L 451.579281 275.529901 
L 454.528541 278.429146 
L 457.477801 291.080395 
L 460.427061 305.049483 
L 463.376321 303.643788 
L 466.325581 305.840186 
L 469.274841 309.705845 
L 472.224101 314.977199 
L 475.173362 362.331528 
L 478.122622 340.806833 
L 481.071882 341.070401 
L 484.021142 343.618222 
L 486.970402 341.070401 
L 489.919662 323.499221 
L 492.868922 291.871098 
L 495.818182 287.478303 
L 498.767442 279.83484 
L 501.716702 276.891668 
L 504.665962 262.615084 
L 510.564482 261.341174 
L 513.513742 258.222289 
L 516.463002 265.733969 
L 519.412262 265.646113 
L 522.361522 266.041464 
L 525.310782 279.659128 
L 528.260042 284.798698 
L 531.209302 290.728972 
L 534.158562 298.372435 
L 537.107822 301.623103 
L 540.057082 307.421592 
L 543.006342 309.881557 
L 545.955603 319.194282 
L 548.904863 320.687833 
L 551.854123 318.315723 
L 554.803383 316.822173 
L 557.752643 315.592191 
L 560.701903 328.419152 
L 563.651163 312.077955 
L 566.600423 318.140012 
L 569.549683 322.972086 
L 572.498943 323.674933 
L 575.448203 311.726531 
L 578.397463 314.625776 
L 581.346723 307.24588 
L 584.295983 307.597304 
L 587.245243 309.530134 
L 590.194503 308.915142 
L 593.143763 306.543033 
L 596.093023 311.462963 
L 599.042283 306.718745 
L 601.991543 313.220081 
L 604.940803 312.868658 
L 607.890063 311.990099 
L 610.839323 318.579291 
L 613.788584 323.411365 
L 616.737844 320.863544 
L 619.687104 330.264126 
L 622.636364 322.620662 
L 622.636364 322.620662 
" clip-path="url(#p7624d43bcf)" style="fill: none; stroke: #ff7f0e; stroke-width: 1.5; stroke-linecap: square"/>
   </g>
   <g id="line2d_29">
    <path d="M 115.363636 128.722696 
L 118.312896 116.818222 
L 121.262156 100.872377 
L 124.211416 110.624381 
L 127.160677 114.270401 
L 130.109937 121.079233 
L 133.059197 110.624381 
L 138.957717 130.611598 
L 141.906977 130.611598 
L 144.856237 139.309332 
L 147.805497 177.636467 
L 150.754757 182.852911 
L 153.704017 168.763021 
L 156.653277 163.952911 
L 159.602537 160.372783 
L 162.551797 167.225543 
L 165.501057 172.760465 
L 168.450317 180.327054 
L 171.399577 178.130657 
L 174.348837 188.969878 
L 177.298097 185.049309 
L 180.247357 175.044718 
L 183.196617 169.817292 
L 186.145877 173.72688 
L 189.095137 169.905148 
L 192.044397 161.427054 
L 194.993658 161.668658 
L 197.942918 143.789983 
L 200.892178 146.645299 
L 203.841438 136.893295 
L 206.790698 131.665869 
L 209.739958 131.753725 
L 212.689218 138.606485 
L 215.638478 143.877838 
L 218.587738 154.33269 
L 221.536998 152.6195 
L 224.486258 167.379291 
L 227.435518 173.485276 
L 230.384778 175.198466 
L 233.334038 181.304451 
L 236.283298 193.530148 
L 239.232558 204.860813 
L 242.181818 230.855177 
L 245.131078 241.200209 
L 248.080338 240.21183 
L 251.029598 241.266101 
L 253.978858 254.795909 
L 256.928118 244.692481 
L 259.877378 251.633097 
L 262.826638 255.366973 
L 265.775899 252.4238 
L 268.725159 270.697827 
L 271.674419 258.046578 
L 274.623679 235.094224 
L 277.572939 223.365462 
L 280.522199 217.490099 
L 283.471459 223.760813 
L 286.420719 225.979175 
L 289.369979 238.191145 
L 292.319239 240.123974 
L 295.268499 254.532342 
L 298.217759 262.615084 
L 301.167019 269.731412 
L 304.116279 278.517002 
L 307.065539 283.436932 
L 310.014799 294.946055 
L 312.964059 297.054596 
L 315.913319 298.196723 
L 318.862579 317.876444 
L 321.811839 311.375107 
L 324.761099 348.274585 
L 327.710359 332.811947 
L 330.659619 332.548379 
L 333.608879 334.481209 
L 336.55814 337.731877 
L 339.5074 316.646461 
L 342.45666 304.610203 
L 345.40592 285.150122 
L 348.35518 292.661801 
L 351.30444 279.83484 
L 354.2537 267.754654 
L 357.20296 264.108635 
L 360.15222 261.472958 
L 363.10148 263.845067 
L 366.05074 255.366973 
L 369 254.049134 
L 371.94926 264.503986 
L 374.89852 276.979524 
L 377.84778 273.465288 
L 380.79704 274.91491 
L 383.7463 280.801255 
L 386.69556 283.04158 
L 389.64482 291.783242 
L 392.59408 290.728972 
L 395.54334 296.878884 
L 398.4926 304.698059 
L 401.44186 333.954073 
L 404.391121 330.527693 
L 407.340381 361.365113 
L 410.289641 356.796607 
L 413.238901 350.822406 
L 416.188161 341.070401 
L 419.137421 343.618222 
L 422.086681 327.013457 
L 425.035941 325.344195 
L 427.985201 302.589518 
L 430.934461 302.238094 
L 433.883721 292.925369 
L 436.832981 299.163138 
L 439.782241 291.871098 
L 442.731501 296.439605 
L 445.680761 293.452504 
L 448.630021 292.398234 
L 451.579281 298.811714 
L 454.528541 302.062382 
L 457.477801 307.68516 
L 460.427061 312.780802 
L 463.376321 310.935828 
L 466.325581 315.767902 
L 469.274841 319.194282 
L 472.224101 323.059942 
L 475.173362 321.829959 
L 478.122622 319.633562 
L 481.071882 338.52258 
L 484.021142 351.700965 
L 486.970402 332.548379 
L 489.919662 315.504335 
L 492.868922 301.095967 
L 495.818182 294.067496 
L 498.767442 292.04681 
L 501.716702 289.411133 
L 504.665962 280.713399 
L 507.615222 270.697827 
L 510.564482 272.718512 
L 513.513742 275.398117 
L 516.463002 283.04158 
L 522.361522 275.837397 
L 525.310782 284.359419 
L 528.260042 288.883998 
L 531.209302 291.958954 
L 534.158562 301.886671 
L 537.107822 296.527461 
L 540.057082 294.331063 
L 543.006342 301.535247 
L 545.955603 299.075282 
L 548.904863 304.785915 
L 551.854123 304.961627 
L 554.803383 304.698059 
L 557.752643 303.995212 
L 560.701903 304.25878 
L 563.651163 308.124439 
L 566.600423 307.773016 
L 569.549683 303.204509 
L 572.498943 304.522347 
L 575.448203 303.204509 
L 578.397463 301.008112 
L 581.346723 294.682487 
L 584.295983 303.204509 
L 587.245243 302.238094 
L 590.194503 298.723858 
L 593.143763 299.778129 
L 596.093023 306.630889 
L 599.042283 296.000325 
L 601.991543 303.028797 
L 604.940803 306.455177 
L 607.890063 304.610203 
L 610.839323 303.468077 
L 613.788584 301.359535 
L 616.737844 297.054596 
L 619.687104 297.581732 
L 622.636364 298.89957 
L 622.636364 298.89957 
" clip-path="url(#p7624d43bcf)" style="fill: none; stroke: #2ca02c; stroke-width: 1.5; stroke-linecap: square"/>
   </g>
   <g id="line2d_30">
    <path d="M 115.363636 113.831121 
L 118.312896 112.776851 
L 121.262156 107.812992 
L 124.211416 111.678652 
L 127.160677 114.665752 
L 130.109937 126.174875 
L 133.059197 113.040418 
L 136.008457 124.549541 
L 138.957717 127.404858 
L 141.906977 132.939779 
L 144.856237 137.771854 
L 147.805497 164.677722 
L 150.754757 171.047275 
L 153.704017 161.690622 
L 156.653277 166.281092 
L 159.602537 166.2152 
L 162.551797 166.281092 
L 165.501057 171.266915 
L 168.450317 177.713341 
L 171.399577 173.573132 
L 174.348837 185.620372 
L 177.298097 174.649367 
L 180.247357 173.111888 
L 183.196617 173.968483 
L 186.145877 173.111888 
L 192.044397 161.383126 
L 194.993658 161.07563 
L 197.942918 158.08853 
L 200.892178 156.616944 
L 203.841438 145.591028 
L 206.790698 146.645299 
L 209.739958 146.337804 
L 212.689218 146.20602 
L 215.638478 158.08853 
L 218.587738 165.358605 
L 221.536998 162.217757 
L 224.486258 177.175224 
L 227.435518 181.249541 
L 230.384778 182.084172 
L 233.334038 187.684985 
L 236.283298 197.426695 
L 239.232558 205.1738 
L 242.181818 223.73885 
L 245.131078 238.454712 
L 248.080338 243.462499 
L 251.029598 245.834608 
L 253.978858 253.170575 
L 256.928118 258.485857 
L 259.877378 255.63054 
L 262.826638 263.625427 
L 265.775899 255.323045 
L 268.725159 260.155119 
L 271.674419 242.452156 
L 274.623679 237.466334 
L 277.572939 231.404277 
L 280.522199 231.096781 
L 283.471459 232.238908 
L 286.420719 235.094224 
L 289.369979 240.826822 
L 292.319239 246.976734 
L 295.268499 260.023335 
L 298.217759 267.447159 
L 301.167019 273.289576 
L 304.116279 274.739198 
L 307.065539 279.966624 
L 310.014799 289.498989 
L 312.964059 288.093295 
L 315.913319 296.263893 
L 318.862579 314.625776 
L 321.811839 311.814387 
L 324.761099 332.899802 
L 330.659619 329.297711 
L 333.608879 336.58975 
L 336.55814 344.233213 
L 339.5074 323.674933 
L 342.45666 314.010784 
L 345.40592 294.331063 
L 348.35518 306.455177 
L 351.30444 287.697943 
L 354.2537 281.020895 
L 357.20296 272.191377 
L 360.15222 271.444602 
L 363.10148 275.266334 
L 366.05074 267.974294 
L 369 267.754654 
L 371.94926 271.883881 
L 374.89852 281.108751 
L 377.84778 281.240535 
L 380.79704 281.108751 
L 383.7463 284.710843 
L 386.69556 279.395561 
L 389.64482 287.478303 
L 392.59408 296.439605 
L 395.54334 298.987426 
L 398.4926 308.300151 
L 401.44186 328.331296 
L 404.391121 322.708518 
L 407.340381 346.956746 
L 410.289641 353.282371 
L 413.238901 351.78882 
L 416.188161 345.726764 
L 419.137421 351.173829 
L 422.086681 334.65692 
L 425.035941 335.447623 
L 427.985201 319.369994 
L 433.883721 306.630889 
L 436.832981 310.67226 
L 439.782241 309.442278 
L 442.731501 309.442278 
L 445.680761 308.212295 
L 448.630021 308.212295 
L 451.579281 313.04437 
L 454.528541 307.773016 
L 457.477801 310.584404 
L 460.427061 311.199396 
L 463.376321 312.956514 
L 466.325581 310.760116 
L 469.274841 317.437164 
L 472.224101 310.496549 
L 475.173362 319.45785 
L 478.122622 315.328623 
L 481.071882 324.81706 
L 484.021142 339.840418 
L 486.970402 329.034143 
L 489.919662 307.333736 
L 492.868922 302.76523 
L 495.818182 293.101081 
L 498.767442 296.000325 
L 501.716702 291.343963 
L 504.665962 283.173364 
L 510.564482 276.584172 
L 513.513742 278.648786 
L 516.463002 284.535131 
L 519.412262 279.878768 
L 522.361522 278.209506 
L 525.310782 288.005439 
L 528.260042 289.498989 
L 531.209302 289.498989 
L 534.158562 296.263893 
L 537.107822 290.11398 
L 540.057082 290.289692 
L 543.006342 296.176037 
L 545.955603 293.101081 
L 548.904863 295.121766 
L 551.854123 289.586845 
L 554.803383 290.201836 
L 557.752643 293.101081 
L 560.701903 296.263893 
L 563.651163 296.703173 
L 566.600423 300.39312 
L 569.549683 292.134666 
L 572.498943 290.728972 
L 575.448203 293.101081 
L 578.397463 287.917583 
L 581.346723 282.426589 
L 584.295983 291.607531 
L 587.245243 290.026124 
L 590.194503 290.728972 
L 593.143763 287.478303 
L 596.093023 292.398234 
L 599.042283 285.457618 
L 601.991543 290.201836 
L 604.940803 289.850413 
L 607.890063 285.721185 
L 610.839323 290.201836 
L 613.788584 284.227635 
L 616.737844 282.031238 
L 619.687104 285.237978 
L 622.636364 281.54803 
L 622.636364 281.54803 
" clip-path="url(#p7624d43bcf)" style="fill: none; stroke: #d62728; stroke-width: 1.5; stroke-linecap: square"/>
   </g>
   <g id="line2d_31">
    <path d="M 115.363636 130.56767 
L 118.312896 117.872493 
L 121.262156 106.846578 
L 124.211416 110.844021 
L 127.160677 121.826008 
L 130.109937 122.792423 
L 133.059197 115.236816 
L 136.008457 127.229146 
L 138.957717 132.720139 
L 144.856237 160.13118 
L 147.805497 172.980105 
L 150.754757 174.517583 
L 153.704017 181.194631 
L 156.653277 175.637745 
L 159.602537 198.504302 
L 162.551797 178.624846 
L 165.501057 198.675552 
L 168.450317 205.7833 
L 171.399577 195.075863 
L 174.348837 211.263312 
L 177.298097 197.561567 
L 180.247357 169.729436 
L 183.196617 155.496781 
L 186.145877 165.775921 
L 189.095137 132.807995 
L 192.044397 138.957908 
L 194.993658 144.448902 
L 197.942918 126.350587 
L 200.892178 150.598815 
L 203.841438 124.725253 
L 206.790698 120.991377 
L 209.739958 123.627054 
L 212.689218 131.929436 
L 215.638478 136.146519 
L 218.587738 147.963138 
L 221.536998 146.162092 
L 224.486258 173.06796 
L 227.435518 166.720372 
L 230.384778 169.729436 
L 233.334038 184.533155 
L 236.283298 188.305468 
L 239.232558 207.924788 
L 242.181818 209.725834 
L 245.131078 217.006891 
L 248.080338 214.261395 
L 251.029598 217.094747 
L 253.978858 235.687252 
L 256.928118 214.096665 
L 259.877378 206.041377 
L 262.826638 200.559993 
L 265.775899 208.699018 
L 268.725159 191.045474 
L 271.674419 178.53699 
L 274.623679 148.490273 
L 277.572939 150.862382 
L 280.522199 150.686671 
L 283.471459 147.787426 
L 286.420719 148.402417 
L 289.369979 167.752679 
L 292.319239 175.890331 
L 295.268499 176.911656 
L 298.217759 186.850354 
L 301.167019 197.989993 
L 304.116279 211.614736 
L 307.065539 214.261395 
L 310.014799 219.840244 
L 312.964059 232.107124 
L 315.913319 226.176851 
L 318.862579 248.031005 
L 321.811839 265.075049 
L 324.761099 265.075049 
L 327.710359 285.150122 
L 330.659619 278.209506 
L 333.608879 261.648669 
L 336.55814 241.529669 
L 339.5074 209.637978 
L 342.45666 189.420139 
L 345.40592 165.775921 
L 348.35518 146.777083 
L 351.30444 117.564997 
L 354.2537 135.70724 
L 357.20296 127.931993 
L 360.15222 122.836351 
L 363.10148 123.890622 
L 366.05074 122.704567 
L 369 137.508286 
L 371.94926 148.665985 
L 374.89852 155.672493 
L 377.84778 172.474933 
L 380.79704 178.789576 
L 383.7463 184.621011 
L 386.69556 203.389227 
L 389.64482 218.203928 
L 392.59408 224.990796 
L 395.54334 223.014038 
L 398.4926 232.19498 
L 401.44186 244.956049 
L 404.391121 238.103289 
L 407.340381 254.444486 
L 410.289641 276.40846 
L 413.238901 235.533504 
L 416.188161 199.2751 
L 419.137421 173.155816 
L 422.086681 160.13118 
L 425.035941 132.983707 
L 427.985201 126.526299 
L 430.934461 116.510726 
L 433.883721 132.456572 
L 436.832981 139.924323 
L 439.782241 129.381615 
L 442.731501 134.696897 
L 445.680761 150.862382 
L 448.630021 151.213806 
L 451.579281 170.586031 
L 454.528541 182.226938 
L 457.477801 190.018658 
L 460.427061 202.101589 
L 463.376321 206.299454 
L 466.325581 213.668367 
L 469.274841 209.81369 
L 472.224101 214.437106 
L 475.173362 219.917118 
L 478.122622 239.992191 
L 481.071882 254.532342 
L 484.021142 260.111191 
L 486.970402 228.505032 
L 492.868922 179.053144 
L 495.818182 179.140999 
L 498.767442 203.389227 
L 501.716702 184.104858 
L 504.665962 173.660988 
L 507.615222 175.978187 
L 510.564482 184.621011 
L 513.513742 178.789576 
L 516.463002 196.190535 
L 519.412262 197.904239 
L 522.361522 209.725834 
L 525.310782 226.264707 
L 528.260042 231.7557 
L 531.209302 244.604625 
L 534.158562 250.93025 
L 537.107822 261.912237 
L 540.057082 260.98975 
L 543.006342 267.315375 
L 545.955603 277.330947 
L 548.904863 286.028681 
L 551.854123 279.131993 
L 554.803383 292.398234 
L 557.752643 288.18115 
L 560.701903 293.628216 
L 563.651163 297.054596 
L 566.600423 300.129553 
L 569.549683 291.958954 
L 572.498943 299.075282 
L 575.448203 294.506775 
L 578.397463 300.744544 
L 581.346723 293.452504 
L 584.295983 293.452504 
L 587.245243 296.263893 
L 590.194503 299.778129 
L 593.143763 291.519675 
L 596.093023 299.163138 
L 599.042283 297.493876 
L 601.991543 298.811714 
L 604.940803 296.96674 
L 607.890063 293.188937 
L 610.839323 301.535247 
L 613.788584 304.25878 
L 616.737844 297.054596 
L 619.687104 307.421592 
L 622.636364 309.705845 
L 622.636364 309.705845 
" clip-path="url(#p7624d43bcf)" style="fill: none; stroke: #9467bd; stroke-width: 1.5; stroke-linecap: square"/>
   </g>
   <g id="line2d_32">
    <path d="M 115.363636 134.21369 
L 118.312896 97.094573 
L 121.262156 97.182429 
L 124.211416 89.538966 
L 127.160677 100.345241 
L 130.109937 108.779407 
L 133.059197 103.508053 
L 136.008457 117.389285 
L 138.957717 120.376386 
L 141.906977 127.888065 
L 144.856237 142.647856 
L 147.805497 161.910261 
L 150.754757 166.786264 
L 153.704017 167.972318 
L 156.653277 175.308286 
L 159.602537 184.533155 
L 162.551797 181.633911 
L 165.501057 187.421418 
L 168.450317 192.127199 
L 171.399577 178.833504 
L 174.348837 204.520372 
L 177.298097 177.921999 
L 180.247357 160.262963 
L 183.196617 140.715026 
L 186.145877 136.673655 
L 189.095137 127.448786 
L 192.044397 123.27563 
L 194.993658 120.815665 
L 197.942918 113.303986 
L 200.892178 135.136177 
L 203.841438 114.753608 
L 206.790698 110.22903 
L 209.739958 111.986148 
L 212.689218 113.040418 
L 215.638478 129.425543 
L 218.587738 151.038094 
L 221.536998 149.588472 
L 224.486258 157.824962 
L 227.435518 164.062731 
L 230.384778 166.522696 
L 233.334038 175.659709 
L 236.283298 176.208809 
L 239.232558 200.901807 
L 242.181818 211.482952 
L 245.131078 219.532748 
L 248.080338 213.833097 
L 251.029598 210.494573 
L 253.978858 213.382836 
L 256.928118 204.701575 
L 259.877378 217.99527 
L 262.826638 217.270459 
L 265.775899 220.795677 
L 268.725159 220.883533 
L 271.674419 175.758547 
L 274.623679 143.789983 
L 277.572939 139.265404 
L 280.522199 123.627054 
L 283.471459 136.322231 
L 286.420719 135.224033 
L 289.369979 152.575572 
L 292.319239 180.996955 
L 295.268499 200.086395 
L 298.217759 209.583068 
L 301.167019 209.769762 
L 304.116279 210.395735 
L 307.065539 220.169704 
L 310.014799 224.946868 
L 312.964059 236.807414 
L 315.913319 233.996026 
L 318.862579 240.43147 
L 321.811839 263.14222 
L 324.761099 259.671912 
L 327.710359 264.020779 
L 330.659619 284.842626 
L 333.608879 284.227635 
L 336.55814 240.782894 
L 339.5074 212.570169 
L 342.45666 168.14803 
L 345.40592 140.934666 
L 348.35518 131.490157 
L 351.30444 114.402185 
L 354.2537 121.650296 
L 357.20296 129.513399 
L 360.15222 113.787193 
L 363.10148 120.552098 
L 366.05074 118.13606 
L 369 131.578013 
L 371.94926 138.211133 
L 374.89852 146.513515 
L 377.84778 160.812063 
L 383.7463 180.909099 
L 386.69556 197.100667 
L 389.64482 211.30724 
L 392.59408 211.58179 
L 395.54334 214.920314 
L 398.4926 217.094747 
L 401.44186 236.983126 
L 404.391121 227.933969 
L 407.340381 248.821708 
L 410.289641 253.521999 
L 413.238901 243.506426 
L 416.188161 190.496374 
L 419.137421 165.336641 
L 422.086681 125.340244 
L 425.035941 113.611482 
L 427.985201 115.14896 
L 430.934461 103.859477 
L 433.883721 122.00172 
L 436.832981 132.412644 
L 439.782241 134.960465 
L 442.731501 125.64774 
L 445.680761 135.751168 
L 448.630021 144.536758 
L 451.579281 164.172551 
L 454.528541 176.472377 
L 457.477801 183.171389 
L 460.427061 194.296142 
L 463.376321 200.086395 
L 466.325581 215.107008 
L 469.274841 227.297013 
L 472.224101 213.569529 
L 475.173362 217.457153 
L 478.122622 292.398234 
L 481.071882 242.781615 
L 484.021142 275.354189 
L 486.970402 251.720953 
L 489.919662 205.876647 
L 492.868922 190.496374 
L 495.818182 173.111888 
L 498.767442 183.171389 
L 501.716702 188.59649 
L 504.665962 178.009855 
L 507.615222 195.108809 
L 510.564482 175.934259 
L 513.513742 171.57441 
L 516.463002 189.86491 
L 519.412262 195.018207 
L 522.361522 201.261467 
L 525.310782 217.457153 
L 528.260042 228.021825 
L 531.209302 236.521883 
L 534.158562 249.21706 
L 537.107822 255.894108 
L 540.057082 258.354073 
L 543.006342 271.093178 
L 545.955603 275.266334 
L 548.904863 281.416246 
L 551.854123 286.380105 
L 554.803383 282.865869 
L 557.752643 290.728972 
L 560.701903 292.222522 
L 563.651163 290.816827 
L 566.600423 301.623103 
L 569.549683 297.845299 
L 572.498943 301.183823 
L 575.448203 301.623103 
L 578.397463 302.501662 
L 581.346723 297.933155 
L 584.295983 305.049483 
L 587.245243 306.630889 
L 590.194503 295.648902 
L 593.143763 293.452504 
L 596.093023 305.75233 
L 599.042283 298.548146 
L 601.991543 311.726531 
L 604.940803 304.873771 
L 607.890063 301.798815 
L 610.839323 301.008112 
L 613.788584 305.928042 
L 616.737844 303.204509 
L 619.687104 309.969413 
L 622.636364 308.475863 
L 622.636364 308.475863 
" clip-path="url(#p7624d43bcf)" style="fill: none; stroke: #8c564b; stroke-width: 1.5; stroke-linecap: square"/>
   </g>
   <g id="line2d_33">
    <path d="M 115.363636 86.112586 
L 118.312896 74.427751 
L 121.262156 66.96 
L 124.211416 80.050529 
L 127.160677 85.321883 
L 130.109937 91.032516 
L 133.059197 83.564765 
L 136.008457 98.324555 
L 138.957717 98.324555 
L 141.906977 112.864707 
L 144.856237 116.42287 
L 147.805497 183.105497 
L 150.754757 166.368948 
L 153.704017 154.750006 
L 156.653277 145.722812 
L 159.602537 147.216363 
L 162.551797 150.598815 
L 165.501057 153.344311 
L 168.450317 175.923277 
L 171.399577 149.19312 
L 174.348837 183.577722 
L 177.298097 166.65448 
L 180.247357 151.828797 
L 183.196617 153.05878 
L 186.145877 148.841697 
L 189.095137 135.224033 
L 192.044397 134.652969 
L 194.993658 128.63484 
L 197.942918 124.461685 
L 200.892178 126.174875 
L 203.841438 109.526182 
L 206.790698 96.831005 
L 209.739958 106.055874 
L 212.689218 111.415084 
L 215.638478 122.836351 
L 218.587738 134.960465 
L 221.536998 128.898408 
L 224.486258 143.262847 
L 227.435518 148.446345 
L 230.384778 165.336641 
L 233.334038 164.106659 
L 236.283298 179.140999 
L 239.232558 197.742255 
L 242.181818 227.955933 
L 245.131078 227.582545 
L 248.080338 225.605787 
L 251.029598 233.622638 
L 253.978858 240.058083 
L 256.928118 239.948263 
L 259.877378 246.01032 
L 262.826638 263.669355 
L 265.775899 240.145938 
L 268.725159 268.501429 
L 271.674419 209.26459 
L 274.623679 186.685625 
L 277.572939 177.15326 
L 280.522199 173.375456 
L 283.471459 188.294486 
L 286.420719 189.052243 
L 289.369979 197.836803 
L 292.319239 213.514619 
L 295.268499 233.996026 
L 298.217759 243.550354 
L 301.167019 254.620198 
L 304.116279 253.478071 
L 307.065539 273.992423 
L 310.014799 279.439489 
L 312.964059 287.961511 
L 315.913319 291.607531 
L 318.862579 307.509448 
L 321.811839 354.424497 
L 324.761099 343.793934 
L 327.710359 337.644021 
L 330.659619 342.212528 
L 333.608879 339.137571 
L 336.55814 338.610436 
L 339.5074 301.271679 
L 345.40592 255.366973 
L 348.35518 238.432748 
L 351.30444 217.490099 
L 354.2537 211.537862 
L 357.20296 214.184521 
L 360.15222 217.292423 
L 363.10148 217.863486 
L 366.05074 218.236874 
L 369 212.010087 
L 371.94926 221.169064 
L 374.89852 234.391377 
L 377.84778 246.186031 
L 380.79704 254.13699 
L 383.7463 257.255874 
L 386.69556 269.33606 
L 392.59408 283.7005 
L 395.54334 287.478303 
L 398.4926 294.946055 
L 401.44186 328.507008 
L 404.391121 312.517234 
L 407.340381 364.44007 
L 410.289641 356.445183 
L 413.238901 337.819733 
L 416.188161 322.093527 
L 422.086681 276.144893 
L 425.035941 269.5557 
L 427.985201 254.532342 
L 430.934461 232.3048 
L 433.883721 245.79068 
L 436.832981 249.875979 
L 439.782241 245.043905 
L 442.731501 246.581383 
L 445.680761 256.904451 
L 448.630021 256.684811 
L 451.579281 267.007879 
L 454.528541 276.891668 
L 457.477801 288.093295 
L 460.427061 293.97964 
L 463.376321 298.372435 
L 466.325581 311.199396 
L 469.274841 312.165811 
L 472.224101 306.455177 
L 475.173362 306.015898 
L 478.122622 302.940941 
L 481.071882 322.269239 
L 484.021142 345.287484 
L 486.970402 318.930715 
L 489.919662 284.271563 
L 492.868922 278.912353 
L 495.818182 268.589285 
L 498.767442 268.589285 
L 501.716702 265.118977 
L 504.665962 254.444486 
L 507.615222 242.210552 
L 510.564482 248.294573 
L 513.513742 240.43147 
L 516.463002 256.684811 
L 519.412262 255.191261 
L 522.361522 260.374759 
L 525.310782 272.542801 
L 528.260042 269.907124 
L 531.209302 281.723742 
L 534.158562 292.134666 
L 537.107822 298.636002 
L 540.057082 300.129553 
L 543.006342 308.651575 
L 545.955603 308.563719 
L 548.904863 308.651575 
L 551.854123 315.065055 
L 554.803383 317.788588 
L 557.752643 318.579291 
L 560.701903 320.599977 
L 563.651163 318.491435 
L 566.600423 332.636235 
L 569.549683 322.796374 
L 572.498943 322.269239 
L 575.448203 324.026357 
L 578.397463 316.382894 
L 581.346723 306.19161 
L 584.295983 316.207182 
L 587.245243 314.801488 
L 590.194503 310.057269 
L 593.143763 312.429378 
L 596.093023 323.411365 
L 599.042283 316.207182 
L 601.991543 321.566392 
L 604.940803 320.160697 
L 607.890063 314.186496 
L 610.839323 323.059942 
L 613.788584 321.478536 
L 616.737844 314.274352 
L 619.687104 314.53792 
L 622.636364 317.52502 
L 622.636364 317.52502 
" clip-path="url(#p7624d43bcf)" style="fill: none; stroke: #e377c2; stroke-width: 1.5; stroke-linecap: square"/>
   </g>
   <g id="line2d_34">
    <path d="M 115.363636 117.564997 
L 118.312896 83.916188 
L 121.262156 72.494922 
L 124.211416 75.482022 
L 127.160677 81.192655 
L 130.109937 97.006717 
L 133.059197 82.59835 
L 136.008457 102.805206 
L 138.957717 111.459012 
L 141.906977 101.399512 
L 144.856237 137.771854 
L 147.805497 161.910261 
L 150.754757 158.396026 
L 153.704017 157.495503 
L 156.653277 149.6324 
L 159.602537 154.354654 
L 162.551797 151.169878 
L 165.501057 166.127345 
L 168.450317 183.830308 
L 171.399577 162.986496 
L 174.348837 184.181732 
L 177.298097 176.186845 
L 180.247357 152.224149 
L 183.196617 149.6324 
L 186.145877 149.895967 
L 189.095137 140.802882 
L 192.044397 127.624497 
L 194.993658 135.180105 
L 197.942918 123.846694 
L 200.892178 129.337687 
L 203.841438 120.596026 
L 206.790698 106.670866 
L 209.739958 113.260058 
L 212.689218 109.57011 
L 218.587738 141.988937 
L 221.536998 130.479814 
L 224.486258 147.743498 
L 227.435518 145.678884 
L 230.384778 158.220314 
L 233.334038 167.840535 
L 236.283298 165.138966 
L 239.232558 213.108286 
L 242.181818 227.209157 
L 245.131078 235.2919 
L 248.080338 216.61154 
L 251.029598 225.495967 
L 253.978858 246.801023 
L 256.928118 227.209157 
L 259.877378 239.882371 
L 262.826638 232.502475 
L 265.775899 221.454596 
L 268.725159 264.591842 
L 271.674419 229.998582 
L 274.623679 188.404306 
L 277.572939 171.332807 
L 280.522199 175.286322 
L 283.471459 181.315433 
L 286.420719 183.918164 
L 289.369979 198.468954 
L 292.319239 207.359216 
L 295.268499 218.862847 
L 298.217759 233.227286 
L 301.167019 249.4367 
L 304.116279 247.72351 
L 307.065539 258.837281 
L 310.014799 273.684927 
L 312.964059 281.32839 
L 315.913319 279.878768 
L 318.862579 300.39312 
L 321.811839 306.982313 
L 324.761099 332.724091 
L 327.710359 323.674933 
L 330.659619 323.674933 
L 333.608879 336.238327 
L 336.55814 304.522347 
L 339.5074 281.943382 
L 342.45666 265.602185 
L 345.40592 228.285392 
L 348.35518 226.857734 
L 351.30444 212.932574 
L 354.2537 201.253231 
L 357.20296 200.355453 
L 360.15222 206.733242 
L 363.10148 205.025543 
L 366.05074 208.259739 
L 369 205.294602 
L 371.94926 218.32473 
L 374.89852 228.10968 
L 377.84778 239.245415 
L 380.79704 247.28423 
L 383.7463 256.245532 
L 386.69556 260.286903 
L 389.64482 277.374875 
L 392.59408 282.382661 
L 395.54334 280.845183 
L 398.4926 292.749657 
L 401.44186 323.235654 
L 404.391121 313.571505 
L 407.340381 369.36 
L 410.289641 350.207414 
L 413.238901 343.178942 
L 416.188161 309.969413 
L 419.137421 311.287252 
L 422.086681 280.669471 
L 425.035941 260.462615 
L 427.985201 238.893992 
L 430.934461 223.804741 
L 433.883721 233.227286 
L 436.832981 233.139431 
L 439.782241 235.467612 
L 442.731501 244.209274 
L 445.680761 237.817757 
L 448.630021 246.01032 
L 451.579281 273.772783 
L 454.528541 267.491087 
L 457.477801 277.111307 
L 460.427061 292.486089 
L 463.376321 288.18115 
L 466.325581 297.493876 
L 469.274841 299.075282 
L 472.224101 307.24588 
L 475.173362 299.865985 
L 478.122622 311.199396 
L 481.071882 325.959187 
L 484.021142 362.858664 
L 486.970402 338.171156 
L 489.919662 285.984753 
L 492.868922 258.837281 
L 495.818182 262.263661 
L 498.767442 266.832167 
L 501.716702 261.472958 
L 504.665962 237.729901 
L 507.615222 243.111075 
L 510.564482 244.209274 
L 513.513742 244.29713 
L 516.463002 253.565927 
L 519.412262 251.764881 
L 522.361522 252.731296 
L 525.310782 271.70817 
L 528.260042 270.697827 
L 531.209302 283.393004 
L 534.158562 293.013225 
L 537.107822 298.372435 
L 540.057082 299.426705 
L 543.006342 306.279465 
L 545.955603 306.806601 
L 548.904863 310.760116 
L 551.854123 310.584404 
L 554.803383 314.713632 
L 557.752643 318.579291 
L 560.701903 314.010784 
L 563.651163 320.512121 
L 566.600423 330.439837 
L 569.549683 323.938501 
L 572.498943 322.269239 
L 575.448203 322.093527 
L 578.397463 316.910029 
L 581.346723 318.315723 
L 584.295983 320.248553 
L 587.245243 315.855758 
L 590.194503 309.442278 
L 593.143763 321.917815 
L 596.093023 321.654248 
L 599.042283 312.956514 
L 601.991543 320.863544 
L 607.890063 316.295038 
L 610.839323 325.783475 
L 613.788584 329.561278 
L 616.737844 318.755003 
L 619.687104 325.695619 
L 622.636364 316.47075 
L 622.636364 316.47075 
" clip-path="url(#p7624d43bcf)" style="fill: none; stroke: #7f7f7f; stroke-width: 1.5; stroke-linecap: square"/>
   </g>
   <g id="patch_3">
    <path d="M 90 384.48 
L 90 51.84 
" style="fill: none; stroke: #000000; stroke-width: 0.8; stroke-linejoin: miter; stroke-linecap: square"/>
   </g>
   <g id="patch_4">
    <path d="M 648 384.48 
L 648 51.84 
" style="fill: none; stroke: #000000; stroke-width: 0.8; stroke-linejoin: miter; stroke-linecap: square"/>
   </g>
   <g id="patch_5">
    <path d="M 90 384.48 
L 648 384.48 
" style="fill: none; stroke: #000000; stroke-width: 0.8; stroke-linejoin: miter; stroke-linecap: square"/>
   </g>
   <g id="patch_6">
    <path d="M 90 51.84 
L 648 51.84 
" style="fill: none; stroke: #000000; stroke-width: 0.8; stroke-linejoin: miter; stroke-linecap: square"/>
   </g>
   <g id="text_16">
    <!-- 4000 Hz -->
    <g transform="translate(341.136563 45.84) scale(0.12 -0.12)">
     <defs>
      <path id="DejaVuSerif-Bold-34" d="M 4084 0 
L 1516 0 
L 1516 378 
L 2209 378 
L 2209 1228 
L 263 1228 
L 263 1588 
L 2216 4750 
L 3391 4750 
L 3391 1631 
L 4191 1631 
L 4191 1228 
L 3391 1228 
L 3391 378 
L 4084 378 
L 4084 0 
z
M 2209 1631 
L 2209 3897 
L 819 1631 
L 2209 1631 
z
" transform="scale(0.015625)"/>
      <path id="DejaVuSerif-Bold-30" d="M 2228 275 
Q 2603 275 2742 615 
Q 2881 956 2881 2328 
Q 2881 3691 2742 4037 
Q 2603 4384 2228 4384 
Q 1853 4384 1714 4043 
Q 1575 3703 1575 2328 
Q 1575 956 1714 615 
Q 1853 275 2228 275 
z
M 2228 -91 
Q 1294 -91 797 532 
Q 300 1156 300 2328 
Q 300 3500 797 4125 
Q 1294 4750 2228 4750 
Q 3159 4750 3656 4125 
Q 4153 3500 4153 2328 
Q 4153 1156 3656 532 
Q 3159 -91 2228 -91 
z
" transform="scale(0.015625)"/>
      <path id="DejaVuSerif-Bold-20" transform="scale(0.015625)"/>
      <path id="DejaVuSerif-Bold-48" d="M 300 0 
L 300 378 
L 897 378 
L 897 4288 
L 300 4288 
L 300 4666 
L 2700 4666 
L 2700 4288 
L 2100 4288 
L 2100 2719 
L 3956 2719 
L 3956 4288 
L 3359 4288 
L 3359 4666 
L 5759 4666 
L 5759 4288 
L 5159 4288 
L 5159 378 
L 5759 378 
L 5759 0 
L 3359 0 
L 3359 378 
L 3956 378 
L 3956 2291 
L 2100 2291 
L 2100 378 
L 2700 378 
L 2700 0 
L 300 0 
z
" transform="scale(0.015625)"/>
      <path id="DejaVuSerif-Bold-7a" d="M 225 0 
L 225 378 
L 2131 2956 
L 697 2956 
L 697 2388 
L 325 2388 
L 325 3322 
L 3419 3322 
L 3419 2950 
L 1509 372 
L 3047 372 
L 3047 972 
L 3419 972 
L 3419 0 
L 225 0 
z
" transform="scale(0.015625)"/>
     </defs>
     <use xlink:href="#DejaVuSerif-Bold-34"/>
     <use xlink:href="#DejaVuSerif-Bold-30" x="69.580078"/>
     <use xlink:href="#DejaVuSerif-Bold-30" x="139.160156"/>
     <use xlink:href="#DejaVuSerif-Bold-30" x="208.740234"/>
     <use xlink:href="#DejaVuSerif-Bold-20" x="278.320312"/>
     <use xlink:href="#DejaVuSerif-Bold-48" x="313.134766"/>
     <use xlink:href="#DejaVuSerif-Bold-7a" x="407.617188"/>
    </g>
   </g>
  </g>
 </g>
 <defs>
  <clipPath id="p7624d43bcf">
   <rect x="90" y="51.84" width="558" height="332.64"/>
  </clipPath>
 </defs>
</svg>
